<?xml version="1.0" encoding="utf-8"?>
<!-- Generator: Adobe Illustrator 21.1.0, SVG Export Plug-In . SVG Version: 6.00 Build 0)  -->
<svg version="1.1" id="Layer_1" xmlns="http://www.w3.org/2000/svg" xmlns:xlink="http://www.w3.org/1999/xlink" x="0px" y="0px"
	 viewBox="0 0 64 64" style="enable-background:new 0 0 64 64;" xml:space="preserve">
<style type="text/css">
	.st0{fill:#DB8E11;}
	.st1{fill:#212A41;}
	.st2{fill:#F9AC2F;}
	.st3{fill:#FFCA4D;}
	.st4{fill:#B7C0D7;}
	.st5{fill:#99A2B9;}
	.st6{fill:#B51040;}
	.st7{fill:#D32E5E;}
	.st8{fill:#F14C7C;}
	.st9{fill:#0079A8;}
	.st10{fill:#1E97C6;}
	.st11{fill:#BED38E;}
	.st12{fill:#A0B570;}
	.st13{fill:#DCF1AC;}
	.st14{fill:#D5DEF5;}
	.st15{fill:#4E4B51;}
	.st16{fill:#6C696F;}
	.st17{fill:#848483;}
	.st18{fill:#A2A2A1;}
	.st19{fill:#7B849B;}
	.st20{fill:#8A878D;}
	.st21{fill:#C0C0BF;}
	.st22{fill:#005B8A;}
	.st23{fill:#970022;}
	.st24{fill:#1A237E;}
	.st25{fill:#BD7000;}
	.st26{fill:#003D6C;}
	.st27{fill:#666665;}
	.st28{fill:#195190;}
</style>
<g id="Alien_Abduction">
	<g>
		<path class="st2" d="M37.132,28.322c-1.627,0.405-3.347,0.628-5.133,0.628c-1.785,0-3.505-0.224-5.132-0.628L5,63.5h54
			L37.132,28.322z"/>
		<path class="st1" d="M59,64H5c-0.182,0-0.349-0.099-0.437-0.257c-0.088-0.158-0.083-0.353,0.012-0.507l21.867-35.178
			c0.115-0.185,0.335-0.273,0.545-0.221c3.274,0.814,6.753,0.813,10.024,0c0.216-0.051,0.432,0.037,0.546,0.221l21.867,35.178
			c0.096,0.154,0.101,0.349,0.013,0.507C59.349,63.901,59.182,64,59,64z M5.899,63h52.201L36.898,28.892
			c-3.206,0.741-6.588,0.74-9.797,0L5.899,63z"/>
	</g>
	<g>
		<path class="st3" d="M8.598,62c-0.09,0-0.181-0.024-0.264-0.075c-0.234-0.146-0.306-0.454-0.161-0.689l19.225-30.927
			c0.146-0.235,0.454-0.305,0.689-0.161c0.234,0.146,0.306,0.454,0.161,0.689L9.023,61.764C8.928,61.917,8.765,62,8.598,62z"/>
	</g>
	<g>
		<path class="st0" d="M55.401,62c-0.167,0-0.33-0.083-0.425-0.236L35.752,30.837c-0.146-0.235-0.073-0.543,0.161-0.689
			c0.234-0.144,0.543-0.075,0.688,0.161l19.225,30.927c0.146,0.235,0.073,0.543-0.161,0.689C55.583,61.976,55.492,62,55.401,62z"/>
	</g>
	<g>
		<path class="st4" d="M50.883,21.5H13.116c-1.599,0-2.787-1.481-2.44-3.042l0.019-0.085c0.763-3.432,3.806-5.873,7.321-5.873
			h27.967c3.515,0,6.559,2.441,7.321,5.873l0.019,0.085C53.67,20.019,52.482,21.5,50.883,21.5z"/>
		<path class="st1" d="M50.883,22H13.116c-0.915,0-1.768-0.409-2.34-1.123c-0.572-0.713-0.787-1.635-0.588-2.527
			c0.839-3.773,4.05-6.35,7.828-6.35h27.968c3.778,0,6.989,2.576,7.81,6.265c0.217,0.977,0.003,1.898-0.569,2.612
			C52.651,21.59,51.798,22,50.883,22z M18.016,13c-3.306,0-6.116,2.254-6.833,5.481c-0.151,0.68-0.008,1.294,0.373,1.77
			C11.938,20.727,12.506,21,13.116,21h37.767c0.61,0,1.179-0.273,1.561-0.749c0.382-0.476,0.524-1.089,0.392-1.684
			C52.1,15.254,49.289,13,45.983,13H18.016z"/>
	</g>
	<g>
		<path class="st14" d="M12.647,19.307c-0.036,0-0.072-0.004-0.109-0.012c-0.27-0.06-0.439-0.327-0.38-0.597
			C12.773,15.932,15.182,14,18.016,14c0.276,0,0.5,0.224,0.5,0.5s-0.224,0.5-0.5,0.5c-2.361,0-4.368,1.61-4.88,3.916
			C13.083,19.148,12.876,19.307,12.647,19.307z"/>
	</g>
	<g>
		<path class="st5" d="M51.353,19.307c-0.229,0-0.437-0.159-0.488-0.392C50.353,16.61,48.345,15,45.983,15
			c-0.276,0-0.5-0.224-0.5-0.5s0.224-0.5,0.5-0.5c2.834,0,5.242,1.932,5.857,4.699c0.06,0.27-0.11,0.537-0.38,0.597
			C51.425,19.303,51.388,19.307,51.353,19.307z"/>
	</g>
	<g>
		<path class="st7" d="M16.463,21.5c3.122,4.451,8.902,7.45,15.536,7.45s12.414-2.999,15.536-7.45H16.463z"/>
		<path class="st1" d="M31.999,29.45c-6.52,0-12.629-2.937-15.945-7.663c-0.107-0.153-0.121-0.353-0.034-0.518
			c0.086-0.166,0.257-0.27,0.443-0.27h31.072c0.187,0,0.357,0.104,0.443,0.27c0.086,0.165,0.073,0.365-0.034,0.518
			C44.629,26.514,38.52,29.45,31.999,29.45z M17.466,22c3.236,4,8.707,6.45,14.533,6.45S43.296,26,46.532,22H17.466z"/>
	</g>
	<g>
		<path class="st9" d="M46.698,12.5c-1.39-6.847-7.442-12-14.699-12s-13.309,5.153-14.699,12H46.698z"/>
		<path class="st1" d="M46.698,13H17.301c-0.15,0-0.292-0.067-0.387-0.184c-0.095-0.116-0.133-0.269-0.103-0.416
			C18.27,5.215,24.658,0,32,0c7.342,0,13.73,5.215,15.189,12.4c0.029,0.147-0.008,0.3-0.104,0.416C46.99,12.933,46.849,13,46.698,13
			z M17.926,12h28.147C44.485,5.59,38.662,1,32,1S19.515,5.59,17.926,12z"/>
	</g>
	<g>
		<path class="st10" d="M19.997,11c-0.064,0-0.13-0.012-0.193-0.039c-0.254-0.106-0.375-0.399-0.269-0.654
			C21.642,5.261,26.535,2,32,2c0.276,0,0.5,0.224,0.5,0.5S32.276,3,32,3c-5.06,0-9.59,3.02-11.542,7.693
			C20.378,10.884,20.192,11,19.997,11z"/>
	</g>
	<g>
		<path class="st18" d="M40.203,49.642l-9.525,3.945c-1.276,0.528-2.738-0.077-3.266-1.353l-1.689-4.077
			c-0.528-1.276,0.077-2.738,1.353-3.266l7.215-2.989c2.551-1.057,5.476,0.155,6.533,2.706l0.732,1.767
			C42.084,47.651,41.479,49.113,40.203,49.642z"/>
		<path class="st1" d="M29.725,54.277c-1.178,0-2.297-0.698-2.775-1.852l-1.689-4.077c-0.633-1.528,0.095-3.287,1.624-3.92
			L34.1,41.44c2.805-1.161,6.026,0.175,7.187,2.977l0.731,1.768c0.307,0.74,0.307,1.556,0,2.296s-0.883,1.317-1.623,1.624l0,0
			l-9.525,3.945C30.495,54.204,30.107,54.277,29.725,54.277z M36.198,42.021c-0.572,0-1.154,0.11-1.716,0.342l-7.215,2.989
			c-1.019,0.422-1.504,1.594-1.083,2.613l1.689,4.077c0.422,1.019,1.594,1.506,2.613,1.083l9.525-3.945
			c1.019-0.422,1.504-1.594,1.082-2.613l-0.731-1.768C39.646,43.068,37.966,42.021,36.198,42.021z M40.203,49.642h0.01H40.203z"/>
	</g>
	<g>
		<path class="st17" d="M38.977,45.874c-0.196,0-0.382-0.116-0.462-0.309c-0.389-0.938-1.297-1.545-2.312-1.545
			c-0.276,0-0.5-0.224-0.5-0.5s0.224-0.5,0.5-0.5c1.421,0,2.69,0.849,3.235,2.162c0.105,0.255-0.016,0.547-0.271,0.653
			C39.105,45.861,39.041,45.874,38.977,45.874z"/>
	</g>
	<g>
		<path class="st18" d="M32.526,52.822l-2.772,1.148l1.531,3.696c0.317,0.765,1.194,1.129,1.96,0.812h0
			c0.765-0.317,1.129-1.194,0.812-1.96L32.526,52.822z"/>
		<path class="st1" d="M32.674,59.091c-0.785,0-1.532-0.465-1.851-1.235l-1.531-3.695c-0.051-0.123-0.051-0.26,0-0.383
			s0.148-0.22,0.271-0.271l2.772-1.148c0.253-0.105,0.548,0.015,0.653,0.271l1.531,3.695c0.421,1.02-0.064,2.191-1.082,2.613
			C33.188,59.042,32.928,59.091,32.674,59.091z M30.407,54.24l1.339,3.233c0.211,0.51,0.799,0.752,1.307,0.542
			c0.509-0.211,0.752-0.797,0.541-1.307l-1.339-3.233L30.407,54.24z"/>
	</g>
	<g>
		<path class="st18" d="M41.127,49.259l-2.772,1.148l1.531,3.696c0.317,0.765,1.194,1.129,1.96,0.812h0
			c0.765-0.317,1.129-1.194,0.812-1.96L41.127,49.259z"/>
		<path class="st1" d="M41.274,55.528c-0.785,0-1.531-0.465-1.851-1.234l-1.53-3.695c-0.105-0.255,0.016-0.548,0.271-0.653
			l2.771-1.148c0.123-0.051,0.26-0.051,0.383,0c0.122,0.051,0.22,0.148,0.271,0.271l1.53,3.696c0.205,0.493,0.205,1.037,0,1.531
			c-0.204,0.493-0.588,0.878-1.082,1.083C41.788,55.479,41.529,55.528,41.274,55.528z M39.009,50.678l1.339,3.233
			c0.211,0.51,0.8,0.755,1.307,0.542c0.247-0.103,0.439-0.294,0.541-0.542c0.103-0.247,0.103-0.519,0-0.765l-1.339-3.234
			L39.009,50.678z"/>
	</g>
	<g>
		<path class="st18" d="M27.473,47.973l-4.157,1.722c-0.51,0.211-1.095-0.031-1.307-0.541l-0.686-1.657
			c-0.482-1.165-0.022-2.507,1.074-3.13l4.105-2.334c0.523-0.297,1.188-0.069,1.418,0.487l0.906,2.187
			C29.354,45.983,28.749,47.445,27.473,47.973z"/>
		<path class="st1" d="M22.935,50.271c-0.589,0-1.148-0.349-1.388-0.926l-0.686-1.657c-0.578-1.395-0.024-3.009,1.289-3.756
			l4.105-2.334c0.373-0.213,0.822-0.256,1.228-0.115c0.407,0.14,0.734,0.448,0.899,0.845l0.906,2.187
			c0.633,1.528-0.095,3.286-1.624,3.92l0,0l-4.158,1.722C23.32,50.235,23.125,50.271,22.935,50.271z M26.995,42.402
			c-0.085,0-0.169,0.022-0.246,0.066l-4.105,2.334c-0.875,0.498-1.244,1.574-0.859,2.504l0.686,1.657
			c0.105,0.255,0.4,0.377,0.653,0.271l4.158-1.722c1.019-0.422,1.504-1.595,1.083-2.613l-0.906-2.187
			c-0.056-0.135-0.162-0.234-0.3-0.282C27.104,42.411,27.049,42.402,26.995,42.402z M27.473,47.974h0.01H27.473z"/>
	</g>
	<g>
		
			<ellipse transform="matrix(0.9239 -0.3827 0.3827 0.9239 -13.8219 13.7044)" class="st18" cx="27.537" cy="41.596" rx="2" ry="2"/>
		<path class="st1" d="M27.541,44.096c-0.982,0-1.915-0.582-2.313-1.543c-0.527-1.274,0.08-2.739,1.353-3.267
			c1.274-0.527,2.739,0.08,3.267,1.353l0,0c0.527,1.274-0.08,2.739-1.353,3.267C28.183,44.035,27.859,44.096,27.541,44.096z
			 M27.535,40.096c-0.191,0-0.385,0.037-0.572,0.114c-0.764,0.316-1.128,1.196-0.812,1.96c0.317,0.765,1.197,1.127,1.96,0.812
			c0.764-0.316,1.128-1.196,0.812-1.96C28.684,40.445,28.124,40.096,27.535,40.096z"/>
	</g>
	<g>
		<path class="st2" d="M39.236,27.678c-1.278-1.02-4.033-1.728-7.237-1.728s-5.96,0.708-7.237,1.728
			c2.214,0.815,4.66,1.272,7.237,1.272S37.022,28.493,39.236,27.678z"/>
		<path class="st1" d="M31.999,29.45c-2.567,0-5.061-0.438-7.41-1.303c-0.169-0.062-0.292-0.211-0.321-0.389
			s0.041-0.358,0.182-0.471c1.419-1.133,4.312-1.837,7.549-1.837s6.131,0.704,7.549,1.837c0.142,0.112,0.211,0.292,0.182,0.471
			c-0.028,0.178-0.151,0.327-0.32,0.389C37.06,29.012,34.566,29.45,31.999,29.45z M25.932,27.546c3.885,1.201,8.25,1.201,12.134,0
			c-1.419-0.68-3.659-1.096-6.067-1.096S27.352,26.866,25.932,27.546z"/>
	</g>
	<g>
		<path class="st1" d="M55.464,42.931c-0.128,0-0.256-0.049-0.354-0.146l-9.192-9.192c-0.195-0.195-0.195-0.512,0-0.707
			s0.512-0.195,0.707,0l9.192,9.192c0.195,0.195,0.195,0.512,0,0.707C55.72,42.882,55.592,42.931,55.464,42.931z"/>
	</g>
	<g>
		<path class="st1" d="M59,46.466c-0.128,0-0.256-0.049-0.354-0.146l-2.121-2.122c-0.195-0.195-0.195-0.512,0-0.707
			s0.512-0.195,0.707,0l2.121,2.122c0.195,0.195,0.195,0.512,0,0.707C59.256,46.417,59.128,46.466,59,46.466z"/>
	</g>
	<g>
		<path class="st1" d="M56.401,35c-0.085,0-0.171-0.021-0.25-0.067l-8.66-5c-0.239-0.138-0.321-0.444-0.183-0.683
			c0.138-0.24,0.444-0.319,0.683-0.183l8.66,5c0.239,0.138,0.321,0.444,0.183,0.683C56.742,34.911,56.573,35,56.401,35z"/>
	</g>
	<g>
		<path class="st1" d="M59,36.5c-0.085,0-0.171-0.021-0.25-0.067l-0.866-0.5c-0.239-0.138-0.321-0.444-0.183-0.683
			c0.138-0.239,0.444-0.319,0.683-0.183l0.866,0.5c0.239,0.138,0.321,0.444,0.183,0.683C59.341,36.41,59.172,36.5,59,36.5z"/>
	</g>
	<g>
		<path class="st1" d="M8.536,42.931c-0.128,0-0.256-0.049-0.354-0.146c-0.195-0.195-0.195-0.512,0-0.707l9.192-9.192
			c0.195-0.195,0.512-0.195,0.707,0s0.195,0.512,0,0.707l-9.192,9.192C8.792,42.882,8.664,42.931,8.536,42.931z"/>
	</g>
	<g>
		<path class="st1" d="M5,46.466c-0.128,0-0.256-0.049-0.354-0.146c-0.195-0.195-0.195-0.512,0-0.707l2.121-2.122
			c0.195-0.195,0.512-0.195,0.707,0s0.195,0.512,0,0.707L5.354,46.32C5.256,46.417,5.128,46.466,5,46.466z"/>
	</g>
	<g>
		<path class="st1" d="M7.599,35c-0.173,0-0.341-0.089-0.434-0.25c-0.138-0.239-0.056-0.545,0.183-0.683l8.66-5
			c0.238-0.139,0.545-0.057,0.683,0.183c0.138,0.239,0.056,0.545-0.183,0.683l-8.66,5C7.77,34.979,7.684,35,7.599,35z"/>
	</g>
	<g>
		<path class="st1" d="M5,36.5c-0.173,0-0.341-0.089-0.434-0.25c-0.138-0.239-0.056-0.545,0.183-0.683l0.866-0.5
			c0.238-0.138,0.545-0.056,0.683,0.183s0.056,0.545-0.183,0.683l-0.866,0.5C5.171,36.479,5.085,36.5,5,36.5z"/>
	</g>
	<g>
		<circle class="st4" cx="7" cy="7.5" r="2"/>
		<path class="st1" d="M7,10c-1.378,0-2.5-1.122-2.5-2.5S5.621,5,7,5s2.5,1.122,2.5,2.5S8.378,10,7,10z M7,6
			C6.172,6,5.5,6.673,5.5,7.5S6.172,9,7,9s1.5-0.673,1.5-1.5S7.827,6,7,6z"/>
	</g>
	<g>
		<path class="st1" d="M56.5,10.5c-0.276,0-0.5-0.224-0.5-0.5V5c0-0.276,0.224-0.5,0.5-0.5S57,4.724,57,5v5
			C57,10.276,56.776,10.5,56.5,10.5z"/>
	</g>
	<g>
		<path class="st1" d="M59,8h-5c-0.276,0-0.5-0.224-0.5-0.5S53.724,7,54,7h5c0.276,0,0.5,0.224,0.5,0.5S59.276,8,59,8z"/>
	</g>
</g>
</svg>
