<?xml version="1.0" encoding="utf-8"?>
<!-- Generator: Adobe Illustrator 21.1.0, SVG Export Plug-In . SVG Version: 6.00 Build 0)  -->
<svg version="1.1" id="Layer_1" xmlns="http://www.w3.org/2000/svg" xmlns:xlink="http://www.w3.org/1999/xlink" x="0px" y="0px"
	 viewBox="0 0 64 64" style="enable-background:new 0 0 64 64;" xml:space="preserve">
<style type="text/css">
	.st0{fill:#DB8E11;}
	.st1{fill:#212A41;}
	.st2{fill:#F9AC2F;}
	.st3{fill:#FFCA4D;}
	.st4{fill:#B7C0D7;}
	.st5{fill:#99A2B9;}
	.st6{fill:#B51040;}
	.st7{fill:#D32E5E;}
	.st8{fill:#F14C7C;}
	.st9{fill:#0079A8;}
	.st10{fill:#1E97C6;}
	.st11{fill:#BED38E;}
	.st12{fill:#A0B570;}
	.st13{fill:#DCF1AC;}
	.st14{fill:#D5DEF5;}
	.st15{fill:#4E4B51;}
	.st16{fill:#6C696F;}
	.st17{fill:#848483;}
	.st18{fill:#A2A2A1;}
	.st19{fill:#7B849B;}
	.st20{fill:#8A878D;}
	.st21{fill:#C0C0BF;}
	.st22{fill:#005B8A;}
	.st23{fill:#970022;}
	.st24{fill:#1A237E;}
	.st25{fill:#BD7000;}
	.st26{fill:#003D6C;}
	.st27{fill:#666665;}
	.st28{fill:#195190;}
</style>
<g id="Alien_Weapon">
	<g>
		<path class="st2" d="M21.5,53.25h-10c-0.552,0-1,0.448-1,1v4c0,0.552,0.448,1,1,1h10c0.552,0,1-0.448,1-1v-4
			C22.5,53.698,22.052,53.25,21.5,53.25z"/>
		<path class="st1" d="M21.5,59.75h-10c-0.827,0-1.5-0.673-1.5-1.5v-4c0-0.827,0.673-1.5,1.5-1.5h10c0.827,0,1.5,0.673,1.5,1.5v4
			C23,59.077,22.327,59.75,21.5,59.75z M11.5,53.75c-0.276,0-0.5,0.224-0.5,0.5v4c0,0.276,0.224,0.5,0.5,0.5h10
			c0.276,0,0.5-0.224,0.5-0.5v-4c0-0.276-0.224-0.5-0.5-0.5H11.5z"/>
	</g>
	<g>
		<path class="st5" d="M7.908,18.25C7.964,18.093,8,17.926,8,17.75v-3c0-1.93,1.57-3.5,3.5-3.5h5c0.829,0,1.5-0.671,1.5-1.5
			s-0.671-1.5-1.5-1.5h-5c-3.584,0-6.5,2.916-6.5,6.5v3c0,0.176,0.036,0.343,0.092,0.5H7.908z"/>
		<path class="st1" d="M7.908,18.75H5.092c-0.212,0-0.401-0.133-0.471-0.333C4.54,18.188,4.5,17.97,4.5,17.75v-3c0-3.86,3.14-7,7-7
			h5c1.103,0,2,0.897,2,2s-0.897,2-2,2h-5c-1.654,0-3,1.346-3,3v3c0,0.22-0.04,0.438-0.121,0.667
			C8.309,18.617,8.12,18.75,7.908,18.75z M5.5,17.75h2v-3c0-2.206,1.794-4,4-4h5c0.551,0,1-0.449,1-1s-0.449-1-1-1h-5
			c-3.309,0-6,2.691-6,6V17.75z"/>
	</g>
	<g>
		<path class="st2" d="M28,35.25H16c-1.381,0-2.5-1.119-2.5-2.5v-12c0-1.381,1.119-2.5,2.5-2.5h12c1.381,0,2.5,1.119,2.5,2.5v12
			C30.5,34.131,29.381,35.25,28,35.25z"/>
		<path class="st1" d="M28,35.75H16c-1.654,0-3-1.346-3-3v-12c0-1.654,1.346-3,3-3h12c1.654,0,3,1.346,3,3v12
			C31,34.404,29.654,35.75,28,35.75z M16,18.75c-1.103,0-2,0.897-2,2v12c0,1.103,0.897,2,2,2h12c1.103,0,2-0.897,2-2v-12
			c0-1.103-0.897-2-2-2H16z"/>
	</g>
	<g>
		<path class="st0" d="M18,35.25H6c-1.381,0-2.5-1.119-2.5-2.5v-12c0-1.381,1.119-2.5,2.5-2.5h12c1.381,0,2.5,1.119,2.5,2.5v12
			C20.5,34.131,19.381,35.25,18,35.25z"/>
		<path class="st1" d="M18,35.75H6c-1.654,0-3-1.346-3-3v-12c0-1.654,1.346-3,3-3h12c1.654,0,3,1.346,3,3v12
			C21,34.404,19.654,35.75,18,35.75z M6,18.75c-1.103,0-2,0.897-2,2v12c0,1.103,0.897,2,2,2h12c1.103,0,2-0.897,2-2v-12
			c0-1.103-0.897-2-2-2H6z"/>
	</g>
	<g>
		<path class="st2" d="M5.5,33.25c-0.276,0-0.5-0.224-0.5-0.5v-12c0-0.276,0.224-0.5,0.5-0.5S6,20.474,6,20.75v12
			C6,33.026,5.776,33.25,5.5,33.25z"/>
	</g>
	<g>
		<path class="st25" d="M18.5,33.25c-0.276,0-0.5-0.224-0.5-0.5v-12c0-0.276,0.224-0.5,0.5-0.5s0.5,0.224,0.5,0.5v12
			C19,33.026,18.776,33.25,18.5,33.25z"/>
	</g>
	<g>
		<path class="st3" d="M22.5,33.25c-0.276,0-0.5-0.224-0.5-0.5v-12c0-0.276,0.224-0.5,0.5-0.5s0.5,0.224,0.5,0.5v12
			C23,33.026,22.776,33.25,22.5,33.25z"/>
	</g>
	<g>
		<polygon class="st4" points="24.5,35.25 14.5,35.25 9.5,53.25 19.5,53.25 		"/>
		<path class="st1" d="M19.5,53.75h-10c-0.156,0-0.304-0.073-0.398-0.197c-0.095-0.125-0.125-0.286-0.084-0.437l5-18
			c0.06-0.216,0.257-0.366,0.482-0.366h10c0.156,0,0.304,0.073,0.398,0.197c0.095,0.125,0.125,0.286,0.084,0.437l-5,18
			C19.922,53.6,19.725,53.75,19.5,53.75z M10.158,52.75h8.962l4.722-17H14.88L10.158,52.75z"/>
	</g>
	<g>
		<polygon class="st5" points="17.5,35.25 7.5,35.25 2.5,53.25 12.5,53.25 		"/>
		<path class="st1" d="M12.5,53.75h-10c-0.156,0-0.304-0.073-0.398-0.197c-0.095-0.125-0.125-0.286-0.084-0.437l5-18
			C7.078,34.9,7.275,34.75,7.5,34.75h10c0.156,0,0.304,0.073,0.398,0.197c0.095,0.125,0.125,0.286,0.084,0.437l-5,18
			C12.922,53.6,12.725,53.75,12.5,53.75z M3.158,52.75h8.962l4.722-17H7.88L3.158,52.75z"/>
	</g>
	<g>
		<polygon class="st5" points="17.5,35.25 7.5,35.25 2.5,53.25 12.5,53.25 		"/>
		<path class="st1" d="M12.5,53.75h-10c-0.156,0-0.304-0.073-0.398-0.197c-0.095-0.125-0.125-0.286-0.084-0.437l5-18
			C7.078,34.9,7.275,34.75,7.5,34.75h10c0.156,0,0.304,0.073,0.398,0.197c0.095,0.125,0.125,0.286,0.084,0.437l-5,18
			C12.922,53.6,12.725,53.75,12.5,53.75z M3.158,52.75h8.962l4.722-17H7.88L3.158,52.75z"/>
	</g>
	<g>
		<path class="st14" d="M15.132,51.75c-0.044,0-0.089-0.006-0.134-0.018c-0.266-0.074-0.422-0.35-0.348-0.616l3.889-14
			c0.074-0.266,0.35-0.421,0.616-0.348c0.266,0.074,0.422,0.35,0.348,0.616l-3.889,14C15.552,51.605,15.351,51.75,15.132,51.75z"/>
	</g>
	<g>
		<path class="st19" d="M10.98,51.75c-0.044,0-0.089-0.006-0.134-0.018c-0.266-0.074-0.422-0.35-0.348-0.616l3.889-14
			c0.074-0.266,0.349-0.421,0.616-0.348c0.266,0.074,0.422,0.35,0.348,0.616l-3.889,14C11.4,51.605,11.199,51.75,10.98,51.75z"/>
	</g>
	<g>
		<path class="st4" d="M5.132,51.75c-0.044,0-0.089-0.006-0.134-0.018c-0.266-0.074-0.422-0.35-0.348-0.616l3.889-14
			c0.074-0.266,0.349-0.421,0.616-0.348c0.266,0.074,0.422,0.35,0.348,0.616l-3.889,14C5.552,51.605,5.351,51.75,5.132,51.75z"/>
	</g>
	<g>
		<path class="st5" d="M45.5,31.75h-15c-2.761,0-5-2.239-5-5v0c0-2.761,2.239-5,5-5h15V31.75z"/>
		<path class="st1" d="M45.5,32.25h-15c-3.033,0-5.5-2.467-5.5-5.5s2.467-5.5,5.5-5.5h15c0.276,0,0.5,0.224,0.5,0.5v10
			C46,32.026,45.776,32.25,45.5,32.25z M30.5,22.25c-2.481,0-4.5,2.019-4.5,4.5s2.019,4.5,4.5,4.5H45v-9H30.5z"/>
	</g>
	<g>
		<path class="st4" d="M27.5,27.25c-0.276,0-0.5-0.224-0.5-0.5c0-1.93,1.57-3.5,3.5-3.5c0.276,0,0.5,0.224,0.5,0.5
			s-0.224,0.5-0.5,0.5c-1.378,0-2.5,1.122-2.5,2.5C28,27.026,27.776,27.25,27.5,27.25z"/>
	</g>
	<g>
		<path class="st7" d="M24.5,14.75h-11c-2.761,0-5-2.239-5-5v0c0-2.761,2.239-5,5-5h11c2.761,0,5,2.239,5,5v0
			C29.5,12.511,27.261,14.75,24.5,14.75z"/>
		<path class="st1" d="M24.5,15.25h-11c-3.033,0-5.5-2.467-5.5-5.5s2.467-5.5,5.5-5.5h11c3.033,0,5.5,2.467,5.5,5.5
			S27.533,15.25,24.5,15.25z M13.5,5.25c-2.481,0-4.5,2.019-4.5,4.5s2.019,4.5,4.5,4.5h11c2.481,0,4.5-2.019,4.5-4.5
			s-2.019-4.5-4.5-4.5H13.5z"/>
	</g>
	<g>
		<path class="st7" d="M17,14.75c-2.761,0-5-2.239-5-5v0c0-2.761,2.239-5,5-5"/>
		<path class="st1" d="M17,15.25c-3.033,0-5.5-2.467-5.5-5.5s2.467-5.5,5.5-5.5c0.276,0,0.5,0.224,0.5,0.5s-0.224,0.5-0.5,0.5
			c-2.481,0-4.5,2.019-4.5,4.5s2.019,4.5,4.5,4.5c0.276,0,0.5,0.224,0.5,0.5S17.276,15.25,17,15.25z"/>
	</g>
	<g>
		<ellipse class="st2" cx="49" cy="26.75" rx="6" ry="12"/>
		<path class="st1" d="M49,39.25c-3.645,0-6.5-5.491-6.5-12.5s2.855-12.5,6.5-12.5s6.5,5.491,6.5,12.5S52.645,39.25,49,39.25z
			 M49,15.25c-2.981,0-5.5,5.267-5.5,11.5s2.519,11.5,5.5,11.5s5.5-5.267,5.5-11.5S51.981,15.25,49,15.25z"/>
	</g>
	<g>
		<path class="st3" d="M45,27.25c-0.276,0-0.5-0.224-0.5-0.5c0-6.188,2.372-10.5,4.5-10.5c0.276,0,0.5,0.224,0.5,0.5
			s-0.224,0.5-0.5,0.5c-1.234,0-3.5,3.607-3.5,9.5C45.5,27.026,45.276,27.25,45,27.25z"/>
	</g>
	<g>
		<path class="st0" d="M49,37.25c-0.276,0-0.5-0.224-0.5-0.5s0.224-0.5,0.5-0.5c1.234,0,3.5-3.607,3.5-9.5
			c0-0.276,0.224-0.5,0.5-0.5s0.5,0.224,0.5,0.5C53.5,32.938,51.128,37.25,49,37.25z"/>
	</g>
	<g>
		<path class="st0" d="M43,26.75c0-6.627,2.686-12,6-12c-6.627,0-12,5.373-12,12c0,6.627,5.373,12,12,12
			C45.686,38.75,43,33.377,43,26.75z"/>
		<path class="st1" d="M49,39.25c-6.893,0-12.5-5.607-12.5-12.5s5.607-12.5,12.5-12.5c0.276,0,0.5,0.224,0.5,0.5s-0.224,0.5-0.5,0.5
			c-2.981,0-5.5,5.267-5.5,11.5s2.519,11.5,5.5,11.5c0.276,0,0.5,0.224,0.5,0.5S49.276,39.25,49,39.25z M45.954,15.659
			C41.086,16.998,37.5,21.463,37.5,26.75s3.586,9.752,8.454,11.091C43.884,35.773,42.5,31.63,42.5,26.75
			S43.884,17.727,45.954,15.659z"/>
	</g>
	<g>
		<path class="st7" d="M62.5,25.75v2l-11.251,0.441c-0.818,0.032-1.499-0.622-1.499-1.441v0c0-0.819,0.681-1.473,1.499-1.441
			L62.5,25.75z"/>
		<path class="st1" d="M51.191,28.692c-0.504,0-0.979-0.191-1.345-0.542c-0.384-0.37-0.596-0.867-0.596-1.4s0.211-1.03,0.596-1.4
			s0.881-0.562,1.423-0.541L62.52,25.25c0.269,0.01,0.48,0.231,0.48,0.5v2c0,0.269-0.212,0.489-0.48,0.5l-11.251,0.441
			C51.243,28.692,51.217,28.692,51.191,28.692z M51.192,25.808c-0.245,0-0.476,0.093-0.653,0.263
			c-0.187,0.179-0.289,0.42-0.289,0.679s0.103,0.5,0.289,0.679c0.187,0.18,0.433,0.276,0.69,0.263L62,27.269v-1.038l-10.771-0.423
			C51.217,25.808,51.204,25.808,51.192,25.808z"/>
	</g>
	<g>
		<circle class="st7" cx="61.5" cy="26.75" r="2"/>
		<path class="st1" d="M61.5,29.25c-1.378,0-2.5-1.122-2.5-2.5s1.122-2.5,2.5-2.5s2.5,1.122,2.5,2.5S62.878,29.25,61.5,29.25z
			 M61.5,25.25c-0.827,0-1.5,0.673-1.5,1.5s0.673,1.5,1.5,1.5s1.5-0.673,1.5-1.5S62.327,25.25,61.5,25.25z"/>
	</g>
	<g>
		<path class="st5" d="M34,23.25c0.829,0,1.5-0.671,1.5-1.5v-7c0-3.584-2.916-6.5-6.5-6.5h-1.5c-0.829,0-1.5,0.671-1.5,1.5
			s0.671,1.5,1.5,1.5H29c1.93,0,3.5,1.57,3.5,3.5v7C32.5,22.579,33.171,23.25,34,23.25z"/>
		<path class="st1" d="M34,23.75c-1.103,0-2-0.897-2-2v-7c0-1.654-1.346-3-3-3h-1.5c-1.103,0-2-0.897-2-2s0.897-2,2-2H29
			c3.86,0,7,3.14,7,7v7C36,22.853,35.103,23.75,34,23.75z M27.5,8.75c-0.551,0-1,0.449-1,1s0.449,1,1,1H29c2.206,0,4,1.794,4,4v7
			c0,0.551,0.449,1,1,1s1-0.449,1-1v-7c0-3.309-2.691-6-6-6H27.5z"/>
	</g>
	<g>
		<path class="st9" d="M12.5,29.25h-8c-0.552,0-1-0.448-1-1v-3c0-0.552,0.448-1,1-1h8c0.552,0,1,0.448,1,1v3
			C13.5,28.802,13.052,29.25,12.5,29.25z"/>
		<path class="st1" d="M12.5,29.75h-8c-0.827,0-1.5-0.673-1.5-1.5v-3c0-0.827,0.673-1.5,1.5-1.5h8c0.827,0,1.5,0.673,1.5,1.5v3
			C14,29.077,13.327,29.75,12.5,29.75z M4.5,24.75c-0.276,0-0.5,0.224-0.5,0.5v3c0,0.276,0.224,0.5,0.5,0.5h8
			c0.276,0,0.5-0.224,0.5-0.5v-3c0-0.276-0.224-0.5-0.5-0.5H4.5z"/>
	</g>
	<g>
		<path class="st22" d="M10.5,29.25h-8c-0.552,0-1-0.448-1-1v-3c0-0.552,0.448-1,1-1h8c0.552,0,1,0.448,1,1v3
			C11.5,28.802,11.052,29.25,10.5,29.25z"/>
		<path class="st1" d="M10.5,29.75h-8c-0.827,0-1.5-0.673-1.5-1.5v-3c0-0.827,0.673-1.5,1.5-1.5h8c0.827,0,1.5,0.673,1.5,1.5v3
			C12,29.077,11.327,29.75,10.5,29.75z M2.5,24.75c-0.276,0-0.5,0.224-0.5,0.5v3c0,0.276,0.224,0.5,0.5,0.5h8
			c0.276,0,0.5-0.224,0.5-0.5v-3c0-0.276-0.224-0.5-0.5-0.5H2.5z"/>
	</g>
	<g>
		<rect x="20.5" y="35.25" class="st22" width="3" height="8"/>
		<path class="st1" d="M23.5,43.75h-3c-0.276,0-0.5-0.224-0.5-0.5v-8c0-0.276,0.224-0.5,0.5-0.5h3c0.276,0,0.5,0.224,0.5,0.5v8
			C24,43.526,23.776,43.75,23.5,43.75z M21,42.75h2v-7h-2V42.75z"/>
	</g>
	<g>
		<rect x="23.5" y="35.25" class="st9" width="4" height="8"/>
		<path class="st1" d="M27.5,43.75h-4c-0.276,0-0.5-0.224-0.5-0.5v-8c0-0.276,0.224-0.5,0.5-0.5h4c0.276,0,0.5,0.224,0.5,0.5v8
			C28,43.526,27.776,43.75,27.5,43.75z M24,42.75h3v-7h-3V42.75z"/>
	</g>
	<g>
		<path class="st0" d="M11.5,53.25h-10c-0.552,0-1,0.448-1,1v4c0,0.552,0.448,1,1,1h10c0.552,0,1-0.448,1-1v-4
			C12.5,53.698,12.052,53.25,11.5,53.25z"/>
		<path class="st1" d="M11.5,59.75h-10c-0.827,0-1.5-0.673-1.5-1.5v-4c0-0.827,0.673-1.5,1.5-1.5h10c0.827,0,1.5,0.673,1.5,1.5v4
			C13,59.077,12.327,59.75,11.5,59.75z M1.5,53.75c-0.276,0-0.5,0.224-0.5,0.5v4c0,0.276,0.224,0.5,0.5,0.5h10
			c0.276,0,0.5-0.224,0.5-0.5v-4c0-0.276-0.224-0.5-0.5-0.5H1.5z"/>
	</g>
	<g>
		<path class="st1" d="M10.556,42.75h-5c-0.156,0-0.304-0.073-0.398-0.197c-0.095-0.125-0.125-0.286-0.084-0.437l1.111-4
			c0.06-0.216,0.257-0.366,0.482-0.366h5c0.156,0,0.304,0.073,0.398,0.197c0.095,0.125,0.125,0.286,0.084,0.437l-1.111,4
			C10.978,42.6,10.78,42.75,10.556,42.75z M6.213,41.75h3.962l0.833-3H7.046L6.213,41.75z"/>
	</g>
	<g>
		<path class="st1" d="M8.333,50.75h-5c-0.156,0-0.304-0.073-0.398-0.197c-0.095-0.125-0.125-0.286-0.084-0.437l1.111-4
			C4.022,45.9,4.22,45.75,4.444,45.75h5c0.156,0,0.304,0.073,0.398,0.197c0.095,0.125,0.125,0.286,0.084,0.437l-1.111,4
			C8.755,50.6,8.558,50.75,8.333,50.75z M3.991,49.75h3.962l0.833-3H4.824L3.991,49.75z"/>
	</g>
</g>
</svg>
