<?xml version="1.0" encoding="utf-8"?>
<!-- Generator: Adobe Illustrator 21.1.0, SVG Export Plug-In . SVG Version: 6.00 Build 0)  -->
<svg version="1.1" id="Layer_1" xmlns="http://www.w3.org/2000/svg" xmlns:xlink="http://www.w3.org/1999/xlink" x="0px" y="0px"
	 viewBox="0 0 64 64" style="enable-background:new 0 0 64 64;" xml:space="preserve">
<style type="text/css">
	.st0{fill:#DB8E11;}
	.st1{fill:#212A41;}
	.st2{fill:#F9AC2F;}
	.st3{fill:#FFCA4D;}
	.st4{fill:#B7C0D7;}
	.st5{fill:#99A2B9;}
	.st6{fill:#B51040;}
	.st7{fill:#D32E5E;}
	.st8{fill:#F14C7C;}
	.st9{fill:#0079A8;}
	.st10{fill:#1E97C6;}
	.st11{fill:#BED38E;}
	.st12{fill:#A0B570;}
	.st13{fill:#DCF1AC;}
	.st14{fill:#D5DEF5;}
	.st15{fill:#4E4B51;}
	.st16{fill:#6C696F;}
	.st17{fill:#848483;}
	.st18{fill:#A2A2A1;}
	.st19{fill:#7B849B;}
	.st20{fill:#8A878D;}
	.st21{fill:#C0C0BF;}
	.st22{fill:#005B8A;}
	.st23{fill:#970022;}
	.st24{fill:#1A237E;}
	.st25{fill:#BD7000;}
	.st26{fill:#003D6C;}
	.st27{fill:#666665;}
	.st28{fill:#195190;}
</style>
<g id="Alien_Hand">
	<g>
		<path class="st11" d="M58.908,35.265l-2-3.464l-18.206,8.164c-0.652,0.292-1.416,0.152-1.921-0.353l-0.137-0.137
			c-0.643-0.643-0.675-1.677-0.071-2.358L57.419,13.58l-2.828-2.828l-23.53,20.852c-0.681,0.604-1.715,0.572-2.358-0.071l0,0
			c-0.57-0.57-0.668-1.46-0.235-2.14L42.57,7.216l-2.121-2.121l-17.383,18.72c-0.665,0.717-1.413,1.353-2.226,1.895l0,0
			c-1.723,1.148-4.031,0.83-5.379-0.742l-0.201-0.235c-1.054-1.23-1.447-2.895-1.054-4.467l1.495-5.98l-4.414-0.064l-3.235,7.636
			c-0.881,2.081-1.032,4.398-0.428,6.576l0.713,2.568c1.195,4.307,0.408,8.922-2.148,12.589l-4.097,5.878l12.374,12.374l12.403-9.55
			c1.976-1.521,4.089-2.854,6.313-3.982L58.908,35.265z"/>
		<path class="st1" d="M14.466,62.344c-0.128,0-0.256-0.049-0.354-0.146L1.738,49.823c-0.171-0.171-0.195-0.441-0.057-0.64
			l4.097-5.878c2.479-3.556,3.235-7.991,2.076-12.169l-0.713-2.567c-0.632-2.277-0.473-4.729,0.449-6.904l3.235-7.636
			c0.08-0.188,0.249-0.317,0.468-0.305l4.414,0.064c0.153,0.002,0.296,0.074,0.389,0.195c0.093,0.121,0.125,0.278,0.088,0.426
			l-1.495,5.979c-0.353,1.412,0.002,2.915,0.949,4.021l0.202,0.235c1.181,1.378,3.212,1.658,4.721,0.651
			c0.78-0.521,1.5-1.132,2.137-1.819l17.383-18.72c0.092-0.1,0.221-0.157,0.357-0.16c0.125-0.008,0.267,0.05,0.363,0.146
			l2.121,2.121c0.166,0.166,0.194,0.424,0.068,0.622L28.89,29.661c-0.309,0.486-0.241,1.111,0.167,1.519
			c0.456,0.455,1.189,0.477,1.673,0.05l23.53-20.852c0.198-0.176,0.499-0.166,0.685,0.021l2.829,2.829
			c0.187,0.187,0.196,0.487,0.021,0.685L36.947,37.448c-0.427,0.482-0.405,1.217,0.05,1.672l0.138,0.138
			c0.356,0.356,0.905,0.457,1.363,0.25l18.206-8.164c0.236-0.105,0.51-0.016,0.638,0.206l2,3.464
			c0.068,0.119,0.085,0.261,0.046,0.393c-0.04,0.131-0.131,0.241-0.253,0.303L33.408,48.757c-2.188,1.11-4.286,2.433-6.233,3.932
			l-12.403,9.55C14.681,62.31,14.573,62.344,14.466,62.344z M2.741,49.412L14.509,61.18l12.055-9.282
			c1.997-1.538,4.147-2.894,6.392-4.032l25.256-12.808l-1.511-2.616l-17.793,7.979c-0.835,0.375-1.832,0.191-2.479-0.456
			l-0.138-0.138c-0.829-0.829-0.869-2.165-0.092-3.042l20.535-23.184l-2.163-2.163l-23.178,20.54
			c-0.878,0.777-2.215,0.738-3.043-0.091c-0.742-0.742-0.866-1.877-0.304-2.762L41.933,7.286l-1.471-1.471l-17.03,18.34
			c-0.69,0.744-1.469,1.407-2.315,1.971c-1.93,1.287-4.526,0.931-6.035-0.833l-0.202-0.235c-1.158-1.351-1.591-3.188-1.16-4.913
			l1.342-5.368l-3.447-0.05l-3.104,7.326c-0.834,1.968-0.979,4.187-0.406,6.247l0.713,2.567c1.239,4.466,0.431,9.207-2.219,13.009
			L2.741,49.412z"/>
	</g>
	<g>
		<circle class="st11" cx="13.493" cy="14.224" r="4"/>
		<path class="st1" d="M13.493,18.724c-2.481,0-4.5-2.019-4.5-4.5s2.019-4.5,4.5-4.5s4.5,2.019,4.5,4.5S15.975,18.724,13.493,18.724
			z M13.493,10.724c-1.93,0-3.5,1.57-3.5,3.5s1.57,3.5,3.5,3.5s3.5-1.57,3.5-3.5S15.423,10.724,13.493,10.724z"/>
	</g>
	<g>
		<ellipse transform="matrix(0.7071 -0.7071 0.7071 0.7071 7.8051 31.1546)" class="st11" cx="41.509" cy="6.156" rx="4" ry="4"/>
		<path class="st1" d="M41.509,10.654c-1.152,0-2.304-0.438-3.182-1.316c-0.85-0.85-1.318-1.98-1.318-3.182
			c0-1.202,0.468-2.333,1.318-3.182c1.754-1.756,4.609-1.754,6.364,0c1.754,1.754,1.754,4.609,0,6.364
			C43.814,10.215,42.662,10.654,41.509,10.654z M41.51,2.657c-0.896,0-1.793,0.341-2.475,1.023c-0.661,0.661-1.025,1.54-1.025,2.475
			c0,0.935,0.364,1.814,1.025,2.475c1.364,1.364,3.585,1.364,4.95,0c1.364-1.365,1.365-3.585,0-4.95
			C43.302,2.999,42.406,2.657,41.51,2.657z"/>
	</g>
	<g>
		<ellipse transform="matrix(0.7071 -0.7071 0.7071 0.7071 7.8008 43.1649)" class="st11" cx="56.005" cy="12.166" rx="4" ry="4"/>
		<path class="st1" d="M56.005,16.664c-1.152,0-2.305-0.438-3.182-1.316c-1.754-1.754-1.754-4.609,0-6.364
			c0.85-0.85,1.98-1.318,3.182-1.318c1.202,0,2.333,0.468,3.182,1.318l0,0c1.754,1.754,1.754,4.609,0,6.364
			C58.31,16.226,57.157,16.664,56.005,16.664z M56.005,8.666c-0.935,0-1.813,0.364-2.475,1.025c-1.365,1.365-1.365,3.585,0,4.95
			c1.364,1.364,3.585,1.365,4.95,0s1.365-3.585,0-4.95l0,0C57.819,9.03,56.94,8.666,56.005,8.666z"/>
	</g>
	<g>
		<ellipse transform="matrix(0.7071 -0.7071 0.7071 0.7071 -6.7506 50.769)" class="st11" cx="57.908" cy="33.533" rx="4" ry="4"/>
		<path class="st1" d="M57.908,38.033c-1.202,0-2.332-0.468-3.182-1.318c-0.85-0.85-1.318-1.98-1.318-3.182
			c0-1.202,0.468-2.333,1.318-3.182c1.754-1.756,4.609-1.755,6.364,0c1.754,1.754,1.754,4.609,0,6.364
			C60.241,37.565,59.11,38.033,57.908,38.033z M57.909,30.035c-0.896,0-1.793,0.341-2.475,1.023
			c-0.661,0.661-1.025,1.54-1.025,2.475c0,0.935,0.364,1.813,1.025,2.475c1.323,1.323,3.628,1.322,4.95,0
			c1.365-1.365,1.365-3.585,0-4.95C59.701,30.376,58.805,30.035,57.909,30.035z"/>
	</g>
	<g>
		<path class="st12" d="M14.638,59.688c-0.15,0-0.298-0.067-0.396-0.195c-0.168-0.219-0.128-0.533,0.091-0.701l11.011-8.479
			c2.095-1.613,4.352-3.037,6.708-4.23l20.281-10.285c0.246-0.127,0.547-0.027,0.672,0.22c0.125,0.246,0.027,0.547-0.22,0.672
			L32.503,46.974c-2.3,1.166-4.504,2.556-6.549,4.131l-11.011,8.479C14.852,59.654,14.745,59.688,14.638,59.688z"/>
	</g>
	<g>
		<path class="st13" d="M4.689,49.739c-0.099,0-0.198-0.029-0.286-0.09c-0.226-0.158-0.282-0.47-0.124-0.696l3.139-4.504
			c2.821-4.047,3.682-9.094,2.362-13.848l-0.713-2.568c-0.511-1.843-0.382-3.828,0.364-5.589l1.231-2.906
			c0.108-0.255,0.403-0.373,0.655-0.266c0.254,0.108,0.373,0.401,0.266,0.655l-1.231,2.906c-0.658,1.554-0.772,3.305-0.321,4.932
			l0.713,2.568c1.399,5.042,0.486,10.395-2.506,14.688L5.1,49.525C5.003,49.665,4.848,49.739,4.689,49.739z"/>
	</g>
	<g>
		<circle class="st4" cx="39.677" cy="55.06" r="2"/>
		<path class="st1" d="M39.677,57.561c-1.378,0-2.5-1.122-2.5-2.5s1.122-2.5,2.5-2.5s2.5,1.122,2.5,2.5S41.055,57.561,39.677,57.561
			z M39.677,53.561c-0.827,0-1.5,0.673-1.5,1.5s0.673,1.5,1.5,1.5s1.5-0.673,1.5-1.5S40.504,53.561,39.677,53.561z"/>
	</g>
	<g>
		<path class="st1" d="M27.177,10.561c-0.276,0-0.5-0.224-0.5-0.5v-5c0-0.276,0.224-0.5,0.5-0.5s0.5,0.224,0.5,0.5v5
			C27.677,10.337,27.453,10.561,27.177,10.561z"/>
	</g>
	<g>
		<path class="st1" d="M29.677,8.061h-5c-0.276,0-0.5-0.224-0.5-0.5s0.224-0.5,0.5-0.5h5c0.276,0,0.5,0.224,0.5,0.5
			S29.953,8.061,29.677,8.061z"/>
	</g>
	<g>
		<line class="st4" x1="52.177" y1="47.06" x2="52.177" y2="52.06"/>
		<path class="st1" d="M52.177,52.561c-0.276,0-0.5-0.224-0.5-0.5v-5c0-0.276,0.224-0.5,0.5-0.5s0.5,0.224,0.5,0.5v5
			C52.677,52.337,52.453,52.561,52.177,52.561z"/>
	</g>
	<g>
		<line class="st4" x1="54.677" y1="49.56" x2="49.677" y2="49.56"/>
		<path class="st1" d="M54.677,50.061h-5c-0.276,0-0.5-0.224-0.5-0.5s0.224-0.5,0.5-0.5h5c0.276,0,0.5,0.224,0.5,0.5
			S54.953,50.061,54.677,50.061z"/>
	</g>
</g>
</svg>
