<?xml version="1.0" encoding="utf-8"?>
<!-- Generator: Adobe Illustrator 21.1.0, SVG Export Plug-In . SVG Version: 6.00 Build 0)  -->
<svg version="1.1" id="Layer_1" xmlns="http://www.w3.org/2000/svg" xmlns:xlink="http://www.w3.org/1999/xlink" x="0px" y="0px"
	 viewBox="0 0 64 64" style="enable-background:new 0 0 64 64;" xml:space="preserve">
<style type="text/css">
	.st0{fill:#DB8E11;}
	.st1{fill:#212A41;}
	.st2{fill:#F9AC2F;}
	.st3{fill:#FFCA4D;}
	.st4{fill:#B7C0D7;}
	.st5{fill:#99A2B9;}
	.st6{fill:#B51040;}
	.st7{fill:#D32E5E;}
	.st8{fill:#F14C7C;}
	.st9{fill:#0079A8;}
	.st10{fill:#1E97C6;}
	.st11{fill:#BED38E;}
	.st12{fill:#A0B570;}
	.st13{fill:#DCF1AC;}
	.st14{fill:#D5DEF5;}
	.st15{fill:#4E4B51;}
	.st16{fill:#6C696F;}
	.st17{fill:#848483;}
	.st18{fill:#A2A2A1;}
	.st19{fill:#7B849B;}
	.st20{fill:#8A878D;}
	.st21{fill:#C0C0BF;}
	.st22{fill:#005B8A;}
	.st23{fill:#970022;}
	.st24{fill:#1A237E;}
	.st25{fill:#BD7000;}
	.st26{fill:#003D6C;}
	.st27{fill:#666665;}
	.st28{fill:#195190;}
</style>
<g id="Alien_Technologies">
	<g>
		<path class="st12" d="M15.262,41.306L21.653,38v-6h-5v6l-6.391,3.306c-4.981,2.576-8.109,7.716-8.109,13.323V63.5h5v-8.871
			C7.153,49.021,10.281,43.882,15.262,41.306z"/>
		<path class="st1" d="M7.153,64h-5c-0.276,0-0.5-0.224-0.5-0.5v-8.871c0-5.819,3.211-11.094,8.379-13.768l6.121-3.166V32
			c0-0.276,0.224-0.5,0.5-0.5h5c0.276,0,0.5,0.224,0.5,0.5v6c0,0.187-0.104,0.358-0.271,0.444l-6.391,3.306l0,0
			c-4.835,2.5-7.838,7.436-7.838,12.879V63.5C7.653,63.776,7.43,64,7.153,64z M2.653,63h4v-8.371c0-5.819,3.211-11.094,8.379-13.768
			h0l6.121-3.166V32.5h-4V38c0,0.187-0.104,0.358-0.271,0.444l-6.391,3.306c-4.835,2.5-7.838,7.436-7.838,12.879V63z M15.262,41.306
			h0.01H15.262z"/>
	</g>
	<g>
		<path class="st11" d="M60.337,47.745c-1.215-1.455-3.425-1.571-4.941-0.434l-11.842,8.881c-0.646,0.484-1.261,0.296-1.571,0.142
			c-0.31-0.155-0.829-0.535-0.829-1.342l-0.001,0h0.001v-0.363c0-5.608-3.128-10.747-8.109-13.323L26.653,38v-6h-5v6l-6.391,3.306
			c-4.981,2.576-8.109,7.716-8.109,13.323V63.5h27l0-8.508c0,3.24,1.801,6.153,4.699,7.603c1.212,0.606,2.515,0.905,3.81,0.905
			c1.799,0,3.584-0.577,5.091-1.708l12-9C61.35,51.595,61.633,49.296,60.337,47.745z"/>
		<path class="st1" d="M42.662,64c-1.385,0-2.779-0.331-4.033-0.958c-1.748-0.874-3.119-2.251-3.976-3.909V63.5
			c0,0.276-0.224,0.5-0.5,0.5h-27c-0.276,0-0.5-0.224-0.5-0.5v-8.871c0-5.819,3.211-11.094,8.379-13.768l6.121-3.166V32
			c0-0.276,0.224-0.5,0.5-0.5h5c0.276,0,0.5,0.224,0.5,0.5v5.696l6.121,3.166c5.168,2.673,8.379,7.949,8.379,13.768v0.363
			c0,0.41,0.186,0.711,0.553,0.895c0.367,0.184,0.72,0.151,1.048-0.094l11.842-8.881c1.762-1.32,4.285-1.091,5.625,0.514v0
			c0.713,0.854,1.035,1.929,0.906,3.03c-0.128,1.101-0.687,2.073-1.573,2.738l-12,9C46.477,63.375,44.612,64,42.662,64z
			 M34.153,54.492c0.276,0,0.5,0.224,0.5,0.5c0,3.049,1.694,5.792,4.423,7.155C40.191,62.705,41.432,63,42.662,63
			c1.732,0,3.39-0.556,4.792-1.608l12-9c0.665-0.499,1.084-1.228,1.18-2.053c0.097-0.825-0.146-1.633-0.681-2.273l0,0
			c-1.004-1.2-2.913-1.361-4.258-0.354l-11.842,8.881c-0.629,0.471-1.394,0.539-2.094,0.189c-0.703-0.352-1.106-1.003-1.106-1.789
			v-0.363c0-5.443-3.003-10.378-7.838-12.879l-6.392-3.306c-0.166-0.086-0.271-0.257-0.271-0.444v-5.5h-4V38
			c0,0.187-0.104,0.358-0.27,0.444l-6.392,3.306c-4.835,2.5-7.838,7.436-7.838,12.879V63h26v-8.008
			C33.653,54.716,33.877,54.492,34.153,54.492z"/>
	</g>
	<g>
		<path class="st13" d="M9.153,62c-0.276,0-0.5-0.224-0.5-0.5v-6.871c0-5.068,2.796-9.663,7.298-11.991
			c0.245-0.127,0.546-0.03,0.674,0.215c0.126,0.245,0.031,0.547-0.215,0.674c-4.168,2.156-6.757,6.41-6.757,11.103V61.5
			C9.653,61.776,9.43,62,9.153,62z"/>
	</g>
	<g>
		<path class="st12" d="M39.153,55.129c-0.276,0-0.5-0.224-0.5-0.5c0-4.693-2.589-8.947-6.757-11.103
			c-0.246-0.127-0.341-0.429-0.215-0.674s0.429-0.341,0.674-0.215c4.502,2.329,7.298,6.923,7.298,11.991
			C39.653,54.906,39.43,55.129,39.153,55.129z"/>
	</g>
	<g>
		<path class="st11" d="M22.65,36h0.006c4.676,0,8.727-3.24,9.755-7.802l2.505-11.114C36.832,8.583,30.367,0.5,21.653,0.5h0
			C12.939,0.5,6.475,8.583,8.39,17.084l2.065,9.164C11.74,31.95,16.805,36,22.65,36z"/>
		<path class="st1" d="M22.656,36.5h-0.006c-6.121,0-11.336-4.17-12.682-10.142l-2.065-9.164c-0.947-4.201,0.053-8.539,2.743-11.902
			C13.334,1.929,17.347,0,21.653,0c4.307,0,8.319,1.929,11.009,5.292c2.69,3.363,3.689,7.701,2.742,11.901l-2.504,11.114
			C31.812,33.131,27.6,36.5,22.656,36.5z M21.653,1c-4.001,0-7.729,1.792-10.228,4.917c-2.499,3.125-3.427,7.155-2.548,11.058
			l2.065,9.164c1.242,5.512,6.056,9.362,11.706,9.362h0.006c4.473,0,8.284-3.048,9.268-7.412l2.505-11.114
			c0.879-3.903-0.05-7.933-2.548-11.057C29.382,2.792,25.654,1,21.653,1z"/>
	</g>
	<g>
		<path class="st12" d="M22.649,34.5c-0.276,0-0.5-0.224-0.5-0.5s0.224-0.5,0.5-0.5c3.535,0,6.546-2.406,7.323-5.851
			c0.061-0.27,0.33-0.439,0.598-0.378c0.27,0.061,0.438,0.328,0.378,0.598C30.068,31.773,26.655,34.5,22.649,34.5z"/>
	</g>
	<g>
		<path class="st13" d="M10.341,17.145c-0.229,0-0.435-0.158-0.487-0.39c-0.812-3.605,0.045-7.328,2.354-10.213S17.958,2,21.653,2
			c0.276,0,0.5,0.224,0.5,0.5S21.93,3,21.653,3c-3.39,0-6.548,1.519-8.665,4.166c-2.118,2.647-2.904,6.062-2.159,9.369
			c0.061,0.27-0.108,0.537-0.378,0.598C10.414,17.141,10.377,17.145,10.341,17.145z"/>
	</g>
	<g>
		<path class="st9" d="M21.947,21.996l-4.324-0.91c-2.314-0.487-3.97-2.528-3.97-4.893v-2.711c0-0.635,0.584-1.109,1.206-0.979
			l4.324,0.91c2.314,0.487,3.97,2.528,3.97,4.893v2.711C23.153,21.653,22.569,22.127,21.947,21.996z"/>
		<path class="st1" d="M22.156,22.518c-0.104,0-0.208-0.011-0.312-0.033l-4.324-0.91c-2.531-0.533-4.367-2.796-4.367-5.382v-2.71
			c0-0.454,0.202-0.879,0.555-1.165c0.353-0.287,0.81-0.396,1.254-0.303l4.324,0.91c2.53,0.533,4.367,2.796,4.367,5.382v2.71
			c0,0.454-0.202,0.879-0.555,1.165C22.828,22.402,22.496,22.518,22.156,22.518z M14.652,12.982c-0.113,0-0.224,0.039-0.314,0.112
			c-0.118,0.095-0.185,0.237-0.185,0.388v2.71c0,2.116,1.503,3.968,3.573,4.404l4.324,0.91c0.148,0.033,0.301-0.005,0.418-0.101
			c0.118-0.095,0.185-0.237,0.185-0.388v-2.71c0-2.116-1.502-3.968-3.573-4.404l-4.324-0.91
			C14.722,12.986,14.687,12.982,14.652,12.982z"/>
	</g>
	<g>
		<path class="st10" d="M18.036,19.629c-0.034,0-0.069-0.003-0.104-0.011c-1.61-0.339-2.779-1.779-2.779-3.425v-1.478
			c0-0.276,0.224-0.5,0.5-0.5s0.5,0.224,0.5,0.5v1.478c0,1.176,0.835,2.205,1.985,2.447c0.27,0.057,0.443,0.322,0.386,0.592
			C18.476,19.467,18.268,19.629,18.036,19.629z"/>
	</g>
	<g>
		<path class="st9" d="M27.359,21.996l4.324-0.91c2.314-0.487,3.97-2.528,3.97-4.893v-2.711c0-0.635-0.584-1.109-1.206-0.979
			l-4.324,0.91c-2.314,0.487-3.97,2.528-3.97,4.893v2.711C26.153,21.653,26.738,22.127,27.359,21.996z"/>
		<path class="st1" d="M27.151,22.518c-0.34,0-0.672-0.116-0.943-0.336c-0.353-0.286-0.555-0.71-0.555-1.165v-2.71
			c0-2.586,1.836-4.85,4.367-5.382l4.324-0.91c0.444-0.094,0.901,0.016,1.254,0.303c0.353,0.286,0.555,0.71,0.555,1.165v2.71
			c0,2.586-1.837,4.85-4.367,5.382l-4.324,0.91C27.359,22.507,27.254,22.518,27.151,22.518z M34.654,12.982
			c-0.035,0-0.069,0.003-0.104,0.011l-4.323,0.91c-2.07,0.436-3.573,2.288-3.573,4.404v2.71c0,0.151,0.067,0.293,0.185,0.388
			c0.117,0.096,0.271,0.134,0.418,0.101l0,0l4.324-0.91c2.07-0.436,3.573-2.288,3.573-4.404v-2.71c0-0.151-0.067-0.293-0.185-0.388
			C34.879,13.021,34.768,12.982,34.654,12.982z"/>
	</g>
	<g>
		<path class="st22" d="M31.271,19.629c-0.231,0-0.439-0.162-0.489-0.397c-0.057-0.271,0.116-0.536,0.386-0.592
			c1.15-0.242,1.985-1.271,1.985-2.447v-1.478c0-0.276,0.224-0.5,0.5-0.5s0.5,0.224,0.5,0.5v1.478c0,1.646-1.168,3.086-2.779,3.425
			C31.34,19.625,31.305,19.629,31.271,19.629z"/>
	</g>
	<g>
		<path class="st1" d="M27.153,26.5h-5c-0.276,0-0.5-0.224-0.5-0.5s0.224-0.5,0.5-0.5h5c0.276,0,0.5,0.224,0.5,0.5
			S27.43,26.5,27.153,26.5z"/>
	</g>
	<g>
		<path class="st1" d="M14.153,64c-0.276,0-0.5-0.224-0.5-0.5v-10c0-0.276,0.224-0.5,0.5-0.5s0.5,0.224,0.5,0.5v10
			C14.653,63.776,14.43,64,14.153,64z"/>
	</g>
	<g>
		<path class="st1" d="M34.153,64c-0.276,0-0.5-0.224-0.5-0.5v-10c0-0.276,0.224-0.5,0.5-0.5s0.5,0.224,0.5,0.5v10
			C34.653,63.776,34.43,64,34.153,64z"/>
	</g>
	<g>
		<path class="st1" d="M58.311,10.394c-0.128,0-0.256-0.049-0.354-0.146c-2.924-2.923-7.683-2.925-10.606,0
			c-0.195,0.195-0.512,0.195-0.707,0s-0.195-0.512,0-0.707c3.314-3.313,8.706-3.315,12.021,0c0.195,0.195,0.195,0.512,0,0.707
			C58.566,10.345,58.438,10.394,58.311,10.394z"/>
	</g>
	<g>
		<path class="st1" d="M61.847,6.858c-0.128,0-0.256-0.049-0.354-0.146c-4.873-4.873-12.805-4.873-17.678,0
			c-0.195,0.195-0.512,0.195-0.707,0s-0.195-0.512,0-0.707c5.264-5.264,13.828-5.264,19.092,0c0.195,0.195,0.195,0.512,0,0.707
			C62.103,6.81,61.975,6.858,61.847,6.858z"/>
	</g>
	<g>
		<path class="st5" d="M55.654,49.551h-9c-1.381,0-2.5-1.119-2.5-2.5v-20c0-1.381,1.119-2.5,2.5-2.5h9c1.381,0,2.5,1.119,2.5,2.5v20
			C58.154,48.432,57.035,49.551,55.654,49.551z"/>
		<path class="st1" d="M55.654,50.051h-9c-1.654,0-3-1.346-3-3v-20c0-1.654,1.346-3,3-3h9c1.654,0,3,1.346,3,3v20
			C58.654,48.705,57.309,50.051,55.654,50.051z M46.654,25.051c-1.103,0-2,0.897-2,2v20c0,1.103,0.897,2,2,2h9c1.103,0,2-0.897,2-2
			v-20c0-1.103-0.897-2-2-2H46.654z"/>
	</g>
	<g>
		<path class="st4" d="M58.654,49.551h-9c-1.381,0-2.5-1.119-2.5-2.5v-20c0-1.381,1.119-2.5,2.5-2.5h9c1.381,0,2.5,1.119,2.5,2.5v20
			C61.154,48.432,60.035,49.551,58.654,49.551z"/>
		<path class="st1" d="M58.654,50.051h-9c-1.654,0-3-1.346-3-3v-20c0-1.654,1.346-3,3-3h9c1.654,0,3,1.346,3,3v20
			C61.654,48.705,60.309,50.051,58.654,50.051z M49.654,25.051c-1.103,0-2,0.897-2,2v20c0,1.103,0.897,2,2,2h9c1.103,0,2-0.897,2-2
			v-20c0-1.103-0.897-2-2-2H49.654z"/>
	</g>
	<g>
		<path class="st1" d="M52.654,25.051c-0.276,0-0.5-0.224-0.5-0.5v-9c0-0.276,0.224-0.5,0.5-0.5s0.5,0.224,0.5,0.5v9
			C53.154,24.827,52.931,25.051,52.654,25.051z"/>
	</g>
	<g>
		<circle class="st7" cx="52.654" cy="15.551" r="2.5"/>
		<path class="st1" d="M52.654,18.551c-1.654,0-3-1.346-3-3s1.346-3,3-3s3,1.346,3,3S54.309,18.551,52.654,18.551z M52.654,13.551
			c-1.103,0-2,0.897-2,2s0.897,2,2,2s2-0.897,2-2S53.757,13.551,52.654,13.551z"/>
	</g>
	<g>
		<path class="st1" d="M61.154,27.551h-17c-0.276,0-0.5-0.224-0.5-0.5s0.224-0.5,0.5-0.5h17c0.276,0,0.5,0.224,0.5,0.5
			S61.431,27.551,61.154,27.551z"/>
	</g>
	<g>
		<path class="st5" d="M59.154,47.551c-0.276,0-0.5-0.224-0.5-0.5v-18c0-0.276,0.224-0.5,0.5-0.5s0.5,0.224,0.5,0.5v18
			C59.654,47.327,59.431,47.551,59.154,47.551z"/>
	</g>
	<g>
		<path class="st14" d="M49.154,47.551c-0.276,0-0.5-0.224-0.5-0.5v-18c0-0.276,0.224-0.5,0.5-0.5s0.5,0.224,0.5,0.5v18
			C49.654,47.327,49.431,47.551,49.154,47.551z"/>
	</g>
	<g>
		<path class="st1" d="M52.154,46.551h-8c-0.276,0-0.5-0.224-0.5-0.5s0.224-0.5,0.5-0.5h7.706l4.856-8.743
			c0.089-0.159,0.256-0.257,0.438-0.257h4c0.276,0,0.5,0.224,0.5,0.5s-0.224,0.5-0.5,0.5h-3.706l-4.856,8.743
			C52.503,46.452,52.336,46.551,52.154,46.551z"/>
	</g>
</g>
</svg>
