<?xml version="1.0" encoding="utf-8"?>
<!-- Generator: Adobe Illustrator 21.1.0, SVG Export Plug-In . SVG Version: 6.00 Build 0)  -->
<svg version="1.1" id="Layer_1" xmlns="http://www.w3.org/2000/svg" xmlns:xlink="http://www.w3.org/1999/xlink" x="0px" y="0px"
	 viewBox="0 0 64 64" style="enable-background:new 0 0 64 64;" xml:space="preserve">
<style type="text/css">
	.st0{fill:#DB8E11;}
	.st1{fill:#212A41;}
	.st2{fill:#F9AC2F;}
	.st3{fill:#FFCA4D;}
	.st4{fill:#B7C0D7;}
	.st5{fill:#99A2B9;}
	.st6{fill:#B51040;}
	.st7{fill:#D32E5E;}
	.st8{fill:#F14C7C;}
	.st9{fill:#0079A8;}
	.st10{fill:#1E97C6;}
	.st11{fill:#BED38E;}
	.st12{fill:#A0B570;}
	.st13{fill:#DCF1AC;}
	.st14{fill:#D5DEF5;}
	.st15{fill:#4E4B51;}
	.st16{fill:#6C696F;}
	.st17{fill:#848483;}
	.st18{fill:#A2A2A1;}
	.st19{fill:#7B849B;}
	.st20{fill:#8A878D;}
	.st21{fill:#C0C0BF;}
	.st22{fill:#005B8A;}
	.st23{fill:#970022;}
	.st24{fill:#1A237E;}
	.st25{fill:#BD7000;}
	.st26{fill:#003D6C;}
	.st27{fill:#666665;}
	.st28{fill:#195190;}
</style>
<g id="Alien">
	<g>
		<path class="st11" d="M43.391,41.306L37,38v-6h-5v6l-6.391,3.306c-4.981,2.576-8.109,7.716-8.109,13.323V63.5h34v-8.871
			C51.5,49.021,48.372,43.882,43.391,41.306z"/>
		<path class="st1" d="M51.5,64h-34c-0.276,0-0.5-0.224-0.5-0.5v-8.871c0-5.818,3.211-11.094,8.379-13.768l6.121-3.166V32
			c0-0.276,0.224-0.5,0.5-0.5h5c0.276,0,0.5,0.224,0.5,0.5v5.696l6.121,3.166c0,0,0,0,0,0C48.789,43.535,52,48.811,52,54.629V63.5
			C52,63.776,51.776,64,51.5,64z M18,63h33v-8.371c0-5.443-3.003-10.378-7.838-12.879l-6.391-3.306
			C36.604,38.358,36.5,38.187,36.5,38v-5.5h-4V38c0,0.187-0.104,0.358-0.271,0.444l-6.391,3.306C21.003,44.251,18,49.186,18,54.629
			V63z"/>
	</g>
	<g>
		<path class="st12" d="M25.609,41.306L32,38v-6h-5v6l-6.391,3.306c-4.981,2.576-8.109,7.716-8.109,13.323V63.5h5v-8.871
			C17.5,49.021,20.628,43.882,25.609,41.306z"/>
		<path class="st1" d="M17.5,64h-5c-0.276,0-0.5-0.224-0.5-0.5v-8.871c0-5.819,3.21-11.094,8.379-13.768l6.121-3.166V32
			c0-0.276,0.224-0.5,0.5-0.5h5c0.276,0,0.5,0.224,0.5,0.5v6c0,0.187-0.104,0.358-0.271,0.444l-6.392,3.306l0,0
			C21.003,44.251,18,49.186,18,54.629V63.5C18,63.776,17.776,64,17.5,64z M13,63h4v-8.371c0-5.819,3.21-11.094,8.379-13.768
			l0.229,0.444l-0.229-0.444l6.121-3.166V32.5h-4V38c0,0.187-0.104,0.358-0.271,0.444l-6.392,3.306
			C16.003,44.251,13,49.186,13,54.629V63z"/>
	</g>
	<g>
		<path class="st13" d="M19.5,62c-0.276,0-0.5-0.224-0.5-0.5v-6.871c0-5.068,2.796-9.663,7.298-11.991
			c0.245-0.127,0.545-0.03,0.674,0.215c0.126,0.245,0.031,0.547-0.215,0.674C22.589,45.683,20,49.937,20,54.629V61.5
			C20,61.776,19.776,62,19.5,62z"/>
	</g>
	<g>
		<path class="st12" d="M49.5,62c-0.276,0-0.5-0.224-0.5-0.5v-6.871c0-4.692-2.589-8.947-6.757-11.103
			c-0.246-0.127-0.341-0.429-0.215-0.674s0.429-0.341,0.674-0.215C47.204,44.967,50,49.562,50,54.629V61.5
			C50,61.776,49.776,62,49.5,62z"/>
	</g>
	<g>
		<path class="st11" d="M32.996,36h0.006c4.676,0,8.727-3.24,9.755-7.802l2.505-11.114C47.178,8.583,40.714,0.5,32,0.5h0
			c-8.714,0-15.178,8.083-13.263,16.584l2.065,9.164C22.087,31.95,27.151,36,32.996,36z"/>
		<path class="st1" d="M33.002,36.5h-0.006c-6.121,0-11.336-4.17-12.682-10.142l-2.065-9.164c-0.947-4.201,0.053-8.539,2.743-11.902
			C23.681,1.929,27.693,0,32,0c4.307,0,8.319,1.929,11.008,5.292s3.689,7.701,2.742,11.902l-2.504,11.114
			C42.159,33.131,37.947,36.5,33.002,36.5z M32,1c-4,0-7.728,1.792-10.227,4.917c-2.499,3.125-3.427,7.155-2.548,11.058l2.065,9.164
			c1.242,5.512,6.056,9.362,11.707,9.362h0.006c4.473,0,8.284-3.048,9.268-7.412l2.504-11.114c0.88-3.903-0.049-7.933-2.547-11.058
			C39.728,2.792,36,1,32,1z"/>
	</g>
	<g>
		<path class="st12" d="M32.996,34.5c-0.276,0-0.5-0.224-0.5-0.5s0.224-0.5,0.5-0.5c3.535,0,6.546-2.406,7.323-5.851
			c0.061-0.27,0.328-0.439,0.598-0.378c0.27,0.061,0.438,0.328,0.378,0.598C40.415,31.773,37.002,34.5,32.996,34.5z"/>
	</g>
	<g>
		<path class="st13" d="M20.688,17.145c-0.229,0-0.435-0.158-0.487-0.39c-0.812-3.604,0.045-7.327,2.353-10.213
			C24.862,3.655,28.305,2,32,2c0.276,0,0.5,0.224,0.5,0.5S32.276,3,32,3c-3.389,0-6.548,1.519-8.665,4.166
			c-2.117,2.647-2.904,6.062-2.159,9.369c0.061,0.27-0.108,0.537-0.378,0.598C20.761,17.141,20.724,17.145,20.688,17.145z"/>
	</g>
	<g>
		<path class="st9" d="M32.294,21.996l-4.324-0.91C25.656,20.599,24,18.557,24,16.193v-2.711c0-0.635,0.584-1.109,1.206-0.979
			l4.324,0.91c2.314,0.487,3.97,2.528,3.97,4.893v2.711C33.5,21.653,32.916,22.127,32.294,21.996z"/>
		<path class="st1" d="M32.502,22.518c-0.104,0-0.208-0.011-0.312-0.033l-4.324-0.91c-2.53-0.533-4.367-2.796-4.367-5.382v-2.71
			c0-0.454,0.202-0.879,0.555-1.165c0.353-0.287,0.811-0.396,1.254-0.303l4.324,0.91C32.164,13.458,34,15.721,34,18.307v2.71
			c0,0.454-0.202,0.879-0.555,1.165C33.175,22.402,32.843,22.518,32.502,22.518z M24.999,12.982c-0.113,0-0.224,0.039-0.314,0.112
			c-0.118,0.095-0.185,0.237-0.185,0.388v2.71c0,2.116,1.502,3.968,3.573,4.404l4.324,0.91l0,0c0.148,0.033,0.301-0.005,0.418-0.101
			C32.933,21.311,33,21.169,33,21.018v-2.71c0-2.116-1.502-3.968-3.573-4.404l-4.324-0.91
			C25.068,12.986,25.034,12.982,24.999,12.982z"/>
	</g>
	<g>
		<path class="st10" d="M28.382,19.629c-0.034,0-0.069-0.003-0.104-0.011c-1.61-0.339-2.779-1.78-2.779-3.425v-1.478
			c0-0.276,0.224-0.5,0.5-0.5s0.5,0.224,0.5,0.5v1.478c0,1.176,0.835,2.205,1.985,2.447c0.27,0.057,0.443,0.322,0.386,0.592
			C28.822,19.467,28.614,19.629,28.382,19.629z"/>
	</g>
	<g>
		<path class="st9" d="M37.706,21.996l4.324-0.91c2.314-0.487,3.97-2.528,3.97-4.893v-2.711c0-0.635-0.584-1.109-1.206-0.979
			l-4.324,0.91c-2.314,0.487-3.97,2.528-3.97,4.893v2.711C36.5,21.653,37.084,22.127,37.706,21.996z"/>
		<path class="st1" d="M37.498,22.518c-0.34,0-0.672-0.116-0.943-0.336C36.202,21.896,36,21.472,36,21.018v-2.71
			c0-2.586,1.836-4.85,4.367-5.382l4.324-0.91c0.443-0.093,0.902,0.016,1.254,0.303c0.353,0.286,0.555,0.71,0.555,1.165v2.71
			c0,2.586-1.836,4.85-4.367,5.382l-4.324,0.91C37.706,22.507,37.601,22.518,37.498,22.518z M45.001,12.982
			c-0.035,0-0.069,0.003-0.104,0.011l-4.324,0.91C38.502,14.339,37,16.191,37,18.307v2.71c0,0.151,0.067,0.293,0.185,0.388
			c0.118,0.096,0.27,0.134,0.418,0.101l0,0l4.324-0.91c2.07-0.436,3.573-2.288,3.573-4.404v-2.71c0-0.151-0.067-0.293-0.185-0.388
			C45.225,13.021,45.114,12.982,45.001,12.982z"/>
	</g>
	<g>
		<path class="st22" d="M41.618,19.629c-0.231,0-0.439-0.162-0.489-0.397c-0.057-0.27,0.116-0.536,0.386-0.592
			c1.15-0.242,1.985-1.271,1.985-2.447v-1.478c0-0.276,0.224-0.5,0.5-0.5s0.5,0.224,0.5,0.5v1.478c0,1.646-1.168,3.086-2.779,3.425
			C41.687,19.625,41.652,19.629,41.618,19.629z"/>
	</g>
	<g>
		<path class="st1" d="M37.5,26.5h-5c-0.276,0-0.5-0.224-0.5-0.5s0.224-0.5,0.5-0.5h5c0.276,0,0.5,0.224,0.5,0.5
			S37.776,26.5,37.5,26.5z"/>
	</g>
	<g>
		<circle class="st4" cx="52.75" cy="39" r="2"/>
		<path class="st1" d="M52.75,41.5c-1.378,0-2.5-1.122-2.5-2.5s1.122-2.5,2.5-2.5s2.5,1.122,2.5,2.5S54.128,41.5,52.75,41.5z
			 M52.75,37.5c-0.827,0-1.5,0.673-1.5,1.5s0.673,1.5,1.5,1.5s1.5-0.673,1.5-1.5S53.577,37.5,52.75,37.5z"/>
	</g>
	<g>
		<circle class="st4" cx="10.25" cy="25.5" r="2"/>
		<path class="st1" d="M10.25,28c-1.378,0-2.5-1.122-2.5-2.5s1.122-2.5,2.5-2.5s2.5,1.122,2.5,2.5S11.628,28,10.25,28z M10.25,24
			c-0.827,0-1.5,0.673-1.5,1.5s0.673,1.5,1.5,1.5s1.5-0.673,1.5-1.5S11.077,24,10.25,24z"/>
	</g>
	<g>
		<path class="st1" d="M3,14.5c-0.276,0-0.5-0.224-0.5-0.5V9c0-0.276,0.224-0.5,0.5-0.5S3.5,8.724,3.5,9v5
			C3.5,14.276,3.276,14.5,3,14.5z"/>
	</g>
	<g>
		<path class="st1" d="M5.5,12h-5C0.224,12,0,11.776,0,11.5S0.224,11,0.5,11h5C5.776,11,6,11.224,6,11.5S5.776,12,5.5,12z"/>
	</g>
	<g>
		<path class="st1" d="M12.5,43h-10C2.224,43,2,42.776,2,42.5S2.224,42,2.5,42h8.793l-3.146-3.146
			c-0.143-0.143-0.186-0.358-0.108-0.545C8.115,38.122,8.298,38,8.5,38h11c0.276,0,0.5,0.224,0.5,0.5S19.776,39,19.5,39H9.707
			l3.146,3.146c0.143,0.143,0.186,0.358,0.108,0.545C12.885,42.878,12.702,43,12.5,43z"/>
	</g>
	<g>
		<path class="st1" d="M63.5,27.5h-10c-0.202,0-0.385-0.122-0.462-0.309c-0.078-0.187-0.035-0.402,0.108-0.545l3.146-3.146H48.5
			c-0.276,0-0.5-0.224-0.5-0.5s0.224-0.5,0.5-0.5h9c0.202,0,0.385,0.122,0.462,0.309c0.078,0.187,0.035,0.402-0.108,0.545
			L54.707,26.5H63.5c0.276,0,0.5,0.224,0.5,0.5S63.776,27.5,63.5,27.5z"/>
	</g>
	<g>
		<circle class="st4" cx="56" cy="9" r="3"/>
		<path class="st1" d="M56,12.5c-1.93,0-3.5-1.57-3.5-3.5s1.57-3.5,3.5-3.5s3.5,1.57,3.5,3.5S57.929,12.5,56,12.5z M56,6.5
			c-1.378,0-2.5,1.122-2.5,2.5s1.122,2.5,2.5,2.5s2.5-1.122,2.5-2.5S57.378,6.5,56,6.5z"/>
	</g>
	<g>
		<path class="st1" d="M24.5,64c-0.276,0-0.5-0.224-0.5-0.5v-10c0-0.276,0.224-0.5,0.5-0.5s0.5,0.224,0.5,0.5v10
			C25,63.776,24.776,64,24.5,64z"/>
	</g>
	<g>
		<path class="st1" d="M44.5,64c-0.276,0-0.5-0.224-0.5-0.5v-10c0-0.276,0.224-0.5,0.5-0.5s0.5,0.224,0.5,0.5v10
			C45,63.776,44.776,64,44.5,64z"/>
	</g>
</g>
</svg>
