<?xml version="1.0" encoding="utf-8"?>
<!-- Generator: Adobe Illustrator 21.1.0, SVG Export Plug-In . SVG Version: 6.00 Build 0)  -->
<svg version="1.1" id="Layer_1" xmlns="http://www.w3.org/2000/svg" xmlns:xlink="http://www.w3.org/1999/xlink" x="0px" y="0px"
	 viewBox="0 0 64 64" style="enable-background:new 0 0 64 64;" xml:space="preserve">
<style type="text/css">
	.st0{fill:#DB8E11;}
	.st1{fill:#212A41;}
	.st2{fill:#F9AC2F;}
	.st3{fill:#FFCA4D;}
	.st4{fill:#B7C0D7;}
	.st5{fill:#99A2B9;}
	.st6{fill:#B51040;}
	.st7{fill:#D32E5E;}
	.st8{fill:#F14C7C;}
	.st9{fill:#0079A8;}
	.st10{fill:#1E97C6;}
	.st11{fill:#BED38E;}
	.st12{fill:#A0B570;}
	.st13{fill:#DCF1AC;}
	.st14{fill:#D5DEF5;}
	.st15{fill:#4E4B51;}
	.st16{fill:#6C696F;}
	.st17{fill:#848483;}
	.st18{fill:#A2A2A1;}
	.st19{fill:#7B849B;}
	.st20{fill:#8A878D;}
	.st21{fill:#C0C0BF;}
	.st22{fill:#005B8A;}
	.st23{fill:#970022;}
	.st24{fill:#1A237E;}
	.st25{fill:#BD7000;}
	.st26{fill:#003D6C;}
	.st27{fill:#666665;}
	.st28{fill:#195190;}
</style>
<g id="Aurora_Borealis">
	<g>
		<circle class="st9" cx="32" cy="31" r="30"/>
		<path class="st1" d="M32,61.5C15.182,61.5,1.5,47.817,1.5,31S15.182,0.5,32,0.5S62.5,14.183,62.5,31S48.818,61.5,32,61.5z M32,1.5
			C15.733,1.5,2.5,14.733,2.5,31S15.733,60.5,32,60.5S61.5,47.267,61.5,31S48.267,1.5,32,1.5z"/>
	</g>
	<g>
		<path class="st10" d="M4,31.5c-0.276,0-0.5-0.224-0.5-0.5C3.5,15.285,16.285,2.5,32,2.5c0.276,0,0.5,0.224,0.5,0.5
			S32.276,3.5,32,3.5C16.836,3.5,4.5,15.837,4.5,31C4.5,31.276,4.276,31.5,4,31.5z"/>
	</g>
	<g>
		<path class="st11" d="M41.929,2.69l-1.969,8.96c-0.69,3.139-2.847,5.756-5.798,7.032L24.154,23.01
			c-2.201,0.952-3.417,3.333-2.896,5.674l0.297,1.336c0.479,2.155-0.512,4.369-2.438,5.447L4.738,43.519
			c2.671,5.806,7.137,10.611,12.692,13.705l13.433-11.959c2.14-1.906,3.008-4.864,2.235-7.624l-0.814-2.908
			c-0.773-2.761,0.93-5.606,3.729-6.229l8.232-1.832c3.953-0.88,6.986-4.058,7.68-8.048l0.396-2.279
			c0.286-1.642,1.371-3.034,2.893-3.711l0.369-0.164C52.087,8.027,47.368,4.598,41.929,2.69z"/>
		<path class="st1" d="M17.43,57.724c-0.083,0-0.167-0.021-0.243-0.063c-5.63-3.134-10.212-8.082-12.903-13.932
			c-0.109-0.237-0.018-0.518,0.21-0.646l14.378-8.053c1.747-0.978,2.628-2.948,2.194-4.902l-0.297-1.336
			c-0.571-2.57,0.769-5.195,3.187-6.241l10.008-4.328c2.795-1.208,4.854-3.705,5.508-6.68l1.969-8.96
			c0.031-0.14,0.12-0.26,0.245-0.329c0.125-0.069,0.274-0.081,0.409-0.035c5.474,1.919,10.273,5.356,13.881,9.94
			c0.095,0.121,0.129,0.28,0.092,0.43s-0.141,0.274-0.282,0.337l-0.369,0.164c-1.373,0.611-2.347,1.859-2.604,3.341l-0.396,2.278
			c-0.731,4.206-3.896,7.522-8.064,8.45l-8.231,1.833c-1.218,0.271-2.242,1.009-2.883,2.079c-0.642,1.071-0.81,2.324-0.473,3.526
			l0.814,2.908c0.818,2.922-0.118,6.114-2.384,8.132L17.762,57.597C17.668,57.681,17.549,57.724,17.43,57.724z M5.388,43.729
			c2.575,5.369,6.805,9.921,11.976,12.884L30.53,44.892c1.983-1.767,2.802-4.56,2.086-7.116l-0.814-2.908
			c-0.412-1.47-0.206-3,0.578-4.31c0.784-1.309,2.035-2.211,3.524-2.542l8.231-1.833c3.771-0.839,6.634-3.84,7.296-7.646
			l0.396-2.278c0.301-1.729,1.4-3.199,2.962-3.979c-3.321-4.039-7.62-7.11-12.494-8.926l-1.847,8.403
			c-0.722,3.287-2.998,6.048-6.088,7.383l-10.008,4.328c-1.978,0.855-3.074,3.003-2.606,5.106l0.297,1.336
			c0.531,2.389-0.547,4.797-2.682,5.992L5.388,43.729z"/>
	</g>
	<g>
		<path class="st12" d="M17.189,55.26c-0.138,0-0.274-0.057-0.374-0.168c-0.184-0.206-0.165-0.521,0.041-0.705l12.344-10.989
			c1.417-1.262,2.001-3.257,1.49-5.083l-0.814-2.908c-0.561-2.004-0.281-4.09,0.788-5.874c1.068-1.785,2.775-3.018,4.805-3.47
			l8.233-1.832c2.976-0.662,5.236-3.031,5.759-6.036l0.396-2.278c0.287-1.648,1.127-3.171,2.366-4.286
			c0.205-0.186,0.521-0.168,0.706,0.037c0.185,0.206,0.168,0.521-0.037,0.707c-1.073,0.966-1.801,2.284-2.05,3.714l-0.396,2.278
			c-0.593,3.405-3.155,6.091-6.528,6.841l-8.232,1.832c-1.759,0.392-3.238,1.459-4.164,3.007c-0.926,1.546-1.169,3.354-0.683,5.091
			l0.814,2.908c0.614,2.191-0.088,4.585-1.788,6.099L17.522,55.133C17.427,55.218,17.308,55.26,17.189,55.26z"/>
	</g>
	<g>
		<path class="st13" d="M7.381,44.831c-0.175,0-0.345-0.092-0.437-0.256c-0.135-0.241-0.049-0.546,0.192-0.681l12.713-7.119
			c2.522-1.412,3.796-4.259,3.168-7.081l-0.297-1.336c-0.363-1.636,0.489-3.307,2.027-3.972l10.009-4.328
			c3.383-1.463,5.875-4.485,6.667-8.087l1.465-6.664c0.059-0.27,0.326-0.44,0.596-0.381s0.44,0.326,0.381,0.596l-1.465,6.664
			c-0.86,3.914-3.569,7.2-7.247,8.79l-10.009,4.328c-1.099,0.476-1.708,1.668-1.448,2.837l0.297,1.336
			c0.724,3.257-0.746,6.54-3.657,8.171L7.625,44.768C7.548,44.811,7.464,44.831,7.381,44.831z"/>
	</g>
	<g>
		<path class="st5" d="M24.5,39c-13.255,0-24,10.745-24,24h48C48.5,49.745,37.755,39,24.5,39z"/>
		<path class="st1" d="M48.5,63.5h-48C0.224,63.5,0,63.276,0,63c0-13.51,10.991-24.5,24.5-24.5S49,49.49,49,63
			C49,63.276,48.776,63.5,48.5,63.5z M1.005,62.5h46.989c-0.267-12.729-10.704-23-23.495-23S1.272,49.771,1.005,62.5z"/>
	</g>
	<g>
		<path class="st4" d="M2.59,61.5c-0.015,0-0.03-0.001-0.045-0.002c-0.275-0.025-0.478-0.269-0.453-0.543
			C3.13,49.485,12.973,40.5,24.5,40.5c0.276,0,0.5,0.224,0.5,0.5s-0.224,0.5-0.5,0.5c-11.015,0-20.42,8.585-21.412,19.545
			C3.064,61.305,2.846,61.5,2.59,61.5z"/>
	</g>
	<g>
		<path class="st4" d="M39.5,47c-13.255,0-24,7.163-24,16h48C63.5,54.163,52.755,47,39.5,47z"/>
		<path class="st1" d="M63.5,63.5h-48c-0.276,0-0.5-0.224-0.5-0.5c0-9.098,10.991-16.5,24.5-16.5S64,53.902,64,63
			C64,63.276,63.776,63.5,63.5,63.5z M16.012,62.5h46.976c-0.402-8.316-10.784-15-23.488-15S16.414,54.184,16.012,62.5z"/>
	</g>
	<g>
		<path class="st14" d="M17.724,61.5c-0.037,0-0.074-0.004-0.111-0.013c-0.269-0.061-0.438-0.328-0.377-0.598
			C18.831,53.826,28.402,48.5,39.5,48.5c0.276,0,0.5,0.224,0.5,0.5s-0.224,0.5-0.5,0.5c-10.642,0-19.794,4.991-21.289,11.61
			C18.159,61.343,17.953,61.5,17.724,61.5z"/>
	</g>
	<g>
		<rect x="41" y="45.5" class="st15" width="9" height="9"/>
		<path class="st1" d="M50,55h-9c-0.276,0-0.5-0.224-0.5-0.5v-9c0-0.276,0.224-0.5,0.5-0.5h9c0.276,0,0.5,0.224,0.5,0.5v9
			C50.5,54.776,50.276,55,50,55z M41.5,54h8v-8h-8V54z"/>
	</g>
	<g>
		<rect x="45" y="45.5" class="st16" width="9" height="9"/>
		<path class="st1" d="M54,55h-9c-0.276,0-0.5-0.224-0.5-0.5v-9c0-0.276,0.224-0.5,0.5-0.5h9c0.276,0,0.5,0.224,0.5,0.5v9
			C54.5,54.776,54.276,55,54,55z M45.5,54h8v-8h-8V54z"/>
	</g>
	<g>
		<rect x="42" y="41.5" class="st17" width="7" height="4"/>
		<path class="st1" d="M49,46h-7c-0.276,0-0.5-0.224-0.5-0.5v-4c0-0.276,0.224-0.5,0.5-0.5h7c0.276,0,0.5,0.224,0.5,0.5v4
			C49.5,45.776,49.276,46,49,46z M42.5,45h6v-3h-6V45z"/>
	</g>
	<g>
		<polygon class="st17" points="45.5,35.5 40.5,41.5 44.5,41.5 49.5,35.5 		"/>
		<path class="st1" d="M44.5,42h-4c-0.194,0-0.371-0.112-0.453-0.288c-0.083-0.176-0.056-0.383,0.068-0.532l5-6
			C45.211,35.065,45.352,35,45.5,35h4c0.194,0,0.371,0.112,0.453,0.288c0.083,0.176,0.056,0.383-0.068,0.532l-5,6
			C44.789,41.935,44.648,42,44.5,42z M41.567,41h2.698l4.167-5h-2.698L41.567,41z"/>
	</g>
	<g>
		<rect x="46" y="41.5" class="st18" width="7" height="4"/>
		<path class="st1" d="M53,46h-7c-0.276,0-0.5-0.224-0.5-0.5v-4c0-0.276,0.224-0.5,0.5-0.5h7c0.276,0,0.5,0.224,0.5,0.5v4
			C53.5,45.776,53.276,46,53,46z M46.5,45h6v-3h-6V45z"/>
	</g>
	<g>
		<polygon class="st18" points="49.5,35.5 44.5,41.5 54.5,41.5 		"/>
		<path class="st1" d="M54.5,42h-10c-0.194,0-0.371-0.112-0.453-0.288c-0.083-0.176-0.056-0.383,0.068-0.532l5-6
			c0.19-0.229,0.578-0.229,0.769,0l5,6c0.124,0.149,0.151,0.356,0.068,0.532C54.871,41.888,54.694,42,54.5,42z M45.567,41h7.865
			L49.5,36.281L45.567,41z"/>
	</g>
</g>
</svg>
