<?xml version="1.0" encoding="utf-8"?>
<!-- Generator: Adobe Illustrator 21.1.0, SVG Export Plug-In . SVG Version: 6.00 Build 0)  -->
<svg version="1.1" id="Layer_1" xmlns="http://www.w3.org/2000/svg" xmlns:xlink="http://www.w3.org/1999/xlink" x="0px" y="0px"
	 viewBox="0 0 64 64" style="enable-background:new 0 0 64 64;" xml:space="preserve">
<style type="text/css">
	.st0{fill:#DB8E11;}
	.st1{fill:#212A41;}
	.st2{fill:#F9AC2F;}
	.st3{fill:#FFCA4D;}
	.st4{fill:#B7C0D7;}
	.st5{fill:#99A2B9;}
	.st6{fill:#B51040;}
	.st7{fill:#D32E5E;}
	.st8{fill:#F14C7C;}
	.st9{fill:#0079A8;}
	.st10{fill:#1E97C6;}
	.st11{fill:#BED38E;}
	.st12{fill:#A0B570;}
	.st13{fill:#DCF1AC;}
	.st14{fill:#D5DEF5;}
	.st15{fill:#4E4B51;}
	.st16{fill:#6C696F;}
	.st17{fill:#848483;}
	.st18{fill:#A2A2A1;}
	.st19{fill:#7B849B;}
	.st20{fill:#8A878D;}
	.st21{fill:#C0C0BF;}
	.st22{fill:#005B8A;}
	.st23{fill:#970022;}
	.st24{fill:#1A237E;}
	.st25{fill:#BD7000;}
	.st26{fill:#003D6C;}
	.st27{fill:#666665;}
	.st28{fill:#195190;}
</style>
<g id="Black_Hole">
	<g>
		<circle class="st18" cx="5" cy="6" r="1.5"/>
		<path class="st1" d="M5,8C3.897,8,3,7.103,3,6s0.897-2,2-2s2,0.897,2,2S6.103,8,5,8z M5,5C4.448,5,4,5.449,4,6s0.448,1,1,1
			s1-0.449,1-1S5.552,5,5,5z"/>
	</g>
	<g>
		<circle class="st18" cx="57" cy="59" r="1.5"/>
		<path class="st1" d="M57,61c-1.103,0-2-0.897-2-2s0.897-2,2-2s2,0.897,2,2S58.103,61,57,61z M57,58c-0.552,0-1,0.449-1,1
			s0.448,1,1,1s1-0.449,1-1S57.552,58,57,58z"/>
	</g>
	<g>
		<circle class="st18" cx="60" cy="12" r="2"/>
		<path class="st1" d="M60,14.5c-1.379,0-2.5-1.122-2.5-2.5s1.121-2.5,2.5-2.5s2.5,1.122,2.5,2.5S61.379,14.5,60,14.5z M60,10.5
			c-0.827,0-1.5,0.673-1.5,1.5s0.673,1.5,1.5,1.5s1.5-0.673,1.5-1.5S60.827,10.5,60,10.5z"/>
	</g>
	<g>
		<circle class="st18" cx="12.5" cy="59.5" r="2"/>
		<path class="st1" d="M12.5,62c-1.379,0-2.5-1.122-2.5-2.5s1.121-2.5,2.5-2.5s2.5,1.122,2.5,2.5S13.879,62,12.5,62z M12.5,58
			c-0.827,0-1.5,0.673-1.5,1.5s0.673,1.5,1.5,1.5s1.5-0.673,1.5-1.5S13.327,58,12.5,58z"/>
	</g>
	<g>
		
			<ellipse transform="matrix(0.7071 -0.7071 0.7071 0.7071 -13.9869 30.2322)" class="st22" cx="29.5" cy="32" rx="24.444" ry="29.333"/>
		<path class="st1" d="M34.418,59.501c-0.829,0-1.669-0.038-2.519-0.115c-7.299-0.664-14.414-4.125-20.037-9.749
			c-5.623-5.623-9.085-12.739-9.748-20.037c-0.667-7.333,1.567-13.972,6.291-18.696c4.723-4.724,11.366-6.956,18.695-6.292
			c7.299,0.664,14.414,4.126,20.037,9.749s9.085,12.739,9.748,20.037c0.667,7.333-1.567,13.972-6.291,18.696
			C46.418,57.271,40.744,59.501,34.418,59.501z M24.612,5.51c-5.867,0-11.398,2-15.5,6.102c-9.336,9.336-7.785,26.077,3.457,37.319
			c5.458,5.458,12.354,8.817,19.42,9.459c7.036,0.644,13.389-1.492,17.898-6.002c9.336-9.336,7.785-26.077-3.457-37.319
			C40.128,8.767,32.097,5.51,24.612,5.51z"/>
	</g>
	<g>
		
			<ellipse transform="matrix(0.7071 -0.7071 0.7071 0.7071 -12.5225 33.7677)" class="st9" cx="34.5" cy="32" rx="24.444" ry="29.333"/>
		<path class="st1" d="M39.418,59.501c-0.829,0-1.669-0.038-2.519-0.115c-7.299-0.664-14.414-4.125-20.037-9.749
			c-5.623-5.623-9.085-12.739-9.748-20.037c-0.667-7.333,1.567-13.972,6.291-18.696S24.77,3.949,32.101,4.613
			c7.299,0.664,14.414,4.126,20.037,9.749s9.085,12.739,9.748,20.037c0.667,7.333-1.567,13.972-6.291,18.696
			C51.418,57.271,45.744,59.501,39.418,59.501z M29.612,5.51c-5.867,0-11.398,2-15.5,6.102c-9.336,9.336-7.785,26.077,3.457,37.319
			c5.458,5.458,12.354,8.817,19.42,9.459c7.035,0.644,13.389-1.492,17.898-6.002c9.336-9.336,7.785-26.077-3.457-37.319
			C45.128,8.767,37.097,5.51,29.612,5.51z"/>
	</g>
	<g>
		<path class="st10" d="M18.63,48.37c-0.128,0-0.256-0.049-0.354-0.146c-5.293-5.293-8.55-11.971-9.171-18.804
			c-0.612-6.73,1.417-12.804,5.714-17.101c0.195-0.195,0.512-0.195,0.707,0s0.195,0.512,0,0.707
			c-4.083,4.083-6.01,9.874-5.425,16.303c0.6,6.601,3.754,13.06,8.882,18.188c0.195,0.195,0.195,0.512,0,0.707
			C18.886,48.321,18.758,48.37,18.63,48.37z"/>
	</g>
	<g>
		<path class="st22" d="M53.827,51.827c-0.128,0-0.256-0.049-0.354-0.146c-0.195-0.195-0.195-0.512,0-0.707
			c4.083-4.083,6.01-9.874,5.425-16.303c-0.6-6.601-3.754-13.06-8.882-18.188c-0.195-0.195-0.195-0.512,0-0.707s0.512-0.195,0.707,0
			c5.293,5.293,8.55,11.971,9.171,18.804c0.612,6.73-1.417,12.803-5.714,17.101C54.083,51.778,53.955,51.827,53.827,51.827z"/>
	</g>
	<g>
		
			<ellipse transform="matrix(0.7071 -0.7071 0.7071 0.7071 -12.5225 33.7677)" class="st16" cx="34.5" cy="32" rx="13.127" ry="15.753"/>
		<path class="st1" d="M37.142,47.001c-0.452,0-0.91-0.021-1.374-0.063c-3.974-0.361-7.846-2.244-10.903-5.302
			c-3.059-3.058-4.941-6.93-5.303-10.903c-0.364-4.008,0.859-7.639,3.446-10.225c2.586-2.586,6.212-3.812,10.225-3.446
			c3.974,0.361,7.846,2.244,10.903,5.302l0,0c3.059,3.058,4.941,6.93,5.303,10.903c0.364,4.008-0.859,7.639-3.446,10.225
			C43.705,45.779,40.601,47.001,37.142,47.001z M31.862,17.999c-3.194,0-6.052,1.119-8.147,3.215
			c-2.373,2.373-3.494,5.721-3.157,9.427c0.34,3.741,2.121,7.395,5.014,10.287s6.546,4.673,10.287,5.013
			c3.707,0.335,7.055-0.784,9.427-3.157c2.373-2.373,3.494-5.721,3.157-9.427c-0.34-3.741-2.121-7.395-5.014-10.287l0,0
			c-2.893-2.893-6.546-4.673-10.287-5.013C32.71,18.019,32.283,17.999,31.862,17.999z"/>
	</g>
	<g>
		<path class="st1" d="M53.542,32.542c-0.276,0-0.5-0.224-0.5-0.5c0-12.501-10.17-22.671-22.67-22.671c-0.276,0-0.5-0.224-0.5-0.5
			s0.224-0.5,0.5-0.5c13.052,0,23.67,10.619,23.67,23.671C54.042,32.319,53.818,32.542,53.542,32.542z"/>
	</g>
	<g>
		<path class="st1" d="M45.201,32.542c-0.276,0-0.5-0.224-0.5-0.5c0-7.901-6.428-14.329-14.329-14.329s-14.33,6.428-14.33,14.329
			c0,0.276-0.224,0.5-0.5,0.5s-0.5-0.224-0.5-0.5c0-8.453,6.877-15.329,15.33-15.329c8.452,0,15.329,6.876,15.329,15.329
			C45.701,32.318,45.478,32.542,45.201,32.542z"/>
	</g>
	<g>
		<path class="st1" d="M36.859,32.542c-0.276,0-0.5-0.224-0.5-0.5c0-3.302-2.686-5.988-5.987-5.988s-5.988,2.686-5.988,5.988
			c0,0.276-0.224,0.5-0.5,0.5s-0.5-0.224-0.5-0.5c0-3.853,3.135-6.988,6.988-6.988c3.853,0,6.987,3.135,6.987,6.988
			C37.359,32.318,37.136,32.542,36.859,32.542z"/>
	</g>
	<g>
		<path class="st1" d="M38.713,55.713c-13.052,0-23.671-10.619-23.671-23.671c0-0.276,0.224-0.5,0.5-0.5s0.5,0.224,0.5,0.5
			c0,12.501,10.17,22.671,22.671,22.671c0.276,0,0.5,0.224,0.5,0.5S38.989,55.713,38.713,55.713z"/>
	</g>
	<g>
		<path class="st1" d="M38.713,47.372c-8.452,0-15.329-6.877-15.329-15.33c0-0.276,0.224-0.5,0.5-0.5s0.5,0.224,0.5,0.5
			c0,7.901,6.428,14.33,14.329,14.33s14.329-6.428,14.329-14.329c0-0.276,0.224-0.5,0.5-0.5s0.5,0.224,0.5,0.5
			C54.042,40.495,47.165,47.372,38.713,47.372z"/>
	</g>
	<g>
		<path class="st1" d="M38.713,39.03c-3.853,0-6.987-3.135-6.987-6.988c0-0.276,0.224-0.5,0.5-0.5s0.5,0.224,0.5,0.5
			c0,3.302,2.686,5.988,5.987,5.988s5.988-2.686,5.988-5.988c0-0.276,0.224-0.5,0.5-0.5s0.5,0.224,0.5,0.5
			C45.701,35.895,42.566,39.03,38.713,39.03z"/>
	</g>
	<g>
		<path class="st1" d="M50,7c-0.276,0-0.5-0.224-0.5-0.5v-5C49.5,1.224,49.724,1,50,1s0.5,0.224,0.5,0.5v5C50.5,6.776,50.276,7,50,7
			z"/>
	</g>
	<g>
		<path class="st1" d="M52.5,4.5h-5C47.224,4.5,47,4.276,47,4s0.224-0.5,0.5-0.5h5C52.776,3.5,53,3.724,53,4S52.776,4.5,52.5,4.5z"
			/>
	</g>
	<g>
		<path class="st1" d="M4.5,54C4.224,54,4,53.776,4,53.5v-5C4,48.224,4.224,48,4.5,48S5,48.224,5,48.5v5C5,53.776,4.776,54,4.5,54z"
			/>
	</g>
	<g>
		<path class="st1" d="M7,51.5H2c-0.276,0-0.5-0.224-0.5-0.5s0.224-0.5,0.5-0.5h5c0.276,0,0.5,0.224,0.5,0.5S7.276,51.5,7,51.5z"/>
	</g>
</g>
</svg>
