<?xml version="1.0" encoding="utf-8"?>
<!-- Generator: Adobe Illustrator 21.1.0, SVG Export Plug-In . SVG Version: 6.00 Build 0)  -->
<svg version="1.1" id="Layer_1" xmlns="http://www.w3.org/2000/svg" xmlns:xlink="http://www.w3.org/1999/xlink" x="0px" y="0px"
	 viewBox="0 0 64 64" style="enable-background:new 0 0 64 64;" xml:space="preserve">
<style type="text/css">
	.st0{fill:#DB8E11;}
	.st1{fill:#212A41;}
	.st2{fill:#F9AC2F;}
	.st3{fill:#FFCA4D;}
	.st4{fill:#B7C0D7;}
	.st5{fill:#99A2B9;}
	.st6{fill:#B51040;}
	.st7{fill:#D32E5E;}
	.st8{fill:#F14C7C;}
	.st9{fill:#0079A8;}
	.st10{fill:#1E97C6;}
	.st11{fill:#BED38E;}
	.st12{fill:#A0B570;}
	.st13{fill:#DCF1AC;}
	.st14{fill:#D5DEF5;}
	.st15{fill:#4E4B51;}
	.st16{fill:#6C696F;}
	.st17{fill:#848483;}
	.st18{fill:#A2A2A1;}
	.st19{fill:#7B849B;}
	.st20{fill:#8A878D;}
	.st21{fill:#C0C0BF;}
	.st22{fill:#005B8A;}
	.st23{fill:#970022;}
	.st24{fill:#1A237E;}
	.st25{fill:#BD7000;}
	.st26{fill:#003D6C;}
	.st27{fill:#666665;}
	.st28{fill:#195190;}
</style>
<g id="Colony_Transport">
	<g>
		<path class="st16" d="M55.499,47.5h-3v12h3c2.209,0,4-2.686,4-6S57.708,47.5,55.499,47.5z"/>
		<path class="st1" d="M55.499,60h-3c-0.276,0-0.5-0.224-0.5-0.5v-12c0-0.276,0.224-0.5,0.5-0.5h3c2.481,0,4.5,2.916,4.5,6.5
			S57.98,60,55.499,60z M52.999,59h2.5c1.93,0,3.5-2.467,3.5-5.5s-1.57-5.5-3.5-5.5h-2.5V59z"/>
	</g>
	<g>
		<ellipse class="st15" cx="52.499" cy="53.5" rx="4" ry="6"/>
		<path class="st1" d="M52.499,60c-2.481,0-4.5-2.916-4.5-6.5s2.019-6.5,4.5-6.5s4.5,2.916,4.5,6.5S54.98,60,52.499,60z M52.499,48
			c-1.93,0-3.5,2.467-3.5,5.5s1.57,5.5,3.5,5.5s3.5-2.467,3.5-5.5S54.429,48,52.499,48z"/>
	</g>
	<g>
		<path class="st4" d="M58.499,53.5h-38v-36h23.858c2.652,0,5.196,1.054,7.071,2.929L63.499,32.5v16
			C63.499,51.261,61.26,53.5,58.499,53.5z"/>
		<path class="st1" d="M58.499,54h-38c-0.276,0-0.5-0.224-0.5-0.5v-36c0-0.276,0.224-0.5,0.5-0.5h23.857
			c2.805,0,5.442,1.092,7.425,3.076l12.071,12.071c0.094,0.094,0.146,0.221,0.146,0.354v16C63.999,51.533,61.531,54,58.499,54z
			 M20.999,53h37.5c2.481,0,4.5-2.019,4.5-4.5V32.707L51.074,20.783C49.28,18.988,46.895,18,44.356,18H20.999V53z"/>
	</g>
	<g>
		<path class="st5" d="M58.499,52c-0.276,0-0.5-0.224-0.5-0.5s0.224-0.5,0.5-0.5c1.379,0,2.5-1.122,2.5-2.5V34.329
			c0-0.276,0.224-0.5,0.5-0.5s0.5,0.224,0.5,0.5V48.5C61.999,50.43,60.429,52,58.499,52z"/>
	</g>
	<g>
		<path class="st16" d="M22.499,47.5h-3v12h3c2.209,0,4-2.686,4-6S24.708,47.5,22.499,47.5z"/>
		<path class="st1" d="M22.499,60h-3c-0.276,0-0.5-0.224-0.5-0.5v-12c0-0.276,0.224-0.5,0.5-0.5h3c2.481,0,4.5,2.916,4.5,6.5
			S24.98,60,22.499,60z M19.999,59h2.5c1.93,0,3.5-2.467,3.5-5.5s-1.57-5.5-3.5-5.5h-2.5V59z"/>
	</g>
	<g>
		<path class="st16" d="M35.499,47.5h-3v12h3c2.209,0,4-2.686,4-6S37.708,47.5,35.499,47.5z"/>
		<path class="st1" d="M35.499,60h-3c-0.276,0-0.5-0.224-0.5-0.5v-12c0-0.276,0.224-0.5,0.5-0.5h3c2.481,0,4.5,2.916,4.5,6.5
			S37.98,60,35.499,60z M32.999,59h2.5c1.93,0,3.5-2.467,3.5-5.5s-1.57-5.5-3.5-5.5h-2.5V59z"/>
	</g>
	<g>
		<path class="st16" d="M9.499,47.5h-3v12h3c2.209,0,4-2.686,4-6S11.708,47.5,9.499,47.5z"/>
		<path class="st1" d="M9.499,60h-3c-0.276,0-0.5-0.224-0.5-0.5v-12c0-0.276,0.224-0.5,0.5-0.5h3c2.481,0,4.5,2.916,4.5,6.5
			S11.98,60,9.499,60z M6.999,59h2.5c1.93,0,3.5-2.467,3.5-5.5s-1.57-5.5-3.5-5.5h-2.5V59z"/>
	</g>
	<g>
		<path class="st5" d="M38.499,53.5H7.57c-1.326,0-2.598-0.527-3.536-1.464l-2.071-2.071c-0.938-0.938-1.464-2.209-1.464-3.536V22.5
			c0-2.761,2.239-5,5-5h18.858c2.652,0,5.196,1.054,7.071,2.929L43.499,32.5v16C43.499,51.261,41.26,53.5,38.499,53.5z"/>
		<path class="st1" d="M38.499,54H7.57c-1.469,0-2.85-0.572-3.89-1.611l-2.07-2.071c-1.039-1.038-1.611-2.419-1.611-3.889V22.5
			c0-3.033,2.468-5.5,5.5-5.5h18.857c2.805,0,5.442,1.092,7.425,3.076l12.071,12.071c0.094,0.094,0.146,0.221,0.146,0.354v16
			C43.999,51.533,41.531,54,38.499,54z M5.499,18c-2.481,0-4.5,2.019-4.5,4.5v23.929c0,1.202,0.468,2.332,1.318,3.182l2.07,2.071
			C5.238,52.532,6.369,53,7.57,53h30.929c2.481,0,4.5-2.019,4.5-4.5V32.707L31.074,20.783C29.28,18.988,26.895,18,24.356,18H5.499z"
			/>
	</g>
	<g>
		<polygon class="st9" points="53.499,22.5 33.499,22.5 43.499,32.5 63.499,32.5 		"/>
		<path class="st1" d="M63.499,33h-20c-0.133,0-0.26-0.053-0.354-0.146l-10-10c-0.143-0.143-0.186-0.358-0.108-0.545
			S33.297,22,33.499,22h20c0.133,0,0.26,0.053,0.354,0.146l10,10c0.143,0.143,0.186,0.358,0.108,0.545S63.701,33,63.499,33z
			 M43.706,32h18.586l-9-9H34.706L43.706,32z"/>
	</g>
	<g>
		<path class="st10" d="M44.327,31c-0.128,0-0.256-0.049-0.354-0.146l-6-6c-0.195-0.195-0.195-0.512,0-0.707s0.512-0.195,0.707,0
			l6,6c0.195,0.195,0.195,0.512,0,0.707C44.583,30.951,44.455,31,44.327,31z"/>
	</g>
	<g>
		<path class="st19" d="M38.499,52c-0.276,0-0.5-0.224-0.5-0.5s0.224-0.5,0.5-0.5c1.379,0,2.5-1.122,2.5-2.5v-14
			c0-0.276,0.224-0.5,0.5-0.5s0.5,0.224,0.5,0.5v14C41.999,50.43,40.429,52,38.499,52z"/>
	</g>
	<g>
		<path class="st4" d="M3.378,49.05c-0.128,0-0.256-0.049-0.354-0.146c-0.661-0.661-1.025-1.54-1.025-2.475V22.5
			c0-1.93,1.57-3.5,3.5-3.5c0.276,0,0.5,0.224,0.5,0.5S5.775,20,5.499,20c-1.379,0-2.5,1.122-2.5,2.5v23.929
			c0,0.667,0.26,1.295,0.732,1.768c0.195,0.195,0.195,0.512,0,0.707C3.634,49.001,3.506,49.05,3.378,49.05z"/>
	</g>
	<g>
		<ellipse class="st15" cx="19.499" cy="53.5" rx="4" ry="6"/>
		<path class="st1" d="M19.499,60c-2.481,0-4.5-2.916-4.5-6.5s2.019-6.5,4.5-6.5s4.5,2.916,4.5,6.5S21.98,60,19.499,60z M19.499,48
			c-1.93,0-3.5,2.467-3.5,5.5s1.57,5.5,3.5,5.5s3.5-2.467,3.5-5.5S21.429,48,19.499,48z"/>
	</g>
	<g>
		<ellipse class="st17" cx="19.499" cy="53.5" rx="1.5" ry="3"/>
		<path class="st1" d="M19.499,57c-1.141,0-2-1.505-2-3.5s0.859-3.5,2-3.5s2,1.505,2,3.5S20.64,57,19.499,57z M19.499,51
			c-0.408,0-1,0.974-1,2.5s0.592,2.5,1,2.5s1-0.974,1-2.5S19.907,51,19.499,51z"/>
	</g>
	<g>
		<ellipse class="st15" cx="32.499" cy="53.5" rx="4" ry="6"/>
		<path class="st1" d="M32.499,60c-2.481,0-4.5-2.916-4.5-6.5s2.019-6.5,4.5-6.5s4.5,2.916,4.5,6.5S34.98,60,32.499,60z M32.499,48
			c-1.93,0-3.5,2.467-3.5,5.5s1.57,5.5,3.5,5.5s3.5-2.467,3.5-5.5S34.429,48,32.499,48z"/>
	</g>
	<g>
		<ellipse class="st17" cx="32.499" cy="53.5" rx="1.5" ry="3"/>
		<path class="st1" d="M32.499,57c-1.141,0-2-1.505-2-3.5s0.859-3.5,2-3.5s2,1.505,2,3.5S33.64,57,32.499,57z M32.499,51
			c-0.408,0-1,0.974-1,2.5s0.592,2.5,1,2.5s1-0.974,1-2.5S32.907,51,32.499,51z"/>
	</g>
	<g>
		<ellipse class="st15" cx="6.499" cy="53.5" rx="4" ry="6"/>
		<path class="st1" d="M6.499,60c-2.481,0-4.5-2.916-4.5-6.5s2.019-6.5,4.5-6.5s4.5,2.916,4.5,6.5S8.98,60,6.499,60z M6.499,48
			c-1.93,0-3.5,2.467-3.5,5.5s1.57,5.5,3.5,5.5s3.5-2.467,3.5-5.5S8.429,48,6.499,48z"/>
	</g>
	<g>
		<ellipse class="st17" cx="6.499" cy="53.5" rx="1.5" ry="3"/>
		<path class="st1" d="M6.499,57c-1.141,0-2-1.505-2-3.5s0.859-3.5,2-3.5s2,1.505,2,3.5S7.64,57,6.499,57z M6.499,51
			c-0.408,0-1,0.974-1,2.5s0.592,2.5,1,2.5s1-0.974,1-2.5S6.907,51,6.499,51z"/>
	</g>
	<g>
		<path class="st22" d="M28.499,23.5v8c0,0.552,0.448,1,1,1h14l-10-10h-4C28.947,22.5,28.499,22.948,28.499,23.5z"/>
		<path class="st1" d="M43.499,33h-14c-0.827,0-1.5-0.673-1.5-1.5v-8c0-0.827,0.673-1.5,1.5-1.5h4c0.133,0,0.26,0.053,0.354,0.146
			l10,10c0.143,0.143,0.186,0.358,0.108,0.545S43.701,33,43.499,33z M29.499,23c-0.275,0-0.5,0.224-0.5,0.5v8
			c0,0.276,0.225,0.5,0.5,0.5h12.793l-9-9H29.499z"/>
	</g>
	<g>
		<rect x="43.499" y="37.5" class="st2" width="20" height="8"/>
		<path class="st1" d="M63.499,46h-20c-0.276,0-0.5-0.224-0.5-0.5v-8c0-0.276,0.224-0.5,0.5-0.5h20c0.276,0,0.5,0.224,0.5,0.5v8
			C63.999,45.776,63.775,46,63.499,46z M43.999,45h19v-7h-19V45z"/>
	</g>
	<g>
		<path class="st1" d="M22.499,33h-21c-0.827,0-1.5-0.673-1.5-1.5v-8c0-0.827,0.673-1.5,1.5-1.5h21c0.827,0,1.5,0.673,1.5,1.5v8
			C23.999,32.327,23.326,33,22.499,33z M1.499,23c-0.275,0-0.5,0.224-0.5,0.5v8c0,0.276,0.225,0.5,0.5,0.5h21
			c0.275,0,0.5-0.224,0.5-0.5v-8c0-0.276-0.225-0.5-0.5-0.5H1.499z"/>
	</g>
	<g>
		<path class="st4" d="M37.999,11.5h-13c-1.381,0-2.5,1.119-2.5,2.5v3.5h18V14C40.499,12.619,39.38,11.5,37.999,11.5z"/>
		<path class="st1" d="M40.499,18h-18c-0.276,0-0.5-0.224-0.5-0.5V14c0-1.654,1.346-3,3-3h13c1.654,0,3,1.346,3,3v3.5
			C40.999,17.776,40.775,18,40.499,18z M22.999,17h17v-3c0-1.103-0.897-2-2-2h-13c-1.103,0-2,0.897-2,2V17z"/>
	</g>
	<g>
		<path class="st5" d="M27.999,11.5h-13c-1.381,0-2.5,1.119-2.5,2.5v3.5h18V14C30.499,12.619,29.38,11.5,27.999,11.5z"/>
		<path class="st1" d="M30.499,18h-18c-0.276,0-0.5-0.224-0.5-0.5V14c0-1.654,1.346-3,3-3h13c1.654,0,3,1.346,3,3v3.5
			C30.999,17.776,30.775,18,30.499,18z M12.999,17h17v-3c0-1.103-0.897-2-2-2h-13c-1.103,0-2,0.897-2,2V17z"/>
	</g>
	<g>
		<path class="st5" d="M22.499,42.5h-8c-0.552,0-1-0.448-1-1v-18c0-0.552,0.448-1,1-1h8c0.552,0,1,0.448,1,1v18
			C23.499,42.052,23.051,42.5,22.499,42.5z"/>
		<path class="st1" d="M22.499,43h-8c-0.827,0-1.5-0.673-1.5-1.5v-18c0-0.827,0.673-1.5,1.5-1.5h8c0.827,0,1.5,0.673,1.5,1.5v18
			C23.999,42.327,23.326,43,22.499,43z M14.499,23c-0.275,0-0.5,0.224-0.5,0.5v18c0,0.276,0.225,0.5,0.5,0.5h8
			c0.275,0,0.5-0.224,0.5-0.5v-18c0-0.276-0.225-0.5-0.5-0.5H14.499z"/>
	</g>
	<g>
		<path class="st1" d="M23.499,38h-23c-0.276,0-0.5-0.224-0.5-0.5s0.224-0.5,0.5-0.5h23c0.276,0,0.5,0.224,0.5,0.5
			S23.775,38,23.499,38z"/>
	</g>
	<g>
		<path class="st1" d="M21.499,34.5c-0.276,0-0.5-0.224-0.5-0.5v-3c0-0.276,0.224-0.5,0.5-0.5s0.5,0.224,0.5,0.5v3
			C21.999,34.276,21.775,34.5,21.499,34.5z"/>
	</g>
	<g>
		<rect x="43.499" y="37.5" class="st17" width="6" height="4"/>
		<path class="st1" d="M49.499,42h-6c-0.276,0-0.5-0.224-0.5-0.5v-4c0-0.276,0.224-0.5,0.5-0.5h6c0.276,0,0.5,0.224,0.5,0.5v4
			C49.999,41.776,49.775,42,49.499,42z M43.999,41h5v-3h-5V41z"/>
	</g>
	<g>
		<path class="st0" d="M7.499,19.5h-1c-0.552,0-1-0.448-1-1v-13c0-0.552,0.448-1,1-1h1c0.552,0,1,0.448,1,1v13
			C8.499,19.052,8.051,19.5,7.499,19.5z"/>
		<path class="st1" d="M7.499,20h-1c-0.827,0-1.5-0.673-1.5-1.5v-13c0-0.827,0.673-1.5,1.5-1.5h1c0.827,0,1.5,0.673,1.5,1.5v13
			C8.999,19.327,8.326,20,7.499,20z M6.499,5c-0.275,0-0.5,0.224-0.5,0.5v13c0,0.276,0.225,0.5,0.5,0.5h1c0.275,0,0.5-0.224,0.5-0.5
			v-13c0-0.276-0.225-0.5-0.5-0.5H6.499z"/>
	</g>
	<g>
		<path class="st1" d="M43.499,33h-14c-0.827,0-1.5-0.673-1.5-1.5v-8c0-0.827,0.673-1.5,1.5-1.5h4c0.133,0,0.26,0.053,0.354,0.146
			l10,10c0.143,0.143,0.186,0.358,0.108,0.545S43.701,33,43.499,33z M29.499,23c-0.275,0-0.5,0.224-0.5,0.5v8
			c0,0.276,0.225,0.5,0.5,0.5h12.793l-9-9H29.499z"/>
	</g>
	<g>
		<path class="st9" d="M30.499,31c-0.276,0-0.5-0.224-0.5-0.5v-6c0-0.276,0.224-0.5,0.5-0.5s0.5,0.224,0.5,0.5v6
			C30.999,30.776,30.775,31,30.499,31z"/>
	</g>
	<g>
		<path class="st22" d="M58.671,31c-0.128,0-0.256-0.049-0.354-0.146l-6-6c-0.195-0.195-0.195-0.512,0-0.707s0.512-0.195,0.707,0
			l6,6c0.195,0.195,0.195,0.512,0,0.707C58.927,30.951,58.799,31,58.671,31z"/>
	</g>
	<g>
		<path class="st0" d="M61.499,46c-0.276,0-0.5-0.224-0.5-0.5v-8c0-0.276,0.224-0.5,0.5-0.5s0.5,0.224,0.5,0.5v8
			C61.999,45.776,61.775,46,61.499,46z"/>
	</g>
	<g>
		<path class="st1" d="M63.499,46h-20c-0.276,0-0.5-0.224-0.5-0.5v-8c0-0.276,0.224-0.5,0.5-0.5h20c0.276,0,0.5,0.224,0.5,0.5v8
			C63.999,45.776,63.775,46,63.499,46z M43.999,45h19v-7h-19V45z"/>
	</g>
	<g>
		<path class="st5" d="M38.499,16c-0.276,0-0.5-0.224-0.5-0.5v-2c0-0.276,0.224-0.5,0.5-0.5s0.5,0.224,0.5,0.5v2
			C38.999,15.776,38.775,16,38.499,16z"/>
	</g>
	<g>
		<path class="st19" d="M28.499,16c-0.276,0-0.5-0.224-0.5-0.5v-2c0-0.276,0.224-0.5,0.5-0.5s0.5,0.224,0.5,0.5v2
			C28.999,15.776,28.775,16,28.499,16z"/>
	</g>
	<g>
		<path class="st4" d="M14.499,16c-0.276,0-0.5-0.224-0.5-0.5v-2c0-0.276,0.224-0.5,0.5-0.5s0.5,0.224,0.5,0.5v2
			C14.999,15.776,14.775,16,14.499,16z"/>
	</g>
</g>
</svg>
