<?xml version="1.0" encoding="utf-8"?>
<!-- Generator: Adobe Illustrator 21.1.0, SVG Export Plug-In . SVG Version: 6.00 Build 0)  -->
<svg version="1.1" id="Layer_1" xmlns="http://www.w3.org/2000/svg" xmlns:xlink="http://www.w3.org/1999/xlink" x="0px" y="0px"
	 viewBox="0 0 64 64" style="enable-background:new 0 0 64 64;" xml:space="preserve">
<style type="text/css">
	.st0{fill:#DB8E11;}
	.st1{fill:#212A41;}
	.st2{fill:#F9AC2F;}
	.st3{fill:#FFCA4D;}
	.st4{fill:#B7C0D7;}
	.st5{fill:#99A2B9;}
	.st6{fill:#B51040;}
	.st7{fill:#D32E5E;}
	.st8{fill:#F14C7C;}
	.st9{fill:#0079A8;}
	.st10{fill:#1E97C6;}
	.st11{fill:#BED38E;}
	.st12{fill:#A0B570;}
	.st13{fill:#DCF1AC;}
	.st14{fill:#D5DEF5;}
	.st15{fill:#4E4B51;}
	.st16{fill:#6C696F;}
	.st17{fill:#848483;}
	.st18{fill:#A2A2A1;}
	.st19{fill:#7B849B;}
	.st20{fill:#8A878D;}
	.st21{fill:#C0C0BF;}
	.st22{fill:#005B8A;}
	.st23{fill:#970022;}
	.st24{fill:#1A237E;}
	.st25{fill:#BD7000;}
	.st26{fill:#003D6C;}
	.st27{fill:#666665;}
	.st28{fill:#195190;}
</style>
<g id="Control_Center">
	<g>
		<path class="st5" d="M42.001,63.5h-37c-1.381,0-2.5-1.119-2.5-2.5V30.5h42V61C44.501,62.381,43.381,63.5,42.001,63.5z"/>
		<path class="st1" d="M42.001,64h-37c-1.654,0-3-1.346-3-3V30.5c0-0.276,0.224-0.5,0.5-0.5h42c0.276,0,0.5,0.224,0.5,0.5V61
			C45.001,62.654,43.655,64,42.001,64z M3.001,31v30c0,1.103,0.897,2,2,2h37c1.103,0,2-0.897,2-2V31H3.001z"/>
	</g>
	<g>
		<path class="st4" d="M59.001,63.5h-37c-1.381,0-2.5-1.119-2.5-2.5V30.5h42V61C61.501,62.381,60.381,63.5,59.001,63.5z"/>
		<path class="st1" d="M59.001,64h-37c-1.654,0-3-1.346-3-3V30.5c0-0.276,0.224-0.5,0.5-0.5h42c0.276,0,0.5,0.224,0.5,0.5V61
			C62.001,62.654,60.655,64,59.001,64z M20.001,31v30c0,1.103,0.897,2,2,2h37c1.103,0,2-0.897,2-2V31H20.001z"/>
	</g>
	<g>
		<path class="st5" d="M59.501,61.5c-0.276,0-0.5-0.224-0.5-0.5V32.5c0-0.276,0.224-0.5,0.5-0.5s0.5,0.224,0.5,0.5V61
			C60.001,61.276,59.777,61.5,59.501,61.5z"/>
	</g>
	<g>
		<path class="st6" d="M45.501,23.5h-44c-0.552,0-1,0.448-1,1v5c0,0.552,0.448,1,1,1h44c0.552,0,1-0.448,1-1v-5
			C46.501,23.948,46.053,23.5,45.501,23.5z"/>
		<path class="st1" d="M45.501,31h-44c-0.827,0-1.5-0.673-1.5-1.5v-5c0-0.827,0.673-1.5,1.5-1.5h44c0.827,0,1.5,0.673,1.5,1.5v5
			C47.001,30.327,46.328,31,45.501,31z M1.501,24c-0.275,0-0.5,0.224-0.5,0.5v5c0,0.276,0.225,0.5,0.5,0.5h44
			c0.275,0,0.5-0.224,0.5-0.5v-5c0-0.276-0.225-0.5-0.5-0.5H1.501z"/>
	</g>
	<g>
		<ellipse transform="matrix(0.7071 -0.7071 0.7071 0.7071 -1.4274 19.2314)" class="st4" cx="22.501" cy="11.339" rx="6" ry="12"/>
		<path class="st1" d="M28.185,21.334c-2.926,0-6.831-1.951-10.28-5.399c-2.32-2.32-4.053-4.962-4.878-7.438
			c-0.864-2.593-0.639-4.723,0.636-5.997c1.273-1.274,3.406-1.5,5.996-0.636c2.477,0.826,5.118,2.558,7.438,4.878l0,0l0,0
			c4.957,4.956,6.82,10.857,4.243,13.435C30.556,20.961,29.464,21.334,28.185,21.334z M16.798,2.346
			c-1.026,0-1.856,0.289-2.429,0.861c-0.992,0.993-1.133,2.759-0.395,4.974c0.777,2.332,2.424,4.834,4.637,7.047
			c4.407,4.407,9.912,6.351,12.021,4.243c2.108-2.108,0.165-7.613-4.243-12.021l0,0c-2.213-2.213-4.716-3.859-7.047-4.637
			C18.405,2.501,17.549,2.346,16.798,2.346z"/>
	</g>
	<g>
		<path class="st14" d="M19.672,14.667c-0.128,0-0.256-0.049-0.354-0.146c-4.375-4.375-5.747-9.102-4.242-10.606
			c0.195-0.195,0.512-0.195,0.707,0s0.195,0.512,0,0.707c-0.872,0.873,0.075,5.025,4.242,9.192c0.195,0.195,0.195,0.512,0,0.707
			C19.928,14.618,19.8,14.667,19.672,14.667z"/>
	</g>
	<g>
		<path class="st5" d="M29.571,18.91c-0.128,0-0.256-0.049-0.354-0.146c-0.195-0.195-0.195-0.512,0-0.707
			c0.369-0.369,0.455-1.512-0.186-3.236c-0.724-1.948-2.164-4.064-4.057-5.957c-0.195-0.195-0.195-0.512,0-0.707
			s0.512-0.195,0.707,0c1.992,1.992,3.515,4.235,4.287,6.315c0.721,1.939,0.703,3.543-0.045,4.291
			C29.827,18.861,29.699,18.91,29.571,18.91z"/>
	</g>
	<g>
		<path class="st5" d="M18.258,15.581c-4.686-4.686-6.586-10.385-4.243-12.728c-4.686,4.686-4.686,12.284,0,16.971
			c4.686,4.686,12.284,4.686,16.971,0C28.643,22.167,22.944,20.268,18.258,15.581z"/>
		<path class="st1" d="M22.501,23.833c-3.201,0-6.402-1.218-8.839-3.655c-2.361-2.361-3.661-5.5-3.661-8.839
			c0-3.339,1.3-6.478,3.661-8.839l0,0c0.195-0.195,0.512-0.195,0.707,0s0.195,0.512,0,0.707c-0.992,0.993-1.133,2.759-0.395,4.974
			c0.777,2.332,2.424,4.834,4.637,7.047c4.407,4.407,9.912,6.351,12.021,4.243c0.195-0.195,0.512-0.195,0.707,0s0.195,0.512,0,0.707
			l0,0C28.903,22.614,25.702,23.833,22.501,23.833z M12.51,5.634c-0.984,1.718-1.509,3.671-1.509,5.705
			c0,3.072,1.196,5.959,3.368,8.132c3.74,3.739,9.433,4.36,13.821,1.864c-0.002,0-0.004,0-0.006,0c-2.926,0-6.831-1.951-10.28-5.399
			l0,0c-2.32-2.32-4.053-4.962-4.878-7.438C12.681,7.46,12.509,6.498,12.51,5.634z"/>
	</g>
	<g>
		<path class="st2" d="M31.34,1.086L32.754,2.5l-7.644,8.268c-0.556,0.601-1.5,0.62-2.079,0.041l0,0
			c-0.579-0.579-0.56-1.523,0.041-2.079L31.34,1.086z"/>
		<path class="st1" d="M24.05,11.731c-0.519,0-1.004-0.201-1.372-0.569c-0.377-0.377-0.579-0.878-0.568-1.412
			c0.01-0.533,0.231-1.026,0.622-1.388L31,0.719c0.198-0.182,0.503-0.177,0.693,0.014l1.414,1.414
			c0.189,0.19,0.196,0.496,0.014,0.693l-7.644,8.268c-0.363,0.392-0.856,0.613-1.389,0.624C24.075,11.73,24.062,11.731,24.05,11.731
			z M31.326,1.779l-7.915,7.317c-0.19,0.175-0.297,0.415-0.303,0.673c-0.005,0.259,0.094,0.502,0.276,0.685
			c0.184,0.184,0.445,0.286,0.685,0.275c0.259-0.005,0.498-0.112,0.674-0.303l7.317-7.914L31.326,1.779z"/>
	</g>
	<g>
		<ellipse transform="matrix(0.7071 -0.7071 0.7071 0.7071 7.4114 22.8926)" class="st2" cx="31.34" cy="2.5" rx="2" ry="2"/>
		<path class="st1" d="M31.339,4.999c-0.64,0-1.28-0.244-1.768-0.731c-0.975-0.975-0.975-2.561,0-3.535
			c0.974-0.974,2.561-0.976,3.536,0c0.473,0.472,0.732,1.1,0.732,1.768s-0.26,1.295-0.732,1.768l0,0l0,0
			C32.62,4.755,31.979,4.999,31.339,4.999z M31.339,1c-0.384,0-0.768,0.146-1.061,0.439c-0.584,0.585-0.584,1.536,0,2.121
			c0.587,0.586,1.537,0.584,2.122,0l0,0c0.283-0.283,0.439-0.66,0.439-1.061S32.684,1.723,32.4,1.439
			C32.107,1.147,31.724,1,31.339,1z"/>
	</g>
	<g>
		<path class="st7" d="M62.501,23.5h-44c-0.552,0-1,0.448-1,1v5c0,0.552,0.448,1,1,1h44c0.552,0,1-0.448,1-1v-5
			C63.501,23.948,63.053,23.5,62.501,23.5z"/>
		<path class="st1" d="M62.501,31h-44c-0.827,0-1.5-0.673-1.5-1.5v-5c0-0.827,0.673-1.5,1.5-1.5h44c0.827,0,1.5,0.673,1.5,1.5v5
			C64.001,30.327,63.328,31,62.501,31z M18.501,24c-0.275,0-0.5,0.224-0.5,0.5v5c0,0.276,0.225,0.5,0.5,0.5h44
			c0.275,0,0.5-0.224,0.5-0.5v-5c0-0.276-0.225-0.5-0.5-0.5H18.501z"/>
	</g>
	<g>
		<rect x="49.001" y="15.5" class="st4" width="5" height="8"/>
		<path class="st1" d="M54.001,24h-5c-0.276,0-0.5-0.224-0.5-0.5v-8c0-0.276,0.224-0.5,0.5-0.5h5c0.276,0,0.5,0.224,0.5,0.5v8
			C54.501,23.776,54.277,24,54.001,24z M49.501,23h4v-7h-4V23z"/>
	</g>
	<g>
		<rect x="50.001" y="7.51" class="st4" width="3" height="8"/>
		<path class="st1" d="M53.001,16.01h-3c-0.276,0-0.5-0.224-0.5-0.5v-8c0-0.276,0.224-0.5,0.5-0.5h3c0.276,0,0.5,0.224,0.5,0.5v8
			C53.501,15.787,53.277,16.01,53.001,16.01z M50.501,15.01h2v-7h-2V15.01z"/>
	</g>
	<g>
		<path class="st1" d="M33.501,64c-0.276,0-0.5-0.224-0.5-0.5v-33c0-0.276,0.224-0.5,0.5-0.5s0.5,0.224,0.5,0.5v33
			C34.001,63.776,33.777,64,33.501,64z"/>
	</g>
	<g>
		<path class="st1" d="M11.001,64c-0.276,0-0.5-0.224-0.5-0.5v-33c0-0.276,0.224-0.5,0.5-0.5s0.5,0.224,0.5,0.5v33
			C11.501,63.776,11.277,64,11.001,64z"/>
	</g>
	<g>
		<path class="st1" d="M47.501,64c-0.276,0-0.5-0.224-0.5-0.5v-33c0-0.276,0.224-0.5,0.5-0.5s0.5,0.224,0.5,0.5v33
			C48.001,63.776,47.777,64,47.501,64z"/>
	</g>
	<g>
		<polygon class="st9" points="28.501,53.5 61.501,53.5 61.501,43.5 33.501,43.5 		"/>
	</g>
	<g>
		<path class="st10" d="M31.736,52c-0.075,0-0.151-0.017-0.224-0.053c-0.247-0.124-0.347-0.424-0.224-0.671l3-6
			c0.125-0.247,0.425-0.346,0.671-0.224c0.247,0.124,0.347,0.424,0.224,0.671l-3,6C32.096,51.899,31.919,52,31.736,52z"/>
	</g>
	<g>
		<rect x="7.001" y="48.5" class="st15" width="8" height="15"/>
		<path class="st1" d="M15.001,64h-8c-0.276,0-0.5-0.224-0.5-0.5v-15c0-0.276,0.224-0.5,0.5-0.5h8c0.276,0,0.5,0.224,0.5,0.5v15
			C15.501,63.776,15.277,64,15.001,64z M7.501,63h7V49h-7V63z"/>
	</g>
	<g>
		<path class="st22" d="M59.501,54c-0.276,0-0.5-0.224-0.5-0.5v-10c0-0.276,0.224-0.5,0.5-0.5s0.5,0.224,0.5,0.5v10
			C60.001,53.776,59.777,54,59.501,54z"/>
	</g>
	<g>
		<path class="st14" d="M21.501,61.5c-0.276,0-0.5-0.224-0.5-0.5V32.5c0-0.276,0.224-0.5,0.5-0.5s0.5,0.224,0.5,0.5V61
			C22.001,61.276,21.777,61.5,21.501,61.5z"/>
	</g>
	<g>
		<path class="st1" d="M61.501,54h-33c-0.173,0-0.334-0.09-0.426-0.237c-0.091-0.147-0.099-0.332-0.021-0.486l5-10
			C33.139,43.107,33.312,43,33.501,43h28c0.276,0,0.5,0.224,0.5,0.5v10C62.001,53.776,61.777,54,61.501,54z M29.31,53h31.691v-9
			H33.81L29.31,53z"/>
	</g>
</g>
</svg>
