<?xml version="1.0" encoding="utf-8"?>
<!-- Generator: Adobe Illustrator 21.1.0, SVG Export Plug-In . SVG Version: 6.00 Build 0)  -->
<svg version="1.1" id="Layer_1" xmlns="http://www.w3.org/2000/svg" xmlns:xlink="http://www.w3.org/1999/xlink" x="0px" y="0px"
	 viewBox="0 0 64 64" style="enable-background:new 0 0 64 64;" xml:space="preserve">
<style type="text/css">
	.st0{fill:#DB8E11;}
	.st1{fill:#212A41;}
	.st2{fill:#F9AC2F;}
	.st3{fill:#FFCA4D;}
	.st4{fill:#B7C0D7;}
	.st5{fill:#99A2B9;}
	.st6{fill:#B51040;}
	.st7{fill:#D32E5E;}
	.st8{fill:#F14C7C;}
	.st9{fill:#0079A8;}
	.st10{fill:#1E97C6;}
	.st11{fill:#BED38E;}
	.st12{fill:#A0B570;}
	.st13{fill:#DCF1AC;}
	.st14{fill:#D5DEF5;}
	.st15{fill:#4E4B51;}
	.st16{fill:#6C696F;}
	.st17{fill:#848483;}
	.st18{fill:#A2A2A1;}
	.st19{fill:#7B849B;}
	.st20{fill:#8A878D;}
	.st21{fill:#C0C0BF;}
	.st22{fill:#005B8A;}
	.st23{fill:#970022;}
	.st24{fill:#1A237E;}
	.st25{fill:#BD7000;}
	.st26{fill:#003D6C;}
	.st27{fill:#666665;}
	.st28{fill:#195190;}
</style>
<g id="Galaxy">
	<g>
		
			<ellipse transform="matrix(0.7071 -0.7071 0.7071 0.7071 -13.8406 30.5858)" class="st5" cx="30" cy="32" rx="22.633" ry="27.16"/>
		<path class="st1" d="M34.527,57.486c-7.181,0-14.864-3.107-20.885-9.128C2.857,37.573,1.422,21.461,10.441,12.441
			c9.019-9.019,25.131-7.584,35.917,3.201l0,0c10.785,10.785,12.22,26.897,3.201,35.917C45.575,55.542,40.208,57.486,34.527,57.486z
			 M25.474,7.509c-5.423,0-10.534,1.848-14.326,5.639c-8.629,8.63-7.194,24.107,3.201,34.502
			c10.395,10.394,25.872,11.83,34.502,3.201c8.629-8.63,7.194-24.107-3.201-34.502C39.823,10.521,32.395,7.509,25.474,7.509z"/>
	</g>
	<g>
		<ellipse transform="matrix(0.7071 -0.7071 0.7071 0.7071 -12.669 33.4142)" class="st4" cx="34" cy="32" rx="22.633" ry="27.16"/>
		<path class="st1" d="M38.527,57.486c-7.181,0-14.864-3.107-20.885-9.128C6.857,37.573,5.422,21.461,14.441,12.441
			c9.019-9.019,25.132-7.584,35.917,3.201l0,0c10.785,10.785,12.22,26.897,3.201,35.917C49.575,55.542,44.208,57.486,38.527,57.486z
			 M29.474,7.509c-5.423,0-10.534,1.848-14.326,5.639c-8.629,8.63-7.194,24.107,3.201,34.502
			c10.395,10.394,25.873,11.83,34.502,3.201c8.629-8.63,7.194-24.107-3.201-34.502C43.823,10.521,36.395,7.509,29.474,7.509z"/>
	</g>
	<g>
		<path class="st14" d="M19.41,47.09c-0.128,0-0.256-0.049-0.354-0.146c-4.826-4.826-7.824-10.919-8.44-17.157
			c-0.62-6.274,1.24-11.933,5.239-15.931c0.195-0.195,0.512-0.195,0.707,0s0.195,0.512,0,0.707
			c-3.783,3.783-5.542,9.155-4.951,15.126c0.594,6.008,3.489,11.885,8.152,16.548c0.195,0.195,0.195,0.512,0,0.707
			C19.666,47.041,19.538,47.09,19.41,47.09z"/>
	</g>
	<g>
		<path class="st5" d="M51.791,50.291c-0.128,0-0.256-0.049-0.354-0.146c-0.195-0.195-0.195-0.512,0-0.707
			c3.783-3.783,5.542-9.155,4.951-15.126c-0.594-6.008-3.489-11.885-8.152-16.548c-0.195-0.195-0.195-0.512,0-0.707
			s0.512-0.195,0.707,0c4.826,4.826,7.824,10.919,8.44,17.157c0.62,6.274-1.24,11.933-5.239,15.931
			C52.047,50.242,51.919,50.291,51.791,50.291z"/>
	</g>
	<g>
		<path class="st1" d="M46.747,32.5c-0.276,0-0.5-0.224-0.5-0.5c0-9.397-7.645-17.042-17.042-17.042S12.162,22.603,12.162,32
			c0,0.276-0.224,0.5-0.5,0.5s-0.5-0.224-0.5-0.5c0-9.949,8.094-18.042,18.042-18.042S47.247,22.051,47.247,32
			C47.247,32.276,47.023,32.5,46.747,32.5z"/>
	</g>
	<g>
		<path class="st1" d="M36.879,32.5c-0.276,0-0.5-0.224-0.5-0.5c0-3.956-3.219-7.175-7.175-7.175S22.029,28.044,22.029,32
			c0,0.276-0.224,0.5-0.5,0.5s-0.5-0.224-0.5-0.5c0-4.508,3.667-8.175,8.175-8.175s8.175,3.667,8.175,8.175
			C37.379,32.276,37.155,32.5,36.879,32.5z"/>
	</g>
	<g>
		<path class="st1" d="M39.072,50.042c-9.949,0-18.042-8.094-18.042-18.042c0-0.276,0.224-0.5,0.5-0.5s0.5,0.224,0.5,0.5
			c0,9.397,7.645,17.042,17.042,17.042S56.114,41.397,56.114,32c0-0.276,0.224-0.5,0.5-0.5s0.5,0.224,0.5,0.5
			C57.114,41.949,49.021,50.042,39.072,50.042z"/>
	</g>
	<g>
		<path class="st1" d="M39.072,40.175c-4.508,0-8.175-3.667-8.175-8.175c0-0.276,0.224-0.5,0.5-0.5s0.5,0.224,0.5,0.5
			c0,3.956,3.219,7.175,7.175,7.175s7.175-3.219,7.175-7.175c0-0.276,0.224-0.5,0.5-0.5s0.5,0.224,0.5,0.5
			C47.247,36.508,43.58,40.175,39.072,40.175z"/>
	</g>
	<g>
		<circle class="st18" cx="5.5" cy="49.5" r="2"/>
		<path class="st1" d="M5.5,52C4.122,52,3,50.878,3,49.5S4.122,47,5.5,47S8,48.122,8,49.5S6.878,52,5.5,52z M5.5,48
			C4.673,48,4,48.673,4,49.5S4.673,51,5.5,51S7,50.327,7,49.5S6.327,48,5.5,48z"/>
	</g>
	<g>
		<circle class="st18" cx="59" cy="56.5" r="2"/>
		<path class="st1" d="M59,59c-1.378,0-2.5-1.122-2.5-2.5S57.622,54,59,54s2.5,1.122,2.5,2.5S60.378,59,59,59z M59,55
			c-0.827,0-1.5,0.673-1.5,1.5S58.173,58,59,58s1.5-0.673,1.5-1.5S59.827,55,59,55z"/>
	</g>
	<g>
		<polygon class="st2" points="13,63 11.5,59.5 8,58 11.5,56.5 13,53 14.5,56.5 18,58 14.5,59.5 		"/>
		<path class="st1" d="M13,63.5c-0.2,0-0.381-0.119-0.459-0.303l-1.421-3.316l-3.316-1.421C7.619,58.381,7.5,58.2,7.5,58
			s0.119-0.381,0.303-0.459l3.316-1.421l1.421-3.316c0.157-0.368,0.762-0.368,0.919,0l1.421,3.316l3.316,1.421
			C18.381,57.619,18.5,57.8,18.5,58s-0.119,0.381-0.303,0.459l-3.316,1.421l-1.421,3.316C13.381,63.381,13.2,63.5,13,63.5z M9.27,58
			l2.427,1.041c0.118,0.05,0.212,0.145,0.263,0.263L13,61.73l1.041-2.427c0.05-0.118,0.145-0.212,0.263-0.263L16.73,58l-2.427-1.041
			c-0.118-0.05-0.212-0.145-0.263-0.263L13,54.27l-1.041,2.427c-0.05,0.118-0.145,0.212-0.263,0.263L9.27,58z"/>
	</g>
	<g>
		<circle class="st7" cx="54" cy="7.5" r="5"/>
		<path class="st1" d="M54,13c-3.033,0-5.5-2.467-5.5-5.5S50.967,2,54,2s5.5,2.467,5.5,5.5S57.033,13,54,13z M54,3
			c-2.481,0-4.5,2.019-4.5,4.5S51.519,12,54,12s4.5-2.019,4.5-4.5S56.481,3,54,3z"/>
	</g>
	<g>
		<path class="st8" d="M51,8c-0.276,0-0.5-0.224-0.5-0.5C50.5,5.57,52.07,4,54,4c0.276,0,0.5,0.224,0.5,0.5S54.276,5,54,5
			c-1.378,0-2.5,1.122-2.5,2.5C51.5,7.776,51.276,8,51,8z"/>
	</g>
	<g>
		<path class="st6" d="M54,11c-0.276,0-0.5-0.224-0.5-0.5S53.724,10,54,10c1.378,0,2.5-1.122,2.5-2.5C56.5,7.224,56.724,7,57,7
			s0.5,0.224,0.5,0.5C57.5,9.43,55.93,11,54,11z"/>
	</g>
</g>
</svg>
