<?xml version="1.0" encoding="utf-8"?>
<!-- Generator: Adobe Illustrator 21.1.0, SVG Export Plug-In . SVG Version: 6.00 Build 0)  -->
<svg version="1.1" id="Layer_1" xmlns="http://www.w3.org/2000/svg" xmlns:xlink="http://www.w3.org/1999/xlink" x="0px" y="0px"
	 viewBox="0 0 64 64" style="enable-background:new 0 0 64 64;" xml:space="preserve">
<style type="text/css">
	.st0{fill:#DB8E11;}
	.st1{fill:#212A41;}
	.st2{fill:#F9AC2F;}
	.st3{fill:#FFCA4D;}
	.st4{fill:#B7C0D7;}
	.st5{fill:#99A2B9;}
	.st6{fill:#B51040;}
	.st7{fill:#D32E5E;}
	.st8{fill:#F14C7C;}
	.st9{fill:#0079A8;}
	.st10{fill:#1E97C6;}
	.st11{fill:#BED38E;}
	.st12{fill:#A0B570;}
	.st13{fill:#DCF1AC;}
	.st14{fill:#D5DEF5;}
	.st15{fill:#4E4B51;}
	.st16{fill:#6C696F;}
	.st17{fill:#848483;}
	.st18{fill:#A2A2A1;}
	.st19{fill:#7B849B;}
	.st20{fill:#8A878D;}
	.st21{fill:#C0C0BF;}
	.st22{fill:#005B8A;}
	.st23{fill:#970022;}
	.st24{fill:#1A237E;}
	.st25{fill:#BD7000;}
	.st26{fill:#003D6C;}
	.st27{fill:#666665;}
	.st28{fill:#195190;}
</style>
<g id="Intelligent_Tactical_Bot">
	<g>
		<path class="st15" d="M45.603,56H56.46c1.012,0,1.734-0.982,1.432-1.947L44.048,9.754C43.722,8.711,42.755,8,41.662,8H31.54
			c-1.012,0-1.734,0.982-1.432,1.947l14.062,45C44.367,55.574,44.947,56,45.603,56z"/>
		<path class="st1" d="M56.46,56.5H45.603c-0.879,0-1.646-0.564-1.909-1.403l-14.062-45c-0.191-0.614-0.083-1.263,0.298-1.781
			S30.897,7.5,31.54,7.5h10.122c1.319,0,2.47,0.846,2.863,2.105l13.844,44.298c0.191,0.614,0.083,1.263-0.298,1.781
			S57.103,56.5,56.46,56.5z M31.54,8.5c-0.321,0-0.615,0.148-0.806,0.408c-0.19,0.259-0.244,0.583-0.148,0.891l14.062,45
			c0.131,0.419,0.515,0.702,0.954,0.702H56.46c0.321,0,0.615-0.148,0.806-0.408c0.19-0.259,0.244-0.583,0.148-0.891L43.57,9.903
			C43.309,9.064,42.541,8.5,41.662,8.5H31.54z"/>
	</g>
	<g>
		<path class="st16" d="M51.338,56H61.46c1.012,0,1.734-0.982,1.432-1.947L49.048,9.754C48.722,8.711,47.755,8,46.662,8H36.54
			c-1.012,0-1.734,0.982-1.432,1.947l13.843,44.298C49.278,55.289,50.245,56,51.338,56z"/>
		<path class="st1" d="M61.46,56.5H51.338c-1.318,0-2.47-0.846-2.863-2.105L34.631,10.096c-0.191-0.614-0.083-1.263,0.298-1.781
			S35.897,7.5,36.54,7.5h10.122c1.319,0,2.47,0.846,2.863,2.105l13.844,44.298c0.191,0.614,0.083,1.263-0.298,1.781
			S62.103,56.5,61.46,56.5z M36.54,8.5c-0.321,0-0.615,0.148-0.806,0.408c-0.19,0.259-0.244,0.583-0.148,0.891L49.43,54.097
			c0.262,0.839,1.029,1.403,1.908,1.403H61.46c0.321,0,0.615-0.148,0.806-0.408c0.19-0.259,0.244-0.583,0.148-0.891L48.57,9.903
			C48.309,9.064,47.541,8.5,46.662,8.5H36.54z"/>
	</g>
	<g>
		<path class="st15" d="M60.779,54.5c-0.213,0-0.41-0.137-0.478-0.351L46.662,10.5c-0.082-0.263,0.064-0.544,0.328-0.626
			c0.268-0.083,0.544,0.065,0.627,0.328l13.64,43.649c0.082,0.263-0.064,0.544-0.328,0.626C60.879,54.493,60.828,54.5,60.779,54.5z"
			/>
	</g>
	<g>
		<path class="st20" d="M50.86,54.149c-0.213,0-0.41-0.137-0.478-0.351l-13.64-43.649c-0.082-0.263,0.064-0.544,0.328-0.626
			c0.267-0.083,0.544,0.065,0.627,0.328L51.338,53.5c0.082,0.263-0.064,0.544-0.328,0.626C50.96,54.142,50.909,54.149,50.86,54.149z
			"/>
	</g>
	<g>
		<path class="st1" d="M50.062,13.5h-14c-0.276,0-0.5-0.224-0.5-0.5s0.224-0.5,0.5-0.5h14c0.276,0,0.5,0.224,0.5,0.5
			S50.339,13.5,50.062,13.5z"/>
	</g>
	<g>
		<path class="st1" d="M61.938,51.5h-14c-0.276,0-0.5-0.224-0.5-0.5s0.224-0.5,0.5-0.5h14c0.276,0,0.5,0.224,0.5,0.5
			S62.214,51.5,61.938,51.5z"/>
	</g>
	<g>
		<path class="st1" d="M58.812,41.5H52c-0.182,0-0.349-0.099-0.438-0.257L41.706,23.5h-2.519c-0.276,0-0.5-0.224-0.5-0.5
			s0.224-0.5,0.5-0.5H42c0.182,0,0.349,0.099,0.438,0.257L52.294,40.5h6.519c0.276,0,0.5,0.224,0.5,0.5S59.089,41.5,58.812,41.5z"/>
	</g>
	<g>
		<path class="st4" d="M43,62H21c-1.381,0-2.5-1.119-2.5-2.5V3c0-0.552,0.448-1,1-1h19.472c0.936,0,1.792,0.529,2.211,1.367
			l2.733,5.466c1.041,2.083,1.584,4.38,1.584,6.708V59.5C45.5,60.881,44.381,62,43,62z"/>
		<path class="st1" d="M43,62.5H21c-1.654,0-3-1.346-3-3V3c0-0.827,0.673-1.5,1.5-1.5h19.472c1.134,0,2.152,0.629,2.659,1.643
			l2.732,5.466C45.434,10.75,46,13.146,46,15.541V59.5C46,61.154,44.654,62.5,43,62.5z M19.5,2.5C19.225,2.5,19,2.724,19,3v56.5
			c0,1.103,0.897,2,2,2h22c1.103,0,2-0.897,2-2V15.541c0-2.24-0.529-4.482-1.531-6.485L40.736,3.59
			C40.4,2.918,39.724,2.5,38.972,2.5H19.5z"/>
	</g>
	<g>
		<path class="st5" d="M43.5,60c-0.276,0-0.5-0.224-0.5-0.5V15.541c0-1.93-0.456-3.863-1.319-5.59l-2.733-5.466
			c-0.123-0.247-0.023-0.547,0.224-0.671c0.248-0.122,0.547-0.024,0.671,0.224l2.733,5.466C43.507,11.369,44,13.457,44,15.541V59.5
			C44,59.776,43.776,60,43.5,60z"/>
	</g>
	<g>
		<path class="st5" d="M25,62h-4c-1.381,0-2.5-1.119-2.5-2.5V3c0-0.552,0.448-1,1-1h1.472c0.936,0,1.792,0.529,2.211,1.367
			l2.733,5.466c1.041,2.083,1.584,4.38,1.584,6.708V59.5C27.5,60.881,26.381,62,25,62z"/>
		<path class="st1" d="M25,62.5h-4c-1.654,0-3-1.346-3-3V3c0-0.827,0.673-1.5,1.5-1.5h1.472c1.134,0,2.152,0.629,2.659,1.643
			l2.732,5.466C27.434,10.75,28,13.146,28,15.541V59.5C28,61.154,26.654,62.5,25,62.5z M19.5,2.5C19.225,2.5,19,2.724,19,3v56.5
			c0,1.103,0.897,2,2,2h4c1.103,0,2-0.897,2-2V15.541c0-2.24-0.529-4.482-1.531-6.485L22.736,3.59C22.4,2.918,21.724,2.5,20.972,2.5
			H19.5z"/>
	</g>
	<g>
		<path class="st14" d="M29.5,60c-0.276,0-0.5-0.224-0.5-0.5V15.541c0-2.547-0.603-5.099-1.742-7.379l-1.969-3.938
			c-0.123-0.247-0.023-0.547,0.224-0.671c0.248-0.123,0.546-0.024,0.671,0.224l1.969,3.938C29.361,10.133,30,12.839,30,15.541V59.5
			C30,59.776,29.776,60,29.5,60z"/>
	</g>
	<g>
		<path class="st9" d="M27.5,14.5h18V21h-6.441c-0.347,0-0.67-0.18-0.852-0.476L36.5,17.75l-1.707,2.774
			C34.611,20.82,34.288,21,33.941,21H27.5V14.5z"/>
		<path class="st1" d="M45.5,21.5h-6.441c-0.518,0-1.007-0.274-1.277-0.714L36.5,18.704l-1.281,2.082
			c-0.271,0.44-0.76,0.714-1.277,0.714H27.5c-0.276,0-0.5-0.224-0.5-0.5v-6.5c0-0.276,0.224-0.5,0.5-0.5h18
			c0.276,0,0.5,0.224,0.5,0.5V21C46,21.276,45.776,21.5,45.5,21.5z M36.5,17.25c0.174,0,0.335,0.09,0.426,0.238l1.707,2.774
			c0.09,0.147,0.253,0.238,0.426,0.238H45V15H28v5.5h5.941c0.173,0,0.336-0.091,0.426-0.238l1.707-2.774
			C36.165,17.34,36.326,17.25,36.5,17.25z"/>
	</g>
	<g>
		<circle class="st16" cx="32" cy="25" r="1.5"/>
		<path class="st1" d="M32,27c-1.103,0-2-0.897-2-2s0.897-2,2-2s2,0.897,2,2S33.103,27,32,27z M32,24c-0.552,0-1,0.449-1,1
			s0.448,1,1,1s1-0.449,1-1S32.552,24,32,24z"/>
	</g>
	<g>
		<path class="st7" d="M45.5,36h-8c-0.552,0-1-0.448-1-1v-3c0-0.552,0.448-1,1-1h8V36z"/>
	</g>
	<g>
		<path class="st15" d="M16.603,56H27.46c1.012,0,1.734-0.982,1.432-1.947L15.048,9.754C14.722,8.711,13.755,8,12.662,8H2.54
			C1.528,8,0.807,8.981,1.109,9.947l14.062,45C15.367,55.574,15.947,56,16.603,56z"/>
		<path class="st1" d="M27.46,56.5H16.603c-0.879,0-1.646-0.564-1.909-1.403l-14.062-45C0.439,9.482,0.548,8.833,0.929,8.315
			S1.897,7.5,2.54,7.5h10.122c1.319,0,2.47,0.846,2.863,2.105l13.844,44.298c0.191,0.614,0.083,1.263-0.298,1.781
			S28.103,56.5,27.46,56.5z M2.54,8.5c-0.321,0-0.615,0.148-0.806,0.408C1.544,9.167,1.49,9.491,1.586,9.798l14.062,45
			c0.131,0.419,0.515,0.702,0.954,0.702H27.46c0.321,0,0.615-0.148,0.806-0.408c0.19-0.259,0.244-0.583,0.148-0.891L14.57,9.903
			C14.309,9.064,13.541,8.5,12.662,8.5H2.54z"/>
	</g>
	<g>
		<path class="st16" d="M22.338,56H32.46c1.012,0,1.734-0.982,1.432-1.947L20.048,9.754C19.722,8.711,18.755,8,17.662,8H7.54
			C6.528,8,5.807,8.981,6.109,9.947l13.843,44.298C20.278,55.289,21.245,56,22.338,56z"/>
		<path class="st1" d="M32.46,56.5H22.338c-1.318,0-2.47-0.846-2.863-2.105L5.631,10.096C5.439,9.482,5.548,8.833,5.929,8.315
			S6.897,7.5,7.54,7.5h10.122c1.319,0,2.47,0.846,2.863,2.105l13.844,44.298c0.191,0.614,0.083,1.263-0.298,1.781
			S33.103,56.5,32.46,56.5z M7.54,8.5c-0.321,0-0.615,0.148-0.806,0.408C6.544,9.167,6.49,9.491,6.586,9.798L20.43,54.097
			c0.262,0.839,1.029,1.403,1.908,1.403H32.46c0.321,0,0.615-0.148,0.806-0.408c0.19-0.259,0.244-0.583,0.148-0.891L19.57,9.903
			C19.309,9.064,18.541,8.5,17.662,8.5H7.54z"/>
	</g>
	<g>
		<path class="st15" d="M31.779,54.5c-0.213,0-0.41-0.137-0.478-0.351L17.662,10.5c-0.082-0.263,0.064-0.544,0.328-0.626
			c0.269-0.083,0.544,0.065,0.627,0.328l13.64,43.649c0.082,0.263-0.064,0.544-0.328,0.626C31.879,54.493,31.828,54.5,31.779,54.5z"
			/>
	</g>
	<g>
		<path class="st20" d="M21.86,54.149c-0.213,0-0.41-0.137-0.478-0.351L7.743,10.149C7.661,9.886,7.808,9.605,8.071,9.523
			C8.34,9.44,8.615,9.588,8.698,9.851L22.338,53.5c0.082,0.263-0.064,0.544-0.328,0.626C21.96,54.142,21.909,54.149,21.86,54.149z"
			/>
	</g>
	<g>
		<path class="st1" d="M21.062,13.5h-14c-0.276,0-0.5-0.224-0.5-0.5s0.224-0.5,0.5-0.5h14c0.276,0,0.5,0.224,0.5,0.5
			S21.339,13.5,21.062,13.5z"/>
	</g>
	<g>
		<path class="st1" d="M32.938,51.5h-14c-0.276,0-0.5-0.224-0.5-0.5s0.224-0.5,0.5-0.5h14c0.276,0,0.5,0.224,0.5,0.5
			S33.214,51.5,32.938,51.5z"/>
	</g>
	<g>
		<path class="st1" d="M29.812,41.5H23c-0.182,0-0.349-0.099-0.438-0.257L12.706,23.5h-2.519c-0.276,0-0.5-0.224-0.5-0.5
			s0.224-0.5,0.5-0.5H13c0.182,0,0.349,0.099,0.438,0.257L23.294,40.5h6.519c0.276,0,0.5,0.224,0.5,0.5S30.089,41.5,29.812,41.5z"/>
	</g>
	<g>
		<path class="st1" d="M45.5,56.5h-27c-0.276,0-0.5-0.224-0.5-0.5s0.224-0.5,0.5-0.5h27c0.276,0,0.5,0.224,0.5,0.5
			S45.776,56.5,45.5,56.5z"/>
	</g>
	<g>
		<path class="st6" d="M43.5,36.5c-0.276,0-0.5-0.224-0.5-0.5v-5c0-0.276,0.224-0.5,0.5-0.5S44,30.724,44,31v5
			C44,36.276,43.776,36.5,43.5,36.5z"/>
	</g>
	<g>
		<path class="st1" d="M45.5,36.5h-8c-0.827,0-1.5-0.673-1.5-1.5v-3c0-0.827,0.673-1.5,1.5-1.5h8c0.276,0,0.5,0.224,0.5,0.5v5
			C46,36.276,45.776,36.5,45.5,36.5z M37.5,31.5c-0.275,0-0.5,0.224-0.5,0.5v3c0,0.276,0.225,0.5,0.5,0.5H45v-4H37.5z"/>
	</g>
</g>
</svg>
