<?xml version="1.0" encoding="utf-8"?>
<!-- Generator: Adobe Illustrator 21.1.0, SVG Export Plug-In . SVG Version: 6.00 Build 0)  -->
<svg version="1.1" id="Layer_1" xmlns="http://www.w3.org/2000/svg" xmlns:xlink="http://www.w3.org/1999/xlink" x="0px" y="0px"
	 viewBox="0 0 64 64" style="enable-background:new 0 0 64 64;" xml:space="preserve">
<style type="text/css">
	.st0{fill:#DB8E11;}
	.st1{fill:#212A41;}
	.st2{fill:#F9AC2F;}
	.st3{fill:#FFCA4D;}
	.st4{fill:#B7C0D7;}
	.st5{fill:#99A2B9;}
	.st6{fill:#B51040;}
	.st7{fill:#D32E5E;}
	.st8{fill:#F14C7C;}
	.st9{fill:#0079A8;}
	.st10{fill:#1E97C6;}
	.st11{fill:#BED38E;}
	.st12{fill:#A0B570;}
	.st13{fill:#DCF1AC;}
	.st14{fill:#D5DEF5;}
	.st15{fill:#4E4B51;}
	.st16{fill:#6C696F;}
	.st17{fill:#848483;}
	.st18{fill:#A2A2A1;}
	.st19{fill:#7B849B;}
	.st20{fill:#8A878D;}
	.st21{fill:#C0C0BF;}
	.st22{fill:#005B8A;}
	.st23{fill:#970022;}
	.st24{fill:#1A237E;}
	.st25{fill:#BD7000;}
	.st26{fill:#003D6C;}
	.st27{fill:#666665;}
	.st28{fill:#195190;}
</style>
<g id="Lifeforms_Examination">
	<g>
		<path class="st5" d="M60.542,15.5h-8c-0.552,0-1-0.448-1-1v-8c0-0.552,0.448-1,1-1h8c0.552,0,1,0.448,1,1v8
			C61.542,15.052,61.094,15.5,60.542,15.5z"/>
		<path class="st1" d="M60.542,16h-8c-0.827,0-1.5-0.673-1.5-1.5v-8c0-0.827,0.673-1.5,1.5-1.5h8c0.827,0,1.5,0.673,1.5,1.5v8
			C62.042,15.327,61.369,16,60.542,16z M52.542,6c-0.275,0-0.5,0.224-0.5,0.5v8c0,0.276,0.225,0.5,0.5,0.5h8
			c0.275,0,0.5-0.224,0.5-0.5v-8c0-0.276-0.225-0.5-0.5-0.5H52.542z"/>
	</g>
	<g>
		<path class="st4" d="M62.542,15.5h-8c-0.552,0-1-0.448-1-1v-8c0-0.552,0.448-1,1-1h8c0.552,0,1,0.448,1,1v8
			C63.542,15.052,63.094,15.5,62.542,15.5z"/>
		<path class="st1" d="M62.542,16h-8c-0.827,0-1.5-0.673-1.5-1.5v-8c0-0.827,0.673-1.5,1.5-1.5h8c0.827,0,1.5,0.673,1.5,1.5v8
			C64.042,15.327,63.369,16,62.542,16z M54.542,6c-0.275,0-0.5,0.224-0.5,0.5v8c0,0.276,0.225,0.5,0.5,0.5h8
			c0.275,0,0.5-0.224,0.5-0.5v-8c0-0.276-0.225-0.5-0.5-0.5H54.542z"/>
	</g>
	<g>
		<path class="st5" d="M60.542,33.5h-8c-0.552,0-1-0.448-1-1v-8c0-0.552,0.448-1,1-1h8c0.552,0,1,0.448,1,1v8
			C61.542,33.052,61.094,33.5,60.542,33.5z"/>
		<path class="st1" d="M60.542,34h-8c-0.827,0-1.5-0.673-1.5-1.5v-8c0-0.827,0.673-1.5,1.5-1.5h8c0.827,0,1.5,0.673,1.5,1.5v8
			C62.042,33.327,61.369,34,60.542,34z M52.542,24c-0.275,0-0.5,0.224-0.5,0.5v8c0,0.276,0.225,0.5,0.5,0.5h8
			c0.275,0,0.5-0.224,0.5-0.5v-8c0-0.276-0.225-0.5-0.5-0.5H52.542z"/>
	</g>
	<g>
		<path class="st4" d="M62.542,33.5h-8c-0.552,0-1-0.448-1-1v-8c0-0.552,0.448-1,1-1h8c0.552,0,1,0.448,1,1v8
			C63.542,33.052,63.094,33.5,62.542,33.5z"/>
		<path class="st1" d="M62.542,34h-8c-0.827,0-1.5-0.673-1.5-1.5v-8c0-0.827,0.673-1.5,1.5-1.5h8c0.827,0,1.5,0.673,1.5,1.5v8
			C64.042,33.327,63.369,34,62.542,34z M54.542,24c-0.275,0-0.5,0.224-0.5,0.5v8c0,0.276,0.225,0.5,0.5,0.5h8
			c0.275,0,0.5-0.224,0.5-0.5v-8c0-0.276-0.225-0.5-0.5-0.5H54.542z"/>
	</g>
	<g>
		<path class="st5" d="M60.542,51.5h-8c-0.552,0-1-0.448-1-1v-8c0-0.552,0.448-1,1-1h8c0.552,0,1,0.448,1,1v8
			C61.542,51.052,61.094,51.5,60.542,51.5z"/>
		<path class="st1" d="M60.542,52h-8c-0.827,0-1.5-0.673-1.5-1.5v-8c0-0.827,0.673-1.5,1.5-1.5h8c0.827,0,1.5,0.673,1.5,1.5v8
			C62.042,51.327,61.369,52,60.542,52z M52.542,42c-0.275,0-0.5,0.224-0.5,0.5v8c0,0.276,0.225,0.5,0.5,0.5h8
			c0.275,0,0.5-0.224,0.5-0.5v-8c0-0.276-0.225-0.5-0.5-0.5H52.542z"/>
	</g>
	<g>
		<path class="st7" d="M62.542,51.5h-8c-0.552,0-1-0.448-1-1v-8c0-0.552,0.448-1,1-1h8c0.552,0,1,0.448,1,1v8
			C63.542,51.052,63.094,51.5,62.542,51.5z"/>
		<path class="st1" d="M62.542,52h-8c-0.827,0-1.5-0.673-1.5-1.5v-8c0-0.827,0.673-1.5,1.5-1.5h8c0.827,0,1.5,0.673,1.5,1.5v8
			C64.042,51.327,63.369,52,62.542,52z M54.542,42c-0.275,0-0.5,0.224-0.5,0.5v8c0,0.276,0.225,0.5,0.5,0.5h8
			c0.275,0,0.5-0.224,0.5-0.5v-8c0-0.276-0.225-0.5-0.5-0.5H54.542z"/>
	</g>
	<g>
		<polygon class="st22" points="23.542,46.5 18.542,46.5 0.542,36.5 0.542,15.5 18.542,5.5 23.542,5.5 		"/>
		<path class="st1" d="M23.542,47h-5c-0.085,0-0.168-0.021-0.243-0.063l-18-10C0.14,36.849,0.042,36.682,0.042,36.5v-21
			c0-0.182,0.099-0.349,0.257-0.437l18-10C18.373,5.021,18.457,5,18.542,5h5c0.276,0,0.5,0.224,0.5,0.5v41
			C24.042,46.776,23.818,47,23.542,47z M18.671,46h4.371V6h-4.371L1.042,15.794v20.411L18.671,46z"/>
	</g>
	<g>
		<polygon class="st9" points="41.542,36.5 23.542,46.5 5.542,36.5 5.542,15.5 23.542,5.5 41.542,15.5 		"/>
		<path class="st1" d="M23.542,47c-0.083,0-0.167-0.021-0.243-0.063l-18-10C5.14,36.849,5.042,36.682,5.042,36.5v-21
			c0-0.182,0.099-0.349,0.257-0.437l18-10c0.15-0.084,0.335-0.084,0.485,0l18.001,10c0.158,0.088,0.257,0.255,0.257,0.437v21
			c0,0.182-0.099,0.349-0.257,0.437l-18.001,10C23.709,46.979,23.625,47,23.542,47z M6.042,36.206l17.5,9.723l17.5-9.723V15.794
			l-17.5-9.723l-17.5,9.723V36.206z M41.542,36.5h0.01H41.542z"/>
	</g>
	<g>
		<path class="st10" d="M7.542,35.823c-0.276,0-0.5-0.224-0.5-0.5V16.677c0-0.182,0.099-0.349,0.257-0.437l16-8.889
			c0.24-0.134,0.545-0.047,0.68,0.194s0.047,0.545-0.194,0.68L8.042,16.971v18.352C8.042,35.6,7.818,35.823,7.542,35.823z"/>
	</g>
	<g>
		<path class="st22" d="M23.542,44.712c-0.176,0-0.346-0.093-0.438-0.257c-0.134-0.241-0.047-0.546,0.194-0.68l15.743-8.746V16.677
			c0-0.276,0.224-0.5,0.5-0.5s0.5,0.224,0.5,0.5v18.646c0,0.182-0.099,0.349-0.257,0.437l-16.001,8.889
			C23.708,44.692,23.624,44.712,23.542,44.712z"/>
	</g>
	<g>
		<path class="st4" d="M25.309,17.868c-1.137,1.137-1.526,2.727-1.193,4.187c-1.206-0.175-2.476,0.188-3.404,1.116
			s-1.291,2.197-1.116,3.404c-1.459-0.334-3.05,0.056-4.187,1.193c-1.757,1.757-1.757,4.607,0,6.364s4.607,1.757,6.364,0
			c1.137-1.137,1.526-2.728,1.193-4.187c1.206,0.175,2.476-0.188,3.404-1.116s1.291-2.198,1.116-3.404
			c1.459,0.334,3.05-0.056,4.187-1.193c1.757-1.757,1.757-4.607,0-6.364C29.916,16.111,27.067,16.111,25.309,17.868z"/>
		<path class="st1" d="M18.592,35.947c-1.281,0-2.561-0.487-3.536-1.462c-0.945-0.944-1.465-2.2-1.465-3.536s0.52-2.591,1.465-3.536
			c1.062-1.062,2.517-1.577,3.997-1.432c-0.001-1.189,0.458-2.315,1.307-3.164c0.847-0.847,1.971-1.306,3.157-1.306
			c0.002,0,0.004,0,0.006,0c-0.142-1.479,0.371-2.936,1.433-3.997c1.95-1.95,5.122-1.949,7.071,0c1.95,1.95,1.95,5.122,0,7.071
			c-1.062,1.061-2.521,1.572-3.997,1.432c0.002,1.189-0.457,2.315-1.306,3.164c-0.848,0.847-1.972,1.306-3.158,1.306
			c-0.002,0-0.004,0-0.006,0c0.142,1.479-0.371,2.936-1.433,3.997C21.153,35.46,19.873,35.947,18.592,35.947z M18.572,26.959
			c-1.047,0-2.053,0.407-2.808,1.162c-0.756,0.755-1.172,1.76-1.172,2.829s0.416,2.073,1.172,2.829c1.56,1.559,4.097,1.56,5.657,0
			c0.973-0.974,1.369-2.365,1.059-3.722c-0.037-0.161,0.008-0.329,0.12-0.45s0.279-0.18,0.439-0.156
			c1.11,0.161,2.197-0.194,2.979-0.975c0.781-0.781,1.136-1.866,0.975-2.979c-0.024-0.163,0.035-0.328,0.156-0.439
			c0.121-0.111,0.29-0.158,0.45-0.12c1.358,0.311,2.749-0.086,3.722-1.059c1.56-1.56,1.56-4.098,0-5.657s-4.097-1.559-5.657,0
			c-0.973,0.973-1.369,2.365-1.059,3.722c0.037,0.161-0.008,0.329-0.12,0.45c-0.112,0.122-0.276,0.183-0.439,0.156
			c-1.113-0.161-2.197,0.194-2.978,0.975c-0.781,0.781-1.137,1.867-0.976,2.979c0.024,0.163-0.035,0.328-0.156,0.439
			c-0.121,0.112-0.29,0.158-0.45,0.12C19.181,26.993,18.875,26.959,18.572,26.959z"/>
	</g>
	<g>
		<path class="st1" d="M58.542,32c-1.93,0-3.5-1.57-3.5-3.5s1.57-3.5,3.5-3.5s3.5,1.57,3.5,3.5S60.472,32,58.542,32z M58.542,26
			c-1.379,0-2.5,1.122-2.5,2.5s1.121,2.5,2.5,2.5s2.5-1.122,2.5-2.5S59.921,26,58.542,26z"/>
	</g>
	<g>
		<path class="st1" d="M61.042,45.5h-5c-0.276,0-0.5-0.224-0.5-0.5s0.224-0.5,0.5-0.5h5c0.276,0,0.5,0.224,0.5,0.5
			S61.318,45.5,61.042,45.5z"/>
	</g>
	<g>
		<path class="st1" d="M61.042,48.5h-5c-0.276,0-0.5-0.224-0.5-0.5s0.224-0.5,0.5-0.5h5c0.276,0,0.5,0.224,0.5,0.5
			S61.318,48.5,61.042,48.5z"/>
	</g>
	<g>
		<path class="st1" d="M49.542,29h-14c-0.276,0-0.5-0.224-0.5-0.5s0.224-0.5,0.5-0.5h14c0.276,0,0.5,0.224,0.5,0.5
			S49.818,29,49.542,29z"/>
	</g>
	<g>
		<path class="st1" d="M49.542,47h-12c-0.121,0-0.238-0.044-0.329-0.124l-8-7c-0.208-0.182-0.229-0.498-0.047-0.706
			c0.182-0.209,0.498-0.229,0.706-0.047L37.729,46h11.812c0.276,0,0.5,0.224,0.5,0.5S49.818,47,49.542,47z"/>
	</g>
	<g>
		<path class="st0" d="M35.458,53.5h-34c-0.552,0-1,0.448-1,1v3c0,0.552,0.448,1,1,1h34c0.552,0,1-0.448,1-1v-3
			C36.458,53.948,36.011,53.5,35.458,53.5z"/>
		<path class="st1" d="M35.458,59h-34c-0.827,0-1.5-0.673-1.5-1.5v-3c0-0.827,0.673-1.5,1.5-1.5h34c0.827,0,1.5,0.673,1.5,1.5v3
			C36.958,58.327,36.285,59,35.458,59z M1.458,54c-0.276,0-0.5,0.224-0.5,0.5v3c0,0.276,0.224,0.5,0.5,0.5h34
			c0.275,0,0.5-0.224,0.5-0.5v-3c0-0.276-0.225-0.5-0.5-0.5H1.458z"/>
	</g>
	<g>
		<path class="st4" d="M40.458,53.5h-34c-0.552,0-1,0.448-1,1v3c0,0.552,0.448,1,1,1h34c0.552,0,1-0.448,1-1v-3
			C41.458,53.948,41.011,53.5,40.458,53.5z"/>
		<path class="st1" d="M40.458,59h-34c-0.827,0-1.5-0.673-1.5-1.5v-3c0-0.827,0.673-1.5,1.5-1.5h34c0.827,0,1.5,0.673,1.5,1.5v3
			C41.958,58.327,41.285,59,40.458,59z M6.458,54c-0.276,0-0.5,0.224-0.5,0.5v3c0,0.276,0.224,0.5,0.5,0.5h34
			c0.275,0,0.5-0.224,0.5-0.5v-3c0-0.276-0.225-0.5-0.5-0.5H6.458z"/>
	</g>
	<g>
		<rect x="5.458" y="53.5" class="st2" width="23" height="5"/>
		<path class="st1" d="M28.458,59h-23c-0.276,0-0.5-0.224-0.5-0.5v-5c0-0.276,0.224-0.5,0.5-0.5h23c0.276,0,0.5,0.224,0.5,0.5v5
			C28.958,58.776,28.735,59,28.458,59z M5.958,58h22v-4h-22V58z"/>
	</g>
	<g>
		<path class="st5" d="M61.542,14.5c-0.276,0-0.5-0.224-0.5-0.5V7c0-0.276,0.224-0.5,0.5-0.5s0.5,0.224,0.5,0.5v7
			C62.042,14.276,61.818,14.5,61.542,14.5z"/>
	</g>
	<g>
		<path class="st14" d="M55.542,14.5c-0.276,0-0.5-0.224-0.5-0.5V7c0-0.276,0.224-0.5,0.5-0.5s0.5,0.224,0.5,0.5v7
			C56.042,14.276,55.818,14.5,55.542,14.5z"/>
	</g>
</g>
</svg>
