<?xml version="1.0" encoding="utf-8"?>
<!-- Generator: Adobe Illustrator 21.1.0, SVG Export Plug-In . SVG Version: 6.00 Build 0)  -->
<svg version="1.1" id="Layer_1" xmlns="http://www.w3.org/2000/svg" xmlns:xlink="http://www.w3.org/1999/xlink" x="0px" y="0px"
	 viewBox="0 0 64 64" style="enable-background:new 0 0 64 64;" xml:space="preserve">
<style type="text/css">
	.st0{fill:#DB8E11;}
	.st1{fill:#212A41;}
	.st2{fill:#F9AC2F;}
	.st3{fill:#FFCA4D;}
	.st4{fill:#B7C0D7;}
	.st5{fill:#99A2B9;}
	.st6{fill:#B51040;}
	.st7{fill:#D32E5E;}
	.st8{fill:#F14C7C;}
	.st9{fill:#0079A8;}
	.st10{fill:#1E97C6;}
	.st11{fill:#BED38E;}
	.st12{fill:#A0B570;}
	.st13{fill:#DCF1AC;}
	.st14{fill:#D5DEF5;}
	.st15{fill:#4E4B51;}
	.st16{fill:#6C696F;}
	.st17{fill:#848483;}
	.st18{fill:#A2A2A1;}
	.st19{fill:#7B849B;}
	.st20{fill:#8A878D;}
	.st21{fill:#C0C0BF;}
	.st22{fill:#005B8A;}
	.st23{fill:#970022;}
	.st24{fill:#1A237E;}
	.st25{fill:#BD7000;}
	.st26{fill:#003D6C;}
	.st27{fill:#666665;}
	.st28{fill:#195190;}
</style>
<g id="Meteorite">
	<g>
		<path class="st2" d="M40.401,10.228l4.416,17.662L27.89,8.02l1.104,13.615L3.237,3.237l18.398,25.758L8.02,27.891l19.87,16.926
			l-17.662-4.416l26.924,19.675c6.529,4.771,15.561,4.073,21.279-1.645l0,0c5.718-5.718,6.416-14.75,1.645-21.279L40.401,10.228z"/>
		<path class="st1" d="M46.844,63.764c-3.477,0-6.974-1.081-9.986-3.283L9.933,40.805c-0.193-0.141-0.26-0.399-0.158-0.616
			c0.102-0.217,0.343-0.332,0.574-0.273l15.595,3.898L7.697,28.271c-0.165-0.141-0.221-0.372-0.138-0.572
			c0.083-0.201,0.286-0.325,0.502-0.307l12.542,1.017L2.829,3.527C2.688,3.329,2.71,3.056,2.883,2.883
			C3.055,2.709,3.327,2.688,3.528,2.83l24.882,17.772L27.393,8.061c-0.018-0.216,0.106-0.419,0.307-0.502
			c0.199-0.083,0.431-0.027,0.572,0.138l15.543,18.247l-3.898-15.594c-0.058-0.232,0.057-0.473,0.273-0.574
			c0.218-0.101,0.475-0.035,0.615,0.158L60.48,36.857c4.95,6.773,4.238,15.996-1.694,21.928
			C55.491,62.079,51.184,63.763,46.844,63.764z M12.588,41.507l24.859,18.167c6.371,4.657,15.05,3.985,20.631-1.595
			c5.581-5.581,6.252-14.258,1.595-20.631L41.507,12.588l3.795,15.182c0.056,0.225-0.05,0.459-0.257,0.566
			c-0.204,0.104-0.458,0.056-0.609-0.121L28.514,9.523l0.979,12.071c0.016,0.194-0.082,0.379-0.252,0.476
			c-0.168,0.096-0.378,0.085-0.537-0.028L5.387,5.387l16.655,23.317c0.112,0.158,0.124,0.368,0.027,0.537
			c-0.096,0.169-0.277,0.271-0.475,0.252L9.524,28.514l18.691,15.922c0.177,0.151,0.227,0.403,0.12,0.61
			c-0.105,0.206-0.341,0.313-0.565,0.256L12.588,41.507z"/>
	</g>
	<g>
		<path class="st6" d="M50.204,53.894l-4.444,2.469c-1.678,0.932-3.718,0.932-5.396,0l-4.444-2.469
			c-1.764-0.98-2.858-2.839-2.858-4.856v-5.129c0-2.018,1.094-3.877,2.858-4.856l4.444-2.469c1.678-0.932,3.718-0.932,5.396,0
			l4.444,2.469c1.764,0.98,2.858,2.839,2.858,4.856v5.129C53.062,51.055,51.968,52.914,50.204,53.894z"/>
		<path class="st1" d="M43.062,57.567c-1.01,0-2.021-0.256-2.941-0.768l-4.444-2.469c-1.921-1.067-3.114-3.096-3.114-5.293v-5.129
			c0-2.198,1.193-4.226,3.114-5.293l4.444-2.469c1.842-1.023,4.041-1.023,5.883,0l4.444,2.469c1.921,1.067,3.114,3.096,3.114,5.293
			v5.129c0,2.198-1.193,4.226-3.114,5.293l0,0L46.003,56.8C45.082,57.312,44.072,57.567,43.062,57.567z M43.062,36.379
			c-0.844,0-1.687,0.213-2.455,0.641l-4.444,2.469c-1.604,0.891-2.601,2.584-2.601,4.419v5.129c0,1.835,0.996,3.528,2.601,4.419
			l4.444,2.469c1.537,0.854,3.373,0.854,4.91,0l4.444-2.469c1.604-0.891,2.601-2.584,2.601-4.419v-5.129
			c0-1.835-0.996-3.528-2.601-4.419l-4.444-2.469C44.748,36.592,43.906,36.379,43.062,36.379z M50.204,53.894h0.01H50.204z"/>
	</g>
	<g>
		<path class="st7" d="M55.204,53.894l-4.444,2.469c-1.678,0.932-3.718,0.932-5.396,0l-4.444-2.469
			c-1.764-0.98-2.858-2.839-2.858-4.856v-5.129c0-2.018,1.094-3.877,2.858-4.856l4.444-2.469c1.678-0.932,3.718-0.932,5.396,0
			l4.444,2.469c1.764,0.98,2.858,2.839,2.858,4.856v5.129C58.062,51.055,56.968,52.914,55.204,53.894z"/>
		<path class="st1" d="M48.062,57.567c-1.01,0-2.021-0.256-2.941-0.768l-4.444-2.469c-1.921-1.067-3.114-3.096-3.114-5.293v-5.129
			c0-2.198,1.193-4.226,3.114-5.293l4.444-2.469c1.842-1.023,4.041-1.023,5.883,0l4.444,2.469c1.921,1.067,3.114,3.096,3.114,5.293
			v5.129c0,2.198-1.193,4.226-3.114,5.293l0,0L51.003,56.8C50.082,57.312,49.072,57.567,48.062,57.567z M48.062,36.379
			c-0.844,0-1.687,0.213-2.455,0.641l-4.444,2.469c-1.604,0.891-2.601,2.584-2.601,4.419v5.129c0,1.835,0.996,3.528,2.601,4.419
			l4.444,2.469c1.537,0.854,3.373,0.854,4.91,0l4.444-2.469c1.604-0.891,2.601-2.584,2.601-4.419v-5.129
			c0-1.835-0.996-3.528-2.601-4.419l-4.444-2.469C49.748,36.592,48.906,36.379,48.062,36.379z M55.204,53.894h0.01H55.204z"/>
	</g>
	<g>
		<path class="st8" d="M40.062,44.408c-0.276,0-0.5-0.224-0.5-0.5c0-1.472,0.8-2.83,2.086-3.545l4.444-2.469
			c0.6-0.334,1.281-0.51,1.97-0.51c0.276,0,0.5,0.224,0.5,0.5s-0.224,0.5-0.5,0.5c-0.519,0-1.032,0.133-1.483,0.384l-4.444,2.469
			c-0.97,0.539-1.572,1.562-1.572,2.671C40.562,44.185,40.338,44.408,40.062,44.408z"/>
	</g>
	<g>
		<path class="st6" d="M48.062,55.562c-0.276,0-0.5-0.224-0.5-0.5s0.224-0.5,0.5-0.5c0.519,0,1.031-0.133,1.483-0.385l4.444-2.469
			c0.97-0.539,1.572-1.562,1.572-2.671c0-0.276,0.224-0.5,0.5-0.5s0.5,0.224,0.5,0.5c0,1.472-0.8,2.83-2.086,3.545l-4.444,2.469
			C49.431,55.385,48.75,55.562,48.062,55.562z"/>
	</g>
	<g>
		<circle class="st7" cx="51.062" cy="42.884" r="2"/>
		<path class="st1" d="M51.062,45.384c-1.379,0-2.5-1.122-2.5-2.5s1.121-2.5,2.5-2.5s2.5,1.122,2.5,2.5S52.441,45.384,51.062,45.384
			z M51.062,41.384c-0.827,0-1.5,0.673-1.5,1.5s0.673,1.5,1.5,1.5s1.5-0.673,1.5-1.5S51.889,41.384,51.062,41.384z"/>
	</g>
	<g>
		<circle class="st7" cx="49.562" cy="50.884" r="1.5"/>
		<path class="st1" d="M49.562,52.884c-1.103,0-2-0.897-2-2s0.897-2,2-2s2,0.897,2,2S50.664,52.884,49.562,52.884z M49.562,49.884
			c-0.552,0-1,0.449-1,1s0.448,1,1,1s1-0.449,1-1S50.114,49.884,49.562,49.884z"/>
	</g>
	<g>
		<circle class="st7" cx="43.062" cy="46.384" r="1.5"/>
		<path class="st1" d="M43.062,48.384c-1.103,0-2-0.897-2-2s0.897-2,2-2s2,0.897,2,2S44.164,48.384,43.062,48.384z M43.062,45.384
			c-0.552,0-1,0.449-1,1s0.448,1,1,1s1-0.449,1-1S43.614,45.384,43.062,45.384z"/>
	</g>
	<g>
		<circle class="st7" cx="37.737" cy="32.237" r="2"/>
		<path class="st1" d="M37.737,34.737c-1.379,0-2.5-1.122-2.5-2.5s1.121-2.5,2.5-2.5s2.5,1.122,2.5,2.5S39.115,34.737,37.737,34.737
			z M37.737,30.737c-0.827,0-1.5,0.673-1.5,1.5s0.673,1.5,1.5,1.5s1.5-0.673,1.5-1.5S38.564,30.737,37.737,30.737z"/>
	</g>
	<g>
		<circle class="st7" cx="28.737" cy="30.737" r="1.5"/>
		<path class="st1" d="M28.737,32.737c-1.103,0-2-0.897-2-2s0.897-2,2-2s2,0.897,2,2S29.839,32.737,28.737,32.737z M28.737,29.737
			c-0.552,0-1,0.449-1,1s0.448,1,1,1s1-0.449,1-1S29.288,29.737,28.737,29.737z"/>
	</g>
	<g>
		<path class="st1" d="M9.929,35.419c-0.128,0-0.256-0.049-0.354-0.146l-7.071-7.071c-0.195-0.195-0.195-0.512,0-0.707
			s0.512-0.195,0.707,0l7.071,7.071c0.195,0.195,0.195,0.512,0,0.707C10.185,35.371,10.057,35.419,9.929,35.419z"/>
	</g>
	<g>
		<path class="st1" d="M1.444,26.934c-0.128,0-0.256-0.049-0.354-0.146l-0.707-0.707c-0.195-0.195-0.195-0.512,0-0.707
			s0.512-0.195,0.707,0l0.707,0.707c0.195,0.195,0.195,0.512,0,0.707C1.699,26.885,1.572,26.934,1.444,26.934z"/>
	</g>
	<g>
		<path class="st1" d="M34.919,10.429c-0.128,0-0.256-0.049-0.354-0.146l-7.071-7.071c-0.195-0.195-0.195-0.512,0-0.707
			c0.195-0.195,0.512-0.195,0.707,0l7.071,7.071c0.195,0.195,0.195,0.512,0,0.707C35.175,10.38,35.047,10.429,34.919,10.429z"/>
	</g>
	<g>
		<path class="st1" d="M26.434,1.944c-0.128,0-0.256-0.049-0.354-0.146L25.373,1.09c-0.195-0.195-0.195-0.512,0-0.707
			c0.195-0.195,0.512-0.195,0.707,0l0.707,0.708c0.195,0.195,0.195,0.512,0,0.707C26.69,1.895,26.562,1.944,26.434,1.944z"/>
	</g>
</g>
</svg>
