<?xml version="1.0" encoding="utf-8"?>
<!-- Generator: Adobe Illustrator 21.1.0, SVG Export Plug-In . SVG Version: 6.00 Build 0)  -->
<svg version="1.1" id="Layer_1" xmlns="http://www.w3.org/2000/svg" xmlns:xlink="http://www.w3.org/1999/xlink" x="0px" y="0px"
	 viewBox="0 0 64 64" style="enable-background:new 0 0 64 64;" xml:space="preserve">
<style type="text/css">
	.st0{fill:#DB8E11;}
	.st1{fill:#212A41;}
	.st2{fill:#F9AC2F;}
	.st3{fill:#FFCA4D;}
	.st4{fill:#B7C0D7;}
	.st5{fill:#99A2B9;}
	.st6{fill:#B51040;}
	.st7{fill:#D32E5E;}
	.st8{fill:#F14C7C;}
	.st9{fill:#0079A8;}
	.st10{fill:#1E97C6;}
	.st11{fill:#BED38E;}
	.st12{fill:#A0B570;}
	.st13{fill:#DCF1AC;}
	.st14{fill:#D5DEF5;}
	.st15{fill:#4E4B51;}
	.st16{fill:#6C696F;}
	.st17{fill:#848483;}
	.st18{fill:#A2A2A1;}
	.st19{fill:#7B849B;}
	.st20{fill:#8A878D;}
	.st21{fill:#C0C0BF;}
	.st22{fill:#005B8A;}
	.st23{fill:#970022;}
	.st24{fill:#1A237E;}
	.st25{fill:#BD7000;}
	.st26{fill:#003D6C;}
	.st27{fill:#666665;}
	.st28{fill:#195190;}
</style>
<g id="Monkey_In_Space">
	<g>
		<circle class="st16" cx="46" cy="18" r="4"/>
		<path class="st1" d="M46,22.5c-2.481,0-4.5-2.019-4.5-4.5s2.019-4.5,4.5-4.5s4.5,2.019,4.5,4.5S48.481,22.5,46,22.5z M46,14.5
			c-1.93,0-3.5,1.57-3.5,3.5s1.57,3.5,3.5,3.5s3.5-1.57,3.5-3.5S47.93,14.5,46,14.5z"/>
	</g>
	<g>
		<path class="st16" d="M46,30.5H18V16c0-7.732,6.268-14,14-14h0c7.732,0,14,6.268,14,14V30.5z"/>
		<path class="st1" d="M46,31H18c-0.276,0-0.5-0.224-0.5-0.5V16c0-7.995,6.505-14.5,14.5-14.5S46.5,8.005,46.5,16v14.5
			C46.5,30.776,46.276,31,46,31z M18.5,30h27V16c0-7.444-6.056-13.5-13.5-13.5S18.5,8.556,18.5,16V30z"/>
	</g>
	<g>
		<path class="st20" d="M20.51,13.055c-0.047,0-0.096-0.007-0.144-0.021c-0.264-0.08-0.414-0.358-0.335-0.623
			C21.607,7.165,26.529,3.5,32,3.5c0.276,0,0.5,0.224,0.5,0.5S32.276,4.5,32,4.5c-5.034,0-9.562,3.372-11.011,8.199
			C20.924,12.916,20.725,13.055,20.51,13.055z"/>
	</g>
	<g>
		<path class="st5" d="M34.5,36.5h-15C12.596,36.5,7,42.096,7,49v13h40V49C47,42.096,41.404,36.5,34.5,36.5z"/>
		<path class="st1" d="M47,62.5H7c-0.276,0-0.5-0.224-0.5-0.5V49c0-7.168,5.832-13,13-13h15c7.168,0,13,5.832,13,13v13
			C47.5,62.276,47.276,62.5,47,62.5z M7.5,61.5h39V49c0-6.617-5.383-12-12-12h-15c-6.617,0-12,5.383-12,12V61.5z"/>
	</g>
	<g>
		<path class="st4" d="M44.5,36.5h-15C22.596,36.5,17,42.096,17,49v13h40V49C57,42.096,51.404,36.5,44.5,36.5z"/>
		<path class="st1" d="M57,62.5H17c-0.276,0-0.5-0.224-0.5-0.5V49c0-7.168,5.832-13,13-13h15c7.168,0,13,5.832,13,13v13
			C57.5,62.276,57.276,62.5,57,62.5z M17.5,61.5h39V49c0-6.617-5.383-12-12-12h-15c-6.617,0-12,5.383-12,12V61.5z"/>
	</g>
	<g>
		<path class="st4" d="M9,60.5c-0.276,0-0.5-0.224-0.5-0.5V49c0-6.065,4.935-11,11-11c0.276,0,0.5,0.224,0.5,0.5S19.776,39,19.5,39
			c-5.514,0-10,4.486-10,10v11C9.5,60.276,9.276,60.5,9,60.5z"/>
	</g>
	<g>
		<path class="st4" d="M45.5,36.5h-27c-1.381,0-2.5-1.119-2.5-2.5v-1c0-1.381,1.119-2.5,2.5-2.5h27c1.381,0,2.5,1.119,2.5,2.5v1
			C48,35.381,46.881,36.5,45.5,36.5z"/>
		<path class="st1" d="M45.5,37h-27c-1.654,0-3-1.346-3-3v-1c0-1.654,1.346-3,3-3h27c1.654,0,3,1.346,3,3v1
			C48.5,35.654,47.154,37,45.5,37z M18.5,31c-1.103,0-2,0.897-2,2v1c0,1.103,0.897,2,2,2h27c1.103,0,2-0.897,2-2v-1
			c0-1.103-0.897-2-2-2H18.5z"/>
	</g>
	<g>
		<path class="st2" d="M22,39.017V62h6V36.598C25.763,36.866,23.713,37.728,22,39.017z"/>
		<path class="st1" d="M28,62.5h-6c-0.276,0-0.5-0.224-0.5-0.5V39.017c0-0.157,0.074-0.305,0.199-0.399
			c1.828-1.376,3.986-2.246,6.241-2.516c0.146-0.018,0.284,0.028,0.392,0.123c0.107,0.095,0.168,0.231,0.168,0.374V62
			C28.5,62.276,28.276,62.5,28,62.5z M22.5,61.5h5V37.175c-1.796,0.303-3.51,1.021-5,2.094V61.5z"/>
	</g>
	<g>
		<path class="st3" d="M24,60.5c-0.276,0-0.5-0.224-0.5-0.5V40.07c0-0.276,0.224-0.5,0.5-0.5s0.5,0.224,0.5,0.5V60
			C24.5,60.276,24.276,60.5,24,60.5z"/>
	</g>
	<g>
		<path class="st2" d="M46,36.598V62h6V39.017C50.287,37.728,48.237,36.866,46,36.598z"/>
		<path class="st1" d="M52,62.5h-6c-0.276,0-0.5-0.224-0.5-0.5V36.598c0-0.143,0.061-0.279,0.168-0.374
			c0.107-0.094,0.249-0.14,0.392-0.123c2.255,0.271,4.413,1.14,6.241,2.516c0.125,0.094,0.199,0.242,0.199,0.399V62
			C52.5,62.276,52.276,62.5,52,62.5z M46.5,61.5h5V39.27c-1.49-1.074-3.204-1.791-5-2.094V61.5z"/>
	</g>
	<g>
		<path class="st1" d="M41.5,53h-9c-0.276,0-0.5-0.224-0.5-0.5v-4c0-0.276,0.224-0.5,0.5-0.5h9c0.276,0,0.5,0.224,0.5,0.5v4
			C42,52.776,41.776,53,41.5,53z M33,52h8v-3h-8V52z"/>
	</g>
	<g>
		<path class="st16" d="M20.829,20.828C20.105,21.552,19.105,22,18,22c-2.209,0-4-1.791-4-4s1.791-4,4-4
			c1.104,0,2.104,0.448,2.828,1.171"/>
		<path class="st1" d="M18,22.5c-2.481,0-4.5-2.019-4.5-4.5s2.019-4.5,4.5-4.5c1.203,0,2.333,0.468,3.182,1.318
			c0.195,0.195,0.195,0.512,0,0.707c-0.195,0.195-0.512,0.195-0.707,0C19.814,14.864,18.935,14.5,18,14.5c-1.93,0-3.5,1.57-3.5,3.5
			s1.57,3.5,3.5,3.5c0.935,0,1.814-0.364,2.476-1.026c0.195-0.195,0.512-0.195,0.707,0s0.195,0.512,0,0.707
			C20.332,22.032,19.202,22.5,18,22.5z"/>
	</g>
	<g>
		<path class="st18" d="M46.5,14.5c0-3.314-2.686-6-6-6c-2.088,0-3.925,1.068-5,2.686c-1.075-1.618-2.912-2.686-5-2.686
			c-3.314,0-6,2.686-6,6c0,2.294,1.298,4.271,3.19,5.28c-0.122,0.555-0.19,1.129-0.19,1.72c0,4.418,3.582,8,8,8s8-3.582,8-8
			c0-0.591-0.069-1.165-0.19-1.72C45.202,18.771,46.5,16.794,46.5,14.5z"/>
		<path class="st1" d="M35.5,30c-4.687,0-8.5-3.813-8.5-8.5c0-0.482,0.044-0.973,0.13-1.464C25.19,18.857,24,16.769,24,14.5
			c0-3.584,2.916-6.5,6.5-6.5c1.948,0,3.771,0.867,5,2.349C36.729,8.867,38.552,8,40.5,8c3.584,0,6.5,2.916,6.5,6.5
			c0,2.269-1.19,4.357-3.13,5.536C43.956,20.526,44,21.017,44,21.5C44,26.187,40.187,30,35.5,30z M30.5,9
			c-3.033,0-5.5,2.467-5.5,5.5c0,2.022,1.121,3.876,2.926,4.838c0.198,0.105,0.301,0.33,0.253,0.548C28.06,20.428,28,20.971,28,21.5
			c0,4.136,3.364,7.5,7.5,7.5s7.5-3.364,7.5-7.5c0-0.53-0.06-1.073-0.178-1.613c-0.048-0.219,0.055-0.443,0.253-0.548
			C44.878,18.376,46,16.522,46,14.5c0-3.033-2.467-5.5-5.5-5.5c-1.846,0-3.56,0.92-4.583,2.462c-0.093,0.14-0.249,0.224-0.417,0.224
			l0,0c-0.167,0-0.324-0.084-0.417-0.224C34.06,9.92,32.346,9,30.5,9z"/>
	</g>
	<g>
		<circle class="st16" cx="30" cy="14" r="1.5"/>
		<path class="st1" d="M30,16c-1.103,0-2-0.897-2-2s0.897-2,2-2s2,0.897,2,2S31.103,16,30,16z M30,13c-0.551,0-1,0.449-1,1
			s0.449,1,1,1s1-0.449,1-1S30.551,13,30,13z"/>
	</g>
	<g>
		<circle class="st16" cx="41" cy="14" r="1.5"/>
		<path class="st1" d="M41,16c-1.103,0-2-0.897-2-2s0.897-2,2-2s2,0.897,2,2S42.103,16,41,16z M41,13c-0.551,0-1,0.449-1,1
			s0.449,1,1,1s1-0.449,1-1S41.551,13,41,13z"/>
	</g>
	<g>
		<path class="st1" d="M35.5,23.191c-0.276,0-0.5-0.224-0.5-0.5v-3.5c0-0.276,0.224-0.5,0.5-0.5s0.5,0.224,0.5,0.5v3.5
			C36,22.968,35.776,23.191,35.5,23.191z"/>
	</g>
	<g>
		<path class="st1" d="M35.5,23.345c-1.577,0-3.153-0.6-4.354-1.8c-0.195-0.195-0.195-0.512,0-0.707s0.512-0.195,0.707,0
			c2.011,2.011,5.282,2.01,7.293,0c0.195-0.195,0.512-0.195,0.707,0s0.195,0.512,0,0.707C38.653,22.745,37.076,23.345,35.5,23.345z"
			/>
	</g>
	<g>
		<path class="st0" d="M50,60.5c-0.276,0-0.5-0.224-0.5-0.5V40.07c0-0.276,0.224-0.5,0.5-0.5s0.5,0.224,0.5,0.5V60
			C50.5,60.276,50.276,60.5,50,60.5z"/>
	</g>
	<g>
		<path class="st4" d="M46,36.598c-0.493-0.059-0.991-0.098-1.5-0.098h-15c-0.509,0-1.007,0.039-1.5,0.098c0,2.485,4.029,4.5,9,4.5
			S46,39.084,46,36.598z"/>
		<path class="st1" d="M37,41.598c-5.327,0-9.5-2.196-9.5-5c0-0.253,0.189-0.466,0.44-0.497C28.511,36.033,29.021,36,29.5,36h15
			c0.479,0,0.989,0.033,1.56,0.102c0.251,0.03,0.44,0.244,0.44,0.497C46.5,39.402,42.327,41.598,37,41.598z M28.555,37.043
			c0.488,1.968,4.157,3.555,8.445,3.555s7.958-1.587,8.445-3.555C45.109,37.014,44.797,37,44.5,37h-15
			C29.203,37,28.891,37.014,28.555,37.043z"/>
	</g>
	<g>
		<path class="st20" d="M20,29c-0.276,0-0.5-0.224-0.5-0.5V24c0-0.276,0.224-0.5,0.5-0.5s0.5,0.224,0.5,0.5v4.5
			C20.5,28.776,20.276,29,20,29z"/>
	</g>
</g>
</svg>
