<?xml version="1.0" encoding="utf-8"?>
<!-- Generator: Adobe Illustrator 21.1.0, SVG Export Plug-In . SVG Version: 6.00 Build 0)  -->
<svg version="1.1" id="Layer_1" xmlns="http://www.w3.org/2000/svg" xmlns:xlink="http://www.w3.org/1999/xlink" x="0px" y="0px"
	 viewBox="0 0 64 64" style="enable-background:new 0 0 64 64;" xml:space="preserve">
<style type="text/css">
	.st0{fill:#DB8E11;}
	.st1{fill:#212A41;}
	.st2{fill:#F9AC2F;}
	.st3{fill:#FFCA4D;}
	.st4{fill:#B7C0D7;}
	.st5{fill:#99A2B9;}
	.st6{fill:#B51040;}
	.st7{fill:#D32E5E;}
	.st8{fill:#F14C7C;}
	.st9{fill:#0079A8;}
	.st10{fill:#1E97C6;}
	.st11{fill:#BED38E;}
	.st12{fill:#A0B570;}
	.st13{fill:#DCF1AC;}
	.st14{fill:#D5DEF5;}
	.st15{fill:#4E4B51;}
	.st16{fill:#6C696F;}
	.st17{fill:#848483;}
	.st18{fill:#A2A2A1;}
	.st19{fill:#7B849B;}
	.st20{fill:#8A878D;}
	.st21{fill:#C0C0BF;}
	.st22{fill:#005B8A;}
	.st23{fill:#970022;}
	.st24{fill:#1A237E;}
	.st25{fill:#BD7000;}
	.st26{fill:#003D6C;}
	.st27{fill:#666665;}
	.st28{fill:#195190;}
</style>
<g id="Moon_Rover">
	<g>
		<path class="st15" d="M33,0.5h-6c-0.552,0-1,0.448-1,1v10c0,0.552,0.448,1,1,1h6c0.552,0,1-0.448,1-1v-10
			C34,0.948,33.552,0.5,33,0.5z"/>
		<path class="st1" d="M33,13h-6c-0.827,0-1.5-0.673-1.5-1.5v-10C25.5,0.673,26.173,0,27,0h6c0.827,0,1.5,0.673,1.5,1.5v10
			C34.5,12.327,33.827,13,33,13z M27,1c-0.275,0-0.5,0.224-0.5,0.5v10c0,0.276,0.225,0.5,0.5,0.5h6c0.275,0,0.5-0.224,0.5-0.5v-10
			C33.5,1.224,33.275,1,33,1H27z"/>
	</g>
	<g>
		<rect x="29.5" y="12.5" class="st4" width="3" height="29"/>
		<path class="st1" d="M32.5,42h-3c-0.276,0-0.5-0.224-0.5-0.5v-29c0-0.276,0.224-0.5,0.5-0.5h3c0.276,0,0.5,0.224,0.5,0.5v29
			C33,41.776,32.776,42,32.5,42z M30,41h2V13h-2V41z"/>
	</g>
	<g>
		<path class="st4" d="M50.058,23.5H28.5c-1.381,0-2.5,1.119-2.5,2.5v13c0,1.381,1.119,2.5,2.5,2.5h30.251
			c1.906,0,3.111-2.048,2.185-3.714l-6.508-11.714C53.547,24.485,51.874,23.5,50.058,23.5z"/>
		<path class="st1" d="M58.751,42H28.5c-1.654,0-3-1.346-3-3V26c0-1.654,1.346-3,3-3h21.558c1.996,0,3.839,1.084,4.809,2.829
			l6.508,11.714c0.521,0.938,0.508,2.052-0.037,2.978C60.792,41.447,59.825,42,58.751,42z M28.5,24c-1.103,0-2,0.897-2,2v13
			c0,1.103,0.897,2,2,2h30.251c0.716,0,1.36-0.369,1.724-0.986s0.373-1.359,0.024-1.985l-6.508-11.714
			C53.198,24.887,51.691,24,50.058,24H28.5z"/>
	</g>
	<g>
		<polygon class="st9" points="55.778,28.5 39.5,28.5 39.5,36.5 60.222,36.5 		"/>
		<path class="st1" d="M60.223,37H39.5c-0.276,0-0.5-0.224-0.5-0.5v-8c0-0.276,0.224-0.5,0.5-0.5h16.277
			c0.182,0,0.349,0.099,0.438,0.257l4.445,8c0.086,0.155,0.083,0.344-0.007,0.496C60.563,36.906,60.399,37,60.223,37z M40,36h19.373
			l-3.89-7H40V36z"/>
	</g>
	<g>
		<path class="st22" d="M56.823,35c-0.175,0-0.346-0.093-0.438-0.257l-2.223-4c-0.134-0.241-0.047-0.545,0.194-0.68
			c0.239-0.133,0.546-0.048,0.681,0.194l2.223,4c0.134,0.241,0.047,0.545-0.194,0.68C56.989,34.98,56.906,35,56.823,35z"/>
	</g>
	<g>
		<path class="st5" d="M36.558,23.5H28.5c-1.381,0-2.5,1.119-2.5,2.5v13c0,1.381,1.119,2.5,2.5,2.5h16.751
			c1.906,0,3.111-2.048,2.185-3.714l-6.508-11.714C40.047,24.485,38.374,23.5,36.558,23.5z"/>
		<path class="st1" d="M45.251,42H28.5c-1.654,0-3-1.346-3-3V26c0-1.654,1.346-3,3-3h8.058c1.996,0,3.839,1.084,4.809,2.829
			l6.508,11.714c0.521,0.938,0.508,2.052-0.037,2.978C47.292,41.447,46.325,42,45.251,42z M28.5,24c-1.103,0-2,0.897-2,2v13
			c0,1.103,0.897,2,2,2h16.751c0.716,0,1.36-0.369,1.724-0.986s0.373-1.359,0.024-1.985l-6.508-11.714
			C39.698,24.887,38.191,24,36.558,24H28.5z"/>
	</g>
	<g>
		<path class="st10" d="M47.899,35c-0.175,0-0.346-0.093-0.438-0.257l-2.223-4c-0.134-0.241-0.047-0.545,0.194-0.68
			c0.239-0.133,0.545-0.048,0.681,0.194l2.223,4c0.134,0.241,0.047,0.545-0.194,0.68C48.065,34.98,47.982,35,47.899,35z"/>
	</g>
	<g>
		<path class="st4" d="M28,39.5c-0.276,0-0.5-0.224-0.5-0.5V26c0-0.276,0.224-0.5,0.5-0.5s0.5,0.224,0.5,0.5v13
			C28.5,39.276,28.276,39.5,28,39.5z"/>
	</g>
	<g>
		<path class="st16" d="M54.5,51.5h-3v12h3c2.209,0,4-2.686,4-6S56.709,51.5,54.5,51.5z"/>
		<path class="st1" d="M54.5,64h-3c-0.276,0-0.5-0.224-0.5-0.5v-12c0-0.276,0.224-0.5,0.5-0.5h3c2.481,0,4.5,2.916,4.5,6.5
			S56.981,64,54.5,64z M52,63h2.5c1.93,0,3.5-2.467,3.5-5.5S56.43,52,54.5,52H52V63z"/>
	</g>
	<g>
		<ellipse class="st15" cx="51.5" cy="57.5" rx="4" ry="6"/>
		<path class="st1" d="M51.5,64c-2.481,0-4.5-2.916-4.5-6.5s2.019-6.5,4.5-6.5s4.5,2.916,4.5,6.5S53.981,64,51.5,64z M51.5,52
			c-1.93,0-3.5,2.467-3.5,5.5s1.57,5.5,3.5,5.5s3.5-2.467,3.5-5.5S53.43,52,51.5,52z"/>
	</g>
	<g>
		<path class="st16" d="M38.5,51.5h-3v12h3c2.209,0,4-2.686,4-6S40.709,51.5,38.5,51.5z"/>
		<path class="st1" d="M38.5,64h-3c-0.276,0-0.5-0.224-0.5-0.5v-12c0-0.276,0.224-0.5,0.5-0.5h3c2.481,0,4.5,2.916,4.5,6.5
			S40.981,64,38.5,64z M36,63h2.5c1.93,0,3.5-2.467,3.5-5.5S40.43,52,38.5,52H36V63z"/>
	</g>
	<g>
		<ellipse class="st15" cx="35.5" cy="57.5" rx="4" ry="6"/>
		<path class="st1" d="M35.5,64c-2.481,0-4.5-2.916-4.5-6.5s2.019-6.5,4.5-6.5s4.5,2.916,4.5,6.5S37.981,64,35.5,64z M35.5,52
			c-1.93,0-3.5,2.467-3.5,5.5s1.57,5.5,3.5,5.5s3.5-2.467,3.5-5.5S37.43,52,35.5,52z"/>
	</g>
	<g>
		<path class="st4" d="M58.5,56.5h-25c-2.761,0-5-2.239-5-5V44c0-1.381,1.119-2.5,2.5-2.5h30c1.381,0,2.5,1.119,2.5,2.5v7.5
			C63.5,54.262,61.261,56.5,58.5,56.5z"/>
		<path class="st1" d="M58.5,57h-25c-3.032,0-5.5-2.467-5.5-5.5V44c0-1.654,1.346-3,3-3h30c1.654,0,3,1.346,3,3v7.5
			C64,54.533,61.532,57,58.5,57z M31,42c-1.103,0-2,0.897-2,2v7.5c0,2.481,2.019,4.5,4.5,4.5h25c2.481,0,4.5-2.019,4.5-4.5V44
			c0-1.103-0.897-2-2-2H31z"/>
	</g>
	<g>
		<path class="st5" d="M30.5,56.5h-25c-2.761,0-5-2.239-5-5V44c0-1.381,1.119-2.5,2.5-2.5h30c1.381,0,2.5,1.119,2.5,2.5v7.5
			C35.5,54.262,33.261,56.5,30.5,56.5z"/>
		<path class="st1" d="M30.5,57h-25C2.468,57,0,54.533,0,51.5V44c0-1.654,1.346-3,3-3h30c1.654,0,3,1.346,3,3v7.5
			C36,54.533,33.532,57,30.5,57z M3,42c-1.103,0-2,0.897-2,2v7.5C1,53.981,3.019,56,5.5,56h25c2.481,0,4.5-2.019,4.5-4.5V44
			c0-1.103-0.897-2-2-2H3z"/>
	</g>
	<g>
		<path class="st14" d="M37.5,50c-0.276,0-0.5-0.224-0.5-0.5V44c0-0.276,0.224-0.5,0.5-0.5S38,43.724,38,44v5.5
			C38,49.776,37.776,50,37.5,50z"/>
	</g>
	<g>
		<path class="st4" d="M2.5,50C2.224,50,2,49.776,2,49.5V44c0-0.276,0.224-0.5,0.5-0.5S3,43.724,3,44v5.5C3,49.776,2.776,50,2.5,50z
			"/>
	</g>
	<g>
		<path class="st19" d="M33.5,50c-0.276,0-0.5-0.224-0.5-0.5V44c0-0.276,0.224-0.5,0.5-0.5S34,43.724,34,44v5.5
			C34,49.776,33.776,50,33.5,50z"/>
	</g>
	<g>
		<ellipse transform="matrix(0.7071 -0.7071 0.7071 0.7071 -16.9057 18.1863)" class="st4" cx="13.5" cy="29.5" rx="6" ry="12"/>
		<path class="st1" d="M19.203,39.491c-0.863,0-1.825-0.171-2.861-0.517c-2.477-0.826-5.117-2.558-7.438-4.878
			c-4.957-4.956-6.82-10.857-4.243-13.435c1.273-1.274,3.404-1.499,5.997-0.635c2.477,0.825,5.117,2.558,7.438,4.878l0,0l0,0
			c4.956,4.956,6.82,10.857,4.243,13.435C21.574,39.104,20.5,39.491,19.203,39.491z M7.796,20.507c-1.025,0-1.855,0.289-2.428,0.861
			c-2.108,2.108-0.165,7.613,4.243,12.021c2.212,2.213,4.715,3.859,7.047,4.637c2.217,0.739,3.983,0.598,4.974-0.394
			c2.107-2.108,0.165-7.613-4.243-12.021l0,0c-2.212-2.212-4.715-3.859-7.047-4.636C9.405,20.662,8.548,20.507,7.796,20.507z"/>
	</g>
	<g>
		<path class="st14" d="M10.672,32.829c-0.128,0-0.256-0.049-0.354-0.146c-4.376-4.375-5.748-9.102-4.243-10.606
			c0.195-0.195,0.512-0.195,0.707,0s0.195,0.512,0,0.707c-0.872,0.873,0.076,5.025,4.243,9.192c0.195,0.195,0.195,0.512,0,0.707
			C10.928,32.78,10.8,32.829,10.672,32.829z"/>
	</g>
	<g>
		<path class="st5" d="M20.571,37.071c-0.128,0-0.256-0.049-0.354-0.146c-0.195-0.195-0.195-0.512,0-0.707
			c0.872-0.873-0.076-5.025-4.243-9.192c-0.195-0.195-0.195-0.512,0-0.707s0.512-0.195,0.707,0
			c4.376,4.375,5.748,9.102,4.243,10.606C20.827,37.022,20.699,37.071,20.571,37.071z"/>
	</g>
	<g>
		<path class="st5" d="M9.257,33.743c-4.686-4.686-6.586-10.385-4.243-12.728c-4.686,4.686-4.686,12.284,0,16.971
			c4.686,4.686,12.284,4.686,16.971,0C19.642,40.329,13.944,38.429,9.257,33.743z"/>
		<path class="st1" d="M13.5,42c-3.339,0-6.478-1.3-8.839-3.661C2.3,35.978,1,32.839,1,29.5c0-3.339,1.3-6.478,3.661-8.839l0,0l0,0
			c0.195-0.195,0.512-0.195,0.707,0s0.195,0.512,0,0.707c-2.108,2.108-0.165,7.613,4.243,12.021l0,0
			c2.212,2.213,4.715,3.859,7.047,4.637c2.217,0.739,3.983,0.598,4.974-0.394l0,0c0.195-0.195,0.512-0.195,0.707,0
			s0.195,0.512,0,0.707c-0.002,0.002-0.004,0.004-0.006,0.006C19.973,40.702,16.836,42,13.5,42z M3.504,23.804
			C2.522,25.52,2,27.47,2,29.5c0,3.072,1.196,5.96,3.368,8.132c3.741,3.741,9.439,4.36,13.829,1.859
			c-0.861-0.001-1.821-0.172-2.855-0.517c-2.477-0.826-5.117-2.558-7.438-4.878l0,0l0,0C5.45,30.643,3.499,26.73,3.504,23.804z"/>
	</g>
	<g>
		<path class="st2" d="M22.339,19.247l1.414,1.414l-7.644,8.268c-0.556,0.601-1.5,0.62-2.079,0.041l0,0
			c-0.579-0.579-0.56-1.523,0.041-2.079L22.339,19.247z"/>
		<path class="st1" d="M15.049,29.892c-0.519,0-1.004-0.201-1.372-0.569c-0.377-0.377-0.579-0.878-0.568-1.411
			c0.01-0.533,0.231-1.026,0.624-1.388l8.267-7.644c0.198-0.182,0.503-0.177,0.693,0.014l1.414,1.414
			c0.189,0.19,0.196,0.496,0.014,0.693l-7.644,8.268c-0.362,0.392-0.854,0.613-1.388,0.624
			C15.075,29.892,15.062,29.892,15.049,29.892z M22.325,19.94l-7.914,7.318c-0.19,0.176-0.298,0.415-0.303,0.673
			c-0.006,0.259,0.093,0.501,0.275,0.685c0.185,0.183,0.428,0.285,0.686,0.276c0.258-0.005,0.497-0.112,0.673-0.302l7.317-7.915
			L22.325,19.94z"/>
	</g>
	<g>
		<ellipse transform="matrix(0.7071 -0.7071 0.7071 0.7071 -8.0669 21.8475)" class="st2" cx="22.339" cy="20.661" rx="2" ry="2"/>
		<path class="st1" d="M22.339,23.16c-0.64,0-1.28-0.243-1.768-0.73c-0.975-0.975-0.975-2.561,0-3.536s2.561-0.975,3.535,0
			s0.975,2.561,0,3.536l0,0C23.619,22.917,22.979,23.16,22.339,23.16z M22.339,19.162c-0.384,0-0.769,0.146-1.061,0.438
			c-0.585,0.585-0.585,1.537,0,2.122c0.584,0.584,1.537,0.584,2.121,0c0.585-0.585,0.585-1.537,0-2.122
			C23.107,19.308,22.723,19.162,22.339,19.162z M23.753,22.076h0.01H23.753z"/>
	</g>
	<g>
		<polygon class="st22" points="42.278,28.5 36,28.5 36,36.5 46.722,36.5 		"/>
		<path class="st1" d="M46.723,37H36c-0.276,0-0.5-0.224-0.5-0.5v-8c0-0.276,0.224-0.5,0.5-0.5h6.277
			c0.182,0,0.349,0.099,0.438,0.257l4.445,8c0.086,0.155,0.083,0.344-0.007,0.496C47.063,36.906,46.899,37,46.723,37z M36.5,36
			h9.373l-3.89-7H36.5V36z"/>
	</g>
	<g>
		<path class="st9" d="M38,35c-0.276,0-0.5-0.224-0.5-0.5v-4c0-0.276,0.224-0.5,0.5-0.5s0.5,0.224,0.5,0.5v4
			C38.5,34.776,38.276,35,38,35z"/>
	</g>
	<g>
		<path class="st16" d="M35,0.5h-6c-0.552,0-1,0.448-1,1v10c0,0.552,0.448,1,1,1h6c0.552,0,1-0.448,1-1v-10
			C36,0.948,35.552,0.5,35,0.5z"/>
		<path class="st1" d="M35,13h-6c-0.827,0-1.5-0.673-1.5-1.5v-10C27.5,0.673,28.173,0,29,0h6c0.827,0,1.5,0.673,1.5,1.5v10
			C36.5,12.327,35.827,13,35,13z M29,1c-0.275,0-0.5,0.224-0.5,0.5v10c0,0.276,0.225,0.5,0.5,0.5h6c0.275,0,0.5-0.224,0.5-0.5v-10
			C35.5,1.224,35.275,1,35,1H29z"/>
	</g>
	<g>
		<rect x="53.5" y="46.5" class="st7" width="10" height="5"/>
	</g>
	<g>
		<path class="st1" d="M63.5,52h-63C0.224,52,0,51.776,0,51.5S0.224,51,0.5,51h63c0.276,0,0.5,0.224,0.5,0.5S63.776,52,63.5,52z"/>
	</g>
	<g>
		<path class="st16" d="M11.5,51.5h-3v12h3c2.209,0,4-2.686,4-6S13.709,51.5,11.5,51.5z"/>
		<path class="st1" d="M11.5,64h-3C8.224,64,8,63.776,8,63.5v-12C8,51.224,8.224,51,8.5,51h3c2.481,0,4.5,2.916,4.5,6.5
			S13.981,64,11.5,64z M9,63h2.5c1.93,0,3.5-2.467,3.5-5.5S13.43,52,11.5,52H9V63z"/>
	</g>
	<g>
		<path class="st16" d="M27.5,51.5h-3v12h3c2.209,0,4-2.686,4-6S29.709,51.5,27.5,51.5z"/>
		<path class="st1" d="M27.5,64h-3c-0.276,0-0.5-0.224-0.5-0.5v-12c0-0.276,0.224-0.5,0.5-0.5h3c2.481,0,4.5,2.916,4.5,6.5
			S29.981,64,27.5,64z M25,63h2.5c1.93,0,3.5-2.467,3.5-5.5S29.43,52,27.5,52H25V63z"/>
	</g>
	<g>
		<ellipse class="st15" cx="8.5" cy="57.5" rx="4" ry="6"/>
		<path class="st1" d="M8.5,64C6.019,64,4,61.084,4,57.5S6.019,51,8.5,51s4.5,2.916,4.5,6.5S10.981,64,8.5,64z M8.5,52
			C6.57,52,5,54.467,5,57.5S6.57,63,8.5,63s3.5-2.467,3.5-5.5S10.43,52,8.5,52z"/>
	</g>
	<g>
		<ellipse class="st17" cx="8.5" cy="57.5" rx="1.5" ry="3"/>
		<path class="st1" d="M8.5,61c-1.141,0-2-1.505-2-3.5s0.859-3.5,2-3.5s2,1.505,2,3.5S9.641,61,8.5,61z M8.5,55
			c-0.408,0-1,0.974-1,2.5s0.592,2.5,1,2.5s1-0.974,1-2.5S8.908,55,8.5,55z"/>
	</g>
	<g>
		<ellipse class="st15" cx="24.5" cy="57.5" rx="4" ry="6"/>
		<path class="st1" d="M24.5,64c-2.481,0-4.5-2.916-4.5-6.5s2.019-6.5,4.5-6.5s4.5,2.916,4.5,6.5S26.981,64,24.5,64z M24.5,52
			c-1.93,0-3.5,2.467-3.5,5.5s1.57,5.5,3.5,5.5s3.5-2.467,3.5-5.5S26.43,52,24.5,52z"/>
	</g>
	<g>
		<ellipse class="st17" cx="24.5" cy="57.5" rx="1.5" ry="3"/>
		<path class="st1" d="M24.5,61c-1.141,0-2-1.505-2-3.5s0.859-3.5,2-3.5s2,1.505,2,3.5S25.641,61,24.5,61z M24.5,55
			c-0.408,0-1,0.974-1,2.5s0.592,2.5,1,2.5s1-0.974,1-2.5S24.908,55,24.5,55z"/>
	</g>
	<g>
		<path class="st1" d="M32,13c-0.276,0-0.5-0.224-0.5-0.5v-12C31.5,0.224,31.724,0,32,0s0.5,0.224,0.5,0.5v12
			C32.5,12.776,32.276,13,32,13z"/>
	</g>
	<g>
		<path class="st1" d="M36,7h-8c-0.276,0-0.5-0.224-0.5-0.5S27.724,6,28,6h8c0.276,0,0.5,0.224,0.5,0.5S36.276,7,36,7z"/>
	</g>
	<g>
		<path class="st5" d="M58.5,55c-0.276,0-0.5-0.224-0.5-0.5s0.224-0.5,0.5-0.5c1.379,0,2.5-1.122,2.5-2.5V44
			c0-0.276,0.224-0.5,0.5-0.5S62,43.724,62,44v7.5C62,53.43,60.43,55,58.5,55z"/>
	</g>
	<g>
		<path class="st6" d="M61.5,52c-0.276,0-0.5-0.224-0.5-0.5v-5c0-0.276,0.224-0.5,0.5-0.5s0.5,0.224,0.5,0.5v5
			C62,51.776,61.776,52,61.5,52z"/>
	</g>
	<g>
		<path class="st1" d="M63.5,52h-10c-0.276,0-0.5-0.224-0.5-0.5v-5c0-0.276,0.224-0.5,0.5-0.5h10c0.276,0,0.5,0.224,0.5,0.5v5
			C64,51.776,63.776,52,63.5,52z M54,51h9v-4h-9V51z"/>
	</g>
</g>
</svg>
