<?xml version="1.0" encoding="utf-8"?>
<!-- Generator: Adobe Illustrator 21.1.0, SVG Export Plug-In . SVG Version: 6.00 Build 0)  -->
<svg version="1.1" id="Layer_1" xmlns="http://www.w3.org/2000/svg" xmlns:xlink="http://www.w3.org/1999/xlink" x="0px" y="0px"
	 viewBox="0 0 64 64" style="enable-background:new 0 0 64 64;" xml:space="preserve">
<style type="text/css">
	.st0{fill:#DB8E11;}
	.st1{fill:#212A41;}
	.st2{fill:#F9AC2F;}
	.st3{fill:#FFCA4D;}
	.st4{fill:#B7C0D7;}
	.st5{fill:#99A2B9;}
	.st6{fill:#B51040;}
	.st7{fill:#D32E5E;}
	.st8{fill:#F14C7C;}
	.st9{fill:#0079A8;}
	.st10{fill:#1E97C6;}
	.st11{fill:#BED38E;}
	.st12{fill:#A0B570;}
	.st13{fill:#DCF1AC;}
	.st14{fill:#D5DEF5;}
	.st15{fill:#4E4B51;}
	.st16{fill:#6C696F;}
	.st17{fill:#848483;}
	.st18{fill:#A2A2A1;}
	.st19{fill:#7B849B;}
	.st20{fill:#8A878D;}
	.st21{fill:#C0C0BF;}
	.st22{fill:#005B8A;}
	.st23{fill:#970022;}
	.st24{fill:#1A237E;}
	.st25{fill:#BD7000;}
	.st26{fill:#003D6C;}
	.st27{fill:#666665;}
	.st28{fill:#195190;}
</style>
<g id="Moon">
	<g>
		<circle class="st2" cx="31.5" cy="34.5" r="28"/>
		<path class="st1" d="M31.5,63C15.785,63,3,50.215,3,34.5S15.785,6,31.5,6S60,18.786,60,34.5S47.215,63,31.5,63z M31.5,7
			C16.336,7,4,19.337,4,34.5S16.336,62,31.5,62C46.663,62,59,49.664,59,34.5S46.663,7,31.5,7z"/>
	</g>
	<g>
		<path class="st0" d="M31.5,61c-0.276,0-0.5-0.224-0.5-0.5s0.224-0.5,0.5-0.5C45.561,60,57,48.561,57,34.5
			c0-0.276,0.224-0.5,0.5-0.5s0.5,0.224,0.5,0.5C58,49.113,46.112,61,31.5,61z"/>
	</g>
	<g>
		<path class="st0" d="M13.5,34.5c0-13.756,9.923-25.187,23-27.546c-1.623-0.293-3.292-0.454-5-0.454c-15.464,0-28,12.536-28,28
			c0,15.464,12.536,28,28,28c1.708,0,3.377-0.161,5-0.454C23.423,59.688,13.5,48.257,13.5,34.5z"/>
		<path class="st1" d="M31.5,63C15.785,63,3,50.215,3,34.5S15.785,6,31.5,6c1.678,0,3.391,0.155,5.089,0.462
			C36.827,6.505,37,6.713,37,6.955s-0.173,0.449-0.411,0.492C23.5,9.807,14,21.185,14,34.5c0,13.315,9.5,24.693,22.589,27.054
			C36.827,61.597,37,61.805,37,62.046c0,0.242-0.173,0.449-0.411,0.492C34.888,62.845,33.176,63,31.5,63z M31.5,7
			C16.336,7,4,19.337,4,34.5S16.336,62,31.5,62c0.725,0,1.457-0.03,2.191-0.09C21.55,58.475,13,47.359,13,34.5
			c0-12.86,8.549-23.976,20.691-27.41C32.957,7.031,32.225,7,31.5,7z"/>
	</g>
	<g>
		<path class="st2" d="M5.5,35C5.224,35,5,34.777,5,34.5c0-12.225,8.288-22.806,20.155-25.732c0.27-0.068,0.539,0.098,0.605,0.366
			c0.066,0.268-0.098,0.539-0.366,0.605C13.976,12.555,6,22.737,6,34.5C6,34.777,5.776,35,5.5,35z"/>
	</g>
	<g>
		<circle class="st18" cx="41.5" cy="22.5" r="6"/>
		<path class="st1" d="M41.5,29c-3.584,0-6.5-2.916-6.5-6.5s2.916-6.5,6.5-6.5s6.5,2.916,6.5,6.5S45.084,29,41.5,29z M41.5,17
			c-3.032,0-5.5,2.467-5.5,5.5s2.468,5.5,5.5,5.5s5.5-2.467,5.5-5.5S44.532,17,41.5,17z"/>
	</g>
	<g>
		<circle class="st18" cx="13.5" cy="34.5" r="3"/>
		<path class="st1" d="M13.5,38c-1.93,0-3.5-1.57-3.5-3.5s1.57-3.5,3.5-3.5s3.5,1.57,3.5,3.5S15.43,38,13.5,38z M13.5,32
			c-1.378,0-2.5,1.122-2.5,2.5s1.122,2.5,2.5,2.5s2.5-1.122,2.5-2.5S14.878,32,13.5,32z"/>
	</g>
	<g>
		<circle class="st18" cx="27.5" cy="46" r="4"/>
		<path class="st1" d="M27.5,50.5c-2.481,0-4.5-2.019-4.5-4.5s2.019-4.5,4.5-4.5S32,43.519,32,46S29.981,50.5,27.5,50.5z M27.5,42.5
			c-1.93,0-3.5,1.57-3.5,3.5s1.57,3.5,3.5,3.5S31,47.93,31,46S29.43,42.5,27.5,42.5z"/>
	</g>
	<g>
		<circle class="st18" cx="19.5" cy="17.5" r="2"/>
		<path class="st1" d="M19.5,20c-1.378,0-2.5-1.122-2.5-2.5s1.122-2.5,2.5-2.5s2.5,1.122,2.5,2.5S20.878,20,19.5,20z M19.5,16
			c-0.827,0-1.5,0.673-1.5,1.5s0.673,1.5,1.5,1.5s1.5-0.673,1.5-1.5S20.327,16,19.5,16z"/>
	</g>
	<g>
		<circle class="st18" cx="50" cy="36.5" r="2"/>
		<path class="st1" d="M50,39c-1.379,0-2.5-1.122-2.5-2.5S48.621,34,50,34s2.5,1.122,2.5,2.5S51.379,39,50,39z M50,35
			c-0.827,0-1.5,0.673-1.5,1.5S49.173,38,50,38s1.5-0.673,1.5-1.5S50.827,35,50,35z"/>
	</g>
	<g>
		<circle class="st18" cx="43" cy="48.5" r="2"/>
		<path class="st1" d="M43,51c-1.379,0-2.5-1.122-2.5-2.5S41.621,46,43,46s2.5,1.122,2.5,2.5S44.379,51,43,51z M43,47
			c-0.827,0-1.5,0.673-1.5,1.5S42.173,50,43,50s1.5-0.673,1.5-1.5S43.827,47,43,47z"/>
	</g>
	<g>
		<circle class="st18" cx="59" cy="58.5" r="3"/>
		<path class="st1" d="M59,62c-1.93,0-3.5-1.57-3.5-3.5S57.07,55,59,55s3.5,1.57,3.5,3.5S60.93,62,59,62z M59,56
			c-1.379,0-2.5,1.122-2.5,2.5S57.621,61,59,61s2.5-1.122,2.5-2.5S60.379,56,59,56z"/>
	</g>
	<g>
		<circle class="st18" cx="58.5" cy="11.5" r="2"/>
		<path class="st1" d="M58.5,14c-1.379,0-2.5-1.122-2.5-2.5S57.121,9,58.5,9s2.5,1.122,2.5,2.5S59.879,14,58.5,14z M58.5,10
			c-0.827,0-1.5,0.673-1.5,1.5s0.673,1.5,1.5,1.5s1.5-0.673,1.5-1.5S59.327,10,58.5,10z"/>
	</g>
	<g>
		<path class="st1" d="M46,7c-0.276,0-0.5-0.224-0.5-0.5v-5C45.5,1.224,45.724,1,46,1s0.5,0.224,0.5,0.5v5C46.5,6.777,46.276,7,46,7
			z"/>
	</g>
	<g>
		<path class="st1" d="M48.5,4.5h-5C43.224,4.5,43,4.277,43,4s0.224-0.5,0.5-0.5h5C48.776,3.5,49,3.724,49,4S48.776,4.5,48.5,4.5z"
			/>
	</g>
	<g>
		<path class="st1" d="M4.5,58.5C4.224,58.5,4,58.277,4,58v-5c0-0.276,0.224-0.5,0.5-0.5S5,52.724,5,53v5
			C5,58.277,4.776,58.5,4.5,58.5z"/>
	</g>
	<g>
		<path class="st1" d="M7,56H2c-0.276,0-0.5-0.224-0.5-0.5S1.724,55,2,55h5c0.276,0,0.5,0.224,0.5,0.5S7.276,56,7,56z"/>
	</g>
</g>
</svg>
