<?xml version="1.0" encoding="utf-8"?>
<!-- Generator: Adobe Illustrator 21.1.0, SVG Export Plug-In . SVG Version: 6.00 Build 0)  -->
<svg version="1.1" id="Layer_1" xmlns="http://www.w3.org/2000/svg" xmlns:xlink="http://www.w3.org/1999/xlink" x="0px" y="0px"
	 viewBox="0 0 64 64" style="enable-background:new 0 0 64 64;" xml:space="preserve">
<style type="text/css">
	.st0{fill:#DB8E11;}
	.st1{fill:#212A41;}
	.st2{fill:#F9AC2F;}
	.st3{fill:#FFCA4D;}
	.st4{fill:#B7C0D7;}
	.st5{fill:#99A2B9;}
	.st6{fill:#B51040;}
	.st7{fill:#D32E5E;}
	.st8{fill:#F14C7C;}
	.st9{fill:#0079A8;}
	.st10{fill:#1E97C6;}
	.st11{fill:#BED38E;}
	.st12{fill:#A0B570;}
	.st13{fill:#DCF1AC;}
	.st14{fill:#D5DEF5;}
	.st15{fill:#4E4B51;}
	.st16{fill:#6C696F;}
	.st17{fill:#848483;}
	.st18{fill:#A2A2A1;}
	.st19{fill:#7B849B;}
	.st20{fill:#8A878D;}
	.st21{fill:#C0C0BF;}
	.st22{fill:#005B8A;}
	.st23{fill:#970022;}
	.st24{fill:#1A237E;}
	.st25{fill:#BD7000;}
	.st26{fill:#003D6C;}
	.st27{fill:#666665;}
	.st28{fill:#195190;}
</style>
<g id="Observatory">
	<g>
		<path class="st9" d="M28.5,2.251L28.5,2.251c-14.359,0-26,11.641-26,26v1h52v-1C54.5,13.891,42.859,2.251,28.5,2.251z"/>
		<path class="st1" d="M54.5,29.751h-52c-0.276,0-0.5-0.224-0.5-0.5v-1c0-14.612,11.888-26.5,26.5-26.5S55,13.638,55,28.251v1
			C55,29.527,54.776,29.751,54.5,29.751z M3,28.751h51v-0.5c0-14.061-11.439-25.5-25.5-25.5S3,14.19,3,28.251V28.751z"/>
	</g>
	<g>
		<path class="st9" d="M28.5,2.251L28.5,2.251c-14.359,0-26,11.641-26,26v1h52v-1C54.5,13.891,42.859,2.251,28.5,2.251z"/>
		<path class="st1" d="M54.5,29.751h-52c-0.276,0-0.5-0.224-0.5-0.5v-1c0-14.612,11.888-26.5,26.5-26.5S55,13.638,55,28.251v1
			C55,29.527,54.776,29.751,54.5,29.751z M3,28.751h51v-0.5c0-14.061-11.439-25.5-25.5-25.5S3,14.19,3,28.251V28.751z"/>
	</g>
	<g>
		<path class="st10" d="M4.521,27.751c-0.007,0-0.014,0-0.021,0c-0.276-0.011-0.49-0.244-0.479-0.52
			C4.563,14.064,15.316,3.751,28.5,3.751c0.276,0,0.5,0.224,0.5,0.5s-0.224,0.5-0.5,0.5c-12.646,0-22.959,9.892-23.48,22.521
			C5.009,27.54,4.788,27.751,4.521,27.751z"/>
	</g>
	<g>
		<path class="st5" d="M32,63.251H5c-1.381,0-2.5-1.119-2.5-2.5v-31.5h32v31.5C34.5,62.131,33.381,63.251,32,63.251z"/>
		<path class="st1" d="M32,63.751H5c-1.654,0-3-1.346-3-3v-31.5c0-0.276,0.224-0.5,0.5-0.5h32c0.276,0,0.5,0.224,0.5,0.5v31.5
			C35,62.405,33.654,63.751,32,63.751z M3,29.751v31c0,1.103,0.897,2,2,2h27c1.103,0,2-0.897,2-2v-31H3z"/>
	</g>
	<g>
		<path class="st4" d="M52,63.251H25c-1.381,0-2.5-1.119-2.5-2.5v-31.5h32v31.5C54.5,62.131,53.381,63.251,52,63.251z"/>
		<path class="st1" d="M52,63.751H25c-1.654,0-3-1.346-3-3v-31.5c0-0.276,0.224-0.5,0.5-0.5h32c0.276,0,0.5,0.224,0.5,0.5v31.5
			C55,62.405,53.654,63.751,52,63.751z M23,29.751v31c0,1.103,0.897,2,2,2h27c1.103,0,2-0.897,2-2v-31H23z"/>
	</g>
	<g>
		<path class="st0" d="M34,44.251H3c-1.381,0-2.5-1.119-2.5-2.5v-5c0-1.381,1.119-2.5,2.5-2.5h31c1.381,0,2.5,1.119,2.5,2.5v5
			C36.5,43.131,35.381,44.251,34,44.251z"/>
		<path class="st1" d="M34,44.751H3c-1.654,0-3-1.346-3-3v-5c0-1.654,1.346-3,3-3h31c1.654,0,3,1.346,3,3v5
			C37,43.405,35.654,44.751,34,44.751z M3,34.751c-1.103,0-2,0.897-2,2v5c0,1.103,0.897,2,2,2h31c1.103,0,2-0.897,2-2v-5
			c0-1.103-0.897-2-2-2H3z"/>
	</g>
	<g>
		<path class="st2" d="M54,44.251H23c-1.381,0-2.5-1.119-2.5-2.5v-5c0-1.381,1.119-2.5,2.5-2.5h31c1.381,0,2.5,1.119,2.5,2.5v5
			C56.5,43.131,55.381,44.251,54,44.251z"/>
		<path class="st1" d="M54,44.751H23c-1.654,0-3-1.346-3-3v-5c0-1.654,1.346-3,3-3h31c1.654,0,3,1.346,3,3v5
			C57,43.405,55.654,44.751,54,44.751z M23,34.751c-1.103,0-2,0.897-2,2v5c0,1.103,0.897,2,2,2h31c1.103,0,2-0.897,2-2v-5
			c0-1.103-0.897-2-2-2H23z"/>
	</g>
	<g>
		<rect x="32.5" y="49.251" class="st16" width="12" height="14"/>
		<path class="st1" d="M44.5,63.751h-12c-0.276,0-0.5-0.224-0.5-0.5v-14c0-0.276,0.224-0.5,0.5-0.5h12c0.276,0,0.5,0.224,0.5,0.5v14
			C45,63.527,44.776,63.751,44.5,63.751z M33,62.751h11v-13H33V62.751z"/>
	</g>
	<g>
		<path class="st1" d="M38.659,63.751c-0.276,0-0.5-0.224-0.5-0.5v-14c0-0.276,0.224-0.5,0.5-0.5s0.5,0.224,0.5,0.5v14
			C39.159,63.527,38.936,63.751,38.659,63.751z"/>
	</g>
	<g>
		<path class="st1" d="M52.898,19.751H4.102c-0.276,0-0.5-0.224-0.5-0.5s0.224-0.5,0.5-0.5h48.797c0.276,0,0.5,0.224,0.5,0.5
			S53.175,19.751,52.898,19.751z"/>
	</g>
	<g>
		<circle class="st16" cx="38.721" cy="14.964" r="7"/>
		<path class="st1" d="M38.721,22.464c-4.136,0-7.5-3.364-7.5-7.5s3.364-7.5,7.5-7.5s7.5,3.364,7.5,7.5S42.856,22.464,38.721,22.464
			z M38.721,8.464c-3.584,0-6.5,2.916-6.5,6.5s2.916,6.5,6.5,6.5s6.5-2.916,6.5-6.5S42.305,8.464,38.721,8.464z"/>
	</g>
	<g>
		<path class="st17" d="M37.293,11.226c-1.276,0.528-1.624,2.611-0.779,4.652c0.845,2.041,2.565,3.267,3.84,2.739l13.858-5.74
			l-3.061-7.391L37.293,11.226z"/>
		<path class="st1" d="M39.721,19.242c-0.564,0-1.16-0.211-1.738-0.624c-0.801-0.571-1.486-1.476-1.931-2.548
			s-0.6-2.197-0.437-3.167c0.176-1.055,0.705-1.814,1.486-2.138l13.858-5.74c0.255-0.104,0.548,0.016,0.653,0.271l3.062,7.391
			c0.051,0.123,0.051,0.26,0,0.383s-0.148,0.22-0.271,0.271l-13.858,5.74C40.283,19.188,40.006,19.242,39.721,19.242z
			 M37.484,11.688c-0.452,0.187-0.766,0.677-0.883,1.379c-0.132,0.788,0.001,1.718,0.375,2.62c0.374,0.902,0.937,1.654,1.587,2.117
			c0.58,0.414,1.148,0.538,1.6,0.351l13.396-5.549L50.88,6.139L37.484,11.688z"/>
	</g>
	<g>
		<path class="st15" d="M44.842,5.934c-2.041,0.845-2.668,4.013-1.399,7.074c1.268,3.061,3.951,4.858,5.992,4.013l12.01-4.975
			L56.853,0.96L44.842,5.934z"/>
		<path class="st1" d="M48.36,17.732c-0.81,0-1.662-0.282-2.49-0.836c-1.213-0.812-2.239-2.125-2.89-3.695
			c-0.651-1.571-0.853-3.225-0.57-4.657c0.298-1.505,1.093-2.596,2.24-3.071l12.01-4.975c0.123-0.051,0.26-0.051,0.383,0
			c0.123,0.051,0.22,0.148,0.271,0.271l4.592,11.087c0.051,0.123,0.051,0.26,0,0.383s-0.148,0.22-0.271,0.271l-12.011,4.975
			C49.223,17.649,48.798,17.732,48.36,17.732z M56.582,1.613L45.034,6.396l0,0c-0.828,0.343-1.411,1.174-1.642,2.341
			c-0.245,1.24-0.063,2.689,0.513,4.08c0.576,1.391,1.472,2.544,2.522,3.247c0.987,0.662,1.988,0.838,2.815,0.495l11.549-4.783
			L56.582,1.613z M44.842,5.934h0.01H44.842z"/>
	</g>
	<g>
		<ellipse transform="matrix(0.9239 -0.3827 0.3827 0.9239 2.0139 23.1302)" class="st9" cx="59.149" cy="6.503" rx="4" ry="6"/>
		<path class="st1" d="M60.396,12.751c-2.036,0-4.271-1.788-5.405-4.526C54.34,6.654,54.138,5,54.421,3.569
			c0.298-1.505,1.093-2.596,2.24-3.071c1.146-0.474,2.48-0.267,3.755,0.587c1.213,0.812,2.239,2.125,2.89,3.695
			c1.372,3.311,0.623,6.778-1.67,7.728C61.24,12.672,60.822,12.751,60.396,12.751z M57.925,1.25c-0.309,0-0.604,0.057-0.881,0.171
			c-0.828,0.343-1.411,1.174-1.642,2.341c-0.245,1.24-0.063,2.689,0.513,4.08c1.16,2.801,3.552,4.477,5.338,3.742
			c1.783-0.739,2.29-3.619,1.129-6.421c-0.576-1.391-1.472-2.544-2.522-3.247C59.202,1.475,58.539,1.25,57.925,1.25z"/>
	</g>
	<g>
		<path class="st10" d="M57.301,7.768c-0.196,0-0.382-0.116-0.462-0.309c-1.015-2.45-0.504-4.662,0.588-5.114
			c0.254-0.104,0.548,0.016,0.653,0.271c0.105,0.255-0.016,0.548-0.271,0.653c-0.402,0.167-0.917,1.707-0.047,3.808
			c0.105,0.255-0.016,0.548-0.271,0.653C57.43,7.756,57.365,7.768,57.301,7.768z"/>
	</g>
	<g>
		<path class="st22" d="M60.679,10.699c-0.196,0-0.382-0.116-0.462-0.309c-0.106-0.255,0.015-0.547,0.271-0.653
			c0.402-0.167,0.917-1.708,0.047-3.808c-0.105-0.255,0.016-0.548,0.271-0.653c0.254-0.104,0.548,0.015,0.653,0.271
			c1.014,2.45,0.504,4.661-0.588,5.114C60.808,10.686,60.743,10.699,60.679,10.699z"/>
	</g>
	<g>
		<path class="st14" d="M24.5,61.251c-0.276,0-0.5-0.224-0.5-0.5v-14.5c0-0.276,0.224-0.5,0.5-0.5s0.5,0.224,0.5,0.5v14.5
			C25,61.027,24.776,61.251,24.5,61.251z"/>
	</g>
	<g>
		<path class="st4" d="M4.5,61.251c-0.276,0-0.5-0.224-0.5-0.5v-14.5c0-0.276,0.224-0.5,0.5-0.5s0.5,0.224,0.5,0.5v14.5
			C5,61.027,4.776,61.251,4.5,61.251z"/>
	</g>
	<g>
		<path class="st19" d="M20.5,61.251c-0.276,0-0.5-0.224-0.5-0.5v-14.5c0-0.276,0.224-0.5,0.5-0.5s0.5,0.224,0.5,0.5v14.5
			C21,61.027,20.776,61.251,20.5,61.251z"/>
	</g>
	<g>
		<path class="st5" d="M52.5,61.251c-0.276,0-0.5-0.224-0.5-0.5v-14.5c0-0.276,0.224-0.5,0.5-0.5s0.5,0.224,0.5,0.5v14.5
			C53,61.027,52.776,61.251,52.5,61.251z"/>
	</g>
	<g>
		<path class="st3" d="M22.5,42.251c-0.276,0-0.5-0.224-0.5-0.5v-5c0-0.276,0.224-0.5,0.5-0.5s0.5,0.224,0.5,0.5v5
			C23,42.027,22.776,42.251,22.5,42.251z"/>
	</g>
	<g>
		<path class="st25" d="M18.5,42.251c-0.276,0-0.5-0.224-0.5-0.5v-5c0-0.276,0.224-0.5,0.5-0.5s0.5,0.224,0.5,0.5v5
			C19,42.027,18.776,42.251,18.5,42.251z"/>
	</g>
	<g>
		<path class="st2" d="M2.5,42.251c-0.276,0-0.5-0.224-0.5-0.5v-5c0-0.276,0.224-0.5,0.5-0.5s0.5,0.224,0.5,0.5v5
			C3,42.027,2.776,42.251,2.5,42.251z"/>
	</g>
	<g>
		<path class="st0" d="M54.5,42.251c-0.276,0-0.5-0.224-0.5-0.5v-5c0-0.276,0.224-0.5,0.5-0.5s0.5,0.224,0.5,0.5v5
			C55,42.027,54.776,42.251,54.5,42.251z"/>
	</g>
</g>
</svg>
