<?xml version="1.0" encoding="utf-8"?>
<!-- Generator: Adobe Illustrator 21.1.0, SVG Export Plug-In . SVG Version: 6.00 Build 0)  -->
<svg version="1.1" id="Layer_1" xmlns="http://www.w3.org/2000/svg" xmlns:xlink="http://www.w3.org/1999/xlink" x="0px" y="0px"
	 viewBox="0 0 64 64" style="enable-background:new 0 0 64 64;" xml:space="preserve">
<style type="text/css">
	.st0{fill:#DB8E11;}
	.st1{fill:#212A41;}
	.st2{fill:#F9AC2F;}
	.st3{fill:#FFCA4D;}
	.st4{fill:#B7C0D7;}
	.st5{fill:#99A2B9;}
	.st6{fill:#B51040;}
	.st7{fill:#D32E5E;}
	.st8{fill:#F14C7C;}
	.st9{fill:#0079A8;}
	.st10{fill:#1E97C6;}
	.st11{fill:#BED38E;}
	.st12{fill:#A0B570;}
	.st13{fill:#DCF1AC;}
	.st14{fill:#D5DEF5;}
	.st15{fill:#4E4B51;}
	.st16{fill:#6C696F;}
	.st17{fill:#848483;}
	.st18{fill:#A2A2A1;}
	.st19{fill:#7B849B;}
	.st20{fill:#8A878D;}
	.st21{fill:#C0C0BF;}
	.st22{fill:#005B8A;}
	.st23{fill:#970022;}
	.st24{fill:#1A237E;}
	.st25{fill:#BD7000;}
	.st26{fill:#003D6C;}
	.st27{fill:#666665;}
	.st28{fill:#195190;}
</style>
<g id="Old_Satellite">
	<g>
		<path class="st5" d="M36.75,46h-17c-1.381,0-2.5-1.119-2.5-2.5v-19c0-1.381,1.119-2.5,2.5-2.5h17c1.381,0,2.5,1.119,2.5,2.5v19
			C39.25,44.881,38.131,46,36.75,46z"/>
		<path class="st1" d="M36.75,46.5h-17c-1.654,0-3-1.346-3-3v-19c0-1.654,1.346-3,3-3h17c1.654,0,3,1.346,3,3v19
			C39.75,45.154,38.404,46.5,36.75,46.5z M19.75,22.5c-1.103,0-2,0.897-2,2v19c0,1.103,0.897,2,2,2h17c1.103,0,2-0.897,2-2v-19
			c0-1.103-0.897-2-2-2H19.75z"/>
	</g>
	<g>
		<path class="st4" d="M19.25,44c-0.276,0-0.5-0.224-0.5-0.5v-19c0-0.276,0.224-0.5,0.5-0.5s0.5,0.224,0.5,0.5v19
			C19.75,43.776,19.526,44,19.25,44z"/>
	</g>
	<g>
		<path class="st19" d="M22.75,44c-0.276,0-0.5-0.224-0.5-0.5v-19c0-0.276,0.224-0.5,0.5-0.5s0.5,0.224,0.5,0.5v19
			C23.25,43.776,23.026,44,22.75,44z"/>
	</g>
	<g>
		<rect x="17.25" y="31" class="st0" width="22" height="6"/>
		<path class="st1" d="M39.25,37.5h-22c-0.276,0-0.5-0.224-0.5-0.5v-6c0-0.276,0.224-0.5,0.5-0.5h22c0.276,0,0.5,0.224,0.5,0.5v6
			C39.75,37.276,39.526,37.5,39.25,37.5z M17.75,36.5h21v-5h-21V36.5z"/>
	</g>
	<g>
		<path class="st2" d="M19.25,37.5c-0.276,0-0.5-0.224-0.5-0.5v-6c0-0.276,0.224-0.5,0.5-0.5s0.5,0.224,0.5,0.5v6
			C19.75,37.276,19.526,37.5,19.25,37.5z"/>
	</g>
	<g>
		<path class="st25" d="M22.75,37.5c-0.276,0-0.5-0.224-0.5-0.5v-6c0-0.276,0.224-0.5,0.5-0.5s0.5,0.224,0.5,0.5v6
			C23.25,37.276,23.026,37.5,22.75,37.5z"/>
	</g>
	<g>
		<path class="st4" d="M44.25,46h-17c-1.381,0-2.5-1.119-2.5-2.5v-19c0-1.381,1.119-2.5,2.5-2.5h17c1.381,0,2.5,1.119,2.5,2.5v19
			C46.75,44.881,45.631,46,44.25,46z"/>
		<path class="st1" d="M44.25,46.5h-17c-1.654,0-3-1.346-3-3v-19c0-1.654,1.346-3,3-3h17c1.654,0,3,1.346,3,3v19
			C47.25,45.154,45.904,46.5,44.25,46.5z M27.25,22.5c-1.103,0-2,0.897-2,2v19c0,1.103,0.897,2,2,2h17c1.103,0,2-0.897,2-2v-19
			c0-1.103-0.897-2-2-2H27.25z"/>
	</g>
	<g>
		<path class="st14" d="M26.75,44c-0.276,0-0.5-0.224-0.5-0.5v-19c0-0.276,0.224-0.5,0.5-0.5s0.5,0.224,0.5,0.5v19
			C27.25,43.776,27.026,44,26.75,44z"/>
	</g>
	<g>
		<path class="st5" d="M44.75,44c-0.276,0-0.5-0.224-0.5-0.5v-19c0-0.276,0.224-0.5,0.5-0.5s0.5,0.224,0.5,0.5v19
			C45.25,43.776,45.026,44,44.75,44z"/>
	</g>
	<g>
		<path class="st1" d="M39.25,46.5c-0.276,0-0.5-0.224-0.5-0.5V22c0-0.276,0.224-0.5,0.5-0.5s0.5,0.224,0.5,0.5v24
			C39.75,46.276,39.526,46.5,39.25,46.5z"/>
	</g>
	<g>
		<path class="st1" d="M32.25,46.5c-0.276,0-0.5-0.224-0.5-0.5V22c0-0.276,0.224-0.5,0.5-0.5s0.5,0.224,0.5,0.5v24
			C32.75,46.276,32.526,46.5,32.25,46.5z"/>
	</g>
	<g>
		<path class="st1" d="M39.25,37.5h-22c-0.276,0-0.5-0.224-0.5-0.5v-6c0-0.276,0.224-0.5,0.5-0.5h22c0.276,0,0.5,0.224,0.5,0.5v6
			C39.75,37.276,39.526,37.5,39.25,37.5z M17.75,36.5h21v-5h-21V36.5z"/>
	</g>
	<g>
		<path class="st4" d="M32,49h-8c-0.552,0-1-0.448-1-1v-2h10v2C33,48.552,32.552,49,32,49z"/>
		<path class="st1" d="M32,49.5h-8c-0.827,0-1.5-0.673-1.5-1.5v-2c0-0.276,0.224-0.5,0.5-0.5h10c0.276,0,0.5,0.224,0.5,0.5v2
			C33.5,48.827,32.827,49.5,32,49.5z M23.5,46.5V48c0,0.276,0.225,0.5,0.5,0.5h8c0.275,0,0.5-0.224,0.5-0.5v-1.5H23.5z"/>
	</g>
	<g>
		<path class="st4" d="M40,49h-8c-0.552,0-1-0.448-1-1v-2h10v2C41,48.552,40.552,49,40,49z"/>
		<path class="st1" d="M40,49.5h-8c-0.827,0-1.5-0.673-1.5-1.5v-2c0-0.276,0.224-0.5,0.5-0.5h10c0.276,0,0.5,0.224,0.5,0.5v2
			C41.5,48.827,40.827,49.5,40,49.5z M31.5,46.5V48c0,0.276,0.225,0.5,0.5,0.5h8c0.275,0,0.5-0.224,0.5-0.5v-1.5H31.5z"/>
	</g>
	<g>
		<line class="st4" x1="25" y1="63.5" x2="30" y2="49"/>
		<path class="st1" d="M25,64c-0.054,0-0.109-0.009-0.163-0.027c-0.261-0.09-0.399-0.375-0.31-0.636l5-14.5
			c0.09-0.261,0.377-0.399,0.636-0.31c0.261,0.09,0.399,0.375,0.31,0.636l-5,14.5C25.401,63.87,25.207,64,25,64z"/>
	</g>
	<g>
		<line class="st4" x1="12" y1="63.5" x2="25" y2="49"/>
		<path class="st1" d="M12,64c-0.119,0-0.238-0.042-0.334-0.128c-0.205-0.184-0.223-0.5-0.038-0.706l13-14.5
			c0.185-0.205,0.501-0.222,0.706-0.038s0.223,0.5,0.038,0.706l-13,14.5C12.273,63.944,12.137,64,12,64z"/>
	</g>
	<g>
		<line class="st4" x1="39" y1="63.5" x2="34" y2="49"/>
		<path class="st1" d="M39,64c-0.207,0-0.401-0.13-0.473-0.337l-5-14.5c-0.09-0.261,0.049-0.546,0.31-0.636
			c0.262-0.091,0.546,0.049,0.636,0.31l5,14.5c0.09,0.261-0.049,0.546-0.31,0.636C39.109,63.991,39.054,64,39,64z"/>
	</g>
	<g>
		<line class="st4" x1="52" y1="63.5" x2="39" y2="49"/>
		<path class="st1" d="M52,64c-0.137,0-0.273-0.056-0.372-0.166l-13-14.5c-0.185-0.206-0.167-0.522,0.038-0.706
			c0.205-0.185,0.521-0.168,0.706,0.038l13,14.5c0.185,0.206,0.167,0.522-0.038,0.706C52.238,63.958,52.119,64,52,64z"/>
	</g>
	<g>
		<rect x="29.5" y="14" class="st4" width="5" height="8"/>
		<path class="st1" d="M34.5,22.5h-5c-0.276,0-0.5-0.224-0.5-0.5v-8c0-0.276,0.224-0.5,0.5-0.5h5c0.276,0,0.5,0.224,0.5,0.5v8
			C35,22.276,34.776,22.5,34.5,22.5z M30,21.5h4v-7h-4V21.5z"/>
	</g>
	<g>
		<path class="st1" d="M32,14.5c-0.276,0-0.5-0.224-0.5-0.5V0.5C31.5,0.224,31.724,0,32,0s0.5,0.224,0.5,0.5V14
			C32.5,14.276,32.276,14.5,32,14.5z"/>
	</g>
	<g>
		<rect x="24.75" y="31" class="st2" width="22" height="6"/>
	</g>
	<g>
		<path class="st1" d="M35,18.5h-6c-0.276,0-0.5-0.224-0.5-0.5s0.224-0.5,0.5-0.5h6c0.276,0,0.5,0.224,0.5,0.5S35.276,18.5,35,18.5z
			"/>
	</g>
	<g>
		<rect x="30.5" y="8" class="st4" width="3" height="6"/>
		<path class="st1" d="M33.5,14.5h-3c-0.276,0-0.5-0.224-0.5-0.5V8c0-0.276,0.224-0.5,0.5-0.5h3C33.776,7.5,34,7.724,34,8v6
			C34,14.276,33.776,14.5,33.5,14.5z M31,13.5h2v-5h-2V13.5z"/>
	</g>
	<g>
		<path class="st3" d="M26.75,37.5c-0.276,0-0.5-0.224-0.5-0.5v-6c0-0.276,0.224-0.5,0.5-0.5s0.5,0.224,0.5,0.5v6
			C27.25,37.276,27.026,37.5,26.75,37.5z"/>
	</g>
	<g>
		<path class="st0" d="M44.75,37.5c-0.276,0-0.5-0.224-0.5-0.5v-6c0-0.276,0.224-0.5,0.5-0.5s0.5,0.224,0.5,0.5v6
			C45.25,37.276,45.026,37.5,44.75,37.5z"/>
	</g>
	<g>
		<path class="st1" d="M46.75,37.5h-22c-0.276,0-0.5-0.224-0.5-0.5v-6c0-0.276,0.224-0.5,0.5-0.5h22c0.276,0,0.5,0.224,0.5,0.5v6
			C47.25,37.276,47.026,37.5,46.75,37.5z M25.25,36.5h21v-5h-21V36.5z"/>
	</g>
	<g>
		<path class="st1" d="M53,17.5c-0.276,0-0.5-0.224-0.5-0.5v-5c0-0.276,0.224-0.5,0.5-0.5s0.5,0.224,0.5,0.5v5
			C53.5,17.276,53.276,17.5,53,17.5z"/>
	</g>
	<g>
		<path class="st1" d="M55.5,15h-5c-0.276,0-0.5-0.224-0.5-0.5s0.224-0.5,0.5-0.5h5c0.276,0,0.5,0.224,0.5,0.5S55.776,15,55.5,15z"
			/>
	</g>
	<g>
		<circle class="st18" cx="8.5" cy="29.5" r="1.5"/>
		<path class="st1" d="M8.5,31.5c-1.103,0-2-0.897-2-2s0.897-2,2-2s2,0.897,2,2S9.603,31.5,8.5,31.5z M8.5,28.5
			c-0.552,0-1,0.449-1,1s0.448,1,1,1s1-0.449,1-1S9.052,28.5,8.5,28.5z"/>
	</g>
	<g>
		<circle class="st18" cx="55.5" cy="39.5" r="2"/>
		<path class="st1" d="M55.5,42c-1.379,0-2.5-1.122-2.5-2.5s1.121-2.5,2.5-2.5s2.5,1.122,2.5,2.5S56.879,42,55.5,42z M55.5,38
			c-0.827,0-1.5,0.673-1.5,1.5s0.673,1.5,1.5,1.5s1.5-0.673,1.5-1.5S56.327,38,55.5,38z"/>
	</g>
	<g>
		<path class="st1" d="M16,12c-0.276,0-0.5-0.224-0.5-0.5v-5C15.5,6.224,15.724,6,16,6s0.5,0.224,0.5,0.5v5
			C16.5,11.776,16.276,12,16,12z"/>
	</g>
	<g>
		<path class="st1" d="M18.5,9.5h-5C13.224,9.5,13,9.276,13,9s0.224-0.5,0.5-0.5h5C18.776,8.5,19,8.724,19,9S18.776,9.5,18.5,9.5z"
			/>
	</g>
</g>
</svg>
