<?xml version="1.0" encoding="utf-8"?>
<!-- Generator: Adobe Illustrator 21.1.0, SVG Export Plug-In . SVG Version: 6.00 Build 0)  -->
<svg version="1.1" id="Layer_1" xmlns="http://www.w3.org/2000/svg" xmlns:xlink="http://www.w3.org/1999/xlink" x="0px" y="0px"
	 viewBox="0 0 64 64" style="enable-background:new 0 0 64 64;" xml:space="preserve">
<style type="text/css">
	.st0{fill:#DB8E11;}
	.st1{fill:#212A41;}
	.st2{fill:#F9AC2F;}
	.st3{fill:#FFCA4D;}
	.st4{fill:#B7C0D7;}
	.st5{fill:#99A2B9;}
	.st6{fill:#B51040;}
	.st7{fill:#D32E5E;}
	.st8{fill:#F14C7C;}
	.st9{fill:#0079A8;}
	.st10{fill:#1E97C6;}
	.st11{fill:#BED38E;}
	.st12{fill:#A0B570;}
	.st13{fill:#DCF1AC;}
	.st14{fill:#D5DEF5;}
	.st15{fill:#4E4B51;}
	.st16{fill:#6C696F;}
	.st17{fill:#848483;}
	.st18{fill:#A2A2A1;}
	.st19{fill:#7B849B;}
	.st20{fill:#8A878D;}
	.st21{fill:#C0C0BF;}
	.st22{fill:#005B8A;}
	.st23{fill:#970022;}
	.st24{fill:#1A237E;}
	.st25{fill:#BD7000;}
	.st26{fill:#003D6C;}
	.st27{fill:#666665;}
	.st28{fill:#195190;}
</style>
<g id="Rocket_Carrier_Plane">
	<g>
		<polygon class="st2" points="63.499,39.501 47.499,39.501 47.499,34.501 59.499,34.501 63.499,36.501 		"/>
		<path class="st1" d="M63.499,40.001h-16c-0.276,0-0.5-0.224-0.5-0.5v-5c0-0.276,0.224-0.5,0.5-0.5h12
			c0.078,0,0.154,0.019,0.224,0.053l4,2c0.169,0.085,0.276,0.258,0.276,0.447v3C63.999,39.777,63.775,40.001,63.499,40.001z
			 M47.999,39.001h15V36.81l-3.618-1.809H47.999V39.001z"/>
	</g>
	<g>
		<rect x="52.499" y="36.501" class="st2" width="11" height="3"/>
		<path class="st1" d="M63.499,40.001h-11c-0.276,0-0.5-0.224-0.5-0.5v-3c0-0.276,0.224-0.5,0.5-0.5h11c0.276,0,0.5,0.224,0.5,0.5v3
			C63.999,39.777,63.775,40.001,63.499,40.001z M52.999,39.001h10v-2h-10V39.001z"/>
	</g>
	<g>
		<path class="st4" d="M58.999,48.501H46.535c-0.663,0-1.299-0.263-1.768-0.732l-3.268-3.268h-2.5c-1.381,0-2.5-1.119-2.5-2.5v-9.5
			h16l7.07,5.499c1.218,0.947,1.93,2.404,1.93,3.947v4.055C61.499,47.381,60.38,48.501,58.999,48.501z"/>
		<path class="st1" d="M58.999,49.001H46.535c-0.801,0-1.554-0.312-2.121-0.879l-3.122-3.121h-2.293c-1.654,0-3-1.346-3-3v-9.5
			c0-0.276,0.224-0.5,0.5-0.5h16c0.111,0,0.219,0.037,0.307,0.105l7.07,5.498c1.349,1.05,2.123,2.632,2.123,4.342v4.055
			C61.999,47.655,60.653,49.001,58.999,49.001z M36.999,33.001v9c0,1.103,0.897,2,2,2h2.5c0.133,0,0.26,0.053,0.354,0.146
			l3.268,3.268c0.378,0.378,0.88,0.586,1.414,0.586h12.464c1.103,0,2-0.897,2-2v-4.055c0-1.399-0.633-2.693-1.737-3.553
			l-6.934-5.393H36.999z"/>
	</g>
	<g>
		<path class="st5" d="M49.999,48.501h-3.464c-0.663,0-1.299-0.263-1.768-0.732l-3.268-3.268h-2.5c-1.381,0-2.5-1.119-2.5-2.5v-9.5
			h7l7.07,5.499c1.218,0.947,1.93,2.404,1.93,3.947v4.055C52.499,47.381,51.38,48.501,49.999,48.501z"/>
		<path class="st1" d="M49.999,49.001h-3.464c-0.801,0-1.554-0.312-2.121-0.879l-3.122-3.121h-2.293c-1.654,0-3-1.346-3-3v-9.5
			c0-0.276,0.224-0.5,0.5-0.5h7c0.111,0,0.219,0.037,0.307,0.105l7.07,5.498c1.349,1.05,2.123,2.632,2.123,4.342v4.055
			C52.999,47.655,51.653,49.001,49.999,49.001z M36.999,33.001v9c0,1.103,0.897,2,2,2h2.5c0.133,0,0.26,0.053,0.354,0.146
			l3.268,3.268c0.378,0.378,0.88,0.586,1.414,0.586h3.464c1.103,0,2-0.897,2-2v-4.055c0-1.399-0.633-2.693-1.737-3.553l-6.934-5.393
			H36.999z"/>
	</g>
	<g>
		<polygon class="st4" points="44.499,27.501 41.499,27.501 41.499,32.501 47.999,32.501 		"/>
		<path class="st1" d="M47.999,33.001h-6.5c-0.276,0-0.5-0.224-0.5-0.5v-5c0-0.276,0.224-0.5,0.5-0.5h3
			c0.163,0,0.316,0.08,0.41,0.213l3.5,5c0.107,0.153,0.12,0.353,0.034,0.518C48.356,32.897,48.186,33.001,47.999,33.001z
			 M41.999,32.001h5.04l-2.8-4h-2.24V32.001z"/>
	</g>
	<g>
		<polygon class="st5" points="41.499,27.501 38.499,27.501 38.499,32.501 44.999,32.501 		"/>
		<path class="st1" d="M44.999,33.001h-6.5c-0.276,0-0.5-0.224-0.5-0.5v-5c0-0.276,0.224-0.5,0.5-0.5h3
			c0.163,0,0.316,0.08,0.41,0.213l3.5,5c0.107,0.153,0.12,0.353,0.034,0.518C45.356,32.897,45.186,33.001,44.999,33.001z
			 M38.999,32.001h5.04l-2.8-4h-2.24V32.001z"/>
	</g>
	<g>
		<path class="st9" d="M59.569,37.999l-3.213-2.499h-9l3.213,2.499c0.532,0.414,0.961,0.929,1.282,1.501h9
			C60.529,38.928,60.101,38.413,59.569,37.999z"/>
		<path class="st1" d="M60.851,40.001h-9c-0.181,0-0.348-0.098-0.436-0.255c-0.301-0.536-0.689-0.991-1.153-1.353l-3.212-2.498
			c-0.168-0.131-0.235-0.354-0.166-0.557s0.26-0.338,0.473-0.338h9c0.111,0,0.219,0.037,0.307,0.105l3.212,2.498l0,0
			c0.57,0.443,1.045,0.999,1.411,1.651c0.087,0.155,0.085,0.345-0.004,0.498C61.193,39.907,61.029,40.001,60.851,40.001z
			 M52.135,39.001h7.762c-0.192-0.225-0.404-0.428-0.635-0.607l-3.077-2.393h-7.371l2.062,1.604
			C51.37,37.989,51.793,38.458,52.135,39.001z"/>
	</g>
	<g>
		<path class="st22" d="M50.569,37.999l-3.213-2.499h-0.857v4h5.352C51.529,38.928,51.101,38.413,50.569,37.999z"/>
		<path class="st1" d="M51.851,40.001h-5.352c-0.276,0-0.5-0.224-0.5-0.5v-4c0-0.276,0.224-0.5,0.5-0.5h0.857
			c0.111,0,0.219,0.037,0.307,0.105l3.212,2.498l0,0c0.57,0.443,1.045,0.999,1.411,1.651c0.087,0.155,0.085,0.345-0.004,0.498
			C52.193,39.907,52.029,40.001,51.851,40.001z M46.999,39.001h3.898c-0.192-0.225-0.404-0.428-0.635-0.607l-3.077-2.393h-0.186
			V39.001z"/>
	</g>
	<g>
		<path class="st5" d="M59.499,46.501c-0.276,0-0.5-0.224-0.5-0.5v-4.055c0-0.276,0.224-0.5,0.5-0.5s0.5,0.224,0.5,0.5v4.055
			C59.999,46.277,59.775,46.501,59.499,46.501z"/>
	</g>
	<g>
		<path class="st14" d="M54.499,46.501c-0.276,0-0.5-0.224-0.5-0.5v-4.055c0-0.276,0.224-0.5,0.5-0.5s0.5,0.224,0.5,0.5v4.055
			C54.999,46.277,54.775,46.501,54.499,46.501z"/>
	</g>
	<g>
		<path class="st4" d="M50.499,46.501c-0.276,0-0.5-0.224-0.5-0.5v-4.055c0-0.276,0.224-0.5,0.5-0.5s0.5,0.224,0.5,0.5v4.055
			C50.999,46.277,50.775,46.501,50.499,46.501z"/>
	</g>
	<g>
		<path class="st1" d="M61.499,46.501h-18.5c-0.276,0-0.5-0.224-0.5-0.5s0.224-0.5,0.5-0.5h18.5c0.276,0,0.5,0.224,0.5,0.5
			S61.775,46.501,61.499,46.501z"/>
	</g>
	<g>
		<polygon class="st2" points="44.499,39.501 23.999,39.501 23.999,34.501 40.499,34.501 44.499,36.501 		"/>
		<path class="st1" d="M44.499,40.001h-20.5c-0.276,0-0.5-0.224-0.5-0.5v-5c0-0.276,0.224-0.5,0.5-0.5h16.5
			c0.078,0,0.154,0.019,0.224,0.053l4,2c0.169,0.085,0.276,0.258,0.276,0.447v3C44.999,39.777,44.775,40.001,44.499,40.001z
			 M24.499,39.001h19.5V36.81l-3.618-1.809H24.499V39.001z"/>
	</g>
	<g>
		<rect x="28.999" y="36.501" class="st2" width="15.5" height="3"/>
		<path class="st1" d="M44.499,40.001h-15.5c-0.276,0-0.5-0.224-0.5-0.5v-3c0-0.276,0.224-0.5,0.5-0.5h15.5
			c0.276,0,0.5,0.224,0.5,0.5v3C44.999,39.777,44.775,40.001,44.499,40.001z M29.499,39.001h14.5v-2h-14.5V39.001z"/>
	</g>
	<g>
		<path class="st5" d="M52.958,8.001c0-1.657-1.343-3-3-3s-3,1.343-3,3h-0.958c-1.105,0-2,0.895-2,2v0c0,1.105,0.895,2,2,2h8
			c1.105,0,2-0.895,2-2v0c0-1.105-0.895-2-2-2H52.958z"/>
		<path class="st1" d="M53.999,12.501h-8c-1.378,0-2.5-1.121-2.5-2.5s1.122-2.5,2.5-2.5h0.494c0.243-1.694,1.704-3,3.464-3
			s3.221,1.306,3.464,3h0.577c1.378,0,2.5,1.121,2.5,2.5S55.377,12.501,53.999,12.501z M45.999,8.501c-0.827,0-1.5,0.673-1.5,1.5
			s0.673,1.5,1.5,1.5h8c0.827,0,1.5-0.673,1.5-1.5s-0.673-1.5-1.5-1.5h-1.042c-0.276,0-0.5-0.224-0.5-0.5c0-1.379-1.122-2.5-2.5-2.5
			s-2.5,1.121-2.5,2.5c0,0.276-0.224,0.5-0.5,0.5H45.999z M53.458,8.001h0.01H53.458z"/>
	</g>
	<g>
		<path class="st4" d="M55.958,8.001c0-1.657-1.343-3-3-3s-3,1.343-3,3h-0.958c-1.105,0-2,0.895-2,2v0c0,1.105,0.895,2,2,2h8
			c1.105,0,2-0.895,2-2v0c0-1.105-0.895-2-2-2H55.958z"/>
		<path class="st1" d="M56.999,12.501h-8c-1.378,0-2.5-1.121-2.5-2.5s1.122-2.5,2.5-2.5h0.494c0.243-1.694,1.704-3,3.464-3
			s3.221,1.306,3.464,3h0.577c1.378,0,2.5,1.121,2.5,2.5S58.377,12.501,56.999,12.501z M48.999,8.501c-0.827,0-1.5,0.673-1.5,1.5
			s0.673,1.5,1.5,1.5h8c0.827,0,1.5-0.673,1.5-1.5s-0.673-1.5-1.5-1.5h-1.042c-0.276,0-0.5-0.224-0.5-0.5c0-1.379-1.122-2.5-2.5-2.5
			s-2.5,1.121-2.5,2.5c0,0.276-0.224,0.5-0.5,0.5H48.999z M56.458,8.001h0.01H56.458z"/>
	</g>
	<g>
		<path class="st1" d="M48.999,59.501h-10c-0.276,0-0.5-0.224-0.5-0.5s0.224-0.5,0.5-0.5h10c0.276,0,0.5,0.224,0.5,0.5
			S49.275,59.501,48.999,59.501z"/>
	</g>
	<g>
		<path class="st1" d="M36.999,59.501h-1c-0.276,0-0.5-0.224-0.5-0.5s0.224-0.5,0.5-0.5h1c0.276,0,0.5,0.224,0.5,0.5
			S37.275,59.501,36.999,59.501z"/>
	</g>
	<g>
		<path class="st1" d="M23.999,16.501h-10c-0.276,0-0.5-0.224-0.5-0.5s0.224-0.5,0.5-0.5h10c0.276,0,0.5,0.224,0.5,0.5
			S24.275,16.501,23.999,16.501z"/>
	</g>
	<g>
		<path class="st1" d="M11.999,16.501h-1c-0.276,0-0.5-0.224-0.5-0.5s0.224-0.5,0.5-0.5h1c0.276,0,0.5,0.224,0.5,0.5
			S12.275,16.501,11.999,16.501z"/>
	</g>
	<g>
		<path class="st4" d="M30.999,48.501H18.535c-0.663,0-1.299-0.263-1.768-0.732l-3.268-3.268h-2.5c-1.381,0-2.5-1.119-2.5-2.5v-9.5
			h16l7.07,5.499c1.218,0.947,1.93,2.404,1.93,3.947v4.055C33.499,47.381,32.38,48.501,30.999,48.501z"/>
		<path class="st1" d="M30.999,49.001H18.535c-0.801,0-1.554-0.312-2.121-0.879l-3.122-3.121h-2.293c-1.654,0-3-1.346-3-3v-9.5
			c0-0.276,0.224-0.5,0.5-0.5h16c0.111,0,0.219,0.037,0.307,0.105l7.07,5.498c1.349,1.05,2.123,2.632,2.123,4.342v4.055
			C33.999,47.655,32.653,49.001,30.999,49.001z M8.999,33.001v9c0,1.103,0.897,2,2,2h2.5c0.133,0,0.26,0.053,0.354,0.146
			l3.268,3.268c0.378,0.378,0.88,0.586,1.414,0.586h12.464c1.103,0,2-0.897,2-2v-4.055c0-1.399-0.633-2.693-1.737-3.553
			l-6.934-5.393H8.999z"/>
	</g>
	<g>
		<path class="st5" d="M21.999,48.501h-3.464c-0.663,0-1.299-0.263-1.768-0.732l-3.268-3.268h-2.5c-1.381,0-2.5-1.119-2.5-2.5v-9.5
			h7l7.07,5.499c1.218,0.947,1.93,2.404,1.93,3.947v4.055C24.499,47.381,23.38,48.501,21.999,48.501z"/>
		<path class="st1" d="M21.999,49.001h-3.464c-0.801,0-1.554-0.312-2.121-0.879l-3.122-3.121h-2.293c-1.654,0-3-1.346-3-3v-9.5
			c0-0.276,0.224-0.5,0.5-0.5h7c0.111,0,0.219,0.037,0.307,0.105l7.07,5.498c1.349,1.05,2.123,2.632,2.123,4.342v4.055
			C24.999,47.655,23.653,49.001,21.999,49.001z M8.999,33.001v9c0,1.103,0.897,2,2,2h2.5c0.133,0,0.26,0.053,0.354,0.146
			l3.268,3.268c0.378,0.378,0.88,0.586,1.414,0.586h3.464c1.103,0,2-0.897,2-2v-4.055c0-1.399-0.633-2.693-1.737-3.553l-6.934-5.393
			H8.999z"/>
	</g>
	<g>
		<polygon class="st4" points="16.499,27.501 13.499,27.501 13.499,32.501 19.999,32.501 		"/>
		<path class="st1" d="M19.999,33.001h-6.5c-0.276,0-0.5-0.224-0.5-0.5v-5c0-0.276,0.224-0.5,0.5-0.5h3
			c0.163,0,0.316,0.08,0.41,0.213l3.5,5c0.107,0.153,0.12,0.353,0.034,0.518C20.356,32.897,20.186,33.001,19.999,33.001z
			 M13.999,32.001h5.04l-2.8-4h-2.24V32.001z"/>
	</g>
	<g>
		<polygon class="st5" points="13.499,27.501 10.499,27.501 10.499,32.501 16.999,32.501 		"/>
		<path class="st1" d="M16.999,33.001h-6.5c-0.276,0-0.5-0.224-0.5-0.5v-5c0-0.276,0.224-0.5,0.5-0.5h3
			c0.163,0,0.316,0.08,0.41,0.213l3.5,5c0.107,0.153,0.12,0.353,0.034,0.518C17.356,32.897,17.186,33.001,16.999,33.001z
			 M10.999,32.001h5.04l-2.8-4h-2.24V32.001z"/>
	</g>
	<g>
		<path class="st9" d="M31.569,37.999l-3.213-2.499h-9l3.213,2.499c0.532,0.414,0.961,0.929,1.282,1.501h9
			C32.529,38.928,32.101,38.413,31.569,37.999z"/>
		<path class="st1" d="M32.851,40.001h-9c-0.181,0-0.348-0.098-0.436-0.255c-0.301-0.536-0.689-0.991-1.153-1.353l-3.212-2.498
			c-0.168-0.131-0.235-0.354-0.166-0.557s0.26-0.338,0.473-0.338h9c0.111,0,0.219,0.037,0.307,0.105l3.212,2.498l0,0
			c0.57,0.443,1.045,0.999,1.411,1.651c0.087,0.155,0.085,0.345-0.004,0.498C33.193,39.907,33.029,40.001,32.851,40.001z
			 M24.135,39.001h7.762c-0.192-0.225-0.404-0.428-0.635-0.607l-3.077-2.393h-7.371l2.062,1.604
			C23.37,37.989,23.793,38.458,24.135,39.001z"/>
	</g>
	<g>
		<path class="st22" d="M22.569,37.999l-3.213-2.499h-0.857v4h5.352C23.529,38.928,23.101,38.413,22.569,37.999z"/>
		<path class="st1" d="M23.851,40.001h-5.352c-0.276,0-0.5-0.224-0.5-0.5v-4c0-0.276,0.224-0.5,0.5-0.5h0.857
			c0.111,0,0.219,0.037,0.307,0.105l3.212,2.498l0,0c0.57,0.443,1.045,0.999,1.411,1.651c0.087,0.155,0.085,0.345-0.004,0.498
			C24.193,39.907,24.029,40.001,23.851,40.001z M18.999,39.001h3.898c-0.192-0.225-0.404-0.428-0.635-0.607l-3.077-2.393h-0.186
			V39.001z"/>
	</g>
	<g>
		<path class="st5" d="M31.499,46.501c-0.276,0-0.5-0.224-0.5-0.5v-4.055c0-0.276,0.224-0.5,0.5-0.5s0.5,0.224,0.5,0.5v4.055
			C31.999,46.277,31.775,46.501,31.499,46.501z"/>
	</g>
	<g>
		<path class="st14" d="M26.499,46.501c-0.276,0-0.5-0.224-0.5-0.5v-4.055c0-0.276,0.224-0.5,0.5-0.5s0.5,0.224,0.5,0.5v4.055
			C26.999,46.277,26.775,46.501,26.499,46.501z"/>
	</g>
	<g>
		<path class="st4" d="M22.499,46.501c-0.276,0-0.5-0.224-0.5-0.5v-4.055c0-0.276,0.224-0.5,0.5-0.5s0.5,0.224,0.5,0.5v4.055
			C22.999,46.277,22.775,46.501,22.499,46.501z"/>
	</g>
	<g>
		<path class="st1" d="M33.499,46.501h-18.5c-0.276,0-0.5-0.224-0.5-0.5s0.224-0.5,0.5-0.5h18.5c0.276,0,0.5,0.224,0.5,0.5
			S33.775,46.501,33.499,46.501z"/>
	</g>
	<g>
		<polygon class="st2" points="16.499,39.501 0.499,39.501 0.499,34.501 12.499,34.501 16.499,36.501 		"/>
		<path class="st1" d="M16.499,40.001h-16c-0.276,0-0.5-0.224-0.5-0.5v-5c0-0.276,0.224-0.5,0.5-0.5h12
			c0.078,0,0.154,0.019,0.224,0.053l4,2c0.169,0.085,0.276,0.258,0.276,0.447v3C16.999,39.777,16.775,40.001,16.499,40.001z
			 M0.999,39.001h15V36.81l-3.618-1.809H0.999V39.001z"/>
	</g>
	<g>
		<rect x="5.499" y="36.501" class="st2" width="11" height="3"/>
		<path class="st1" d="M16.499,40.001h-11c-0.276,0-0.5-0.224-0.5-0.5v-3c0-0.276,0.224-0.5,0.5-0.5h11c0.276,0,0.5,0.224,0.5,0.5v3
			C16.999,39.777,16.775,40.001,16.499,40.001z M5.999,39.001h10v-2h-10V39.001z"/>
	</g>
	<g>
		<polygon class="st0" points="5.499,36.501 0.499,34.501 0.499,39.501 5.499,39.501 		"/>
		<path class="st1" d="M5.499,40.001h-5c-0.276,0-0.5-0.224-0.5-0.5v-5c0-0.166,0.083-0.321,0.22-0.414
			c0.138-0.093,0.314-0.112,0.466-0.05l5,2c0.19,0.075,0.314,0.26,0.314,0.464v3C5.999,39.777,5.775,40.001,5.499,40.001z
			 M0.999,39.001h4V36.84l-4-1.601V39.001z"/>
	</g>
</g>
</svg>
