<?xml version="1.0" encoding="utf-8"?>
<!-- Generator: Adobe Illustrator 21.1.0, SVG Export Plug-In . SVG Version: 6.00 Build 0)  -->
<svg version="1.1" id="Layer_1" xmlns="http://www.w3.org/2000/svg" xmlns:xlink="http://www.w3.org/1999/xlink" x="0px" y="0px"
	 viewBox="0 0 64 64" style="enable-background:new 0 0 64 64;" xml:space="preserve">
<style type="text/css">
	.st0{fill:#DB8E11;}
	.st1{fill:#212A41;}
	.st2{fill:#F9AC2F;}
	.st3{fill:#FFCA4D;}
	.st4{fill:#B7C0D7;}
	.st5{fill:#99A2B9;}
	.st6{fill:#B51040;}
	.st7{fill:#D32E5E;}
	.st8{fill:#F14C7C;}
	.st9{fill:#0079A8;}
	.st10{fill:#1E97C6;}
	.st11{fill:#BED38E;}
	.st12{fill:#A0B570;}
	.st13{fill:#DCF1AC;}
	.st14{fill:#D5DEF5;}
	.st15{fill:#4E4B51;}
	.st16{fill:#6C696F;}
	.st17{fill:#848483;}
	.st18{fill:#A2A2A1;}
	.st19{fill:#7B849B;}
	.st20{fill:#8A878D;}
	.st21{fill:#C0C0BF;}
	.st22{fill:#005B8A;}
	.st23{fill:#970022;}
	.st24{fill:#1A237E;}
	.st25{fill:#BD7000;}
	.st26{fill:#003D6C;}
	.st27{fill:#666665;}
	.st28{fill:#195190;}
</style>
<g id="Sample_Research">
	<g>
		<path class="st17" d="M10.5,8.5h11v5h-11c-0.552,0-1-0.448-1-1v-3C9.5,8.948,9.947,8.5,10.5,8.5z"/>
		<path class="st1" d="M21.5,14H10.499c-0.827,0-1.5-0.673-1.5-1.5v-3c0-0.827,0.673-1.5,1.5-1.5H21.5C21.776,8,22,8.224,22,8.5v5
			C22,13.776,21.776,14,21.5,14z M10.499,9c-0.275,0-0.5,0.224-0.5,0.5v3c0,0.276,0.225,0.5,0.5,0.5H21V9H10.499z"/>
	</g>
	<g>
		<rect x="47" y="17.5" class="st17" width="5" height="20.5"/>
		<path class="st1" d="M52,38.5h-5c-0.276,0-0.5-0.224-0.5-0.5V17.5c0-0.276,0.224-0.5,0.5-0.5h5c0.276,0,0.5,0.224,0.5,0.5V38
			C52.5,38.276,52.276,38.5,52,38.5z M47.5,37.5h4V18h-4V37.5z"/>
	</g>
	<g>
		<rect x="52" y="17.5" class="st18" width="5" height="20.5"/>
		<path class="st1" d="M57,38.5h-5c-0.276,0-0.5-0.224-0.5-0.5V17.5c0-0.276,0.224-0.5,0.5-0.5h5c0.276,0,0.5,0.224,0.5,0.5V38
			C57.5,38.276,57.276,38.5,57,38.5z M52.5,37.5h4V18h-4V37.5z"/>
	</g>
	<g>
		<path class="st18" d="M19.916,39.5L19.916,39.5c-2.209,0-4-1.791-4-4v-16h8v16C23.916,37.709,22.125,39.5,19.916,39.5z"/>
		<path class="st1" d="M19.916,40c-2.481,0-4.5-2.019-4.5-4.5v-16c0-0.276,0.224-0.5,0.5-0.5h8c0.276,0,0.5,0.224,0.5,0.5v16
			C24.416,37.981,22.397,40,19.916,40z M16.416,20v15.5c0,1.93,1.57,3.5,3.5,3.5s3.5-1.57,3.5-3.5V20H16.416z"/>
	</g>
	<g>
		<path class="st21" d="M17.916,30c-0.276,0-0.5-0.224-0.5-0.5v-8c0-0.276,0.224-0.5,0.5-0.5s0.5,0.224,0.5,0.5v8
			C18.416,29.776,18.192,30,17.916,30z"/>
	</g>
	<g>
		<path class="st5" d="M30.5,55v-9.5c0-1.381,1.119-2.5,2.5-2.5h18c1.381,0,2.5,1.119,2.5,2.5V59c0,0.552-0.448,1-1,1h-51
			c-0.552,0-1-0.448-1-1v-3c0-0.552,0.448-1,1-1H30.5z"/>
		<path class="st1" d="M52.499,60.5h-51c-0.827,0-1.5-0.673-1.5-1.5v-3c0-0.827,0.673-1.5,1.5-1.5h28.5l0.001-9c0-1.654,1.346-3,3-3
			h18c1.654,0,3,1.346,3,3L53.999,59C53.999,59.827,53.326,60.5,52.499,60.5z M1.499,55.5c-0.275,0-0.5,0.224-0.5,0.5v3
			c0,0.276,0.225,0.5,0.5,0.5h51c0.275,0,0.5-0.224,0.5-0.5L53,45.5c0-1.103-0.897-2-2-2H33c-1.103,0-2,0.897-2,2L30.999,55
			c0,0.276-0.224,0.5-0.5,0.5H1.499z"/>
	</g>
	<g>
		<path class="st17" d="M27,48H8c-1.381,0-2.5,1.119-2.5,2.5V55h24v-4.5C29.5,49.119,28.38,48,27,48z"/>
		<path class="st1" d="M29.499,55.5h-24c-0.276,0-0.5-0.224-0.5-0.5v-4.5c0-1.654,1.346-3,3-3h19c1.654,0,3,1.346,3,3V55
			C29.999,55.276,29.775,55.5,29.499,55.5z M5.999,54.5h23v-4c0-1.103-0.897-2-2-2h-19c-1.103,0-2,0.897-2,2V54.5z"/>
	</g>
	<g>
		<path class="st4" d="M40.5,55v-9.5c0-1.381,1.119-2.5,2.5-2.5h18c1.381,0,2.5,1.119,2.5,2.5V59c0,0.552-0.448,1-1,1h-51
			c-0.552,0-1-0.448-1-1v-3c0-0.552,0.448-1,1-1H40.5z"/>
		<path class="st1" d="M62.499,60.5h-51c-0.827,0-1.5-0.673-1.5-1.5v-3c0-0.827,0.673-1.5,1.5-1.5h28.5l0.001-9c0-1.654,1.346-3,3-3
			h18c1.654,0,3,1.346,3,3L63.999,59C63.999,59.827,63.326,60.5,62.499,60.5z M11.499,55.5c-0.275,0-0.5,0.224-0.5,0.5v3
			c0,0.276,0.225,0.5,0.5,0.5h51c0.275,0,0.5-0.224,0.5-0.5L63,45.5c0-1.103-0.897-2-2-2H43c-1.103,0-2,0.897-2,2L40.999,55
			c0,0.276-0.224,0.5-0.5,0.5H11.499z"/>
	</g>
	<g>
		<rect x="44" y="37" class="st9" width="16" height="12"/>
		<path class="st1" d="M60,49.5H44c-0.276,0-0.5-0.224-0.5-0.5V37c0-0.276,0.224-0.5,0.5-0.5h16c0.276,0,0.5,0.224,0.5,0.5v12
			C60.5,49.276,60.276,49.5,60,49.5z M44.5,48.5h15v-11h-15V48.5z"/>
	</g>
	<g>
		<path class="st1" d="M25.916,20h-12c-0.276,0-0.5-0.224-0.5-0.5s0.224-0.5,0.5-0.5h12c0.276,0,0.5,0.224,0.5,0.5
			S26.192,20,25.916,20z"/>
	</g>
	<g>
		<rect x="29.5" y="6.5" class="st16" width="6" height="9"/>
		<path class="st1" d="M35.5,16h-6c-0.276,0-0.5-0.224-0.5-0.5v-9C29,6.224,29.224,6,29.5,6h6C35.776,6,36,6.224,36,6.5v9
			C36,15.776,35.776,16,35.5,16z M30,15h5V7h-5V15z"/>
	</g>
	<g>
		<rect x="23.5" y="6.5" class="st15" width="6" height="9"/>
		<path class="st1" d="M29.5,16h-6c-0.276,0-0.5-0.224-0.5-0.5v-9C23,6.224,23.224,6,23.5,6h6C29.776,6,30,6.224,30,6.5v9
			C30,15.776,29.776,16,29.5,16z M24,15h5V7h-5V15z"/>
	</g>
	<g>
		<path class="st18" d="M32,48H13c-1.381,0-2.5,1.119-2.5,2.5V55h24v-4.5C34.5,49.119,33.38,48,32,48z"/>
		<path class="st1" d="M34.499,55.5h-24c-0.276,0-0.5-0.224-0.5-0.5v-4.5c0-1.654,1.346-3,3-3h19c1.654,0,3,1.346,3,3V55
			C34.999,55.276,34.775,55.5,34.499,55.5z M10.999,54.5h23v-4c0-1.103-0.897-2-2-2h-19c-1.103,0-2,0.897-2,2V54.5z"/>
	</g>
	<g>
		<path class="st18" d="M15.5,8.5h11v5h-11c-0.552,0-1-0.448-1-1v-3C14.5,8.948,14.947,8.5,15.5,8.5z"/>
		<path class="st1" d="M26.5,14H15.499c-0.827,0-1.5-0.673-1.5-1.5v-3c0-0.827,0.673-1.5,1.5-1.5H26.5C26.776,8,27,8.224,27,8.5v5
			C27,13.776,26.776,14,26.5,14z M15.499,9c-0.275,0-0.5,0.224-0.5,0.5v3c0,0.276,0.225,0.5,0.5,0.5H26V9H15.499z"/>
	</g>
	<g>
		<path class="st15" d="M54.5,4h-5c-3.866,0-7,3.134-7,7c0,3.866,3.134,7,7,7h5V4z"/>
		<path class="st1" d="M54.5,18.5h-5c-4.136,0-7.5-3.364-7.5-7.5s3.364-7.5,7.5-7.5h5C54.776,3.5,55,3.724,55,4v14
			C55,18.276,54.776,18.5,54.5,18.5z M49.5,4.5C45.916,4.5,43,7.416,43,11s2.916,6.5,6.5,6.5H54v-13H49.5z"/>
	</g>
	<g>
		<circle class="st16" cx="54.5" cy="11" r="7"/>
		<path class="st1" d="M54.5,18.5c-4.136,0-7.5-3.364-7.5-7.5s3.364-7.5,7.5-7.5S62,6.864,62,11S58.636,18.5,54.5,18.5z M54.5,4.5
			C50.916,4.5,48,7.416,48,11s2.916,6.5,6.5,6.5S61,14.584,61,11S58.084,4.5,54.5,4.5z"/>
	</g>
	<g>
		<path class="st20" d="M49.5,11.5c-0.276,0-0.5-0.224-0.5-0.5c0-3.033,2.468-5.5,5.5-5.5C54.776,5.5,55,5.724,55,6
			s-0.224,0.5-0.5,0.5C52.019,6.5,50,8.519,50,11C50,11.276,49.776,11.5,49.5,11.5z"/>
	</g>
	<g>
		<path class="st15" d="M54.5,16.5c-0.276,0-0.5-0.224-0.5-0.5s0.224-0.5,0.5-0.5c2.481,0,4.5-2.019,4.5-4.5
			c0-0.276,0.224-0.5,0.5-0.5S60,10.724,60,11C60,14.033,57.532,16.5,54.5,16.5z"/>
	</g>
	<g>
		<circle class="st2" cx="54.5" cy="11" r="3"/>
		<path class="st1" d="M54.5,14.5c-1.93,0-3.5-1.57-3.5-3.5s1.57-3.5,3.5-3.5S58,9.07,58,11S56.43,14.5,54.5,14.5z M54.5,8.5
			C53.121,8.5,52,9.622,52,11s1.121,2.5,2.5,2.5S57,12.378,57,11S55.879,8.5,54.5,8.5z"/>
	</g>
	<g>
		<rect x="35.5" y="8.5" class="st18" width="10" height="5"/>
		<path class="st1" d="M45.5,14h-10c-0.276,0-0.5-0.224-0.5-0.5v-5C35,8.224,35.224,8,35.5,8h10C45.776,8,46,8.224,46,8.5v5
			C46,13.776,45.776,14,45.5,14z M36,13h9V9h-9V13z"/>
	</g>
	<g>
		<rect x="57" y="52" class="st18" width="3" height="3"/>
		<path class="st1" d="M60,55.5h-3c-0.276,0-0.5-0.224-0.5-0.5v-3c0-0.276,0.224-0.5,0.5-0.5h3c0.276,0,0.5,0.224,0.5,0.5v3
			C60.5,55.276,60.276,55.5,60,55.5z M57.5,54.5h2v-2h-2V54.5z"/>
	</g>
	<g>
		<path class="st1" d="M52,40.5h-5.5c-0.276,0-0.5-0.224-0.5-0.5s0.224-0.5,0.5-0.5H52c0.276,0,0.5,0.224,0.5,0.5
			S52.276,40.5,52,40.5z"/>
	</g>
	<g>
		<path class="st1" d="M49.5,43h-3c-0.276,0-0.5-0.224-0.5-0.5s0.224-0.5,0.5-0.5h3c0.276,0,0.5,0.224,0.5,0.5S49.776,43,49.5,43z"
			/>
	</g>
	<g>
		<path class="st1" d="M57.5,46.5h-11c-0.276,0-0.5-0.224-0.5-0.5s0.224-0.5,0.5-0.5h11c0.276,0,0.5,0.224,0.5,0.5
			S57.776,46.5,57.5,46.5z"/>
	</g>
	<g>
		<path class="st7" d="M15.916,29.5v6c0,2.209,1.791,4,4,4s4-1.791,4-4v-6H15.916z"/>
	</g>
	<g>
		<path class="st1" d="M28.5,25H15.916c-0.276,0-0.5-0.224-0.5-0.5s0.224-0.5,0.5-0.5H28.5c0.275,0,0.5-0.224,0.5-0.5v-8
			c0-0.276,0.224-0.5,0.5-0.5s0.5,0.224,0.5,0.5v8C30,24.327,29.327,25,28.5,25z"/>
	</g>
	<g>
		<path class="st8" d="M19.916,38c-1.379,0-2.5-1.122-2.5-2.5v-6c0-0.276,0.224-0.5,0.5-0.5s0.5,0.224,0.5,0.5v6
			c0,0.827,0.673,1.5,1.5,1.5c0.276,0,0.5,0.224,0.5,0.5S20.192,38,19.916,38z"/>
	</g>
	<g>
		<path class="st1" d="M19.916,40c-2.481,0-4.5-2.019-4.5-4.5v-6c0-0.276,0.224-0.5,0.5-0.5h8c0.276,0,0.5,0.224,0.5,0.5v6
			C24.416,37.981,22.397,40,19.916,40z M16.416,30v5.5c0,1.93,1.57,3.5,3.5,3.5s3.5-1.57,3.5-3.5V30H16.416z"/>
	</g>
	<g>
		<path class="st21" d="M12.499,53.5c-0.276,0-0.5-0.224-0.5-0.5v-2.5c0-0.276,0.224-0.5,0.5-0.5s0.5,0.224,0.5,0.5V53
			C12.999,53.276,12.775,53.5,12.499,53.5z"/>
	</g>
	<g>
		<path class="st17" d="M32.499,53.5c-0.276,0-0.5-0.224-0.5-0.5v-2.5c0-0.276,0.224-0.5,0.5-0.5s0.5,0.224,0.5,0.5V53
			C32.999,53.276,32.775,53.5,32.499,53.5z"/>
	</g>
</g>
</svg>
