<?xml version="1.0" encoding="utf-8"?>
<!-- Generator: Adobe Illustrator 21.1.0, SVG Export Plug-In . SVG Version: 6.00 Build 0)  -->
<svg version="1.1" id="Layer_1" xmlns="http://www.w3.org/2000/svg" xmlns:xlink="http://www.w3.org/1999/xlink" x="0px" y="0px"
	 viewBox="0 0 64 64" style="enable-background:new 0 0 64 64;" xml:space="preserve">
<style type="text/css">
	.st0{fill:#DB8E11;}
	.st1{fill:#212A41;}
	.st2{fill:#F9AC2F;}
	.st3{fill:#FFCA4D;}
	.st4{fill:#B7C0D7;}
	.st5{fill:#99A2B9;}
	.st6{fill:#B51040;}
	.st7{fill:#D32E5E;}
	.st8{fill:#F14C7C;}
	.st9{fill:#0079A8;}
	.st10{fill:#1E97C6;}
	.st11{fill:#BED38E;}
	.st12{fill:#A0B570;}
	.st13{fill:#DCF1AC;}
	.st14{fill:#D5DEF5;}
	.st15{fill:#4E4B51;}
	.st16{fill:#6C696F;}
	.st17{fill:#848483;}
	.st18{fill:#A2A2A1;}
	.st19{fill:#7B849B;}
	.st20{fill:#8A878D;}
	.st21{fill:#C0C0BF;}
	.st22{fill:#005B8A;}
	.st23{fill:#970022;}
	.st24{fill:#1A237E;}
	.st25{fill:#BD7000;}
	.st26{fill:#003D6C;}
	.st27{fill:#666665;}
	.st28{fill:#195190;}
</style>
<g id="Satellite_Transmitter">
	<g>
		<path class="st18" d="M44,57H31.5v6.5H44c0.552,0,1-0.448,1-1V58C45,57.448,44.552,57,44,57z"/>
		<path class="st1" d="M44,64H31.5c-0.276,0-0.5-0.224-0.5-0.5V57c0-0.276,0.224-0.5,0.5-0.5H44c0.827,0,1.5,0.673,1.5,1.5v4.5
			C45.5,63.328,44.827,64,44,64z M32,63h12c0.276,0,0.5-0.224,0.5-0.5V58c0-0.276-0.224-0.5-0.5-0.5H32V63z"/>
	</g>
	<g>
		<ellipse transform="matrix(0.7071 -0.7071 0.7071 0.7071 -5.939 25.4818)" class="st4" cx="27.79" cy="19.91" rx="12" ry="24"/>
		<path class="st1" d="M39.195,39.393c-1.671,0-3.542-0.334-5.563-1.008c-4.88-1.627-10.094-5.049-14.681-9.636
			s-8.009-9.8-9.636-14.681C7.65,9.071,8.058,4.993,10.466,2.586c2.408-2.408,6.485-2.816,11.482-1.15
			c4.88,1.626,10.094,5.049,14.681,9.636s8.009,9.8,9.636,14.681c1.666,4.997,1.257,9.075-1.15,11.482
			C43.68,38.667,41.654,39.392,39.195,39.393z M16.385,1.425c-2.188,0-3.971,0.626-5.212,1.868
			c-2.125,2.125-2.448,5.84-0.909,10.458c1.579,4.736,4.915,9.811,9.394,14.29s9.554,7.815,14.29,9.394
			c4.619,1.54,8.333,1.217,10.458-0.909s2.448-5.84,0.909-10.458c-1.579-4.736-4.915-9.811-9.394-14.29l0,0
			c-4.479-4.479-9.554-7.815-14.29-9.394C19.71,1.744,17.944,1.425,16.385,1.425z"/>
	</g>
	<g>
		<path class="st5" d="M43.346,35.966c-0.128,0-0.256-0.049-0.354-0.146c-0.195-0.195-0.195-0.512,0-0.707
			c1.54-1.54,1.694-4.605,0.426-8.412c-1.482-4.447-4.647-9.245-8.911-13.508c-0.195-0.195-0.195-0.512,0-0.707s0.512-0.195,0.707,0
			c4.372,4.371,7.622,9.307,9.152,13.899c1.394,4.179,1.15,7.618-0.667,9.436C43.602,35.917,43.474,35.966,43.346,35.966z"/>
	</g>
	<g>
		<path class="st14" d="M20.719,27.481c-0.128,0-0.256-0.049-0.354-0.146c-4.372-4.372-7.622-9.308-9.152-13.899
			C9.819,9.256,10.063,5.817,11.88,4c0.195-0.195,0.512-0.195,0.707,0s0.195,0.512,0,0.707c-1.54,1.54-1.694,4.605-0.426,8.412
			c1.482,4.447,4.647,9.244,8.911,13.508c0.195,0.195,0.195,0.512,0,0.707C20.975,27.432,20.847,27.481,20.719,27.481z"/>
	</g>
	<g>
		<path class="st5" d="M19.305,28.395C9.932,19.023,6.133,7.626,10.819,2.939c-9.373,9.373-9.373,24.569,0,33.941
			c9.373,9.373,24.569,9.373,33.941,0C40.074,41.567,28.677,37.768,19.305,28.395z"/>
		<path class="st1" d="M27.79,44.398c-6.274,0-12.548-2.388-17.324-7.165c-9.553-9.552-9.553-25.096,0-34.648l0,0
			c0.195-0.195,0.512-0.195,0.707,0s0.195,0.512,0,0.707c-2.125,2.125-2.448,5.84-0.909,10.458c1.579,4.736,4.915,9.811,9.394,14.29
			c4.479,4.479,9.554,7.815,14.29,9.394c4.619,1.54,8.333,1.217,10.458-0.909l0,0c0.195-0.195,0.512-0.195,0.707,0
			s0.195,0.512,0,0.707l0,0C40.337,42.01,34.063,44.398,27.79,44.398z M8.484,6.506c-6.364,9.156-5.467,21.865,2.688,30.021
			c8.157,8.155,20.865,9.052,30.021,2.688c-2.121,0.399-4.69,0.127-7.562-0.831c-4.88-1.627-10.094-5.049-14.681-9.636
			s-8.009-9.8-9.636-14.681C8.358,11.196,8.086,8.628,8.484,6.506z"/>
	</g>
	<g>
		<path class="st2" d="M41.225,4.354l2.121,2.121L33.083,19.588c-1.31,1.674-3.79,1.825-5.294,0.322l0,0
			c-1.503-1.503-1.353-3.983,0.322-5.294L41.225,4.354z"/>
		<path class="st1" d="M30.294,21.447c-1.068,0-2.099-0.424-2.858-1.184c-0.818-0.817-1.247-1.948-1.176-3.103
			c0.07-1.154,0.633-2.225,1.543-2.938L40.917,3.96c0.199-0.156,0.482-0.139,0.662,0.04L43.7,6.121
			c0.179,0.179,0.196,0.462,0.04,0.662L33.477,19.896c-0.712,0.911-1.784,1.473-2.938,1.543
			C30.458,21.445,30.376,21.447,30.294,21.447z M41.184,5.02l-12.765,9.99c-0.686,0.537-1.109,1.343-1.162,2.211
			s0.27,1.72,0.885,2.335c0.615,0.616,1.468,0.938,2.335,0.885c0.869-0.053,1.675-0.476,2.211-1.161l9.99-12.765L41.184,5.02z"/>
	</g>
	<g>
		<ellipse transform="matrix(0.7071 -0.7071 0.7071 0.7071 9.971 32.0719)" class="st2" cx="43.7" cy="4" rx="3.5" ry="3.5"/>
		<path class="st1" d="M43.7,7.998c-1.024,0-2.049-0.39-2.829-1.17c-1.56-1.559-1.56-4.097,0-5.657c1.56-1.56,4.098-1.56,5.657,0
			c1.56,1.56,1.56,4.098,0,5.657C45.749,7.608,44.724,7.998,43.7,7.998z M43.7,1.001c-0.769,0-1.537,0.292-2.122,0.877
			c-1.169,1.17-1.169,3.073,0,4.243c1.17,1.17,3.073,1.17,4.243,0c1.169-1.169,1.169-3.073,0-4.243
			C45.236,1.294,44.468,1.001,43.7,1.001z"/>
	</g>
	<g>
		<polygon class="st18" points="19.5,50.5 9.499,50.5 9.499,29.5 14.5,29.5 19.5,34.5 		"/>
		<path class="st1" d="M19.5,51h-10c-0.276,0-0.5-0.224-0.5-0.5v-21c0-0.276,0.224-0.5,0.5-0.5h5c0.133,0,0.26,0.053,0.354,0.146
			l5,5C19.947,34.241,20,34.368,20,34.5v16C20,50.777,19.776,51,19.5,51z M9.999,50h9V34.708L14.292,30H9.999V50z"/>
	</g>
	<g>
		<path class="st17" d="M20,50.5H3c-1.381,0-2.5,1.119-2.5,2.5v9.5c0,0.552,0.448,1,1,1h20c0.552,0,1-0.448,1-1V53
			C22.5,51.62,21.38,50.5,20,50.5z"/>
		<path class="st1" d="M21.5,64h-20C0.672,64,0,63.328,0,62.5V53c0-1.654,1.346-3,3-3h17c1.654,0,3,1.346,3,3v9.5
			C23,63.328,22.327,64,21.5,64z M3,51c-1.103,0-2,0.897-2,2v9.5C1,62.776,1.224,63,1.5,63h20c0.276,0,0.5-0.224,0.5-0.5V53
			c0-1.103-0.897-2-2-2H3z"/>
	</g>
	<g>
		<path class="st18" d="M34,50.5H17c-1.381,0-2.5,1.119-2.5,2.5v9.5c0,0.552,0.448,1,1,1h20c0.552,0,1-0.448,1-1V53
			C36.5,51.62,35.38,50.5,34,50.5z"/>
		<path class="st1" d="M35.5,64h-20c-0.827,0-1.5-0.673-1.5-1.5V53c0-1.654,1.346-3,3-3h17c1.654,0,3,1.346,3,3v9.5
			C37,63.328,36.327,64,35.5,64z M17,51c-1.103,0-2,0.897-2,2v9.5c0,0.276,0.224,0.5,0.5,0.5h20c0.276,0,0.5-0.224,0.5-0.5V53
			c0-1.103-0.897-2-2-2H17z"/>
	</g>
	<g>
		<polygon class="st17" points="14.5,50.5 9.5,50.5 9.5,29.5 14.5,34.5 		"/>
		<path class="st1" d="M14.5,51h-5C9.223,51,9,50.777,9,50.5v-21c0-0.202,0.122-0.385,0.309-0.462
			c0.188-0.078,0.402-0.035,0.545,0.108l5,5C14.947,34.241,15,34.368,15,34.5v16C15,50.777,14.776,51,14.5,51z M10,50h4V34.708l-4-4
			V50z"/>
	</g>
	<g>
		<circle class="st6" cx="9.499" cy="36.5" r="2"/>
		<path class="st1" d="M9.499,39c-1.378,0-2.5-1.122-2.5-2.5s1.122-2.5,2.5-2.5s2.5,1.122,2.5,2.5S10.877,39,9.499,39z M9.499,35
			c-0.827,0-1.5,0.673-1.5,1.5s0.673,1.5,1.5,1.5s1.5-0.673,1.5-1.5S10.326,35,9.499,35z"/>
	</g>
	<g>
		<path class="st16" d="M53,52.5h-3c-0.552,0-1,0.448-1,1v9c0,0.552,0.448,1,1,1h3c0.552,0,1-0.448,1-1v-9
			C54,52.948,53.552,52.5,53,52.5z"/>
		<path class="st1" d="M53,64h-3c-0.827,0-1.5-0.673-1.5-1.5v-9c0-0.827,0.673-1.5,1.5-1.5h3c0.827,0,1.5,0.673,1.5,1.5v9
			C54.5,63.328,53.827,64,53,64z M50,53c-0.276,0-0.5,0.224-0.5,0.5v9c0,0.276,0.224,0.5,0.5,0.5h3c0.276,0,0.5-0.224,0.5-0.5v-9
			c0-0.276-0.224-0.5-0.5-0.5H50z"/>
	</g>
	<g>
		<path class="st18" d="M52,44.5h-1c-0.552,0-1,0.448-1,1v7h3v-7C53,44.948,52.552,44.5,52,44.5z"/>
		<path class="st1" d="M53,53h-3c-0.276,0-0.5-0.224-0.5-0.5v-7c0-0.827,0.673-1.5,1.5-1.5h1c0.827,0,1.5,0.673,1.5,1.5v7
			C53.5,52.777,53.276,53,53,53z M50.5,52h2v-6.5c0-0.276-0.224-0.5-0.5-0.5h-1c-0.276,0-0.5,0.224-0.5,0.5V52z"/>
	</g>
	<g>
		<path class="st16" d="M62.5,48.5h-3c-0.552,0-1,0.448-1,1v13c0,0.552,0.448,1,1,1h3c0.552,0,1-0.448,1-1v-13
			C63.5,48.948,63.052,48.5,62.5,48.5z"/>
		<path class="st1" d="M62.5,64h-3c-0.827,0-1.5-0.673-1.5-1.5v-13c0-0.827,0.673-1.5,1.5-1.5h3c0.827,0,1.5,0.673,1.5,1.5v13
			C64,63.328,63.327,64,62.5,64z M59.5,49c-0.276,0-0.5,0.224-0.5,0.5v13c0,0.276,0.224,0.5,0.5,0.5h3c0.276,0,0.5-0.224,0.5-0.5
			v-13c0-0.276-0.224-0.5-0.5-0.5H59.5z"/>
	</g>
	<g>
		<path class="st18" d="M61.5,33.5h-1c-0.552,0-1,0.448-1,1v14h3v-14C62.5,33.948,62.052,33.5,61.5,33.5z"/>
		<path class="st1" d="M62.5,49h-3c-0.276,0-0.5-0.224-0.5-0.5v-14c0-0.827,0.673-1.5,1.5-1.5h1c0.827,0,1.5,0.673,1.5,1.5v14
			C63,48.777,62.776,49,62.5,49z M60,48h2V34.5c0-0.276-0.224-0.5-0.5-0.5h-1c-0.276,0-0.5,0.224-0.5,0.5V48z"/>
	</g>
	<g>
		<rect x="22.5" y="55" class="st9" width="14" height="4"/>
	</g>
	<g>
		<path class="st21" d="M16.5,62c-0.276,0-0.5-0.224-0.5-0.5V53c0-0.276,0.224-0.5,0.5-0.5S17,52.724,17,53v8.5
			C17,61.777,16.776,62,16.5,62z"/>
	</g>
	<g>
		<path class="st18" d="M2.5,62C2.223,62,2,61.777,2,61.5V53c0-0.276,0.224-0.5,0.5-0.5S3,52.724,3,53v8.5C3,61.777,2.776,62,2.5,62
			z"/>
	</g>
	<g>
		<path class="st27" d="M12.5,62c-0.276,0-0.5-0.224-0.5-0.5V53c0-0.276,0.224-0.5,0.5-0.5S13,52.724,13,53v8.5
			C13,61.777,12.776,62,12.5,62z"/>
	</g>
	<g>
		<path class="st17" d="M34.5,62c-0.276,0-0.5-0.224-0.5-0.5V53c0-0.276,0.224-0.5,0.5-0.5S35,52.724,35,53v8.5
			C35,61.777,34.776,62,34.5,62z"/>
	</g>
	<g>
		<path class="st22" d="M34.5,59.5c-0.276,0-0.5-0.224-0.5-0.5v-4c0-0.276,0.224-0.5,0.5-0.5S35,54.724,35,55v4
			C35,59.277,34.776,59.5,34.5,59.5z"/>
	</g>
	<g>
		<path class="st1" d="M22.5,59.5h-22C0.223,59.5,0,59.277,0,59s0.224-0.5,0.5-0.5h22c0.276,0,0.5,0.224,0.5,0.5
			S22.776,59.5,22.5,59.5z"/>
	</g>
	<g>
		<path class="st1" d="M36.5,59.5h-14c-0.276,0-0.5-0.224-0.5-0.5v-4c0-0.276,0.224-0.5,0.5-0.5h14c0.276,0,0.5,0.224,0.5,0.5v4
			C37,59.277,36.776,59.5,36.5,59.5z M23,58.5h13v-3H23V58.5z"/>
	</g>
</g>
</svg>
