<?xml version="1.0" encoding="utf-8"?>
<!-- Generator: Adobe Illustrator 21.1.0, SVG Export Plug-In . SVG Version: 6.00 Build 0)  -->
<svg version="1.1" id="Layer_1" xmlns="http://www.w3.org/2000/svg" xmlns:xlink="http://www.w3.org/1999/xlink" x="0px" y="0px"
	 viewBox="0 0 64 64" style="enable-background:new 0 0 64 64;" xml:space="preserve">
<style type="text/css">
	.st0{fill:#DB8E11;}
	.st1{fill:#212A41;}
	.st2{fill:#F9AC2F;}
	.st3{fill:#FFCA4D;}
	.st4{fill:#B7C0D7;}
	.st5{fill:#99A2B9;}
	.st6{fill:#B51040;}
	.st7{fill:#D32E5E;}
	.st8{fill:#F14C7C;}
	.st9{fill:#0079A8;}
	.st10{fill:#1E97C6;}
	.st11{fill:#BED38E;}
	.st12{fill:#A0B570;}
	.st13{fill:#DCF1AC;}
	.st14{fill:#D5DEF5;}
	.st15{fill:#4E4B51;}
	.st16{fill:#6C696F;}
	.st17{fill:#848483;}
	.st18{fill:#A2A2A1;}
	.st19{fill:#7B849B;}
	.st20{fill:#8A878D;}
	.st21{fill:#C0C0BF;}
	.st22{fill:#005B8A;}
	.st23{fill:#970022;}
	.st24{fill:#1A237E;}
	.st25{fill:#BD7000;}
	.st26{fill:#003D6C;}
	.st27{fill:#666665;}
	.st28{fill:#195190;}
</style>
<g id="Satellite">
	<g>
		<path class="st17" d="M54,59.5h3l-8.658-23.089c-0.206-0.548-0.73-0.911-1.315-0.911h0c-0.981,0-1.659,0.979-1.315,1.898L54,59.5z
			"/>
		<path class="st1" d="M57,60h-3c-0.208,0-0.395-0.129-0.468-0.324l-8.288-22.103c-0.22-0.584-0.139-1.24,0.217-1.753
			S46.401,35,47.026,35c0.789,0,1.506,0.497,1.783,1.235l8.658,23.089c0.058,0.154,0.036,0.326-0.057,0.46
			C57.317,59.919,57.164,60,57,60z M54.347,59h1.932l-8.404-22.413c-0.237-0.632-1.206-0.752-1.591-0.198
			c-0.171,0.248-0.209,0.551-0.104,0.833L54.347,59z"/>
	</g>
	<g>
		<circle class="st4" cx="55.5" cy="59.5" r="3.5"/>
		<path class="st1" d="M55.5,63.5c-2.206,0-4-1.794-4-4s1.794-4,4-4s4,1.794,4,4S57.706,63.5,55.5,63.5z M55.5,56.5
			c-1.654,0-3,1.346-3,3s1.346,3,3,3s3-1.346,3-3S57.154,56.5,55.5,56.5z"/>
	</g>
	<g>
		<circle class="st4" cx="32" cy="24" r="23"/>
		<path class="st1" d="M32,47.5C19.042,47.5,8.5,36.958,8.5,24S19.042,0.5,32,0.5S55.5,11.042,55.5,24S44.958,47.5,32,47.5z M32,1.5
			C19.593,1.5,9.5,11.593,9.5,24S19.593,46.5,32,46.5c12.406,0,22.5-10.093,22.5-22.5S44.406,1.5,32,1.5z"/>
	</g>
	<g>
		<path class="st5" d="M32,45.5c-0.276,0-0.5-0.224-0.5-0.5s0.224-0.5,0.5-0.5c11.304,0,20.5-9.196,20.5-20.5
			c0-0.276,0.224-0.5,0.5-0.5s0.5,0.224,0.5,0.5C53.5,35.855,43.855,45.5,32,45.5z"/>
	</g>
	<g>
		<path class="st5" d="M19,24c0-10.985,7.703-20.165,18-22.449C35.39,1.194,33.718,1,32,1C19.297,1,9,11.297,9,24
			c0,12.703,10.297,23,23,23c1.718,0,3.39-0.194,5-0.551C26.703,44.165,19,34.985,19,24z"/>
		<path class="st1" d="M32,47.5C19.042,47.5,8.5,36.958,8.5,24S19.042,0.5,32,0.5c1.704,0,3.423,0.189,5.108,0.563
			C37.337,1.114,37.5,1.317,37.5,1.551s-0.163,0.438-0.392,0.488C26.905,4.302,19.5,13.538,19.5,24
			c0,10.461,7.405,19.697,17.608,21.96c0.229,0.051,0.392,0.254,0.392,0.488s-0.163,0.438-0.392,0.488
			C35.423,47.311,33.704,47.5,32,47.5z M32,1.5C19.593,1.5,9.5,11.593,9.5,24S19.593,46.5,32,46.5c0.898,0,1.801-0.055,2.699-0.164
			C25.19,43.217,18.5,34.162,18.5,24c0-10.163,6.69-19.217,16.199-22.336C33.8,1.555,32.898,1.5,32,1.5z"/>
	</g>
	<g>
		<path class="st4" d="M11,24.5c-0.276,0-0.5-0.224-0.5-0.5c0-10.209,7.261-19.075,17.266-21.081
			c0.269-0.056,0.534,0.121,0.588,0.392c0.054,0.271-0.121,0.534-0.392,0.588C18.423,5.812,11.5,14.266,11.5,24
			C11.5,24.276,11.276,24.5,11,24.5z"/>
	</g>
	<g>
		<path class="st2" d="M10.432,32h43.136c0.703-1.895,1.159-3.908,1.34-6H9.092C9.272,28.092,9.729,30.105,10.432,32z"/>
	</g>
	<g>
		<path class="st0" d="M10.432,32h10.006c-0.704-1.895-1.17-3.906-1.351-6H9.092C9.272,28.092,9.729,30.105,10.432,32z"/>
		<path class="st1" d="M20.438,32.5H10.432c-0.209,0-0.396-0.13-0.469-0.326c-0.726-1.957-1.187-4.02-1.369-6.131
			c-0.012-0.14,0.035-0.278,0.129-0.381C8.818,25.559,8.952,25.5,9.092,25.5h9.996c0.26,0,0.476,0.199,0.498,0.457
			c0.172,1.997,0.616,3.972,1.321,5.869c0.057,0.154,0.035,0.325-0.058,0.46C20.755,32.42,20.602,32.5,20.438,32.5z M10.782,31.5
			h8.948c-0.549-1.627-0.917-3.305-1.097-5h-8.99C9.833,28.216,10.215,29.894,10.782,31.5z"/>
	</g>
	<g>
		<circle class="st9" cx="41" cy="15" r="5"/>
		<path class="st1" d="M41,20.5c-3.032,0-5.5-2.467-5.5-5.5s2.468-5.5,5.5-5.5s5.5,2.467,5.5,5.5S44.032,20.5,41,20.5z M41,10.5
			c-2.481,0-4.5,2.019-4.5,4.5s2.019,4.5,4.5,4.5s4.5-2.019,4.5-4.5S43.481,10.5,41,10.5z"/>
	</g>
	<g>
		<path class="st17" d="M10,59.5H7l8.658-23.089c0.206-0.548,0.73-0.911,1.315-0.911h0c0.981,0,1.659,0.979,1.315,1.898L10,59.5z"/>
		<path class="st1" d="M10,60H7c-0.164,0-0.317-0.081-0.411-0.215c-0.093-0.135-0.115-0.307-0.057-0.46l8.658-23.089
			C15.467,35.497,16.184,35,16.973,35c0.625,0,1.21,0.307,1.566,0.82c0.355,0.513,0.437,1.168,0.218,1.753l-8.289,22.103
			C10.395,59.871,10.208,60,10,60z M7.722,59h1.932l8.167-21.778c0.106-0.282,0.068-0.585-0.104-0.833
			c-0.385-0.555-1.354-0.435-1.59,0.198L7.722,59z"/>
	</g>
	<g>
		<path class="st18" d="M34.188,59.5h-3V37c0-0.828,0.672-1.5,1.5-1.5l0,0c0.828,0,1.5,0.672,1.5,1.5V59.5z"/>
		<path class="st1" d="M34.188,60h-3c-0.276,0-0.5-0.224-0.5-0.5V37c0-1.103,0.897-2,2-2c1.103,0,2,0.897,2,2v22.5
			C34.688,59.776,34.464,60,34.188,60z M31.688,59h2V37c0-0.551-0.448-1-1-1c-0.551,0-1,0.449-1,1V59z"/>
	</g>
	<g>
		<circle class="st4" cx="32.688" cy="59.5" r="3.5"/>
		<path class="st1" d="M32.688,63.5c-2.206,0-4-1.794-4-4s1.794-4,4-4c2.206,0,4,1.794,4,4S34.894,63.5,32.688,63.5z M32.688,56.5
			c-1.654,0-3,1.346-3,3s1.346,3,3,3s3-1.346,3-3S34.342,56.5,32.688,56.5z"/>
	</g>
	<g>
		<circle class="st4" cx="8.5" cy="59.5" r="3.5"/>
		<path class="st1" d="M8.5,63.5c-2.206,0-4-1.794-4-4s1.794-4,4-4s4,1.794,4,4S10.706,63.5,8.5,63.5z M8.5,56.5
			c-1.654,0-3,1.346-3,3s1.346,3,3,3s3-1.346,3-3S10.154,56.5,8.5,56.5z"/>
	</g>
	<g>
		<path class="st0" d="M51.417,32.5c-0.063,0-0.129-0.012-0.19-0.038c-0.256-0.105-0.377-0.397-0.271-0.653
			c0.773-1.872,1.262-3.842,1.452-5.857c0.026-0.276,0.293-0.484,0.545-0.451c0.275,0.026,0.477,0.27,0.451,0.544
			c-0.2,2.114-0.713,4.181-1.524,6.145C51.8,32.384,51.613,32.5,51.417,32.5z"/>
	</g>
	<g>
		<path class="st1" d="M53.568,32.5H10.432c-0.209,0-0.396-0.13-0.469-0.326c-0.727-1.959-1.187-4.022-1.369-6.131
			c-0.012-0.14,0.035-0.278,0.13-0.381C8.818,25.559,8.952,25.5,9.092,25.5h45.816c0.14,0,0.273,0.059,0.368,0.162
			c0.095,0.103,0.142,0.241,0.13,0.381c-0.183,2.111-0.643,4.174-1.369,6.131C53.965,32.37,53.777,32.5,53.568,32.5z M10.782,31.5
			h42.436c0.567-1.606,0.949-3.284,1.139-5H9.644C9.833,28.214,10.215,29.892,10.782,31.5z"/>
	</g>
	<g>
		<circle class="st18" cx="54.5" cy="4.5" r="2"/>
		<path class="st1" d="M54.5,7C53.121,7,52,5.878,52,4.5S53.121,2,54.5,2S57,3.122,57,4.5S55.879,7,54.5,7z M54.5,3
			C53.673,3,53,3.673,53,4.5S53.673,6,54.5,6S56,5.327,56,4.5S55.327,3,54.5,3z"/>
	</g>
	<g>
		<path class="st1" d="M4.5,38C4.224,38,4,37.776,4,37.5v-5C4,32.224,4.224,32,4.5,32S5,32.224,5,32.5v5C5,37.776,4.776,38,4.5,38z"
			/>
	</g>
	<g>
		<path class="st1" d="M7,35.5H2c-0.276,0-0.5-0.224-0.5-0.5s0.224-0.5,0.5-0.5h5c0.276,0,0.5,0.224,0.5,0.5S7.276,35.5,7,35.5z"/>
	</g>
	<g>
		<path class="st1" d="M59.5,20.5c-0.276,0-0.5-0.224-0.5-0.5v-5c0-0.276,0.224-0.5,0.5-0.5S60,14.724,60,15v5
			C60,20.276,59.776,20.5,59.5,20.5z"/>
	</g>
	<g>
		<path class="st1" d="M62,18h-5c-0.276,0-0.5-0.224-0.5-0.5S56.724,17,57,17h5c0.276,0,0.5,0.224,0.5,0.5S62.276,18,62,18z"/>
	</g>
</g>
</svg>
