<?xml version="1.0" encoding="utf-8"?>
<!-- Generator: Adobe Illustrator 21.1.0, SVG Export Plug-In . SVG Version: 6.00 Build 0)  -->
<svg version="1.1" id="Layer_1" xmlns="http://www.w3.org/2000/svg" xmlns:xlink="http://www.w3.org/1999/xlink" x="0px" y="0px"
	 viewBox="0 0 64 64" style="enable-background:new 0 0 64 64;" xml:space="preserve">
<style type="text/css">
	.st0{fill:#DB8E11;}
	.st1{fill:#212A41;}
	.st2{fill:#F9AC2F;}
	.st3{fill:#FFCA4D;}
	.st4{fill:#B7C0D7;}
	.st5{fill:#99A2B9;}
	.st6{fill:#B51040;}
	.st7{fill:#D32E5E;}
	.st8{fill:#F14C7C;}
	.st9{fill:#0079A8;}
	.st10{fill:#1E97C6;}
	.st11{fill:#BED38E;}
	.st12{fill:#A0B570;}
	.st13{fill:#DCF1AC;}
	.st14{fill:#D5DEF5;}
	.st15{fill:#4E4B51;}
	.st16{fill:#6C696F;}
	.st17{fill:#848483;}
	.st18{fill:#A2A2A1;}
	.st19{fill:#7B849B;}
	.st20{fill:#8A878D;}
	.st21{fill:#C0C0BF;}
	.st22{fill:#005B8A;}
	.st23{fill:#970022;}
	.st24{fill:#1A237E;}
	.st25{fill:#BD7000;}
	.st26{fill:#003D6C;}
	.st27{fill:#666665;}
	.st28{fill:#195190;}
</style>
<g id="Saturn_Ring">
	<g>
		<path class="st1" d="M7,60c-0.276,0-0.5-0.224-0.5-0.5v-5C6.5,54.224,6.724,54,7,54s0.5,0.224,0.5,0.5v5C7.5,59.777,7.276,60,7,60
			z"/>
	</g>
	<g>
		<path class="st1" d="M9.5,57.5h-5C4.224,57.5,4,57.277,4,57s0.224-0.5,0.5-0.5h5c0.276,0,0.5,0.224,0.5,0.5S9.776,57.5,9.5,57.5z"
			/>
	</g>
	<g>
		<path class="st1" d="M57,10c-0.276,0-0.5-0.224-0.5-0.5v-5C56.5,4.224,56.724,4,57,4s0.5,0.224,0.5,0.5v5
			C57.5,9.777,57.276,10,57,10z"/>
	</g>
	<g>
		<path class="st1" d="M59.5,7.5h-5C54.224,7.5,54,7.277,54,7s0.224-0.5,0.5-0.5h5C59.776,6.5,60,6.724,60,7S59.776,7.5,59.5,7.5z"
			/>
	</g>
	<g>
		<circle class="st4" cx="32" cy="32.001" r="23"/>
		<path class="st1" d="M32,55.5C19.042,55.5,8.5,44.958,8.5,32S19.042,8.5,32,8.5S55.5,19.042,55.5,32S44.958,55.5,32,55.5z M32,9.5
			C19.594,9.5,9.5,19.594,9.5,32S19.594,54.5,32,54.5S54.5,44.407,54.5,32S44.406,9.5,32,9.5z"/>
	</g>
	<g>
		<path class="st5" d="M32,53.5c-0.276,0-0.5-0.224-0.5-0.5s0.224-0.5,0.5-0.5c11.304,0,20.5-9.196,20.5-20.5
			c0-0.276,0.224-0.5,0.5-0.5s0.5,0.224,0.5,0.5C53.5,43.855,43.855,53.5,32,53.5z"/>
	</g>
	<g>
		<path class="st5" d="M19,32.001c0-10.985,7.703-20.165,18-22.449c-1.61-0.357-3.282-0.551-5-0.551c-12.703,0-23,10.297-23,23
			c0,12.703,10.297,23,23,23c1.718,0,3.39-0.194,5-0.551C26.703,52.165,19,42.985,19,32.001z"/>
		<path class="st1" d="M32,55.5C19.042,55.5,8.5,44.958,8.5,32S19.042,8.5,32,8.5c1.705,0,3.423,0.189,5.108,0.563
			C37.337,9.115,37.5,9.318,37.5,9.552s-0.163,0.438-0.392,0.488C26.905,12.303,19.5,21.539,19.5,32s7.405,19.698,17.608,21.96
			c0.229,0.051,0.392,0.254,0.392,0.488s-0.163,0.438-0.392,0.488C35.425,55.311,33.706,55.5,32,55.5z M32,9.5
			C19.594,9.5,9.5,19.594,9.5,32S19.594,54.5,32,54.5c0.898,0,1.801-0.055,2.7-0.164C25.19,51.218,18.5,42.163,18.5,32
			s6.69-19.217,16.2-22.335C33.801,9.556,32.898,9.5,32,9.5z"/>
	</g>
	<g>
		<path class="st4" d="M11,32.5c-0.276,0-0.5-0.224-0.5-0.5c0-10.208,7.262-19.074,17.266-21.081
			c0.266-0.056,0.534,0.12,0.589,0.392c0.055,0.271-0.121,0.534-0.392,0.588C18.424,13.813,11.5,22.267,11.5,32
			C11.5,32.277,11.276,32.5,11,32.5z"/>
	</g>
	<g>
		<path class="st2" d="M60.659,26.91L4.635,41.921c-1.334,0.357-2.705-0.434-3.062-1.768l0,0c-0.357-1.334,0.434-2.705,1.768-3.062
			L59.365,22.08c1.334-0.357,2.705,0.434,3.062,1.768v0C62.784,25.182,61.993,26.552,60.659,26.91z"/>
		<path class="st1" d="M3.983,42.508c-0.521,0-1.033-0.136-1.495-0.403c-0.694-0.4-1.19-1.048-1.398-1.822
			c-0.207-0.774-0.101-1.583,0.3-2.276c0.401-0.694,1.048-1.19,1.822-1.397l56.023-15.012c0.778-0.208,1.584-0.1,2.276,0.3
			c0.694,0.4,1.19,1.047,1.398,1.821c0.428,1.598-0.523,3.246-2.121,3.674l0,0L4.765,42.404C4.506,42.474,4.243,42.508,3.983,42.508
			z M60.016,22.494c-0.174,0-0.349,0.022-0.521,0.069L3.471,37.575c-0.517,0.138-0.947,0.469-1.215,0.932
			c-0.267,0.463-0.338,1.001-0.199,1.518c0.138,0.516,0.469,0.948,0.932,1.215s1.004,0.339,1.517,0.2l56.024-15.012
			c1.065-0.286,1.7-1.385,1.414-2.45c-0.138-0.516-0.469-0.947-0.932-1.214C60.704,22.585,60.361,22.494,60.016,22.494z
			 M60.659,26.91h0.01H60.659z"/>
	</g>
	<g>
		<circle class="st9" cx="40" cy="19.501" r="3"/>
		<path class="st1" d="M40,23c-1.93,0-3.5-1.57-3.5-3.5S38.07,16,40,16s3.5,1.57,3.5,3.5S41.93,23,40,23z M40,17
			c-1.379,0-2.5,1.122-2.5,2.5S38.621,22,40,22s2.5-1.122,2.5-2.5S41.379,17,40,17z"/>
	</g>
	<g>
		<circle class="st9" cx="22.5" cy="20.501" r="2"/>
		<path class="st1" d="M22.5,23c-1.379,0-2.5-1.122-2.5-2.5s1.121-2.5,2.5-2.5s2.5,1.122,2.5,2.5S23.879,23,22.5,23z M22.5,19
			c-0.827,0-1.5,0.673-1.5,1.5s0.673,1.5,1.5,1.5s1.5-0.673,1.5-1.5S23.327,19,22.5,19z"/>
	</g>
	<g>
		<circle class="st4" cx="4.5" cy="19.501" r="2"/>
		<path class="st1" d="M4.5,22C3.121,22,2,20.879,2,19.5S3.121,17,4.5,17S7,18.122,7,19.5S5.879,22,4.5,22z M4.5,18
			C3.673,18,3,18.673,3,19.5S3.673,21,4.5,21S6,20.328,6,19.5S5.327,18,4.5,18z"/>
	</g>
	<g>
		<circle class="st4" cx="17" cy="5.501" r="2"/>
		<path class="st1" d="M17,8c-1.379,0-2.5-1.122-2.5-2.5S15.621,3,17,3s2.5,1.122,2.5,2.5S18.379,8,17,8z M17,4
			c-0.827,0-1.5,0.673-1.5,1.5S16.173,7,17,7s1.5-0.673,1.5-1.5S17.827,4,17,4z"/>
	</g>
	<g>
		<circle class="st4" cx="55" cy="55.501" r="3"/>
		<path class="st1" d="M55,59c-1.93,0-3.5-1.57-3.5-3.5S53.07,52,55,52s3.5,1.57,3.5,3.5S56.93,59,55,59z M55,53
			c-1.379,0-2.5,1.122-2.5,2.5S53.621,58,55,58s2.5-1.122,2.5-2.5S56.379,53,55,53z"/>
	</g>
	<g>
		<circle class="st9" cx="35.5" cy="43.001" r="2"/>
		<path class="st1" d="M35.5,45.5c-1.379,0-2.5-1.122-2.5-2.5s1.121-2.5,2.5-2.5S38,41.622,38,43S36.879,45.5,35.5,45.5z M35.5,41.5
			c-0.827,0-1.5,0.673-1.5,1.5s0.673,1.5,1.5,1.5S37,43.828,37,43S36.327,41.5,35.5,41.5z"/>
	</g>
</g>
</svg>
