<?xml version="1.0" encoding="utf-8"?>
<!-- Generator: Adobe Illustrator 21.1.0, SVG Export Plug-In . SVG Version: 6.00 Build 0)  -->
<svg version="1.1" id="Layer_1" xmlns="http://www.w3.org/2000/svg" xmlns:xlink="http://www.w3.org/1999/xlink" x="0px" y="0px"
	 viewBox="0 0 64 64" style="enable-background:new 0 0 64 64;" xml:space="preserve">
<style type="text/css">
	.st0{fill:#DB8E11;}
	.st1{fill:#212A41;}
	.st2{fill:#F9AC2F;}
	.st3{fill:#FFCA4D;}
	.st4{fill:#B7C0D7;}
	.st5{fill:#99A2B9;}
	.st6{fill:#B51040;}
	.st7{fill:#D32E5E;}
	.st8{fill:#F14C7C;}
	.st9{fill:#0079A8;}
	.st10{fill:#1E97C6;}
	.st11{fill:#BED38E;}
	.st12{fill:#A0B570;}
	.st13{fill:#DCF1AC;}
	.st14{fill:#D5DEF5;}
	.st15{fill:#4E4B51;}
	.st16{fill:#6C696F;}
	.st17{fill:#848483;}
	.st18{fill:#A2A2A1;}
	.st19{fill:#7B849B;}
	.st20{fill:#8A878D;}
	.st21{fill:#C0C0BF;}
	.st22{fill:#005B8A;}
	.st23{fill:#970022;}
	.st24{fill:#1A237E;}
	.st25{fill:#BD7000;}
	.st26{fill:#003D6C;}
	.st27{fill:#666665;}
	.st28{fill:#195190;}
</style>
<g id="Solar_System">
	<g>
		<path class="st1" d="M33,63.5C17.285,63.5,4.5,50.715,4.5,35S17.285,6.5,33,6.5S61.5,19.285,61.5,35S48.715,63.5,33,63.5z M33,7.5
			C17.836,7.5,5.5,19.836,5.5,35S17.836,62.5,33,62.5S60.5,50.164,60.5,35S48.164,7.5,33,7.5z"/>
	</g>
	<g>
		<path class="st1" d="M10.5,35.5c-0.276,0-0.5-0.224-0.5-0.5c0-12.682,10.318-23,23-23c0.276,0,0.5,0.224,0.5,0.5S33.276,13,33,13
			c-12.131,0-22,9.869-22,22C11,35.276,10.776,35.5,10.5,35.5z"/>
	</g>
	<g>
		<path class="st1" d="M33,58c-0.276,0-0.5-0.224-0.5-0.5S32.724,57,33,57c12.131,0,22-9.869,22-22c0-0.276,0.224-0.5,0.5-0.5
			S56,34.724,56,35C56,47.682,45.682,58,33,58z"/>
	</g>
	<g>
		<circle class="st7" cx="55" cy="17.5" r="5"/>
		<path class="st1" d="M55,23c-3.033,0-5.5-2.467-5.5-5.5S51.967,12,55,12s5.5,2.467,5.5,5.5S58.033,23,55,23z M55,13
			c-2.481,0-4.5,2.019-4.5,4.5S52.519,22,55,22s4.5-2.019,4.5-4.5S57.481,13,55,13z"/>
	</g>
	<g>
		<path class="st8" d="M52,18c-0.276,0-0.5-0.224-0.5-0.5c0-1.93,1.57-3.5,3.5-3.5c0.276,0,0.5,0.224,0.5,0.5S55.276,15,55,15
			c-1.378,0-2.5,1.122-2.5,2.5C52.5,17.776,52.276,18,52,18z"/>
	</g>
	<g>
		<path class="st6" d="M55,21c-0.276,0-0.5-0.224-0.5-0.5S54.724,20,55,20c1.378,0,2.5-1.122,2.5-2.5c0-0.276,0.224-0.5,0.5-0.5
			s0.5,0.224,0.5,0.5C58.5,19.43,56.93,21,55,21z"/>
	</g>
	<g>
		<circle class="st9" cx="8" cy="52" r="5"/>
		<path class="st1" d="M8,57.5c-3.033,0-5.5-2.467-5.5-5.5s2.467-5.5,5.5-5.5s5.5,2.467,5.5,5.5S11.033,57.5,8,57.5z M8,47.5
			c-2.481,0-4.5,2.019-4.5,4.5s2.019,4.5,4.5,4.5s4.5-2.019,4.5-4.5S10.481,47.5,8,47.5z"/>
	</g>
	<g>
		<path class="st10" d="M5,52.5c-0.276,0-0.5-0.224-0.5-0.5c0-1.93,1.57-3.5,3.5-3.5c0.276,0,0.5,0.224,0.5,0.5S8.276,49.5,8,49.5
			c-1.378,0-2.5,1.122-2.5,2.5C5.5,52.276,5.276,52.5,5,52.5z"/>
	</g>
	<g>
		<path class="st22" d="M8,55.5c-0.276,0-0.5-0.224-0.5-0.5s0.224-0.5,0.5-0.5c1.378,0,2.5-1.122,2.5-2.5c0-0.276,0.224-0.5,0.5-0.5
			s0.5,0.224,0.5,0.5C11.5,53.93,9.93,55.5,8,55.5z"/>
	</g>
	<g>
		<circle class="st4" cx="55" cy="57" r="6"/>
		<path class="st1" d="M55,63.5c-3.584,0-6.5-2.916-6.5-6.5s2.916-6.5,6.5-6.5s6.5,2.916,6.5,6.5S58.584,63.5,55,63.5z M55,51.5
			c-3.033,0-5.5,2.467-5.5,5.5s2.467,5.5,5.5,5.5s5.5-2.467,5.5-5.5S58.033,51.5,55,51.5z"/>
	</g>
	<g>
		<path class="st14" d="M51,57.5c-0.276,0-0.5-0.224-0.5-0.5c0-2.481,2.019-4.5,4.5-4.5c0.276,0,0.5,0.224,0.5,0.5
			s-0.224,0.5-0.5,0.5c-1.93,0-3.5,1.57-3.5,3.5C51.5,57.276,51.276,57.5,51,57.5z"/>
	</g>
	<g>
		<path class="st5" d="M55,61.5c-0.276,0-0.5-0.224-0.5-0.5s0.224-0.5,0.5-0.5c1.93,0,3.5-1.57,3.5-3.5c0-0.276,0.224-0.5,0.5-0.5
			s0.5,0.224,0.5,0.5C59.5,59.481,57.481,61.5,55,61.5z"/>
	</g>
	<g>
		<g>
			<g>
				<path class="st2" d="M33,17c1.833,0,3.289,2.242,4.944,2.781c1.713,0.558,4.206-0.378,5.634,0.662
					c1.441,1.05,1.314,3.717,2.363,5.158c1.04,1.427,3.622,2.123,4.18,3.837C50.659,31.092,49,33.167,49,35
					c0,1.833,1.659,3.908,1.12,5.563c-0.558,1.713-3.14,2.409-4.18,3.837c-1.05,1.441-0.923,4.108-2.364,5.158
					c-1.427,1.04-3.92,0.104-5.633,0.662C36.288,50.758,34.832,53,33,53c-1.833,0-3.289-2.242-4.944-2.781
					c-1.713-0.558-4.206,0.378-5.634-0.662c-1.441-1.05-1.314-3.717-2.363-5.158c-1.04-1.427-3.622-2.123-4.18-3.837
					C15.341,38.908,17,36.832,17,35c0-1.833-1.659-3.908-1.12-5.563c0.558-1.713,3.14-2.409,4.18-3.837
					c1.05-1.441,0.923-4.108,2.364-5.158c1.427-1.04,3.92-0.104,5.633-0.662C29.712,19.242,31.168,17,33,17"/>
			</g>
		</g>
		<g>
			<g>
				<path class="st1" d="M33,53.5c-1.233,0-2.244-0.81-3.221-1.593c-0.65-0.521-1.265-1.014-1.877-1.213
					c-0.652-0.212-1.464-0.179-2.325-0.143c-1.225,0.052-2.495,0.104-3.448-0.59c-0.963-0.702-1.304-1.931-1.633-3.12
					c-0.228-0.824-0.443-1.603-0.84-2.147c-0.39-0.535-1.058-0.974-1.765-1.439c-1.038-0.682-2.112-1.387-2.486-2.537
					c-0.359-1.102,0.08-2.28,0.504-3.42C16.199,36.515,16.5,35.706,16.5,35c0-0.707-0.301-1.516-0.592-2.298
					c-0.424-1.14-0.862-2.318-0.504-3.42c0.375-1.15,1.448-1.855,2.487-2.538c0.707-0.465,1.375-0.904,1.765-1.438
					c0.397-0.545,0.613-1.324,0.841-2.148c0.329-1.188,0.669-2.418,1.633-3.12c0.954-0.694,2.221-0.643,3.449-0.59
					c0.86,0.037,1.673,0.07,2.324-0.143c0.613-0.199,1.227-0.692,1.877-1.213C30.756,17.31,31.767,16.5,33,16.5
					s2.244,0.81,3.221,1.593c0.65,0.521,1.265,1.014,1.877,1.213c0.653,0.212,1.465,0.178,2.325,0.143
					c1.228-0.05,2.496-0.104,3.449,0.59c0.963,0.702,1.304,1.932,1.633,3.121c0.228,0.824,0.443,1.602,0.84,2.147
					c0.39,0.535,1.058,0.974,1.765,1.439c1.038,0.682,2.112,1.388,2.486,2.537c0.359,1.102-0.08,2.28-0.504,3.42
					C49.801,33.485,49.5,34.294,49.5,35c0,0.707,0.301,1.515,0.592,2.298c0.424,1.14,0.862,2.318,0.504,3.42
					c-0.375,1.149-1.448,1.854-2.486,2.537c-0.708,0.465-1.375,0.904-1.765,1.439c-0.397,0.545-0.613,1.324-0.841,2.147
					c-0.329,1.189-0.669,2.418-1.633,3.12c-0.953,0.695-2.22,0.642-3.448,0.59c-0.861-0.036-1.673-0.069-2.325,0.143
					c-0.613,0.199-1.227,0.692-1.877,1.213C35.244,52.69,34.233,53.5,33,53.5z M26.51,49.525c0.589,0,1.17,0.045,1.701,0.218
					c0.786,0.256,1.501,0.83,2.193,1.384C31.286,51.833,32.118,52.5,33,52.5s1.714-0.667,2.596-1.373
					c0.691-0.554,1.407-1.127,2.193-1.384c0.825-0.268,1.767-0.229,2.676-0.191c1.104,0.047,2.146,0.089,2.817-0.399
					c0.682-0.496,0.961-1.507,1.258-2.578c0.242-0.874,0.492-1.778,0.996-2.47c0.497-0.682,1.273-1.192,2.025-1.686
					c0.935-0.615,1.818-1.195,2.084-2.011c0.251-0.77-0.109-1.738-0.49-2.762C48.833,36.781,48.5,35.886,48.5,35
					s0.333-1.781,0.655-2.646c0.381-1.024,0.741-1.992,0.49-2.762c-0.266-0.816-1.149-1.396-2.084-2.011
					c-0.75-0.494-1.527-1.004-2.024-1.686c-0.504-0.692-0.754-1.596-0.996-2.469c-0.296-1.071-0.576-2.082-1.258-2.579
					c-0.671-0.49-1.714-0.445-2.818-0.4c-0.911,0.039-1.851,0.078-2.676-0.19c-0.786-0.256-1.501-0.83-2.193-1.384
					C34.714,18.167,33.882,17.5,33,17.5s-1.714,0.667-2.596,1.373c-0.691,0.554-1.407,1.127-2.193,1.384
					c-0.823,0.269-1.764,0.229-2.676,0.19c-1.103-0.045-2.147-0.09-2.818,0.4c-0.682,0.496-0.961,1.507-1.258,2.578
					c-0.242,0.874-0.492,1.778-0.996,2.47c-0.497,0.682-1.273,1.192-2.024,1.685c-0.936,0.615-1.819,1.196-2.085,2.012
					c-0.25,0.77,0.109,1.737,0.49,2.762C17.167,33.219,17.5,34.114,17.5,35s-0.333,1.781-0.655,2.646
					c-0.381,1.024-0.741,1.992-0.49,2.762c0.266,0.816,1.149,1.396,2.084,2.011c0.751,0.493,1.527,1.003,2.024,1.686
					c0.504,0.692,0.754,1.596,0.996,2.469c0.296,1.071,0.576,2.083,1.258,2.579c0.671,0.49,1.715,0.445,2.818,0.4
					C25.858,49.539,26.186,49.525,26.51,49.525z"/>
			</g>
		</g>
	</g>
	<g>
		<path class="st1" d="M33,47.5c-6.893,0-12.5-5.607-12.5-12.5S26.107,22.5,33,22.5S45.5,28.107,45.5,35S39.893,47.5,33,47.5z
			 M33,23.5c-6.341,0-11.5,5.159-11.5,11.5S26.659,46.5,33,46.5S44.5,41.341,44.5,35S39.341,23.5,33,23.5z"/>
	</g>
	<g>
		<path class="st0" d="M33,45.5c-0.276,0-0.5-0.224-0.5-0.5s0.224-0.5,0.5-0.5c5.238,0,9.5-4.262,9.5-9.5c0-0.276,0.224-0.5,0.5-0.5
			s0.5,0.224,0.5,0.5C43.5,40.79,38.79,45.5,33,45.5z"/>
	</g>
	<g>
		<path class="st0" d="M26,35c0-5.77,4.073-10.585,9.5-11.735C34.693,23.094,33.858,23,33,23c-6.627,0-12,5.373-12,12
			c0,6.627,5.373,12,12,12c0.858,0,1.693-0.094,2.5-0.265C30.073,45.584,26,40.769,26,35z"/>
		<path class="st1" d="M33,47.5c-6.893,0-12.5-5.607-12.5-12.5S26.107,22.5,33,22.5c0.865,0,1.741,0.093,2.604,0.275
			C35.834,22.824,36,23.028,36,23.265s-0.165,0.44-0.396,0.489C30.329,24.873,26.5,29.602,26.5,35s3.829,10.127,9.104,11.246
			C35.834,46.295,36,46.499,36,46.735c0,0.236-0.165,0.44-0.396,0.489C34.742,47.407,33.866,47.5,33,47.5z M33,23.5
			c-6.341,0-11.5,5.159-11.5,11.5S26.659,46.5,33,46.5c0.036,0,0.071,0,0.106,0C28.587,44.567,25.5,40.053,25.5,35
			c0-5.053,3.086-9.567,7.605-11.5C33.07,23.5,33.035,23.5,33,23.5z"/>
	</g>
	<g>
		<path class="st2" d="M23,35.5c-0.276,0-0.5-0.224-0.5-0.5c0-2.802,1.094-5.438,3.081-7.424c0.195-0.195,0.512-0.195,0.707,0
			s0.195,0.512,0,0.707C24.49,30.08,23.5,32.466,23.5,35C23.5,35.276,23.276,35.5,23,35.5z"/>
	</g>
	<g>
		<circle class="st18" cx="12" cy="15.5" r="3"/>
		<path class="st1" d="M12,19c-1.93,0-3.5-1.57-3.5-3.5S10.07,12,12,12s3.5,1.57,3.5,3.5S13.93,19,12,19z M12,13
			c-1.378,0-2.5,1.122-2.5,2.5S10.622,18,12,18s2.5-1.122,2.5-2.5S13.378,13,12,13z"/>
	</g>
	<g>
		<circle class="st18" cx="18" cy="3" r="2"/>
		<path class="st1" d="M18,5.5c-1.378,0-2.5-1.122-2.5-2.5s1.122-2.5,2.5-2.5s2.5,1.122,2.5,2.5S19.378,5.5,18,5.5z M18,1.5
			c-0.827,0-1.5,0.673-1.5,1.5s0.673,1.5,1.5,1.5s1.5-0.673,1.5-1.5S18.827,1.5,18,1.5z"/>
	</g>
</g>
</svg>
