<?xml version="1.0" encoding="utf-8"?>
<!-- Generator: Adobe Illustrator 21.1.0, SVG Export Plug-In . SVG Version: 6.00 Build 0)  -->
<svg version="1.1" id="Layer_1" xmlns="http://www.w3.org/2000/svg" xmlns:xlink="http://www.w3.org/1999/xlink" x="0px" y="0px"
	 viewBox="0 0 64 64" style="enable-background:new 0 0 64 64;" xml:space="preserve">
<style type="text/css">
	.st0{fill:#DB8E11;}
	.st1{fill:#212A41;}
	.st2{fill:#F9AC2F;}
	.st3{fill:#FFCA4D;}
	.st4{fill:#B7C0D7;}
	.st5{fill:#99A2B9;}
	.st6{fill:#B51040;}
	.st7{fill:#D32E5E;}
	.st8{fill:#F14C7C;}
	.st9{fill:#0079A8;}
	.st10{fill:#1E97C6;}
	.st11{fill:#BED38E;}
	.st12{fill:#A0B570;}
	.st13{fill:#DCF1AC;}
	.st14{fill:#D5DEF5;}
	.st15{fill:#4E4B51;}
	.st16{fill:#6C696F;}
	.st17{fill:#848483;}
	.st18{fill:#A2A2A1;}
	.st19{fill:#7B849B;}
	.st20{fill:#8A878D;}
	.st21{fill:#C0C0BF;}
	.st22{fill:#005B8A;}
	.st23{fill:#970022;}
	.st24{fill:#1A237E;}
	.st25{fill:#BD7000;}
	.st26{fill:#003D6C;}
	.st27{fill:#666665;}
	.st28{fill:#195190;}
</style>
<g id="Space_Shuttle">
	<g>
		<path class="st4" d="M62.5,55.5h-19c-0.552,0-1-0.448-1-1V50h16l5,2.5v2C63.5,55.053,63.052,55.5,62.5,55.5z"/>
		<path class="st1" d="M62.5,56h-19c-0.827,0-1.5-0.673-1.5-1.5V50c0-0.276,0.224-0.5,0.5-0.5h16c0.078,0,0.154,0.018,0.224,0.053
			l5,2.5C63.893,52.138,64,52.311,64,52.5v2C64,55.327,63.327,56,62.5,56z M43,50.5v4c0,0.276,0.224,0.5,0.5,0.5h19
			c0.276,0,0.5-0.224,0.5-0.5v-1.691L58.381,50.5H43z"/>
	</g>
	<g>
		<path class="st16" d="M62.5,55.5h-15v-3h16v2C63.5,55.053,63.052,55.5,62.5,55.5z"/>
		<path class="st1" d="M62.5,56h-15c-0.276,0-0.5-0.224-0.5-0.5v-3c0-0.276,0.224-0.5,0.5-0.5h16c0.276,0,0.5,0.224,0.5,0.5v2
			C64,55.327,63.327,56,62.5,56z M48,55h14.5c0.276,0,0.5-0.224,0.5-0.5V53H48V55z"/>
	</g>
	<g>
		<path class="st15" d="M47.5,55.5v-3l-5-2.5v4.5c0,0.552,0.448,1,1,1H47.5z"/>
		<path class="st1" d="M47.5,56h-4c-0.827,0-1.5-0.673-1.5-1.5V50c0-0.173,0.09-0.334,0.237-0.425
			c0.147-0.092,0.332-0.099,0.486-0.022l5,2.5C47.893,52.138,48,52.311,48,52.5v3C48,55.776,47.776,56,47.5,56z M43,50.809V54.5
			c0,0.276,0.224,0.5,0.5,0.5H47v-2.191L43,50.809z"/>
	</g>
	<g>
		<path class="st4" d="M37.472,40.5H18.5l2,6V58H50c1.381,0,2.5-1.119,2.5-2.5v-4.324c0-1.672-0.836-3.233-2.226-4.16l-7.254-4.836
			C41.376,41.085,39.446,40.5,37.472,40.5z"/>
		<path class="st1" d="M50,58.5H20.5c-0.276,0-0.5-0.224-0.5-0.5V46.581l-1.974-5.923c-0.051-0.152-0.025-0.32,0.068-0.451
			C18.188,40.077,18.339,40,18.5,40h18.972c2.08,0,4.094,0.61,5.824,1.764L50.55,46.6C52.084,47.622,53,49.333,53,51.176V55.5
			C53,57.154,51.654,58.5,50,58.5z M21,57.5h29c1.103,0,2-0.897,2-2v-4.324c0-1.508-0.749-2.908-2.004-3.744l-7.254-4.836
			C41.176,41.552,39.354,41,37.472,41H19.193l1.78,5.342C20.991,46.393,21,46.446,21,46.5V57.5z"/>
	</g>
	<g>
		<path class="st4" d="M15.488,31.5h-1.242c-0.64,0-1.115,0.592-0.976,1.217L15,40.5h7.5l-6.201-8.585
			C16.111,31.654,15.809,31.5,15.488,31.5z"/>
		<path class="st1" d="M22.5,41H15c-0.234,0-0.437-0.163-0.488-0.392l-1.729-7.783c-0.099-0.447,0.008-0.908,0.295-1.264
			C13.363,31.205,13.789,31,14.246,31h1.242c0.48,0,0.935,0.232,1.216,0.622l6.201,8.585c0.11,0.152,0.125,0.354,0.04,0.521
			C22.859,40.895,22.688,41,22.5,41z M15.4,40h6.121l-5.628-7.792C15.8,32.078,15.648,32,15.488,32h-1.242
			c-0.152,0-0.294,0.068-0.39,0.187c-0.096,0.119-0.131,0.273-0.098,0.422L15.4,40z"/>
	</g>
	<g>
		<path class="st5" d="M12.488,31.5h-1.242c-0.64,0-1.115,0.592-0.976,1.217L12,40.5h7.5l-6.201-8.585
			C13.111,31.654,12.809,31.5,12.488,31.5z"/>
		<path class="st1" d="M19.5,41H12c-0.234,0-0.437-0.163-0.488-0.392l-1.729-7.783c-0.099-0.447,0.008-0.908,0.295-1.264
			C10.363,31.205,10.789,31,11.246,31h1.242c0.48,0,0.935,0.232,1.216,0.622l6.201,8.585c0.11,0.152,0.125,0.354,0.04,0.521
			C19.859,40.895,19.688,41,19.5,41z M12.4,40h6.121l-5.628-7.792C12.8,32.078,12.648,32,12.488,32h-1.242
			c-0.152,0-0.294,0.068-0.39,0.187c-0.096,0.119-0.131,0.273-0.098,0.422L12.4,40z"/>
	</g>
	<g>
		<path class="st5" d="M27.472,40.5H11c-1.381,0-2.5,1.119-2.5,2.5v1.623c0,0.568,0.193,1.119,0.548,1.562L10.5,48v7.5
			c0,1.381,1.119,2.5,2.5,2.5h27c1.381,0,2.5-1.119,2.5-2.5v-4.324c0-1.672-0.836-3.233-2.226-4.16l-7.254-4.836
			C31.376,41.085,29.446,40.5,27.472,40.5z"/>
		<path class="st1" d="M40,58.5H13c-1.654,0-3-1.346-3-3v-7.325l-1.343-1.678C8.233,45.967,8,45.302,8,44.623V43
			c0-1.654,1.346-3,3-3h16.472c2.08,0,4.094,0.61,5.824,1.764L40.55,46.6C42.084,47.622,43,49.333,43,51.176V55.5
			C43,57.154,41.654,58.5,40,58.5z M11,41c-1.103,0-2,0.897-2,2v1.623c0,0.452,0.156,0.896,0.438,1.25l1.452,1.814
			C10.961,47.776,11,47.886,11,48v7.5c0,1.103,0.897,2,2,2h27c1.103,0,2-0.897,2-2v-4.324c0-1.508-0.749-2.908-2.004-3.744
			l-7.254-4.836C31.176,41.552,29.354,41,27.472,41H11z"/>
	</g>
	<g>
		<path class="st4" d="M12.5,48.5c-0.276,0-0.5-0.224-0.5-0.5c0-0.339-0.117-0.672-0.329-0.937l-1.452-1.815
			C10.078,45.071,10,44.849,10,44.623V43c0-0.276,0.224-0.5,0.5-0.5S11,42.724,11,43v1.623l1.452,1.815
			C12.805,46.88,13,47.435,13,48C13,48.276,12.776,48.5,12.5,48.5z"/>
	</g>
	<g>
		<path class="st9" d="M40.273,47.016c0.589,0.393,1.071,0.904,1.44,1.484h10c-0.369-0.581-0.851-1.092-1.44-1.484L45,43.5H35
			L40.273,47.016z"/>
		<path class="st1" d="M51.713,49h-10c-0.171,0-0.331-0.087-0.422-0.232c-0.346-0.544-0.781-0.994-1.295-1.336l-5.273-3.516
			c-0.183-0.122-0.265-0.35-0.201-0.561S34.779,43,35,43h10c0.099,0,0.195,0.029,0.277,0.084L50.55,46.6
			c0.631,0.421,1.164,0.97,1.584,1.632c0.098,0.154,0.104,0.349,0.016,0.509C52.063,48.901,51.896,49,51.713,49z M41.98,48h8.703
			c-0.21-0.213-0.439-0.403-0.687-0.568L44.848,44h-8.197l3.899,2.6l0,0C41.106,46.97,41.586,47.44,41.98,48z"/>
	</g>
	<g>
		<path class="st22" d="M40.273,47.016L35,43.5h-3c-1.381,0-2.5,1.119-2.5,2.5c0,1.381,1.119,2.5,2.5,2.5h9.714
			C41.344,47.92,40.862,47.409,40.273,47.016z"/>
		<path class="st1" d="M41.713,49h-9.714c-1.654,0-3-1.346-3-3s1.346-3,3-3h3c0.099,0,0.195,0.029,0.277,0.084L40.55,46.6l0,0
			c0.631,0.421,1.164,0.97,1.584,1.632c0.098,0.154,0.104,0.349,0.016,0.509C42.063,48.901,41.896,49,41.713,49z M31.999,44
			c-1.103,0-2,0.897-2,2s0.897,2,2,2h8.684c-0.21-0.213-0.439-0.403-0.687-0.568L34.848,44H31.999z"/>
	</g>
	<g>
		<circle class="st2" cx="50.625" cy="12.5" r="6.5"/>
		<path class="st1" d="M50.625,19.5c-3.86,0-7-3.14-7-7s3.14-7,7-7s7,3.14,7,7S54.484,19.5,50.625,19.5z M50.625,6.5
			c-3.309,0-6,2.691-6,6s2.691,6,6,6s6-2.691,6-6S53.933,6.5,50.625,6.5z"/>
	</g>
	<g>
		<path class="st3" d="M46.125,13c-0.276,0-0.5-0.224-0.5-0.5c0-2.757,2.243-5,5-5c0.276,0,0.5,0.224,0.5,0.5s-0.224,0.5-0.5,0.5
			c-2.206,0-4,1.794-4,4C46.625,12.776,46.401,13,46.125,13z"/>
	</g>
	<g>
		<path class="st0" d="M50.625,17.5c-0.276,0-0.5-0.224-0.5-0.5s0.224-0.5,0.5-0.5c2.206,0,4-1.794,4-4c0-0.276,0.224-0.5,0.5-0.5
			s0.5,0.224,0.5,0.5C55.625,15.257,53.381,17.5,50.625,17.5z"/>
	</g>
	<g>
		<path class="st18" d="M58.625,13.5h-16c-0.552,0-1-0.448-1-1v0c0-0.552,0.448-1,1-1h16c0.552,0,1,0.448,1,1v0
			C59.625,13.053,59.177,13.5,58.625,13.5z"/>
		<path class="st1" d="M58.625,14h-16c-0.827,0-1.5-0.673-1.5-1.5s0.673-1.5,1.5-1.5h16c0.827,0,1.5,0.673,1.5,1.5
			S59.452,14,58.625,14z M42.625,12c-0.276,0-0.5,0.224-0.5,0.5s0.224,0.5,0.5,0.5h16c0.276,0,0.5-0.224,0.5-0.5S58.9,12,58.625,12
			H42.625z"/>
	</g>
	<g>
		<circle class="st18" cx="51.625" cy="27.5" r="1.5"/>
		<path class="st1" d="M51.625,29.5c-1.103,0-2-0.897-2-2s0.897-2,2-2s2,0.897,2,2S52.728,29.5,51.625,29.5z M51.625,26.5
			c-0.551,0-1,0.449-1,1s0.449,1,1,1s1-0.449,1-1S52.176,26.5,51.625,26.5z"/>
	</g>
	<g>
		<circle class="st18" cx="31.875" cy="16" r="2"/>
		<path class="st1" d="M31.875,18.5c-1.378,0-2.5-1.122-2.5-2.5s1.122-2.5,2.5-2.5s2.5,1.122,2.5,2.5S33.253,18.5,31.875,18.5z
			 M31.875,14.5c-0.827,0-1.5,0.673-1.5,1.5s0.673,1.5,1.5,1.5s1.5-0.673,1.5-1.5S32.702,14.5,31.875,14.5z"/>
	</g>
	<g>
		<path class="st1" d="M23.375,20.5h-14c-0.276,0-0.5-0.224-0.5-0.5s0.224-0.5,0.5-0.5h14c0.276,0,0.5,0.224,0.5,0.5
			S23.651,20.5,23.375,20.5z"/>
	</g>
	<g>
		<path class="st1" d="M6.375,20.5h-2c-0.276,0-0.5-0.224-0.5-0.5s0.224-0.5,0.5-0.5h2c0.276,0,0.5,0.224,0.5,0.5
			S6.651,20.5,6.375,20.5z"/>
	</g>
	<g>
		<path class="st16" d="M41.713,48.5c0.502,0.79,0.787,1.712,0.787,2.676V55.5c0,1.381-1.119,2.5-2.5,2.5h10
			c1.381,0,2.5-1.119,2.5-2.5v-4.324c0-0.964-0.285-1.886-0.787-2.676H41.713z"/>
		<path class="st1" d="M50,58.5H40c-0.276,0-0.5-0.224-0.5-0.5s0.224-0.5,0.5-0.5c1.103,0,2-0.897,2-2v-4.324
			c0-0.845-0.245-1.678-0.709-2.408c-0.098-0.154-0.104-0.349-0.016-0.509C41.363,48.099,41.53,48,41.713,48h10
			c0.171,0,0.331,0.087,0.422,0.232C52.701,49.123,53,50.141,53,51.176V55.5C53,57.154,51.654,58.5,50,58.5z M42.234,57.5H50
			c1.103,0,2-0.897,2-2v-4.324c0-0.757-0.197-1.504-0.571-2.176h-8.886c0.3,0.689,0.457,1.428,0.457,2.176V55.5
			C43,56.268,42.709,56.969,42.234,57.5z"/>
	</g>
	<g>
		<path class="st15" d="M50.5,56c-0.276,0-0.5-0.224-0.5-0.5v-4.324c0-0.276,0.224-0.5,0.5-0.5s0.5,0.224,0.5,0.5V55.5
			C51,55.776,50.776,56,50.5,56z"/>
	</g>
	<g>
		<path class="st20" d="M44.5,56c-0.276,0-0.5-0.224-0.5-0.5v-4.324c0-0.276,0.224-0.5,0.5-0.5s0.5,0.224,0.5,0.5V55.5
			C45,55.776,44.776,56,44.5,56z"/>
	</g>
	<g>
		<path class="st15" d="M42.5,55.5V54h-32v1.5c0,1.381,1.119,2.5,2.5,2.5h27C41.38,58,42.5,56.881,42.5,55.5z"/>
		<path class="st1" d="M40,58.5H13c-1.654,0-3-1.346-3-3V54c0-0.276,0.224-0.5,0.5-0.5h32c0.276,0,0.5,0.224,0.5,0.5v1.5
			C43,57.154,41.654,58.5,40,58.5z M11,54.5v1c0,1.103,0.897,2,2,2h27c1.103,0,2-0.897,2-2v-1H11z"/>
	</g>
	<g>
		<path class="st4" d="M20.5,55.5h-19c-0.552,0-1-0.448-1-1V50h16l5,2.5v2C21.5,55.053,21.052,55.5,20.5,55.5z"/>
		<path class="st1" d="M20.5,56h-19C0.672,56,0,55.327,0,54.5V50c0-0.276,0.224-0.5,0.5-0.5h16c0.078,0,0.154,0.018,0.224,0.053
			l5,2.5C21.893,52.138,22,52.311,22,52.5v2C22,55.327,21.327,56,20.5,56z M1,50.5v4C1,54.776,1.224,55,1.5,55h19
			c0.276,0,0.5-0.224,0.5-0.5v-1.691L16.381,50.5H1z"/>
	</g>
	<g>
		<path class="st16" d="M20.5,55.5h-15v-3h16v2C21.5,55.053,21.052,55.5,20.5,55.5z"/>
		<path class="st1" d="M20.5,56h-15C5.223,56,5,55.776,5,55.5v-3C5,52.224,5.223,52,5.5,52h16c0.276,0,0.5,0.224,0.5,0.5v2
			C22,55.327,21.327,56,20.5,56z M6,55h14.5c0.276,0,0.5-0.224,0.5-0.5V53H6V55z"/>
	</g>
	<g>
		<path class="st15" d="M5.5,52.5l-5-2.5v4.5c0,0.552,0.448,1,1,1h4V52.5z"/>
		<path class="st1" d="M5.5,56h-4C0.672,56,0,55.327,0,54.5V50c0-0.173,0.09-0.334,0.237-0.425c0.147-0.092,0.331-0.099,0.486-0.022
			l5,2.5C5.893,52.138,6,52.311,6,52.5v3C6,55.776,5.776,56,5.5,56z M1,50.809V54.5C1,54.776,1.224,55,1.5,55H5v-2.191L1,50.809z"/>
	</g>
	<g>
		<path class="st1" d="M26.499,51h-3c-0.827,0-1.5-0.673-1.5-1.5v-5c0-0.827,0.673-1.5,1.5-1.5h3c0.827,0,1.5,0.673,1.5,1.5v5
			C27.999,50.327,27.326,51,26.499,51z M23.499,44c-0.276,0-0.5,0.224-0.5,0.5v5c0,0.276,0.224,0.5,0.5,0.5h3
			c0.276,0,0.5-0.224,0.5-0.5v-5c0-0.276-0.224-0.5-0.5-0.5H23.499z"/>
	</g>
</g>
</svg>
