<?xml version="1.0" encoding="utf-8"?>
<!-- Generator: Adobe Illustrator 21.1.0, SVG Export Plug-In . SVG Version: 6.00 Build 0)  -->
<svg version="1.1" id="Layer_1" xmlns="http://www.w3.org/2000/svg" xmlns:xlink="http://www.w3.org/1999/xlink" x="0px" y="0px"
	 viewBox="0 0 64 64" style="enable-background:new 0 0 64 64;" xml:space="preserve">
<style type="text/css">
	.st0{fill:#DB8E11;}
	.st1{fill:#212A41;}
	.st2{fill:#F9AC2F;}
	.st3{fill:#FFCA4D;}
	.st4{fill:#B7C0D7;}
	.st5{fill:#99A2B9;}
	.st6{fill:#B51040;}
	.st7{fill:#D32E5E;}
	.st8{fill:#F14C7C;}
	.st9{fill:#0079A8;}
	.st10{fill:#1E97C6;}
	.st11{fill:#BED38E;}
	.st12{fill:#A0B570;}
	.st13{fill:#DCF1AC;}
	.st14{fill:#D5DEF5;}
	.st15{fill:#4E4B51;}
	.st16{fill:#6C696F;}
	.st17{fill:#848483;}
	.st18{fill:#A2A2A1;}
	.st19{fill:#7B849B;}
	.st20{fill:#8A878D;}
	.st21{fill:#C0C0BF;}
	.st22{fill:#005B8A;}
	.st23{fill:#970022;}
	.st24{fill:#1A237E;}
	.st25{fill:#BD7000;}
	.st26{fill:#003D6C;}
	.st27{fill:#666665;}
	.st28{fill:#195190;}
</style>
<g id="Space_Supply_Delivery">
	<g>
		<path class="st4" d="M32.001,0.5l1.892,2.432c4.398,5.654,6.416,12.801,5.625,19.92L39.501,23l0.3-0.4c3.6-4.8,10.8-4.8,14.4,0
			l0.3,0.4C54.501,10.573,44.427,0.5,32.001,0.5z"/>
		<path class="st1" d="M39.5,23.5c-0.062,0-0.125-0.012-0.185-0.035c-0.209-0.083-0.337-0.297-0.312-0.521l0.017-0.147
			c0.781-7.029-1.18-13.976-5.522-19.559l-1.892-2.432c-0.117-0.15-0.139-0.354-0.055-0.526S31.81,0,32,0c12.682,0,23,10.317,23,23
			c0,0.215-0.138,0.406-0.342,0.475c-0.203,0.065-0.429-0.003-0.558-0.175l-0.3-0.4c-1.62-2.16-4.099-3.399-6.8-3.399
			c-2.701,0-5.179,1.239-6.8,3.399l-0.3,0.4C39.804,23.429,39.654,23.5,39.5,23.5z M47,18.5c2.678,0,5.161,1.09,6.951,3.021
			C53.211,10.421,44.2,1.548,33.042,1.024l1.245,1.601c4.198,5.397,6.25,12.022,5.853,18.801C41.923,19.554,44.367,18.5,47,18.5z"/>
	</g>
	<g>
		<path class="st5" d="M9.501,23l0.3-0.4c3.6-4.8,10.8-4.8,14.4,0l0.3,0.4l-0.016-0.148c-0.791-7.119,1.227-14.266,5.625-19.92
			L32.001,0.5C19.574,0.5,9.501,10.573,9.501,23z"/>
		<path class="st1" d="M24.5,23.5c-0.154,0-0.304-0.071-0.4-0.2l-0.3-0.4c-1.62-2.16-4.099-3.399-6.8-3.399
			c-2.701,0-5.179,1.239-6.8,3.399l-0.3,0.4c-0.128,0.173-0.351,0.241-0.558,0.175C9.138,23.406,9,23.215,9,23
			C9,10.317,19.318,0,32,0c0.191,0,0.365,0.108,0.449,0.28s0.062,0.376-0.055,0.526l-1.892,2.432
			c-4.342,5.583-6.303,12.529-5.522,19.559l0.016,0.148c0.024,0.225-0.104,0.438-0.313,0.52C24.624,23.488,24.562,23.5,24.5,23.5z
			 M30.959,1.024C19.801,1.546,10.79,10.421,10.05,21.521C11.84,19.59,14.322,18.5,17,18.5c2.634,0,5.078,1.054,6.862,2.926
			c-0.397-6.778,1.655-13.404,5.853-18.801L30.959,1.024z"/>
	</g>
	<g>
		<path class="st4" d="M12.081,18.649c-0.039,0-0.079-0.005-0.119-0.015c-0.269-0.064-0.433-0.335-0.368-0.604
			c1.883-7.733,8.121-13.834,15.891-15.543c0.268-0.062,0.536,0.11,0.596,0.381c0.06,0.27-0.111,0.536-0.381,0.596
			c-7.4,1.627-13.341,7.438-15.134,14.803C12.51,18.496,12.306,18.649,12.081,18.649z"/>
	</g>
	<g>
		<path class="st5" d="M51.92,18.649c-0.225,0-0.43-0.153-0.485-0.382c-1.793-7.365-7.734-13.175-15.134-14.803
			c-0.27-0.06-0.44-0.326-0.381-0.596c0.059-0.271,0.326-0.441,0.596-0.381c7.771,1.709,14.008,7.81,15.891,15.543
			c0.065,0.269-0.099,0.539-0.368,0.604C52,18.645,51.959,18.649,51.92,18.649z"/>
	</g>
	<g>
		<circle class="st18" cx="9.001" cy="39.5" r="2"/>
		<path class="st1" d="M9,42c-1.378,0-2.5-1.121-2.5-2.5S7.622,37,9,37s2.5,1.121,2.5,2.5S10.379,42,9,42z M9,38
			c-0.827,0-1.5,0.673-1.5,1.5S8.173,41,9,41s1.5-0.673,1.5-1.5S9.828,38,9,38z"/>
	</g>
	<g>
		<path class="st6" d="M32.501,63.5h-11c-1.381,0-2.5-1.119-2.5-2.5V50c0-1.381,1.119-2.5,2.5-2.5h11c1.381,0,2.5,1.119,2.5,2.5v11
			C35.001,62.38,33.881,63.5,32.501,63.5z"/>
		<path class="st1" d="M32.5,64h-11c-1.654,0-3-1.346-3-3V50c0-1.654,1.346-3,3-3h11c1.654,0,3,1.346,3,3v11
			C35.5,62.654,34.155,64,32.5,64z M21.5,48c-1.103,0-2,0.897-2,2v11c0,1.103,0.897,2,2,2h11c1.103,0,2-0.897,2-2V50
			c0-1.103-0.897-2-2-2H21.5z"/>
	</g>
	<g>
		<path class="st7" d="M42.501,63.5h-11c-1.381,0-2.5-1.119-2.5-2.5V50c0-1.381,1.119-2.5,2.5-2.5h11c1.381,0,2.5,1.119,2.5,2.5v11
			C45.001,62.38,43.881,63.5,42.501,63.5z"/>
		<path class="st1" d="M42.5,64h-11c-1.654,0-3-1.346-3-3V50c0-1.654,1.346-3,3-3h11c1.654,0,3,1.346,3,3v11
			C45.5,62.654,44.155,64,42.5,64z M31.5,48c-1.103,0-2,0.897-2,2v11c0,1.103,0.897,2,2,2h11c1.103,0,2-0.897,2-2V50
			c0-1.103-0.897-2-2-2H31.5z"/>
	</g>
	<g>
		<path class="st1" d="M28,44c-0.136,0-0.272-0.056-0.371-0.165l-18.5-20.5c-0.185-0.205-0.169-0.521,0.036-0.706
			s0.521-0.169,0.706,0.036l18.5,20.5c0.185,0.205,0.169,0.521-0.036,0.706C28.24,43.957,28.12,44,28,44z"/>
	</g>
	<g>
		<path class="st1" d="M32,44c-0.21,0-0.397-0.131-0.47-0.328l-7.5-20.5c-0.095-0.26,0.039-0.547,0.298-0.642
			c0.26-0.094,0.547,0.039,0.642,0.298L32,42.045l7.03-19.217c0.095-0.259,0.382-0.393,0.642-0.298s0.393,0.382,0.298,0.642
			l-7.5,20.5C32.398,43.869,32.21,44,32,44z"/>
	</g>
	<g>
		<path class="st1" d="M36,44c-0.12,0-0.239-0.043-0.335-0.129c-0.205-0.185-0.221-0.501-0.036-0.706l18.5-20.5
			c0.186-0.205,0.501-0.221,0.706-0.036s0.221,0.501,0.036,0.706l-18.5,20.5C36.273,43.944,36.137,44,36,44z"/>
	</g>
	<g>
		<path class="st4" d="M33.892,2.932L32.001,0.5l-1.892,2.432c-4.398,5.654-6.416,12.801-5.625,19.92L24.501,23l0.3-0.4
			c3.6-4.8,10.8-4.8,14.4,0l0.3,0.4l0.016-0.148C40.308,15.733,38.29,8.586,33.892,2.932z"/>
		<path class="st1" d="M39.5,23.5c-0.155,0-0.304-0.072-0.4-0.2l-0.3-0.4c-1.62-2.16-4.099-3.399-6.8-3.399
			c-2.701,0-5.179,1.239-6.8,3.399l-0.3,0.4c-0.124,0.164-0.334,0.235-0.532,0.183c-0.198-0.055-0.342-0.224-0.365-0.428
			l-0.016-0.147c-0.81-7.29,1.224-14.493,5.727-20.282l1.892-2.432c0.189-0.244,0.6-0.244,0.789,0l1.892,2.432l0,0
			c4.503,5.79,6.537,12.993,5.727,20.283l-0.017,0.147c-0.023,0.204-0.168,0.373-0.366,0.427C39.588,23.494,39.544,23.5,39.5,23.5z
			 M32,18.5c2.763,0,5.317,1.159,7.12,3.207c0.473-6.653-1.504-13.174-5.622-18.469L32,1.314l-1.497,1.924
			c-4.118,5.294-6.094,11.813-5.622,18.469C26.684,19.66,29.238,18.5,32,18.5z"/>
	</g>
	<g>
		<path class="st0" d="M31.001,43.5h-8c-0.552,0-1,0.448-1,1v3h10v-3C32.001,43.947,31.553,43.5,31.001,43.5z"/>
		<path class="st1" d="M32,48H22c-0.276,0-0.5-0.224-0.5-0.5v-3c0-0.827,0.673-1.5,1.5-1.5h8c0.827,0,1.5,0.673,1.5,1.5v3
			C32.5,47.776,32.277,48,32,48z M22.5,47h9v-2.5c0-0.275-0.224-0.5-0.5-0.5h-8c-0.276,0-0.5,0.225-0.5,0.5V47z"/>
	</g>
	<g>
		<path class="st2" d="M41.001,43.5h-8c-0.552,0-1,0.448-1,1v3h10v-3C42.001,43.947,41.553,43.5,41.001,43.5z"/>
		<path class="st1" d="M42,48H32c-0.276,0-0.5-0.224-0.5-0.5v-3c0-0.827,0.673-1.5,1.5-1.5h8c0.827,0,1.5,0.673,1.5,1.5v3
			C42.5,47.776,42.277,48,42,48z M32.5,47h9v-2.5c0-0.275-0.224-0.5-0.5-0.5h-8c-0.276,0-0.5,0.225-0.5,0.5V47z"/>
	</g>
	<g>
		<circle class="st18" cx="54.001" cy="52.5" r="2"/>
		<path class="st1" d="M54,55c-1.378,0-2.5-1.121-2.5-2.5S52.622,50,54,50s2.5,1.121,2.5,2.5S55.379,55,54,55z M54,51
			c-0.827,0-1.5,0.673-1.5,1.5S53.173,54,54,54s1.5-0.673,1.5-1.5S54.828,51,54,51z"/>
	</g>
	<g>
		<path class="st8" d="M31,61.5c-0.276,0-0.5-0.224-0.5-0.5V50c0-0.276,0.224-0.5,0.5-0.5s0.5,0.224,0.5,0.5v11
			C31.5,61.276,31.277,61.5,31,61.5z"/>
	</g>
	<g>
		<path class="st7" d="M21,61.5c-0.276,0-0.5-0.224-0.5-0.5V50c0-0.276,0.224-0.5,0.5-0.5s0.5,0.224,0.5,0.5v11
			C21.5,61.276,21.277,61.5,21,61.5z"/>
	</g>
	<g>
		<path class="st23" d="M27,61.5c-0.276,0-0.5-0.224-0.5-0.5V50c0-0.276,0.224-0.5,0.5-0.5s0.5,0.224,0.5,0.5v11
			C27.5,61.276,27.277,61.5,27,61.5z"/>
	</g>
	<g>
		<path class="st6" d="M43,61.5c-0.276,0-0.5-0.224-0.5-0.5V50c0-0.276,0.224-0.5,0.5-0.5s0.5,0.224,0.5,0.5v11
			C43.5,61.276,43.277,61.5,43,61.5z"/>
	</g>
	<g>
		<path class="st1" d="M45,51.5H19c-0.276,0-0.5-0.224-0.5-0.5s0.224-0.5,0.5-0.5h26c0.276,0,0.5,0.224,0.5,0.5S45.277,51.5,45,51.5
			z"/>
	</g>
	<g>
		<path class="st22" d="M10.501,54h-7c-0.552,0-1-0.448-1-1v-1c0-0.552,0.448-1,1-1h7c0.552,0,1,0.448,1,1v1
			C11.501,53.552,11.053,54,10.501,54z"/>
		<path class="st1" d="M10.5,54.5h-7C2.673,54.5,2,53.827,2,53v-1c0-0.827,0.673-1.5,1.5-1.5h7c0.827,0,1.5,0.673,1.5,1.5v1
			C12,53.827,11.328,54.5,10.5,54.5z M3.5,51.5C3.225,51.5,3,51.725,3,52v1c0,0.275,0.224,0.5,0.5,0.5h7c0.276,0,0.5-0.225,0.5-0.5
			v-1c0-0.275-0.224-0.5-0.5-0.5H3.5z"/>
	</g>
	<g>
		<path class="st9" d="M14.501,54h-7c-0.552,0-1-0.448-1-1v-1c0-0.552,0.448-1,1-1h7c0.552,0,1,0.448,1,1v1
			C15.501,53.552,15.053,54,14.501,54z"/>
		<path class="st1" d="M14.5,54.5h-7C6.673,54.5,6,53.827,6,53v-1c0-0.827,0.673-1.5,1.5-1.5h7c0.827,0,1.5,0.673,1.5,1.5v1
			C16,53.827,15.328,54.5,14.5,54.5z M7.5,51.5C7.225,51.5,7,51.725,7,52v1c0,0.275,0.224,0.5,0.5,0.5h7c0.276,0,0.5-0.225,0.5-0.5
			v-1c0-0.275-0.224-0.5-0.5-0.5H7.5z"/>
	</g>
	<g>
		<path class="st22" d="M58.501,41h-10c-0.552,0-1-0.448-1-1v-1c0-0.552,0.448-1,1-1h10c0.552,0,1,0.448,1,1v1
			C59.501,40.552,59.053,41,58.501,41z"/>
		<path class="st1" d="M58.5,41.5h-10c-0.827,0-1.5-0.673-1.5-1.5v-1c0-0.827,0.673-1.5,1.5-1.5h10c0.827,0,1.5,0.673,1.5,1.5v1
			C60,40.827,59.328,41.5,58.5,41.5z M48.5,38.5c-0.276,0-0.5,0.225-0.5,0.5v1c0,0.275,0.224,0.5,0.5,0.5h10
			c0.276,0,0.5-0.225,0.5-0.5v-1c0-0.275-0.224-0.5-0.5-0.5H48.5z"/>
	</g>
	<g>
		<path class="st9" d="M62.501,41h-10c-0.552,0-1-0.448-1-1v-1c0-0.552,0.448-1,1-1h10c0.552,0,1,0.448,1,1v1
			C63.501,40.552,63.053,41,62.501,41z"/>
		<path class="st1" d="M62.5,41.5h-10c-0.827,0-1.5-0.673-1.5-1.5v-1c0-0.827,0.673-1.5,1.5-1.5h10c0.827,0,1.5,0.673,1.5,1.5v1
			C64,40.827,63.328,41.5,62.5,41.5z M52.5,38.5c-0.276,0-0.5,0.225-0.5,0.5v1c0,0.275,0.224,0.5,0.5,0.5h10
			c0.276,0,0.5-0.225,0.5-0.5v-1c0-0.275-0.224-0.5-0.5-0.5H52.5z"/>
	</g>
</g>
</svg>
