<?xml version="1.0" encoding="utf-8"?>
<!-- Generator: Adobe Illustrator 21.1.0, SVG Export Plug-In . SVG Version: 6.00 Build 0)  -->
<svg version="1.1" id="Layer_1" xmlns="http://www.w3.org/2000/svg" xmlns:xlink="http://www.w3.org/1999/xlink" x="0px" y="0px"
	 viewBox="0 0 64 64" style="enable-background:new 0 0 64 64;" xml:space="preserve">
<style type="text/css">
	.st0{fill:#DB8E11;}
	.st1{fill:#212A41;}
	.st2{fill:#F9AC2F;}
	.st3{fill:#FFCA4D;}
	.st4{fill:#B7C0D7;}
	.st5{fill:#99A2B9;}
	.st6{fill:#B51040;}
	.st7{fill:#D32E5E;}
	.st8{fill:#F14C7C;}
	.st9{fill:#0079A8;}
	.st10{fill:#1E97C6;}
	.st11{fill:#BED38E;}
	.st12{fill:#A0B570;}
	.st13{fill:#DCF1AC;}
	.st14{fill:#D5DEF5;}
	.st15{fill:#4E4B51;}
	.st16{fill:#6C696F;}
	.st17{fill:#848483;}
	.st18{fill:#A2A2A1;}
	.st19{fill:#7B849B;}
	.st20{fill:#8A878D;}
	.st21{fill:#C0C0BF;}
	.st22{fill:#005B8A;}
	.st23{fill:#970022;}
	.st24{fill:#1A237E;}
	.st25{fill:#BD7000;}
	.st26{fill:#003D6C;}
	.st27{fill:#666665;}
	.st28{fill:#195190;}
</style>
<g id="Space_Gloves">
	<g>
		<path class="st4" d="M58.755,24.539c-1.526-1.848-4.268-1.945-5.922-0.291l3.414-3.414c1.477-1.477,1.716-3.876,0.386-5.487
			c-1.526-1.848-4.268-1.945-5.922-0.291l3.414-3.414c1.477-1.477,1.716-3.876,0.386-5.487c-1.526-1.848-4.268-1.945-5.922-0.291
			l-3.536,3.536c1.654-1.654,1.557-4.395-0.291-5.922c-1.611-1.33-4.01-1.091-5.487,0.386L8.993,34.147L31.62,56.775l26.749-26.749
			C59.846,28.549,60.085,26.15,58.755,24.539z"/>
		<path class="st1" d="M31.62,57.275L31.62,57.275c-0.133,0-0.26-0.053-0.354-0.146L8.639,34.5c-0.195-0.195-0.195-0.512,0-0.707
			L38.924,3.509c1.689-1.691,4.395-1.875,6.158-0.417c0.996,0.822,1.579,1.981,1.64,3.263c0.011,0.231,0.004,0.462-0.021,0.69
			l1.536-1.536c0.896-0.895,2.137-1.372,3.397-1.312c1.282,0.061,2.44,0.643,3.264,1.639c1.456,1.763,1.271,4.469-0.419,6.159
			l-1.415,1.415c0.229-0.024,0.461-0.03,0.691-0.021c1.282,0.061,2.44,0.643,3.264,1.639c1.455,1.763,1.271,4.468-0.418,6.159
			l-1.414,1.414c0.227-0.024,0.457-0.031,0.689-0.021c1.281,0.061,2.44,0.644,3.264,1.64l0,0c1.455,1.763,1.272,4.468-0.418,6.159
			L31.974,57.128C31.88,57.222,31.753,57.275,31.62,57.275z M9.7,34.147l21.92,21.921l26.396-26.396
			c1.329-1.33,1.485-3.445,0.354-4.815l0,0c-0.641-0.776-1.543-1.23-2.54-1.277c-0.969-0.047-1.945,0.325-2.643,1.021l0,0
			c-0.195,0.195-0.512,0.195-0.707,0s-0.195-0.512,0-0.707l3.415-3.414c1.329-1.331,1.484-3.446,0.354-4.815
			c-0.641-0.776-1.543-1.229-2.539-1.277c-0.994-0.047-1.947,0.326-2.644,1.021c-0.195,0.195-0.512,0.195-0.707,0
			s-0.195-0.512,0-0.707l3.414-3.414c1.33-1.33,1.486-3.445,0.354-4.815c-0.641-0.776-1.543-1.229-2.539-1.277
			c-1-0.046-1.947,0.326-2.644,1.021l-3.535,3.536l0,0l0,0c-0.195,0.195-0.512,0.195-0.707,0s-0.195-0.512,0-0.707l0.005-0.004
			c0.692-0.696,1.062-1.657,1.016-2.638c-0.047-0.997-0.501-1.899-1.277-2.54c-1.369-1.131-3.483-0.977-4.814,0.354L9.7,34.147z"/>
	</g>
	<g>
		<path class="st5" d="M51.419,34.647c-0.128,0-0.256-0.049-0.354-0.146c-0.195-0.195-0.195-0.512,0-0.707l5.536-5.536
			c0.608-0.609,0.708-1.543,0.226-2.127c-0.033-0.04-0.069-0.08-0.106-0.117c-0.194-0.196-0.192-0.513,0.004-0.707
			c0.197-0.194,0.514-0.193,0.707,0.004c0.057,0.057,0.112,0.118,0.165,0.182c0.809,0.979,0.682,2.504-0.288,3.473l-5.536,5.536
			C51.675,34.599,51.547,34.647,51.419,34.647z"/>
	</g>
	<g>
		<path class="st14" d="M31.62,14.848c-0.128,0-0.256-0.049-0.354-0.146c-0.195-0.195-0.195-0.512,0-0.707l9.071-9.071
			c0.969-0.969,2.492-1.098,3.471-0.29c0.213,0.176,0.243,0.491,0.067,0.704c-0.178,0.213-0.492,0.243-0.704,0.067
			c-0.586-0.483-1.519-0.383-2.127,0.227l-9.071,9.071C31.876,14.799,31.748,14.848,31.62,14.848z"/>
	</g>
	<g>
		<path class="st1" d="M34.448,20.505c-0.128,0-0.256-0.049-0.354-0.146c-0.195-0.195-0.195-0.512,0-0.707L44.702,9.045
			c0.195-0.195,0.512-0.195,0.707,0s0.195,0.512,0,0.707L34.802,20.359C34.704,20.457,34.576,20.505,34.448,20.505z"/>
	</g>
	<g>
		<path class="st1" d="M40.105,26.162c-0.128,0-0.256-0.049-0.354-0.146c-0.195-0.195-0.195-0.512,0-0.707l10.606-10.607
			c0.195-0.195,0.512-0.195,0.707,0s0.195,0.512,0,0.707L40.459,26.016C40.361,26.113,40.233,26.162,40.105,26.162z"/>
	</g>
	<g>
		<path class="st1" d="M45.763,31.819c-0.128,0-0.256-0.049-0.354-0.146c-0.195-0.195-0.195-0.512,0-0.707l7.07-7.071
			c0.195-0.195,0.512-0.195,0.707,0s0.195,0.512,0,0.707l-7.07,7.071C46.019,31.77,45.891,31.819,45.763,31.819z"/>
	</g>
	<g>
		<path class="st18" d="M24.196,60.664L5.104,41.572c-0.976-0.976-0.976-2.559,0-3.536l3.889-3.889L31.62,56.775l-3.889,3.889
			C26.755,61.64,25.172,61.64,24.196,60.664z"/>
		<path class="st1" d="M25.963,61.896c-0.801,0-1.555-0.312-2.121-0.878L4.75,41.925c-0.566-0.566-0.878-1.32-0.878-2.121
			s0.312-1.555,0.878-2.121l3.889-3.889c0.195-0.195,0.512-0.195,0.707,0l22.627,22.627c0.195,0.195,0.195,0.512,0,0.707
			l-3.889,3.889C27.518,61.584,26.765,61.896,25.963,61.896z M8.993,34.854L5.457,38.39c-0.78,0.78-0.78,2.048,0,2.828
			l19.092,19.092c0.779,0.779,2.049,0.779,2.828,0l3.536-3.536L8.993,34.854z"/>
	</g>
	<g>
		<path class="st1" d="M31.62,57.275c-0.133,0-0.26-0.053-0.354-0.146L8.639,34.501c-0.195-0.195-0.195-0.512,0-0.707l19.799-19.799
			c0.188-0.188,0.52-0.188,0.707,0l22.627,22.627c0.195,0.195,0.195,0.512,0,0.707L31.974,57.128
			C31.88,57.222,31.753,57.275,31.62,57.275z M9.7,34.147l21.92,21.92l19.092-19.092l-21.92-21.92L9.7,34.147z"/>
	</g>
	<g>
		<path class="st1" d="M56.369,32.526c-0.128,0-0.256-0.049-0.354-0.146L33.388,9.752c-0.195-0.195-0.195-0.512,0-0.707
			s0.512-0.195,0.707,0l22.628,22.627c0.195,0.195,0.195,0.512,0,0.707C56.625,32.477,56.497,32.526,56.369,32.526z"/>
	</g>
	<g>
		<path class="st5" d="M31.62,54.446c-0.128,0-0.256-0.049-0.354-0.146c-0.195-0.195-0.195-0.512,0-0.707l16.971-16.971
			c0.195-0.195,0.512-0.195,0.707,0s0.195,0.512,0,0.707L31.974,54.3C31.876,54.397,31.748,54.446,31.62,54.446z"/>
	</g>
	<g>
		<path class="st14" d="M11.821,34.647c-0.128,0-0.256-0.049-0.354-0.146c-0.195-0.195-0.195-0.512,0-0.707l16.97-16.971
			c0.195-0.195,0.512-0.195,0.707,0s0.195,0.512,0,0.707l-16.97,16.971C12.077,34.599,11.949,34.647,11.821,34.647z"/>
	</g>
	<g>
		<path class="st21" d="M6.518,39.951c-0.128,0-0.256-0.049-0.354-0.146c-0.195-0.195-0.195-0.512,0-0.707l2.475-2.475
			c0.195-0.195,0.512-0.195,0.707,0s0.195,0.512,0,0.707l-2.475,2.475C6.774,39.902,6.646,39.951,6.518,39.951z"/>
	</g>
	<g>
		<path class="st17" d="M26.317,59.75c-0.128,0-0.256-0.049-0.354-0.146c-0.195-0.195-0.195-0.512,0-0.707l2.475-2.475
			c0.195-0.195,0.512-0.195,0.707,0s0.195,0.512,0,0.707l-2.475,2.475C26.573,59.701,26.445,59.75,26.317,59.75z"/>
	</g>
	<g>
		<path class="st5" d="M19.572,11.162c-2.307-0.121-4.215,1.714-4.215,3.994v8.485c0,2.652-1.054,5.196-2.929,7.071l10.929-10.929
			l0-4.401C23.357,13.216,21.735,11.275,19.572,11.162z"/>
		<path class="st1" d="M12.428,31.212c-0.128,0-0.256-0.049-0.354-0.146s-0.146-0.226-0.146-0.354s0.049-0.256,0.146-0.354
			c1.794-1.794,2.783-4.18,2.783-6.718v-8.485c0-1.247,0.498-2.406,1.402-3.264c0.905-0.857,2.092-1.287,3.338-1.229h0
			c2.348,0.123,4.259,2.241,4.259,4.72v4.401c0,0.133-0.053,0.26-0.146,0.354L12.781,31.066
			C12.684,31.164,12.556,31.212,12.428,31.212z M19.355,11.656c-0.902,0-1.75,0.337-2.408,0.961
			c-0.704,0.668-1.091,1.569-1.091,2.539v8.485c0,1.228-0.209,2.423-0.611,3.546l7.611-7.611v-4.194
			c0-1.957-1.485-3.626-3.312-3.721h0C19.482,11.658,19.418,11.656,19.355,11.656z"/>
	</g>
</g>
</svg>
