<?xml version="1.0" encoding="utf-8"?>
<!-- Generator: Adobe Illustrator 21.1.0, SVG Export Plug-In . SVG Version: 6.00 Build 0)  -->
<svg version="1.1" id="Layer_1" xmlns="http://www.w3.org/2000/svg" xmlns:xlink="http://www.w3.org/1999/xlink" x="0px" y="0px"
	 viewBox="0 0 64 64" style="enable-background:new 0 0 64 64;" xml:space="preserve">
<style type="text/css">
	.st0{fill:#DB8E11;}
	.st1{fill:#212A41;}
	.st2{fill:#F9AC2F;}
	.st3{fill:#FFCA4D;}
	.st4{fill:#B7C0D7;}
	.st5{fill:#99A2B9;}
	.st6{fill:#B51040;}
	.st7{fill:#D32E5E;}
	.st8{fill:#F14C7C;}
	.st9{fill:#0079A8;}
	.st10{fill:#1E97C6;}
	.st11{fill:#BED38E;}
	.st12{fill:#A0B570;}
	.st13{fill:#DCF1AC;}
	.st14{fill:#D5DEF5;}
	.st15{fill:#4E4B51;}
	.st16{fill:#6C696F;}
	.st17{fill:#848483;}
	.st18{fill:#A2A2A1;}
	.st19{fill:#7B849B;}
	.st20{fill:#8A878D;}
	.st21{fill:#C0C0BF;}
	.st22{fill:#005B8A;}
	.st23{fill:#970022;}
	.st24{fill:#1A237E;}
	.st25{fill:#BD7000;}
	.st26{fill:#003D6C;}
	.st27{fill:#666665;}
	.st28{fill:#195190;}
</style>
<g id="Space_Module">
	<g>
		<polygon class="st17" points="35.5,63.5 45.5,52.5 62.5,52.5 52.5,63.5 		"/>
		<path class="st1" d="M52.5,64h-17c-0.198,0-0.377-0.117-0.457-0.298c-0.08-0.181-0.046-0.392,0.087-0.539l10-11
			C45.224,52.06,45.358,52,45.5,52h17c0.198,0,0.377,0.117,0.457,0.298c0.08,0.181,0.046,0.392-0.087,0.539l-10,11
			C52.775,63.94,52.641,64,52.5,64z M36.63,63h15.648l9.091-10H45.721L36.63,63z"/>
	</g>
	<g>
		<polygon class="st17" points="35.5,0.5 45.5,11.5 62.5,11.5 52.5,0.5 		"/>
		<path class="st1" d="M62.5,12h-17c-0.141,0-0.275-0.06-0.37-0.164l-10-11c-0.133-0.146-0.167-0.358-0.087-0.539
			C35.123,0.117,35.302,0,35.5,0h17c0.141,0,0.275,0.06,0.37,0.164l10,11c0.133,0.146,0.167,0.358,0.087,0.539
			C62.877,11.883,62.698,12,62.5,12z M45.721,11H61.37L52.279,1H36.63L45.721,11z"/>
	</g>
	<g>
		<rect x="11.5" y="48" class="st17" width="4" height="10"/>
		<path class="st1" d="M15.5,58.5h-4c-0.276,0-0.5-0.224-0.5-0.5V48c0-0.276,0.224-0.5,0.5-0.5h4c0.276,0,0.5,0.224,0.5,0.5v10
			C16,58.276,15.776,58.5,15.5,58.5z M12,57.5h3v-9h-3V57.5z"/>
	</g>
	<g>
		<polygon class="st5" points="31.785,48 11.214,48 5.5,42.285 5.5,21.714 11.214,16 31.785,16 37.5,21.714 37.5,42.285 		"/>
		<path class="st1" d="M31.786,48.5H11.214c-0.133,0-0.26-0.053-0.354-0.146l-5.714-5.714C5.052,42.545,5,42.418,5,42.286V21.714
			c0-0.133,0.053-0.26,0.146-0.354l5.714-5.714c0.094-0.094,0.221-0.146,0.354-0.146h20.572c0.133,0,0.26,0.053,0.354,0.146
			l5.714,5.714C37.947,21.454,38,21.581,38,21.714v20.572c0,0.133-0.053,0.26-0.146,0.354l-5.714,5.714
			C32.045,48.447,31.918,48.5,31.786,48.5z M11.421,47.5h20.158L37,42.079V21.921L31.579,16.5H11.421L6,21.921v20.158L11.421,47.5z"
			/>
	</g>
	<g>
		<polygon class="st4" points="52.785,48 32.214,48 26.5,42.285 26.5,21.714 32.214,16 52.785,16 58.5,21.714 58.5,42.285 		"/>
		<path class="st1" d="M52.786,48.5H32.214c-0.133,0-0.26-0.053-0.354-0.146l-5.714-5.714C26.052,42.545,26,42.418,26,42.286V21.714
			c0-0.133,0.053-0.26,0.146-0.354l5.714-5.714c0.094-0.094,0.221-0.146,0.354-0.146h20.572c0.133,0,0.26,0.053,0.354,0.146
			l5.714,5.714C58.947,21.454,59,21.581,59,21.714v20.572c0,0.133-0.053,0.26-0.146,0.354l-5.714,5.714
			C53.045,48.447,52.918,48.5,52.786,48.5z M32.421,47.5h20.158L58,42.079V21.921L52.579,16.5H32.421L27,21.921v20.158L32.421,47.5z
			"/>
	</g>
	<g>
		<path class="st14" d="M33.042,46.5c-0.128,0-0.256-0.049-0.354-0.146l-4.543-4.543C28.052,41.717,28,41.59,28,41.457V22.542
			c0-0.133,0.053-0.26,0.146-0.354l4.543-4.542c0.195-0.195,0.512-0.195,0.707,0s0.195,0.512,0,0.707L29,22.75v18.5l4.396,4.396
			c0.195,0.195,0.195,0.512,0,0.707C33.298,46.451,33.17,46.5,33.042,46.5z"/>
	</g>
	<g>
		<path class="st5" d="M51.957,46.5c-0.128,0-0.256-0.049-0.354-0.146c-0.195-0.195-0.195-0.512,0-0.707L56,41.25v-18.5
			l-4.396-4.396c-0.195-0.195-0.195-0.512,0-0.707s0.512-0.195,0.707,0l4.542,4.542C56.947,22.283,57,22.41,57,22.542v18.915
			c0,0.133-0.053,0.26-0.146,0.354l-4.542,4.543C52.213,46.451,52.085,46.5,51.957,46.5z"/>
	</g>
	<g>
		<polygon class="st16" points="28.5,63.5 18.5,52.5 1.5,52.5 11.5,63.5 		"/>
		<path class="st1" d="M28.5,64h-17c-0.141,0-0.275-0.06-0.37-0.164l-10-11c-0.133-0.146-0.167-0.358-0.087-0.539
			C1.123,52.117,1.302,52,1.5,52h17c0.141,0,0.275,0.06,0.37,0.164l10,11c0.133,0.146,0.167,0.358,0.087,0.539
			C28.876,63.883,28.697,64,28.5,64z M11.721,63h15.648l-9.091-10H2.63L11.721,63z"/>
	</g>
	<g>
		<rect x="5.5" y="21.714" class="st6" width="21" height="20.571"/>
		<path class="st1" d="M26.5,42.786h-21c-0.276,0-0.5-0.224-0.5-0.5V21.714c0-0.276,0.224-0.5,0.5-0.5h21c0.276,0,0.5,0.224,0.5,0.5
			v20.572C27,42.562,26.776,42.786,26.5,42.786z M6,41.786h20V22.214H6V41.786z"/>
	</g>
	<g>
		<rect x="26.5" y="26" class="st9" width="7.5" height="3"/>
		<path class="st1" d="M34,29.5h-7.5c-0.276,0-0.5-0.224-0.5-0.5v-3c0-0.276,0.224-0.5,0.5-0.5H34c0.276,0,0.5,0.224,0.5,0.5v3
			C34.5,29.276,34.276,29.5,34,29.5z M27,28.5h6.5v-2H27V28.5z"/>
	</g>
	<g>
		<rect x="26.5" y="35" class="st9" width="7.5" height="3"/>
		<path class="st1" d="M34,38.5h-7.5c-0.276,0-0.5-0.224-0.5-0.5v-3c0-0.276,0.224-0.5,0.5-0.5H34c0.276,0,0.5,0.224,0.5,0.5v3
			C34.5,38.276,34.276,38.5,34,38.5z M27,37.5h6.5v-2H27V37.5z"/>
	</g>
	<g>
		<rect x="55.5" y="26" class="st9" width="3" height="3"/>
		<path class="st1" d="M58.5,29.5h-3c-0.276,0-0.5-0.224-0.5-0.5v-3c0-0.276,0.224-0.5,0.5-0.5h3c0.276,0,0.5,0.224,0.5,0.5v3
			C59,29.276,58.776,29.5,58.5,29.5z M56,28.5h2v-2h-2V28.5z"/>
	</g>
	<g>
		<rect x="55.5" y="35" class="st9" width="3" height="3"/>
		<path class="st1" d="M58.5,38.5h-3c-0.276,0-0.5-0.224-0.5-0.5v-3c0-0.276,0.224-0.5,0.5-0.5h3c0.276,0,0.5,0.224,0.5,0.5v3
			C59,38.276,58.776,38.5,58.5,38.5z M56,37.5h2v-2h-2V37.5z"/>
	</g>
	<g>
		<path class="st5" d="M42.5,26c-3.314,0-6,2.686-6,6s2.686,6,6,6h5V26H42.5z"/>
		<path class="st1" d="M47.5,38.5h-5c-3.584,0-6.5-2.916-6.5-6.5s2.916-6.5,6.5-6.5h5c0.276,0,0.5,0.224,0.5,0.5v12
			C48,38.276,47.776,38.5,47.5,38.5z M42.5,26.5c-3.033,0-5.5,2.467-5.5,5.5s2.467,5.5,5.5,5.5H47v-11H42.5z"/>
	</g>
	<g>
		<circle class="st2" cx="47.5" cy="32" r="6"/>
		<path class="st1" d="M47.5,38.5c-3.584,0-6.5-2.916-6.5-6.5s2.916-6.5,6.5-6.5S54,28.416,54,32S51.083,38.5,47.5,38.5z M47.5,26.5
			c-3.033,0-5.5,2.467-5.5,5.5s2.467,5.5,5.5,5.5S53,35.033,53,32S50.532,26.5,47.5,26.5z"/>
	</g>
	<g>
		<circle class="st9" cx="47.5" cy="32" r="3"/>
		<path class="st1" d="M47.5,35.5c-1.93,0-3.5-1.57-3.5-3.5s1.57-3.5,3.5-3.5S51,30.07,51,32S49.429,35.5,47.5,35.5z M47.5,29.5
			c-1.378,0-2.5,1.122-2.5,2.5s1.122,2.5,2.5,2.5S50,33.378,50,32S48.878,29.5,47.5,29.5z"/>
	</g>
	<g>
		<rect x="11.5" y="6" class="st17" width="4" height="10"/>
		<path class="st1" d="M15.5,16.5h-4c-0.276,0-0.5-0.224-0.5-0.5V6c0-0.276,0.224-0.5,0.5-0.5h4C15.776,5.5,16,5.724,16,6v10
			C16,16.276,15.776,16.5,15.5,16.5z M12,15.5h3v-9h-3V15.5z"/>
	</g>
	<g>
		<rect x="48.5" y="6" class="st18" width="4" height="10"/>
		<path class="st1" d="M52.5,16.5h-4c-0.276,0-0.5-0.224-0.5-0.5V6c0-0.276,0.224-0.5,0.5-0.5h4C52.776,5.5,53,5.724,53,6v10
			C53,16.276,52.776,16.5,52.5,16.5z M49,15.5h3v-9h-3V15.5z"/>
	</g>
	<g>
		<rect x="48.5" y="48" class="st18" width="4" height="10"/>
		<path class="st1" d="M52.5,58.5h-4c-0.276,0-0.5-0.224-0.5-0.5V48c0-0.276,0.224-0.5,0.5-0.5h4c0.276,0,0.5,0.224,0.5,0.5v10
			C53,58.276,52.776,58.5,52.5,58.5z M49,57.5h3v-9h-3V57.5z"/>
	</g>
	<g>
		<polygon class="st16" points="28.5,0.5 18.5,11.5 1.5,11.5 11.5,0.5 		"/>
		<path class="st1" d="M18.5,12h-17c-0.198,0-0.377-0.117-0.457-0.298c-0.08-0.181-0.046-0.392,0.087-0.539l10-11
			C11.224,0.06,11.358,0,11.5,0h17c0.198,0,0.377,0.117,0.457,0.298c0.08,0.181,0.046,0.392-0.087,0.539l-10,11
			C18.775,11.94,18.641,12,18.5,12z M2.63,11h15.648l9.091-10H11.721L2.63,11z"/>
	</g>
	<g>
		<path class="st20" d="M12.384,62c-0.136,0-0.271-0.055-0.37-0.164l-6.363-7c-0.186-0.205-0.17-0.521,0.034-0.707
			c0.204-0.185,0.521-0.17,0.707,0.034l6.363,7c0.186,0.205,0.17,0.521-0.034,0.707C12.625,61.957,12.504,62,12.384,62z"/>
	</g>
	<g>
		<path class="st20" d="M6.021,10c-0.12,0-0.241-0.043-0.336-0.13C5.48,9.684,5.465,9.368,5.651,9.164l6.363-7
			c0.187-0.204,0.503-0.218,0.707-0.034c0.204,0.186,0.219,0.502,0.034,0.707l-6.363,7C6.292,9.945,6.157,10,6.021,10z"/>
	</g>
	<g>
		<path class="st15" d="M23.979,62c-0.136,0-0.271-0.055-0.37-0.164l-6.364-7c-0.186-0.205-0.17-0.521,0.034-0.707
			c0.204-0.185,0.521-0.17,0.707,0.034l6.364,7c0.186,0.205,0.17,0.521-0.034,0.707C24.219,61.957,24.099,62,23.979,62z"/>
	</g>
	<g>
		<path class="st15" d="M17.615,10c-0.12,0-0.241-0.043-0.336-0.13c-0.204-0.186-0.219-0.502-0.034-0.707l6.364-7
			c0.187-0.204,0.502-0.218,0.707-0.034c0.204,0.186,0.219,0.502,0.034,0.707l-6.364,7C17.886,9.945,17.75,10,17.615,10z"/>
	</g>
	<g>
		<path class="st27" d="M51.615,62c-0.12,0-0.241-0.043-0.336-0.13c-0.204-0.186-0.219-0.502-0.034-0.707l6.364-7
			c0.187-0.204,0.503-0.219,0.707-0.034c0.204,0.186,0.219,0.502,0.034,0.707l-6.364,7C51.886,61.945,51.75,62,51.615,62z"/>
	</g>
	<g>
		<path class="st27" d="M57.979,10c-0.136,0-0.271-0.055-0.37-0.164l-6.363-7c-0.186-0.205-0.17-0.521,0.034-0.707
			c0.204-0.185,0.521-0.17,0.707,0.034l6.363,7c0.186,0.205,0.17,0.521-0.034,0.707C58.219,9.957,58.099,10,57.979,10z"/>
	</g>
	<g>
		<path class="st18" d="M40.021,62c-0.12,0-0.241-0.043-0.336-0.13c-0.204-0.186-0.219-0.502-0.034-0.707l6.363-7
			c0.187-0.204,0.503-0.219,0.707-0.034c0.204,0.186,0.219,0.502,0.034,0.707l-6.363,7C40.292,61.945,40.157,62,40.021,62z"/>
	</g>
	<g>
		<path class="st18" d="M46.385,10c-0.136,0-0.271-0.055-0.37-0.164l-6.364-7c-0.186-0.205-0.17-0.521,0.034-0.707
			c0.205-0.185,0.521-0.17,0.707,0.034l6.364,7c0.186,0.205,0.17,0.521-0.034,0.707C46.625,9.957,46.505,10,46.385,10z"/>
	</g>
	<g>
		<path class="st23" d="M24.5,40.786c-0.276,0-0.5-0.224-0.5-0.5V23.714c0-0.276,0.224-0.5,0.5-0.5s0.5,0.224,0.5,0.5v16.572
			C25,40.562,24.776,40.786,24.5,40.786z"/>
	</g>
	<g>
		<path class="st7" d="M7.5,40.786c-0.276,0-0.5-0.224-0.5-0.5V23.714c0-0.276,0.224-0.5,0.5-0.5s0.5,0.224,0.5,0.5v16.572
			C8,40.562,7.776,40.786,7.5,40.786z"/>
	</g>
	<g>
		<path class="st18" d="M12.5,35h-6c-0.552,0-1-0.448-1-1v-4c0-0.552,0.448-1,1-1h6c0.552,0,1,0.448,1,1v4
			C13.5,34.552,13.052,35,12.5,35z"/>
		<path class="st1" d="M12.5,35.5h-6C5.672,35.5,5,34.827,5,34v-4c0-0.827,0.673-1.5,1.5-1.5h6c0.827,0,1.5,0.673,1.5,1.5v4
			C14,34.827,13.327,35.5,12.5,35.5z M6.5,29.5C6.224,29.5,6,29.724,6,30v4c0,0.276,0.224,0.5,0.5,0.5h6c0.276,0,0.5-0.224,0.5-0.5
			v-4c0-0.276-0.224-0.5-0.5-0.5H6.5z"/>
	</g>
</g>
</svg>
