<?xml version="1.0" encoding="utf-8"?>
<!-- Generator: Adobe Illustrator 21.1.0, SVG Export Plug-In . SVG Version: 6.00 Build 0)  -->
<svg version="1.1" id="Layer_1" xmlns="http://www.w3.org/2000/svg" xmlns:xlink="http://www.w3.org/1999/xlink" x="0px" y="0px"
	 viewBox="0 0 64 64" style="enable-background:new 0 0 64 64;" xml:space="preserve">
<style type="text/css">
	.st0{fill:#DB8E11;}
	.st1{fill:#212A41;}
	.st2{fill:#F9AC2F;}
	.st3{fill:#FFCA4D;}
	.st4{fill:#B7C0D7;}
	.st5{fill:#99A2B9;}
	.st6{fill:#B51040;}
	.st7{fill:#D32E5E;}
	.st8{fill:#F14C7C;}
	.st9{fill:#0079A8;}
	.st10{fill:#1E97C6;}
	.st11{fill:#BED38E;}
	.st12{fill:#A0B570;}
	.st13{fill:#DCF1AC;}
	.st14{fill:#D5DEF5;}
	.st15{fill:#4E4B51;}
	.st16{fill:#6C696F;}
	.st17{fill:#848483;}
	.st18{fill:#A2A2A1;}
	.st19{fill:#7B849B;}
	.st20{fill:#8A878D;}
	.st21{fill:#C0C0BF;}
	.st22{fill:#005B8A;}
	.st23{fill:#970022;}
	.st24{fill:#1A237E;}
	.st25{fill:#BD7000;}
	.st26{fill:#003D6C;}
	.st27{fill:#666665;}
	.st28{fill:#195190;}
</style>
<g id="Space_Boots">
	<g>
		<path class="st4" d="M33.5,28.901V6.5C33.5,5.119,32.381,4,31,4H8C6.619,4,5.5,5.119,5.5,6.5v44C5.5,51.881,6.619,53,8,53h48
			c1.381,0,2.5-1.119,2.5-2.5v-4.302c0-4.767-3.365-8.871-8.039-9.806l-12.942-2.588C35.182,33.336,33.5,31.284,33.5,28.901z"/>
		<path class="st1" d="M56,53.5H8c-1.654,0-3-1.346-3-3v-44c0-1.654,1.346-3,3-3h23c1.654,0,3,1.346,3,3v22.401
			c0,2.138,1.521,3.994,3.618,4.413l12.941,2.588C55.45,36.88,59,41.21,59,46.198V50.5C59,52.154,57.654,53.5,56,53.5z M8,4.5
			c-1.103,0-2,0.897-2,2v44c0,1.103,0.897,2,2,2h48c1.103,0,2-0.897,2-2v-4.302c0-4.513-3.212-8.43-7.637-9.315l-12.941-2.588
			C34.859,33.782,33,31.514,33,28.901V6.5c0-1.103-0.897-2-2-2H8z"/>
	</g>
	<g>
		<path class="st5" d="M31.5,29.401c-0.276,0-0.5-0.224-0.5-0.5V6.5C31,6.224,31.224,6,31.5,6S32,6.224,32,6.5v22.401
			C32,29.177,31.776,29.401,31.5,29.401z"/>
	</g>
	<g>
		<path class="st5" d="M56.5,51c-0.276,0-0.5-0.224-0.5-0.5v-4.302c0-3.562-2.536-6.655-6.029-7.354
			c-0.271-0.054-0.446-0.317-0.392-0.588c0.054-0.271,0.315-0.45,0.588-0.392C54.126,38.655,57,42.16,57,46.198V50.5
			C57,50.776,56.776,51,56.5,51z"/>
	</g>
	<g>
		<path class="st5" d="M35.321,36.485L20.59,33.757c-2.37-0.439-4.09-2.506-4.09-4.917V6.5C16.5,5.119,15.381,4,14,4H8
			C6.619,4,5.5,5.119,5.5,6.5v44C5.5,51.881,6.619,53,8,53h33c1.381,0,2.5-1.119,2.5-2.5v-4.182
			C43.5,41.497,40.061,37.363,35.321,36.485z"/>
		<path class="st1" d="M41,53.5H8c-1.654,0-3-1.346-3-3v-44c0-1.654,1.346-3,3-3h6c1.654,0,3,1.346,3,3v22.341
			c0,2.169,1.548,4.03,3.681,4.425l14.731,2.728C40.388,36.915,44,41.257,44,46.318V50.5C44,52.154,42.654,53.5,41,53.5z M8,4.5
			c-1.103,0-2,0.897-2,2v44c0,1.103,0.897,2,2,2h33c1.103,0,2-0.897,2-2v-4.182c0-4.579-3.268-8.507-7.77-9.341l0,0l-14.731-2.728
			C17.892,33.766,16,31.492,16,28.841V6.5c0-1.103-0.897-2-2-2H8z"/>
	</g>
	<g>
		<path class="st19" d="M41.5,51c-0.276,0-0.5-0.224-0.5-0.5v-4.182c0-3.615-2.58-6.716-6.134-7.375
			c-0.272-0.05-0.451-0.311-0.401-0.583c0.05-0.272,0.31-0.454,0.583-0.401C39.076,38.706,42,42.221,42,46.318V50.5
			C42,50.776,41.776,51,41.5,51z"/>
	</g>
	<g>
		<path class="st4" d="M7.5,51C7.224,51,7,50.776,7,50.5v-44C7,6.224,7.224,6,7.5,6S8,6.224,8,6.5v44C8,50.776,7.776,51,7.5,51z"/>
	</g>
	<g>
		<path class="st18" d="M59,60H39l-5-2.5H24V60H5c-0.552,0-1-0.448-1-1v-5c0-0.552,0.448-1,1-1h54c0.552,0,1,0.448,1,1v5
			C60,59.552,59.552,60,59,60z"/>
		<path class="st1" d="M59,60.5H39c-0.078,0-0.154-0.018-0.224-0.053L33.882,58H24.5v2c0,0.276-0.224,0.5-0.5,0.5H5
			c-0.827,0-1.5-0.673-1.5-1.5v-5c0-0.827,0.673-1.5,1.5-1.5h54c0.827,0,1.5,0.673,1.5,1.5v5C60.5,59.827,59.827,60.5,59,60.5z
			 M39.118,59.5H59c0.276,0,0.5-0.224,0.5-0.5v-5c0-0.276-0.224-0.5-0.5-0.5H5c-0.276,0-0.5,0.224-0.5,0.5v5
			c0,0.276,0.224,0.5,0.5,0.5h18.5v-2c0-0.276,0.224-0.5,0.5-0.5h10c0.078,0,0.154,0.018,0.224,0.053L39.118,59.5z"/>
	</g>
	<g>
		<path class="st17" d="M44,60H34l-5-2.5H19V60H5c-0.552,0-1-0.448-1-1v-5c0-0.552,0.448-1,1-1h39c0.552,0,1,0.448,1,1v5
			C45,59.552,44.552,60,44,60z"/>
		<path class="st1" d="M44,60.5H34c-0.078,0-0.154-0.018-0.224-0.053L28.882,58H19.5v2c0,0.276-0.224,0.5-0.5,0.5H5
			c-0.827,0-1.5-0.673-1.5-1.5v-5c0-0.827,0.673-1.5,1.5-1.5h39c0.827,0,1.5,0.673,1.5,1.5v5C45.5,59.827,44.827,60.5,44,60.5z
			 M34.118,59.5H44c0.276,0,0.5-0.224,0.5-0.5v-5c0-0.276-0.224-0.5-0.5-0.5H5c-0.276,0-0.5,0.224-0.5,0.5v5
			c0,0.276,0.224,0.5,0.5,0.5h13.5v-2c0-0.276,0.224-0.5,0.5-0.5h10c0.078,0,0.154,0.018,0.224,0.053L34.118,59.5z"/>
	</g>
	<g>
		<rect x="15.5" y="9" class="st2" width="18" height="5"/>
	</g>
	<g>
		<rect x="15.5" y="19" class="st2" width="18" height="5"/>
	</g>
	<g>
		<path class="st1" d="M56,53.5H31.5c-0.276,0-0.5-0.224-0.5-0.5v-2c0-3.033,2.467-5.5,5.5-5.5h22c0.276,0,0.5,0.224,0.5,0.5v4.5
			C59,52.154,57.654,53.5,56,53.5z M32,52.5h24c1.103,0,2-0.897,2-2v-4H36.5c-2.481,0-4.5,2.019-4.5,4.5V52.5z"/>
	</g>
	<g>
		<path class="st1" d="M17.5,53.5H8c-1.654,0-3-1.346-3-3V41c0-0.276,0.224-0.5,0.5-0.5h2C13.29,40.5,18,45.21,18,51v2
			C18,53.276,17.776,53.5,17.5,53.5z M6,41.5v9c0,1.103,0.897,2,2,2h9V51c0-5.238-4.262-9.5-9.5-9.5H6z"/>
	</g>
	<g>
		<path class="st0" d="M31.5,14.5c-0.276,0-0.5-0.224-0.5-0.5V9c0-0.276,0.224-0.5,0.5-0.5S32,8.724,32,9v5
			C32,14.276,31.776,14.5,31.5,14.5z"/>
	</g>
	<g>
		<path class="st0" d="M31.5,24.5c-0.276,0-0.5-0.224-0.5-0.5v-5c0-0.276,0.224-0.5,0.5-0.5S32,18.724,32,19v5
			C32,24.276,31.776,24.5,31.5,24.5z"/>
	</g>
	<g>
		<path class="st1" d="M33.5,14.5h-18c-0.276,0-0.5-0.224-0.5-0.5V9c0-0.276,0.224-0.5,0.5-0.5h18C33.776,8.5,34,8.724,34,9v5
			C34,14.276,33.776,14.5,33.5,14.5z M16,13.5h17v-4H16V13.5z"/>
	</g>
	<g>
		<rect x="19.5" y="7.5" class="st16" width="4" height="8"/>
		<path class="st1" d="M23.5,16h-4c-0.276,0-0.5-0.224-0.5-0.5v-8C19,7.224,19.224,7,19.5,7h4C23.776,7,24,7.224,24,7.5v8
			C24,15.776,23.776,16,23.5,16z M20,15h3V8h-3V15z"/>
	</g>
	<g>
		<path class="st1" d="M33.5,24.5h-18c-0.276,0-0.5-0.224-0.5-0.5v-5c0-0.276,0.224-0.5,0.5-0.5h18c0.276,0,0.5,0.224,0.5,0.5v5
			C34,24.276,33.776,24.5,33.5,24.5z M16,23.5h17v-4H16V23.5z"/>
	</g>
	<g>
		<rect x="19.5" y="17.5" class="st16" width="4" height="8"/>
		<path class="st1" d="M23.5,26h-4c-0.276,0-0.5-0.224-0.5-0.5v-8c0-0.276,0.224-0.5,0.5-0.5h4c0.276,0,0.5,0.224,0.5,0.5v8
			C24,25.776,23.776,26,23.5,26z M20,25h3v-7h-3V25z"/>
	</g>
</g>
</svg>
