<?xml version="1.0" encoding="utf-8"?>
<!-- Generator: Adobe Illustrator 21.1.0, SVG Export Plug-In . SVG Version: 6.00 Build 0)  -->
<svg version="1.1" id="Layer_1" xmlns="http://www.w3.org/2000/svg" xmlns:xlink="http://www.w3.org/1999/xlink" x="0px" y="0px"
	 viewBox="0 0 64 64" style="enable-background:new 0 0 64 64;" xml:space="preserve">
<style type="text/css">
	.st0{fill:#DB8E11;}
	.st1{fill:#212A41;}
	.st2{fill:#F9AC2F;}
	.st3{fill:#FFCA4D;}
	.st4{fill:#B7C0D7;}
	.st5{fill:#99A2B9;}
	.st6{fill:#B51040;}
	.st7{fill:#D32E5E;}
	.st8{fill:#F14C7C;}
	.st9{fill:#0079A8;}
	.st10{fill:#1E97C6;}
	.st11{fill:#BED38E;}
	.st12{fill:#A0B570;}
	.st13{fill:#DCF1AC;}
	.st14{fill:#D5DEF5;}
	.st15{fill:#4E4B51;}
	.st16{fill:#6C696F;}
	.st17{fill:#848483;}
	.st18{fill:#A2A2A1;}
	.st19{fill:#7B849B;}
	.st20{fill:#8A878D;}
	.st21{fill:#C0C0BF;}
	.st22{fill:#005B8A;}
	.st23{fill:#970022;}
	.st24{fill:#1A237E;}
	.st25{fill:#BD7000;}
	.st26{fill:#003D6C;}
	.st27{fill:#666665;}
	.st28{fill:#195190;}
</style>
<g id="Space_Car">
	<g>
		<circle class="st2" cx="52.125" cy="8.5" r="6.5"/>
		<path class="st1" d="M52.125,15.5c-3.859,0-7-3.14-7-7s3.141-7,7-7s7,3.14,7,7S55.984,15.5,52.125,15.5z M52.125,2.5
			c-3.309,0-6,2.691-6,6s2.691,6,6,6s6-2.691,6-6S55.434,2.5,52.125,2.5z"/>
	</g>
	<g>
		<path class="st3" d="M47.625,9c-0.276,0-0.5-0.224-0.5-0.5c0-2.757,2.243-5,5-5c0.276,0,0.5,0.224,0.5,0.5s-0.224,0.5-0.5,0.5
			c-2.206,0-4,1.794-4,4C48.125,8.776,47.901,9,47.625,9z"/>
	</g>
	<g>
		<path class="st0" d="M52.125,13.5c-0.276,0-0.5-0.224-0.5-0.5s0.224-0.5,0.5-0.5c2.206,0,4-1.794,4-4c0-0.276,0.224-0.5,0.5-0.5
			s0.5,0.224,0.5,0.5C57.125,11.257,54.882,13.5,52.125,13.5z"/>
	</g>
	<g>
		<path class="st18" d="M60.125,9.5h-16c-0.552,0-1-0.448-1-1v0c0-0.552,0.448-1,1-1h16c0.552,0,1,0.448,1,1v0
			C61.125,9.052,60.677,9.5,60.125,9.5z"/>
		<path class="st1" d="M60.125,10h-16c-0.827,0-1.5-0.673-1.5-1.5s0.673-1.5,1.5-1.5h16c0.827,0,1.5,0.673,1.5,1.5
			S60.952,10,60.125,10z M44.125,8c-0.275,0-0.5,0.224-0.5,0.5S43.85,9,44.125,9h16c0.275,0,0.5-0.224,0.5-0.5S60.4,8,60.125,8
			H44.125z"/>
	</g>
	<g>
		<circle class="st18" cx="37" cy="18.729" r="1.5"/>
		<path class="st1" d="M37,20.729c-1.103,0-2-0.897-2-2s0.897-2,2-2s2,0.897,2,2S38.103,20.729,37,20.729z M37,17.729
			c-0.552,0-1,0.449-1,1s0.448,1,1,1s1-0.449,1-1S37.552,17.729,37,17.729z"/>
	</g>
	<g>
		<circle class="st18" cx="23" cy="11.229" r="2"/>
		<path class="st1" d="M23,13.729c-1.378,0-2.5-1.122-2.5-2.5s1.122-2.5,2.5-2.5s2.5,1.122,2.5,2.5S24.378,13.729,23,13.729z
			 M23,9.729c-0.827,0-1.5,0.673-1.5,1.5s0.673,1.5,1.5,1.5s1.5-0.673,1.5-1.5S23.827,9.729,23,9.729z"/>
	</g>
	<g>
		<path class="st1" d="M19.5,22h-14C5.224,22,5,21.776,5,21.5S5.224,21,5.5,21h14c0.276,0,0.5,0.224,0.5,0.5S19.776,22,19.5,22z"/>
	</g>
	<g>
		<path class="st1" d="M2.5,22h-2C0.224,22,0,21.776,0,21.5S0.224,21,0.5,21h2C2.776,21,3,21.224,3,21.5S2.776,22,2.5,22z"/>
	</g>
	<g>
		<path class="st1" d="M58.5,62h-14c-0.276,0-0.5-0.224-0.5-0.5s0.224-0.5,0.5-0.5h14c0.276,0,0.5,0.224,0.5,0.5S58.776,62,58.5,62z
			"/>
	</g>
	<g>
		<path class="st1" d="M63.5,62h-2c-0.276,0-0.5-0.224-0.5-0.5s0.224-0.5,0.5-0.5h2c0.276,0,0.5,0.224,0.5,0.5S63.776,62,63.5,62z"
			/>
	</g>
	<g>
		<path class="st16" d="M32.382,43.716l-2.898,0.776l3.106,11.591l2.898-0.776c2.134-0.572,3.168-3.63,2.311-6.831
			C36.941,45.276,34.516,43.144,32.382,43.716z"/>
		<path class="st1" d="M32.59,56.584c-0.087,0-0.173-0.023-0.25-0.067c-0.115-0.066-0.199-0.176-0.233-0.304l-3.105-11.591
			c-0.071-0.267,0.087-0.541,0.354-0.612l2.897-0.776l0.129,0.483l-0.129-0.483c1.2-0.32,2.494,0.06,3.647,1.073
			c1.097,0.964,1.942,2.399,2.383,4.041c0.927,3.462-0.269,6.801-2.664,7.443l-2.899,0.777
			C32.677,56.578,32.633,56.584,32.59,56.584z M30.097,44.846l2.847,10.625l2.415-0.647c1.864-0.5,2.742-3.289,1.957-6.218
			c-0.389-1.454-1.127-2.714-2.076-3.549c-0.894-0.785-1.864-1.091-2.728-0.858L30.097,44.846z"/>
	</g>
	<g>
		<path class="st16" d="M10.649,49.54l-2.898,0.776l3.106,11.591l2.898-0.776c2.134-0.572,3.168-3.63,2.311-6.831
			C15.208,51.099,12.783,48.968,10.649,49.54z"/>
		<path class="st1" d="M10.856,62.407c-0.221,0-0.423-0.147-0.482-0.371L7.268,50.445c-0.034-0.128-0.017-0.265,0.05-0.379
			s0.176-0.199,0.304-0.233l2.898-0.776c2.394-0.644,5.101,1.651,6.029,5.114c0.928,3.462-0.268,6.801-2.665,7.443l-2.897,0.776
			C10.943,62.402,10.899,62.407,10.856,62.407z M8.363,50.669l2.847,10.625l2.415-0.647c1.864-0.5,2.742-3.289,1.958-6.219
			c-0.785-2.929-2.942-4.901-4.804-4.407l0,0L8.363,50.669z M10.649,49.54h0.01H10.649z"/>
	</g>
	<g>
		<path class="st6" d="M42.266,49.868L8.019,59.044c-2.667,0.715-5.409-0.868-6.124-3.536l-0.906-3.381
			c-0.715-2.667,0.868-5.409,3.536-6.124l23.665-6.341l11.44-0.035c3.17-0.01,5.549,2.896,4.914,6.002l-0.475,2.323
			C43.878,48.882,43.181,49.623,42.266,49.868z"/>
		<path class="st1" d="M6.716,59.717c-0.953,0-1.894-0.25-2.741-0.739c-1.272-0.734-2.183-1.92-2.562-3.339l-0.906-3.381
			c-0.785-2.93,0.96-5.952,3.889-6.736l23.665-6.341c0.042-0.011,0.084-0.017,0.128-0.017l11.439-0.035
			c1.693-0.036,3.219,0.729,4.272,2.015c1.053,1.286,1.467,2.958,1.134,4.587l-0.476,2.323c-0.23,1.121-1.06,2-2.164,2.296
			L8.148,59.527C7.675,59.654,7.193,59.717,6.716,59.717z M28.256,40.163L4.654,46.487c-2.396,0.642-3.824,3.115-3.182,5.512
			l0.906,3.381c0.311,1.161,1.056,2.131,2.096,2.732c1.042,0.602,2.255,0.761,3.415,0.45l34.246-9.176h0.001
			c0.735-0.197,1.288-0.784,1.441-1.531l0.476-2.323c0.272-1.333-0.065-2.701-0.927-3.754c-0.858-1.048-2.127-1.648-3.481-1.648
			c-0.005,0-0.01,0-0.014,0L28.256,40.163z"/>
	</g>
	<g>
		<path class="st16" d="M52.666,38.281l-2.898,0.776l3.106,11.591l2.898-0.776c2.134-0.572,3.168-3.63,2.311-6.831
			C57.225,39.84,54.8,37.709,52.666,38.281z"/>
		<path class="st1" d="M52.874,51.148c-0.221,0-0.423-0.147-0.483-0.371l-3.105-11.591c-0.071-0.267,0.087-0.541,0.354-0.612
			l2.897-0.777h0.001c2.389-0.643,5.103,1.652,6.029,5.114c0.927,3.462-0.269,6.801-2.664,7.443l-2.899,0.776
			C52.96,51.143,52.917,51.148,52.874,51.148z M50.381,39.411l2.847,10.625l2.416-0.647c1.863-0.5,2.741-3.289,1.956-6.218
			c-0.784-2.93-2.95-4.901-4.804-4.407L50.381,39.411z"/>
	</g>
	<g>
		<ellipse transform="matrix(0.9659 -0.2588 0.2588 0.9659 -9.8601 14.8113)" class="st15" cx="51.322" cy="44.853" rx="4" ry="6"/>
		<path class="st1" d="M52.159,51.243c-0.946,0-1.916-0.405-2.802-1.184c-1.097-0.963-1.942-2.399-2.383-4.041
			c-0.927-3.462,0.269-6.801,2.664-7.443c1.205-0.321,2.494,0.06,3.647,1.073c1.097,0.963,1.942,2.398,2.383,4.041
			c0.439,1.643,0.424,3.308-0.044,4.691c-0.491,1.454-1.423,2.431-2.622,2.752C52.727,51.206,52.443,51.243,52.159,51.243z
			 M50.479,39.465c-0.197,0-0.392,0.025-0.58,0.076c-1.864,0.5-2.742,3.289-1.957,6.218c0.389,1.454,1.126,2.714,2.076,3.549
			c0.895,0.786,1.865,1.09,2.727,0.858c0.866-0.232,1.553-0.98,1.935-2.107c0.404-1.197,0.413-2.658,0.023-4.111l0,0
			c-0.389-1.454-1.127-2.714-2.076-3.549C51.928,39.785,51.184,39.465,50.479,39.465z"/>
	</g>
	<g>
		<path class="st16" d="M46.543,34.745l-9.595-4.495c-1.067-0.5-2.277-0.607-3.415-0.302l-13.566,3.635
			c-0.888,0.238-1.011,1.448-0.189,1.86l8.413,4.219L46.543,34.745z"/>
		<path class="st1" d="M28.19,40.163c-0.077,0-0.154-0.018-0.224-0.053l-8.413-4.219c-0.562-0.281-0.883-0.867-0.82-1.492
			c0.063-0.625,0.497-1.135,1.104-1.297l13.566-3.635c1.249-0.335,2.584-0.218,3.757,0.332l9.595,4.495
			c0.19,0.089,0.305,0.288,0.286,0.497c-0.019,0.209-0.166,0.385-0.368,0.439l-18.354,4.917
			C28.277,40.157,28.233,40.163,28.19,40.163z M34.826,30.279c-0.391,0-0.782,0.051-1.163,0.153l-13.567,3.635
			c-0.309,0.083-0.36,0.352-0.368,0.433c-0.008,0.081-0.012,0.354,0.273,0.498l8.243,4.134l16.846-4.514l-8.354-3.914
			C36.135,30.422,35.481,30.279,34.826,30.279z"/>
	</g>
	<g>
		<path class="st15" d="M40.731,34.732c-0.071,0-0.144-0.015-0.212-0.047l-4.632-2.17c-0.533-0.25-1.139-0.303-1.708-0.151
			c-0.262,0.074-0.54-0.086-0.612-0.354c-0.071-0.267,0.087-0.541,0.354-0.612c0.795-0.214,1.645-0.139,2.39,0.211l4.632,2.17
			c0.25,0.117,0.358,0.415,0.241,0.665C41.1,34.625,40.919,34.732,40.731,34.732z"/>
	</g>
	<g>
		<path class="st20" d="M28.407,38.034c-0.075,0-0.152-0.017-0.224-0.053l-5.382-2.699c-0.247-0.124-0.347-0.424-0.223-0.671
			c0.123-0.247,0.424-0.346,0.671-0.223l5.382,2.699c0.247,0.124,0.347,0.424,0.223,0.671C28.767,37.933,28.59,38.034,28.407,38.034
			z"/>
	</g>
	<g>
		<path class="st6" d="M15.788,37.81l-6.693,1.793c-1.281,0.343-2.373,1.181-3.036,2.33l-2.5,4.33l15.938-4.271l-0.647-2.415
			C18.492,38.244,17.122,37.452,15.788,37.81z"/>
		<path class="st1" d="M3.559,46.763c-0.153,0-0.301-0.07-0.396-0.196c-0.124-0.16-0.138-0.379-0.037-0.554l2.5-4.33
			c0.735-1.272,1.921-2.183,3.34-2.562l6.693-1.793l0,0c1.599-0.427,3.246,0.524,3.674,2.122l0.647,2.415
			c0.071,0.267-0.087,0.541-0.354,0.612L3.688,46.746C3.646,46.757,3.602,46.763,3.559,46.763z M15.917,38.292l-6.693,1.793
			c-1.161,0.311-2.131,1.056-2.732,2.097l-1.896,3.285l14.289-3.829l-0.518-1.932C18.082,38.642,16.981,38.011,15.917,38.292
			L15.917,38.292z"/>
	</g>
	<g>
		<path class="st16" d="M19.497,41.992L8.389,44.969l-0.647-2.415c-0.357-1.334,0.434-2.705,1.768-3.062l6.279-1.682
			c1.334-0.357,2.705,0.434,3.062,1.768L19.497,41.992z"/>
		<path class="st1" d="M8.389,45.469c-0.087,0-0.173-0.023-0.25-0.067c-0.115-0.066-0.199-0.176-0.233-0.304l-0.647-2.415
			c-0.428-1.598,0.523-3.246,2.121-3.674l6.279-1.683c1.599-0.427,3.246,0.524,3.674,2.122l0.647,2.415
			c0.071,0.267-0.087,0.541-0.354,0.612L8.518,45.452C8.476,45.463,8.432,45.469,8.389,45.469z M16.434,38.224
			c-0.171,0-0.344,0.022-0.517,0.068l-6.279,1.683c-1.065,0.286-1.699,1.384-1.414,2.45l0.518,1.932l10.142-2.718l-0.518-1.932
			C18.127,38.814,17.317,38.224,16.434,38.224z"/>
	</g>
	<g>
		<polygon class="st4" points="23.406,37.264 24.326,40.698 28.19,39.663 		"/>
		<path class="st1" d="M24.326,41.198c-0.221,0-0.422-0.147-0.482-0.371l-0.92-3.435c-0.051-0.19,0.014-0.393,0.167-0.517
			c0.153-0.125,0.365-0.147,0.54-0.059l4.784,2.399c0.186,0.093,0.294,0.291,0.273,0.498c-0.021,0.207-0.167,0.378-0.368,0.432
			l-3.863,1.035C24.413,41.193,24.369,41.198,24.326,41.198z M24.177,38.21l0.503,1.876l2.11-0.565L24.177,38.21z"/>
	</g>
	<g>
		<path class="st7" d="M57.982,34.711l-11.44,0.035L28.19,39.663l11.44-0.035c3.171-0.01,5.549,2.896,4.914,6.002l-0.475,2.323
			c-0.19,0.928-0.888,1.669-1.802,1.914l18.353-4.918c0.915-0.245,1.612-0.986,1.802-1.914l0.475-2.323
			C63.532,37.607,61.153,34.701,57.982,34.711z"/>
		<path class="st1" d="M42.266,50.368c-0.221,0-0.423-0.147-0.483-0.371c-0.071-0.267,0.087-0.541,0.354-0.612h0.001
			c0.735-0.197,1.288-0.784,1.441-1.531l0.476-2.323c0.272-1.333-0.065-2.701-0.928-3.753c-0.858-1.048-2.126-1.649-3.48-1.649
			c-0.005,0-0.01,0-0.014,0l-11.44,0.035H28.19c-0.25,0-0.462-0.186-0.496-0.434c-0.033-0.249,0.124-0.484,0.366-0.549l18.353-4.917
			c0.042-0.011,0.085-0.017,0.128-0.017l11.439-0.035c0.006,0,0.012,0,0.018,0c1.655,0,3.205,0.734,4.255,2.015
			c1.053,1.286,1.467,2.958,1.134,4.587l-0.476,2.323c-0.23,1.121-1.06,2-2.164,2.296L42.398,50.35
			c-0.001,0-0.002,0.001-0.004,0.001C42.352,50.362,42.309,50.368,42.266,50.368z M39.646,39.128c1.655,0,3.205,0.734,4.255,2.015
			c1.053,1.287,1.466,2.958,1.134,4.587l-0.476,2.323c-0.055,0.266-0.143,0.518-0.26,0.751l16.189-4.338
			c0.736-0.197,1.289-0.784,1.442-1.531l0.476-2.323c0.272-1.333-0.065-2.701-0.927-3.754c-0.858-1.048-2.127-1.648-3.481-1.648
			c-0.005,0-0.01,0-0.014,0l0,0l-11.375,0.035l-14.578,3.906l7.597-0.023C39.634,39.128,39.64,39.128,39.646,39.128z M57.982,34.711
			h0.01H57.982z"/>
	</g>
	<g>
		<path class="st1" d="M16.229,57.344c-0.221,0-0.423-0.147-0.482-0.371l-3.494-13.04c-0.071-0.267,0.087-0.541,0.354-0.612
			c0.269-0.07,0.541,0.086,0.612,0.354l3.494,13.04c0.071,0.267-0.087,0.541-0.354,0.612C16.315,57.339,16.272,57.344,16.229,57.344
			z"/>
	</g>
	<g>
		<path class="st1" d="M29.484,44.993c-0.221,0-0.422-0.147-0.482-0.371l-1.294-4.83c-0.072-0.267,0.087-0.541,0.354-0.612
			c0.266-0.07,0.541,0.087,0.612,0.354l1.294,4.83c0.071,0.267-0.087,0.541-0.354,0.612C29.57,44.987,29.527,44.993,29.484,44.993z"
			/>
	</g>
	<g>
		<path class="st4" d="M44.61,44.063l18.353-4.918c-0.165-1.461-0.971-2.756-2.154-3.564l-18.353,4.918
			C43.638,41.307,44.444,42.602,44.61,44.063z"/>
		<path class="st1" d="M44.609,44.563c-0.1,0-0.198-0.03-0.281-0.087c-0.121-0.082-0.199-0.212-0.216-0.357
			c-0.146-1.296-0.853-2.465-1.938-3.208c-0.161-0.11-0.243-0.304-0.211-0.497c0.033-0.193,0.175-0.349,0.363-0.399l18.353-4.917
			c0.142-0.04,0.292-0.012,0.412,0.07c1.325,0.906,2.188,2.335,2.368,3.92c0.027,0.246-0.129,0.475-0.367,0.539l-18.353,4.918
			C44.696,44.558,44.652,44.563,44.609,44.563z M43.519,40.732c0.746,0.741,1.265,1.679,1.493,2.706l17.385-4.659
			c-0.223-1.054-0.82-1.996-1.688-2.653L43.519,40.732z"/>
	</g>
	<g>
		<path class="st5" d="M44.61,44.063c-0.165-1.461-0.971-2.756-2.154-3.564l-3.055,0.819c-0.718,0.192-0.983,1.073-0.489,1.629
			l0.868,0.979c0.628,0.708,1.603,1.001,2.518,0.756L44.61,44.063z"/>
		<path class="st1" d="M41.643,45.27c-0.844,0-1.657-0.357-2.237-1.011l-0.868-0.98c-0.348-0.392-0.465-0.925-0.314-1.426
			c0.15-0.502,0.543-0.882,1.048-1.018l3.056-0.819c0.143-0.038,0.292-0.012,0.412,0.07c1.326,0.906,2.188,2.335,2.368,3.921
			c0.027,0.246-0.129,0.475-0.367,0.539l-2.312,0.62C42.166,45.236,41.903,45.27,41.643,45.27z M42.356,41.043l-2.826,0.757
			c-0.243,0.065-0.325,0.259-0.35,0.339c-0.024,0.08-0.062,0.287,0.104,0.476l0.868,0.979c0.506,0.57,1.279,0.802,2.015,0.605
			l1.876-0.503C43.821,42.644,43.224,41.702,42.356,41.043z"/>
	</g>
	<g>
		<path class="st1" d="M50.906,40.806c-0.221,0-0.423-0.147-0.483-0.371c-0.071-0.267,0.087-0.541,0.354-0.612l4.83-1.294
			c0.271-0.071,0.541,0.086,0.613,0.354c0.071,0.267-0.087,0.541-0.354,0.612l-4.83,1.294C50.992,40.8,50.949,40.806,50.906,40.806z
			"/>
	</g>
	<g>
		<ellipse transform="matrix(0.9659 -0.2588 0.2588 0.9659 -11.958 9.7465)" class="st15" cx="31.037" cy="50.288" rx="4" ry="6"/>
		<path class="st1" d="M31.896,56.675c-2.164,0-4.383-2.152-5.206-5.222c-0.927-3.462,0.268-6.801,2.665-7.443
			c1.199-0.32,2.494,0.06,3.646,1.073c1.097,0.963,1.942,2.399,2.383,4.041s0.425,3.308-0.043,4.691
			c-0.492,1.454-1.423,2.431-2.622,2.752C32.448,56.64,32.173,56.675,31.896,56.675z M30.194,44.9c-0.197,0-0.391,0.025-0.58,0.076
			c-1.864,0.5-2.742,3.289-1.958,6.218c0.786,2.93,2.941,4.905,4.804,4.407c0.866-0.232,1.552-0.98,1.933-2.107
			c0.405-1.198,0.414-2.658,0.023-4.112l0,0c-0.389-1.454-1.126-2.714-2.076-3.549C31.643,45.22,30.899,44.9,30.194,44.9z"/>
	</g>
	<g>
		
			<ellipse transform="matrix(0.9659 -0.2588 0.2588 0.9659 -11.958 9.7465)" class="st17" cx="31.037" cy="50.288" rx="1.5" ry="3"/>
		<path class="st1" d="M31.612,53.712c-1.006,0-2.042-1.171-2.506-2.907c-0.227-0.848-0.274-1.697-0.132-2.392
			c0.167-0.816,0.578-1.351,1.158-1.506c0.579-0.156,1.203,0.102,1.755,0.725c0.471,0.531,0.855,1.29,1.082,2.138
			c0.228,0.848,0.274,1.697,0.132,2.393c-0.167,0.816-0.578,1.351-1.158,1.506C31.833,53.698,31.723,53.712,31.612,53.712z
			 M30.461,47.865c-0.025,0-0.049,0.003-0.071,0.009c-0.186,0.05-0.354,0.333-0.437,0.74c-0.11,0.538-0.067,1.243,0.118,1.933
			c0.395,1.474,1.217,2.265,1.613,2.156c0.186-0.05,0.354-0.333,0.437-0.741c0.11-0.538,0.067-1.243-0.118-1.933l0,0
			c-0.185-0.69-0.5-1.322-0.864-1.733C30.896,48.023,30.645,47.865,30.461,47.865z"/>
	</g>
	<g>
		<ellipse transform="matrix(0.9659 -0.2588 0.2588 0.9659 -14.2057 4.32)" class="st15" cx="9.304" cy="56.112" rx="4" ry="6"/>
		<path class="st1" d="M10.164,62.498c-2.164,0-4.384-2.151-5.207-5.222c-0.928-3.462,0.268-6.801,2.665-7.443
			c1.2-0.32,2.494,0.06,3.646,1.073c1.096,0.964,1.942,2.399,2.382,4.041l0,0c0.44,1.643,0.425,3.309-0.042,4.691
			c-0.492,1.454-1.423,2.431-2.622,2.752C10.715,62.463,10.439,62.498,10.164,62.498z M8.46,50.723c-0.197,0-0.391,0.025-0.58,0.076
			c-1.864,0.5-2.742,3.289-1.958,6.219c0.785,2.929,2.939,4.899,4.805,4.407c0.865-0.232,1.552-0.98,1.933-2.107
			c0.405-1.198,0.414-2.658,0.024-4.112l0,0c-0.39-1.454-1.127-2.714-2.077-3.549C9.91,51.043,9.166,50.723,8.46,50.723z"/>
	</g>
	<g>
		<ellipse transform="matrix(0.9659 -0.2588 0.2588 0.9659 -14.2057 4.32)" class="st17" cx="9.304" cy="56.112" rx="1.5" ry="3"/>
		<path class="st1" d="M9.875,59.536c-0.479,0-0.973-0.265-1.421-0.77c-0.471-0.531-0.855-1.29-1.082-2.137
			c-0.516-1.928-0.075-3.604,1.026-3.898c1.095-0.294,2.321,0.935,2.838,2.863l0,0c0.227,0.848,0.274,1.697,0.131,2.392
			c-0.167,0.816-0.578,1.351-1.158,1.506C10.099,59.522,9.988,59.536,9.875,59.536z M8.731,53.688c-0.026,0-0.051,0.003-0.075,0.009
			c-0.394,0.105-0.714,1.2-0.319,2.674c0.185,0.69,0.5,1.322,0.865,1.733c0.275,0.311,0.56,0.47,0.748,0.423
			c0.186-0.05,0.354-0.333,0.437-0.741c0.11-0.538,0.067-1.242-0.118-1.933C9.898,54.467,9.147,53.688,8.731,53.688z"/>
	</g>
	<g>
		<path class="st7" d="M19.164,39.493l3.549-0.951c0.533-0.143,1.082,0.174,1.225,0.707l0.388,1.449
			c0.143,0.533-0.174,1.082-0.707,1.225l-3.135,0.84c-0.431,0.116-0.887-0.069-1.116-0.452l-0.802-1.338
			C18.224,40.404,18.523,39.665,19.164,39.493z"/>
		<path class="st1" d="M20.229,43.296c-0.519,0-1.016-0.27-1.291-0.728l-0.802-1.338c-0.245-0.408-0.282-0.895-0.104-1.335
			c0.178-0.44,0.543-0.763,1.002-0.886l3.549-0.951c0.388-0.104,0.792-0.05,1.138,0.149c0.347,0.201,0.595,0.524,0.699,0.912
			l0.389,1.448c0.104,0.387,0.05,0.792-0.15,1.138c-0.201,0.347-0.524,0.595-0.912,0.699l-3.134,0.84
			C20.486,43.28,20.357,43.296,20.229,43.296z M22.973,39.008c-0.043,0-0.087,0.005-0.13,0.017l-3.549,0.951l0,0
			c-0.153,0.041-0.275,0.148-0.334,0.295c-0.06,0.147-0.047,0.309,0.034,0.445l0.802,1.337c0.114,0.19,0.343,0.283,0.559,0.226
			l3.134-0.84c0.129-0.035,0.237-0.117,0.304-0.233s0.084-0.25,0.05-0.38l-0.389-1.448c-0.035-0.129-0.117-0.237-0.233-0.304
			C23.146,39.031,23.06,39.008,22.973,39.008z M19.165,39.493h0.01H19.165z"/>
	</g>
	<g>
		<path class="st1" d="M13.511,47.202c-0.221,0-0.422-0.147-0.482-0.371c-0.072-0.267,0.087-0.541,0.354-0.612l2.898-0.777
			c0.268-0.07,0.541,0.087,0.612,0.354s-0.087,0.541-0.354,0.612l-2.898,0.777C13.598,47.197,13.554,47.202,13.511,47.202z"/>
	</g>
	<g>
		<path class="st7" d="M2.921,52.11c-0.221,0-0.423-0.147-0.482-0.371c-0.5-1.864,0.61-3.787,2.475-4.287
			c0.267-0.07,0.541,0.087,0.612,0.354c0.072,0.267-0.087,0.541-0.354,0.612c-1.332,0.357-2.125,1.73-1.768,3.062
			c0.071,0.267-0.087,0.541-0.354,0.612C3.007,52.105,2.964,52.11,2.921,52.11z"/>
	</g>
</g>
</svg>
