<?xml version="1.0" encoding="utf-8"?>
<!-- Generator: Adobe Illustrator 21.1.0, SVG Export Plug-In . SVG Version: 6.00 Build 0)  -->
<svg version="1.1" id="Layer_1" xmlns="http://www.w3.org/2000/svg" xmlns:xlink="http://www.w3.org/1999/xlink" x="0px" y="0px"
	 viewBox="0 0 64 64" style="enable-background:new 0 0 64 64;" xml:space="preserve">
<style type="text/css">
	.st0{fill:#DB8E11;}
	.st1{fill:#212A41;}
	.st2{fill:#F9AC2F;}
	.st3{fill:#FFCA4D;}
	.st4{fill:#B7C0D7;}
	.st5{fill:#99A2B9;}
	.st6{fill:#B51040;}
	.st7{fill:#D32E5E;}
	.st8{fill:#F14C7C;}
	.st9{fill:#0079A8;}
	.st10{fill:#1E97C6;}
	.st11{fill:#BED38E;}
	.st12{fill:#A0B570;}
	.st13{fill:#DCF1AC;}
	.st14{fill:#D5DEF5;}
	.st15{fill:#4E4B51;}
	.st16{fill:#6C696F;}
	.st17{fill:#848483;}
	.st18{fill:#A2A2A1;}
	.st19{fill:#7B849B;}
	.st20{fill:#8A878D;}
	.st21{fill:#C0C0BF;}
	.st22{fill:#005B8A;}
	.st23{fill:#970022;}
	.st24{fill:#1A237E;}
	.st25{fill:#BD7000;}
	.st26{fill:#003D6C;}
	.st27{fill:#666665;}
	.st28{fill:#195190;}
</style>
<g id="Space_Shuttle_Launch">
	<g>
		<path class="st2" d="M39.75,58.9h-14V13.02c0-4.226,1.783-8.256,4.91-11.099l0.408-0.371c0.954-0.867,2.41-0.867,3.363,0
			l0.408,0.371c3.127,2.843,4.91,6.873,4.91,11.099V58.9z"/>
		<path class="st1" d="M39.75,59.4h-14c-0.276,0-0.5-0.224-0.5-0.5V13.02c0-4.357,1.85-8.538,5.074-11.469l0.408-0.371
			c1.15-1.046,2.884-1.046,4.036,0l0.407,0.371C38.4,4.482,40.25,8.663,40.25,13.02V58.9C40.25,59.176,40.026,59.4,39.75,59.4z
			 M26.25,58.4h13V13.02c0-4.076-1.73-7.987-4.746-10.729L34.096,1.92c-0.768-0.698-1.925-0.698-2.69,0l-0.409,0.372
			C27.98,5.033,26.25,8.944,26.25,13.02V58.4z"/>
	</g>
	<g>
		<path class="st1" d="M39.75,13.721h-14c-0.276,0-0.5-0.224-0.5-0.5V13.02c0-4.357,1.85-8.538,5.074-11.469l0.408-0.371
			c1.15-1.046,2.885-1.046,4.035,0l0.408,0.371l0,0C38.4,4.482,40.25,8.663,40.25,13.02v0.201
			C40.25,13.498,40.026,13.721,39.75,13.721z M26.253,12.721h12.994c-0.083-3.968-1.801-7.755-4.743-10.43L34.096,1.92
			c-0.768-0.697-1.924-0.698-2.691,0l-0.408,0.371C28.054,4.966,26.336,8.753,26.253,12.721z"/>
	</g>
	<g>
		<path class="st3" d="M27.877,11.721c-0.023,0-0.047-0.001-0.07-0.005c-0.273-0.038-0.464-0.291-0.426-0.564
			c0.438-3.121,1.96-6.004,4.288-8.121l0.409-0.372c0.205-0.184,0.521-0.17,0.706,0.035s0.17,0.521-0.034,0.707l-0.409,0.371
			c-2.154,1.959-3.564,4.629-3.97,7.519C28.336,11.541,28.122,11.721,27.877,11.721z"/>
	</g>
	<g>
		<path class="st4" d="M41.175,18.025l0.289-0.481c0.583-0.971,1.99-0.971,2.572,0l0.289,0.481c0.932,1.554,1.425,3.333,1.425,5.145
			V61.9c0,0.552-0.448,1-1,1h-4c-0.552,0-1-0.448-1-1V23.17C39.75,21.357,40.243,19.579,41.175,18.025z"/>
		<path class="st1" d="M44.75,63.4h-4c-0.827,0-1.5-0.673-1.5-1.5v-38.73c0-1.903,0.518-3.771,1.496-5.402l0,0l0.289-0.481
			c0.364-0.607,1.006-0.971,1.715-0.971s1.351,0.363,1.715,0.972l0.289,0.48c0.979,1.631,1.496,3.499,1.496,5.402V61.9
			C46.25,62.727,45.577,63.4,44.75,63.4z M41.604,18.282c-0.886,1.476-1.354,3.166-1.354,4.888V61.9c0,0.276,0.225,0.5,0.5,0.5h4
			c0.275,0,0.5-0.224,0.5-0.5v-38.73c0-1.722-0.468-3.412-1.354-4.888l-0.289-0.48c-0.365-0.609-1.35-0.608-1.715-0.001
			L41.604,18.282z"/>
	</g>
	<g>
		<path class="st1" d="M45.75,29.669h-6c-0.276,0-0.5-0.224-0.5-0.5v-6c0-0.276,0.224-0.5,0.5-0.5h6c0.276,0,0.5,0.224,0.5,0.5v6
			C46.25,29.446,46.026,29.669,45.75,29.669z M40.25,28.669h5v-5h-5V28.669z"/>
	</g>
	<g>
		<polygon class="st4" points="57.75,52.9 42.75,42.4 42.75,58.9 57.75,58.9 		"/>
		<path class="st1" d="M57.75,59.4h-15c-0.276,0-0.5-0.224-0.5-0.5V42.4c0-0.187,0.104-0.357,0.27-0.443
			c0.164-0.086,0.364-0.074,0.518,0.034l15,10.5c0.133,0.094,0.213,0.247,0.213,0.41v6C58.25,59.176,58.026,59.4,57.75,59.4z
			 M43.25,58.4h14v-5.24l-14-9.8V58.4z"/>
	</g>
	<g>
		<path class="st4" d="M38.537,12.483l-0.024-0.031c-1.401-1.802-4.124-1.802-5.525,0l-0.024,0.031
			c-2.731,3.511-4.213,7.831-4.213,12.279V58.9h14V24.762C42.75,20.314,41.268,15.994,38.537,12.483z"/>
		<path class="st1" d="M42.75,59.4h-14c-0.276,0-0.5-0.224-0.5-0.5V24.762c0-4.536,1.533-9.005,4.318-12.586
			c0.788-1.012,1.938-1.575,3.182-1.575s2.394,0.563,3.157,1.544l0.024,0.031c2.785,3.581,4.318,8.05,4.318,12.586V58.9
			C43.25,59.176,43.026,59.4,42.75,59.4z M29.25,58.4h13V24.762c0-4.314-1.459-8.566-4.107-11.971l-0.023-0.031
			c-0.573-0.736-1.437-1.159-2.369-1.159s-1.796,0.422-2.368,1.158c-2.673,3.437-4.132,7.688-4.132,12.003V58.4z"/>
	</g>
	<g>
		<path class="st5" d="M24.175,18.025l0.289-0.481c0.583-0.971,1.99-0.971,2.572,0l0.289,0.481c0.932,1.554,1.425,3.333,1.425,5.145
			V61.9c0,0.552-0.448,1-1,1h-4c-0.552,0-1-0.448-1-1V23.17C22.75,21.357,23.243,19.579,24.175,18.025z"/>
		<path class="st1" d="M27.75,63.4h-4c-0.827,0-1.5-0.673-1.5-1.5v-38.73c0-1.903,0.518-3.771,1.496-5.402l0,0l0.289-0.481
			c0.364-0.607,1.006-0.971,1.715-0.971s1.351,0.363,1.715,0.972l0.289,0.48c0.979,1.631,1.496,3.499,1.496,5.402V61.9
			C29.25,62.727,28.577,63.4,27.75,63.4z M24.604,18.282c-0.886,1.476-1.354,3.166-1.354,4.888V61.9c0,0.276,0.225,0.5,0.5,0.5h4
			c0.275,0,0.5-0.224,0.5-0.5v-38.73c0-1.722-0.468-3.412-1.354-4.888l-0.289-0.48c-0.365-0.609-1.35-0.608-1.715-0.001
			L24.604,18.282z"/>
	</g>
	<g>
		<path class="st14" d="M24.75,61.4c-0.276,0-0.5-0.224-0.5-0.5v-37.73c0-1.436,0.367-2.859,1.062-4.115
			c0.134-0.242,0.438-0.33,0.68-0.195c0.241,0.134,0.329,0.438,0.195,0.68c-0.613,1.108-0.937,2.364-0.937,3.631V60.9
			C25.25,61.176,25.026,61.4,24.75,61.4z"/>
	</g>
	<g>
		<rect x="42.75" y="54.9" class="st7" width="15" height="4"/>
		<path class="st1" d="M57.75,59.4h-15c-0.276,0-0.5-0.224-0.5-0.5v-4c0-0.276,0.224-0.5,0.5-0.5h15c0.276,0,0.5,0.224,0.5,0.5v4
			C58.25,59.176,58.026,59.4,57.75,59.4z M43.25,58.4h14v-3h-14V58.4z"/>
	</g>
	<g>
		<path class="st7" d="M32.987,12.452l-0.024,0.031c-1.105,1.42-1.994,2.977-2.674,4.618h10.922c-0.681-1.64-1.57-3.197-2.674-4.618
			l-0.024-0.031C37.111,10.65,34.389,10.65,32.987,12.452z"/>
	</g>
	<g>
		<polygon class="st4" points="43.75,50.4 40.75,50.4 40.75,58.9 48.75,58.9 		"/>
		<path class="st1" d="M48.75,59.4h-8c-0.276,0-0.5-0.224-0.5-0.5v-8.5c0-0.276,0.224-0.5,0.5-0.5h3
			c0.177,0,0.341,0.094,0.431,0.247l5,8.5c0.091,0.154,0.093,0.346,0.003,0.501C49.095,59.304,48.93,59.4,48.75,59.4z M41.25,58.4
			h6.626l-4.412-7.5H41.25V58.4z"/>
	</g>
	<g>
		<polygon class="st5" points="40.75,50.4 37.75,50.4 37.75,58.9 45.75,58.9 		"/>
		<path class="st1" d="M45.75,59.4h-8c-0.276,0-0.5-0.224-0.5-0.5v-8.5c0-0.276,0.224-0.5,0.5-0.5h3
			c0.177,0,0.341,0.094,0.431,0.247l5,8.5c0.091,0.154,0.093,0.346,0.003,0.501C46.095,59.304,45.93,59.4,45.75,59.4z M38.25,58.4
			h6.626l-4.412-7.5H38.25V58.4z"/>
	</g>
	<g>
		<path class="st1" d="M28.75,29.72h-6c-0.276,0-0.5-0.224-0.5-0.5v-6c0-0.276,0.224-0.5,0.5-0.5h6c0.276,0,0.5,0.224,0.5,0.5v6
			C29.25,29.497,29.026,29.72,28.75,29.72z M23.25,28.72h5v-5h-5V28.72z"/>
	</g>
	<g>
		<path class="st9" d="M42.31,20.67h-6.56v2.5h6.934C42.616,22.326,42.482,21.493,42.31,20.67z"/>
		<path class="st1" d="M42.684,23.669H35.75c-0.276,0-0.5-0.224-0.5-0.5v-2.5c0-0.276,0.224-0.5,0.5-0.5h6.56
			c0.236,0,0.441,0.166,0.489,0.398c0.194,0.932,0.32,1.77,0.383,2.562c0.012,0.139-0.036,0.277-0.131,0.379
			S42.823,23.669,42.684,23.669z M36.25,22.669h5.883c-0.055-0.475-0.131-0.971-0.233-1.5H36.25V22.669z"/>
	</g>
	<g>
		<path class="st5" d="M54.208,7.5c0-1.657-1.343-3-3-3s-3,1.343-3,3H47.25c-1.105,0-2,0.895-2,2v0c0,1.105,0.895,2,2,2h8
			c1.105,0,2-0.895,2-2v0c0-1.105-0.895-2-2-2H54.208z"/>
		<path class="st1" d="M55.25,12h-8c-1.379,0-2.5-1.122-2.5-2.5S45.871,7,47.25,7h0.493c0.244-1.694,1.705-3,3.465-3
			s3.221,1.306,3.465,3h0.577c1.379,0,2.5,1.122,2.5,2.5S56.629,12,55.25,12z M47.25,8c-0.827,0-1.5,0.673-1.5,1.5
			s0.673,1.5,1.5,1.5h8c0.827,0,1.5-0.673,1.5-1.5S56.077,8,55.25,8h-1.042c-0.276,0-0.5-0.224-0.5-0.5c0-1.378-1.121-2.5-2.5-2.5
			s-2.5,1.122-2.5,2.5c0,0.276-0.224,0.5-0.5,0.5H47.25z M54.708,7.5h0.01H54.708z"/>
	</g>
	<g>
		<path class="st4" d="M57.208,7.5c0-1.657-1.343-3-3-3s-3,1.343-3,3H50.25c-1.105,0-2,0.895-2,2v0c0,1.105,0.895,2,2,2h8
			c1.105,0,2-0.895,2-2v0c0-1.105-0.895-2-2-2H57.208z"/>
		<path class="st1" d="M58.25,12h-8c-1.379,0-2.5-1.122-2.5-2.5S48.871,7,50.25,7h0.493c0.244-1.694,1.705-3,3.465-3
			s3.221,1.306,3.465,3h0.577c1.379,0,2.5,1.122,2.5,2.5S59.629,12,58.25,12z M50.25,8c-0.827,0-1.5,0.673-1.5,1.5
			s0.673,1.5,1.5,1.5h8c0.827,0,1.5-0.673,1.5-1.5S59.077,8,58.25,8h-1.042c-0.276,0-0.5-0.224-0.5-0.5c0-1.378-1.121-2.5-2.5-2.5
			s-2.5,1.122-2.5,2.5c0,0.276-0.224,0.5-0.5,0.5H50.25z M57.708,7.5h0.01H57.708z"/>
	</g>
	<g>
		<path class="st5" d="M12.708,35c0-1.657-1.343-3-3-3s-3,1.343-3,3H5.75c-1.105,0-2,0.895-2,2v0c0,1.105,0.895,2,2,2h8
			c1.105,0,2-0.895,2-2v0c0-1.105-0.895-2-2-2H12.708z"/>
		<path class="st1" d="M13.75,39.5h-8c-1.379,0-2.5-1.122-2.5-2.5s1.121-2.5,2.5-2.5h0.493c0.244-1.694,1.705-3,3.465-3
			s3.221,1.306,3.465,3h0.577c1.379,0,2.5,1.122,2.5,2.5S15.129,39.5,13.75,39.5z M5.75,35.5c-0.827,0-1.5,0.673-1.5,1.5
			s0.673,1.5,1.5,1.5h8c0.827,0,1.5-0.673,1.5-1.5s-0.673-1.5-1.5-1.5h-1.042c-0.276,0-0.5-0.224-0.5-0.5c0-1.378-1.121-2.5-2.5-2.5
			s-2.5,1.122-2.5,2.5c0,0.276-0.224,0.5-0.5,0.5H5.75z M13.208,35h0.01H13.208z"/>
	</g>
	<g>
		<path class="st4" d="M15.708,35c0-1.657-1.343-3-3-3s-3,1.343-3,3H8.75c-1.105,0-2,0.895-2,2v0c0,1.105,0.895,2,2,2h8
			c1.105,0,2-0.895,2-2v0c0-1.105-0.895-2-2-2H15.708z"/>
		<path class="st1" d="M16.75,39.5h-8c-1.379,0-2.5-1.122-2.5-2.5s1.121-2.5,2.5-2.5h0.493c0.244-1.694,1.705-3,3.465-3
			s3.221,1.306,3.465,3h0.577c1.379,0,2.5,1.122,2.5,2.5S18.129,39.5,16.75,39.5z M8.75,35.5c-0.827,0-1.5,0.673-1.5,1.5
			s0.673,1.5,1.5,1.5h8c0.827,0,1.5-0.673,1.5-1.5s-0.673-1.5-1.5-1.5h-1.042c-0.276,0-0.5-0.224-0.5-0.5c0-1.378-1.121-2.5-2.5-2.5
			s-2.5,1.122-2.5,2.5c0,0.276-0.224,0.5-0.5,0.5H8.75z M16.208,35h0.01H16.208z"/>
	</g>
	<g>
		<path class="st14" d="M30.75,40.9c-0.276,0-0.5-0.224-0.5-0.5V24.762c0-4.093,1.393-8.138,3.922-11.389
			c0.17-0.219,0.484-0.258,0.701-0.087c0.219,0.169,0.258,0.483,0.088,0.702c-2.393,3.076-3.711,6.903-3.711,10.775V40.4
			C31.25,40.676,31.026,40.9,30.75,40.9z"/>
	</g>
	<g>
		<path class="st8" d="M32.469,17.601c-0.071,0-0.144-0.015-0.213-0.047c-0.25-0.118-0.357-0.416-0.239-0.665
			c0.586-1.248,1.312-2.431,2.155-3.516c0.17-0.219,0.484-0.258,0.701-0.087c0.219,0.169,0.258,0.483,0.088,0.702
			c-0.799,1.026-1.485,2.146-2.04,3.326C32.836,17.495,32.656,17.601,32.469,17.601z"/>
	</g>
	<g>
		<path class="st1" d="M41.211,17.601H30.289c-0.167,0-0.323-0.083-0.416-0.222c-0.093-0.139-0.109-0.315-0.046-0.47
			c0.714-1.719,1.636-3.311,2.741-4.733l0.024-0.031c0.764-0.981,1.914-1.544,3.157-1.544s2.394,0.563,3.157,1.544
			c1.13,1.453,2.052,3.045,2.766,4.764c0.063,0.154,0.047,0.331-0.046,0.47C41.534,17.517,41.378,17.601,41.211,17.601z
			 M31.053,16.601h9.395c-0.631-1.373-1.404-2.652-2.305-3.811c-0.597-0.767-1.46-1.189-2.393-1.189s-1.796,0.422-2.368,1.158
			c0,0,0,0-0.001,0l-0.024,0.031C32.457,13.949,31.684,15.228,31.053,16.601z"/>
	</g>
	<g>
		<polygon class="st5" points="13.75,52.9 28.75,42.4 32.75,42.4 32.75,58.9 13.75,58.9 		"/>
		<path class="st1" d="M32.75,59.4h-19c-0.276,0-0.5-0.224-0.5-0.5v-6c0-0.163,0.08-0.316,0.213-0.41l15-10.5
			c0.084-0.059,0.185-0.09,0.287-0.09h4c0.276,0,0.5,0.224,0.5,0.5v16.5C33.25,59.176,33.026,59.4,32.75,59.4z M14.25,58.4h18V42.9
			h-3.343L14.25,53.16V58.4z"/>
	</g>
	<g>
		<polygon class="st4" points="17.75,52.9 32.75,42.4 32.75,58.9 17.75,58.9 		"/>
		<path class="st1" d="M32.75,59.4h-15c-0.276,0-0.5-0.224-0.5-0.5v-6c0-0.163,0.08-0.316,0.213-0.41l15-10.5
			c0.153-0.108,0.354-0.12,0.518-0.034c0.166,0.086,0.27,0.257,0.27,0.443v16.5C33.25,59.176,33.026,59.4,32.75,59.4z M18.25,58.4
			h14V43.36l-14,9.8V58.4z"/>
	</g>
	<g>
		<rect x="17.75" y="54.9" class="st7" width="15" height="4"/>
		<path class="st1" d="M32.75,59.4h-15c-0.276,0-0.5-0.224-0.5-0.5v-4c0-0.276,0.224-0.5,0.5-0.5h15c0.276,0,0.5,0.224,0.5,0.5v4
			C33.25,59.176,33.026,59.4,32.75,59.4z M18.25,58.4h14v-3h-14V58.4z"/>
	</g>
	<g>
		<rect x="13.75" y="54.9" class="st6" width="4" height="4"/>
		<path class="st1" d="M17.75,59.4h-4c-0.276,0-0.5-0.224-0.5-0.5v-4c0-0.276,0.224-0.5,0.5-0.5h4c0.276,0,0.5,0.224,0.5,0.5v4
			C18.25,59.176,18.026,59.4,17.75,59.4z M14.25,58.4h3v-3h-3V58.4z"/>
	</g>
	<g>
		<path class="st5" d="M40.75,48.9c-0.276,0-0.5-0.224-0.5-0.5v-23.23c0-0.276,0.224-0.5,0.5-0.5s0.5,0.224,0.5,0.5V48.4
			C41.25,48.676,41.026,48.9,40.75,48.9z"/>
	</g>
	<g>
		<path class="st1" d="M16.75,24.9c-0.276,0-0.5-0.224-0.5-0.5v-10c0-0.276,0.224-0.5,0.5-0.5s0.5,0.224,0.5,0.5v10
			C17.25,24.676,17.026,24.9,16.75,24.9z"/>
	</g>
	<g>
		<path class="st1" d="M16.75,27.9c-0.276,0-0.5-0.224-0.5-0.5v-1c0-0.276,0.224-0.5,0.5-0.5s0.5,0.224,0.5,0.5v1
			C17.25,27.676,17.026,27.9,16.75,27.9z"/>
	</g>
	<g>
		<path class="st1" d="M51.75,36.4c-0.276,0-0.5-0.224-0.5-0.5v-10c0-0.276,0.224-0.5,0.5-0.5s0.5,0.224,0.5,0.5v10
			C52.25,36.176,52.026,36.4,51.75,36.4z"/>
	</g>
	<g>
		<path class="st1" d="M51.75,39.4c-0.276,0-0.5-0.224-0.5-0.5v-1c0-0.276,0.224-0.5,0.5-0.5s0.5,0.224,0.5,0.5v1
			C52.25,39.176,52.026,39.4,51.75,39.4z"/>
	</g>
</g>
</svg>
