<?xml version="1.0" encoding="utf-8"?>
<!-- Generator: Adobe Illustrator 21.1.0, SVG Export Plug-In . SVG Version: 6.00 Build 0)  -->
<svg version="1.1" id="Layer_1" xmlns="http://www.w3.org/2000/svg" xmlns:xlink="http://www.w3.org/1999/xlink" x="0px" y="0px"
	 viewBox="0 0 64 64" style="enable-background:new 0 0 64 64;" xml:space="preserve">
<style type="text/css">
	.st0{fill:#DB8E11;}
	.st1{fill:#212A41;}
	.st2{fill:#F9AC2F;}
	.st3{fill:#FFCA4D;}
	.st4{fill:#B7C0D7;}
	.st5{fill:#99A2B9;}
	.st6{fill:#B51040;}
	.st7{fill:#D32E5E;}
	.st8{fill:#F14C7C;}
	.st9{fill:#0079A8;}
	.st10{fill:#1E97C6;}
	.st11{fill:#BED38E;}
	.st12{fill:#A0B570;}
	.st13{fill:#DCF1AC;}
	.st14{fill:#D5DEF5;}
	.st15{fill:#4E4B51;}
	.st16{fill:#6C696F;}
	.st17{fill:#848483;}
	.st18{fill:#A2A2A1;}
	.st19{fill:#7B849B;}
	.st20{fill:#8A878D;}
	.st21{fill:#C0C0BF;}
	.st22{fill:#005B8A;}
	.st23{fill:#970022;}
	.st24{fill:#1A237E;}
	.st25{fill:#BD7000;}
	.st26{fill:#003D6C;}
	.st27{fill:#666665;}
	.st28{fill:#195190;}
</style>
<g id="Space_Interceptor">
	<g>
		<path class="st4" d="M57.498,44.5H36.375c-0.552,0-1,0.448-1,1v6c0,0.552,0.448,1,1,1h26c0.552,0,1-0.448,1-1v-3l-4.315-3.452
			C58.617,44.693,58.066,44.5,57.498,44.5z"/>
		<path class="st1" d="M62.375,53h-26c-0.827,0-1.5-0.673-1.5-1.5v-6c0-0.827,0.673-1.5,1.5-1.5h21.123
			c0.679,0,1.344,0.233,1.874,0.658l4.315,3.452c0.119,0.095,0.188,0.239,0.188,0.391v3C63.875,52.327,63.202,53,62.375,53z
			 M36.375,45c-0.276,0-0.5,0.224-0.5,0.5v6c0,0.276,0.224,0.5,0.5,0.5h26c0.276,0,0.5-0.224,0.5-0.5v-2.76l-4.128-3.302
			C58.394,45.156,57.951,45,57.498,45H36.375z"/>
	</g>
	<g>
		<path class="st5" d="M48.498,44.5H32.375c-0.552,0-1,0.448-1,1v6c0,0.552,0.448,1,1,1h21c0.552,0,1-0.448,1-1v-3l-4.315-3.452
			C49.617,44.693,49.066,44.5,48.498,44.5z"/>
		<path class="st1" d="M53.375,53h-21c-0.827,0-1.5-0.673-1.5-1.5v-6c0-0.827,0.673-1.5,1.5-1.5h16.123
			c0.679,0,1.344,0.233,1.874,0.658l4.315,3.452c0.119,0.095,0.188,0.239,0.188,0.391v3C54.875,52.327,54.202,53,53.375,53z
			 M32.375,45c-0.276,0-0.5,0.224-0.5,0.5v6c0,0.276,0.224,0.5,0.5,0.5h21c0.276,0,0.5-0.224,0.5-0.5v-2.76l-4.128-3.302
			C49.394,45.156,48.951,45,48.498,45H32.375z"/>
	</g>
	<g>
		<path class="st1" d="M63.375,49h-9c-0.276,0-0.5-0.224-0.5-0.5s0.224-0.5,0.5-0.5h9c0.276,0,0.5,0.224,0.5,0.5
			S63.651,49,63.375,49z"/>
	</g>
	<g>
		<path class="st18" d="M48.375,56h-37l2.499,3.123C14.823,60.31,16.259,61,17.778,61h24.194c1.519,0,2.955-0.69,3.904-1.877
			L48.375,56z"/>
		<path class="st1" d="M41.972,61.5H17.778c-1.68,0-3.246-0.752-4.295-2.064l-2.499-3.124c-0.12-0.15-0.143-0.356-0.06-0.529
			c0.083-0.173,0.258-0.283,0.451-0.283h37c0.192,0,0.367,0.11,0.451,0.283c0.083,0.173,0.06,0.379-0.06,0.529l-2.499,3.124
			C45.218,60.748,43.652,61.5,41.972,61.5z M12.416,56.5l1.849,2.311c0.858,1.073,2.139,1.689,3.514,1.689h24.194
			c1.375,0,2.655-0.616,3.514-1.689l1.849-2.311H12.416z"/>
	</g>
	<g>
		<path class="st4" d="M48.375,56h-37V31.5c0-1.381,1.119-2.5,2.5-2.5h22.158c1.484,0,2.891,0.659,3.841,1.799L48.375,41V56z"/>
		<path class="st1" d="M48.375,56.5h-37c-0.276,0-0.5-0.224-0.5-0.5V31.5c0-1.654,1.346-3,3-3h22.158
			c1.637,0,3.177,0.721,4.225,1.979l8.501,10.2c0.075,0.09,0.116,0.203,0.116,0.32v15C48.875,56.276,48.651,56.5,48.375,56.5z
			 M11.875,55.5h36V41.181L39.49,31.12c-0.857-1.029-2.117-1.62-3.457-1.62H13.875c-1.103,0-2,0.897-2,2V55.5z"/>
	</g>
	<g>
		<path class="st17" d="M32.375,56h-21l2.499,3.123C14.823,60.31,16.259,61,17.778,61h8.194c1.519,0,2.955-0.69,3.904-1.877
			L32.375,56z"/>
		<path class="st1" d="M25.972,61.5h-8.194c-1.68,0-3.246-0.752-4.295-2.064l-2.499-3.124c-0.12-0.15-0.143-0.356-0.06-0.529
			c0.083-0.173,0.258-0.283,0.451-0.283h21c0.192,0,0.367,0.11,0.451,0.283c0.083,0.173,0.06,0.379-0.06,0.529l-2.499,3.124
			C29.218,60.748,27.652,61.5,25.972,61.5z M12.416,56.5l1.849,2.311c0.858,1.073,2.139,1.689,3.514,1.689h8.194
			c1.375,0,2.655-0.616,3.514-1.689l1.849-2.311H12.416z"/>
	</g>
	<g>
		<path class="st5" d="M32.375,56h-21V31.5c0-1.381,1.119-2.5,2.5-2.5h6.158c1.484,0,2.891,0.659,3.841,1.799L32.375,41V56z"/>
		<path class="st1" d="M32.375,56.5h-21c-0.276,0-0.5-0.224-0.5-0.5V31.5c0-1.654,1.346-3,3-3h6.158
			c1.637,0,3.177,0.721,4.225,1.979l8.501,10.2c0.075,0.09,0.116,0.203,0.116,0.32v15C32.875,56.276,32.651,56.5,32.375,56.5z
			 M11.875,55.5h20V41.181L23.49,31.12c-0.857-1.029-2.117-1.62-3.457-1.62h-6.158c-1.103,0-2,0.897-2,2V55.5z"/>
	</g>
	<g>
		<path class="st4" d="M26.498,44.5H5.375c-0.552,0-1,0.448-1,1v6c0,0.552,0.448,1,1,1h26c0.552,0,1-0.448,1-1v-3l-4.315-3.452
			C27.617,44.693,27.066,44.5,26.498,44.5z"/>
		<path class="st1" d="M31.375,53h-26c-0.827,0-1.5-0.673-1.5-1.5v-6c0-0.827,0.673-1.5,1.5-1.5h21.123
			c0.679,0,1.344,0.233,1.874,0.658l4.315,3.452c0.119,0.095,0.188,0.239,0.188,0.391v3C32.875,52.327,32.202,53,31.375,53z
			 M5.375,45c-0.276,0-0.5,0.224-0.5,0.5v6c0,0.276,0.224,0.5,0.5,0.5h26c0.276,0,0.5-0.224,0.5-0.5v-2.76l-4.128-3.302
			C27.394,45.156,26.951,45,26.498,45H5.375z"/>
	</g>
	<g>
		<path class="st5" d="M17.498,44.5H1.375c-0.552,0-1,0.448-1,1v6c0,0.552,0.448,1,1,1h21c0.552,0,1-0.448,1-1v-3l-4.315-3.452
			C18.617,44.693,18.066,44.5,17.498,44.5z"/>
		<path class="st1" d="M22.375,53h-21c-0.827,0-1.5-0.673-1.5-1.5v-6c0-0.827,0.673-1.5,1.5-1.5h16.123
			c0.679,0,1.344,0.233,1.874,0.658l4.315,3.452c0.119,0.095,0.188,0.239,0.188,0.391v3C23.875,52.327,23.202,53,22.375,53z
			 M1.375,45c-0.276,0-0.5,0.224-0.5,0.5v6c0,0.276,0.224,0.5,0.5,0.5h21c0.276,0,0.5-0.224,0.5-0.5v-2.76l-4.128-3.302
			C18.394,45.156,17.951,45,17.498,45H1.375z"/>
	</g>
	<g>
		<path class="st19" d="M21.375,51c-0.276,0-0.5-0.224-0.5-0.5v-0.798L17.498,47c-0.215-0.173-0.25-0.487-0.078-0.703
			c0.173-0.214,0.487-0.25,0.703-0.078l3.564,2.852c0.119,0.095,0.188,0.239,0.188,0.391V50.5C21.875,50.776,21.651,51,21.375,51z"
			/>
	</g>
	<g>
		<path class="st1" d="M32.375,49h-9c-0.276,0-0.5-0.224-0.5-0.5s0.224-0.5,0.5-0.5h9c0.276,0,0.5,0.224,0.5,0.5
			S32.651,49,32.375,49z"/>
	</g>
	<g>
		<polygon class="st9" points="41.708,33 11.375,33 11.375,41 48.375,41 		"/>
		<path class="st1" d="M48.375,41.5h-37c-0.276,0-0.5-0.224-0.5-0.5v-8c0-0.276,0.224-0.5,0.5-0.5h30.333
			c0.148,0,0.289,0.066,0.384,0.18l6.667,8c0.124,0.149,0.151,0.357,0.068,0.532C48.746,41.388,48.569,41.5,48.375,41.5z
			 M11.875,40.5h35.433l-5.833-7H11.875V40.5z"/>
	</g>
	<g>
		<path class="st22" d="M44.105,39.5c-0.144,0-0.286-0.061-0.385-0.18l-3.333-4c-0.177-0.212-0.148-0.528,0.064-0.705
			c0.213-0.176,0.527-0.148,0.705,0.064l3.333,4c0.177,0.212,0.148,0.528-0.064,0.705C44.332,39.462,44.218,39.5,44.105,39.5z"/>
	</g>
	<g>
		<polygon class="st22" points="11.375,33 11.375,41 32.375,41 25.708,33 		"/>
		<path class="st1" d="M32.375,41.5h-21c-0.276,0-0.5-0.224-0.5-0.5v-8c0-0.276,0.224-0.5,0.5-0.5h14.333
			c0.148,0,0.289,0.066,0.384,0.18l6.667,8c0.124,0.149,0.151,0.357,0.068,0.532C32.746,41.388,32.569,41.5,32.375,41.5z
			 M11.875,40.5h19.433l-5.833-7H11.875V40.5z"/>
	</g>
	<g>
		<path class="st26" d="M28.105,39.5c-0.144,0-0.286-0.061-0.385-0.18l-3.333-4c-0.177-0.212-0.148-0.528,0.064-0.705
			c0.213-0.176,0.527-0.148,0.705,0.064l3.333,4c0.177,0.212,0.148,0.528-0.064,0.705C28.332,39.462,28.218,39.5,28.105,39.5z"/>
	</g>
	<g>
		<path class="st9" d="M13.375,39.5c-0.276,0-0.5-0.224-0.5-0.5v-4c0-0.276,0.224-0.5,0.5-0.5s0.5,0.224,0.5,0.5v4
			C13.875,39.276,13.651,39.5,13.375,39.5z"/>
	</g>
	<g>
		<path class="st10" d="M33.312,39.5c-0.144,0-0.286-0.061-0.385-0.18l-3.333-4c-0.177-0.212-0.148-0.528,0.064-0.705
			c0.213-0.176,0.528-0.148,0.705,0.064l3.333,4c0.177,0.212,0.148,0.528-0.064,0.705C33.538,39.462,33.425,39.5,33.312,39.5z"/>
	</g>
	<g>
		<circle class="st2" cx="52.625" cy="9.5" r="6.5"/>
		<path class="st1" d="M52.625,16.5c-3.86,0-7-3.14-7-7s3.14-7,7-7s7,3.14,7,7S56.485,16.5,52.625,16.5z M52.625,3.5
			c-3.309,0-6,2.691-6,6s2.691,6,6,6s6-2.691,6-6S55.934,3.5,52.625,3.5z"/>
	</g>
	<g>
		<path class="st3" d="M48.125,10c-0.276,0-0.5-0.224-0.5-0.5c0-2.757,2.243-5,5-5c0.276,0,0.5,0.224,0.5,0.5s-0.224,0.5-0.5,0.5
			c-2.206,0-4,1.794-4,4C48.625,9.776,48.401,10,48.125,10z"/>
	</g>
	<g>
		<path class="st0" d="M52.625,14.5c-0.276,0-0.5-0.224-0.5-0.5s0.224-0.5,0.5-0.5c2.206,0,4-1.794,4-4c0-0.276,0.224-0.5,0.5-0.5
			s0.5,0.224,0.5,0.5C57.625,12.257,55.382,14.5,52.625,14.5z"/>
	</g>
	<g>
		<path class="st18" d="M60.625,10.5h-16c-0.552,0-1-0.448-1-1v0c0-0.552,0.448-1,1-1h16c0.552,0,1,0.448,1,1v0
			C61.625,10.052,61.177,10.5,60.625,10.5z"/>
		<path class="st1" d="M60.625,11h-16c-0.827,0-1.5-0.673-1.5-1.5s0.673-1.5,1.5-1.5h16c0.827,0,1.5,0.673,1.5,1.5
			S61.452,11,60.625,11z M44.625,9c-0.276,0-0.5,0.224-0.5,0.5s0.224,0.5,0.5,0.5h16c0.276,0,0.5-0.224,0.5-0.5S60.901,9,60.625,9
			H44.625z"/>
	</g>
	<g>
		<circle class="st18" cx="53.625" cy="24.5" r="1.5"/>
		<path class="st1" d="M53.625,26.5c-1.103,0-2-0.897-2-2s0.897-2,2-2s2,0.897,2,2S54.728,26.5,53.625,26.5z M53.625,23.5
			c-0.551,0-1,0.449-1,1s0.449,1,1,1s1-0.449,1-1S54.176,23.5,53.625,23.5z"/>
	</g>
	<g>
		<circle class="st18" cx="33.875" cy="13" r="2"/>
		<path class="st1" d="M33.875,15.5c-1.378,0-2.5-1.122-2.5-2.5s1.122-2.5,2.5-2.5s2.5,1.122,2.5,2.5S35.253,15.5,33.875,15.5z
			 M33.875,11.5c-0.827,0-1.5,0.673-1.5,1.5s0.673,1.5,1.5,1.5s1.5-0.673,1.5-1.5S34.702,11.5,33.875,11.5z"/>
	</g>
	<g>
		<rect x="32.375" y="44.5" class="st7" width="16" height="4"/>
	</g>
	<g>
		<path class="st4" d="M2.375,51c-0.276,0-0.5-0.224-0.5-0.5v-4c0-0.276,0.224-0.5,0.5-0.5s0.5,0.224,0.5,0.5v4
			C2.875,50.776,2.651,51,2.375,51z"/>
	</g>
	<g>
		<path class="st14" d="M34.375,54.5c-0.276,0-0.5-0.224-0.5-0.5V43c0-0.276,0.224-0.5,0.5-0.5s0.5,0.224,0.5,0.5v11
			C34.875,54.276,34.651,54.5,34.375,54.5z"/>
	</g>
	<g>
		<path class="st8" d="M34.375,49c-0.276,0-0.5-0.224-0.5-0.5v-4c0-0.276,0.224-0.5,0.5-0.5s0.5,0.224,0.5,0.5v4
			C34.875,48.776,34.651,49,34.375,49z"/>
	</g>
	<g>
		<path class="st5" d="M46.375,54.5c-0.276,0-0.5-0.224-0.5-0.5V43c0-0.276,0.224-0.5,0.5-0.5s0.5,0.224,0.5,0.5v11
			C46.875,54.276,46.651,54.5,46.375,54.5z"/>
	</g>
	<g>
		<path class="st6" d="M46.375,49c-0.276,0-0.5-0.224-0.5-0.5v-4c0-0.276,0.224-0.5,0.5-0.5s0.5,0.224,0.5,0.5v4
			C46.875,48.776,46.651,49,46.375,49z"/>
	</g>
	<g>
		<path class="st1" d="M48.375,49h-16c-0.276,0-0.5-0.224-0.5-0.5v-4c0-0.276,0.224-0.5,0.5-0.5h16c0.276,0,0.5,0.224,0.5,0.5v4
			C48.875,48.776,48.652,49,48.375,49z M32.875,48h15v-3h-15V48z"/>
	</g>
	<g>
		<path class="st1" d="M25.375,19.5h-14c-0.276,0-0.5-0.224-0.5-0.5s0.224-0.5,0.5-0.5h14c0.276,0,0.5,0.224,0.5,0.5
			S25.651,19.5,25.375,19.5z"/>
	</g>
	<g>
		<path class="st1" d="M8.375,19.5h-2c-0.276,0-0.5-0.224-0.5-0.5s0.224-0.5,0.5-0.5h2c0.276,0,0.5,0.224,0.5,0.5
			S8.651,19.5,8.375,19.5z"/>
	</g>
</g>
</svg>
