<?xml version="1.0" encoding="utf-8"?>
<!-- Generator: Adobe Illustrator 21.1.0, SVG Export Plug-In . SVG Version: 6.00 Build 0)  -->
<svg version="1.1" id="Layer_1" xmlns="http://www.w3.org/2000/svg" xmlns:xlink="http://www.w3.org/1999/xlink" x="0px" y="0px"
	 viewBox="0 0 64 64" style="enable-background:new 0 0 64 64;" xml:space="preserve">
<style type="text/css">
	.st0{fill:#DB8E11;}
	.st1{fill:#212A41;}
	.st2{fill:#F9AC2F;}
	.st3{fill:#FFCA4D;}
	.st4{fill:#B7C0D7;}
	.st5{fill:#99A2B9;}
	.st6{fill:#B51040;}
	.st7{fill:#D32E5E;}
	.st8{fill:#F14C7C;}
	.st9{fill:#0079A8;}
	.st10{fill:#1E97C6;}
	.st11{fill:#BED38E;}
	.st12{fill:#A0B570;}
	.st13{fill:#DCF1AC;}
	.st14{fill:#D5DEF5;}
	.st15{fill:#4E4B51;}
	.st16{fill:#6C696F;}
	.st17{fill:#848483;}
	.st18{fill:#A2A2A1;}
	.st19{fill:#7B849B;}
	.st20{fill:#8A878D;}
	.st21{fill:#C0C0BF;}
	.st22{fill:#005B8A;}
	.st23{fill:#970022;}
	.st24{fill:#1A237E;}
	.st25{fill:#BD7000;}
	.st26{fill:#003D6C;}
	.st27{fill:#666665;}
	.st28{fill:#195190;}
</style>
<g id="Space_Capsule">
	<g>
		<path class="st2" d="M32,0.499l1.892,2.432c4.398,5.654,6.416,12.801,5.625,19.92L39.5,22.999l0.3-0.4c3.6-4.8,10.8-4.8,14.4,0
			l0.3,0.4C54.5,10.573,44.426,0.499,32,0.499z"/>
		<path class="st1" d="M39.5,23.499c-0.062,0-0.124-0.012-0.185-0.035c-0.21-0.083-0.338-0.297-0.312-0.521l0.017-0.147
			c0.781-7.028-1.181-13.974-5.522-19.558l-1.892-2.433c-0.117-0.15-0.139-0.354-0.055-0.526s0.258-0.28,0.449-0.28
			c12.683,0,23,10.317,23,23c0,0.215-0.138,0.406-0.342,0.475c-0.204,0.065-0.43-0.002-0.558-0.175l-0.3-0.399
			c-1.621-2.161-4.1-3.4-6.801-3.4s-5.18,1.239-6.8,3.4l-0.301,0.399C39.804,23.428,39.653,23.499,39.5,23.499z M47,18.499
			c2.678,0,5.16,1.09,6.951,3.022c-0.74-11.102-9.752-19.977-20.91-20.498l1.245,1.602c4.198,5.397,6.25,12.022,5.854,18.801
			C41.923,19.553,44.367,18.499,47,18.499z"/>
	</g>
	<g>
		<path class="st0" d="M9.5,22.999l0.3-0.4c3.6-4.8,10.8-4.8,14.4,0l0.3,0.4l-0.016-0.148c-0.791-7.119,1.227-14.266,5.625-19.92
			L32,0.499C19.574,0.499,9.5,10.573,9.5,22.999z"/>
		<path class="st1" d="M24.5,23.499c-0.153,0-0.304-0.071-0.399-0.2l-0.3-0.399c-1.621-2.161-4.1-3.4-6.801-3.4s-5.18,1.239-6.8,3.4
			l-0.301,0.399c-0.128,0.174-0.353,0.241-0.558,0.175C9.138,23.405,9,23.214,9,22.999c0-12.683,10.317-23,23-23
			c0.191,0,0.365,0.108,0.449,0.28s0.062,0.376-0.055,0.526l-1.892,2.433c-4.342,5.584-6.304,12.529-5.522,19.558l0.017,0.147
			c0.025,0.224-0.103,0.438-0.312,0.521C24.624,23.487,24.562,23.499,24.5,23.499z M30.959,1.023
			c-11.158,0.521-20.17,9.396-20.91,20.498c1.791-1.933,4.273-3.022,6.951-3.022c2.633,0,5.077,1.054,6.861,2.927
			c-0.397-6.778,1.655-13.404,5.853-18.801L30.959,1.023z"/>
	</g>
	<g>
		<path class="st2" d="M12.08,18.648c-0.039,0-0.078-0.005-0.118-0.015c-0.269-0.064-0.433-0.335-0.367-0.604
			c1.882-7.732,8.119-13.833,15.89-15.542c0.274-0.058,0.536,0.112,0.596,0.381c0.06,0.27-0.111,0.536-0.381,0.596
			c-7.4,1.628-13.341,7.438-15.134,14.802C12.511,18.495,12.306,18.648,12.08,18.648z"/>
	</g>
	<g>
		<path class="st1" d="M26,40.499c-0.131,0-0.261-0.051-0.358-0.151l-16.5-17c-0.192-0.198-0.188-0.515,0.01-0.707
			c0.199-0.193,0.516-0.188,0.707,0.01l16.5,17c0.192,0.198,0.188,0.515-0.01,0.707C26.251,40.452,26.126,40.499,26,40.499z"/>
	</g>
	<g>
		<path class="st1" d="M32,40.499c-0.198,0-0.378-0.117-0.457-0.298l-7.5-17c-0.112-0.253,0.003-0.548,0.255-0.659
			c0.253-0.114,0.548,0.002,0.659,0.255L32,38.761l7.043-15.964c0.111-0.252,0.404-0.368,0.659-0.255
			c0.252,0.111,0.367,0.406,0.255,0.659l-7.5,17C32.378,40.382,32.198,40.499,32,40.499z"/>
	</g>
	<g>
		<path class="st1" d="M38,40.499c-0.126,0-0.251-0.047-0.349-0.142c-0.198-0.192-0.202-0.509-0.01-0.707l16.5-17
			c0.191-0.197,0.508-0.203,0.707-0.01c0.198,0.192,0.202,0.509,0.01,0.707l-16.5,17C38.261,40.448,38.131,40.499,38,40.499z"/>
	</g>
	<g>
		<path class="st18" d="M33.892,2.931L32,0.499l-1.892,2.432c-4.398,5.654-6.416,12.801-5.625,19.92l0.016,0.148l0.3-0.4
			c3.6-4.8,10.8-4.8,14.4,0l0.3,0.4l0.016-0.148C40.307,15.732,38.289,8.586,33.892,2.931z"/>
		<path class="st1" d="M39.5,23.499c-0.155,0-0.304-0.072-0.399-0.2l-0.3-0.399c-1.621-2.161-4.1-3.4-6.801-3.4s-5.18,1.239-6.8,3.4
			l-0.301,0.399c-0.123,0.164-0.334,0.235-0.531,0.183c-0.197-0.054-0.342-0.223-0.365-0.427l-0.017-0.147
			c-0.81-7.289,1.225-14.492,5.728-20.282l1.892-2.433c0.189-0.244,0.6-0.244,0.789,0l1.892,2.433
			c4.503,5.79,6.537,12.993,5.728,20.282l-0.017,0.147c-0.023,0.204-0.168,0.373-0.365,0.427
			C39.588,23.493,39.544,23.499,39.5,23.499z M32,18.499c2.763,0,5.316,1.16,7.119,3.208c0.473-6.653-1.504-13.173-5.622-18.469l0,0
			L32,1.313l-1.497,1.925c-4.118,5.295-6.095,11.815-5.622,18.469C26.683,19.659,29.237,18.499,32,18.499z"/>
	</g>
	<g>
		<path class="st17" d="M36,63.499H22c-1.381,0-2.5-1.119-2.5-2.5v-6.5h19v6.5C38.5,62.38,37.38,63.499,36,63.499z"/>
		<path class="st1" d="M36,63.999H22c-1.654,0-3-1.346-3-3v-6.5c0-0.276,0.224-0.5,0.5-0.5h19c0.276,0,0.5,0.224,0.5,0.5v6.5
			C39,62.653,37.654,63.999,36,63.999z M20,54.999v6c0,1.103,0.897,2,2,2h14c1.103,0,2-0.897,2-2v-6H20z"/>
	</g>
	<g>
		<path class="st5" d="M30.381,39.999h-2.762c-0.985,0-1.878,0.578-2.281,1.477L19.5,54.499h19l-5.838-13.023
			C32.259,40.578,31.366,39.999,30.381,39.999z"/>
		<path class="st1" d="M38.5,54.999h-19c-0.17,0-0.327-0.086-0.42-0.229c-0.092-0.142-0.105-0.321-0.036-0.476l5.837-13.022
			c0.482-1.077,1.558-1.773,2.737-1.773h2.763c1.18,0,2.255,0.696,2.737,1.773l5.838,13.022c0.069,0.154,0.056,0.334-0.036,0.476
			C38.827,54.913,38.67,54.999,38.5,54.999z M20.272,53.999h17.455l-5.521-12.318c-0.322-0.718-1.038-1.182-1.825-1.182h-2.763
			c-0.787,0-1.503,0.464-1.825,1.182L20.272,53.999z"/>
	</g>
	<g>
		<path class="st18" d="M21.5,61.499c-0.276,0-0.5-0.224-0.5-0.5v-4c0-0.276,0.224-0.5,0.5-0.5s0.5,0.224,0.5,0.5v4
			C22,61.275,21.776,61.499,21.5,61.499z"/>
	</g>
	<g>
		<path class="st18" d="M42,63.499H28c-1.381,0-2.5-1.119-2.5-2.5v-6.5h19v6.5C44.5,62.38,43.38,63.499,42,63.499z"/>
		<path class="st1" d="M42,63.999H28c-1.654,0-3-1.346-3-3v-6.5c0-0.276,0.224-0.5,0.5-0.5h19c0.276,0,0.5,0.224,0.5,0.5v6.5
			C45,62.653,43.654,63.999,42,63.999z M26,54.999v6c0,1.103,0.897,2,2,2h14c1.103,0,2-0.897,2-2v-6H26z"/>
	</g>
	<g>
		<path class="st4" d="M36.381,39.999h-2.762c-0.985,0-1.878,0.578-2.281,1.477L25.5,54.499h19l-5.838-13.023
			C38.259,40.578,37.366,39.999,36.381,39.999z"/>
		<path class="st1" d="M44.5,54.999h-19c-0.17,0-0.327-0.086-0.42-0.229c-0.092-0.142-0.105-0.321-0.036-0.476l5.837-13.022
			c0.482-1.077,1.558-1.773,2.737-1.773h2.763c1.18,0,2.255,0.696,2.737,1.773l5.838,13.022c0.069,0.154,0.056,0.334-0.036,0.476
			C44.827,54.913,44.67,54.999,44.5,54.999z M26.272,53.999h17.455l-5.521-12.318c-0.322-0.718-1.038-1.182-1.825-1.182h-2.763
			c-0.787,0-1.503,0.464-1.825,1.182L26.272,53.999z"/>
	</g>
	<g>
		<path class="st14" d="M28.588,52.999c-0.068,0-0.138-0.014-0.204-0.044c-0.252-0.112-0.365-0.408-0.252-0.66l4.574-10.204
			c0.112-0.252,0.409-0.367,0.66-0.252c0.252,0.112,0.365,0.408,0.252,0.66l-4.574,10.204
			C28.961,52.889,28.778,52.999,28.588,52.999z"/>
	</g>
	<g>
		<path class="st5" d="M41.411,52.999c-0.19,0-0.373-0.11-0.456-0.296l-4.574-10.204c-0.113-0.252,0-0.548,0.252-0.66
			c0.251-0.116,0.547,0,0.66,0.252l4.574,10.204c0.113,0.252,0,0.548-0.252,0.66C41.549,52.985,41.479,52.999,41.411,52.999z"/>
	</g>
	<g>
		<path class="st21" d="M27.5,61.499c-0.276,0-0.5-0.224-0.5-0.5v-4c0-0.276,0.224-0.5,0.5-0.5s0.5,0.224,0.5,0.5v4
			C28,61.275,27.776,61.499,27.5,61.499z"/>
	</g>
	<g>
		<path class="st17" d="M42.5,61.499c-0.276,0-0.5-0.224-0.5-0.5v-4c0-0.276,0.224-0.5,0.5-0.5s0.5,0.224,0.5,0.5v4
			C43,61.275,42.776,61.499,42.5,61.499z"/>
	</g>
	<g>
		<polygon class="st9" points="40.913,46.499 35,46.499 35,49.499 42.258,49.499 		"/>
		<path class="st1" d="M42.258,49.999H35c-0.276,0-0.5-0.224-0.5-0.5v-3c0-0.276,0.224-0.5,0.5-0.5h5.913
			c0.197,0,0.376,0.115,0.456,0.296l1.345,3c0.069,0.154,0.056,0.334-0.036,0.476C42.585,49.913,42.428,49.999,42.258,49.999z
			 M35.5,48.999h5.985l-0.896-2H35.5V48.999z"/>
	</g>
	<g>
		<path class="st5" d="M9.958,39.499c0-1.657-1.343-3-3-3s-3,1.343-3,3H3c-1.105,0-2,0.895-2,2v0c0,1.105,0.895,2,2,2h8
			c1.105,0,2-0.895,2-2v0c0-1.105-0.895-2-2-2H9.958z"/>
		<path class="st1" d="M11,43.999H3c-1.379,0-2.5-1.121-2.5-2.5s1.121-2.5,2.5-2.5h0.493c0.244-1.694,1.705-3,3.465-3
			s3.221,1.306,3.465,3H11c1.379,0,2.5,1.121,2.5,2.5S12.379,43.999,11,43.999z M3,39.999c-0.827,0-1.5,0.673-1.5,1.5
			s0.673,1.5,1.5,1.5h8c0.827,0,1.5-0.673,1.5-1.5s-0.673-1.5-1.5-1.5H9.958c-0.276,0-0.5-0.224-0.5-0.5c0-1.379-1.121-2.5-2.5-2.5
			s-2.5,1.121-2.5,2.5c0,0.276-0.224,0.5-0.5,0.5H3z M10.458,39.499h0.01H10.458z"/>
	</g>
	<g>
		<path class="st4" d="M12.958,39.499c0-1.657-1.343-3-3-3s-3,1.343-3,3H6c-1.105,0-2,0.895-2,2v0c0,1.105,0.895,2,2,2h8
			c1.105,0,2-0.895,2-2v0c0-1.105-0.895-2-2-2H12.958z"/>
		<path class="st1" d="M14,43.999H6c-1.379,0-2.5-1.121-2.5-2.5s1.121-2.5,2.5-2.5h0.493c0.244-1.694,1.705-3,3.465-3
			s3.221,1.306,3.465,3H14c1.379,0,2.5,1.121,2.5,2.5S15.379,43.999,14,43.999z M6,39.999c-0.827,0-1.5,0.673-1.5,1.5
			s0.673,1.5,1.5,1.5h8c0.827,0,1.5-0.673,1.5-1.5s-0.673-1.5-1.5-1.5h-1.042c-0.276,0-0.5-0.224-0.5-0.5c0-1.379-1.121-2.5-2.5-2.5
			s-2.5,1.121-2.5,2.5c0,0.276-0.224,0.5-0.5,0.5H6z M13.458,39.499h0.01H13.458z"/>
	</g>
	<g>
		<path class="st5" d="M56.958,39.499c0-1.657-1.343-3-3-3s-3,1.343-3,3H50c-1.105,0-2,0.895-2,2v0c0,1.105,0.895,2,2,2h8
			c1.105,0,2-0.895,2-2v0c0-1.105-0.895-2-2-2H56.958z"/>
		<path class="st1" d="M58,43.999h-8c-1.379,0-2.5-1.121-2.5-2.5s1.121-2.5,2.5-2.5h0.493c0.244-1.694,1.705-3,3.465-3
			s3.221,1.306,3.465,3H58c1.379,0,2.5,1.121,2.5,2.5S59.379,43.999,58,43.999z M50,39.999c-0.827,0-1.5,0.673-1.5,1.5
			s0.673,1.5,1.5,1.5h8c0.827,0,1.5-0.673,1.5-1.5s-0.673-1.5-1.5-1.5h-1.042c-0.276,0-0.5-0.224-0.5-0.5c0-1.379-1.121-2.5-2.5-2.5
			s-2.5,1.121-2.5,2.5c0,0.276-0.224,0.5-0.5,0.5H50z M57.458,39.499h0.01H57.458z"/>
	</g>
	<g>
		<path class="st4" d="M59.958,39.499c0-1.657-1.343-3-3-3s-3,1.343-3,3H53c-1.105,0-2,0.895-2,2v0c0,1.105,0.895,2,2,2h8
			c1.105,0,2-0.895,2-2v0c0-1.105-0.895-2-2-2H59.958z"/>
		<path class="st1" d="M61,43.999h-8c-1.379,0-2.5-1.121-2.5-2.5s1.121-2.5,2.5-2.5h0.493c0.244-1.694,1.705-3,3.465-3
			s3.221,1.306,3.465,3H61c1.379,0,2.5,1.121,2.5,2.5S62.379,43.999,61,43.999z M53,39.999c-0.827,0-1.5,0.673-1.5,1.5
			s0.673,1.5,1.5,1.5h8c0.827,0,1.5-0.673,1.5-1.5s-0.673-1.5-1.5-1.5h-1.042c-0.276,0-0.5-0.224-0.5-0.5c0-1.379-1.121-2.5-2.5-2.5
			s-2.5,1.121-2.5,2.5c0,0.276-0.224,0.5-0.5,0.5H53z M60.458,39.499h0.01H60.458z"/>
	</g>
	<g>
		<path class="st0" d="M51.92,18.648c-0.226,0-0.431-0.153-0.485-0.382c-1.793-7.364-7.733-13.174-15.134-14.802
			c-0.27-0.06-0.44-0.326-0.381-0.596c0.06-0.269,0.324-0.438,0.596-0.381c7.771,1.709,14.008,7.81,15.89,15.542
			c0.065,0.269-0.099,0.539-0.367,0.604C51.998,18.644,51.959,18.648,51.92,18.648z"/>
	</g>
</g>
</svg>
