<?xml version="1.0" encoding="utf-8"?>
<!-- Generator: Adobe Illustrator 21.1.0, SVG Export Plug-In . SVG Version: 6.00 Build 0)  -->
<svg version="1.1" id="Layer_1" xmlns="http://www.w3.org/2000/svg" xmlns:xlink="http://www.w3.org/1999/xlink" x="0px" y="0px"
	 viewBox="0 0 64 64" style="enable-background:new 0 0 64 64;" xml:space="preserve">
<style type="text/css">
	.st0{fill:#DB8E11;}
	.st1{fill:#212A41;}
	.st2{fill:#F9AC2F;}
	.st3{fill:#FFCA4D;}
	.st4{fill:#B7C0D7;}
	.st5{fill:#99A2B9;}
	.st6{fill:#B51040;}
	.st7{fill:#D32E5E;}
	.st8{fill:#F14C7C;}
	.st9{fill:#0079A8;}
	.st10{fill:#1E97C6;}
	.st11{fill:#BED38E;}
	.st12{fill:#A0B570;}
	.st13{fill:#DCF1AC;}
	.st14{fill:#D5DEF5;}
	.st15{fill:#4E4B51;}
	.st16{fill:#6C696F;}
	.st17{fill:#848483;}
	.st18{fill:#A2A2A1;}
	.st19{fill:#7B849B;}
	.st20{fill:#8A878D;}
	.st21{fill:#C0C0BF;}
	.st22{fill:#005B8A;}
	.st23{fill:#970022;}
	.st24{fill:#1A237E;}
	.st25{fill:#BD7000;}
	.st26{fill:#003D6C;}
	.st27{fill:#666665;}
	.st28{fill:#195190;}
</style>
<g id="Telescope">
	<g>
		<polygon class="st15" points="32.75,33.001 29.75,33.001 19.75,60.001 22.75,60.001 		"/>
		<path class="st1" d="M22.75,60.501h-3c-0.164,0-0.317-0.08-0.41-0.215c-0.094-0.134-0.115-0.306-0.059-0.459l10-27
			c0.072-0.196,0.26-0.326,0.469-0.326h3c0.164,0,0.317,0.08,0.41,0.215c0.094,0.134,0.115,0.306,0.059,0.459l-10,27
			C23.146,60.371,22.959,60.501,22.75,60.501z M20.469,59.501h1.934l9.629-26h-1.934L20.469,59.501z"/>
	</g>
	<g>
		<polygon class="st15" points="32.75,33.001 35.75,33.001 45.75,60.001 42.75,60.001 		"/>
		<path class="st1" d="M45.75,60.501h-3c-0.209,0-0.396-0.13-0.469-0.326l-10-27c-0.057-0.153-0.035-0.325,0.059-0.459
			c0.093-0.135,0.246-0.215,0.41-0.215h3c0.209,0,0.396,0.13,0.469,0.326l10,27c0.057,0.153,0.035,0.325-0.059,0.459
			C46.067,60.421,45.914,60.501,45.75,60.501z M43.098,59.501h1.934l-9.629-26h-1.934L43.098,59.501z"/>
	</g>
	<g>
		<ellipse class="st2" cx="34.75" cy="27.001" rx="4" ry="6"/>
		<path class="st1" d="M34.75,33.501c-2.481,0-4.5-2.916-4.5-6.5s2.019-6.5,4.5-6.5s4.5,2.916,4.5,6.5S37.231,33.501,34.75,33.501z
			 M34.75,21.501c-1.93,0-3.5,2.468-3.5,5.5s1.57,5.5,3.5,5.5s3.5-2.468,3.5-5.5S36.68,21.501,34.75,21.501z"/>
	</g>
	<g>
		<ellipse class="st5" cx="5" cy="20.001" rx="4.5" ry="7"/>
		<path class="st1" d="M5,27.501c-2.757,0-5-3.364-5-7.5s2.243-7.5,5-7.5s5,3.364,5,7.5S7.757,27.501,5,27.501z M5,13.501
			c-2.206,0-4,2.916-4,6.5s1.794,6.5,4,6.5s4-2.916,4-6.5S7.206,13.501,5,13.501z"/>
	</g>
	<g>
		<path class="st5" d="M6,15.001c-1.381,0-2.5,2.239-2.5,5s1.119,5,2.5,5h17.5v-10H6z"/>
		<path class="st1" d="M23.5,25.501H6c-1.683,0-3-2.416-3-5.5s1.317-5.5,3-5.5h17.5c0.276,0,0.5,0.224,0.5,0.5v10
			C24,25.277,23.776,25.501,23.5,25.501z M6,15.501c-0.946,0-2,1.848-2,4.5s1.054,4.5,2,4.5h17v-9H6z"/>
	</g>
	<g>
		<path class="st4" d="M6.241,23.501c-0.146,0-0.291-0.063-0.39-0.187C5.535,22.922,5,21.782,5,20.001
			c0-1.783,0.536-2.923,0.853-3.314c0.173-0.215,0.488-0.249,0.703-0.074c0.215,0.173,0.248,0.488,0.074,0.703
			C6.455,17.532,6,18.438,6,20.001c0,1.562,0.455,2.469,0.631,2.687c0.173,0.215,0.139,0.529-0.076,0.703
			C6.463,23.465,6.352,23.501,6.241,23.501z"/>
	</g>
	<g>
		<path class="st1" d="M11,25.501c-1.683,0-3-2.416-3-5.5s1.317-5.5,3-5.5c0.276,0,0.5,0.224,0.5,0.5s-0.224,0.5-0.5,0.5
			c-0.946,0-2,1.848-2,4.5s1.054,4.5,2,4.5c0.276,0,0.5,0.224,0.5,0.5S11.276,25.501,11,25.501z"/>
	</g>
	<g>
		<path class="st15" d="M24.5,13.001c-2.485,0-4.5,3.134-4.5,7c0,3.866,2.015,7,4.5,7h33v-14H24.5z"/>
		<path class="st1" d="M57.5,27.501h-33c-2.757,0-5-3.364-5-7.5s2.243-7.5,5-7.5h33c0.276,0,0.5,0.224,0.5,0.5v14
			C58,27.277,57.776,27.501,57.5,27.501z M24.5,13.501c-2.206,0-4,2.916-4,6.5s1.794,6.5,4,6.5H57v-13H24.5z"/>
	</g>
	<g>
		<path class="st16" d="M24.5,25.501c-1.419,0-3-2.259-3-5.5s1.581-5.5,3-5.5c0.276,0,0.5,0.224,0.5,0.5s-0.224,0.5-0.5,0.5
			c-0.58,0-2,1.577-2,4.5s1.42,4.5,2,4.5c0.276,0,0.5,0.224,0.5,0.5S24.776,25.501,24.5,25.501z"/>
	</g>
	<g>
		<path class="st1" d="M50.5,27.501c-2.757,0-5-3.364-5-7.5s2.243-7.5,5-7.5c0.276,0,0.5,0.224,0.5,0.5s-0.224,0.5-0.5,0.5
			c-2.206,0-4,2.916-4,6.5s1.794,6.5,4,6.5c0.276,0,0.5,0.224,0.5,0.5S50.776,27.501,50.5,27.501z"/>
	</g>
	<g>
		<ellipse class="st4" cx="56.75" cy="20.001" rx="6.75" ry="9"/>
		<path class="st1" d="M56.75,29.501c-3.998,0-7.25-4.262-7.25-9.5s3.252-9.5,7.25-9.5s7.25,4.262,7.25,9.5
			S60.748,29.501,56.75,29.501z M56.75,11.501c-3.446,0-6.25,3.813-6.25,8.5s2.804,8.5,6.25,8.5s6.25-3.813,6.25-8.5
			S60.196,11.501,56.75,11.501z"/>
	</g>
	<g>
		<ellipse class="st9" cx="56.75" cy="20.001" rx="3.375" ry="5.625"/>
		<path class="st1" d="M56.75,26.126c-2.173,0-3.875-2.69-3.875-6.125s1.702-6.125,3.875-6.125s3.875,2.69,3.875,6.125
			S58.923,26.126,56.75,26.126z M56.75,14.876c-1.559,0-2.875,2.347-2.875,5.125s1.316,5.125,2.875,5.125s2.875-2.347,2.875-5.125
			S58.309,14.876,56.75,14.876z"/>
	</g>
	<g>
		<ellipse class="st0" cx="30.75" cy="27.001" rx="4" ry="6"/>
		<path class="st1" d="M30.75,33.501c-2.481,0-4.5-2.916-4.5-6.5s2.019-6.5,4.5-6.5s4.5,2.916,4.5,6.5S33.231,33.501,30.75,33.501z
			 M30.75,21.501c-1.93,0-3.5,2.468-3.5,5.5s1.57,5.5,3.5,5.5s3.5-2.468,3.5-5.5S32.68,21.501,30.75,21.501z"/>
	</g>
	<g>
		<ellipse class="st15" cx="30.75" cy="27.001" rx="1.5" ry="3"/>
		<path class="st1" d="M30.75,30.501c-1.141,0-2-1.505-2-3.5s0.859-3.5,2-3.5s2,1.505,2,3.5S31.891,30.501,30.75,30.501z
			 M30.75,24.501c-0.408,0-1,0.974-1,2.5s0.592,2.5,1,2.5s1-0.974,1-2.5S31.158,24.501,30.75,24.501z"/>
	</g>
	<g>
		<rect x="31.25" y="33.001" class="st16" width="3" height="27"/>
		<path class="st1" d="M34.25,60.501h-3c-0.276,0-0.5-0.224-0.5-0.5v-27c0-0.276,0.224-0.5,0.5-0.5h3c0.276,0,0.5,0.224,0.5,0.5v27
			C34.75,60.277,34.526,60.501,34.25,60.501z M31.75,59.501h2v-26h-2V59.501z"/>
	</g>
	<g>
		<rect x="42.25" y="10.001" class="st4" width="3" height="3"/>
		<path class="st1" d="M45.25,13.501h-3c-0.276,0-0.5-0.224-0.5-0.5v-3c0-0.276,0.224-0.5,0.5-0.5h3c0.276,0,0.5,0.224,0.5,0.5v3
			C45.75,13.277,45.526,13.501,45.25,13.501z M42.75,12.501h2v-2h-2V12.501z"/>
	</g>
	<g>
		<rect x="39.25" y="10.001" class="st5" width="3" height="3"/>
		<path class="st1" d="M42.25,13.501h-3c-0.276,0-0.5-0.224-0.5-0.5v-3c0-0.276,0.224-0.5,0.5-0.5h3c0.276,0,0.5,0.224,0.5,0.5v3
			C42.75,13.277,42.526,13.501,42.25,13.501z M39.75,12.501h2v-2h-2V12.501z"/>
	</g>
	<g>
		<path class="st5" d="M29.25,5.001L29.25,5.001L29.25,5.001c-0.737,0-1.333,0.895-1.333,2c0,1.105,0.597,2,1.333,2h0l0,0h6v-4
			H29.25z"/>
		<path class="st1" d="M35.25,9.501h-6c-1.028,0-1.834-1.098-1.834-2.5s0.806-2.5,1.834-2.5h6c0.276,0,0.5,0.224,0.5,0.5v4
			C35.75,9.277,35.526,9.501,35.25,9.501z M29.25,5.501c-0.395,0-0.834,0.616-0.834,1.5s0.439,1.5,0.834,1.5h5.5v-3H29.25z"/>
	</g>
	<g>
		<path class="st15" d="M36.25,4.001c-1.105,0-2,1.343-2,3s0.895,3,2,3h12v-6H36.25z"/>
		<path class="st1" d="M48.25,10.501h-12c-1.402,0-2.5-1.537-2.5-3.5s1.098-3.5,2.5-3.5h12c0.276,0,0.5,0.224,0.5,0.5v6
			C48.75,10.277,48.526,10.501,48.25,10.501z M36.25,4.501c-0.813,0-1.5,1.145-1.5,2.5s0.687,2.5,1.5,2.5h11.5v-5H36.25z"/>
	</g>
	<g>
		<ellipse class="st9" cx="48.25" cy="7.001" rx="2" ry="3"/>
		<path class="st1" d="M48.25,10.501c-1.402,0-2.5-1.537-2.5-3.5s1.098-3.5,2.5-3.5s2.5,1.537,2.5,3.5S49.652,10.501,48.25,10.501z
			 M48.25,4.501c-0.813,0-1.5,1.145-1.5,2.5s0.687,2.5,1.5,2.5s1.5-1.145,1.5-2.5S49.063,4.501,48.25,4.501z"/>
	</g>
</g>
</svg>
