<?xml version="1.0" encoding="utf-8"?>
<!-- Generator: Adobe Illustrator 21.1.0, SVG Export Plug-In . SVG Version: 6.00 Build 0)  -->
<svg version="1.1" id="Layer_1" xmlns="http://www.w3.org/2000/svg" xmlns:xlink="http://www.w3.org/1999/xlink" x="0px" y="0px"
	 viewBox="0 0 64 64" style="enable-background:new 0 0 64 64;" xml:space="preserve">
<style type="text/css">
	.st0{fill:#DB8E11;}
	.st1{fill:#212A41;}
	.st2{fill:#F9AC2F;}
	.st3{fill:#FFCA4D;}
	.st4{fill:#B7C0D7;}
	.st5{fill:#99A2B9;}
	.st6{fill:#B51040;}
	.st7{fill:#D32E5E;}
	.st8{fill:#F14C7C;}
	.st9{fill:#0079A8;}
	.st10{fill:#1E97C6;}
	.st11{fill:#BED38E;}
	.st12{fill:#A0B570;}
	.st13{fill:#DCF1AC;}
	.st14{fill:#D5DEF5;}
	.st15{fill:#4E4B51;}
	.st16{fill:#6C696F;}
	.st17{fill:#848483;}
	.st18{fill:#A2A2A1;}
	.st19{fill:#7B849B;}
	.st20{fill:#8A878D;}
	.st21{fill:#C0C0BF;}
	.st22{fill:#005B8A;}
	.st23{fill:#970022;}
	.st24{fill:#1A237E;}
	.st25{fill:#BD7000;}
	.st26{fill:#003D6C;}
	.st27{fill:#666665;}
	.st28{fill:#195190;}
</style>
<g id="Terraforming_Planet">
	<g>
		<circle class="st4" cx="32" cy="32" r="15"/>
	</g>
	<g>
		<path class="st6" d="M24.232,32c0-8.284,3.478-15,7.768-15c-8.284,0-15,6.716-15,15s6.716,15,15,15
			C27.71,47,24.232,40.284,24.232,32z"/>
	</g>
	<g>
		<path class="st1" d="M0.5,32.5C0.224,32.5,0,32.276,0,32C0,15.458,13.458,2,30,2h29c0.276,0,0.5,0.224,0.5,0.5S59.276,3,59,3H30
			C14.009,3,1,16.009,1,32C1,32.276,0.776,32.5,0.5,32.5z"/>
	</g>
	<g>
		<path class="st1" d="M34,62H5c-0.276,0-0.5-0.224-0.5-0.5S4.723,61,5,61h29c15.991,0,29-13.009,29-29c0-0.276,0.224-0.5,0.5-0.5
			S64,31.724,64,32C64,48.542,50.542,62,34,62z"/>
	</g>
	<g>
		<path class="st17" d="M30,7C16.193,7,5,18.193,5,32c0,13.807,11.193,25,25,25s25-11.193,25-25C55,18.193,43.807,7,30,7z M30,53
			C18.402,53,9,43.598,9,32s9.402-21,21-21s21,9.402,21,21S41.598,53,30,53z"/>
		<path class="st1" d="M30,57.5C15.939,57.5,4.5,46.061,4.5,32S15.939,6.5,30,6.5S55.5,17.939,55.5,32S44.061,57.5,30,57.5z M30,7.5
			C16.491,7.5,5.5,18.491,5.5,32S16.491,56.5,30,56.5S54.5,45.509,54.5,32S43.509,7.5,30,7.5z M30,53.5
			C18.145,53.5,8.5,43.855,8.5,32S18.145,10.5,30,10.5S51.5,20.145,51.5,32S41.855,53.5,30,53.5z M30,11.5
			C18.696,11.5,9.5,20.696,9.5,32S18.696,52.5,30,52.5S50.5,43.304,50.5,32S41.304,11.5,30,11.5z"/>
	</g>
	<g>
		<path class="st18" d="M34,7C20.193,7,9,18.193,9,32c0,13.807,11.193,25,25,25s25-11.193,25-25C59,18.193,47.807,7,34,7z M34,53
			c-11.598,0-21-9.402-21-21s9.402-21,21-21s21,9.402,21,21S45.598,53,34,53z"/>
		<path class="st1" d="M34,57.5C19.939,57.5,8.5,46.061,8.5,32S19.939,6.5,34,6.5S59.5,17.939,59.5,32S48.061,57.5,34,57.5z M34,7.5
			C20.491,7.5,9.5,18.491,9.5,32S20.491,56.5,34,56.5S58.5,45.509,58.5,32S47.509,7.5,34,7.5z M34,53.5
			c-11.855,0-21.5-9.645-21.5-21.5S22.145,10.5,34,10.5S55.5,20.145,55.5,32S45.855,53.5,34,53.5z M34,11.5
			c-11.304,0-20.5,9.196-20.5,20.5S22.696,52.5,34,52.5S54.5,43.304,54.5,32S45.304,11.5,34,11.5z"/>
	</g>
	<g>
		<path class="st5" d="M32,45.5c-0.276,0-0.5-0.224-0.5-0.5s0.224-0.5,0.5-0.5c6.893,0,12.5-5.607,12.5-12.5
			c0-0.276,0.224-0.5,0.5-0.5s0.5,0.224,0.5,0.5C45.5,39.444,39.444,45.5,32,45.5z"/>
	</g>
	<g>
		<path class="st7" d="M19,32.5c-0.276,0-0.5-0.224-0.5-0.5c0-4.229,2.029-8.271,5.427-10.814c0.222-0.167,0.535-0.12,0.7,0.101
			c0.166,0.221,0.12,0.535-0.101,0.7C21.332,24.377,19.5,28.026,19.5,32C19.5,32.276,19.276,32.5,19,32.5z M32.005,17.5
			c-0.276,0-0.502-0.224-0.502-0.5s0.221-0.5,0.498-0.5h0.005c0.276,0,0.5,0.224,0.5,0.5S32.281,17.5,32.005,17.5z"/>
	</g>
	<g>
		<path class="st1" d="M44.667,40.536H19.333c-0.276,0-0.5-0.224-0.5-0.5s0.224-0.5,0.5-0.5h25.334c0.276,0,0.5,0.224,0.5,0.5
			S44.944,40.536,44.667,40.536z"/>
	</g>
	<g>
		<path class="st1" d="M0.5,36.5C0.224,36.5,0,36.276,0,36v-2c0-0.276,0.224-0.5,0.5-0.5S1,33.724,1,34v2
			C1,36.276,0.776,36.5,0.5,36.5z"/>
	</g>
	<g>
		<path class="st1" d="M63.5,30.5c-0.276,0-0.5-0.224-0.5-0.5v-2c0-0.276,0.224-0.5,0.5-0.5S64,27.724,64,28v2
			C64,30.276,63.776,30.5,63.5,30.5z"/>
	</g>
	<g>
		<path class="st1" d="M32,47.5c-4.636,0-8.268-6.809-8.268-15.5S27.364,16.5,32,16.5s8.268,6.809,8.268,15.5S36.636,47.5,32,47.5z
			 M32,17.5c-4.008,0-7.268,6.505-7.268,14.5S27.992,46.5,32,46.5c4.007,0,7.268-6.505,7.268-14.5S36.007,17.5,32,17.5z"/>
	</g>
	<g>
		<path class="st1" d="M47,32.5H17c-0.276,0-0.5-0.224-0.5-0.5s0.224-0.5,0.5-0.5h30c0.276,0,0.5,0.224,0.5,0.5S47.276,32.5,47,32.5
			z"/>
	</g>
	<g>
		<path class="st1" d="M44.667,24.464H19.334c-0.276,0-0.5-0.224-0.5-0.5s0.224-0.5,0.5-0.5h25.333c0.276,0,0.5,0.224,0.5,0.5
			S44.944,24.464,44.667,24.464z"/>
	</g>
	<g>
		<path class="st1" d="M32,47.5c-8.547,0-15.5-6.953-15.5-15.5S23.453,16.5,32,16.5S47.5,23.453,47.5,32S40.547,47.5,32,47.5z
			 M32,17.5c-7.995,0-14.5,6.505-14.5,14.5S24.005,46.5,32,46.5S46.5,39.995,46.5,32S39.995,17.5,32,17.5z"/>
	</g>
</g>
</svg>
