<?xml version="1.0" encoding="utf-8"?>
<!-- Generator: Adobe Illustrator 21.1.0, SVG Export Plug-In . SVG Version: 6.00 Build 0)  -->
<svg version="1.1" id="Layer_1" xmlns="http://www.w3.org/2000/svg" xmlns:xlink="http://www.w3.org/1999/xlink" x="0px" y="0px"
	 viewBox="0 0 64 64" style="enable-background:new 0 0 64 64;" xml:space="preserve">
<style type="text/css">
	.st0{fill:#DB8E11;}
	.st1{fill:#212A41;}
	.st2{fill:#F9AC2F;}
	.st3{fill:#FFCA4D;}
	.st4{fill:#B7C0D7;}
	.st5{fill:#99A2B9;}
	.st6{fill:#B51040;}
	.st7{fill:#D32E5E;}
	.st8{fill:#F14C7C;}
	.st9{fill:#0079A8;}
	.st10{fill:#1E97C6;}
	.st11{fill:#BED38E;}
	.st12{fill:#A0B570;}
	.st13{fill:#DCF1AC;}
	.st14{fill:#D5DEF5;}
	.st15{fill:#4E4B51;}
	.st16{fill:#6C696F;}
	.st17{fill:#848483;}
	.st18{fill:#A2A2A1;}
	.st19{fill:#7B849B;}
	.st20{fill:#8A878D;}
	.st21{fill:#C0C0BF;}
	.st22{fill:#005B8A;}
	.st23{fill:#970022;}
	.st24{fill:#1A237E;}
	.st25{fill:#BD7000;}
	.st26{fill:#003D6C;}
	.st27{fill:#666665;}
	.st28{fill:#195190;}
</style>
<g id="UFO_Crash">
	<g>
		<path class="st1" d="M61.501,48.733c-0.023,0-0.048-0.001-0.071-0.005l-9.899-1.414c-0.273-0.039-0.464-0.292-0.425-0.566
			s0.296-0.462,0.565-0.424l9.899,1.414c0.273,0.039,0.464,0.292,0.425,0.566C61.959,48.554,61.745,48.733,61.501,48.733z"/>
	</g>
	<g>
		<path class="st1" d="M53.015,57.219c-0.128,0-0.256-0.049-0.354-0.146l-5.656-5.657c-0.195-0.195-0.195-0.512,0-0.707
			s0.512-0.195,0.707,0l5.656,5.657c0.195,0.195,0.195,0.512,0,0.707C53.271,57.17,53.143,57.219,53.015,57.219z"/>
	</g>
	<g>
		<path class="st4" d="M57.564,34.563L30.859,61.268c-1.131,1.131-3.018,0.924-3.877-0.426l-0.047-0.073
			c-1.887-2.966-1.461-6.844,1.024-9.33l19.776-19.776c2.486-2.486,6.364-2.911,9.33-1.024l0.073,0.047
			C58.488,31.544,58.695,33.432,57.564,34.563z"/>
		<path class="st1" d="M29.096,62.5c-0.11,0-0.221-0.006-0.332-0.019c-0.909-0.1-1.712-0.6-2.203-1.371
			c-2.076-3.261-1.627-7.354,1.046-10.025L47.382,31.31c2.672-2.671,6.766-3.12,9.952-1.092c0.845,0.538,1.345,1.341,1.444,2.25
			c0.101,0.909-0.214,1.801-0.86,2.448L31.213,61.621C30.645,62.189,29.888,62.5,29.096,62.5z M53.009,29.964
			c-1.803,0-3.568,0.702-4.92,2.052L28.313,51.792c-2.338,2.338-2.731,5.919-0.956,8.708c0.374,0.588,0.909,0.921,1.516,0.988
			c0.601,0.065,1.202-0.144,1.633-0.574l26.705-26.705c0.432-0.431,0.641-1.026,0.574-1.632c-0.067-0.606-0.4-1.142-0.915-1.469
			C55.662,30.339,54.326,29.964,53.009,29.964z"/>
	</g>
	<g>
		<path class="st5" d="M49.149,33.578c-0.128,0-0.256-0.049-0.354-0.146c-0.195-0.195-0.195-0.512,0-0.707
			c2.005-2.003,5.072-2.341,7.464-0.82c0.232,0.148,0.302,0.458,0.153,0.69c-0.149,0.233-0.458,0.301-0.69,0.153
			c-1.991-1.268-4.55-0.986-6.22,0.683C49.405,33.529,49.277,33.578,49.149,33.578z"/>
	</g>
	<g>
		<path class="st7" d="M33.226,58.901c5.355,0.94,11.563-1.027,16.253-5.718s6.657-10.898,5.718-16.253L33.226,58.901z"/>
		<path class="st1" d="M35.865,59.627c-0.92,0-1.832-0.077-2.727-0.233c-0.184-0.032-0.334-0.164-0.39-0.342
			c-0.057-0.178-0.009-0.372,0.123-0.504l21.971-21.971c0.131-0.132,0.324-0.18,0.504-0.123c0.178,0.056,0.31,0.207,0.342,0.39
			c0.999,5.687-1.245,12.083-5.855,16.693C45.948,57.422,40.794,59.627,35.865,59.627z M34.288,58.545
			c5.119,0.54,10.719-1.596,14.838-5.716c4.12-4.12,6.256-9.72,5.715-14.837L34.288,58.545z"/>
	</g>
	<g>
		<path class="st9" d="M48.241,31.158c-5.824-3.858-13.748-3.223-18.879,1.908s-5.767,13.055-1.908,18.879L48.241,31.158z"/>
		<path class="st1" d="M27.454,52.445c-0.017,0-0.033-0.001-0.05-0.002c-0.149-0.015-0.284-0.096-0.367-0.221
			c-4.049-6.112-3.22-14.317,1.972-19.509c5.191-5.192,13.396-6.02,19.509-1.972c0.125,0.083,0.206,0.218,0.221,0.367
			c0.016,0.149-0.037,0.297-0.144,0.403L27.808,52.298C27.714,52.393,27.586,52.445,27.454,52.445z M39.99,29.181
			c-3.752,0-7.479,1.444-10.274,4.239c-4.711,4.711-5.582,12.074-2.173,17.73l19.902-19.903
			C45.146,29.859,42.562,29.181,39.99,29.181z"/>
	</g>
	<g>
		<path class="st10" d="M27.946,49.124c-0.196,0-0.383-0.117-0.463-0.31c-2.078-5.058-0.925-10.823,2.939-14.688
			c0.195-0.195,0.512-0.195,0.707,0s0.195,0.512,0,0.707c-3.578,3.579-4.646,8.917-2.721,13.601
			c0.104,0.255-0.018,0.547-0.272,0.652C28.074,49.112,28.01,49.124,27.946,49.124z"/>
	</g>
	<g>
		<ellipse transform="matrix(0.7071 -0.7071 0.7071 0.7071 -16.0934 57.6144)" class="st18" cx="61.5" cy="48.234" rx="2" ry="2"/>
		<path class="st1" d="M61.5,50.732c-0.641,0-1.28-0.243-1.768-0.73c-0.975-0.975-0.975-2.561,0-3.536s2.561-0.975,3.535,0
			s0.975,2.561,0,3.536C62.78,50.489,62.14,50.732,61.5,50.732z M61.5,46.734c-0.384,0-0.769,0.146-1.061,0.438
			c-0.585,0.585-0.585,1.537,0,2.122c0.584,0.584,1.537,0.584,2.121,0c0.585-0.585,0.585-1.537,0-2.122
			C62.269,46.88,61.884,46.734,61.5,46.734z"/>
	</g>
	<g>
		<path class="st15" d="M54,57H3c-1.381,0-2.5,1.119-2.5,2.5v0C0.5,60.881,1.619,62,3,62h51c1.381,0,2.5-1.119,2.5-2.5v0
			C56.5,58.119,55.381,57,54,57z"/>
		<path class="st1" d="M54,62.5H3c-1.654,0-3-1.346-3-3s1.346-3,3-3h51c1.654,0,3,1.346,3,3S55.654,62.5,54,62.5z M3,57.5
			c-1.103,0-2,0.897-2,2s0.897,2,2,2h51c1.103,0,2-0.897,2-2s-0.897-2-2-2H3z"/>
	</g>
	<g>
		<path class="st16" d="M61,57H10c-1.381,0-2.5,1.119-2.5,2.5v0c0,1.381,1.119,2.5,2.5,2.5h51c1.381,0,2.5-1.119,2.5-2.5v0
			C63.5,58.119,62.381,57,61,57z"/>
		<path class="st1" d="M61,62.5H10c-1.654,0-3-1.346-3-3s1.346-3,3-3h51c1.654,0,3,1.346,3,3S62.654,62.5,61,62.5z M10,57.5
			c-1.103,0-2,0.897-2,2s0.897,2,2,2h51c1.103,0,2-0.897,2-2s-0.897-2-2-2H10z"/>
	</g>
	<g>
		<path class="st5" d="M27.458,5c0-1.657-1.343-3-3-3s-3,1.343-3,3H20.5c-1.105,0-2,0.895-2,2v0c0,1.105,0.895,2,2,2h8
			c1.105,0,2-0.895,2-2v0c0-1.105-0.895-2-2-2H27.458z"/>
		<path class="st1" d="M28.5,9.5h-8C19.121,9.5,18,8.378,18,7s1.121-2.5,2.5-2.5h0.493c0.244-1.694,1.705-3,3.465-3
			s3.221,1.306,3.465,3H28.5C29.879,4.5,31,5.622,31,7S29.879,9.5,28.5,9.5z M20.5,5.5C19.673,5.5,19,6.173,19,7s0.673,1.5,1.5,1.5
			h8C29.327,8.5,30,7.827,30,7s-0.673-1.5-1.5-1.5h-1.042c-0.276,0-0.5-0.224-0.5-0.5c0-1.378-1.121-2.5-2.5-2.5s-2.5,1.122-2.5,2.5
			c0,0.276-0.224,0.5-0.5,0.5H20.5z M27.958,5h0.01H27.958z"/>
	</g>
	<g>
		<path class="st4" d="M30.458,5c0-1.657-1.343-3-3-3s-3,1.343-3,3H23.5c-1.105,0-2,0.895-2,2v0c0,1.105,0.895,2,2,2h8
			c1.105,0,2-0.895,2-2v0c0-1.105-0.895-2-2-2H30.458z"/>
		<path class="st1" d="M31.5,9.5h-8C22.121,9.5,21,8.378,21,7s1.121-2.5,2.5-2.5h0.493c0.244-1.694,1.705-3,3.465-3
			s3.221,1.306,3.465,3H31.5C32.879,4.5,34,5.622,34,7S32.879,9.5,31.5,9.5z M23.5,5.5C22.673,5.5,22,6.173,22,7s0.673,1.5,1.5,1.5
			h8C32.327,8.5,33,7.827,33,7s-0.673-1.5-1.5-1.5h-1.042c-0.276,0-0.5-0.224-0.5-0.5c0-1.378-1.121-2.5-2.5-2.5s-2.5,1.122-2.5,2.5
			c0,0.276-0.224,0.5-0.5,0.5H23.5z M30.958,5h0.01H30.958z"/>
	</g>
	<g>
		<path class="st2" d="M51.136,3.378C51.768,2.747,52.507,2.291,53.294,2c-0.789,2.13-0.333,4.617,1.378,6.328
			S58.87,10.495,61,9.707c-0.291,0.786-0.747,1.526-1.378,2.157c-2.343,2.343-6.142,2.343-8.485,0S48.793,5.722,51.136,3.378z"/>
		<path class="st1" d="M55.379,14.121c-1.736,0-3.368-0.676-4.596-1.904s-1.904-2.86-1.904-4.596s0.677-3.369,1.904-4.596l0,0l0,0
			c0.661-0.662,1.447-1.164,2.337-1.494c0.183-0.067,0.388-0.023,0.527,0.115c0.138,0.138,0.184,0.344,0.115,0.527
			c-0.745,2.011-0.249,4.288,1.263,5.801c1.512,1.512,3.79,2.008,5.801,1.263c0.183-0.068,0.389-0.023,0.527,0.115
			c0.138,0.138,0.184,0.344,0.115,0.527c-0.328,0.888-0.831,1.674-1.493,2.337C58.748,13.445,57.115,14.121,55.379,14.121z
			 M52.525,2.921c-0.376,0.227-0.723,0.498-1.035,0.811l0,0c-1.039,1.039-1.611,2.42-1.611,3.889s0.572,2.85,1.611,3.889
			s2.42,1.611,3.889,1.611s2.851-0.572,3.89-1.611c0.312-0.313,0.584-0.66,0.811-1.036c-2.078,0.378-4.243-0.275-5.761-1.793
			S52.149,4.996,52.525,2.921z M51.137,3.378h0.01H51.137z"/>
	</g>
	<g>
		<path class="st24" d="M7.875,57.447c-0.276,0-0.5-0.224-0.5-0.5v-5c0-0.276,0.224-0.5,0.5-0.5s0.5,0.224,0.5,0.5v5
			C8.375,57.223,8.151,57.447,7.875,57.447z"/>
	</g>
	<g>
		<path class="st24" d="M9.875,57.447c-0.276,0-0.5-0.224-0.5-0.5v-5c0-0.276,0.224-0.5,0.5-0.5s0.5,0.224,0.5,0.5v5
			C10.375,57.223,10.151,57.447,9.875,57.447z"/>
	</g>
	<g>
		<polygon class="st11" points="12.197,43.947 15.732,43.947 11.08,36.947 14.089,36.947 8.875,28.947 3.661,36.947 6.67,36.947 
			2.018,43.947 5.553,43.947 0.875,51.947 8.875,51.947 16.875,51.947 		"/>
		<path class="st1" d="M16.875,52.447h-16c-0.179,0-0.345-0.096-0.434-0.251c-0.089-0.156-0.089-0.347,0.002-0.501l4.238-7.248
			H2.018c-0.185,0-0.354-0.102-0.44-0.264c-0.087-0.163-0.078-0.359,0.024-0.513l4.136-6.223H3.661
			c-0.184,0-0.353-0.101-0.439-0.262c-0.088-0.161-0.08-0.357,0.021-0.511l5.214-8c0.186-0.283,0.652-0.283,0.838,0l5.214,8
			c0.101,0.154,0.108,0.35,0.021,0.511c-0.087,0.161-0.256,0.262-0.439,0.262h-2.076l4.136,6.223
			c0.103,0.154,0.111,0.351,0.024,0.513c-0.087,0.162-0.256,0.264-0.44,0.264h-2.664l4.238,7.248
			c0.091,0.155,0.091,0.346,0.002,0.501C17.22,52.351,17.054,52.447,16.875,52.447z M1.746,51.447h14.258l-4.238-7.248
			c-0.091-0.155-0.091-0.346-0.002-0.501c0.089-0.155,0.255-0.251,0.434-0.251H14.8l-4.136-6.223
			c-0.103-0.154-0.111-0.351-0.024-0.513c0.087-0.162,0.256-0.264,0.44-0.264h2.086l-4.291-6.584l-4.291,6.584H6.67
			c0.185,0,0.354,0.102,0.44,0.264c0.087,0.163,0.078,0.359-0.024,0.513L2.95,43.447h2.603c0.179,0,0.345,0.096,0.434,0.251
			c0.089,0.156,0.089,0.347-0.002,0.501L1.746,51.447z"/>
	</g>
	<g>
		<path class="st13" d="M4.361,50.447c-0.086,0-0.173-0.022-0.252-0.068c-0.239-0.139-0.319-0.446-0.18-0.684l2.918-4.991
			c0.139-0.24,0.446-0.318,0.684-0.179c0.239,0.139,0.319,0.446,0.18,0.684l-2.918,4.991C4.7,50.358,4.532,50.447,4.361,50.447z
			 M5.742,42.456c-0.096,0-0.191-0.027-0.276-0.083c-0.23-0.153-0.293-0.463-0.14-0.693l2.594-3.902
			c0.152-0.23,0.464-0.292,0.692-0.14c0.23,0.153,0.293,0.463,0.14,0.693l-2.594,3.902C6.062,42.377,5.903,42.456,5.742,42.456z
			 M7.288,35.544c-0.094,0-0.188-0.026-0.273-0.081c-0.23-0.151-0.296-0.46-0.146-0.692l1.587-2.435
			c0.151-0.231,0.46-0.295,0.692-0.146c0.23,0.151,0.296,0.46,0.146,0.692l-1.587,2.435C7.611,35.464,7.451,35.544,7.288,35.544z"/>
	</g>
	<g>
		<path class="st1" d="M25,31.958h-7.5c-2.206,0-4-1.794-4-4s1.794-4,4-4h4c1.654,0,3-1.346,3-3s-1.346-3-3-3h-17
			c-0.276,0-0.5-0.224-0.5-0.5s0.224-0.5,0.5-0.5h17c2.206,0,4,1.794,4,4s-1.794,4-4,4h-4c-1.654,0-3,1.346-3,3s1.346,3,3,3H25
			c0.276,0,0.5,0.224,0.5,0.5S25.276,31.958,25,31.958z"/>
	</g>
	<g>
		<path class="st1" d="M2.5,17.958h-2c-0.276,0-0.5-0.224-0.5-0.5s0.224-0.5,0.5-0.5h2c0.276,0,0.5,0.224,0.5,0.5
			S2.776,17.958,2.5,17.958z"/>
	</g>
	<g>
		<ellipse transform="matrix(0.7071 -0.7071 0.7071 0.7071 -3.2532 7.1465)" class="st18" cx="7" cy="7.5" rx="2" ry="2"/>
		<path class="st1" d="M7,9.999c-0.641,0-1.28-0.243-1.768-0.73c-0.975-0.975-0.975-2.561,0-3.536s2.561-0.975,3.535,0
			s0.975,2.561,0,3.536C8.28,9.755,7.64,9.999,7,9.999z M7,6.001c-0.384,0-0.769,0.146-1.061,0.438
			c-0.585,0.585-0.585,1.537,0,2.122c0.584,0.584,1.537,0.584,2.121,0c0.585-0.585,0.585-1.537,0-2.122
			C7.769,6.147,7.384,6.001,7,6.001z"/>
	</g>
	<g>
		<ellipse transform="matrix(0.7071 -0.7071 0.7071 0.7071 1.3412 34.2384)" class="st18" cx="42" cy="15.5" rx="2" ry="2"/>
		<path class="st1" d="M42,17.999c-0.641,0-1.28-0.243-1.768-0.73c-0.975-0.975-0.975-2.561,0-3.536s2.561-0.975,3.535,0
			s0.975,2.561,0,3.536C43.28,17.755,42.64,17.999,42,17.999z M42,14.001c-0.384,0-0.769,0.146-1.061,0.438
			c-0.585,0.585-0.585,1.537,0,2.122c0.584,0.584,1.537,0.584,2.121,0c0.585-0.585,0.585-1.537,0-2.122
			C42.769,14.147,42.384,14.001,42,14.001z"/>
	</g>
</g>
</svg>
