<svg xmlns="http://www.w3.org/2000/svg" viewBox="0 0 288 44.73"><defs><style>.cls-1{fill:#fff;}</style></defs><g id="Ebene_2" data-name="Ebene 2"><g id="Ebene_1-2" data-name="Ebene 1"><path class="cls-1" d="M22.36,44.73A2.35,2.35,0,0,1,21,44.29a2.44,2.44,0,0,1-1-2V28a.61.61,0,0,1,.61-.61h3.57a.61.61,0,0,1,.61.61v8.58L36.55,24.76H2.46a2.47,2.47,0,0,1-2-1A2.41,2.41,0,0,1,.7,20.67l20-20A2.41,2.41,0,0,1,23.78.46a2.48,2.48,0,0,1,1,2V16.76a.61.61,0,0,1-.61.61H20.58a.61.61,0,0,1-.61-.61V8.18L8.18,20H42.27a2.45,2.45,0,0,1,2,1A2.41,2.41,0,0,1,44,24.06l-20,20A2.39,2.39,0,0,1,22.36,44.73Z"/><path class="cls-1" d="M59.4,32.07l1.41-2.42a.9.9,0,0,1,1.33-.27c.19.11,3.35,2.42,5.89,2.42,2,0,3.55-1.33,3.55-3,0-2-1.68-3.35-5-4.68-3.67-1.48-7.33-3.83-7.33-8.43,0-3.47,2.57-7.49,8.78-7.49a13.77,13.77,0,0,1,7.8,2.61,1,1,0,0,1,.23,1.29l-1.48,2.22a1,1,0,0,1-1.36.47c-.32-.19-3.28-2.14-5.43-2.14s-3.43,1.48-3.43,2.73c0,1.83,1.44,3.08,4.6,4.37,3.79,1.52,8.16,3.78,8.16,8.82,0,4-3.47,7.72-9,7.72a12.56,12.56,0,0,1-8.58-3C59.25,32.89,59.05,32.69,59.4,32.07Z"/><path class="cls-1" d="M82.19,9.32a.74.74,0,0,1,.74-.74H92.1a8.7,8.7,0,1,1,0,17.4H87.27v9.17a.77.77,0,0,1-.75.74H82.93a.74.74,0,0,1-.74-.74Zm9.6,11.9a4,4,0,0,0,4-4.06,3.89,3.89,0,0,0-4-3.78H87.27v7.84Z"/><path class="cls-1" d="M100.26,34.88,112.4,8.62a.68.68,0,0,1,.66-.43h.39a.65.65,0,0,1,.66.43l12,26.26a.68.68,0,0,1-.66,1h-3.4a1.12,1.12,0,0,1-1.13-.78L119,30.9H107.36l-1.91,4.21a1.17,1.17,0,0,1-1.13.78h-3.4A.69.69,0,0,1,100.26,34.88Zm16.86-8.31L113.22,18h-.12l-3.82,8.59Z"/><path class="cls-1" d="M141.63,8.19a13.2,13.2,0,0,1,9.44,3.63.72.72,0,0,1,0,1.09l-2.38,2.46a.63.63,0,0,1-1,0,9.19,9.19,0,0,0-6-2.3,8.85,8.85,0,0,0-8.7,9.09,8.83,8.83,0,0,0,8.74,9,9.4,9.4,0,0,0,6-2.22.71.71,0,0,1,1,0l2.42,2.49a.76.76,0,0,1,0,1.06,13.42,13.42,0,0,1-9.48,3.78,14,14,0,1,1,0-28.09Z"/><path class="cls-1" d="M156.26,9.32a.74.74,0,0,1,.74-.74h15.88a.74.74,0,0,1,.74.74v3.2a.74.74,0,0,1-.74.74H161.33v6.4H171a.77.77,0,0,1,.74.74v3.24a.74.74,0,0,1-.74.74h-9.64v6.83h11.55a.74.74,0,0,1,.74.74v3.2a.74.74,0,0,1-.74.74H157a.74.74,0,0,1-.74-.74Z"/><path class="cls-1" d="M186.19,9.32a.74.74,0,0,1,.74-.74h15.88a.74.74,0,0,1,.74.74v3.2a.74.74,0,0,1-.74.74H191.26V20.6h9.64a.77.77,0,0,1,.74.74v3.2a.77.77,0,0,1-.74.74h-9.64v9.87a.77.77,0,0,1-.74.74h-3.59a.74.74,0,0,1-.74-.74Z"/><path class="cls-1" d="M220.3,8.19a14,14,0,1,1-14,14.08A14,14,0,0,1,220.3,8.19Zm0,23a9,9,0,1,0-8.94-8.94A9,9,0,0,0,220.3,31.21Z"/><path class="cls-1" d="M239.1,9.32a.77.77,0,0,1,.75-.74h3.7a.74.74,0,0,1,.74.74v16a5.68,5.68,0,1,0,11.36,0v-16a.74.74,0,0,1,.74-.74h3.71a.77.77,0,0,1,.74.74V25.55a10.87,10.87,0,0,1-21.74,0Z"/><path class="cls-1" d="M267.59,9.32a.74.74,0,0,1,.74-.74h11.16A8.45,8.45,0,0,1,288,17c0,3.59-2.38,6.51-5.78,7.88l5.35,9.91a.74.74,0,0,1-.66,1.13h-4.1a.65.65,0,0,1-.62-.35L277,25.2h-4.34v10a.77.77,0,0,1-.74.74h-3.59a.74.74,0,0,1-.74-.74ZM279.06,21a4,4,0,0,0,3.87-4,3.89,3.89,0,0,0-3.87-3.79H272.7V21Z"/></g></g></svg>