<?xml version="1.0" encoding="utf-8"?>
<!-- Generator: Adobe Illustrator 21.1.0, SVG Export Plug-In . SVG Version: 6.00 Build 0)  -->
<svg version="1.1" id="Layer_1" xmlns="http://www.w3.org/2000/svg" xmlns:xlink="http://www.w3.org/1999/xlink" x="0px" y="0px"
	 viewBox="0 0 64 64" style="enable-background:new 0 0 64 64;" xml:space="preserve">
<style type="text/css">
	.st0{fill:#DB8E11;}
	.st1{fill:#212A41;}
	.st2{fill:#F9AC2F;}
	.st3{fill:#FFCA4D;}
	.st4{fill:#B7C0D7;}
	.st5{fill:#99A2B9;}
	.st6{fill:#B51040;}
	.st7{fill:#D32E5E;}
	.st8{fill:#F14C7C;}
	.st9{fill:#0079A8;}
	.st10{fill:#1E97C6;}
	.st11{fill:#BED38E;}
	.st12{fill:#A0B570;}
	.st13{fill:#DCF1AC;}
	.st14{fill:#D5DEF5;}
	.st15{fill:#4E4B51;}
	.st16{fill:#6C696F;}
	.st17{fill:#848483;}
	.st18{fill:#A2A2A1;}
	.st19{fill:#7B849B;}
	.st20{fill:#8A878D;}
	.st21{fill:#C0C0BF;}
	.st22{fill:#005B8A;}
	.st23{fill:#970022;}
	.st24{fill:#1A237E;}
	.st25{fill:#BD7000;}
	.st26{fill:#003D6C;}
	.st27{fill:#666665;}
	.st28{fill:#195190;}
</style>
<g id="Alien_Robot">
	<g>
		<path class="st5" d="M37.5,46.5h-17c-1.381,0-2.5-1.119-2.5-2.5V28c0-1.381,1.119-2.5,2.5-2.5h17c1.381,0,2.5,1.119,2.5,2.5v16
			C40,45.381,38.881,46.5,37.5,46.5z"/>
		<path class="st1" d="M37.5,47h-17c-1.654,0-3-1.346-3-3V28c0-1.654,1.346-3,3-3h17c1.654,0,3,1.346,3,3v16
			C40.5,45.654,39.154,47,37.5,47z M20.5,26c-1.103,0-2,0.897-2,2v16c0,1.103,0.897,2,2,2h17c1.103,0,2-0.897,2-2V28
			c0-1.103-0.897-2-2-2H20.5z"/>
	</g>
	<g>
		<path class="st4" d="M43.5,46.5h-17c-1.381,0-2.5-1.119-2.5-2.5V28c0-1.381,1.119-2.5,2.5-2.5h17c1.381,0,2.5,1.119,2.5,2.5v16
			C46,45.381,44.881,46.5,43.5,46.5z"/>
		<path class="st1" d="M43.5,47h-17c-1.654,0-3-1.346-3-3V28c0-1.654,1.346-3,3-3h17c1.654,0,3,1.346,3,3v16
			C46.5,45.654,45.154,47,43.5,47z M26.5,26c-1.103,0-2,0.897-2,2v16c0,1.103,0.897,2,2,2h17c1.103,0,2-0.897,2-2V28
			c0-1.103-0.897-2-2-2H26.5z"/>
	</g>
	<g>
		<path class="st14" d="M26,44.5c-0.276,0-0.5-0.224-0.5-0.5V28c0-0.276,0.224-0.5,0.5-0.5s0.5,0.224,0.5,0.5v16
			C26.5,44.276,26.276,44.5,26,44.5z"/>
	</g>
	<g>
		<path class="st5" d="M44,44.5c-0.276,0-0.5-0.224-0.5-0.5V28c0-0.276,0.224-0.5,0.5-0.5s0.5,0.224,0.5,0.5v16
			C44.5,44.276,44.276,44.5,44,44.5z"/>
	</g>
	<g>
		<path class="st11" d="M40.5,14.5h10c0.828,0,1.5-0.672,1.5-1.5v0c0-0.828-0.672-1.5-1.5-1.5h-10c-0.828,0-1.5,0.672-1.5,1.5v0
			C39,13.828,39.671,14.5,40.5,14.5z"/>
		<path class="st1" d="M50.5,15h-10c-1.103,0-2-0.897-2-2s0.897-2,2-2h10c1.103,0,2,0.897,2,2S51.603,15,50.5,15z M40.5,12
			c-0.551,0-1,0.449-1,1s0.449,1,1,1h10c0.551,0,1-0.449,1-1s-0.449-1-1-1H40.5z"/>
	</g>
	<g>
		<circle class="st11" cx="52" cy="13" r="3"/>
		<path class="st1" d="M52,16.5c-1.93,0-3.5-1.57-3.5-3.5s1.57-3.5,3.5-3.5s3.5,1.57,3.5,3.5S53.929,16.5,52,16.5z M52,10.5
			c-1.378,0-2.5,1.122-2.5,2.5s1.122,2.5,2.5,2.5s2.5-1.122,2.5-2.5S53.378,10.5,52,10.5z"/>
	</g>
	<g>
		<path class="st11" d="M32,1L32,1c-6.627,0-12,5.373-12,12v12.5h24V13C44,6.373,38.627,1,32,1z"/>
		<path class="st1" d="M44,26H20c-0.276,0-0.5-0.224-0.5-0.5V13c0-6.893,5.607-12.5,12.5-12.5S44.5,6.107,44.5,13v12.5
			C44.5,25.776,44.276,26,44,26z M20.5,25h23V13c0-6.341-5.159-11.5-11.5-11.5S20.5,6.659,20.5,13V25z"/>
	</g>
	<g>
		<path class="st13" d="M22,13.5c-0.276,0-0.5-0.224-0.5-0.5c0-5.79,4.71-10.5,10.5-10.5c0.276,0,0.5,0.224,0.5,0.5
			S32.276,3.5,32,3.5c-5.238,0-9.5,4.262-9.5,9.5C22.5,13.276,22.276,13.5,22,13.5z"/>
	</g>
	<g>
		<path class="st17" d="M40.5,38h-23c-0.552,0-1-0.448-1-1v-2c0-0.552,0.448-1,1-1h23c0.552,0,1,0.448,1,1v2
			C41.5,37.552,41.052,38,40.5,38z"/>
		<path class="st1" d="M40.5,38.5h-23c-0.827,0-1.5-0.673-1.5-1.5v-2c0-0.827,0.673-1.5,1.5-1.5h23c0.827,0,1.5,0.673,1.5,1.5v2
			C42,37.827,41.327,38.5,40.5,38.5z M17.5,34.5c-0.276,0-0.5,0.224-0.5,0.5v2c0,0.276,0.224,0.5,0.5,0.5h23
			c0.276,0,0.5-0.224,0.5-0.5v-2c0-0.276-0.224-0.5-0.5-0.5H17.5z"/>
	</g>
	<g>
		<polygon class="st4" points="15,38 11,38 5,63 9,63 		"/>
		<path class="st1" d="M9,63.5H5c-0.153,0-0.298-0.07-0.393-0.19s-0.129-0.277-0.094-0.426l6-25C10.568,37.659,10.769,37.5,11,37.5
			h4c0.153,0,0.298,0.07,0.393,0.19s0.129,0.277,0.094,0.426l-6,25C9.432,63.341,9.231,63.5,9,63.5z M5.634,62.5h2.972l5.76-24
			h-2.972L5.634,62.5z"/>
	</g>
	<g>
		<polygon class="st5" points="11,38 7,38 1,63 5,63 		"/>
		<path class="st1" d="M5,63.5H1c-0.153,0-0.298-0.07-0.393-0.19s-0.129-0.277-0.094-0.426l6-25C6.568,37.659,6.769,37.5,7,37.5h4
			c0.153,0,0.298,0.07,0.393,0.19s0.129,0.277,0.094,0.426l-6,25C5.432,63.341,5.231,63.5,5,63.5z M1.634,62.5h2.972l5.76-24H7.394
			L1.634,62.5z"/>
	</g>
	<g>
		<rect x="8.124" y="38" class="st4" width="12.876" height="5"/>
		<path class="st1" d="M21,43.5H8.125c-0.276,0-0.5-0.224-0.5-0.5v-5c0-0.276,0.224-0.5,0.5-0.5H21c0.276,0,0.5,0.224,0.5,0.5v5
			C21.5,43.276,21.276,43.5,21,43.5z M8.625,42.5H20.5v-4H8.625V42.5z"/>
	</g>
	<g>
		<circle class="st0" cx="9" cy="41.5" r="4.5"/>
		<path class="st1" d="M9,46.5c-2.757,0-5-2.243-5-5s2.243-5,5-5s5,2.243,5,5S11.757,46.5,9,46.5z M9,37.5c-2.206,0-4,1.794-4,4
			s1.794,4,4,4s4-1.794,4-4S11.206,37.5,9,37.5z"/>
	</g>
	<g>
		<circle class="st2" cx="11" cy="41.5" r="4.5"/>
		<path class="st1" d="M11,46.5c-2.757,0-5-2.243-5-5s2.243-5,5-5s5,2.243,5,5S13.757,46.5,11,46.5z M11,37.5c-2.206,0-4,1.794-4,4
			s1.794,4,4,4s4-1.794,4-4S13.206,37.5,11,37.5z"/>
	</g>
	<g>
		<path class="st3" d="M8.5,42C8.224,42,8,41.776,8,41.5c0-1.654,1.346-3,3-3c0.276,0,0.5,0.224,0.5,0.5s-0.224,0.5-0.5,0.5
			c-1.103,0-2,0.897-2,2C9,41.776,8.776,42,8.5,42z"/>
	</g>
	<g>
		<polygon class="st9" points="39,29.5 31,29.5 29,25.5 41,25.5 		"/>
		<path class="st1" d="M39,30h-8c-0.189,0-0.362-0.107-0.447-0.276l-2-4c-0.078-0.155-0.069-0.339,0.022-0.486S28.827,25,29,25h12
			c0.173,0,0.334,0.09,0.425,0.237s0.1,0.332,0.022,0.486l-2,4C39.362,29.893,39.189,30,39,30z M31.309,29h7.382l1.5-3H29.809
			L31.309,29z"/>
	</g>
	<g>
		<path class="st18" d="M46.5,38h-23c-0.552,0-1-0.448-1-1v-2c0-0.552,0.448-1,1-1h23c0.552,0,1,0.448,1,1v2
			C47.5,37.552,47.052,38,46.5,38z"/>
		<path class="st1" d="M46.5,38.5h-23c-0.827,0-1.5-0.673-1.5-1.5v-2c0-0.827,0.673-1.5,1.5-1.5h23c0.827,0,1.5,0.673,1.5,1.5v2
			C48,37.827,47.327,38.5,46.5,38.5z M23.5,34.5c-0.276,0-0.5,0.224-0.5,0.5v2c0,0.276,0.224,0.5,0.5,0.5h23
			c0.276,0,0.5-0.224,0.5-0.5v-2c0-0.276-0.224-0.5-0.5-0.5H23.5z"/>
	</g>
	<g>
		<circle class="st7" cx="43.5" cy="36" r="1.5"/>
		<path class="st1" d="M43.5,38c-1.103,0-2-0.897-2-2s0.897-2,2-2s2,0.897,2,2S44.603,38,43.5,38z M43.5,35c-0.551,0-1,0.449-1,1
			s0.449,1,1,1s1-0.449,1-1S44.051,35,43.5,35z"/>
	</g>
	<g>
		<polygon class="st5" points="49,38 53,38 59,63 55,63 		"/>
		<path class="st1" d="M59,63.5h-4c-0.231,0-0.432-0.159-0.486-0.383l-6-25c-0.036-0.149-0.001-0.306,0.094-0.426
			S48.847,37.5,49,37.5h4c0.231,0,0.432,0.159,0.486,0.383l6,25c0.036,0.149,0.001,0.306-0.094,0.426S59.153,63.5,59,63.5z
			 M55.394,62.5h2.972l-5.76-24h-2.972L55.394,62.5z"/>
	</g>
	<g>
		<polygon class="st4" points="53,38 57,38 63,63 59,63 		"/>
		<path class="st1" d="M63,63.5h-4c-0.231,0-0.432-0.159-0.486-0.383l-6-25c-0.036-0.149-0.001-0.306,0.094-0.426
			S52.847,37.5,53,37.5h4c0.231,0,0.432,0.159,0.486,0.383l6,25c0.036,0.149,0.001,0.306-0.094,0.426S63.153,63.5,63,63.5z
			 M59.394,62.5h2.972l-5.76-24h-2.972L59.394,62.5z"/>
	</g>
	<g>
		<rect x="46" y="38" class="st4" width="9" height="5"/>
		<path class="st1" d="M55,43.5h-9c-0.276,0-0.5-0.224-0.5-0.5v-5c0-0.276,0.224-0.5,0.5-0.5h9c0.276,0,0.5,0.224,0.5,0.5v5
			C55.5,43.276,55.276,43.5,55,43.5z M46.5,42.5h8v-4h-8V42.5z"/>
	</g>
	<g>
		<g>
			<rect x="36.5" y="38" class="st4" width="4" height="25"/>
			<path class="st1" d="M40.5,63.5h-4c-0.276,0-0.5-0.224-0.5-0.5V38c0-0.276,0.224-0.5,0.5-0.5h4c0.276,0,0.5,0.224,0.5,0.5v25
				C41,63.276,40.776,63.5,40.5,63.5z M37,62.5h3v-24h-3V62.5z"/>
		</g>
		<g>
			<polygon class="st5" points="29.5,38 29.5,43 32.5,43 32.5,63 36.5,63 36.5,38 			"/>
			<path class="st1" d="M36.5,63.5h-4c-0.276,0-0.5-0.224-0.5-0.5V43.5h-2.5c-0.276,0-0.5-0.224-0.5-0.5v-5
				c0-0.276,0.224-0.5,0.5-0.5h7c0.276,0,0.5,0.224,0.5,0.5v25C37,63.276,36.776,63.5,36.5,63.5z M33,62.5h3v-24h-6v4h2.5
				c0.276,0,0.5,0.224,0.5,0.5V62.5z"/>
		</g>
	</g>
	<g>
		<path class="st11" d="M23.5,14.5h-10c-0.828,0-1.5-0.672-1.5-1.5v0c0-0.828,0.672-1.5,1.5-1.5h10c0.828,0,1.5,0.672,1.5,1.5v0
			C25,13.828,24.328,14.5,23.5,14.5z"/>
		<path class="st1" d="M23.5,15h-10c-1.103,0-2-0.897-2-2s0.897-2,2-2h10c1.103,0,2,0.897,2,2S24.603,15,23.5,15z M13.5,12
			c-0.551,0-1,0.449-1,1s0.449,1,1,1h10c0.551,0,1-0.449,1-1s-0.449-1-1-1H13.5z"/>
	</g>
	<g>
		<circle class="st11" cx="12" cy="13" r="3"/>
		<path class="st1" d="M12,16.5c-1.93,0-3.5-1.57-3.5-3.5s1.57-3.5,3.5-3.5s3.5,1.57,3.5,3.5S13.929,16.5,12,16.5z M12,10.5
			c-1.378,0-2.5,1.122-2.5,2.5s1.122,2.5,2.5,2.5s2.5-1.122,2.5-2.5S13.378,10.5,12,10.5z"/>
	</g>
	<g>
		<path class="st13" d="M11,13.5c-0.276,0-0.5-0.224-0.5-0.5c0-0.827,0.673-1.5,1.5-1.5c0.276,0,0.5,0.224,0.5,0.5
			s-0.224,0.5-0.5,0.5c-0.276,0-0.5,0.224-0.5,0.5C11.5,13.276,11.276,13.5,11,13.5z"/>
	</g>
	<g>
		<path class="st13" d="M51,13.5c-0.276,0-0.5-0.224-0.5-0.5c0-0.827,0.673-1.5,1.5-1.5c0.276,0,0.5,0.224,0.5,0.5
			s-0.224,0.5-0.5,0.5c-0.276,0-0.5,0.224-0.5,0.5C51.5,13.276,51.276,13.5,51,13.5z"/>
	</g>
	<g>
		<circle class="st9" cx="32" cy="13" r="2"/>
		<path class="st1" d="M32,15.5c-1.378,0-2.5-1.122-2.5-2.5s1.122-2.5,2.5-2.5s2.5,1.122,2.5,2.5S33.379,15.5,32,15.5z M32,11.5
			c-0.827,0-1.5,0.673-1.5,1.5s0.673,1.5,1.5,1.5s1.5-0.673,1.5-1.5S32.828,11.5,32,11.5z"/>
	</g>
	<g>
		<circle class="st9" cx="39.5" cy="13" r="2"/>
		<path class="st1" d="M39.5,15.5c-1.378,0-2.5-1.122-2.5-2.5s1.122-2.5,2.5-2.5S42,11.622,42,13S40.879,15.5,39.5,15.5z M39.5,11.5
			c-0.827,0-1.5,0.673-1.5,1.5s0.673,1.5,1.5,1.5S41,13.827,41,13S40.328,11.5,39.5,11.5z"/>
	</g>
	<g>
		<path class="st1" d="M38.25,18.5h-5c-0.276,0-0.5-0.224-0.5-0.5s0.224-0.5,0.5-0.5h5c0.276,0,0.5,0.224,0.5,0.5
			S38.527,18.5,38.25,18.5z"/>
	</g>
	<g>
		<circle class="st0" cx="54.5" cy="41.5" r="4.5"/>
		<path class="st1" d="M54.5,46.5c-2.757,0-5-2.243-5-5s2.243-5,5-5s5,2.243,5,5S57.257,46.5,54.5,46.5z M54.5,37.5
			c-2.206,0-4,1.794-4,4s1.794,4,4,4s4-1.794,4-4S56.706,37.5,54.5,37.5z"/>
	</g>
	<g>
		<circle class="st2" cx="56.5" cy="41.5" r="4.5"/>
		<path class="st1" d="M56.5,46.5c-2.757,0-5-2.243-5-5s2.243-5,5-5s5,2.243,5,5S59.257,46.5,56.5,46.5z M56.5,37.5
			c-2.206,0-4,1.794-4,4s1.794,4,4,4s4-1.794,4-4S58.706,37.5,56.5,37.5z"/>
	</g>
	<g>
		<path class="st3" d="M54,42c-0.276,0-0.5-0.224-0.5-0.5c0-1.654,1.346-3,3-3c0.276,0,0.5,0.224,0.5,0.5s-0.224,0.5-0.5,0.5
			c-1.103,0-2,0.897-2,2C54.5,41.776,54.276,42,54,42z"/>
	</g>
</g>
</svg>
