<?xml version="1.0" encoding="utf-8"?>
<!-- Generator: Adobe Illustrator 21.1.0, SVG Export Plug-In . SVG Version: 6.00 Build 0)  -->
<svg version="1.1" id="Layer_1" xmlns="http://www.w3.org/2000/svg" xmlns:xlink="http://www.w3.org/1999/xlink" x="0px" y="0px"
	 viewBox="0 0 64 64" style="enable-background:new 0 0 64 64;" xml:space="preserve">
<style type="text/css">
	.st0{fill:#DB8E11;}
	.st1{fill:#212A41;}
	.st2{fill:#F9AC2F;}
	.st3{fill:#FFCA4D;}
	.st4{fill:#B7C0D7;}
	.st5{fill:#99A2B9;}
	.st6{fill:#B51040;}
	.st7{fill:#D32E5E;}
	.st8{fill:#F14C7C;}
	.st9{fill:#0079A8;}
	.st10{fill:#1E97C6;}
	.st11{fill:#BED38E;}
	.st12{fill:#A0B570;}
	.st13{fill:#DCF1AC;}
	.st14{fill:#D5DEF5;}
	.st15{fill:#4E4B51;}
	.st16{fill:#6C696F;}
	.st17{fill:#848483;}
	.st18{fill:#A2A2A1;}
	.st19{fill:#7B849B;}
	.st20{fill:#8A878D;}
	.st21{fill:#C0C0BF;}
	.st22{fill:#005B8A;}
	.st23{fill:#970022;}
	.st24{fill:#1A237E;}
	.st25{fill:#BD7000;}
	.st26{fill:#003D6C;}
	.st27{fill:#666665;}
	.st28{fill:#195190;}
</style>
<g id="Alien_Species">
	<g>
		<path class="st11" d="M41.481,23c0.829,0,1.5-0.671,1.5-1.5v-7.45c0-3.336,2.714-6.05,6.05-6.05h2.45c0.829,0,1.5-0.671,1.5-1.5
			S52.309,5,51.481,5h-2.45c-4.99,0-9.05,4.06-9.05,9.05v7.45C39.981,22.329,40.652,23,41.481,23z"/>
		<path class="st1" d="M41.48,23.5c-1.103,0-2-0.897-2-2v-7.45c0-5.266,4.284-9.55,9.55-9.55h2.45c1.103,0,2,0.897,2,2s-0.897,2-2,2
			h-2.45c-3.061,0-5.55,2.49-5.55,5.55v7.45C43.48,22.603,42.583,23.5,41.48,23.5z M49.03,5.5c-4.715,0-8.55,3.835-8.55,8.55v7.45
			c0,0.551,0.448,1,1,1s1-0.449,1-1v-7.45c0-3.612,2.938-6.55,6.55-6.55h2.45c0.552,0,1-0.449,1-1s-0.448-1-1-1H49.03z"/>
	</g>
	<g>
		<circle class="st11" cx="52.981" cy="6.5" r="6"/>
		<path class="st1" d="M52.98,13c-3.584,0-6.5-2.916-6.5-6.5S49.396,0,52.98,0s6.5,2.916,6.5,6.5S56.564,13,52.98,13z M52.98,1
			c-3.032,0-5.5,2.467-5.5,5.5s2.468,5.5,5.5,5.5s5.5-2.467,5.5-5.5S56.013,1,52.98,1z"/>
	</g>
	<g>
		<circle class="st16" cx="52.981" cy="6.5" r="3"/>
		<path class="st1" d="M52.98,10c-1.93,0-3.5-1.57-3.5-3.5s1.57-3.5,3.5-3.5s3.5,1.57,3.5,3.5S54.91,10,52.98,10z M52.98,4
			c-1.379,0-2.5,1.122-2.5,2.5S51.602,9,52.98,9s2.5-1.122,2.5-2.5S54.359,4,52.98,4z"/>
	</g>
	<g>
		<path class="st11" d="M52.981,0.5c3.314,0,6,2.686,6,6h-12C46.981,3.186,49.667,0.5,52.981,0.5z"/>
		<path class="st1" d="M58.98,7h-12c-0.276,0-0.5-0.224-0.5-0.5c0-3.584,2.916-6.5,6.5-6.5s6.5,2.916,6.5,6.5
			C59.48,6.776,59.257,7,58.98,7z M47.503,6h10.955c-0.253-2.799-2.613-5-5.478-5S47.756,3.201,47.503,6z"/>
	</g>
	<g>
		<path class="st11" d="M60.792,49.886L60.792,49.886c1.495-1.196,1.761-3.366,0.6-4.888L48.981,28.735l-7.5,8l14.78,13.041
			C57.544,50.909,59.456,50.955,60.792,49.886z"/>
		<path class="st1" d="M58.592,51.16c-0.951,0-1.901-0.337-2.662-1.008L41.149,37.11c-0.102-0.089-0.162-0.216-0.168-0.352
			c-0.007-0.135,0.042-0.267,0.134-0.365l7.5-8c0.102-0.107,0.242-0.169,0.391-0.158c0.146,0.008,0.283,0.079,0.372,0.196
			l12.411,16.263c1.316,1.723,1.009,4.227-0.685,5.581l0,0C60.367,50.866,59.479,51.16,58.592,51.16z M42.197,36.701l14.395,12.701
			c1.104,0.974,2.74,1.013,3.888,0.094c0,0,0,0,0,0c1.272-1.018,1.504-2.899,0.515-4.193L48.941,29.508L42.197,36.701z"/>
	</g>
	<g>
		<path class="st11" d="M32.007,12.818c-9.341-0.014-16.957,7.298-17.476,16.506L2.675,44.86c-1.073,1.406-1.079,3.434,0.147,4.708
			c1.333,1.386,3.479,1.443,4.879,0.208l6.78-5.983v14.145c0,3.071,2.49,5.561,5.561,5.561h0c2.596,0,4.847-1.797,5.423-4.329
			l1.516-6.672l1.613,7.1c0.518,2.282,2.547,3.901,4.887,3.901h0c2.34,0,4.368-1.619,4.887-3.901l1.613-7.1l1.812,7.972
			c0.403,1.771,1.977,3.028,3.793,3.028h0.005c2.148,0,3.89-1.742,3.89-3.89l0-28.855C49.481,21.141,41.621,12.833,32.007,12.818z"
			/>
		<path class="st1" d="M45.591,64c-2.068,0-3.828-1.405-4.285-3.417l-1.325-5.828l-1.126,4.955C38.28,62.236,36.07,64,33.48,64
			c-2.591,0-4.801-1.764-5.373-4.29l-1.127-4.955l-1.028,4.526C25.32,62.06,22.89,64,20.042,64c-3.343,0-6.062-2.719-6.062-6.061
			V44.902l-5.949,5.25c-1.62,1.43-4.066,1.327-5.569-0.236c-1.359-1.412-1.438-3.716-0.185-5.358l11.764-15.415
			c0.612-9.452,8.461-16.824,17.939-16.824c0.01,0,0.018,0,0.027,0l0,0c9.742,0.014,17.973,8.458,17.973,18.437V59.61
			C49.98,62.031,48.012,64,45.591,64z M39.98,52c0.233,0,0.436,0.162,0.487,0.389l1.812,7.973C42.634,61.915,43.993,63,45.586,63
			c1.874,0,3.395-1.521,3.395-3.39V30.755c0-9.438-7.773-17.423-16.975-17.437c-0.008,0-0.017,0-0.025,0
			c-9.001,0-16.443,7.038-16.95,16.035c-0.006,0.1-0.041,0.195-0.102,0.275L3.072,45.164c-0.957,1.254-0.91,2.999,0.11,4.058
			c1.131,1.175,2.971,1.253,4.187,0.18l6.78-5.982c0.148-0.129,0.356-0.161,0.537-0.081c0.179,0.081,0.294,0.259,0.294,0.456v14.145
			c0,2.791,2.271,5.061,5.062,5.061c2.378,0,4.407-1.62,4.936-3.939l1.516-6.672C26.545,52.161,26.747,52,26.98,52
			s0.436,0.162,0.487,0.389l1.614,7.1C29.552,61.556,31.36,63,33.48,63s3.93-1.444,4.399-3.511l1.613-7.1
			C39.545,52.161,39.747,52,39.98,52z"/>
	</g>
	<g>
		<path class="st12" d="M47.48,60.11c-0.276,0-0.5-0.224-0.5-0.5V30.755c0-8.356-6.858-15.425-14.978-15.437
			c-0.276,0-0.499-0.225-0.499-0.5c0-0.276,0.225-0.5,0.5-0.5c0,0,0,0,0.001,0c8.659,0.013,15.976,7.54,15.976,16.437V59.61
			C47.98,59.886,47.757,60.11,47.48,60.11z"/>
	</g>
	<g>
		<path class="st13" d="M4.159,46.711c-0.106,0-0.213-0.033-0.304-0.103c-0.219-0.167-0.262-0.481-0.094-0.701l11.962-15.673
			c0.168-0.22,0.482-0.262,0.701-0.094s0.262,0.481,0.094,0.701L4.557,46.515C4.458,46.644,4.31,46.711,4.159,46.711z"/>
	</g>
	<g>
		<path class="st9" d="M34.481,41.318c6.075,0,11-4.925,11-11h-22C23.481,36.394,28.406,41.318,34.481,41.318z"/>
		<path class="st1" d="M34.48,41.818c-6.341,0-11.5-5.159-11.5-11.5c0-0.276,0.224-0.5,0.5-0.5h22c0.276,0,0.5,0.224,0.5,0.5
			C45.98,36.66,40.821,41.818,34.48,41.818z M23.992,30.818c0.262,5.559,4.866,10,10.488,10s10.227-4.441,10.488-10H23.992z"/>
	</g>
	<g>
		<path class="st10" d="M34.48,39.818c-4.392,0-8.287-3.107-9.263-7.389c-0.062-0.269,0.107-0.537,0.376-0.598
			c0.279-0.065,0.537,0.107,0.599,0.376c0.873,3.831,4.358,6.611,8.288,6.611c0.276,0,0.5,0.224,0.5,0.5S34.757,39.818,34.48,39.818
			z"/>
	</g>
	<g>
		<path class="st16" d="M31.981,24.318L31.981,24.318c-0.828,0-1.5-0.672-1.5-1.5v-2c0-0.828,0.672-1.5,1.5-1.5h0
			c0.828,0,1.5,0.672,1.5,1.5v2C33.481,23.647,32.809,24.318,31.981,24.318z"/>
		<path class="st1" d="M31.98,24.818c-1.103,0-2-0.897-2-2v-2c0-1.103,0.897-2,2-2s2,0.897,2,2v2
			C33.98,23.921,33.083,24.818,31.98,24.818z M31.98,19.818c-0.552,0-1,0.449-1,1v2c0,0.551,0.448,1,1,1s1-0.449,1-1v-2
			C32.98,20.267,32.532,19.818,31.98,19.818z"/>
	</g>
	<g>
		<path class="st16" d="M36.981,24.318L36.981,24.318c-0.828,0-1.5-0.672-1.5-1.5v-2c0-0.828,0.672-1.5,1.5-1.5l0,0
			c0.828,0,1.5,0.672,1.5,1.5v2C38.481,23.647,37.809,24.318,36.981,24.318z"/>
		<path class="st1" d="M36.98,24.818c-1.103,0-2-0.897-2-2v-2c0-1.103,0.897-2,2-2s2,0.897,2,2v2
			C38.98,23.921,38.083,24.818,36.98,24.818z M36.98,19.818c-0.552,0-1,0.449-1,1v2c0,0.551,0.448,1,1,1s1-0.449,1-1v-2
			C37.98,20.267,37.532,19.818,36.98,19.818z"/>
	</g>
	<g>
		<path class="st1" d="M31.98,13.318c-0.276,0-0.5-0.224-0.5-0.5v-7c0-0.276,0.224-0.5,0.5-0.5s0.5,0.224,0.5,0.5v7
			C32.48,13.095,32.257,13.318,31.98,13.318z"/>
	</g>
	<g>
		<circle class="st7" cx="31.98" cy="5.818" r="2.5"/>
		<path class="st1" d="M31.98,8.818c-1.654,0-3-1.346-3-3s1.346-3,3-3s3,1.346,3,3S33.635,8.818,31.98,8.818z M31.98,3.818
			c-1.103,0-2,0.897-2,2s0.897,2,2,2s2-0.897,2-2S33.083,3.818,31.98,3.818z"/>
	</g>
	<g>
		<path class="st4" d="M39.481,35.318h-3c-0.552,0-1-0.448-1-1v-4h5v4C40.481,34.871,40.033,35.318,39.481,35.318z"/>
		<path class="st1" d="M39.48,35.818h-3c-0.827,0-1.5-0.673-1.5-1.5v-4c0-0.276,0.224-0.5,0.5-0.5h5c0.276,0,0.5,0.224,0.5,0.5v4
			C40.98,35.146,40.308,35.818,39.48,35.818z M35.98,30.818v3.5c0,0.276,0.225,0.5,0.5,0.5h3c0.275,0,0.5-0.224,0.5-0.5v-3.5H35.98z
			"/>
	</g>
	<g>
		<path class="st12" d="M21.481,23c-0.829,0-1.5-0.671-1.5-1.5v-7.45c0-3.336-2.714-6.05-6.05-6.05h-2.45
			c-0.829,0-1.5-0.671-1.5-1.5s0.671-1.5,1.5-1.5h2.45c4.99,0,9.05,4.06,9.05,9.05v7.45C22.981,22.329,22.309,23,21.481,23z"/>
		<path class="st1" d="M21.48,23.5c-1.103,0-2-0.897-2-2v-7.45c0-3.06-2.489-5.55-5.55-5.55h-2.45c-1.103,0-2-0.897-2-2s0.897-2,2-2
			h2.45c5.266,0,9.55,4.284,9.55,9.55v7.45C23.48,22.603,22.583,23.5,21.48,23.5z M11.48,5.5c-0.552,0-1,0.449-1,1s0.448,1,1,1h2.45
			c3.611,0,6.55,2.938,6.55,6.55v7.45c0,0.551,0.448,1,1,1s1-0.449,1-1v-7.45c0-4.714-3.835-8.55-8.55-8.55H11.48z"/>
	</g>
	<g>
		<circle class="st12" cx="9.981" cy="6.5" r="6"/>
		<path class="st1" d="M9.98,13c-3.584,0-6.5-2.916-6.5-6.5S6.396,0,9.98,0s6.5,2.916,6.5,6.5S13.564,13,9.98,13z M9.98,1
			c-3.032,0-5.5,2.467-5.5,5.5S6.948,12,9.98,12s5.5-2.467,5.5-5.5S13.013,1,9.98,1z"/>
	</g>
	<g>
		<circle class="st16" cx="9.981" cy="6.5" r="3"/>
		<path class="st1" d="M9.98,10c-1.93,0-3.5-1.57-3.5-3.5S8.051,3,9.98,3s3.5,1.57,3.5,3.5S11.91,10,9.98,10z M9.98,4
			c-1.379,0-2.5,1.122-2.5,2.5S8.602,9,9.98,9s2.5-1.122,2.5-2.5S11.359,4,9.98,4z"/>
	</g>
	<g>
		<path class="st12" d="M9.981,0.5c-3.314,0-6,2.686-6,6h12C15.981,3.186,13.294,0.5,9.981,0.5z"/>
		<path class="st1" d="M15.98,7h-12c-0.276,0-0.5-0.224-0.5-0.5c0-3.584,2.916-6.5,6.5-6.5s6.5,2.916,6.5,6.5
			C16.48,6.776,16.257,7,15.98,7z M4.503,6h10.955c-0.253-2.799-2.613-5-5.478-5S4.756,3.201,4.503,6z"/>
	</g>
	<g>
		<path class="st11" d="M6.518,5C6.432,5,6.346,4.979,6.267,4.933C6.028,4.794,5.946,4.488,6.085,4.25C6.889,2.862,8.382,2,9.98,2
			c0.276,0,0.5,0.224,0.5,0.5S10.257,3,9.98,3C8.737,3,7.576,3.671,6.95,4.75C6.857,4.911,6.689,5,6.518,5z"/>
	</g>
	<g>
		<path class="st13" d="M49.518,5c-0.086,0-0.172-0.021-0.251-0.067c-0.238-0.139-0.32-0.444-0.182-0.683
			C49.889,2.862,51.382,2,52.98,2c0.276,0,0.5,0.224,0.5,0.5S53.257,3,52.98,3c-1.243,0-2.404,0.671-3.03,1.75
			C49.857,4.911,49.689,5,49.518,5z"/>
	</g>
</g>
</svg>
