<?xml version="1.0" encoding="utf-8"?>
<!-- Generator: Adobe Illustrator 21.1.0, SVG Export Plug-In . SVG Version: 6.00 Build 0)  -->
<svg version="1.1" id="Layer_1" xmlns="http://www.w3.org/2000/svg" xmlns:xlink="http://www.w3.org/1999/xlink" x="0px" y="0px"
	 viewBox="0 0 64 64" style="enable-background:new 0 0 64 64;" xml:space="preserve">
<style type="text/css">
	.st0{fill:#DB8E11;}
	.st1{fill:#212A41;}
	.st2{fill:#F9AC2F;}
	.st3{fill:#FFCA4D;}
	.st4{fill:#B7C0D7;}
	.st5{fill:#99A2B9;}
	.st6{fill:#B51040;}
	.st7{fill:#D32E5E;}
	.st8{fill:#F14C7C;}
	.st9{fill:#0079A8;}
	.st10{fill:#1E97C6;}
	.st11{fill:#BED38E;}
	.st12{fill:#A0B570;}
	.st13{fill:#DCF1AC;}
	.st14{fill:#D5DEF5;}
	.st15{fill:#4E4B51;}
	.st16{fill:#6C696F;}
	.st17{fill:#848483;}
	.st18{fill:#A2A2A1;}
	.st19{fill:#7B849B;}
	.st20{fill:#8A878D;}
	.st21{fill:#C0C0BF;}
	.st22{fill:#005B8A;}
	.st23{fill:#970022;}
	.st24{fill:#1A237E;}
	.st25{fill:#BD7000;}
	.st26{fill:#003D6C;}
	.st27{fill:#666665;}
	.st28{fill:#195190;}
</style>
<g id="Astronaut_Spacesuit">
	<g>
		<path class="st6" d="M40.5,63.75h-40v-25c0-5.523,4.477-10,10-10h20c5.523,0,10,4.477,10,10V63.75z"/>
		<path class="st1" d="M40.5,64.25h-40c-0.276,0-0.5-0.224-0.5-0.5v-25c0-5.79,4.71-10.5,10.5-10.5h20c5.79,0,10.5,4.71,10.5,10.5
			v25C41,64.026,40.776,64.25,40.5,64.25z M1,63.25h39v-24.5c0-5.238-4.262-9.5-9.5-9.5h-20c-5.238,0-9.5,4.262-9.5,9.5V63.25z"/>
	</g>
	<g>
		<path class="st7" d="M2.5,62.25c-0.276,0-0.5-0.224-0.5-0.5v-23c0-4.687,3.813-8.5,8.5-8.5c0.276,0,0.5,0.224,0.5,0.5
			s-0.224,0.5-0.5,0.5c-4.136,0-7.5,3.364-7.5,7.5v23C3,62.026,2.776,62.25,2.5,62.25z"/>
	</g>
	<g>
		<path class="st7" d="M50.5,63.75h-40v-25c0-5.523,4.477-10,10-10h20c5.523,0,10,4.477,10,10V63.75z"/>
		<path class="st1" d="M50.5,64.25h-40c-0.276,0-0.5-0.224-0.5-0.5v-25c0-5.79,4.71-10.5,10.5-10.5h20c5.79,0,10.5,4.71,10.5,10.5
			v25C51,64.026,50.776,64.25,50.5,64.25z M11,63.25h39v-24.5c0-5.238-4.262-9.5-9.5-9.5h-20c-5.238,0-9.5,4.262-9.5,9.5V63.25z"/>
	</g>
	<g>
		<path class="st8" d="M12.5,62.25c-0.276,0-0.5-0.224-0.5-0.5v-23c0-4.687,3.813-8.5,8.5-8.5c0.276,0,0.5,0.224,0.5,0.5
			s-0.224,0.5-0.5,0.5c-4.136,0-7.5,3.364-7.5,7.5v23C13,62.026,12.776,62.25,12.5,62.25z"/>
	</g>
	<g>
		<path class="st5" d="M41,42.75H22c-6.904,0-12.5,5.596-12.5,12.5v8.5h44v-8.5C53.5,48.346,47.904,42.75,41,42.75z"/>
		<path class="st1" d="M53.5,64.25h-44c-0.276,0-0.5-0.224-0.5-0.5v-8.5c0-7.168,5.832-13,13-13h19c7.168,0,13,5.832,13,13v8.5
			C54,64.026,53.776,64.25,53.5,64.25z M10,63.25h43v-8c0-6.617-5.383-12-12-12H22c-6.617,0-12,5.383-12,12V63.25z"/>
	</g>
	<g>
		<path class="st4" d="M40.5,0.75h-8c-8.837,0-16,7.163-16,16v10c0,5.523,4.477,10,10,10h20c5.523,0,10-4.477,10-10v-10
			C56.5,7.913,49.337,0.75,40.5,0.75z"/>
		<path class="st1" d="M46.5,37.25h-20c-5.79,0-10.5-4.71-10.5-10.5v-10c0-9.098,7.402-16.5,16.5-16.5h8
			c9.098,0,16.5,7.402,16.5,16.5v10C57,32.54,52.29,37.25,46.5,37.25z M32.5,1.25c-8.547,0-15.5,6.953-15.5,15.5v10
			c0,5.238,4.262,9.5,9.5,9.5h20c5.238,0,9.5-4.262,9.5-9.5v-10c0-8.547-6.953-15.5-15.5-15.5H32.5z"/>
	</g>
	<g>
		<path class="st14" d="M26.5,35.25c-4.687,0-8.5-3.813-8.5-8.5v-10c0-7.995,6.505-14.5,14.5-14.5c0.276,0,0.5,0.224,0.5,0.5
			s-0.224,0.5-0.5,0.5c-7.444,0-13.5,6.056-13.5,13.5v10c0,4.136,3.364,7.5,7.5,7.5c0.276,0,0.5,0.224,0.5,0.5
			S26.776,35.25,26.5,35.25z"/>
	</g>
	<g>
		<path class="st5" d="M46.5,35.25c-0.276,0-0.5-0.224-0.5-0.5s0.224-0.5,0.5-0.5c4.136,0,7.5-3.364,7.5-7.5v-10
			c0-7.444-6.056-13.5-13.5-13.5c-0.276,0-0.5-0.224-0.5-0.5s0.224-0.5,0.5-0.5c7.995,0,14.5,6.505,14.5,14.5v10
			C55,31.437,51.187,35.25,46.5,35.25z"/>
	</g>
	<g>
		<path class="st4" d="M51,42.75H32c-6.904,0-12.5,5.596-12.5,12.5v8.5h44v-8.5C63.5,48.346,57.904,42.75,51,42.75z"/>
		<path class="st1" d="M63.5,64.25h-44c-0.276,0-0.5-0.224-0.5-0.5v-8.5c0-7.168,5.832-13,13-13h19c7.168,0,13,5.832,13,13v8.5
			C64,64.026,63.776,64.25,63.5,64.25z M20,63.25h43v-8c0-6.617-5.383-12-12-12H32c-6.617,0-12,5.383-12,12V63.25z"/>
	</g>
	<g>
		<path class="st14" d="M21.5,62.25c-0.276,0-0.5-0.224-0.5-0.5v-6.5c0-6.065,4.935-11,11-11c0.276,0,0.5,0.224,0.5,0.5
			s-0.224,0.5-0.5,0.5c-5.514,0-10,4.486-10,10v6.5C22,62.026,21.776,62.25,21.5,62.25z"/>
	</g>
	<g>
		<path class="st5" d="M61.5,62.25c-0.276,0-0.5-0.224-0.5-0.5v-6.5c0-5.514-4.486-10-10-10c-0.276,0-0.5-0.224-0.5-0.5
			s0.224-0.5,0.5-0.5c6.065,0,11,4.935,11,11v6.5C62,62.026,61.776,62.25,61.5,62.25z"/>
	</g>
	<g>
		<path class="st4" d="M11.5,62.25c-0.276,0-0.5-0.224-0.5-0.5v-6.5c0-6.065,4.935-11,11-11c0.276,0,0.5,0.224,0.5,0.5
			s-0.224,0.5-0.5,0.5c-5.514,0-10,4.486-10,10v6.5C12,62.026,11.776,62.25,11.5,62.25z"/>
	</g>
	<g>
		<path class="st9" d="M51,28.75H35c-4.142,0-7.5-3.358-7.5-7.5v-3c0-4.142,3.358-7.5,7.5-7.5h16c4.142,0,7.5,3.358,7.5,7.5v3
			C58.5,25.392,55.142,28.75,51,28.75z"/>
		<path class="st1" d="M51,29.25H35c-4.411,0-8-3.589-8-8v-3c0-4.411,3.589-8,8-8h16c4.411,0,8,3.589,8,8v3
			C59,25.661,55.411,29.25,51,29.25z M35,11.25c-3.86,0-7,3.14-7,7v3c0,3.86,3.14,7,7,7h16c3.86,0,7-3.14,7-7v-3c0-3.86-3.14-7-7-7
			H35z"/>
	</g>
	<g>
		<path class="st10" d="M35,27.25c-3.309,0-6-2.691-6-6v-3c0-3.309,2.691-6,6-6c0.276,0,0.5,0.224,0.5,0.5s-0.224,0.5-0.5,0.5
			c-2.757,0-5,2.243-5,5v3c0,2.757,2.243,5,5,5c0.276,0,0.5,0.224,0.5,0.5S35.276,27.25,35,27.25z"/>
	</g>
	<g>
		<path class="st22" d="M51,27.25c-0.276,0-0.5-0.224-0.5-0.5s0.224-0.5,0.5-0.5c2.757,0,5-2.243,5-5v-3c0-2.757-2.243-5-5-5
			c-0.276,0-0.5-0.224-0.5-0.5s0.224-0.5,0.5-0.5c3.309,0,6,2.691,6,6v3C57,24.559,54.309,27.25,51,27.25z"/>
	</g>
	<g>
		<path class="st4" d="M48,63.75H35c-1.381,0-2.5-1.119-2.5-2.5v-12c0-1.381,1.119-2.5,2.5-2.5h13c1.381,0,2.5,1.119,2.5,2.5v12
			C50.5,62.631,49.381,63.75,48,63.75z"/>
		<path class="st1" d="M48,64.25H35c-1.654,0-3-1.346-3-3v-12c0-1.654,1.346-3,3-3h13c1.654,0,3,1.346,3,3v12
			C51,62.904,49.654,64.25,48,64.25z M35,47.25c-1.103,0-2,0.897-2,2v12c0,1.103,0.897,2,2,2h13c1.103,0,2-0.897,2-2v-12
			c0-1.103-0.897-2-2-2H35z"/>
	</g>
	<g>
		<path class="st18" d="M21,25.75h-3.5v-12H21c1.381,0,2.5,1.119,2.5,2.5v7C23.5,24.631,22.381,25.75,21,25.75z"/>
		<path class="st1" d="M21,26.25h-3.5c-0.276,0-0.5-0.224-0.5-0.5v-12c0-0.276,0.224-0.5,0.5-0.5H21c1.654,0,3,1.346,3,3v7
			C24,24.904,22.654,26.25,21,26.25z M18,25.25h3c1.103,0,2-0.897,2-2v-7c0-1.103-0.897-2-2-2h-3V25.25z"/>
	</g>
	<g>
		<path class="st17" d="M18,25.75h-1c-1.381,0-2.5-1.119-2.5-2.5v-7c0-1.381,1.119-2.5,2.5-2.5h1c1.381,0,2.5,1.119,2.5,2.5v7
			C20.5,24.631,19.381,25.75,18,25.75z"/>
		<path class="st1" d="M18,26.25h-1c-1.654,0-3-1.346-3-3v-7c0-1.654,1.346-3,3-3h1c1.654,0,3,1.346,3,3v7
			C21,24.904,19.654,26.25,18,26.25z M17,14.25c-1.103,0-2,0.897-2,2v7c0,1.103,0.897,2,2,2h1c1.103,0,2-0.897,2-2v-7
			c0-1.103-0.897-2-2-2H17z"/>
	</g>
	<g>
		<rect x="35.5" y="49.75" class="st2" width="4" height="4"/>
		<path class="st1" d="M39.5,54.25h-4c-0.276,0-0.5-0.224-0.5-0.5v-4c0-0.276,0.224-0.5,0.5-0.5h4c0.276,0,0.5,0.224,0.5,0.5v4
			C40,54.026,39.776,54.25,39.5,54.25z M36,53.25h3v-3h-3V53.25z"/>
	</g>
	<g>
		<rect x="39.5" y="49.75" class="st18" width="4" height="4"/>
		<path class="st1" d="M43.5,54.25h-4c-0.276,0-0.5-0.224-0.5-0.5v-4c0-0.276,0.224-0.5,0.5-0.5h4c0.276,0,0.5,0.224,0.5,0.5v4
			C44,54.026,43.776,54.25,43.5,54.25z M40,53.25h3v-3h-3V53.25z"/>
	</g>
	<g>
		<rect x="43.5" y="49.75" class="st2" width="4" height="4"/>
		<path class="st1" d="M47.5,54.25h-4c-0.276,0-0.5-0.224-0.5-0.5v-4c0-0.276,0.224-0.5,0.5-0.5h4c0.276,0,0.5,0.224,0.5,0.5v4
			C48,54.026,47.776,54.25,47.5,54.25z M44,53.25h3v-3h-3V53.25z"/>
	</g>
	<g>
		<rect x="35.5" y="53.75" class="st4" width="12" height="4"/>
		<path class="st1" d="M47.5,58.25h-12c-0.276,0-0.5-0.224-0.5-0.5v-4c0-0.276,0.224-0.5,0.5-0.5h12c0.276,0,0.5,0.224,0.5,0.5v4
			C48,58.026,47.776,58.25,47.5,58.25z M36,57.25h11v-3H36V57.25z"/>
	</g>
	<g>
		<g>
			<path class="st2" d="M50,42.75H23c-1.381,0-2.5-1.119-2.5-2.5v-1c0-1.381,1.119-2.5,2.5-2.5h27c1.381,0,2.5,1.119,2.5,2.5v1
				C52.5,41.631,51.381,42.75,50,42.75z"/>
			<path class="st1" d="M50,43.25H23c-1.654,0-3-1.346-3-3v-1c0-1.654,1.346-3,3-3h27c1.654,0,3,1.346,3,3v1
				C53,41.904,51.654,43.25,50,43.25z M23,37.25c-1.103,0-2,0.897-2,2v1c0,1.103,0.897,2,2,2h27c1.103,0,2-0.897,2-2v-1
				c0-1.103-0.897-2-2-2H23z"/>
		</g>
		<g>
			<path class="st1" d="M24,43.25c-0.276,0-0.5-0.224-0.5-0.5v-6c0-0.276,0.224-0.5,0.5-0.5s0.5,0.224,0.5,0.5v6
				C24.5,43.026,24.276,43.25,24,43.25z"/>
		</g>
		<g>
			<path class="st1" d="M29,43.25c-0.276,0-0.5-0.224-0.5-0.5v-6c0-0.276,0.224-0.5,0.5-0.5s0.5,0.224,0.5,0.5v6
				C29.5,43.026,29.276,43.25,29,43.25z"/>
		</g>
		<g>
			<path class="st1" d="M34,43.25c-0.276,0-0.5-0.224-0.5-0.5v-6c0-0.276,0.224-0.5,0.5-0.5s0.5,0.224,0.5,0.5v6
				C34.5,43.026,34.276,43.25,34,43.25z"/>
		</g>
		<g>
			<path class="st1" d="M39,43.25c-0.276,0-0.5-0.224-0.5-0.5v-6c0-0.276,0.224-0.5,0.5-0.5s0.5,0.224,0.5,0.5v6
				C39.5,43.026,39.276,43.25,39,43.25z"/>
		</g>
		<g>
			<path class="st1" d="M44,43.25c-0.276,0-0.5-0.224-0.5-0.5v-6c0-0.276,0.224-0.5,0.5-0.5s0.5,0.224,0.5,0.5v6
				C44.5,43.026,44.276,43.25,44,43.25z"/>
		</g>
		<g>
			<path class="st1" d="M49,43.25c-0.276,0-0.5-0.224-0.5-0.5v-6c0-0.276,0.224-0.5,0.5-0.5s0.5,0.224,0.5,0.5v6
				C49.5,43.026,49.276,43.25,49,43.25z"/>
		</g>
	</g>
</g>
</svg>
