<?xml version="1.0" encoding="utf-8"?>
<!-- Generator: Adobe Illustrator 21.1.0, SVG Export Plug-In . SVG Version: 6.00 Build 0)  -->
<svg version="1.1" id="Layer_1" xmlns="http://www.w3.org/2000/svg" xmlns:xlink="http://www.w3.org/1999/xlink" x="0px" y="0px"
	 viewBox="0 0 64 64" style="enable-background:new 0 0 64 64;" xml:space="preserve">
<style type="text/css">
	.st0{fill:#DB8E11;}
	.st1{fill:#212A41;}
	.st2{fill:#F9AC2F;}
	.st3{fill:#FFCA4D;}
	.st4{fill:#B7C0D7;}
	.st5{fill:#99A2B9;}
	.st6{fill:#B51040;}
	.st7{fill:#D32E5E;}
	.st8{fill:#F14C7C;}
	.st9{fill:#0079A8;}
	.st10{fill:#1E97C6;}
	.st11{fill:#BED38E;}
	.st12{fill:#A0B570;}
	.st13{fill:#DCF1AC;}
	.st14{fill:#D5DEF5;}
	.st15{fill:#4E4B51;}
	.st16{fill:#6C696F;}
	.st17{fill:#848483;}
	.st18{fill:#A2A2A1;}
	.st19{fill:#7B849B;}
	.st20{fill:#8A878D;}
	.st21{fill:#C0C0BF;}
	.st22{fill:#005B8A;}
	.st23{fill:#970022;}
	.st24{fill:#1A237E;}
	.st25{fill:#BD7000;}
	.st26{fill:#003D6C;}
	.st27{fill:#666665;}
	.st28{fill:#195190;}
</style>
<g id="Bigbang">
	<g>
		<path class="st2" d="M32.345,45h-0.69c-3.881,0-7.542-1.803-9.908-4.879L15.5,32l6.247-8.121C24.113,20.802,27.774,19,31.655,19
			h0.69c3.881,0,7.542,1.803,9.908,4.879L48.5,32l-6.247,8.121C39.887,43.197,36.226,45,32.345,45z"/>
		<path class="st1" d="M32.345,45.5h-0.69c-4.008,0-7.86-1.897-10.304-5.074l-6.247-8.121c-0.138-0.18-0.138-0.43,0-0.609
			l6.247-8.122c2.444-3.177,6.296-5.074,10.304-5.074h0.69c4.008,0,7.86,1.896,10.304,5.074l6.247,8.122
			c0.138,0.18,0.138,0.43,0,0.609l-6.247,8.121C40.205,43.603,36.354,45.5,32.345,45.5z M16.131,32l6.013,7.816
			c2.256,2.933,5.812,4.684,9.511,4.684h0.69c3.7,0,7.255-1.751,9.511-4.684L47.869,32l-6.013-7.817
			c-2.256-2.932-5.812-4.683-9.511-4.683h-0.69c-3.7,0-7.256,1.751-9.511,4.683L16.131,32z"/>
	</g>
	<g>
		<path class="st3" d="M18.023,32.5c-0.106,0-0.213-0.034-0.304-0.104c-0.219-0.168-0.26-0.482-0.092-0.701l5.309-6.902
			c2.068-2.688,5.327-4.293,8.719-4.293c0.276,0,0.5,0.224,0.5,0.5s-0.224,0.5-0.5,0.5c-3.083,0-6.047,1.459-7.926,3.902
			l-5.309,6.902C18.321,32.433,18.173,32.5,18.023,32.5z"/>
	</g>
	<g>
		<path class="st0" d="M32.345,43.5c-0.276,0-0.5-0.224-0.5-0.5s0.224-0.5,0.5-0.5c3.083,0,6.046-1.459,7.927-3.903l5.309-6.901
			c0.169-0.22,0.482-0.26,0.701-0.092s0.26,0.482,0.092,0.701l-5.309,6.902C38.995,41.895,35.735,43.5,32.345,43.5z"/>
	</g>
	<g>
		<circle class="st18" cx="32" cy="32" r="8"/>
		<path class="st1" d="M32,40.5c-4.687,0-8.5-3.813-8.5-8.5s3.813-8.5,8.5-8.5c4.687,0,8.5,3.813,8.5,8.5S36.687,40.5,32,40.5z
			 M32,24.5c-4.136,0-7.5,3.364-7.5,7.5s3.364,7.5,7.5,7.5s7.5-3.364,7.5-7.5S36.136,24.5,32,24.5z"/>
	</g>
	<g>
		<path class="st17" d="M29,32c0-3.544,2.307-6.546,5.5-7.596C33.713,24.145,32.874,24,32,24c-4.418,0-8,3.582-8,8s3.582,8,8,8
			c0.874,0,1.713-0.145,2.5-0.404C31.307,38.545,29,35.544,29,32z"/>
		<path class="st1" d="M32,40.5c-4.687,0-8.5-3.813-8.5-8.5s3.813-8.5,8.5-8.5c0.897,0,1.791,0.144,2.656,0.429
			C34.861,23.996,35,24.188,35,24.404s-0.139,0.408-0.344,0.475C31.572,25.893,29.5,28.755,29.5,32c0,3.245,2.072,6.106,5.156,7.121
			C34.861,39.188,35,39.38,35,39.596s-0.139,0.407-0.344,0.475C33.791,40.355,32.897,40.5,32,40.5z M32,24.5
			c-4.136,0-7.5,3.364-7.5,7.5s3.364,7.5,7.5,7.5c0.301,0,0.602-0.019,0.901-0.055C30.218,37.973,28.5,35.145,28.5,32
			s1.717-5.973,4.401-7.445C32.602,24.519,32.301,24.5,32,24.5z"/>
	</g>
	<g>
		<path class="st18" d="M28.09,37.047c-0.116,0-0.232-0.04-0.326-0.121C26.325,35.688,25.5,33.892,25.5,32
			c0-1.892,0.825-3.688,2.264-4.927c0.208-0.18,0.523-0.157,0.705,0.053c0.18,0.209,0.157,0.525-0.053,0.705
			C27.199,28.88,26.5,30.399,26.5,32s0.699,3.12,1.917,4.168c0.209,0.18,0.233,0.496,0.053,0.705
			C28.37,36.988,28.23,37.047,28.09,37.047z"/>
	</g>
	<g>
		<path class="st1" d="M32,11.5c-0.276,0-0.5-0.224-0.5-0.5V2c0-0.276,0.224-0.5,0.5-0.5s0.5,0.224,0.5,0.5v9
			C32.5,11.276,32.276,11.5,32,11.5z"/>
	</g>
	<g>
		<path class="st1" d="M32,15.5c-0.276,0-0.5-0.224-0.5-0.5v-2c0-0.276,0.224-0.5,0.5-0.5s0.5,0.224,0.5,0.5v2
			C32.5,15.276,32.276,15.5,32,15.5z"/>
	</g>
	<g>
		<path class="st1" d="M32,62.5c-0.276,0-0.5-0.224-0.5-0.5v-9c0-0.276,0.224-0.5,0.5-0.5s0.5,0.224,0.5,0.5v9
			C32.5,62.276,32.276,62.5,32,62.5z"/>
	</g>
	<g>
		<path class="st1" d="M32,51.5c-0.276,0-0.5-0.224-0.5-0.5v-2c0-0.276,0.224-0.5,0.5-0.5s0.5,0.224,0.5,0.5v2
			C32.5,51.276,32.276,51.5,32,51.5z"/>
	</g>
	<g>
		<path class="st1" d="M62,32.5h-9c-0.276,0-0.5-0.224-0.5-0.5s0.224-0.5,0.5-0.5h9c0.276,0,0.5,0.224,0.5,0.5S62.276,32.5,62,32.5z
			"/>
	</g>
	<g>
		<path class="st1" d="M51,32.5h-2c-0.276,0-0.5-0.224-0.5-0.5s0.224-0.5,0.5-0.5h2c0.276,0,0.5,0.224,0.5,0.5S51.276,32.5,51,32.5z
			"/>
	</g>
	<g>
		<path class="st1" d="M11,32.5H2c-0.276,0-0.5-0.224-0.5-0.5s0.224-0.5,0.5-0.5h9c0.276,0,0.5,0.224,0.5,0.5S11.276,32.5,11,32.5z"
			/>
	</g>
	<g>
		<path class="st1" d="M15,32.5h-2c-0.276,0-0.5-0.224-0.5-0.5s0.224-0.5,0.5-0.5h2c0.276,0,0.5,0.224,0.5,0.5S15.276,32.5,15,32.5z
			"/>
	</g>
	<g>
		<path class="st1" d="M19.979,20.479c-0.128,0-0.256-0.049-0.354-0.146l-2.475-2.475c-0.195-0.195-0.195-0.512,0-0.707
			s0.512-0.195,0.707,0l2.475,2.475c0.195,0.195,0.195,0.512,0,0.707C20.235,20.43,20.107,20.479,19.979,20.479z"/>
	</g>
	<g>
		<path class="st1" d="M16.09,16.59c-0.128,0-0.256-0.049-0.354-0.146l-1.414-1.414c-0.195-0.195-0.195-0.512,0-0.707
			s0.512-0.195,0.707,0l1.414,1.414c0.195,0.195,0.195,0.512,0,0.707C16.346,16.541,16.218,16.59,16.09,16.59z"/>
	</g>
	<g>
		<path class="st1" d="M13.262,13.761c-0.128,0-0.256-0.049-0.354-0.146l-2.475-2.475c-0.195-0.195-0.195-0.512,0-0.707
			s0.512-0.195,0.707,0l2.475,2.475c0.195,0.195,0.195,0.512,0,0.707C13.518,13.712,13.39,13.761,13.262,13.761z"/>
	</g>
	<g>
		<path class="st1" d="M53.213,53.713c-0.128,0-0.256-0.049-0.354-0.146l-2.475-2.475c-0.195-0.195-0.195-0.512,0-0.707
			s0.512-0.195,0.707,0l2.475,2.475c0.195,0.195,0.195,0.512,0,0.707C53.469,53.664,53.341,53.713,53.213,53.713z"/>
	</g>
	<g>
		<path class="st1" d="M49.324,49.824c-0.128,0-0.256-0.049-0.354-0.146l-1.414-1.414c-0.195-0.195-0.195-0.512,0-0.707
			s0.512-0.195,0.707,0l1.414,1.414c0.195,0.195,0.195,0.512,0,0.707C49.58,49.775,49.452,49.824,49.324,49.824z"/>
	</g>
	<g>
		<path class="st1" d="M46.495,46.995c-0.128,0-0.256-0.049-0.354-0.146l-2.475-2.475c-0.195-0.195-0.195-0.512,0-0.707
			s0.512-0.195,0.707,0l2.475,2.475c0.195,0.195,0.195,0.512,0,0.707C46.751,46.946,46.623,46.995,46.495,46.995z"/>
	</g>
	<g>
		<path class="st1" d="M44.021,20.479c-0.128,0-0.256-0.049-0.354-0.146c-0.195-0.195-0.195-0.512,0-0.707l2.476-2.475
			c0.195-0.195,0.512-0.195,0.707,0s0.195,0.512,0,0.707l-2.476,2.475C44.276,20.43,44.148,20.479,44.021,20.479z"/>
	</g>
	<g>
		<path class="st1" d="M47.91,16.59c-0.128,0-0.256-0.049-0.354-0.146c-0.195-0.195-0.195-0.512,0-0.707l1.414-1.414
			c0.195-0.195,0.512-0.195,0.707,0s0.195,0.512,0,0.707l-1.414,1.414C48.166,16.541,48.038,16.59,47.91,16.59z"/>
	</g>
	<g>
		<path class="st1" d="M50.738,13.761c-0.128,0-0.256-0.049-0.354-0.146c-0.195-0.195-0.195-0.512,0-0.707l2.475-2.475
			c0.195-0.195,0.512-0.195,0.707,0s0.195,0.512,0,0.707l-2.475,2.475C50.994,13.712,50.866,13.761,50.738,13.761z"/>
	</g>
	<g>
		<path class="st1" d="M10.787,53.713c-0.128,0-0.256-0.049-0.354-0.146c-0.195-0.195-0.195-0.512,0-0.707l2.475-2.475
			c0.195-0.195,0.512-0.195,0.707,0s0.195,0.512,0,0.707l-2.475,2.475C11.042,53.664,10.915,53.713,10.787,53.713z"/>
	</g>
	<g>
		<path class="st1" d="M14.676,49.824c-0.128,0-0.256-0.049-0.354-0.146c-0.195-0.195-0.195-0.512,0-0.707l1.415-1.414
			c0.195-0.195,0.512-0.195,0.707,0s0.195,0.512,0,0.707l-1.415,1.414C14.932,49.775,14.804,49.824,14.676,49.824z"/>
	</g>
	<g>
		<path class="st1" d="M17.504,46.995c-0.128,0-0.256-0.049-0.354-0.146c-0.195-0.195-0.195-0.512,0-0.707l2.475-2.475
			c0.195-0.195,0.512-0.195,0.707,0s0.195,0.512,0,0.707l-2.475,2.475C17.76,46.946,17.632,46.995,17.504,46.995z"/>
	</g>
</g>
</svg>
