<?xml version="1.0" encoding="utf-8"?>
<!-- Generator: Adobe Illustrator 21.1.0, SVG Export Plug-In . SVG Version: 6.00 Build 0)  -->
<svg version="1.1" id="Layer_1" xmlns="http://www.w3.org/2000/svg" xmlns:xlink="http://www.w3.org/1999/xlink" x="0px" y="0px"
	 viewBox="0 0 64 64" style="enable-background:new 0 0 64 64;" xml:space="preserve">
<style type="text/css">
	.st0{fill:#DB8E11;}
	.st1{fill:#212A41;}
	.st2{fill:#F9AC2F;}
	.st3{fill:#FFCA4D;}
	.st4{fill:#B7C0D7;}
	.st5{fill:#99A2B9;}
	.st6{fill:#B51040;}
	.st7{fill:#D32E5E;}
	.st8{fill:#F14C7C;}
	.st9{fill:#0079A8;}
	.st10{fill:#1E97C6;}
	.st11{fill:#BED38E;}
	.st12{fill:#A0B570;}
	.st13{fill:#DCF1AC;}
	.st14{fill:#D5DEF5;}
	.st15{fill:#4E4B51;}
	.st16{fill:#6C696F;}
	.st17{fill:#848483;}
	.st18{fill:#A2A2A1;}
	.st19{fill:#7B849B;}
	.st20{fill:#8A878D;}
	.st21{fill:#C0C0BF;}
	.st22{fill:#005B8A;}
	.st23{fill:#970022;}
	.st24{fill:#1A237E;}
	.st25{fill:#BD7000;}
	.st26{fill:#003D6C;}
	.st27{fill:#666665;}
	.st28{fill:#195190;}
</style>
<g id="Constellation">
	<g>
		<path class="st5" d="M53.501,63h-48c-1.381,0-2.5-1.119-2.5-2.5v-57c0-1.381,1.119-2.5,2.5-2.5h48c1.381,0,2.5,1.119,2.5,2.5v57
			C56.001,61.881,54.881,63,53.501,63z"/>
		<path class="st1" d="M53.501,63.5h-48c-1.654,0-3-1.346-3-3v-57c0-1.654,1.346-3,3-3h48c1.654,0,3,1.346,3,3v57
			C56.501,62.154,55.155,63.5,53.501,63.5z M5.501,1.5c-1.103,0-2,0.897-2,2v57c0,1.103,0.897,2,2,2h48c1.103,0,2-0.897,2-2v-57
			c0-1.103-0.897-2-2-2H5.501z"/>
	</g>
	<g>
		<path class="st9" d="M58.501,63h-48c-1.381,0-2.5-1.119-2.5-2.5v-57c0-1.381,1.119-2.5,2.5-2.5h48c1.381,0,2.5,1.119,2.5,2.5v57
			C61.001,61.881,59.881,63,58.501,63z"/>
		<path class="st1" d="M58.501,63.5h-48c-1.654,0-3-1.346-3-3v-57c0-1.654,1.346-3,3-3h48c1.654,0,3,1.346,3,3v57
			C61.501,62.154,60.155,63.5,58.501,63.5z M10.501,1.5c-1.103,0-2,0.897-2,2v57c0,1.103,0.897,2,2,2h48c1.103,0,2-0.897,2-2v-57
			c0-1.103-0.897-2-2-2H10.501z"/>
	</g>
	<g>
		<path class="st10" d="M10.001,61c-0.276,0-0.5-0.224-0.5-0.5v-57c0-0.276,0.224-0.5,0.5-0.5s0.5,0.224,0.5,0.5v57
			C10.501,60.776,10.277,61,10.001,61z"/>
	</g>
	<g>
		<path class="st22" d="M59.001,61c-0.276,0-0.5-0.224-0.5-0.5v-57c0-0.276,0.224-0.5,0.5-0.5s0.5,0.224,0.5,0.5v57
			C59.501,60.776,59.277,61,59.001,61z"/>
	</g>
	<g>
		<polygon class="st5" points="46.501,7 22.501,7 17.501,1 51.501,1 		"/>
		<path class="st1" d="M46.501,7.5h-24c-0.148,0-0.289-0.066-0.384-0.18l-5-6c-0.125-0.149-0.151-0.357-0.069-0.532
			C17.131,0.612,17.307,0.5,17.501,0.5h34c0.194,0,0.37,0.112,0.453,0.288c0.082,0.175,0.056,0.383-0.069,0.532l-5,6
			C46.79,7.434,46.649,7.5,46.501,7.5z M22.735,6.5h23.531l4.167-5H18.568L22.735,6.5z"/>
	</g>
	<g>
		<path class="st1" d="M18.251,52c-0.123,0-0.244-0.045-0.338-0.131c-0.134-0.123-0.19-0.308-0.148-0.484l5-21
			c0.04-0.168,0.164-0.304,0.328-0.358l15-5c0.172-0.06,0.362-0.017,0.496,0.105s0.19,0.308,0.148,0.484l-5,21
			c-0.04,0.168-0.164,0.304-0.328,0.358l-15,5C18.357,51.992,18.304,52,18.251,52z M23.673,30.886l-4.728,19.855l13.884-4.627
			l4.728-19.855L23.673,30.886z M33.251,46.5h0.01H33.251z"/>
	</g>
	<g>
		<circle class="st2" cx="23.251" cy="30" r="2"/>
		<path class="st1" d="M23.251,32.5c-1.379,0-2.5-1.122-2.5-2.5s1.121-2.5,2.5-2.5s2.5,1.122,2.5,2.5S24.63,32.5,23.251,32.5z
			 M23.251,28.5c-0.827,0-1.5,0.673-1.5,1.5s0.673,1.5,1.5,1.5s1.5-0.673,1.5-1.5S24.078,28.5,23.251,28.5z"/>
	</g>
	<g>
		<circle class="st2" cx="18.251" cy="51.5" r="2.5"/>
		<path class="st1" d="M18.251,54.5c-1.654,0-3-1.346-3-3s1.346-3,3-3s3,1.346,3,3S19.905,54.5,18.251,54.5z M18.251,49.5
			c-1.103,0-2,0.897-2,2s0.897,2,2,2s2-0.897,2-2S19.354,49.5,18.251,49.5z"/>
	</g>
	<g>
		<path class="st1" d="M38.251,26c-0.148,0-0.295-0.066-0.394-0.192c-0.17-0.217-0.132-0.532,0.085-0.702l11.5-9
			c0.217-0.17,0.531-0.132,0.702,0.085c0.17,0.217,0.132,0.532-0.085,0.702l-11.5,9C38.468,25.965,38.359,26,38.251,26z"/>
	</g>
	<g>
		<circle class="st2" cx="49.751" cy="16.5" r="3.5"/>
		<path class="st1" d="M49.751,20.5c-2.206,0-4-1.794-4-4s1.794-4,4-4s4,1.794,4,4S51.957,20.5,49.751,20.5z M49.751,13.5
			c-1.654,0-3,1.346-3,3s1.346,3,3,3s3-1.346,3-3S51.405,13.5,49.751,13.5z"/>
	</g>
	<g>
		<circle class="st2" cx="38.251" cy="25.5" r="2"/>
		<path class="st1" d="M38.251,28c-1.379,0-2.5-1.122-2.5-2.5s1.121-2.5,2.5-2.5s2.5,1.122,2.5,2.5S39.63,28,38.251,28z M38.251,24
			c-0.827,0-1.5,0.673-1.5,1.5s0.673,1.5,1.5,1.5s1.5-0.673,1.5-1.5S39.078,24,38.251,24z"/>
	</g>
	<g>
		<circle class="st2" cx="33.251" cy="46.5" r="2.5"/>
		<path class="st1" d="M33.251,49.5c-1.654,0-3-1.346-3-3s1.346-3,3-3s3,1.346,3,3S34.905,49.5,33.251,49.5z M33.251,44.5
			c-1.103,0-2,0.897-2,2s0.897,2,2,2s2-0.897,2-2S34.354,44.5,33.251,44.5z"/>
	</g>
	<g>
		<rect x="44.001" y="49" class="st18" width="12" height="9"/>
		<path class="st1" d="M56.001,58.5h-12c-0.276,0-0.5-0.224-0.5-0.5v-9c0-0.276,0.224-0.5,0.5-0.5h12c0.276,0,0.5,0.224,0.5,0.5v9
			C56.501,58.276,56.277,58.5,56.001,58.5z M44.501,57.5h11v-8h-11V57.5z"/>
	</g>
	<g>
		<path class="st1" d="M51.501,52.5h-5c-0.276,0-0.5-0.224-0.5-0.5s0.224-0.5,0.5-0.5h5c0.276,0,0.5,0.224,0.5,0.5
			S51.777,52.5,51.501,52.5z"/>
	</g>
	<g>
		<path class="st1" d="M53.501,55.5h-7c-0.276,0-0.5-0.224-0.5-0.5s0.224-0.5,0.5-0.5h7c0.276,0,0.5,0.224,0.5,0.5
			S53.777,55.5,53.501,55.5z"/>
	</g>
</g>
</svg>
