<?xml version="1.0" encoding="utf-8"?>
<!-- Generator: Adobe Illustrator 21.1.0, SVG Export Plug-In . SVG Version: 6.00 Build 0)  -->
<svg version="1.1" id="Layer_1" xmlns="http://www.w3.org/2000/svg" xmlns:xlink="http://www.w3.org/1999/xlink" x="0px" y="0px"
	 viewBox="0 0 64 64" style="enable-background:new 0 0 64 64;" xml:space="preserve">
<style type="text/css">
	.st0{fill:#DB8E11;}
	.st1{fill:#212A41;}
	.st2{fill:#F9AC2F;}
	.st3{fill:#FFCA4D;}
	.st4{fill:#B7C0D7;}
	.st5{fill:#99A2B9;}
	.st6{fill:#B51040;}
	.st7{fill:#D32E5E;}
	.st8{fill:#F14C7C;}
	.st9{fill:#0079A8;}
	.st10{fill:#1E97C6;}
	.st11{fill:#BED38E;}
	.st12{fill:#A0B570;}
	.st13{fill:#DCF1AC;}
	.st14{fill:#D5DEF5;}
	.st15{fill:#4E4B51;}
	.st16{fill:#6C696F;}
	.st17{fill:#848483;}
	.st18{fill:#A2A2A1;}
	.st19{fill:#7B849B;}
	.st20{fill:#8A878D;}
	.st21{fill:#C0C0BF;}
	.st22{fill:#005B8A;}
	.st23{fill:#970022;}
	.st24{fill:#1A237E;}
	.st25{fill:#BD7000;}
	.st26{fill:#003D6C;}
	.st27{fill:#666665;}
	.st28{fill:#195190;}
</style>
<g id="Contact">
	<g>
		<path class="st1" d="M30.483,41.497c-1.591,0-3.207-0.306-4.766-0.952c-0.255-0.105-0.376-0.398-0.271-0.653
			c0.106-0.255,0.399-0.375,0.653-0.271c5.854,2.424,12.596-0.365,15.021-6.222c0.106-0.255,0.401-0.375,0.653-0.271
			c0.255,0.105,0.376,0.398,0.271,0.653C40.055,38.589,35.39,41.497,30.483,41.497z"/>
	</g>
	<g>
		<path class="st1" d="M30.5,38.505c-1.231,0-2.463-0.243-3.636-0.729c-0.255-0.105-0.376-0.398-0.271-0.653
			c0.105-0.254,0.398-0.375,0.653-0.271c2.099,0.87,4.409,0.869,6.506,0c2.098-0.869,3.731-2.502,4.6-4.6
			c0.106-0.255,0.398-0.376,0.653-0.271c0.255,0.105,0.376,0.398,0.271,0.653c-0.971,2.344-2.796,4.17-5.141,5.141
			C32.964,38.262,31.731,38.505,30.5,38.505z"/>
	</g>
	<g>
		<circle class="st7" cx="30.5" cy="29" r="6"/>
		<path class="st1" d="M30.5,35.5c-3.584,0-6.5-2.916-6.5-6.5s2.916-6.5,6.5-6.5S37,25.416,37,29S34.084,35.5,30.5,35.5z M30.5,23.5
			c-3.032,0-5.5,2.467-5.5,5.5s2.468,5.5,5.5,5.5S36,32.033,36,29S33.532,23.5,30.5,23.5z"/>
	</g>
	<g>
		<path class="st1" d="M19.416,24.909c-0.064,0-0.129-0.012-0.191-0.038c-0.255-0.105-0.376-0.398-0.271-0.653
			c2.637-6.365,9.963-9.401,16.328-6.763c0.255,0.105,0.376,0.398,0.271,0.653c-0.106,0.255-0.4,0.375-0.653,0.271
			c-5.854-2.424-12.596,0.365-15.021,6.222C19.798,24.793,19.612,24.909,19.416,24.909z"/>
	</g>
	<g>
		<path class="st1" d="M22.186,26.056c-0.063,0-0.129-0.012-0.191-0.038c-0.255-0.105-0.376-0.398-0.271-0.653
			c0.971-2.344,2.796-4.17,5.141-5.141c2.344-0.971,4.926-0.972,7.271,0c0.255,0.105,0.376,0.398,0.271,0.653
			c-0.106,0.255-0.396,0.377-0.653,0.271c-2.099-0.87-4.409-0.869-6.506,0c-2.098,0.869-3.731,2.502-4.6,4.6
			C22.567,25.939,22.382,26.056,22.186,26.056z"/>
	</g>
	<g>
		<path class="st11" d="M15.413,39.5L15.413,39.5c-0.276-0.781,0.134-1.638,0.915-1.913l3.454-1.219
			c1.814-0.64,3.358-1.878,4.377-3.51l2.351-3.762c0.439-0.703,1.365-0.916,2.067-0.477l0,0c0.703,0.439,0.917,1.365,0.477,2.067
			l-2.348,3.758c-1.381,2.21-3.471,3.886-5.928,4.753l-3.451,1.218C16.545,40.691,15.689,40.281,15.413,39.5z"/>
		<path class="st1" d="M16.826,41.001c-0.295,0-0.588-0.065-0.861-0.196c-0.482-0.231-0.846-0.635-1.023-1.14
			c-0.178-0.503-0.148-1.046,0.082-1.528s0.635-0.845,1.139-1.023l3.454-1.219c1.7-0.601,3.163-1.774,4.119-3.303l2.351-3.762
			c0.282-0.453,0.725-0.769,1.246-0.889c0.518-0.121,1.057-0.031,1.51,0.252c0.936,0.585,1.221,1.821,0.637,2.756l-2.349,3.759
			c-1.435,2.297-3.632,4.058-6.186,4.959l-3.451,1.218C17.275,40.963,17.051,41.001,16.826,41.001z M27.784,28.89
			c-0.076,0-0.152,0.008-0.228,0.026c-0.26,0.06-0.481,0.218-0.623,0.444l-2.351,3.762c-1.074,1.72-2.721,3.04-4.634,3.716
			l-3.455,1.219c-0.252,0.088-0.453,0.27-0.568,0.511c-0.115,0.241-0.13,0.512-0.041,0.764c0,0,0,0,0,0
			c0.089,0.252,0.271,0.454,0.512,0.569s0.512,0.13,0.765,0.041l3.451-1.218c2.341-0.826,4.354-2.44,5.67-4.546l2.349-3.758
			c0.292-0.467,0.148-1.086-0.318-1.378C28.151,28.942,27.97,28.89,27.784,28.89z"/>
	</g>
	<g>
		<path class="st11" d="M16.579,60.5h-2V52l1.263-2.106c1.127-1.878,1.606-4.073,1.364-6.249l-0.388-3.495
			c-0.152-1.372-0.865-2.62-1.969-3.448L12.579,35v-4h-4v4L6.31,36.702C5.205,37.53,4.493,38.778,4.34,40.15l-0.388,3.495
			c-0.242,2.176,0.237,4.372,1.364,6.249L6.579,52v8.5h-2c-1.657,0-3,1.343-3,3h6.622c0.502,0,0.927-0.373,0.992-0.871L10.579,52
			l1.386,10.629c0.065,0.498,0.489,0.871,0.992,0.871h6.622C19.579,61.843,18.236,60.5,16.579,60.5z"/>
		<path class="st1" d="M19.579,64h-6.622c-0.751,0-1.391-0.562-1.487-1.307l-0.891-6.828l-0.891,6.829
			C9.592,63.438,8.952,64,8.201,64H1.579c-0.276,0-0.5-0.224-0.5-0.5c0-1.93,1.57-3.5,3.5-3.5h1.5v-7.861l-1.192-1.987
			c-1.176-1.96-1.685-4.291-1.432-6.562l0.388-3.495C4.01,38.592,4.8,37.209,6.01,36.302l2.069-1.552V31c0-0.276,0.224-0.5,0.5-0.5
			h4c0.276,0,0.5,0.224,0.5,0.5v3.75l2.069,1.552c1.209,0.906,1.999,2.289,2.167,3.792l0.388,3.496
			c0.253,2.271-0.256,4.602-1.432,6.562l-1.192,1.987V60h1.5c1.93,0,3.5,1.57,3.5,3.5C20.079,63.776,19.855,64,19.579,64z
			 M10.579,51.5c0.251,0,0.463,0.187,0.496,0.436l1.387,10.629C12.494,62.813,12.707,63,12.957,63h6.072c-0.232-1.14-1.243-2-2.45-2
			h-2c-0.276,0-0.5-0.224-0.5-0.5V52c0-0.091,0.024-0.18,0.071-0.257l1.264-2.105c1.063-1.774,1.523-3.882,1.295-5.937l-0.388-3.495
			c-0.138-1.23-0.783-2.361-1.772-3.103l-2.27-1.702c-0.126-0.094-0.2-0.243-0.2-0.4v-3.5h-3V35c0,0.157-0.074,0.306-0.2,0.4
			l-2.27,1.702c-0.99,0.742-1.636,1.874-1.772,3.103L4.449,43.7c-0.229,2.055,0.231,4.163,1.295,5.937l1.264,2.105
			C7.055,51.82,7.079,51.909,7.079,52v8.5c0,0.276-0.224,0.5-0.5,0.5h-2c-1.207,0-2.218,0.86-2.45,2h6.072
			c0.25,0,0.463-0.187,0.495-0.435l1.387-10.63C10.116,51.687,10.328,51.5,10.579,51.5z"/>
	</g>
	<g>
		<path class="st12" d="M12.864,51.471c-0.088,0-0.177-0.023-0.257-0.071c-0.237-0.142-0.314-0.449-0.172-0.686l1.263-2.106
			c0.841-1.4,1.204-3.064,1.023-4.687l-0.389-3.495c-0.075-0.683-0.435-1.312-0.984-1.724L11.079,37
			c-0.221-0.166-0.266-0.479-0.101-0.7c0.167-0.222,0.48-0.264,0.7-0.1l2.27,1.702c0.771,0.577,1.272,1.457,1.379,2.413l0.389,3.495
			c0.204,1.839-0.208,3.726-1.16,5.312l-1.263,2.106C13.199,51.385,13.033,51.471,12.864,51.471z"/>
	</g>
	<g>
		<path class="st0" d="M29.24,29.618L29.24,29.618c-0.618-1.235-0.117-2.737,1.118-3.354l7.019-3.509l3.509-7.018
			c0.617-1.235,2.119-1.736,3.354-1.118l0,0c1.235,0.618,1.736,2.119,1.118,3.354l-3.882,7.764
			c-0.242,0.483-0.634,0.875-1.117,1.117l-7.765,3.883C31.359,31.354,29.858,30.853,29.24,29.618z"/>
		<path class="st1" d="M31.479,31.501c-0.319,0-0.641-0.051-0.952-0.155c-0.76-0.253-1.376-0.788-1.734-1.504
			c-0.739-1.479-0.138-3.285,1.342-4.025l6.869-3.435l3.435-6.87c0.358-0.717,0.975-1.251,1.734-1.504
			c0.76-0.254,1.574-0.196,2.291,0.163c1.479,0.74,2.081,2.545,1.342,4.025l-3.882,7.764c-0.289,0.577-0.766,1.053-1.341,1.341
			l-7.766,3.883C32.395,31.395,31.938,31.501,31.479,31.501z M43.124,14.853c-0.213,0-0.427,0.035-0.635,0.104
			c-0.507,0.169-0.917,0.525-1.156,1.003l-3.509,7.019c-0.049,0.097-0.127,0.175-0.224,0.224l-7.019,3.509
			c-0.986,0.493-1.388,1.697-0.895,2.683c0.238,0.478,0.649,0.834,1.156,1.003c0.506,0.168,1.049,0.13,1.526-0.108l7.766-3.883
			c0.384-0.192,0.701-0.509,0.894-0.894l3.882-7.763c0.493-0.987,0.092-2.19-0.895-2.684C43.734,14.924,43.431,14.853,43.124,14.853
			z"/>
	</g>
	<g>
		<circle class="st18" cx="48.5" cy="7" r="6.5"/>
		<path class="st1" d="M48.5,14c-3.859,0-7-3.14-7-7s3.141-7,7-7s7,3.14,7,7S52.359,14,48.5,14z M48.5,1c-3.309,0-6,2.691-6,6
			s2.691,6,6,6s6-2.691,6-6S51.809,1,48.5,1z"/>
	</g>
	<g>
		<path class="st21" d="M44,7.5c-0.276,0-0.5-0.224-0.5-0.5c0-2.757,2.243-5,5-5C48.776,2,49,2.224,49,2.5S48.776,3,48.5,3
			c-2.206,0-4,1.794-4,4C44.5,7.276,44.276,7.5,44,7.5z"/>
	</g>
	<g>
		<path class="st0" d="M57.5,33.5h-14l-1.725-17.251c-0.147-1.472,1.009-2.749,2.488-2.749h8.975c1.284,0,2.36,0.973,2.488,2.251
			L57.5,33.5z"/>
		<path class="st1" d="M57.5,34h-14c-0.257,0-0.472-0.195-0.497-0.45l-1.726-17.251c-0.084-0.842,0.193-1.685,0.761-2.312
			C42.606,13.359,43.417,13,44.263,13h8.975c1.548,0,2.832,1.162,2.985,2.702l1.774,17.749c0.015,0.141-0.031,0.281-0.126,0.385
			C57.776,33.94,57.642,34,57.5,34z M43.952,33h12.995l-1.719-17.199C55.125,14.774,54.27,14,53.237,14h-8.975
			c-0.572,0-1.099,0.233-1.483,0.658c-0.384,0.424-0.564,0.972-0.508,1.542L43.952,33z"/>
	</g>
	<g>
		<path class="st2" d="M45.309,32c-0.253,0-0.471-0.192-0.496-0.45L43.268,16.1c-0.028-0.275,0.173-0.52,0.447-0.547
			c0.265-0.025,0.52,0.173,0.547,0.448l1.545,15.45c0.028,0.275-0.173,0.52-0.447,0.547C45.343,31.999,45.325,32,45.309,32z"/>
	</g>
	<g>
		<path class="st11" d="M10.579,32L10.579,32c-3.194,0-5.94-2.264-6.55-5.399l-0.732-3.767C2.406,18.255,5.914,14,10.579,14h0
			c4.665,0,8.173,4.255,7.282,8.835l-0.732,3.767C16.519,29.736,13.773,32,10.579,32z"/>
		<path class="st1" d="M10.579,32.5c-3.426,0-6.387-2.441-7.041-5.804L2.806,22.93c-0.453-2.33,0.153-4.716,1.663-6.547
			c1.51-1.832,3.736-2.882,6.11-2.882s4.601,1.05,6.11,2.882c1.51,1.831,2.116,4.218,1.663,6.547l-0.732,3.767
			C16.966,30.059,14.005,32.5,10.579,32.5z M10.579,14.5c-2.074,0-4.02,0.918-5.339,2.518s-1.849,3.686-1.452,5.721l0.732,3.767
			c0.562,2.894,3.11,4.994,6.059,4.994s5.496-2.101,6.059-4.994l0.732-3.767c0.396-2.036-0.133-4.121-1.452-5.721
			S12.653,14.5,10.579,14.5z"/>
	</g>
	<g>
		<path class="st13" d="M6.397,18.472c-0.112,0-0.225-0.038-0.318-0.114c-0.213-0.176-0.243-0.491-0.067-0.704
			C7.14,16.285,8.805,15.5,10.579,15.5c0.276,0,0.5,0.224,0.5,0.5s-0.224,0.5-0.5,0.5c-1.475,0-2.858,0.652-3.796,1.79
			C6.685,18.41,6.541,18.472,6.397,18.472z"/>
	</g>
	<g>
		<path class="st12" d="M6.013,38.658L6.013,38.658c0.713,0.421,0.95,1.341,0.529,2.054L4.68,43.866
			c-0.978,1.657-1.365,3.597-1.097,5.502L4.2,53.761c0.115,0.821-0.456,1.579-1.277,1.695h0C2.103,55.571,1.344,55,1.229,54.179
			l-0.617-4.388c-0.363-2.58,0.161-5.208,1.486-7.451l1.861-3.152C4.38,38.474,5.3,38.237,6.013,38.658z"/>
		<path class="st1" d="M2.714,55.971c-0.98,0-1.839-0.724-1.98-1.721l-0.616-4.39c-0.377-2.681,0.173-5.442,1.55-7.774l1.861-3.152
			c0.271-0.46,0.706-0.787,1.224-0.92c0.518-0.133,1.056-0.056,1.516,0.215c0,0,0,0,0.001,0c0.948,0.561,1.265,1.79,0.704,2.739
			L5.111,44.12c-0.917,1.553-1.284,3.393-1.033,5.179l0.617,4.393c0.153,1.092-0.61,2.105-1.701,2.259
			C2.899,55.964,2.807,55.971,2.714,55.971z M5.252,38.949c-0.083,0-0.168,0.011-0.251,0.032c-0.259,0.066-0.476,0.23-0.611,0.46
			l-1.861,3.152c-1.263,2.138-1.767,4.669-1.421,7.127l0.616,4.389c0.077,0.545,0.586,0.927,1.131,0.851
			c0.546-0.077,0.928-0.584,0.851-1.13l-0.617-4.393c-0.282-2.009,0.131-4.079,1.162-5.826l1.861-3.153
			c0.28-0.475,0.122-1.089-0.352-1.37l0,0C5.604,38.997,5.429,38.949,5.252,38.949z"/>
	</g>
	<g>
		<path class="st9" d="M10.579,25.705l-2.99-0.598c-1.169-0.234-2.01-1.26-2.01-2.451v-1.95l2.99,0.598
			c1.169,0.234,2.01,1.26,2.01,2.451V25.705z"/>
		<path class="st1" d="M10.579,26.205c-0.032,0-0.065-0.003-0.098-0.01l-2.99-0.598c-1.397-0.28-2.412-1.517-2.412-2.942v-1.95
			c0-0.15,0.067-0.292,0.183-0.387c0.117-0.094,0.271-0.131,0.415-0.104l2.99,0.598c1.397,0.279,2.412,1.516,2.412,2.941v1.951
			c0,0.15-0.067,0.292-0.183,0.387C10.806,26.165,10.693,26.205,10.579,26.205z M6.079,21.314v1.34c0,0.95,0.676,1.775,1.607,1.961
			l2.393,0.479v-1.341c0-0.95-0.676-1.775-1.607-1.961L6.079,21.314z"/>
	</g>
	<g>
		<path class="st9" d="M12.579,25.705l2.99-0.598c1.169-0.234,2.01-1.26,2.01-2.451v-1.95l-2.99,0.598
			c-1.169,0.234-2.01,1.26-2.01,2.451V25.705z"/>
		<path class="st1" d="M12.579,26.205c-0.114,0-0.227-0.04-0.317-0.113c-0.115-0.095-0.183-0.237-0.183-0.387v-1.951
			c0-1.425,1.015-2.663,2.412-2.941l2.99-0.598c0.147-0.027,0.299,0.009,0.415,0.104c0.115,0.095,0.183,0.237,0.183,0.387v1.95
			c0,1.425-1.015,2.662-2.412,2.942l-2.99,0.598C12.645,26.201,12.611,26.205,12.579,26.205z M17.079,21.314l-2.393,0.479
			c-0.932,0.186-1.607,1.011-1.607,1.961v1.341l2.393-0.479c0.932-0.187,1.607-1.011,1.607-1.961V21.314z"/>
	</g>
	<g>
		<path class="st4" d="M45.5,58.5h-7c-2.761,0-5,2.239-5,5v0h12c0.552,0,1-0.448,1-1v-3C46.5,58.948,46.052,58.5,45.5,58.5z"/>
		<path class="st1" d="M45.5,64h-12c-0.276,0-0.5-0.224-0.5-0.5c0-3.033,2.468-5.5,5.5-5.5h7c0.827,0,1.5,0.673,1.5,1.5v3
			C47,63.327,46.327,64,45.5,64z M34.027,63H45.5c0.275,0,0.5-0.224,0.5-0.5v-3c0-0.276-0.225-0.5-0.5-0.5h-7
			C36.188,59,34.277,60.753,34.027,63z"/>
	</g>
	<g>
		<path class="st4" d="M62.5,58.5h-7c-2.761,0-5,2.239-5,5v0h12c0.552,0,1-0.448,1-1v-3C63.5,58.948,63.052,58.5,62.5,58.5z"/>
		<path class="st1" d="M62.5,64h-12c-0.276,0-0.5-0.224-0.5-0.5c0-3.033,2.468-5.5,5.5-5.5h7c0.827,0,1.5,0.673,1.5,1.5v3
			C64,63.327,63.327,64,62.5,64z M51.027,63H62.5c0.275,0,0.5-0.224,0.5-0.5v-3c0-0.276-0.225-0.5-0.5-0.5h-7
			C53.188,59,51.277,60.753,51.027,63z"/>
	</g>
	<g>
		<polygon class="st22" points="46.5,58.5 51.5,33.5 43.5,33.5 38.5,58.5 		"/>
		<path class="st1" d="M46.5,59h-8c-0.149,0-0.292-0.067-0.387-0.183s-0.133-0.268-0.104-0.415l5-25
			C43.057,33.168,43.262,33,43.5,33h8c0.149,0,0.292,0.067,0.387,0.183s0.133,0.268,0.104,0.415l-5,25
			C46.943,58.832,46.738,59,46.5,59z M39.11,58h6.979l4.8-24H43.91L39.11,58z"/>
	</g>
	<g>
		<path class="st9" d="M40.94,57c-0.033,0-0.066-0.003-0.099-0.01c-0.271-0.054-0.447-0.317-0.393-0.588l4.2-21
			c0.055-0.271,0.328-0.448,0.588-0.392c0.271,0.054,0.447,0.317,0.393,0.588l-4.2,21C41.382,56.836,41.174,57,40.94,57z"/>
	</g>
	<g>
		<polygon class="st9" points="62.5,58.5 57.5,33.5 49.5,33.5 54.5,58.5 		"/>
		<path class="st1" d="M62.5,59h-8c-0.238,0-0.443-0.168-0.49-0.402l-5-25c-0.029-0.147,0.009-0.299,0.104-0.415S49.351,33,49.5,33
			h8c0.238,0,0.443,0.168,0.49,0.402l5,25c0.029,0.147-0.009,0.299-0.104,0.415S62.649,59,62.5,59z M54.91,58h6.979l-4.8-24H50.11
			L54.91,58z"/>
	</g>
	<g>
		<path class="st22" d="M60.06,57c-0.233,0-0.441-0.164-0.489-0.402l-4.2-21c-0.055-0.271,0.121-0.534,0.393-0.588
			c0.259-0.056,0.533,0.121,0.588,0.392l4.2,21c0.055,0.271-0.121,0.534-0.393,0.588C60.126,56.997,60.093,57,60.06,57z"/>
	</g>
	<g>
		<path class="st2" d="M53.128,35.504L53.128,35.504c-1.31-0.437-2.018-1.852-1.581-3.162l2.482-7.445l-2.482-7.444
			c-0.437-1.31,0.271-2.726,1.581-3.163l0,0c1.31-0.437,2.726,0.271,3.163,1.581l2.745,8.235c0.171,0.513,0.171,1.067,0,1.58
			l-2.745,8.236C55.854,35.233,54.438,35.94,53.128,35.504z"/>
		<path class="st1" d="M53.917,36.132c-0.314,0-0.633-0.05-0.946-0.154c-0.761-0.253-1.377-0.787-1.735-1.504
			s-0.416-1.53-0.163-2.291l2.429-7.286l-2.429-7.286c-0.522-1.569,0.328-3.271,1.897-3.795c1.57-0.524,3.272,0.328,3.796,1.897
			l2.745,8.234c0.203,0.611,0.203,1.285,0,1.896l-2.746,8.236C56.346,35.336,55.173,36.132,53.917,36.132z M53.917,14.662
			c-0.209,0-0.422,0.033-0.631,0.103c-1.046,0.349-1.613,1.484-1.265,2.53l2.481,7.444c0.034,0.103,0.034,0.214,0,0.316L52.021,32.5
			c-0.169,0.507-0.131,1.049,0.108,1.527c0.239,0.478,0.65,0.834,1.157,1.002v0c1.047,0.348,2.181-0.22,2.528-1.265l2.746-8.236
			c0.136-0.407,0.136-0.856,0-1.264l-2.745-8.234C55.538,15.193,54.755,14.662,53.917,14.662z"/>
	</g>
</g>
</svg>
