<?xml version="1.0" encoding="utf-8"?>
<!-- Generator: Adobe Illustrator 21.1.0, SVG Export Plug-In . SVG Version: 6.00 Build 0)  -->
<svg version="1.1" id="Layer_1" xmlns="http://www.w3.org/2000/svg" xmlns:xlink="http://www.w3.org/1999/xlink" x="0px" y="0px"
	 viewBox="0 0 64 64" style="enable-background:new 0 0 64 64;" xml:space="preserve">
<style type="text/css">
	.st0{fill:#DB8E11;}
	.st1{fill:#212A41;}
	.st2{fill:#F9AC2F;}
	.st3{fill:#FFCA4D;}
	.st4{fill:#B7C0D7;}
	.st5{fill:#99A2B9;}
	.st6{fill:#B51040;}
	.st7{fill:#D32E5E;}
	.st8{fill:#F14C7C;}
	.st9{fill:#0079A8;}
	.st10{fill:#1E97C6;}
	.st11{fill:#BED38E;}
	.st12{fill:#A0B570;}
	.st13{fill:#DCF1AC;}
	.st14{fill:#D5DEF5;}
	.st15{fill:#4E4B51;}
	.st16{fill:#6C696F;}
	.st17{fill:#848483;}
	.st18{fill:#A2A2A1;}
	.st19{fill:#7B849B;}
	.st20{fill:#8A878D;}
	.st21{fill:#C0C0BF;}
	.st22{fill:#005B8A;}
	.st23{fill:#970022;}
	.st24{fill:#1A237E;}
	.st25{fill:#BD7000;}
	.st26{fill:#003D6C;}
	.st27{fill:#666665;}
	.st28{fill:#195190;}
</style>
<g id="Cosmonaut">
	<g>
		<path class="st17" d="M26,41.09H11c-1.381,0-2.5-1.119-2.5-2.5v-17.5c0-1.381,1.119-2.5,2.5-2.5h15c1.381,0,2.5,1.119,2.5,2.5
			v17.5C28.5,39.97,27.381,41.09,26,41.09z"/>
		<path class="st1" d="M26,41.59H11c-1.654,0-3-1.346-3-3v-17.5c0-1.654,1.346-3,3-3h15c1.654,0,3,1.346,3,3v17.5
			C29,40.244,27.654,41.59,26,41.59z M11,19.09c-1.103,0-2,0.897-2,2v17.5c0,1.103,0.897,2,2,2h15c1.103,0,2-0.897,2-2v-17.5
			c0-1.103-0.897-2-2-2H11z"/>
	</g>
	<g>
		<path class="st18" d="M31.545,41.045h-15c-1.381,0-2.5-1.119-2.5-2.5L14,21.09c0-1.381,1.119-2.5,2.5-2.5h15
			c1.381,0,2.5,1.119,2.5,2.5l0.045,17.455C34.045,39.925,32.926,41.045,31.545,41.045z"/>
		<path class="st1" d="M31.545,41.545h-15c-1.654,0-3-1.346-3-3L13.5,21.091c0-1.656,1.346-3.001,3-3.001h15c1.654,0,3,1.346,3,3
			l0.045,17.454C34.545,40.199,33.199,41.545,31.545,41.545z M16.5,19.09c-1.103,0-2,0.897-2,2l0.045,17.454
			c0,1.104,0.897,2.001,2,2.001h15c1.103,0,2-0.897,2-2L33.5,21.091c0-1.104-0.897-2.001-2-2.001H16.5z"/>
	</g>
	<g>
		<path class="st4" d="M49,36.001H38.999c-0.865,0-1.688-0.374-2.258-1.024l-7-8c-1.091-1.247-0.965-3.142,0.282-4.233
			c1.247-1.092,3.143-0.966,4.233,0.282l6.104,6.976H49c1.657,0,3,1.343,3,3S50.657,36.001,49,36.001z"/>
		<path class="st1" d="M49,36.5H38.999c-1.01,0-1.97-0.436-2.634-1.195l-7-8c-1.271-1.453-1.123-3.668,0.33-4.939
			c0.703-0.616,1.602-0.919,2.538-0.859c0.933,0.062,1.786,0.484,2.401,1.188l5.954,6.805H49c1.93,0,3.5,1.57,3.5,3.5
			S50.93,36.5,49,36.5z M31.996,22.5c-0.605,0-1.184,0.217-1.643,0.619c-1.038,0.908-1.143,2.491-0.235,3.528l7,8
			c0.475,0.542,1.16,0.854,1.881,0.854H49c1.378,0,2.5-1.122,2.5-2.5s-1.122-2.5-2.5-2.5h-8.64c-0.144,0-0.281-0.062-0.376-0.171
			l-6.104-6.976c-0.439-0.503-1.049-0.804-1.715-0.849C32.109,22.501,32.052,22.5,31.996,22.5z"/>
	</g>
	<g>
		<path class="st4" d="M39,56.5h-1.462L32,22H17l-5.538,34.5H10c-2.761,0-5,2.239-5,5v1c0,0.552,0.448,1,1,1h13.705
			c1.298,0,2.38-0.993,2.491-2.286l1.226-14.299C23.466,46.397,23.899,46,24.418,46h0.164c0.519,0,0.952,0.397,0.996,0.915
			l1.226,14.299c0.111,1.293,1.193,2.286,2.491,2.286H43c0.552,0,1-0.448,1-1v-1C44,58.738,41.761,56.5,39,56.5z"/>
		<path class="st1" d="M43,64H29.295c-1.57,0-2.855-1.18-2.989-2.744L25.08,46.957c-0.022-0.26-0.236-0.457-0.498-0.457h-0.164
			c-0.262,0-0.476,0.197-0.499,0.458l-1.226,14.298C22.56,62.82,21.275,64,19.705,64H6c-0.827,0-1.5-0.673-1.5-1.5v-1
			c0-3.033,2.467-5.5,5.5-5.5h1.035l5.471-34.079C16.545,21.678,16.754,21.5,17,21.5h15c0.246,0,0.455,0.178,0.494,0.421L37.964,56
			H39c3.033,0,5.5,2.467,5.5,5.5v1C44.5,63.327,43.827,64,43,64z M24.418,45.5h0.164c0.785,0,1.427,0.59,1.494,1.372l1.226,14.299
			C27.391,62.213,28.248,63,29.295,63H43c0.276,0,0.5-0.224,0.5-0.5v-1c0-2.481-2.019-4.5-4.5-4.5h-1.462
			c-0.246,0-0.455-0.178-0.494-0.421L31.574,22.5H17.426l-5.471,34.079C11.916,56.822,11.707,57,11.461,57H10
			c-2.481,0-4.5,2.019-4.5,4.5v1C5.5,62.776,5.724,63,6,63h13.705c1.046,0,1.903-0.787,1.993-1.829l1.226-14.299
			C22.99,46.09,23.633,45.5,24.418,45.5z"/>
	</g>
	<g>
		<path class="st18" d="M44,62.5v-1c0-2.761-2.239-5-5-5h-1.462l-0.803-5H25.971l0.833,9.714c0.111,1.293,1.193,2.286,2.491,2.286
			H43C43.552,63.5,44,63.052,44,62.5z"/>
		<path class="st1" d="M43,64H29.295c-1.57,0-2.855-1.18-2.989-2.744l-0.833-9.713c-0.012-0.139,0.035-0.277,0.13-0.38
			C25.698,51.059,25.831,51,25.971,51h10.765c0.246,0,0.455,0.178,0.494,0.421L37.964,56H39c3.033,0,5.5,2.467,5.5,5.5v1
			C44.5,63.327,43.827,64,43,64z M26.516,52l0.786,9.171C27.391,62.213,28.248,63,29.295,63H43c0.276,0,0.5-0.224,0.5-0.5v-1
			c0-2.481-2.019-4.5-4.5-4.5h-1.462c-0.246,0-0.455-0.178-0.494-0.421L36.31,52H26.516z"/>
	</g>
	<g>
		<circle class="st4" cx="24.5" cy="10.5" r="10"/>
		<path class="st1" d="M24.5,21C18.71,21,14,16.29,14,10.5S18.71,0,24.5,0S35,4.71,35,10.5S30.29,21,24.5,21z M24.5,1
			C19.262,1,15,5.262,15,10.5s4.262,9.5,9.5,9.5s9.5-4.262,9.5-9.5S29.738,1,24.5,1z"/>
	</g>
	<g>
		<path class="st14" d="M16.5,11c-0.276,0-0.5-0.224-0.5-0.5C16,5.813,19.813,2,24.5,2C24.776,2,25,2.224,25,2.5S24.776,3,24.5,3
			C20.364,3,17,6.364,17,10.5C17,10.776,16.776,11,16.5,11z"/>
	</g>
	<g>
		<rect x="18.5" y="18.5" class="st4" width="12" height="3.5"/>
		<path class="st1" d="M30.5,22.5h-12c-0.276,0-0.5-0.224-0.5-0.5v-3.5c0-0.276,0.224-0.5,0.5-0.5h12c0.276,0,0.5,0.224,0.5,0.5V22
			C31,22.276,30.776,22.5,30.5,22.5z M19,21.5h11V19H19V21.5z"/>
	</g>
	<g>
		<path class="st9" d="M32.5,14.5h-9c-1.381,0-2.5-1.119-2.5-2.5V9c0-1.381,1.119-2.5,2.5-2.5h9C33.881,6.5,35,7.619,35,9v3
			C35,13.381,33.881,14.5,32.5,14.5z"/>
		<path class="st1" d="M32.5,15h-9c-1.654,0-3-1.346-3-3V9c0-1.654,1.346-3,3-3h9c1.654,0,3,1.346,3,3v3
			C35.5,13.654,34.154,15,32.5,15z M23.5,7c-1.103,0-2,0.897-2,2v3c0,1.103,0.897,2,2,2h9c1.103,0,2-0.897,2-2V9
			c0-1.103-0.897-2-2-2H23.5z"/>
	</g>
	<g>
		<path class="st18" d="M22.196,61.213l0.833-9.714H12.264l-0.803,5H10c-2.761,0-5,2.239-5,5v1c0,0.552,0.448,1,1,1h13.705
			C21.003,63.5,22.085,62.507,22.196,61.213z"/>
		<path class="st1" d="M19.705,64H6c-0.827,0-1.5-0.673-1.5-1.5v-1c0-3.033,2.467-5.5,5.5-5.5h1.035l0.735-4.579
			C11.81,51.178,12.019,51,12.264,51h10.764c0.14,0,0.273,0.059,0.368,0.162c0.095,0.103,0.142,0.241,0.13,0.38l-0.833,9.713
			C22.56,62.82,21.275,64,19.705,64z M10,57c-2.481,0-4.5,2.019-4.5,4.5v1C5.5,62.776,5.724,63,6,63h13.705
			c1.046,0,1.903-0.787,1.993-1.829L22.483,52H12.69l-0.735,4.579C11.916,56.822,11.707,57,11.461,57H10z M22.196,61.213h0.01
			H22.196z"/>
	</g>
	<g>
		<path class="st21" d="M7,62c-0.276,0-0.5-0.224-0.5-0.5c0-1.93,1.57-3.5,3.5-3.5h1.461c0.741,0,1.363-0.531,1.481-1.262
			l0.533-3.317c0.044-0.273,0.301-0.461,0.573-0.415c0.273,0.044,0.458,0.3,0.415,0.573l-0.533,3.317
			C13.734,58.115,12.696,59,11.461,59H10c-1.378,0-2.5,1.122-2.5,2.5C7.5,61.776,7.276,62,7,62z"/>
	</g>
	<g>
		<path class="st14" d="M14.611,50c-0.026,0-0.053-0.002-0.08-0.006c-0.273-0.044-0.458-0.3-0.415-0.573l4.093-25.5
			c0.043-0.273,0.298-0.459,0.573-0.415c0.273,0.044,0.458,0.3,0.415,0.573l-4.093,25.5C15.065,49.825,14.853,50,14.611,50z"/>
	</g>
	<g>
		<path class="st17" d="M42,62c-0.276,0-0.5-0.224-0.5-0.5c0-1.378-1.122-2.5-2.5-2.5h-1.462c-1.234,0-2.272-0.885-2.468-2.104
			l-0.532-3.317c-0.044-0.272,0.142-0.529,0.415-0.573c0.27-0.046,0.529,0.142,0.573,0.415l0.532,3.317
			C36.175,57.469,36.797,58,37.538,58H39c1.93,0,3.5,1.57,3.5,3.5C42.5,61.776,42.276,62,42,62z"/>
	</g>
	<g>
		<path class="st5" d="M34.389,50c-0.241,0-0.454-0.175-0.493-0.421l-4.094-25.5c-0.044-0.272,0.142-0.529,0.415-0.573
			c0.273-0.044,0.529,0.141,0.573,0.415l4.094,25.5c0.044,0.272-0.142,0.529-0.415,0.573C34.441,49.998,34.415,50,34.389,50z"/>
	</g>
	<g>
		<path class="st1" d="M3,18c-0.276,0-0.5-0.224-0.5-0.5v-5C2.5,12.224,2.724,12,3,12s0.5,0.224,0.5,0.5v5C3.5,17.776,3.276,18,3,18
			z"/>
	</g>
	<g>
		<path class="st1" d="M5.5,15.5h-5C0.224,15.5,0,15.276,0,15s0.224-0.5,0.5-0.5h5C5.776,14.5,6,14.724,6,15S5.776,15.5,5.5,15.5z"
			/>
	</g>
	<g>
		<circle class="st18" cx="7" cy="5" r="2"/>
		<path class="st1" d="M7,7.5C5.622,7.5,4.5,6.378,4.5,5S5.622,2.5,7,2.5S9.5,3.622,9.5,5S8.378,7.5,7,7.5z M7,3.5
			C6.173,3.5,5.5,4.173,5.5,5S6.173,6.5,7,6.5S8.5,5.827,8.5,5S7.827,3.5,7,3.5z"/>
	</g>
	<g>
		<path class="st7" d="M63.5,18h-6.798c-0.759,0-1.478-0.345-1.952-0.938l-0.499-0.623c-0.474-0.593-1.193-0.938-1.952-0.938H47.5
			v-14h4.798c0.759,0,1.478,0.345,1.952,0.938l0.499,0.623C55.224,3.655,55.942,4,56.702,4H63.5V18z"/>
		<path class="st1" d="M63.5,18.5h-6.798c-0.916,0-1.77-0.411-2.343-1.126L53.86,16.75C53.479,16.273,52.91,16,52.299,16H47.5
			c-0.276,0-0.5-0.224-0.5-0.5v-14C47,1.224,47.224,1,47.5,1h4.799c0.916,0,1.77,0.41,2.342,1.125L55.14,2.75
			c0.381,0.477,0.951,0.75,1.562,0.75H63.5C63.776,3.5,64,3.724,64,4v14C64,18.276,63.776,18.5,63.5,18.5z M48,15h4.299
			c0.916,0,1.77,0.41,2.342,1.125l0.499,0.624c0.381,0.477,0.951,0.75,1.562,0.75H63v-13h-6.298c-0.916,0-1.77-0.411-2.343-1.126
			L53.86,2.75C53.479,2.273,52.91,2,52.299,2H48V15z"/>
	</g>
	<g>
		<path class="st18" d="M46.5,0.5h-1c-0.552,0-1,0.448-1,1v61c0,0.552,0.448,1,1,1h1c0.552,0,1-0.448,1-1v-61
			C47.5,0.948,47.052,0.5,46.5,0.5z"/>
		<path class="st1" d="M46.5,64h-1c-0.827,0-1.5-0.673-1.5-1.5v-61C44,0.673,44.673,0,45.5,0h1C47.327,0,48,0.673,48,1.5v61
			C48,63.327,47.327,64,46.5,64z M45.5,1C45.224,1,45,1.224,45,1.5v61c0,0.276,0.224,0.5,0.5,0.5h1c0.276,0,0.5-0.224,0.5-0.5v-61
			C47,1.224,46.776,1,46.5,1H45.5z"/>
	</g>
	<g>
		<path class="st8" d="M49.5,14c-0.276,0-0.5-0.224-0.5-0.5v-10C49,3.224,49.224,3,49.5,3S50,3.224,50,3.5v10
			C50,13.776,49.776,14,49.5,14z"/>
	</g>
	<g>
		<path class="st6" d="M61.5,16.5c-0.276,0-0.5-0.224-0.5-0.5V6c0-0.276,0.224-0.5,0.5-0.5S62,5.724,62,6v10
			C62,16.276,61.776,16.5,61.5,16.5z"/>
	</g>
	<g>
		<path class="st5" d="M13.498,25v10.001c0,0.865,0.374,1.688,1.024,2.258l8,7c1.247,1.091,3.142,0.965,4.233-0.282
			c1.092-1.247,0.966-3.143-0.282-4.233l-6.976-6.104V25c0-1.657-1.343-3-3-3S13.498,23.343,13.498,25z"/>
		<path class="st1" d="M24.496,45.5c-0.818,0-1.64-0.285-2.303-0.864l-8-7c-0.76-0.665-1.195-1.625-1.195-2.634V25
			c0-1.93,1.57-3.5,3.5-3.5s3.5,1.57,3.5,3.5v8.413l6.805,5.954c0.704,0.616,1.126,1.468,1.188,2.401
			c0.062,0.933-0.243,1.834-0.859,2.538C26.441,45.095,25.47,45.5,24.496,45.5z M16.498,22.5c-1.378,0-2.5,1.122-2.5,2.5v10.001
			c0,0.721,0.311,1.407,0.854,1.881l8,7c1.038,0.908,2.62,0.802,3.528-0.235c0.44-0.503,0.658-1.146,0.614-1.813
			c-0.044-0.666-0.346-1.275-0.849-1.715l-6.976-6.104c-0.109-0.095-0.171-0.232-0.171-0.376V25
			C18.998,23.622,17.876,22.5,16.498,22.5z"/>
	</g>
	<g>
		<path class="st4" d="M23.839,43.253c-0.117,0-0.234-0.041-0.329-0.124l-8-7c-0.326-0.285-0.512-0.697-0.512-1.129V25
			c0-0.276,0.224-0.5,0.5-0.5s0.5,0.224,0.5,0.5v10.001c0,0.144,0.062,0.281,0.171,0.376l8,7c0.208,0.182,0.229,0.498,0.047,0.706
			C24.116,43.196,23.978,43.253,23.839,43.253z"/>
	</g>
	<g>
		<path class="st2" d="M29.5,32.5h-6c-0.552,0-1-0.448-1-1v-4c0-0.552,0.448-1,1-1h6c0.552,0,1,0.448,1,1v4
			C30.5,32.052,30.052,32.5,29.5,32.5z"/>
		<path class="st1" d="M29.5,33h-6c-0.827,0-1.5-0.673-1.5-1.5v-4c0-0.827,0.673-1.5,1.5-1.5h6c0.827,0,1.5,0.673,1.5,1.5v4
			C31,32.327,30.327,33,29.5,33z M23.5,27c-0.276,0-0.5,0.224-0.5,0.5v4c0,0.276,0.224,0.5,0.5,0.5h6c0.276,0,0.5-0.224,0.5-0.5v-4
			c0-0.276-0.224-0.5-0.5-0.5H23.5z"/>
	</g>
	<g>
		<path class="st10" d="M23,12.5c-0.276,0-0.5-0.224-0.5-0.5V9c0-0.276,0.224-0.5,0.5-0.5s0.5,0.224,0.5,0.5v3
			C23.5,12.276,23.276,12.5,23,12.5z"/>
	</g>
	<g>
		<path class="st22" d="M33,12.5c-0.276,0-0.5-0.224-0.5-0.5V9c0-0.276,0.224-0.5,0.5-0.5s0.5,0.224,0.5,0.5v3
			C33.5,12.276,33.276,12.5,33,12.5z"/>
	</g>
</g>
</svg>
