<?xml version="1.0" encoding="utf-8"?>
<!-- Generator: Adobe Illustrator 21.1.0, SVG Export Plug-In . SVG Version: 6.00 Build 0)  -->
<svg version="1.1" id="Layer_1" xmlns="http://www.w3.org/2000/svg" xmlns:xlink="http://www.w3.org/1999/xlink" x="0px" y="0px"
	 viewBox="0 0 64 64" style="enable-background:new 0 0 64 64;" xml:space="preserve">
<style type="text/css">
	.st0{fill:#DB8E11;}
	.st1{fill:#212A41;}
	.st2{fill:#F9AC2F;}
	.st3{fill:#FFCA4D;}
	.st4{fill:#B7C0D7;}
	.st5{fill:#99A2B9;}
	.st6{fill:#B51040;}
	.st7{fill:#D32E5E;}
	.st8{fill:#F14C7C;}
	.st9{fill:#0079A8;}
	.st10{fill:#1E97C6;}
	.st11{fill:#BED38E;}
	.st12{fill:#A0B570;}
	.st13{fill:#DCF1AC;}
	.st14{fill:#D5DEF5;}
	.st15{fill:#4E4B51;}
	.st16{fill:#6C696F;}
	.st17{fill:#848483;}
	.st18{fill:#A2A2A1;}
	.st19{fill:#7B849B;}
	.st20{fill:#8A878D;}
	.st21{fill:#C0C0BF;}
	.st22{fill:#005B8A;}
	.st23{fill:#970022;}
	.st24{fill:#1A237E;}
	.st25{fill:#BD7000;}
	.st26{fill:#003D6C;}
	.st27{fill:#666665;}
	.st28{fill:#195190;}
</style>
<g id="Cyrogenic_Chamber">
	<g>
		<path class="st5" d="M38.5,63.375h-20c-5.523,0-10-4.477-10-10v-43c0-5.523,4.477-10,10-10h20V63.375z"/>
		<path class="st1" d="M38.5,63.875h-20c-5.79,0-10.5-4.71-10.5-10.5v-43c0-5.79,4.71-10.5,10.5-10.5h20c0.276,0,0.5,0.224,0.5,0.5
			v63C39,63.651,38.776,63.875,38.5,63.875z M18.5,0.875c-5.238,0-9.5,4.262-9.5,9.5v43c0,5.238,4.262,9.5,9.5,9.5H38v-62H18.5z"/>
	</g>
	<g>
		<path class="st4" d="M18.5,61.875c-4.687,0-8.5-3.813-8.5-8.5v-43c0-4.687,3.813-8.5,8.5-8.5c0.276,0,0.5,0.224,0.5,0.5
			s-0.224,0.5-0.5,0.5c-4.136,0-7.5,3.364-7.5,7.5v43c0,4.136,3.364,7.5,7.5,7.5c0.276,0,0.5,0.224,0.5,0.5
			S18.776,61.875,18.5,61.875z"/>
	</g>
	<g>
		<rect x="8.5" y="10.025" class="st22" width="29.983" height="3"/>
		<path class="st1" d="M38.482,13.525H8.5c-0.276,0-0.5-0.224-0.5-0.5v-3c0-0.276,0.224-0.5,0.5-0.5h29.982
			c0.276,0,0.5,0.224,0.5,0.5v3C38.982,13.302,38.759,13.525,38.482,13.525z M9,12.525h28.982v-2H9V12.525z"/>
	</g>
	<g>
		<path class="st9" d="M10.5,13.016v-2.641c0-0.117,0.003-0.234,0.008-0.35"/>
		<path class="st9" d="M10.5,13.516c-0.276,0-0.5-0.224-0.5-0.5v-2.641c0-0.124,0.003-0.249,0.008-0.371
			c0.013-0.276,0.22-0.503,0.521-0.479c0.275,0.012,0.489,0.245,0.479,0.521C11.003,10.155,11,10.265,11,10.375v2.641
			C11,13.292,10.776,13.516,10.5,13.516z"/>
	</g>
	<g>
		<path class="st1" d="M38.482,13.525H8.5c-0.276,0-0.5-0.224-0.5-0.5v-3c0-0.276,0.224-0.5,0.5-0.5h29.982
			c0.276,0,0.5,0.224,0.5,0.5v3C38.982,13.302,38.759,13.525,38.482,13.525z M9,12.525h28.982v-2H9V12.525z"/>
	</g>
	<g>
		<path class="st4" d="M43.5,63.375h-10c-5.523,0-10-4.477-10-10v-43c0-5.523,4.477-10,10-10h10c5.523,0,10,4.477,10,10v43
			C53.5,58.898,49.023,63.375,43.5,63.375z"/>
		<path class="st1" d="M43.5,63.875h-10c-5.79,0-10.5-4.71-10.5-10.5v-43c0-5.79,4.71-10.5,10.5-10.5h10c5.79,0,10.5,4.71,10.5,10.5
			v43C54,59.165,49.29,63.875,43.5,63.875z M33.5,0.875c-5.238,0-9.5,4.262-9.5,9.5v43c0,5.238,4.262,9.5,9.5,9.5h10
			c5.238,0,9.5-4.262,9.5-9.5v-43c0-5.238-4.262-9.5-9.5-9.5H33.5z"/>
	</g>
	<g>
		<path class="st18" d="M53.5,46.375H31.637c-1.918,0-3.668-1.098-4.502-2.825L23.5,36.025v-23h30V46.375z"/>
	</g>
	<g>
		<path class="st17" d="M23.5,36.025h-5c-1.381,0-2.5-1.119-2.5-2.5v-18c0-1.381,1.119-2.5,2.5-2.5h5V36.025z"/>
		<path class="st1" d="M23.5,36.525h-5c-1.654,0-3-1.346-3-3v-18c0-1.654,1.346-3,3-3h5c0.276,0,0.5,0.224,0.5,0.5v23
			C24,36.302,23.776,36.525,23.5,36.525z M18.5,13.525c-1.103,0-2,0.897-2,2v18c0,1.103,0.897,2,2,2H23v-22H18.5z"/>
	</g>
	<g>
		<rect x="33.5" y="49.375" class="st9" width="10" height="4"/>
		<path class="st1" d="M43.5,53.875h-10c-0.276,0-0.5-0.224-0.5-0.5v-4c0-0.276,0.224-0.5,0.5-0.5h10c0.276,0,0.5,0.224,0.5,0.5v4
			C44,53.651,43.776,53.875,43.5,53.875z M34,52.875h9v-3h-9V52.875z"/>
	</g>
	<g>
		<path class="st5" d="M19.5,47.025h-1c-0.552,0-1-0.448-1-1v-6c0-0.552,0.448-1,1-1h1c0.552,0,1,0.448,1,1v6
			C20.5,46.577,20.052,47.025,19.5,47.025z"/>
		<path class="st1" d="M19.5,47.525h-1c-0.827,0-1.5-0.673-1.5-1.5v-6c0-0.827,0.673-1.5,1.5-1.5h1c0.827,0,1.5,0.673,1.5,1.5v6
			C21,46.853,20.327,47.525,19.5,47.525z M18.5,39.525c-0.275,0-0.5,0.224-0.5,0.5v6c0,0.276,0.225,0.5,0.5,0.5h1
			c0.275,0,0.5-0.224,0.5-0.5v-6c0-0.276-0.225-0.5-0.5-0.5H18.5z"/>
	</g>
	<g>
		<path class="st14" d="M33.5,61.875c-4.687,0-8.5-3.813-8.5-8.5v-43c0-4.687,3.813-8.5,8.5-8.5c0.276,0,0.5,0.224,0.5,0.5
			s-0.224,0.5-0.5,0.5c-4.136,0-7.5,3.364-7.5,7.5v43c0,4.136,3.364,7.5,7.5,7.5c0.276,0,0.5,0.224,0.5,0.5
			S33.776,61.875,33.5,61.875z"/>
	</g>
	<g>
		<path class="st21" d="M25.5,40.661c-0.276,0-0.5-0.224-0.5-0.5V13.016c0-0.276,0.224-0.5,0.5-0.5s0.5,0.224,0.5,0.5v27.145
			C26,40.437,25.776,40.661,25.5,40.661z"/>
	</g>
	<g>
		<path class="st5" d="M43.5,61.875c-0.276,0-0.5-0.224-0.5-0.5s0.224-0.5,0.5-0.5c4.136,0,7.5-3.364,7.5-7.5v-43
			c0-4.136-3.364-7.5-7.5-7.5c-0.276,0-0.5-0.224-0.5-0.5s0.224-0.5,0.5-0.5c4.687,0,8.5,3.813,8.5,8.5v43
			C52,58.062,48.187,61.875,43.5,61.875z"/>
	</g>
	<g>
		<path class="st17" d="M51.5,46.875c-0.276,0-0.5-0.224-0.5-0.5V13.016c0-0.276,0.224-0.5,0.5-0.5s0.5,0.224,0.5,0.5v33.359
			C52,46.651,51.776,46.875,51.5,46.875z"/>
	</g>
	<g>
		<path class="st0" d="M49.5,48.375c-1.657,0-3,1.343-3,3s1.343,3,3,3h3v-6H49.5z"/>
		<path class="st1" d="M52.5,54.875h-3c-1.93,0-3.5-1.57-3.5-3.5s1.57-3.5,3.5-3.5h3c0.276,0,0.5,0.224,0.5,0.5v6
			C53,54.651,52.776,54.875,52.5,54.875z M49.5,48.875c-1.379,0-2.5,1.122-2.5,2.5s1.121,2.5,2.5,2.5H52v-5H49.5z"/>
	</g>
	<g>
		<circle class="st2" cx="52.5" cy="51.375" r="3"/>
		<path class="st1" d="M52.5,54.875c-1.93,0-3.5-1.57-3.5-3.5s1.57-3.5,3.5-3.5s3.5,1.57,3.5,3.5S54.43,54.875,52.5,54.875z
			 M52.5,48.875c-1.379,0-2.5,1.122-2.5,2.5s1.121,2.5,2.5,2.5s2.5-1.122,2.5-2.5S53.879,48.875,52.5,48.875z"/>
	</g>
	<g>
		<rect x="23.5" y="10.025" class="st9" width="29.983" height="3"/>
		<path class="st1" d="M53.482,13.525H23.5c-0.276,0-0.5-0.224-0.5-0.5v-3c0-0.276,0.224-0.5,0.5-0.5h29.982
			c0.276,0,0.5,0.224,0.5,0.5v3C53.982,13.302,53.759,13.525,53.482,13.525z M24,12.525h28.982v-2H24V12.525z"/>
	</g>
	<g>
		<path class="st10" d="M25.5,13.516c-0.276,0-0.5-0.224-0.5-0.5v-2.641c0-0.124,0.003-0.249,0.008-0.371
			c0.013-0.276,0.22-0.503,0.521-0.479c0.275,0.012,0.489,0.245,0.479,0.521C26.003,10.155,26,10.265,26,10.375v2.641
			C26,13.292,25.776,13.516,25.5,13.516z"/>
	</g>
	<g>
		<path class="st22" d="M51.5,13.516c-0.276,0-0.5-0.224-0.5-0.5v-2.641c0-0.11-0.003-0.22-0.008-0.329
			c-0.011-0.276,0.203-0.509,0.479-0.521c0.318-0.025,0.51,0.202,0.521,0.479C51.997,10.126,52,10.251,52,10.375v2.641
			C52,13.292,51.776,13.516,51.5,13.516z"/>
	</g>
	<g>
		<path class="st1" d="M53.482,13.525H23.5c-0.276,0-0.5-0.224-0.5-0.5v-3c0-0.276,0.224-0.5,0.5-0.5h29.982
			c0.276,0,0.5,0.224,0.5,0.5v3C53.982,13.302,53.759,13.525,53.482,13.525z M24,12.525h28.982v-2H24V12.525z"/>
	</g>
	<g>
		<path class="st9" d="M41.965,16.025h-6.93c-0.334,0-0.647-0.167-0.832-0.445L32.5,13.025v-3h12v3l-1.703,2.555
			C42.611,15.858,42.299,16.025,41.965,16.025z"/>
		<path class="st1" d="M41.965,16.525h-6.93c-0.502,0-0.969-0.25-1.248-0.667l-1.703-2.555C32.029,13.221,32,13.124,32,13.025v-3
			c0-0.276,0.224-0.5,0.5-0.5h12c0.276,0,0.5,0.224,0.5,0.5v3c0,0.099-0.029,0.195-0.084,0.277l-1.703,2.555
			C42.934,16.276,42.467,16.525,41.965,16.525z M33,12.874l1.619,2.429c0.093,0.139,0.249,0.223,0.416,0.223h6.93
			c0.167,0,0.323-0.083,0.416-0.223L44,12.874v-2.349H33V12.874z"/>
	</g>
	<g>
		<path class="st1" d="M53.5,46.875H31.638c-2.097,0-4.041-1.22-4.953-3.107l-3.635-7.525C23.017,36.174,23,36.1,23,36.025v-23
			c0-0.276,0.224-0.5,0.5-0.5h30c0.276,0,0.5,0.224,0.5,0.5v33.35C54,46.651,53.776,46.875,53.5,46.875z M24,35.911l3.585,7.422
			c0.746,1.544,2.337,2.542,4.053,2.542H53v-32.35H24V35.911z"/>
	</g>
	<g>
		<path class="st18" d="M18,34.025c-0.276,0-0.5-0.224-0.5-0.5v-18c0-0.276,0.224-0.5,0.5-0.5s0.5,0.224,0.5,0.5v18
			C18.5,33.802,18.276,34.025,18,34.025z"/>
	</g>
</g>
</svg>
