<?xml version="1.0" encoding="utf-8"?>
<!-- Generator: Adobe Illustrator 21.1.0, SVG Export Plug-In . SVG Version: 6.00 Build 0)  -->
<svg version="1.1" id="Layer_1" xmlns="http://www.w3.org/2000/svg" xmlns:xlink="http://www.w3.org/1999/xlink" x="0px" y="0px"
	 viewBox="0 0 64 64" style="enable-background:new 0 0 64 64;" xml:space="preserve">
<style type="text/css">
	.st0{fill:#DB8E11;}
	.st1{fill:#212A41;}
	.st2{fill:#F9AC2F;}
	.st3{fill:#FFCA4D;}
	.st4{fill:#B7C0D7;}
	.st5{fill:#99A2B9;}
	.st6{fill:#B51040;}
	.st7{fill:#D32E5E;}
	.st8{fill:#F14C7C;}
	.st9{fill:#0079A8;}
	.st10{fill:#1E97C6;}
	.st11{fill:#BED38E;}
	.st12{fill:#A0B570;}
	.st13{fill:#DCF1AC;}
	.st14{fill:#D5DEF5;}
	.st15{fill:#4E4B51;}
	.st16{fill:#6C696F;}
	.st17{fill:#848483;}
	.st18{fill:#A2A2A1;}
	.st19{fill:#7B849B;}
	.st20{fill:#8A878D;}
	.st21{fill:#C0C0BF;}
	.st22{fill:#005B8A;}
	.st23{fill:#970022;}
	.st24{fill:#1A237E;}
	.st25{fill:#BD7000;}
	.st26{fill:#003D6C;}
	.st27{fill:#666665;}
	.st28{fill:#195190;}
</style>
<g id="Distant_Colony">
	<g>
		<path class="st5" d="M16.5,12.499l-9.842,6.263C5.937,19.221,5.5,20.017,5.5,20.872v23.628h17v-32H16.5z"/>
		<path class="st1" d="M22.5,44.999h-17c-0.276,0-0.5-0.224-0.5-0.5V20.871c0-1.03,0.52-1.977,1.389-2.53l9.842-6.264
			c0.081-0.051,0.173-0.078,0.269-0.078h6c0.276,0,0.5,0.224,0.5,0.5v32C23,44.775,22.777,44.999,22.5,44.999z M6,43.999h16v-31
			h-5.354l-9.719,6.186C6.347,19.554,6,20.185,6,20.871V43.999z"/>
	</g>
	<g>
		<path class="st4" d="M22.5,44.499h-11V20.872c0-0.855,0.437-1.65,1.158-2.109l9.842-6.263V44.499z"/>
		<path class="st1" d="M22.5,44.999h-11c-0.276,0-0.5-0.224-0.5-0.5V20.871c0-1.03,0.52-1.977,1.389-2.53l9.842-6.264
			c0.154-0.098,0.349-0.104,0.509-0.017C22.901,12.148,23,12.316,23,12.499v32C23,44.775,22.777,44.999,22.5,44.999z M12,43.999h10
			V13.41l-9.074,5.774c-0.58,0.369-0.926,1-0.926,1.687V43.999z"/>
	</g>
	<g>
		<path class="st14" d="M13.5,42.999c-0.276,0-0.5-0.224-0.5-0.5V20.871c0-0.276,0.224-0.5,0.5-0.5s0.5,0.224,0.5,0.5v21.628
			C14,42.775,13.777,42.999,13.5,42.999z"/>
	</g>
	<g>
		<path class="st4" d="M7.5,42.999c-0.276,0-0.5-0.224-0.5-0.5V20.871c0-0.276,0.224-0.5,0.5-0.5s0.5,0.224,0.5,0.5v21.628
			C8,42.775,7.777,42.999,7.5,42.999z"/>
	</g>
	<g>
		<path class="st5" d="M20.5,42.999c-0.276,0-0.5-0.224-0.5-0.5V16.143c0-0.276,0.224-0.5,0.5-0.5s0.5,0.224,0.5,0.5v26.356
			C21,42.775,20.777,42.999,20.5,42.999z"/>
	</g>
	<g>
		<rect x="17" y="26.499" class="st2" width="5.5" height="18"/>
		<path class="st1" d="M22.5,44.999H17c-0.276,0-0.5-0.224-0.5-0.5v-18c0-0.276,0.224-0.5,0.5-0.5h5.5c0.276,0,0.5,0.224,0.5,0.5v18
			C23,44.775,22.777,44.999,22.5,44.999z M17.5,43.999H22v-17h-4.5V43.999z"/>
	</g>
	<g>
		<rect x="51.5" y="19.499" class="st4" width="5" height="25"/>
		<path class="st1" d="M56.5,44.999h-5c-0.276,0-0.5-0.224-0.5-0.5v-25c0-0.276,0.224-0.5,0.5-0.5h5c0.276,0,0.5,0.224,0.5,0.5v25
			C57,44.775,56.777,44.999,56.5,44.999z M52,43.999h4v-24h-4V43.999z"/>
	</g>
	<g>
		<rect x="46.5" y="19.499" class="st5" width="5" height="25"/>
		<path class="st1" d="M51.5,44.999h-5c-0.276,0-0.5-0.224-0.5-0.5v-25c0-0.276,0.224-0.5,0.5-0.5h5c0.276,0,0.5,0.224,0.5,0.5v25
			C52,44.775,51.777,44.999,51.5,44.999z M47,43.999h4v-24h-4V43.999z"/>
	</g>
	<g>
		<path class="st17" d="M52,22.499h-6c-0.552,0-1-0.448-1-1v-1c0-0.552,0.448-1,1-1h6c0.552,0,1,0.448,1,1v1
			C53,22.051,52.553,22.499,52,22.499z"/>
		<path class="st1" d="M52,22.999h-6c-0.827,0-1.5-0.673-1.5-1.5v-1c0-0.827,0.673-1.5,1.5-1.5h6c0.827,0,1.5,0.673,1.5,1.5v1
			C53.5,22.326,52.828,22.999,52,22.999z M46,19.999c-0.276,0-0.5,0.225-0.5,0.5v1c0,0.275,0.224,0.5,0.5,0.5h6
			c0.276,0,0.5-0.225,0.5-0.5v-1c0-0.275-0.224-0.5-0.5-0.5H46z"/>
	</g>
	<g>
		<path class="st18" d="M57,22.499h-6c-0.552,0-1-0.448-1-1v-1c0-0.552,0.448-1,1-1h6c0.552,0,1,0.448,1,1v1
			C58,22.051,57.553,22.499,57,22.499z"/>
		<path class="st1" d="M57,22.999h-6c-0.827,0-1.5-0.673-1.5-1.5v-1c0-0.827,0.673-1.5,1.5-1.5h6c0.827,0,1.5,0.673,1.5,1.5v1
			C58.5,22.326,57.828,22.999,57,22.999z M51,19.999c-0.276,0-0.5,0.225-0.5,0.5v1c0,0.275,0.224,0.5,0.5,0.5h6
			c0.276,0,0.5-0.225,0.5-0.5v-1c0-0.275-0.224-0.5-0.5-0.5H51z"/>
	</g>
	<g>
		<circle class="st2" cx="54.5" cy="6.999" r="6.5"/>
		<path class="st1" d="M54.5,13.999c-3.86,0-7-3.141-7-7s3.14-7,7-7s7,3.141,7,7S58.36,13.999,54.5,13.999z M54.5,0.999
			c-3.309,0-6,2.691-6,6s2.691,6,6,6s6-2.691,6-6S57.809,0.999,54.5,0.999z"/>
	</g>
	<g>
		<path class="st3" d="M50,7.499c-0.276,0-0.5-0.224-0.5-0.5c0-2.757,2.243-5,5-5c0.276,0,0.5,0.224,0.5,0.5s-0.224,0.5-0.5,0.5
			c-2.206,0-4,1.794-4,4C50.5,7.275,50.277,7.499,50,7.499z"/>
	</g>
	<g>
		<path class="st0" d="M54.5,11.999c-0.276,0-0.5-0.224-0.5-0.5s0.224-0.5,0.5-0.5c2.206,0,4-1.794,4-4c0-0.276,0.224-0.5,0.5-0.5
			s0.5,0.224,0.5,0.5C59.5,9.756,57.257,11.999,54.5,11.999z"/>
	</g>
	<g>
		<path class="st18" d="M62.5,7.999h-16c-0.552,0-1-0.448-1-1v0c0-0.552,0.448-1,1-1h16c0.552,0,1,0.448,1,1v0
			C63.5,7.551,63.053,7.999,62.5,7.999z"/>
		<path class="st1" d="M62.5,8.499h-16c-0.827,0-1.5-0.673-1.5-1.5s0.673-1.5,1.5-1.5h16c0.827,0,1.5,0.673,1.5,1.5
			S63.328,8.499,62.5,8.499z M46.5,6.499c-0.276,0-0.5,0.225-0.5,0.5s0.224,0.5,0.5,0.5h16c0.276,0,0.5-0.225,0.5-0.5
			s-0.224-0.5-0.5-0.5H46.5z"/>
	</g>
	<g>
		<path class="st17" d="M54,44.499H3c-1.381,0-2.5,1.119-2.5,2.5v14c0,1.381,1.119,2.5,2.5,2.5h51c1.381,0,2.5-1.119,2.5-2.5v-14
			C56.5,45.618,55.381,44.499,54,44.499z"/>
		<path class="st1" d="M54,63.999H3c-1.654,0-3-1.346-3-3v-14c0-1.654,1.346-3,3-3h51c1.654,0,3,1.346,3,3v14
			C57,62.653,55.655,63.999,54,63.999z M3,44.999c-1.103,0-2,0.897-2,2v14c0,1.103,0.897,2,2,2h51c1.103,0,2-0.897,2-2v-14
			c0-1.103-0.897-2-2-2H3z"/>
	</g>
	<g>
		<path class="st18" d="M59,44.499H8c-1.381,0-2.5,1.119-2.5,2.5v14c0,1.381,1.119,2.5,2.5,2.5h51c1.381,0,2.5-1.119,2.5-2.5v-14
			C61.5,45.618,60.381,44.499,59,44.499z"/>
		<path class="st1" d="M59,63.999H8c-1.654,0-3-1.346-3-3v-14c0-1.654,1.346-3,3-3h51c1.654,0,3,1.346,3,3v14
			C62,62.653,60.655,63.999,59,63.999z M8,44.999c-1.103,0-2,0.897-2,2v14c0,1.103,0.897,2,2,2h51c1.103,0,2-0.897,2-2v-14
			c0-1.103-0.897-2-2-2H8z"/>
	</g>
	<g>
		<path class="st15" d="M54,63.499H8c-1.381,0-2.5-1.119-2.5-2.5v-6c0-1.381,1.119-2.5,2.5-2.5h8.329c0.742,0,1.446,0.33,1.921,0.9
			l4.25,5.1h19l4.25-5.1c0.475-0.57,1.179-0.9,1.921-0.9H54c1.381,0,2.5,1.119,2.5,2.5v6C56.5,62.38,55.381,63.499,54,63.499z"/>
		<path class="st1" d="M54,63.999H8c-1.654,0-3-1.346-3-3v-6c0-1.654,1.346-3,3-3h8.329c0.892,0,1.732,0.394,2.304,1.079
			l4.101,4.921h18.531l4.101-4.921c0.572-0.686,1.412-1.079,2.305-1.079H54c1.654,0,3,1.346,3,3v6
			C57,62.653,55.655,63.999,54,63.999z M8,52.999c-1.103,0-2,0.897-2,2v6c0,1.103,0.897,2,2,2h46c1.103,0,2-0.897,2-2v-6
			c0-1.103-0.897-2-2-2h-6.329c-0.595,0-1.155,0.263-1.536,0.72l-4.25,5.101c-0.095,0.114-0.236,0.18-0.384,0.18h-19
			c-0.148,0-0.289-0.065-0.384-0.18l-4.25-5.101c-0.381-0.457-0.941-0.72-1.536-0.72H8z"/>
	</g>
	<g>
		<path class="st16" d="M59,63.499H13c-1.381,0-2.5-1.119-2.5-2.5v-6c0-1.381,1.119-2.5,2.5-2.5h8.329c0.742,0,1.446,0.33,1.921,0.9
			l4.25,5.1h19l4.25-5.1c0.475-0.57,1.179-0.9,1.921-0.9H59c1.381,0,2.5,1.119,2.5,2.5v6C61.5,62.38,60.381,63.499,59,63.499z"/>
		<path class="st1" d="M59,63.999H13c-1.654,0-3-1.346-3-3v-6c0-1.654,1.346-3,3-3h8.329c0.892,0,1.732,0.394,2.304,1.079
			l4.101,4.921h18.531l4.101-4.921c0.572-0.686,1.412-1.079,2.305-1.079H59c1.654,0,3,1.346,3,3v6
			C62,62.653,60.655,63.999,59,63.999z M13,52.999c-1.103,0-2,0.897-2,2v6c0,1.103,0.897,2,2,2h46c1.103,0,2-0.897,2-2v-6
			c0-1.103-0.897-2-2-2h-6.329c-0.595,0-1.155,0.263-1.536,0.72l-4.25,5.101c-0.095,0.114-0.236,0.18-0.384,0.18h-19
			c-0.148,0-0.289-0.065-0.384-0.18l-4.25-5.101c-0.381-0.457-0.941-0.72-1.536-0.72H13z"/>
	</g>
	<g>
		<path class="st20" d="M12.5,61.499c-0.276,0-0.5-0.224-0.5-0.5v-6c0-0.276,0.224-0.5,0.5-0.5s0.5,0.224,0.5,0.5v6
			C13,61.275,12.777,61.499,12.5,61.499z"/>
	</g>
	<g>
		<path class="st15" d="M59.5,61.499c-0.276,0-0.5-0.224-0.5-0.5v-6c0-0.276,0.224-0.5,0.5-0.5s0.5,0.224,0.5,0.5v6
			C60,61.275,59.777,61.499,59.5,61.499z"/>
	</g>
	<g>
		<path class="st5" d="M42,26.499H31c-0.552,0-1,0.448-1,1v2h13v-2C43,26.947,42.553,26.499,42,26.499z"/>
		<path class="st1" d="M43,29.999H30c-0.276,0-0.5-0.224-0.5-0.5v-2c0-0.827,0.673-1.5,1.5-1.5h11c0.827,0,1.5,0.673,1.5,1.5v2
			C43.5,29.775,43.277,29.999,43,29.999z M30.5,28.999h12v-1.5c0-0.275-0.224-0.5-0.5-0.5H31c-0.276,0-0.5,0.225-0.5,0.5V28.999z"/>
	</g>
	<g>
		<path class="st6" d="M45.5,44.499h-18v-14c0-0.552,0.448-1,1-1h16c0.552,0,1,0.448,1,1V44.499z"/>
		<path class="st1" d="M45.5,44.999h-18c-0.276,0-0.5-0.224-0.5-0.5v-14c0-0.827,0.673-1.5,1.5-1.5h16c0.827,0,1.5,0.673,1.5,1.5v14
			C46,44.775,45.777,44.999,45.5,44.999z M28,43.999h17v-13.5c0-0.275-0.224-0.5-0.5-0.5h-16c-0.276,0-0.5,0.225-0.5,0.5V43.999z"/>
	</g>
	<g>
		<path class="st7" d="M51.5,44.499h-18v-14c0-0.552,0.448-1,1-1h16c0.552,0,1,0.448,1,1V44.499z"/>
		<path class="st1" d="M51.5,44.999h-18c-0.276,0-0.5-0.224-0.5-0.5v-14c0-0.827,0.673-1.5,1.5-1.5h16c0.827,0,1.5,0.673,1.5,1.5v14
			C52,44.775,51.777,44.999,51.5,44.999z M34,43.999h17v-13.5c0-0.275-0.224-0.5-0.5-0.5h-16c-0.276,0-0.5,0.225-0.5,0.5V43.999z"/>
	</g>
	<g>
		<path class="st4" d="M48,26.499H37c-0.552,0-1,0.448-1,1v2h13v-2C49,26.947,48.553,26.499,48,26.499z"/>
		<path class="st1" d="M49,29.999H36c-0.276,0-0.5-0.224-0.5-0.5v-2c0-0.827,0.673-1.5,1.5-1.5h11c0.827,0,1.5,0.673,1.5,1.5v2
			C49.5,29.775,49.277,29.999,49,29.999z M36.5,28.999h12v-1.5c0-0.275-0.224-0.5-0.5-0.5H37c-0.276,0-0.5,0.225-0.5,0.5V28.999z"/>
	</g>
	<g>
		<rect x="33.5" y="32.499" class="st4" width="18" height="3"/>
		<path class="st1" d="M51.5,35.999h-18c-0.276,0-0.5-0.224-0.5-0.5v-3c0-0.276,0.224-0.5,0.5-0.5h18c0.276,0,0.5,0.224,0.5,0.5v3
			C52,35.775,51.777,35.999,51.5,35.999z M34,34.999h17v-2H34V34.999z"/>
	</g>
	<g>
		<rect x="33.5" y="38.499" class="st4" width="18" height="3"/>
		<path class="st1" d="M51.5,41.999h-18c-0.276,0-0.5-0.224-0.5-0.5v-3c0-0.276,0.224-0.5,0.5-0.5h18c0.276,0,0.5,0.224,0.5,0.5v3
			C52,41.775,51.777,41.999,51.5,41.999z M34,40.999h17v-2H34V40.999z"/>
	</g>
	<g>
		<path class="st7" d="M29.5,42.999c-0.276,0-0.5-0.224-0.5-0.5v-11c0-0.276,0.224-0.5,0.5-0.5s0.5,0.224,0.5,0.5v11
			C30,42.775,29.777,42.999,29.5,42.999z"/>
	</g>
	<g>
		<circle class="st18" cx="38" cy="11.999" r="1.5"/>
		<path class="st1" d="M38,13.999c-1.103,0-2-0.897-2-2s0.897-2,2-2s2,0.897,2,2S39.104,13.999,38,13.999z M38,10.999
			c-0.551,0-1,0.448-1,1s0.449,1,1,1s1-0.448,1-1S38.552,10.999,38,10.999z"/>
	</g>
	<g>
		<circle class="st18" cx="27.5" cy="4.499" r="2"/>
		<path class="st1" d="M27.5,6.999c-1.378,0-2.5-1.121-2.5-2.5s1.122-2.5,2.5-2.5S30,3.12,30,4.499S28.879,6.999,27.5,6.999z
			 M27.5,2.999c-0.827,0-1.5,0.673-1.5,1.5s0.673,1.5,1.5,1.5s1.5-0.673,1.5-1.5S28.328,2.999,27.5,2.999z"/>
	</g>
</g>
</svg>
