<?xml version="1.0" encoding="utf-8"?>
<!-- Generator: Adobe Illustrator 21.1.0, SVG Export Plug-In . SVG Version: 6.00 Build 0)  -->
<svg version="1.1" id="Layer_1" xmlns="http://www.w3.org/2000/svg" xmlns:xlink="http://www.w3.org/1999/xlink" x="0px" y="0px"
	 viewBox="0 0 64 64" style="enable-background:new 0 0 64 64;" xml:space="preserve">
<style type="text/css">
	.st0{fill:#DB8E11;}
	.st1{fill:#212A41;}
	.st2{fill:#F9AC2F;}
	.st3{fill:#FFCA4D;}
	.st4{fill:#B7C0D7;}
	.st5{fill:#99A2B9;}
	.st6{fill:#B51040;}
	.st7{fill:#D32E5E;}
	.st8{fill:#F14C7C;}
	.st9{fill:#0079A8;}
	.st10{fill:#1E97C6;}
	.st11{fill:#BED38E;}
	.st12{fill:#A0B570;}
	.st13{fill:#DCF1AC;}
	.st14{fill:#D5DEF5;}
	.st15{fill:#4E4B51;}
	.st16{fill:#6C696F;}
	.st17{fill:#848483;}
	.st18{fill:#A2A2A1;}
	.st19{fill:#7B849B;}
	.st20{fill:#8A878D;}
	.st21{fill:#C0C0BF;}
	.st22{fill:#005B8A;}
	.st23{fill:#970022;}
	.st24{fill:#1A237E;}
	.st25{fill:#BD7000;}
	.st26{fill:#003D6C;}
	.st27{fill:#666665;}
	.st28{fill:#195190;}
</style>
<g id="Distant_Planet">
	<g>
		<circle class="st4" cx="32" cy="32" r="28"/>
		<path class="st1" d="M32,60.5C16.286,60.5,3.5,47.715,3.5,32S16.286,3.5,32,3.5S60.5,16.285,60.5,32S47.715,60.5,32,60.5z M32,4.5
			C16.837,4.5,4.5,16.836,4.5,32S16.837,59.5,32,59.5S59.5,47.164,59.5,32S47.164,4.5,32,4.5z"/>
	</g>
	<g>
		<path class="st5" d="M32,58.5c-0.276,0-0.5-0.224-0.5-0.5s0.224-0.5,0.5-0.5c14.061,0,25.5-11.439,25.5-25.5
			c0-0.276,0.224-0.5,0.5-0.5s0.5,0.224,0.5,0.5C58.5,46.612,46.613,58.5,32,58.5z"/>
	</g>
	<g>
		<path class="st5" d="M14,32c0-13.756,9.923-25.187,23-27.546C35.377,4.161,33.708,4,32,4C16.536,4,4,16.536,4,32
			c0,15.464,12.536,28,28,28c1.708,0,3.377-0.161,5-0.454C23.924,57.187,14,45.756,14,32z"/>
		<path class="st1" d="M32,60.5C16.286,60.5,3.5,47.715,3.5,32S16.286,3.5,32,3.5c1.677,0,3.389,0.155,5.089,0.461
			c0.238,0.043,0.411,0.25,0.411,0.492c0,0.242-0.173,0.449-0.411,0.492C24,7.307,14.5,18.685,14.5,32
			c0,13.315,9.5,24.693,22.589,27.054c0.238,0.043,0.411,0.25,0.411,0.492c0,0.242-0.173,0.449-0.411,0.492
			C35.387,60.345,33.675,60.5,32,60.5z M32,4.5C16.837,4.5,4.5,16.836,4.5,32S16.837,59.5,32,59.5c0.725,0,1.457-0.03,2.191-0.09
			C22.051,55.974,13.5,44.858,13.5,32c0-12.859,8.549-23.975,20.691-27.41C33.457,4.53,32.725,4.5,32,4.5z"/>
	</g>
	<g>
		<path class="st4" d="M6,32.5c-0.276,0-0.5-0.224-0.5-0.5c0-12.225,8.288-22.806,20.155-25.732
			c0.268-0.069,0.539,0.098,0.605,0.366c0.066,0.268-0.098,0.539-0.366,0.605C14.476,10.054,6.5,20.236,6.5,32
			C6.5,32.276,6.277,32.5,6,32.5z"/>
	</g>
	<g>
		<circle class="st9" cx="44" cy="20" r="6"/>
		<path class="st1" d="M44,26.5c-3.584,0-6.5-2.916-6.5-6.5s2.916-6.5,6.5-6.5s6.5,2.916,6.5,6.5S47.584,26.5,44,26.5z M44,14.5
			c-3.033,0-5.5,2.467-5.5,5.5s2.467,5.5,5.5,5.5s5.5-2.467,5.5-5.5S47.033,14.5,44,14.5z"/>
	</g>
	<g>
		<circle class="st9" cx="16" cy="42" r="3"/>
		<path class="st1" d="M16,45.5c-1.93,0-3.5-1.57-3.5-3.5s1.57-3.5,3.5-3.5s3.5,1.57,3.5,3.5S17.93,45.5,16,45.5z M16,39.5
			c-1.378,0-2.5,1.122-2.5,2.5s1.122,2.5,2.5,2.5s2.5-1.122,2.5-2.5S17.379,39.5,16,39.5z"/>
	</g>
	<g>
		<circle class="st9" cx="22" cy="13" r="2"/>
		<path class="st1" d="M22,15.5c-1.378,0-2.5-1.122-2.5-2.5s1.122-2.5,2.5-2.5s2.5,1.122,2.5,2.5S23.379,15.5,22,15.5z M22,11.5
			c-0.827,0-1.5,0.673-1.5,1.5s0.673,1.5,1.5,1.5s1.5-0.673,1.5-1.5S22.828,11.5,22,11.5z"/>
	</g>
	<g>
		<circle class="st9" cx="51" cy="30.5" r="2"/>
		<path class="st1" d="M51,33c-1.378,0-2.5-1.122-2.5-2.5S49.622,28,51,28s2.5,1.122,2.5,2.5S52.379,33,51,33z M51,29
			c-0.827,0-1.5,0.673-1.5,1.5S50.173,32,51,32s1.5-0.673,1.5-1.5S51.828,29,51,29z"/>
	</g>
	<g>
		<path class="st0" d="M57,37H32c-1.381,0-2.5,1.119-2.5,2.5c0,1.381,1.119,2.5,2.5,2.5h8.5c-1.381,0-2.5,1.119-2.5,2.5
			c0,1.381,1.119,2.5,2.5,2.5h13c1.381,0,2.5-1.119,2.5-2.5c0-1.381-1.119-2.5-2.5-2.5H57c1.381,0,2.5-1.119,2.5-2.5
			C59.5,38.119,58.381,37,57,37z"/>
		<path class="st1" d="M53.5,47.5h-13c-1.654,0-3-1.346-3-3c0-0.768,0.29-1.469,0.766-2H32c-1.654,0-3-1.346-3-3s1.346-3,3-3h25
			c1.654,0,3,1.346,3,3s-1.346,3-3,3h-1.266c0.476,0.531,0.766,1.232,0.766,2C56.5,46.154,55.155,47.5,53.5,47.5z M40.5,42.5
			c-1.103,0-2,0.897-2,2s0.897,2,2,2h13c1.103,0,2-0.897,2-2s-0.897-2-2-2c-0.276,0-0.5-0.224-0.5-0.5s0.224-0.5,0.5-0.5H57
			c1.103,0,2-0.897,2-2s-0.897-2-2-2H32c-1.103,0-2,0.897-2,2s0.897,2,2,2h8.5c0.276,0,0.5,0.224,0.5,0.5S40.777,42.5,40.5,42.5z"/>
	</g>
	<g>
		<path class="st2" d="M61,37H36c-1.381,0-2.5,1.119-2.5,2.5c0,1.381,1.119,2.5,2.5,2.5h8.5c-1.381,0-2.5,1.119-2.5,2.5
			c0,1.381,1.119,2.5,2.5,2.5h13c1.381,0,2.5-1.119,2.5-2.5c0-1.381-1.119-2.5-2.5-2.5H61c1.381,0,2.5-1.119,2.5-2.5
			C63.5,38.119,62.381,37,61,37z"/>
		<path class="st1" d="M57.5,47.5h-13c-1.654,0-3-1.346-3-3c0-0.768,0.29-1.469,0.766-2H36c-1.654,0-3-1.346-3-3s1.346-3,3-3h25
			c1.654,0,3,1.346,3,3s-1.346,3-3,3h-1.266c0.476,0.531,0.766,1.232,0.766,2C60.5,46.154,59.155,47.5,57.5,47.5z M44.5,42.5
			c-1.103,0-2,0.897-2,2s0.897,2,2,2h13c1.103,0,2-0.897,2-2s-0.897-2-2-2c-0.276,0-0.5-0.224-0.5-0.5s0.224-0.5,0.5-0.5H61
			c1.103,0,2-0.897,2-2s-0.897-2-2-2H36c-1.103,0-2,0.897-2,2s0.897,2,2,2h8.5c0.276,0,0.5,0.224,0.5,0.5S44.777,42.5,44.5,42.5z"/>
	</g>
	<g>
		<path class="st1" d="M7,60c-0.276,0-0.5-0.224-0.5-0.5v-5C6.5,54.224,6.724,54,7,54s0.5,0.224,0.5,0.5v5C7.5,59.776,7.277,60,7,60
			z"/>
	</g>
	<g>
		<path class="st1" d="M9.5,57.5h-5C4.224,57.5,4,57.276,4,57s0.224-0.5,0.5-0.5h5c0.276,0,0.5,0.224,0.5,0.5S9.777,57.5,9.5,57.5z"
			/>
	</g>
	<g>
		<path class="st1" d="M57,10c-0.276,0-0.5-0.224-0.5-0.5v-5C56.5,4.224,56.724,4,57,4s0.5,0.224,0.5,0.5v5
			C57.5,9.776,57.277,10,57,10z"/>
	</g>
	<g>
		<path class="st1" d="M59.5,7.5h-5C54.224,7.5,54,7.276,54,7s0.224-0.5,0.5-0.5h5C59.777,6.5,60,6.724,60,7S59.777,7.5,59.5,7.5z"
			/>
	</g>
	<g>
		<path class="st0" d="M28,27h-9c1.381,0,2.5-1.119,2.5-2.5c0-1.381-1.119-2.5-2.5-2.5H6c-1.381,0-2.5,1.119-2.5,2.5
			C3.5,25.88,4.62,27,6,27H3c-1.381,0-2.5,1.119-2.5,2.5C0.5,30.88,1.62,32,3,32h25c1.381,0,2.5-1.119,2.5-2.5
			C30.5,28.119,29.381,27,28,27z"/>
		<path class="st1" d="M28,32.5H3c-1.654,0-3-1.346-3-3s1.346-3,3-3h0.766C3.291,25.969,3,25.268,3,24.5c0-1.654,1.346-3,3-3h13
			c1.654,0,3,1.346,3,3c0,0.768-0.29,1.469-0.766,2H28c1.654,0,3,1.346,3,3S29.655,32.5,28,32.5z M3,27.5c-1.103,0-2,0.897-2,2
			s0.897,2,2,2h25c1.103,0,2-0.897,2-2s-0.897-2-2-2h-9c-0.276,0-0.5-0.224-0.5-0.5s0.224-0.5,0.5-0.5c1.103,0,2-0.897,2-2
			s-0.897-2-2-2H6c-1.103,0-2,0.897-2,2s0.897,2,2,2c0.276,0,0.5,0.224,0.5,0.5S6.277,27.5,6,27.5H3z"/>
	</g>
	<g>
		<path class="st2" d="M29,27h-9c1.381,0,2.5-1.119,2.5-2.5c0-1.381-1.119-2.5-2.5-2.5H10c-1.381,0-2.5,1.119-2.5,2.5
			C7.5,25.88,8.62,27,10,27H7c-1.381,0-2.5,1.119-2.5,2.5C4.5,30.88,5.62,32,7,32h22c1.381,0,2.5-1.119,2.5-2.5
			C31.5,28.119,30.381,27,29,27z"/>
		<path class="st1" d="M29,32.5H7c-1.654,0-3-1.346-3-3s1.346-3,3-3h0.766C7.291,25.969,7,25.268,7,24.5c0-1.654,1.346-3,3-3h10
			c1.654,0,3,1.346,3,3c0,0.768-0.29,1.469-0.766,2H29c1.654,0,3,1.346,3,3S30.655,32.5,29,32.5z M7,27.5c-1.103,0-2,0.897-2,2
			s0.897,2,2,2h22c1.103,0,2-0.897,2-2s-0.897-2-2-2h-9c-0.276,0-0.5-0.224-0.5-0.5s0.224-0.5,0.5-0.5c1.103,0,2-0.897,2-2
			s-0.897-2-2-2H10c-1.103,0-2,0.897-2,2s0.897,2,2,2c0.276,0,0.5,0.224,0.5,0.5s-0.224,0.5-0.5,0.5H7z"/>
	</g>
</g>
</svg>
