<?xml version="1.0" encoding="utf-8"?>
<!-- Generator: Adobe Illustrator 21.1.0, SVG Export Plug-In . SVG Version: 6.00 Build 0)  -->
<svg version="1.1" id="Layer_1" xmlns="http://www.w3.org/2000/svg" xmlns:xlink="http://www.w3.org/1999/xlink" x="0px" y="0px"
	 viewBox="0 0 64 64" style="enable-background:new 0 0 64 64;" xml:space="preserve">
<style type="text/css">
	.st0{fill:#DB8E11;}
	.st1{fill:#212A41;}
	.st2{fill:#F9AC2F;}
	.st3{fill:#FFCA4D;}
	.st4{fill:#B7C0D7;}
	.st5{fill:#99A2B9;}
	.st6{fill:#B51040;}
	.st7{fill:#D32E5E;}
	.st8{fill:#F14C7C;}
	.st9{fill:#0079A8;}
	.st10{fill:#1E97C6;}
	.st11{fill:#BED38E;}
	.st12{fill:#A0B570;}
	.st13{fill:#DCF1AC;}
	.st14{fill:#D5DEF5;}
	.st15{fill:#4E4B51;}
	.st16{fill:#6C696F;}
	.st17{fill:#848483;}
	.st18{fill:#A2A2A1;}
	.st19{fill:#7B849B;}
	.st20{fill:#8A878D;}
	.st21{fill:#C0C0BF;}
	.st22{fill:#005B8A;}
	.st23{fill:#970022;}
	.st24{fill:#1A237E;}
	.st25{fill:#BD7000;}
	.st26{fill:#003D6C;}
	.st27{fill:#666665;}
	.st28{fill:#195190;}
</style>
<g id="Extraterrestial_Civilization">
	<g>
		<path class="st17" d="M52.375,58.5h-5c-0.552,0-1-0.448-1-1v-24c0-0.552,0.448-1,1-1h5c0.552,0,1,0.448,1,1v24
			C53.375,58.052,52.927,58.5,52.375,58.5z"/>
		<path class="st1" d="M52.375,59h-5c-0.827,0-1.5-0.673-1.5-1.5v-24c0-0.827,0.673-1.5,1.5-1.5h5c0.827,0,1.5,0.673,1.5,1.5v24
			C53.875,58.327,53.202,59,52.375,59z M47.375,33c-0.275,0-0.5,0.224-0.5,0.5v24c0,0.276,0.225,0.5,0.5,0.5h5
			c0.275,0,0.5-0.224,0.5-0.5v-24c0-0.276-0.225-0.5-0.5-0.5H47.375z"/>
	</g>
	<g>
		<path class="st18" d="M59.375,58.5h-5c-0.552,0-1-0.448-1-1v-24c0-0.552,0.448-1,1-1h5c0.552,0,1,0.448,1,1v24
			C60.375,58.052,59.927,58.5,59.375,58.5z"/>
		<path class="st1" d="M59.375,59h-5c-0.827,0-1.5-0.673-1.5-1.5v-24c0-0.827,0.673-1.5,1.5-1.5h5c0.827,0,1.5,0.673,1.5,1.5v24
			C60.875,58.327,60.202,59,59.375,59z M54.375,33c-0.275,0-0.5,0.224-0.5,0.5v24c0,0.276,0.225,0.5,0.5,0.5h5
			c0.275,0,0.5-0.224,0.5-0.5v-24c0-0.276-0.225-0.5-0.5-0.5H54.375z"/>
	</g>
	<g>
		<path class="st17" d="M53.375,32.5h-5v-15c0-0.552,0.448-1,1-1h3c0.552,0,1,0.448,1,1V32.5z"/>
		<path class="st1" d="M53.375,33h-5c-0.276,0-0.5-0.224-0.5-0.5v-15c0-0.827,0.673-1.5,1.5-1.5h3c0.827,0,1.5,0.673,1.5,1.5v15
			C53.875,32.776,53.651,33,53.375,33z M48.875,32h4V17.5c0-0.276-0.225-0.5-0.5-0.5h-3c-0.275,0-0.5,0.224-0.5,0.5V32z"/>
	</g>
	<g>
		<path class="st18" d="M58.375,32.5h-5v-15c0-0.552,0.448-1,1-1h3c0.552,0,1,0.448,1,1V32.5z"/>
		<path class="st1" d="M58.375,33h-5c-0.276,0-0.5-0.224-0.5-0.5v-15c0-0.827,0.673-1.5,1.5-1.5h3c0.827,0,1.5,0.673,1.5,1.5v15
			C58.875,32.776,58.651,33,58.375,33z M53.875,32h4V17.5c0-0.276-0.225-0.5-0.5-0.5h-3c-0.275,0-0.5,0.224-0.5,0.5V32z"/>
	</g>
	<g>
		<path class="st17" d="M58.375,57c-0.276,0-0.5-0.224-0.5-0.5v-22c0-0.276,0.224-0.5,0.5-0.5s0.5,0.224,0.5,0.5v22
			C58.875,56.776,58.651,57,58.375,57z"/>
	</g>
	<g>
		<path class="st18" d="M48.375,57c-0.276,0-0.5-0.224-0.5-0.5v-22c0-0.276,0.224-0.5,0.5-0.5s0.5,0.224,0.5,0.5v22
			C48.875,56.776,48.651,57,48.375,57z"/>
	</g>
	<g>
		<path class="st5" d="M10.375,58.5h-6c-0.552,0-1-0.448-1-1v-27c0-0.552,0.448-1,1-1h6V58.5z"/>
		<path class="st1" d="M10.375,59h-6c-0.827,0-1.5-0.673-1.5-1.5v-27c0-0.827,0.673-1.5,1.5-1.5h6c0.276,0,0.5,0.224,0.5,0.5v29
			C10.875,58.776,10.651,59,10.375,59z M4.375,30c-0.275,0-0.5,0.224-0.5,0.5v27c0,0.276,0.225,0.5,0.5,0.5h5.5V30H4.375z"/>
	</g>
	<g>
		<path class="st4" d="M17.375,58.5h-7v-29l5.953,4.252c0.657,0.469,1.047,1.227,1.047,2.034V58.5z"/>
		<path class="st1" d="M17.375,59h-7c-0.276,0-0.5-0.224-0.5-0.5v-29c0-0.188,0.104-0.359,0.271-0.445s0.366-0.072,0.52,0.038
			l5.953,4.252c0.786,0.562,1.256,1.474,1.256,2.441V58.5C17.875,58.776,17.651,59,17.375,59z M10.875,58h6V35.787
			c0-0.645-0.313-1.253-0.838-1.627l-5.162-3.688V58z"/>
	</g>
	<g>
		<rect x="10.375" y="38.5" class="st4" width="3" height="20"/>
		<path class="st1" d="M13.375,59h-3c-0.276,0-0.5-0.224-0.5-0.5v-20c0-0.276,0.224-0.5,0.5-0.5h3c0.276,0,0.5,0.224,0.5,0.5v20
			C13.875,58.776,13.651,59,13.375,59z M10.875,58h2V39h-2V58z"/>
	</g>
	<g>
		<path class="st4" d="M5.375,57c-0.276,0-0.5-0.224-0.5-0.5v-25c0-0.276,0.224-0.5,0.5-0.5s0.5,0.224,0.5,0.5v25
			C5.875,56.776,5.651,57,5.375,57z"/>
	</g>
	<g>
		<polygon class="st5" points="31,58.5 53.5,58.5 46,40 		"/>
		<path class="st1" d="M53.5,59H31c-0.192,0-0.368-0.111-0.451-0.285c-0.083-0.174-0.059-0.38,0.062-0.53l15-18.5
			c0.111-0.137,0.284-0.201,0.463-0.18c0.175,0.026,0.322,0.143,0.389,0.307l7.5,18.5c0.062,0.154,0.045,0.33-0.048,0.467
			C53.821,58.917,53.666,59,53.5,59z M32.049,58h20.709l-6.903-17.027L32.049,58z"/>
	</g>
	<g>
		<path class="st15" d="M54,58.5H3c-1.381,0-2.5,1.119-2.5,2.5v0c0,1.381,1.119,2.5,2.5,2.5h51c1.381,0,2.5-1.119,2.5-2.5v0
			C56.5,59.619,55.381,58.5,54,58.5z"/>
		<path class="st1" d="M54,64H3c-1.654,0-3-1.346-3-3s1.346-3,3-3h51c1.654,0,3,1.346,3,3S55.654,64,54,64z M3,59
			c-1.103,0-2,0.897-2,2s0.897,2,2,2h51c1.103,0,2-0.897,2-2s-0.897-2-2-2H3z"/>
	</g>
	<g>
		<polygon class="st4" points="61,58.5 38.5,58.5 46,40 		"/>
		<path class="st1" d="M61,59H38.5c-0.166,0-0.321-0.083-0.415-0.221c-0.093-0.138-0.11-0.313-0.048-0.467l7.5-18.5
			c0.066-0.164,0.214-0.28,0.389-0.307c0.182-0.021,0.352,0.042,0.463,0.18l15,18.5c0.121,0.15,0.146,0.356,0.062,0.53
			C61.368,58.889,61.192,59,61,59z M39.242,58h20.709L46.146,40.973L39.242,58z"/>
	</g>
	<g>
		<path class="st5" d="M56.804,57c-0.146,0-0.289-0.063-0.389-0.185L46.191,44.207c-0.174-0.214-0.141-0.529,0.074-0.703
			c0.211-0.174,0.529-0.143,0.703,0.073l10.224,12.608c0.174,0.214,0.141,0.529-0.074,0.703C57.026,56.963,56.915,57,56.804,57z"/>
	</g>
	<g>
		<polygon class="st0" points="34.5,58.5 4.5,58.5 24.5,33.5 		"/>
		<path class="st1" d="M34.5,59h-30c-0.192,0-0.367-0.11-0.45-0.283c-0.084-0.173-0.061-0.379,0.06-0.529l20-25
			c0.111-0.139,0.286-0.209,0.464-0.182c0.176,0.026,0.325,0.144,0.391,0.309l10,25c0.062,0.154,0.043,0.329-0.05,0.466
			S34.666,59,34.5,59z M5.54,58h28.222l-9.407-23.518L5.54,58z"/>
	</g>
	<g>
		<polygon class="st2" points="44.5,58.5 14.5,58.5 24.5,33.5 		"/>
		<path class="st1" d="M44.5,59h-30c-0.166,0-0.321-0.083-0.414-0.22s-0.111-0.312-0.05-0.466l10-25
			c0.065-0.166,0.215-0.283,0.391-0.309c0.178-0.024,0.353,0.043,0.464,0.182l20,25c0.12,0.15,0.144,0.356,0.06,0.529
			C44.867,58.89,44.692,59,44.5,59z M15.238,58H43.46L24.646,34.482L15.238,58z"/>
	</g>
	<g>
		<path class="st3" d="M17.454,57c-0.062,0-0.125-0.011-0.186-0.036c-0.257-0.103-0.381-0.394-0.278-0.65l7.628-19.07
			c0.103-0.257,0.394-0.383,0.649-0.279c0.257,0.103,0.381,0.394,0.278,0.65l-7.628,19.07C17.84,56.881,17.652,57,17.454,57z"/>
	</g>
	<g>
		<path class="st16" d="M61,58.5H10c-1.381,0-2.5,1.119-2.5,2.5v0c0,1.381,1.119,2.5,2.5,2.5h51c1.381,0,2.5-1.119,2.5-2.5v0
			C63.5,59.619,62.381,58.5,61,58.5z"/>
		<path class="st1" d="M61,64H10c-1.654,0-3-1.346-3-3s1.346-3,3-3h51c1.654,0,3,1.346,3,3S62.654,64,61,64z M10,59
			c-1.103,0-2,0.897-2,2s0.897,2,2,2h51c1.103,0,2-0.897,2-2s-0.897-2-2-2H10z"/>
	</g>
	<g>
		<path class="st1" d="M39,18.5c-0.151,0-0.302-0.069-0.4-0.2l-3-4c-0.165-0.221-0.12-0.534,0.101-0.7
			c0.221-0.165,0.533-0.122,0.7,0.1l3,4c0.165,0.221,0.12,0.534-0.101,0.7C39.21,18.467,39.104,18.5,39,18.5z"/>
	</g>
	<g>
		<path class="st1" d="M25,18.5c-0.104,0-0.21-0.033-0.3-0.1c-0.221-0.166-0.266-0.479-0.101-0.7l3-4
			c0.167-0.222,0.48-0.265,0.7-0.1c0.221,0.166,0.266,0.479,0.101,0.7l-3,4C25.302,18.431,25.151,18.5,25,18.5z"/>
	</g>
	<g>
		<path class="st4" d="M41.753,12H22.247c-0.64,0-1.115-0.592-0.976-1.217l0.295-1.325c0.254-1.144,1.269-1.958,2.44-1.958h15.989
			c1.172,0,2.186,0.814,2.44,1.958l0.295,1.325C42.868,11.408,42.393,12,41.753,12z"/>
		<path class="st1" d="M41.753,12.5H22.247c-0.458,0-0.885-0.205-1.171-0.561c-0.286-0.357-0.393-0.817-0.294-1.264l0.295-1.326
			C21.385,7.966,22.589,7,24.006,7h15.988c1.417,0,2.621,0.966,2.929,2.349l0.295,1.326c0.099,0.447-0.008,0.907-0.294,1.264
			C42.638,12.295,42.211,12.5,41.753,12.5z M24.006,8c-0.944,0-1.748,0.644-1.952,1.566l-0.295,1.326
			c-0.033,0.149,0.003,0.303,0.098,0.421c0.096,0.119,0.238,0.187,0.391,0.187h19.506c0.152,0,0.295-0.068,0.391-0.187
			c0.095-0.119,0.131-0.272,0.098-0.421l-0.295-1.326C41.742,8.644,40.938,8,39.994,8H24.006z"/>
	</g>
	<g>
		<path class="st7" d="M23.523,12c1.237,2.329,4.56,4,8.477,4s7.24-1.671,8.477-4H23.523z"/>
		<path class="st1" d="M32,16.5c-3.979,0-7.563-1.714-8.918-4.266c-0.082-0.155-0.077-0.342,0.013-0.492
			c0.091-0.15,0.253-0.242,0.429-0.242h16.953c0.176,0,0.338,0.092,0.429,0.242c0.09,0.15,0.095,0.337,0.013,0.492
			C39.563,14.786,35.979,16.5,32,16.5z M24.448,12.5c1.444,1.822,4.345,3,7.552,3s6.107-1.178,7.552-3H24.448z"/>
	</g>
	<g>
		<path class="st9" d="M32,0.5c-3.866,0-7,3.134-7,7h14C39,3.634,35.866,0.5,32,0.5z"/>
		<path class="st1" d="M39,8H25c-0.276,0-0.5-0.224-0.5-0.5C24.5,3.364,27.864,0,32,0s7.5,3.364,7.5,7.5C39.5,7.776,39.276,8,39,8z
			 M25.519,7h12.963C38.225,3.648,35.416,1,32,1S25.775,3.648,25.519,7z"/>
	</g>
	<g>
		<path class="st10" d="M27.418,6c-0.067,0-0.135-0.013-0.2-0.042c-0.253-0.111-0.368-0.406-0.258-0.659C27.837,3.295,29.815,2,32,2
			c0.276,0,0.5,0.224,0.5,0.5S32.276,3,32,3c-1.787,0-3.406,1.06-4.124,2.701C27.794,5.888,27.61,6,27.418,6z"/>
	</g>
	<g>
		<path class="st1" d="M32,18.5c-0.276,0-0.5-0.224-0.5-0.5v-4c0-0.276,0.224-0.5,0.5-0.5s0.5,0.224,0.5,0.5v4
			C32.5,18.276,32.276,18.5,32,18.5z"/>
	</g>
	<g>
		<circle class="st18" cx="9" cy="7.5" r="2"/>
		<path class="st1" d="M9,10c-1.379,0-2.5-1.122-2.5-2.5S7.621,5,9,5s2.5,1.122,2.5,2.5S10.379,10,9,10z M9,6
			C8.173,6,7.5,6.673,7.5,7.5S8.173,9,9,9s1.5-0.673,1.5-1.5S9.827,6,9,6z"/>
	</g>
	<g>
		<circle class="st18" cx="36.5" cy="31" r="3"/>
		<path class="st1" d="M36.5,34.5c-1.93,0-3.5-1.57-3.5-3.5s1.57-3.5,3.5-3.5S40,29.07,40,31S38.43,34.5,36.5,34.5z M36.5,28.5
			c-1.379,0-2.5,1.122-2.5,2.5s1.121,2.5,2.5,2.5S39,32.378,39,31S37.879,28.5,36.5,28.5z"/>
	</g>
	<g>
		<path class="st1" d="M16.5,27.5c-0.276,0-0.5-0.224-0.5-0.5v-5c0-0.276,0.224-0.5,0.5-0.5S17,21.724,17,22v5
			C17,27.276,16.776,27.5,16.5,27.5z"/>
	</g>
	<g>
		<path class="st1" d="M19,25h-5c-0.276,0-0.5-0.224-0.5-0.5S13.724,24,14,24h5c0.276,0,0.5,0.224,0.5,0.5S19.276,25,19,25z"/>
	</g>
	<g>
		<path class="st1" d="M29.5,59c-0.15,0-0.295-0.068-0.391-0.188l-10-12.5c-0.12-0.15-0.144-0.356-0.06-0.529
			c0.083-0.173,0.258-0.283,0.45-0.283h15c0.166,0,0.321,0.083,0.414,0.22s0.111,0.312,0.05,0.466l-5,12.5
			c-0.065,0.166-0.215,0.283-0.391,0.309C29.549,58.998,29.524,59,29.5,59z M20.54,46.5l8.814,11.018L33.762,46.5H20.54z"/>
	</g>
	<g>
		<path class="st1" d="M49.75,59c-0.149,0-0.293-0.067-0.389-0.185l-7.5-9.25c-0.121-0.15-0.146-0.356-0.062-0.53
			c0.083-0.174,0.259-0.285,0.451-0.285H53.5c0.166,0,0.321,0.083,0.415,0.221c0.093,0.138,0.11,0.313,0.048,0.467l-3.75,9.25
			c-0.066,0.164-0.214,0.28-0.389,0.307C49.799,58.998,49.774,59,49.75,59z M43.299,49.75l6.306,7.777l3.153-7.777H43.299z"/>
	</g>
	<g>
		<path class="st1" d="M18,16.5H8c-0.276,0-0.5-0.224-0.5-0.5s0.224-0.5,0.5-0.5h10c0.276,0,0.5,0.224,0.5,0.5S18.276,16.5,18,16.5z
			"/>
	</g>
	<g>
		<path class="st1" d="M6,16.5H5c-0.276,0-0.5-0.224-0.5-0.5s0.224-0.5,0.5-0.5h1c0.276,0,0.5,0.224,0.5,0.5S6.276,16.5,6,16.5z"/>
	</g>
	<g>
		<path class="st1" d="M56,8H46c-0.276,0-0.5-0.224-0.5-0.5S45.724,7,46,7h10c0.276,0,0.5,0.224,0.5,0.5S56.276,8,56,8z"/>
	</g>
	<g>
		<path class="st1" d="M59,8h-1c-0.276,0-0.5-0.224-0.5-0.5S57.724,7,58,7h1c0.276,0,0.5,0.224,0.5,0.5S59.276,8,59,8z"/>
	</g>
</g>
</svg>
