<?xml version="1.0" encoding="utf-8"?>
<!-- Generator: Adobe Illustrator 21.1.0, SVG Export Plug-In . SVG Version: 6.00 Build 0)  -->
<svg version="1.1" id="Layer_1" xmlns="http://www.w3.org/2000/svg" xmlns:xlink="http://www.w3.org/1999/xlink" x="0px" y="0px"
	 viewBox="0 0 64 64" style="enable-background:new 0 0 64 64;" xml:space="preserve">
<style type="text/css">
	.st0{fill:#DB8E11;}
	.st1{fill:#212A41;}
	.st2{fill:#F9AC2F;}
	.st3{fill:#FFCA4D;}
	.st4{fill:#B7C0D7;}
	.st5{fill:#99A2B9;}
	.st6{fill:#B51040;}
	.st7{fill:#D32E5E;}
	.st8{fill:#F14C7C;}
	.st9{fill:#0079A8;}
	.st10{fill:#1E97C6;}
	.st11{fill:#BED38E;}
	.st12{fill:#A0B570;}
	.st13{fill:#DCF1AC;}
	.st14{fill:#D5DEF5;}
	.st15{fill:#4E4B51;}
	.st16{fill:#6C696F;}
	.st17{fill:#848483;}
	.st18{fill:#A2A2A1;}
	.st19{fill:#7B849B;}
	.st20{fill:#8A878D;}
	.st21{fill:#C0C0BF;}
	.st22{fill:#005B8A;}
	.st23{fill:#970022;}
	.st24{fill:#1A237E;}
	.st25{fill:#BD7000;}
	.st26{fill:#003D6C;}
	.st27{fill:#666665;}
	.st28{fill:#195190;}
</style>
<g id="Floating_Robot_Head">
	<g>
		<circle class="st5" cx="32" cy="32" r="24"/>
		<path class="st1" d="M32,56.5C18.49,56.5,7.5,45.509,7.5,32S18.49,7.5,32,7.5S56.5,18.491,56.5,32S45.51,56.5,32,56.5z M32,8.5
			C19.042,8.5,8.5,19.042,8.5,32S19.042,55.5,32,55.5S55.5,44.958,55.5,32S44.958,8.5,32,8.5z"/>
	</g>
	<g>
		<path class="st4" d="M10,32.5c-0.276,0-0.5-0.224-0.5-0.5C9.5,19.593,19.594,9.5,32,9.5c0.276,0,0.5,0.224,0.5,0.5
			s-0.224,0.5-0.5,0.5c-11.855,0-21.5,9.645-21.5,21.5C10.5,32.276,10.276,32.5,10,32.5z"/>
	</g>
	<g>
		<circle class="st4" cx="37.217" cy="32" r="18.783"/>
		<path class="st1" d="M37.218,51.283c-10.633,0-19.283-8.65-19.283-19.283s8.65-19.283,19.283-19.283
			C47.85,12.717,56.5,21.368,56.5,32S47.85,51.283,37.218,51.283z M37.218,13.717c-10.081,0-18.283,8.202-18.283,18.283
			s8.202,18.283,18.283,18.283S55.5,42.081,55.5,32S47.299,13.717,37.218,13.717z"/>
	</g>
	<g>
		<path class="st14" d="M20.435,32.5c-0.276,0-0.5-0.224-0.5-0.5c0-9.53,7.753-17.283,17.283-17.283c0.276,0,0.5,0.224,0.5,0.5
			s-0.224,0.5-0.5,0.5c-8.979,0-16.283,7.304-16.283,16.283C20.935,32.276,20.711,32.5,20.435,32.5z"/>
	</g>
	<g>
		<path class="st9" d="M47.5,40h-14c-2.761,0-5-2.239-5-5v-6c0-2.761,2.239-5,5-5h14c2.761,0,5,2.239,5,5v6
			C52.5,37.761,50.261,40,47.5,40z"/>
		<path class="st1" d="M47.5,40.5h-14c-3.032,0-5.5-2.467-5.5-5.5v-6c0-3.033,2.468-5.5,5.5-5.5h14c3.032,0,5.5,2.467,5.5,5.5v6
			C53,38.033,50.532,40.5,47.5,40.5z M33.5,24.5c-2.481,0-4.5,2.019-4.5,4.5v6c0,2.481,2.019,4.5,4.5,4.5h14
			c2.481,0,4.5-2.019,4.5-4.5v-6c0-2.481-2.019-4.5-4.5-4.5H33.5z"/>
	</g>
	<g>
		<path class="st10" d="M30.5,35.5c-0.276,0-0.5-0.224-0.5-0.5v-6c0-0.276,0.224-0.5,0.5-0.5S31,28.724,31,29v6
			C31,35.276,30.776,35.5,30.5,35.5z"/>
	</g>
	<g>
		<circle class="st2" cx="35.5" cy="30" r="2.5"/>
		<path class="st1" d="M35.5,33c-1.654,0-3-1.346-3-3s1.346-3,3-3s3,1.346,3,3S37.154,33,35.5,33z M35.5,28c-1.103,0-2,0.897-2,2
			s0.897,2,2,2s2-0.897,2-2S36.603,28,35.5,28z"/>
	</g>
	<g>
		<circle class="st2" cx="46.5" cy="30" r="2.5"/>
		<path class="st1" d="M46.5,33c-1.654,0-3-1.346-3-3s1.346-3,3-3s3,1.346,3,3S48.154,33,46.5,33z M46.5,28c-1.103,0-2,0.897-2,2
			s0.897,2,2,2s2-0.897,2-2S47.603,28,46.5,28z"/>
	</g>
	<g>
		<path class="st1" d="M41,36.996c-1.548,0-3.096-0.54-4.329-1.62c-0.208-0.182-0.229-0.498-0.047-0.706
			c0.182-0.209,0.498-0.229,0.705-0.047c2.094,1.832,5.248,1.832,7.342,0c0.207-0.181,0.523-0.162,0.705,0.047
			c0.183,0.208,0.161,0.523-0.047,0.706C44.096,36.456,42.548,36.996,41,36.996z"/>
	</g>
	<g>
		<path class="st1" d="M13.125,34.5c-1.379,0-2.5-1.122-2.5-2.5s1.121-2.5,2.5-2.5s2.5,1.122,2.5,2.5S14.504,34.5,13.125,34.5z
			 M13.125,30.5c-0.827,0-1.5,0.673-1.5,1.5s0.673,1.5,1.5,1.5s1.5-0.673,1.5-1.5S13.952,30.5,13.125,30.5z"/>
	</g>
	<g>
		<path class="st1" d="M40.5,47.5c-1.379,0-2.5-1.122-2.5-2.5s1.121-2.5,2.5-2.5S43,43.622,43,45S41.879,47.5,40.5,47.5z M40.5,43.5
			c-0.827,0-1.5,0.673-1.5,1.5s0.673,1.5,1.5,1.5S42,45.827,42,45S41.327,43.5,40.5,43.5z"/>
	</g>
	<g>
		<path class="st1" d="M58,11c-0.276,0-0.5-0.224-0.5-0.5v-5C57.5,5.224,57.724,5,58,5s0.5,0.224,0.5,0.5v5
			C58.5,10.776,58.276,11,58,11z"/>
	</g>
	<g>
		<path class="st1" d="M60.5,8.5h-5C55.224,8.5,55,8.276,55,8s0.224-0.5,0.5-0.5h5C60.776,7.5,61,7.724,61,8S60.776,8.5,60.5,8.5z"
			/>
	</g>
	<g>
		<path class="st1" d="M42,22c-1.379,0-2.5-1.122-2.5-2.5S40.621,17,42,17s2.5,1.122,2.5,2.5S43.379,22,42,22z M42,18
			c-0.827,0-1.5,0.673-1.5,1.5S41.173,21,42,21s1.5-0.673,1.5-1.5S42.827,18,42,18z"/>
	</g>
	<g>
		<path class="st1" d="M16,11H9.5c-1.103,0-2-0.897-2-2V8.75C7.5,7.785,8.285,7,9.25,7C9.663,7,10,6.664,10,6.25V6
			c0-0.551-0.448-1-1-1H5C4.724,5,4.5,4.776,4.5,4.5S4.724,4,5,4h4c1.103,0,2,0.897,2,2v0.25C11,7.215,10.215,8,9.25,8
			C8.837,8,8.5,8.336,8.5,8.75V9c0,0.551,0.448,1,1,1H16c0.276,0,0.5,0.224,0.5,0.5S16.276,11,16,11z"/>
	</g>
	<g>
		<path class="st1" d="M3,5H2C1.724,5,1.5,4.776,1.5,4.5S1.724,4,2,4h1c0.276,0,0.5,0.224,0.5,0.5S3.276,5,3,5z"/>
	</g>
	<g>
		<path class="st1" d="M59,56.5H49c-0.276,0-0.5-0.224-0.5-0.5s0.224-0.5,0.5-0.5h10c0.276,0,0.5,0.224,0.5,0.5S59.276,56.5,59,56.5
			z"/>
	</g>
	<g>
		<path class="st1" d="M62,56.5h-1c-0.276,0-0.5-0.224-0.5-0.5s0.224-0.5,0.5-0.5h1c0.276,0,0.5,0.224,0.5,0.5S62.276,56.5,62,56.5z
			"/>
	</g>
	<g>
		<path class="st1" d="M9,60c-0.276,0-0.5-0.224-0.5-0.5v-5C8.5,54.224,8.724,54,9,54s0.5,0.224,0.5,0.5v5C9.5,59.776,9.276,60,9,60
			z"/>
	</g>
	<g>
		<path class="st1" d="M11.5,57.5h-5C6.224,57.5,6,57.276,6,57s0.224-0.5,0.5-0.5h5c0.276,0,0.5,0.224,0.5,0.5
			S11.776,57.5,11.5,57.5z"/>
	</g>
</g>
</svg>
