<?xml version="1.0" encoding="utf-8"?>
<!-- Generator: Adobe Illustrator 21.1.0, SVG Export Plug-In . SVG Version: 6.00 Build 0)  -->
<svg version="1.1" id="Layer_1" xmlns="http://www.w3.org/2000/svg" xmlns:xlink="http://www.w3.org/1999/xlink" x="0px" y="0px"
	 viewBox="0 0 64 64" style="enable-background:new 0 0 64 64;" xml:space="preserve">
<style type="text/css">
	.st0{fill:#DB8E11;}
	.st1{fill:#212A41;}
	.st2{fill:#F9AC2F;}
	.st3{fill:#FFCA4D;}
	.st4{fill:#B7C0D7;}
	.st5{fill:#99A2B9;}
	.st6{fill:#B51040;}
	.st7{fill:#D32E5E;}
	.st8{fill:#F14C7C;}
	.st9{fill:#0079A8;}
	.st10{fill:#1E97C6;}
	.st11{fill:#BED38E;}
	.st12{fill:#A0B570;}
	.st13{fill:#DCF1AC;}
	.st14{fill:#D5DEF5;}
	.st15{fill:#4E4B51;}
	.st16{fill:#6C696F;}
	.st17{fill:#848483;}
	.st18{fill:#A2A2A1;}
	.st19{fill:#7B849B;}
	.st20{fill:#8A878D;}
	.st21{fill:#C0C0BF;}
	.st22{fill:#005B8A;}
	.st23{fill:#970022;}
	.st24{fill:#1A237E;}
	.st25{fill:#BD7000;}
	.st26{fill:#003D6C;}
	.st27{fill:#666665;}
	.st28{fill:#195190;}
</style>
<g id="Life_Dome_Planet_Base">
	<g>
		<path class="st15" d="M59.5,3.25h-12c-0.552,0-1,0.448-1,1v18c0,0.552,0.448,1,1,1h12c0.552,0,1-0.448,1-1v-18
			C60.5,3.698,60.052,3.25,59.5,3.25z"/>
		<path class="st1" d="M59.5,23.75h-12c-0.827,0-1.5-0.673-1.5-1.5v-18c0-0.827,0.673-1.5,1.5-1.5h12c0.827,0,1.5,0.673,1.5,1.5v18
			C61,23.077,60.327,23.75,59.5,23.75z M47.5,3.75c-0.276,0-0.5,0.224-0.5,0.5v18c0,0.276,0.224,0.5,0.5,0.5h12
			c0.276,0,0.5-0.224,0.5-0.5v-18c0-0.276-0.224-0.5-0.5-0.5H47.5z"/>
	</g>
	<g>
		<path class="st5" d="M39.5,54.25h-38c-0.552,0-1,0.448-1,1v4.5c0,0.552,0.448,1,1,1h38c0.552,0,1-0.448,1-1v-4.5
			C40.5,54.698,40.052,54.25,39.5,54.25z"/>
		<path class="st1" d="M39.5,61.25h-38c-0.827,0-1.5-0.673-1.5-1.5v-4.5c0-0.827,0.673-1.5,1.5-1.5h38c0.827,0,1.5,0.673,1.5,1.5
			v4.5C41,60.577,40.327,61.25,39.5,61.25z M1.5,54.75c-0.276,0-0.5,0.224-0.5,0.5v4.5c0,0.276,0.224,0.5,0.5,0.5h38
			c0.276,0,0.5-0.224,0.5-0.5v-4.5c0-0.276-0.224-0.5-0.5-0.5H1.5z"/>
	</g>
	<g>
		<rect x="7" y="44.75" class="st4" width="42" height="16"/>
		<path class="st1" d="M49,61.25H7c-0.276,0-0.5-0.224-0.5-0.5v-16c0-0.276,0.224-0.5,0.5-0.5h42c0.276,0,0.5,0.224,0.5,0.5v16
			C49.5,61.026,49.276,61.25,49,61.25z M7.5,60.25h41v-15h-41V60.25z"/>
	</g>
	<g>
		<rect x="55" y="17.75" class="st4" width="3" height="43"/>
		<path class="st1" d="M58,61.25h-3c-0.276,0-0.5-0.224-0.5-0.5v-43c0-0.276,0.224-0.5,0.5-0.5h3c0.276,0,0.5,0.224,0.5,0.5v43
			C58.5,61.026,58.276,61.25,58,61.25z M55.5,60.25h2v-42h-2V60.25z"/>
	</g>
	<g>
		<rect x="52" y="17.75" class="st5" width="3" height="43"/>
		<path class="st1" d="M55,61.25h-3c-0.276,0-0.5-0.224-0.5-0.5v-43c0-0.276,0.224-0.5,0.5-0.5h3c0.276,0,0.5,0.224,0.5,0.5v43
			C55.5,61.026,55.276,61.25,55,61.25z M52.5,60.25h2v-42h-2V60.25z"/>
	</g>
	<g>
		<path class="st18" d="M28,23.75c-11.598,0-21,9.402-21,21h42C49,33.152,39.598,23.75,28,23.75z"/>
		<path class="st1" d="M49,45.25H7c-0.276,0-0.5-0.224-0.5-0.5c0-11.855,9.645-21.5,21.5-21.5s21.5,9.645,21.5,21.5
			C49.5,45.026,49.276,45.25,49,45.25z M7.506,44.25h40.988c-0.266-11.074-9.357-20-20.494-20S7.772,33.176,7.506,44.25z"/>
	</g>
	<g>
		<path class="st21" d="M9.105,43.25c-0.018,0-0.035-0.001-0.053-0.003c-0.274-0.029-0.474-0.275-0.445-0.549
			C9.652,32.751,17.989,25.25,28,25.25c0.276,0,0.5,0.224,0.5,0.5s-0.224,0.5-0.5,0.5c-9.497,0-17.407,7.116-18.398,16.552
			C9.575,43.059,9.358,43.25,9.105,43.25z"/>
	</g>
	<g>
		<path class="st16" d="M62.5,3.25h-12c-0.552,0-1,0.448-1,1v18c0,0.552,0.448,1,1,1h12c0.552,0,1-0.448,1-1v-18
			C63.5,3.698,63.052,3.25,62.5,3.25z"/>
		<path class="st1" d="M62.5,23.75h-12c-0.827,0-1.5-0.673-1.5-1.5v-18c0-0.827,0.673-1.5,1.5-1.5h12c0.827,0,1.5,0.673,1.5,1.5v18
			C64,23.077,63.327,23.75,62.5,23.75z M50.5,3.75c-0.276,0-0.5,0.224-0.5,0.5v18c0,0.276,0.224,0.5,0.5,0.5h12
			c0.276,0,0.5-0.224,0.5-0.5v-18c0-0.276-0.224-0.5-0.5-0.5H50.5z"/>
	</g>
	<g>
		<path class="st1" d="M7,45.25c-0.128,0-0.256-0.049-0.354-0.146c-0.195-0.195-0.195-0.512,0-0.707l21-21
			c0.195-0.195,0.512-0.195,0.707,0s0.195,0.512,0,0.707l-21,21C7.256,45.201,7.128,45.25,7,45.25z"/>
	</g>
	<g>
		<path class="st1" d="M22,45.25c-0.128,0-0.256-0.049-0.354-0.146c-0.195-0.195-0.195-0.512,0-0.707l17.542-17.542
			c0.195-0.195,0.512-0.195,0.707,0s0.195,0.512,0,0.707L22.354,45.104C22.256,45.201,22.128,45.25,22,45.25z"/>
	</g>
	<g>
		<path class="st1" d="M37,45.25c-0.128,0-0.256-0.049-0.354-0.146c-0.195-0.195-0.195-0.512,0-0.707l9.652-9.652
			c0.195-0.195,0.512-0.195,0.707,0s0.195,0.512,0,0.707l-9.652,9.652C37.256,45.201,37.128,45.25,37,45.25z"/>
	</g>
	<g>
		<path class="st1" d="M49,45.25c-0.128,0-0.256-0.049-0.354-0.146l-21-21c-0.195-0.195-0.195-0.512,0-0.707s0.512-0.195,0.707,0
			l21,21c0.195,0.195,0.195,0.512,0,0.707C49.256,45.201,49.128,45.25,49,45.25z"/>
	</g>
	<g>
		<path class="st1" d="M34,45.25c-0.128,0-0.256-0.049-0.354-0.146L16.104,27.561c-0.195-0.195-0.195-0.512,0-0.707
			s0.512-0.195,0.707,0l17.542,17.542c0.195,0.195,0.195,0.512,0,0.707C34.256,45.201,34.128,45.25,34,45.25z"/>
	</g>
	<g>
		<path class="st1" d="M19,45.25c-0.128,0-0.256-0.049-0.354-0.146l-9.652-9.652c-0.195-0.195-0.195-0.512,0-0.707
			s0.512-0.195,0.707,0l9.652,9.652c0.195,0.195,0.195,0.512,0,0.707C19.256,45.201,19.128,45.25,19,45.25z"/>
	</g>
	<g>
		<path class="st1" d="M48.13,39.25H7.87c-0.276,0-0.5-0.224-0.5-0.5s0.224-0.5,0.5-0.5h40.26c0.276,0,0.5,0.224,0.5,0.5
			S48.406,39.25,48.13,39.25z"/>
	</g>
	<g>
		<path class="st1" d="M44.085,31.75h-32.17c-0.276,0-0.5-0.224-0.5-0.5s0.224-0.5,0.5-0.5h32.17c0.276,0,0.5,0.224,0.5,0.5
			S44.362,31.75,44.085,31.75z"/>
	</g>
	<g>
		<path class="st7" d="M43,54.25h-6v-5c0-0.552,0.448-1,1-1h4c0.552,0,1,0.448,1,1V54.25z"/>
		<path class="st1" d="M43,54.75h-6c-0.276,0-0.5-0.224-0.5-0.5v-5c0-0.827,0.673-1.5,1.5-1.5h4c0.827,0,1.5,0.673,1.5,1.5v5
			C43.5,54.526,43.276,54.75,43,54.75z M37.5,53.75h5v-4.5c0-0.276-0.224-0.5-0.5-0.5h-4c-0.276,0-0.5,0.224-0.5,0.5V53.75z"/>
	</g>
	<g>
		<path class="st1" d="M56.5,23.75c-0.276,0-0.5-0.224-0.5-0.5v-20c0-0.276,0.224-0.5,0.5-0.5S57,2.974,57,3.25v20
			C57,23.526,56.776,23.75,56.5,23.75z"/>
	</g>
	<g>
		<circle class="st2" cx="9.5" cy="13" r="6.5"/>
		<path class="st1" d="M9.5,20c-3.86,0-7-3.14-7-7s3.14-7,7-7s7,3.14,7,7S13.36,20,9.5,20z M9.5,7c-3.309,0-6,2.691-6,6s2.691,6,6,6
			s6-2.691,6-6S12.809,7,9.5,7z"/>
	</g>
	<g>
		<path class="st3" d="M5,13.5c-0.276,0-0.5-0.224-0.5-0.5c0-2.757,2.243-5,5-5C9.776,8,10,8.224,10,8.5S9.776,9,9.5,9
			c-2.206,0-4,1.794-4,4C5.5,13.276,5.276,13.5,5,13.5z"/>
	</g>
	<g>
		<path class="st0" d="M9.5,18C9.224,18,9,17.776,9,17.5S9.224,17,9.5,17c2.206,0,4-1.794,4-4c0-0.276,0.224-0.5,0.5-0.5
			s0.5,0.224,0.5,0.5C14.5,15.757,12.257,18,9.5,18z"/>
	</g>
	<g>
		<path class="st18" d="M17.5,14h-16c-0.552,0-1-0.448-1-1v0c0-0.552,0.448-1,1-1h16c0.552,0,1,0.448,1,1v0
			C18.5,13.552,18.052,14,17.5,14z"/>
		<path class="st1" d="M17.5,14.5h-16C0.673,14.5,0,13.827,0,13s0.673-1.5,1.5-1.5h16c0.827,0,1.5,0.673,1.5,1.5
			S18.327,14.5,17.5,14.5z M1.5,12.5C1.224,12.5,1,12.724,1,13s0.224,0.5,0.5,0.5h16c0.276,0,0.5-0.224,0.5-0.5s-0.224-0.5-0.5-0.5
			H1.5z"/>
	</g>
	<g>
		<circle class="st18" cx="37.5" cy="15" r="1.5"/>
		<path class="st1" d="M37.5,17c-1.103,0-2-0.897-2-2s0.897-2,2-2s2,0.897,2,2S38.603,17,37.5,17z M37.5,14c-0.551,0-1,0.449-1,1
			s0.449,1,1,1s1-0.449,1-1S38.051,14,37.5,14z"/>
	</g>
	<g>
		<circle class="st18" cx="28.5" cy="5.25" r="2"/>
		<path class="st1" d="M28.5,7.75c-1.378,0-2.5-1.122-2.5-2.5s1.122-2.5,2.5-2.5S31,3.872,31,5.25S29.878,7.75,28.5,7.75z
			 M28.5,3.75c-0.827,0-1.5,0.673-1.5,1.5s0.673,1.5,1.5,1.5S30,6.077,30,5.25S29.327,3.75,28.5,3.75z"/>
	</g>
	<g>
		<path class="st14" d="M9,59.25c-0.276,0-0.5-0.224-0.5-0.5v-12c0-0.276,0.224-0.5,0.5-0.5s0.5,0.224,0.5,0.5v12
			C9.5,59.026,9.276,59.25,9,59.25z"/>
	</g>
	<g>
		<path class="st5" d="M47,59.25c-0.276,0-0.5-0.224-0.5-0.5v-12c0-0.276,0.224-0.5,0.5-0.5s0.5,0.224,0.5,0.5v12
			C47.5,59.026,47.276,59.25,47,59.25z"/>
	</g>
	<g>
		<path class="st4" d="M54,54.25H16c-0.552,0-1,0.448-1,1v4.5c0,0.552,0.448,1,1,1h38c0.552,0,1-0.448,1-1v-4.5
			C55,54.698,54.552,54.25,54,54.25z"/>
		<path class="st1" d="M54,61.25H16c-0.827,0-1.5-0.673-1.5-1.5v-4.5c0-0.827,0.673-1.5,1.5-1.5h38c0.827,0,1.5,0.673,1.5,1.5v4.5
			C55.5,60.577,54.827,61.25,54,61.25z M16,54.75c-0.276,0-0.5,0.224-0.5,0.5v4.5c0,0.276,0.224,0.5,0.5,0.5h38
			c0.276,0,0.5-0.224,0.5-0.5v-4.5c0-0.276-0.224-0.5-0.5-0.5H16z"/>
	</g>
	<g>
		<path class="st1" d="M49,48.75H7c-0.276,0-0.5-0.224-0.5-0.5s0.224-0.5,0.5-0.5h42c0.276,0,0.5,0.224,0.5,0.5
			S49.276,48.75,49,48.75z"/>
	</g>
	<g>
		<path class="st20" d="M51.5,21.75c-0.276,0-0.5-0.224-0.5-0.5v-16c0-0.276,0.224-0.5,0.5-0.5S52,4.974,52,5.25v16
			C52,21.526,51.776,21.75,51.5,21.75z"/>
	</g>
	<g>
		<path class="st15" d="M61.5,21.75c-0.276,0-0.5-0.224-0.5-0.5v-16c0-0.276,0.224-0.5,0.5-0.5S62,4.974,62,5.25v16
			C62,21.526,61.776,21.75,61.5,21.75z"/>
	</g>
	<g>
		<path class="st1" d="M63.5,8.75h-14c-0.276,0-0.5-0.224-0.5-0.5s0.224-0.5,0.5-0.5h14c0.276,0,0.5,0.224,0.5,0.5
			S63.776,8.75,63.5,8.75z"/>
	</g>
	<g>
		<path class="st1" d="M63.5,13.75h-14c-0.276,0-0.5-0.224-0.5-0.5s0.224-0.5,0.5-0.5h14c0.276,0,0.5,0.224,0.5,0.5
			S63.776,13.75,63.5,13.75z"/>
	</g>
	<g>
		<path class="st1" d="M63.5,18.75h-14c-0.276,0-0.5-0.224-0.5-0.5s0.224-0.5,0.5-0.5h14c0.276,0,0.5,0.224,0.5,0.5
			S63.776,18.75,63.5,18.75z"/>
	</g>
</g>
</svg>
