<?xml version="1.0" encoding="utf-8"?>
<!-- Generator: Adobe Illustrator 21.1.0, SVG Export Plug-In . SVG Version: 6.00 Build 0)  -->
<svg version="1.1" id="Layer_1" xmlns="http://www.w3.org/2000/svg" xmlns:xlink="http://www.w3.org/1999/xlink" x="0px" y="0px"
	 viewBox="0 0 64 64" style="enable-background:new 0 0 64 64;" xml:space="preserve">
<style type="text/css">
	.st0{fill:#DB8E11;}
	.st1{fill:#212A41;}
	.st2{fill:#F9AC2F;}
	.st3{fill:#FFCA4D;}
	.st4{fill:#B7C0D7;}
	.st5{fill:#99A2B9;}
	.st6{fill:#B51040;}
	.st7{fill:#D32E5E;}
	.st8{fill:#F14C7C;}
	.st9{fill:#0079A8;}
	.st10{fill:#1E97C6;}
	.st11{fill:#BED38E;}
	.st12{fill:#A0B570;}
	.st13{fill:#DCF1AC;}
	.st14{fill:#D5DEF5;}
	.st15{fill:#4E4B51;}
	.st16{fill:#6C696F;}
	.st17{fill:#848483;}
	.st18{fill:#A2A2A1;}
	.st19{fill:#7B849B;}
	.st20{fill:#8A878D;}
	.st21{fill:#C0C0BF;}
	.st22{fill:#005B8A;}
	.st23{fill:#970022;}
	.st24{fill:#1A237E;}
	.st25{fill:#BD7000;}
	.st26{fill:#003D6C;}
	.st27{fill:#666665;}
	.st28{fill:#195190;}
</style>
<g id="Light_Speed_Travel">
	<g>
		<path class="st1" d="M33.501,62.499h-26c-0.276,0-0.5-0.224-0.5-0.5s0.224-0.5,0.5-0.5h26c16.267,0,29.5-13.233,29.5-29.5
			s-13.233-29.5-29.5-29.5h-26c-0.276,0-0.5-0.224-0.5-0.5s0.224-0.5,0.5-0.5h26c16.817,0,30.5,13.683,30.5,30.5
			S50.318,62.499,33.501,62.499z"/>
	</g>
	<g>
		<path class="st1" d="M33.501,57.499h-11c-0.276,0-0.5-0.224-0.5-0.5s0.224-0.5,0.5-0.5h11c13.51,0,24.5-10.99,24.5-24.5
			s-10.99-24.5-24.5-24.5h-11c-0.276,0-0.5-0.224-0.5-0.5s0.224-0.5,0.5-0.5h11c14.061,0,25.5,11.439,25.5,25.5
			S47.562,57.499,33.501,57.499z"/>
	</g>
	<g>
		<path class="st9" d="M31.924,20.999H14.001c-2.761,0-5,2.239-5,5v6.5h43.5l-7.325-6.48C41.519,22.785,36.806,20.999,31.924,20.999
			z"/>
		<path class="st1" d="M52.501,32.999h-43.5c-0.276,0-0.5-0.224-0.5-0.5v-6.5c0-3.032,2.468-5.5,5.5-5.5h17.923
			c5.009,0,9.833,1.827,13.583,5.146l7.325,6.479c0.156,0.137,0.21,0.356,0.137,0.551C52.895,32.87,52.709,32.999,52.501,32.999z
			 M9.501,31.999h41.68l-6.336-5.604c-3.567-3.157-8.156-4.896-12.921-4.896H14.001c-2.481,0-4.5,2.019-4.5,4.5V31.999z"/>
	</g>
	<g>
		<path class="st22" d="M16.924,20.999h-2.923c-2.761,0-5,2.239-5,5v6.5h28.5l-7.325-6.48
			C26.519,22.785,21.806,20.999,16.924,20.999z"/>
		<path class="st1" d="M37.501,32.999h-28.5c-0.276,0-0.5-0.224-0.5-0.5v-6.5c0-3.032,2.468-5.5,5.5-5.5h2.923
			c5.009,0,9.833,1.827,13.583,5.146l7.325,6.479c0.156,0.137,0.21,0.356,0.137,0.551C37.895,32.87,37.709,32.999,37.501,32.999z
			 M9.501,31.999h26.68l-6.336-5.604c-3.567-3.157-8.156-4.896-12.921-4.896h-2.923c-2.481,0-4.5,2.019-4.5,4.5V31.999z"/>
	</g>
	<g>
		<path class="st22" d="M47.222,30.999c-0.118,0-0.236-0.041-0.331-0.126l-3.371-2.982c-3.203-2.832-7.321-4.392-11.596-4.392
			c-0.276,0-0.5-0.224-0.5-0.5s0.224-0.5,0.5-0.5c4.52,0,8.872,1.649,12.258,4.643l3.371,2.983c0.207,0.183,0.227,0.498,0.043,0.705
			C47.497,30.942,47.359,30.999,47.222,30.999z"/>
	</g>
	<g>
		<path class="st9" d="M11.001,30.999c-0.276,0-0.5-0.224-0.5-0.5v-4.5c0-1.93,1.57-3.5,3.5-3.5c0.276,0,0.5,0.224,0.5,0.5
			s-0.224,0.5-0.5,0.5c-1.379,0-2.5,1.121-2.5,2.5v4.5C11.501,30.775,11.277,30.999,11.001,30.999z"/>
	</g>
	<g>
		<path class="st4" d="M47.501,42.999h-21c-2.761,0-5-2.239-5-5v-5.5h31v5.5C52.501,40.76,50.262,42.999,47.501,42.999z"/>
		<path class="st1" d="M47.501,43.499h-21c-3.032,0-5.5-2.468-5.5-5.5v-5.5c0-0.276,0.224-0.5,0.5-0.5h31c0.276,0,0.5,0.224,0.5,0.5
			v5.5C53.001,41.031,50.533,43.499,47.501,43.499z M22.001,32.999v5c0,2.481,2.019,4.5,4.5,4.5h21c2.481,0,4.5-2.019,4.5-4.5v-5
			H22.001z"/>
	</g>
	<g>
		<path class="st5" d="M32.501,42.999h-18.5c-2.761,0-5-2.239-5-5v-5.5h28.5v5.5C37.501,40.76,35.262,42.999,32.501,42.999z"/>
		<path class="st1" d="M32.501,43.499h-18.5c-3.032,0-5.5-2.468-5.5-5.5v-5.5c0-0.276,0.224-0.5,0.5-0.5h28.5
			c0.276,0,0.5,0.224,0.5,0.5v5.5C38.001,41.031,35.533,43.499,32.501,43.499z M9.501,32.999v5c0,2.481,2.019,4.5,4.5,4.5h18.5
			c2.481,0,4.5-2.019,4.5-4.5v-5H9.501z"/>
	</g>
	<g>
		<path class="st19" d="M32.501,41.499c-0.276,0-0.5-0.224-0.5-0.5s0.224-0.5,0.5-0.5c1.379,0,2.5-1.121,2.5-2.5v-3.5
			c0-0.276,0.224-0.5,0.5-0.5s0.5,0.224,0.5,0.5v3.5C36.001,39.929,34.431,41.499,32.501,41.499z"/>
	</g>
	<g>
		<path class="st2" d="M29.501,38.999h-28c-0.552,0-1-0.448-1-1v-2c0-0.552,0.448-1,1-1h16.861c3.974,0,7.829,1.352,10.932,3.835
			L29.501,38.999z"/>
		<path class="st1" d="M29.501,39.499h-28c-0.827,0-1.5-0.673-1.5-1.5v-2c0-0.827,0.673-1.5,1.5-1.5h16.861
			c4.071,0,8.064,1.4,11.244,3.944l0.206,0.165c0.166,0.132,0.23,0.355,0.16,0.556S29.714,39.499,29.501,39.499z M1.501,35.499
			c-0.275,0-0.5,0.225-0.5,0.5v2c0,0.275,0.225,0.5,0.5,0.5h26.503c-2.823-1.942-6.203-3-9.642-3H1.501z"/>
	</g>
	<g>
		<path class="st0" d="M14.501,38.999h-13c-0.552,0-1-0.448-1-1v-2c0-0.552,0.448-1,1-1h1.861c3.974,0,7.829,1.352,10.932,3.835
			L14.501,38.999z"/>
		<path class="st1" d="M14.501,39.499h-13c-0.827,0-1.5-0.673-1.5-1.5v-2c0-0.827,0.673-1.5,1.5-1.5h1.861
			c4.071,0,8.064,1.4,11.244,3.944l0.206,0.165c0.166,0.132,0.23,0.355,0.16,0.556S14.714,39.499,14.501,39.499z M1.501,35.499
			c-0.275,0-0.5,0.225-0.5,0.5v2c0,0.275,0.225,0.5,0.5,0.5h11.503c-2.823-1.942-6.203-3-9.642-3H1.501z"/>
	</g>
	<g>
		<path class="st1" d="M40,16.999H11c-0.276,0-0.5-0.224-0.5-0.5s0.224-0.5,0.5-0.5h29c0.276,0,0.5,0.224,0.5,0.5
			S40.276,16.999,40,16.999z"/>
	</g>
	<g>
		<path class="st1" d="M33.001,12.999h-14c-0.276,0-0.5-0.224-0.5-0.5s0.224-0.5,0.5-0.5h14c0.276,0,0.5,0.224,0.5,0.5
			S33.277,12.999,33.001,12.999z"/>
	</g>
	<g>
		<path class="st1" d="M8,16.999H6c-0.276,0-0.5-0.224-0.5-0.5s0.224-0.5,0.5-0.5h2c0.276,0,0.5,0.224,0.5,0.5
			S8.276,16.999,8,16.999z"/>
	</g>
	<g>
		<path class="st1" d="M40,47.999H11c-0.276,0-0.5-0.224-0.5-0.5s0.224-0.5,0.5-0.5h29c0.276,0,0.5,0.224,0.5,0.5
			S40.276,47.999,40,47.999z"/>
	</g>
	<g>
		<path class="st1" d="M33.001,51.999h-14c-0.276,0-0.5-0.224-0.5-0.5s0.224-0.5,0.5-0.5h14c0.276,0,0.5,0.224,0.5,0.5
			S33.277,51.999,33.001,51.999z"/>
	</g>
	<g>
		<path class="st1" d="M8,47.999H6c-0.276,0-0.5-0.224-0.5-0.5s0.224-0.5,0.5-0.5h2c0.276,0,0.5,0.224,0.5,0.5
			S8.276,47.999,8,47.999z"/>
	</g>
	<g>
		<path class="st1" d="M16,12.999h-2c-0.276,0-0.5-0.224-0.5-0.5s0.224-0.5,0.5-0.5h2c0.276,0,0.5,0.224,0.5,0.5
			S16.276,12.999,16,12.999z"/>
	</g>
	<g>
		<path class="st1" d="M16,51.999h-2c-0.276,0-0.5-0.224-0.5-0.5s0.224-0.5,0.5-0.5h2c0.276,0,0.5,0.224,0.5,0.5
			S16.276,51.999,16,51.999z"/>
	</g>
	<g>
		<path class="st5" d="M47.501,41.499c-0.276,0-0.5-0.224-0.5-0.5s0.224-0.5,0.5-0.5c1.379,0,2.5-1.121,2.5-2.5v-3.5
			c0-0.276,0.224-0.5,0.5-0.5s0.5,0.224,0.5,0.5v3.5C51.001,39.929,49.431,41.499,47.501,41.499z"/>
	</g>
	<g>
		<path class="st1" d="M52.501,36.999h-6c-0.276,0-0.5-0.224-0.5-0.5v-4c0-0.276,0.224-0.5,0.5-0.5h6c0.276,0,0.5,0.224,0.5,0.5v4
			C53.001,36.775,52.777,36.999,52.501,36.999z M47.001,35.999h5v-3h-5V35.999z"/>
	</g>
	<g>
		<path class="st1" d="M52.4,39.499H9.001c-0.276,0-0.5-0.224-0.5-0.5s0.224-0.5,0.5-0.5H52.4c0.276,0,0.5,0.224,0.5,0.5
			S52.677,39.499,52.4,39.499z"/>
	</g>
</g>
</svg>
