<?xml version="1.0" encoding="utf-8"?>
<!-- Generator: Adobe Illustrator 21.1.0, SVG Export Plug-In . SVG Version: 6.00 Build 0)  -->
<svg version="1.1" id="Layer_1" xmlns="http://www.w3.org/2000/svg" xmlns:xlink="http://www.w3.org/1999/xlink" x="0px" y="0px"
	 viewBox="0 0 64 64" style="enable-background:new 0 0 64 64;" xml:space="preserve">
<style type="text/css">
	.st0{fill:#DB8E11;}
	.st1{fill:#212A41;}
	.st2{fill:#F9AC2F;}
	.st3{fill:#FFCA4D;}
	.st4{fill:#B7C0D7;}
	.st5{fill:#99A2B9;}
	.st6{fill:#B51040;}
	.st7{fill:#D32E5E;}
	.st8{fill:#F14C7C;}
	.st9{fill:#0079A8;}
	.st10{fill:#1E97C6;}
	.st11{fill:#BED38E;}
	.st12{fill:#A0B570;}
	.st13{fill:#DCF1AC;}
	.st14{fill:#D5DEF5;}
	.st15{fill:#4E4B51;}
	.st16{fill:#6C696F;}
	.st17{fill:#848483;}
	.st18{fill:#A2A2A1;}
	.st19{fill:#7B849B;}
	.st20{fill:#8A878D;}
	.st21{fill:#C0C0BF;}
	.st22{fill:#005B8A;}
	.st23{fill:#970022;}
	.st24{fill:#1A237E;}
	.st25{fill:#BD7000;}
	.st26{fill:#003D6C;}
	.st27{fill:#666665;}
	.st28{fill:#195190;}
</style>
<g id="Martian_Habitat">
	<g>
		<path class="st5" d="M13,30H7c-1.381,0-2.5,1.119-2.5,2.5V62h11V32.5C15.5,31.119,14.381,30,13,30z"/>
		<path class="st1" d="M15.5,62.5h-11C4.224,62.5,4,62.276,4,62V32.5c0-1.654,1.346-3,3-3h6c1.654,0,3,1.346,3,3V62
			C16,62.276,15.776,62.5,15.5,62.5z M5,61.5h10v-29c0-1.103-0.897-2-2-2H7c-1.103,0-2,0.897-2,2V61.5z"/>
	</g>
	<g>
		<path class="st4" d="M6.5,60.5C6.224,60.5,6,60.276,6,60V32.5C6,32.224,6.224,32,6.5,32S7,32.224,7,32.5V60
			C7,60.276,6.776,60.5,6.5,60.5z"/>
	</g>
	<g>
		<path class="st4" d="M20,30h-6c-1.381,0-2.5,1.119-2.5,2.5V62h11V32.5C22.5,31.119,21.381,30,20,30z"/>
		<path class="st1" d="M22.5,62.5h-11c-0.276,0-0.5-0.224-0.5-0.5V32.5c0-1.654,1.346-3,3-3h6c1.654,0,3,1.346,3,3V62
			C23,62.276,22.776,62.5,22.5,62.5z M12,61.5h10v-29c0-1.103-0.897-2-2-2h-6c-1.103,0-2,0.897-2,2V61.5z"/>
	</g>
	<g>
		<path class="st14" d="M13.5,60.5c-0.276,0-0.5-0.224-0.5-0.5V32.5c0-0.276,0.224-0.5,0.5-0.5s0.5,0.224,0.5,0.5V60
			C14,60.276,13.776,60.5,13.5,60.5z"/>
	</g>
	<g>
		<path class="st5" d="M20.5,60.5c-0.276,0-0.5-0.224-0.5-0.5V32.5c0-0.276,0.224-0.5,0.5-0.5s0.5,0.224,0.5,0.5V60
			C21,60.276,20.776,60.5,20.5,60.5z"/>
	</g>
	<g>
		<path class="st5" d="M28,52H3c-1.381,0-2.5,1.119-2.5,2.5V62h30v-7.5C30.5,53.119,29.381,52,28,52z"/>
		<path class="st1" d="M30.5,62.5h-30C0.224,62.5,0,62.276,0,62v-7.5c0-1.654,1.346-3,3-3h25c1.654,0,3,1.346,3,3V62
			C31,62.276,30.776,62.5,30.5,62.5z M1,61.5h29v-7c0-1.103-0.897-2-2-2H3c-1.103,0-2,0.897-2,2V61.5z"/>
	</g>
	<g>
		<path class="st4" d="M35.5,37c-13.807,0-25,11.193-25,25h50C60.5,48.193,49.307,37,35.5,37z"/>
		<path class="st1" d="M60.5,62.5h-50c-0.276,0-0.5-0.224-0.5-0.5c0-14.061,11.439-25.5,25.5-25.5S61,47.939,61,62
			C61,62.276,60.776,62.5,60.5,62.5z M11.005,61.5h48.99c-0.268-13.279-11.153-24-24.495-24S11.273,48.221,11.005,61.5z"/>
	</g>
	<g>
		<path class="st5" d="M40.5,37.501C38.884,37.173,37.212,37,35.5,37c-13.807,0-25,11.193-25,25h10
			C20.5,49.905,29.089,39.818,40.5,37.501z"/>
		<path class="st1" d="M20.5,62.5h-10c-0.276,0-0.5-0.224-0.5-0.5c0-14.061,11.439-25.5,25.5-25.5c1.714,0,3.43,0.172,5.1,0.511
			c0.233,0.048,0.4,0.253,0.4,0.49c0,0.238-0.167,0.442-0.4,0.49C29.243,40.296,21,50.394,21,62C21,62.276,20.776,62.5,20.5,62.5z
			 M11.005,61.5h9c0.216-11.034,7.582-20.672,17.983-23.874C37.163,37.542,36.331,37.5,35.5,37.5
			C22.158,37.5,11.273,48.221,11.005,61.5z"/>
	</g>
	<g>
		<path class="st4" d="M12.586,60.5c-0.014,0-0.029-0.001-0.043-0.002c-0.275-0.023-0.479-0.266-0.455-0.541
			c0.875-10.11,8.41-18.705,18.323-20.902c0.272-0.06,0.536,0.11,0.597,0.38c0.06,0.27-0.11,0.537-0.38,0.597
			c-9.492,2.104-16.706,10.332-17.543,20.012C13.062,60.304,12.843,60.5,12.586,60.5z"/>
	</g>
	<g>
		<circle class="st2" cx="54.5" cy="8.5" r="6.5"/>
		<path class="st1" d="M54.5,15.5c-3.86,0-7-3.141-7-7s3.14-7,7-7s7,3.141,7,7S58.36,15.5,54.5,15.5z M54.5,2.5
			c-3.309,0-6,2.691-6,6s2.691,6,6,6s6-2.691,6-6S57.809,2.5,54.5,2.5z"/>
	</g>
	<g>
		<path class="st3" d="M50,9c-0.276,0-0.5-0.224-0.5-0.5c0-2.757,2.243-5,5-5C54.776,3.5,55,3.724,55,4s-0.224,0.5-0.5,0.5
			c-2.206,0-4,1.794-4,4C50.5,8.776,50.276,9,50,9z"/>
	</g>
	<g>
		<path class="st0" d="M54.5,13.5c-0.276,0-0.5-0.224-0.5-0.5s0.224-0.5,0.5-0.5c2.206,0,4-1.794,4-4C58.5,8.224,58.724,8,59,8
			s0.5,0.224,0.5,0.5C59.5,11.257,57.257,13.5,54.5,13.5z"/>
	</g>
	<g>
		<path class="st18" d="M62.5,9.5h-16c-0.552,0-1-0.448-1-1v0c0-0.552,0.448-1,1-1h16c0.552,0,1,0.448,1,1v0
			C63.5,9.052,63.052,9.5,62.5,9.5z"/>
		<path class="st1" d="M62.5,10h-16C45.673,10,45,9.327,45,8.5S45.673,7,46.5,7h16C63.327,7,64,7.673,64,8.5S63.327,10,62.5,10z
			 M46.5,8C46.224,8,46,8.225,46,8.5S46.224,9,46.5,9h16C62.776,9,63,8.775,63,8.5S62.776,8,62.5,8H46.5z"/>
	</g>
	<g>
		<circle class="st18" cx="39" cy="18.5" r="1.5"/>
		<path class="st1" d="M39,20.5c-1.103,0-2-0.897-2-2s0.897-2,2-2s2,0.897,2,2S40.103,20.5,39,20.5z M39,17.5c-0.551,0-1,0.448-1,1
			s0.449,1,1,1s1-0.448,1-1S39.551,17.5,39,17.5z"/>
	</g>
	<g>
		<circle class="st18" cx="50" cy="26" r="2"/>
		<path class="st1" d="M50,28.5c-1.378,0-2.5-1.121-2.5-2.5s1.122-2.5,2.5-2.5s2.5,1.121,2.5,2.5S51.378,28.5,50,28.5z M50,24.5
			c-0.827,0-1.5,0.673-1.5,1.5s0.673,1.5,1.5,1.5s1.5-0.673,1.5-1.5S50.827,24.5,50,24.5z"/>
	</g>
	<g>
		<path class="st1" d="M28.875,18.001h-14c-0.276,0-0.5-0.224-0.5-0.5s0.224-0.5,0.5-0.5h14c0.276,0,0.5,0.224,0.5,0.5
			S29.152,18.001,28.875,18.001z"/>
	</g>
	<g>
		<path class="st1" d="M11.875,18.001h-2c-0.276,0-0.5-0.224-0.5-0.5s0.224-0.5,0.5-0.5h2c0.276,0,0.5,0.224,0.5,0.5
			S12.151,18.001,11.875,18.001z"/>
	</g>
	<g>
		<path class="st1" d="M59.999,57.5H11.001c-0.276,0-0.5-0.224-0.5-0.5s0.224-0.5,0.5-0.5h48.998c0.276,0,0.5,0.224,0.5,0.5
			S60.275,57.5,59.999,57.5z"/>
	</g>
	<g>
		<path class="st16" d="M59.5,52L59.5,52c2.209,0,4,1.791,4,4v6h-8v-6C55.5,53.791,57.291,52,59.5,52z"/>
		<path class="st1" d="M63.5,62.5h-8c-0.276,0-0.5-0.224-0.5-0.5v-6c0-2.481,2.019-4.5,4.5-4.5S64,53.519,64,56v6
			C64,62.276,63.776,62.5,63.5,62.5z M56,61.5h7V56c0-1.93-1.57-3.5-3.5-3.5S56,54.07,56,56V61.5z"/>
	</g>
	<g>
		<path class="st15" d="M61.5,60.5c-0.276,0-0.5-0.224-0.5-0.5v-4c0-0.827-0.673-1.5-1.5-1.5c-0.276,0-0.5-0.224-0.5-0.5
			s0.224-0.5,0.5-0.5c1.378,0,2.5,1.121,2.5,2.5v4C62,60.276,61.776,60.5,61.5,60.5z"/>
	</g>
	<g>
		<path class="st5" d="M59.5,52h-7c-2.761,0-5,2.239-5,5v5h4h4v-6C55.5,53.791,57.291,52,59.5,52z"/>
		<path class="st1" d="M55.5,62.5h-8c-0.276,0-0.5-0.224-0.5-0.5v-5c0-3.032,2.467-5.5,5.5-5.5h7c0.276,0,0.5,0.224,0.5,0.5
			s-0.224,0.5-0.5,0.5c-1.93,0-3.5,1.57-3.5,3.5v6C56,62.276,55.776,62.5,55.5,62.5z M48,61.5h7V56c0-1.412,0.654-2.675,1.674-3.5
			H52.5c-2.481,0-4.5,2.019-4.5,4.5V61.5z"/>
	</g>
	<g>
		<path class="st4" d="M49.5,60.5c-0.276,0-0.5-0.224-0.5-0.5v-3c0-1.93,1.57-3.5,3.5-3.5c0.276,0,0.5,0.224,0.5,0.5
			s-0.224,0.5-0.5,0.5c-1.378,0-2.5,1.121-2.5,2.5v3C50,60.276,49.776,60.5,49.5,60.5z"/>
	</g>
	<g>
		<path class="st4" d="M2.5,60.5C2.224,60.5,2,60.276,2,60v-5.5C2,54.224,2.224,54,2.5,54S3,54.224,3,54.5V60
			C3,60.276,2.776,60.5,2.5,60.5z"/>
	</g>
	<g>
		<path class="st1" d="M22.5,40.501h-18c-0.276,0-0.5-0.224-0.5-0.5v-5c0-0.276,0.224-0.5,0.5-0.5h18c0.276,0,0.5,0.224,0.5,0.5v5
			C23,40.277,22.776,40.501,22.5,40.501z M5,39.501h17v-4H5V39.501z"/>
	</g>
</g>
</svg>
