<?xml version="1.0" encoding="utf-8"?>
<!-- Generator: Adobe Illustrator 21.1.0, SVG Export Plug-In . SVG Version: 6.00 Build 0)  -->
<svg version="1.1" id="Layer_1" xmlns="http://www.w3.org/2000/svg" xmlns:xlink="http://www.w3.org/1999/xlink" x="0px" y="0px"
	 viewBox="0 0 64 64" style="enable-background:new 0 0 64 64;" xml:space="preserve">
<style type="text/css">
	.st0{fill:#DB8E11;}
	.st1{fill:#212A41;}
	.st2{fill:#F9AC2F;}
	.st3{fill:#FFCA4D;}
	.st4{fill:#B7C0D7;}
	.st5{fill:#99A2B9;}
	.st6{fill:#B51040;}
	.st7{fill:#D32E5E;}
	.st8{fill:#F14C7C;}
	.st9{fill:#0079A8;}
	.st10{fill:#1E97C6;}
	.st11{fill:#BED38E;}
	.st12{fill:#A0B570;}
	.st13{fill:#DCF1AC;}
	.st14{fill:#D5DEF5;}
	.st15{fill:#4E4B51;}
	.st16{fill:#6C696F;}
	.st17{fill:#848483;}
	.st18{fill:#A2A2A1;}
	.st19{fill:#7B849B;}
	.st20{fill:#8A878D;}
	.st21{fill:#C0C0BF;}
	.st22{fill:#005B8A;}
	.st23{fill:#970022;}
	.st24{fill:#1A237E;}
	.st25{fill:#BD7000;}
	.st26{fill:#003D6C;}
	.st27{fill:#666665;}
	.st28{fill:#195190;}
</style>
<g id="Orbital_Station">
	<g>
		<path class="st17" d="M59,52.5H37c-0.552,0-1-0.448-1-1v-16c0-0.552,0.448-1,1-1h22c0.552,0,1,0.448,1,1v16
			C60,52.052,59.552,52.5,59,52.5z"/>
		<path class="st1" d="M59,53H37c-0.827,0-1.5-0.673-1.5-1.5v-16c0-0.827,0.673-1.5,1.5-1.5h22c0.827,0,1.5,0.673,1.5,1.5v16
			C60.5,52.327,59.827,53,59,53z M37,35c-0.275,0-0.5,0.224-0.5,0.5v16c0,0.276,0.225,0.5,0.5,0.5h22c0.275,0,0.5-0.224,0.5-0.5v-16
			c0-0.276-0.225-0.5-0.5-0.5H37z"/>
	</g>
	<g>
		<path class="st18" d="M62,52.5H40c-0.552,0-1-0.448-1-1v-16c0-0.552,0.448-1,1-1h22c0.552,0,1,0.448,1,1v16
			C63,52.052,62.552,52.5,62,52.5z"/>
		<path class="st1" d="M62,53H40c-0.827,0-1.5-0.673-1.5-1.5v-16c0-0.827,0.673-1.5,1.5-1.5h22c0.827,0,1.5,0.673,1.5,1.5v16
			C63.5,52.327,62.827,53,62,53z M40,35c-0.275,0-0.5,0.224-0.5,0.5v16c0,0.276,0.225,0.5,0.5,0.5h22c0.275,0,0.5-0.224,0.5-0.5v-16
			c0-0.276-0.225-0.5-0.5-0.5H40z"/>
	</g>
	<g>
		<path class="st1" d="M48.5,53c-0.276,0-0.5-0.224-0.5-0.5v-18c0-0.276,0.224-0.5,0.5-0.5s0.5,0.224,0.5,0.5v18
			C49,52.776,48.776,53,48.5,53z"/>
	</g>
	<g>
		<path class="st1" d="M53.5,53c-0.276,0-0.5-0.224-0.5-0.5v-18c0-0.276,0.224-0.5,0.5-0.5s0.5,0.224,0.5,0.5v18
			C54,52.776,53.776,53,53.5,53z"/>
	</g>
	<g>
		<path class="st1" d="M58.5,53c-0.276,0-0.5-0.224-0.5-0.5v-18c0-0.276,0.224-0.5,0.5-0.5s0.5,0.224,0.5,0.5v18
			C59,52.776,58.776,53,58.5,53z"/>
	</g>
	<g>
		<path class="st1" d="M63,44H39c-0.276,0-0.5-0.224-0.5-0.5S38.724,43,39,43h24c0.276,0,0.5,0.224,0.5,0.5S63.276,44,63,44z"/>
	</g>
	<g>
		<rect x="23.5" y="29.5" class="st4" width="20" height="29"/>
		<path class="st1" d="M43.5,59h-20c-0.276,0-0.5-0.224-0.5-0.5v-29c0-0.276,0.224-0.5,0.5-0.5h20c0.276,0,0.5,0.224,0.5,0.5v29
			C44,58.776,43.776,59,43.5,59z M24,58h19V30H24V58z"/>
	</g>
	<g>
		<polygon class="st4" points="33.5,20.5 23.5,29.5 43.5,29.5 		"/>
		<path class="st1" d="M43.5,30h-20c-0.207,0-0.393-0.127-0.467-0.321s-0.021-0.412,0.132-0.551l10-9
			c0.191-0.171,0.479-0.171,0.67,0l10,9c0.153,0.139,0.206,0.357,0.132,0.551S43.707,30,43.5,30z M24.803,29h17.395L33.5,21.173
			L24.803,29z"/>
	</g>
	<g>
		<path class="st4" d="M29.536,63.5h7.929c0.663,0,1.299-0.263,1.768-0.732L43.5,58.5h-20l4.268,4.268
			C28.237,63.237,28.873,63.5,29.536,63.5z"/>
		<path class="st1" d="M37.465,64h-7.929c-0.791,0-1.564-0.32-2.122-0.879l-4.268-4.268c-0.143-0.143-0.186-0.358-0.108-0.545
			S23.298,58,23.5,58h20c0.202,0,0.385,0.122,0.462,0.309s0.034,0.402-0.108,0.545l-4.268,4.268C39.02,63.688,38.267,64,37.465,64z
			 M24.707,59l3.414,3.414C28.493,62.787,29.009,63,29.536,63h7.929c0.534,0,1.036-0.208,1.414-0.586L42.293,59H24.707z"/>
	</g>
	<g>
		<path class="st4" d="M33.5,23.5c6.627,0,12-5.373,12-12h-24C21.5,18.127,26.873,23.5,33.5,23.5z"/>
		<path class="st1" d="M33.5,24C26.607,24,21,18.393,21,11.5c0-0.276,0.224-0.5,0.5-0.5h24c0.276,0,0.5,0.224,0.5,0.5
			C46,18.393,40.393,24,33.5,24z M22.011,12c0.263,6.11,5.315,11,11.489,11s11.227-4.89,11.489-11H22.011z"/>
	</g>
	<g>
		<path class="st14" d="M33.5,22c-4.97,0-9.297-3.533-10.289-8.4c-0.055-0.271,0.12-0.534,0.391-0.589
			c0.266-0.053,0.534,0.119,0.59,0.39c0.896,4.403,4.812,7.6,9.309,7.6c0.276,0,0.5,0.224,0.5,0.5S33.776,22,33.5,22z"/>
	</g>
	<g>
		<polygon class="st2" points="34.5,3 32.5,3 31.5,11.5 35.5,11.5 		"/>
		<path class="st1" d="M35.5,12h-4c-0.143,0-0.278-0.061-0.374-0.168c-0.095-0.106-0.14-0.249-0.122-0.391l1-8.5
			C32.033,2.69,32.246,2.5,32.5,2.5h2c0.254,0,0.467,0.19,0.496,0.441l1,8.5c0.018,0.142-0.027,0.284-0.122,0.391
			C35.778,11.939,35.643,12,35.5,12z M32.062,11h2.875l-0.882-7.5h-1.111L32.062,11z"/>
	</g>
	<g>
		<path class="st17" d="M24,52.5H2c-0.552,0-1-0.448-1-1v-16c0-0.552,0.448-1,1-1h22c0.552,0,1,0.448,1,1v16
			C25,52.052,24.552,52.5,24,52.5z"/>
		<path class="st1" d="M24,53H2c-0.827,0-1.5-0.673-1.5-1.5v-16C0.5,34.673,1.173,34,2,34h22c0.827,0,1.5,0.673,1.5,1.5v16
			C25.5,52.327,24.827,53,24,53z M2,35c-0.275,0-0.5,0.224-0.5,0.5v16C1.5,51.776,1.725,52,2,52h22c0.275,0,0.5-0.224,0.5-0.5v-16
			c0-0.276-0.225-0.5-0.5-0.5H2z"/>
	</g>
	<g>
		<path class="st18" d="M27,52.5H5c-0.552,0-1-0.448-1-1v-16c0-0.552,0.448-1,1-1h22c0.552,0,1,0.448,1,1v16
			C28,52.052,27.552,52.5,27,52.5z"/>
		<path class="st1" d="M27,53H5c-0.827,0-1.5-0.673-1.5-1.5v-16C3.5,34.673,4.173,34,5,34h22c0.827,0,1.5,0.673,1.5,1.5v16
			C28.5,52.327,27.827,53,27,53z M5,35c-0.275,0-0.5,0.224-0.5,0.5v16C4.5,51.776,4.725,52,5,52h22c0.275,0,0.5-0.224,0.5-0.5v-16
			c0-0.276-0.225-0.5-0.5-0.5H5z"/>
	</g>
	<g>
		<path class="st1" d="M8.5,53C8.224,53,8,52.776,8,52.5v-18C8,34.224,8.224,34,8.5,34S9,34.224,9,34.5v18C9,52.776,8.776,53,8.5,53
			z"/>
	</g>
	<g>
		<path class="st1" d="M13.5,53c-0.276,0-0.5-0.224-0.5-0.5v-18c0-0.276,0.224-0.5,0.5-0.5s0.5,0.224,0.5,0.5v18
			C14,52.776,13.776,53,13.5,53z"/>
	</g>
	<g>
		<path class="st1" d="M18.5,53c-0.276,0-0.5-0.224-0.5-0.5v-18c0-0.276,0.224-0.5,0.5-0.5s0.5,0.224,0.5,0.5v18
			C19,52.776,18.776,53,18.5,53z"/>
	</g>
	<g>
		<path class="st1" d="M23.5,53c-0.276,0-0.5-0.224-0.5-0.5v-18c0-0.276,0.224-0.5,0.5-0.5s0.5,0.224,0.5,0.5v18
			C24,52.776,23.776,53,23.5,53z"/>
	</g>
	<g>
		<path class="st1" d="M28,44H4c-0.276,0-0.5-0.224-0.5-0.5S3.724,43,4,43h24c0.276,0,0.5,0.224,0.5,0.5S28.276,44,28,44z"/>
	</g>
	<g>
		<circle class="st2" cx="33.5" cy="2.5" r="2"/>
		<path class="st1" d="M33.5,5C32.121,5,31,3.878,31,2.5S32.121,0,33.5,0S36,1.122,36,2.5S34.879,5,33.5,5z M33.5,1
			C32.673,1,32,1.673,32,2.5S32.673,4,33.5,4S35,3.327,35,2.5S34.327,1,33.5,1z"/>
	</g>
	<g>
		<rect x="33.5" y="37.5" class="st22" width="5" height="12"/>
		<path class="st1" d="M38.5,50h-5c-0.276,0-0.5-0.224-0.5-0.5v-12c0-0.276,0.224-0.5,0.5-0.5h5c0.276,0,0.5,0.224,0.5,0.5v12
			C39,49.776,38.776,50,38.5,50z M34,49h4V38h-4V49z"/>
	</g>
	<g>
		<path class="st1" d="M38.5,35h-5c-0.276,0-0.5-0.224-0.5-0.5s0.224-0.5,0.5-0.5h5c0.276,0,0.5,0.224,0.5,0.5S38.776,35,38.5,35z"
			/>
	</g>
	<g>
		<path class="st5" d="M41.5,57c-0.276,0-0.5-0.224-0.5-0.5v-25c0-0.276,0.224-0.5,0.5-0.5s0.5,0.224,0.5,0.5v25
			C42,56.776,41.776,57,41.5,57z"/>
	</g>
	<g>
		<circle class="st18" cx="53" cy="59.5" r="1.5"/>
		<path class="st1" d="M53,61.5c-1.103,0-2-0.897-2-2s0.897-2,2-2s2,0.897,2,2S54.103,61.5,53,61.5z M53,58.5c-0.552,0-1,0.449-1,1
			s0.448,1,1,1s1-0.449,1-1S53.552,58.5,53,58.5z"/>
	</g>
	<g>
		<path class="st1" d="M53.5,24.5c-0.276,0-0.5-0.224-0.5-0.5v-5c0-0.276,0.224-0.5,0.5-0.5S54,18.724,54,19v5
			C54,24.276,53.776,24.5,53.5,24.5z"/>
	</g>
	<g>
		<path class="st1" d="M56,22h-5c-0.276,0-0.5-0.224-0.5-0.5S50.724,21,51,21h5c0.276,0,0.5,0.224,0.5,0.5S56.276,22,56,22z"/>
	</g>
	<g>
		<circle class="st18" cx="7.5" cy="21.5" r="2"/>
		<path class="st1" d="M7.5,24C6.121,24,5,22.878,5,21.5S6.121,19,7.5,19s2.5,1.122,2.5,2.5S8.879,24,7.5,24z M7.5,20
			C6.673,20,6,20.673,6,21.5S6.673,23,7.5,23S9,22.327,9,21.5S8.327,20,7.5,20z"/>
	</g>
	<g>
		<path class="st1" d="M15,12.5c-0.276,0-0.5-0.224-0.5-0.5V7c0-0.276,0.224-0.5,0.5-0.5s0.5,0.224,0.5,0.5v5
			C15.5,12.276,15.276,12.5,15,12.5z"/>
	</g>
	<g>
		<path class="st1" d="M17.5,10h-5C12.224,10,12,9.776,12,9.5S12.224,9,12.5,9h5C17.776,9,18,9.224,18,9.5S17.776,10,17.5,10z"/>
	</g>
	<g>
		<rect x="35.5" y="37.5" class="st9" width="5" height="12"/>
		<path class="st1" d="M40.5,50h-5c-0.276,0-0.5-0.224-0.5-0.5v-12c0-0.276,0.224-0.5,0.5-0.5h5c0.276,0,0.5,0.224,0.5,0.5v12
			C41,49.776,40.776,50,40.5,50z M36,49h4V38h-4V49z"/>
	</g>
</g>
</svg>
