<?xml version="1.0" encoding="utf-8"?>
<!-- Generator: Adobe Illustrator 21.1.0, SVG Export Plug-In . SVG Version: 6.00 Build 0)  -->
<svg version="1.1" id="Layer_1" xmlns="http://www.w3.org/2000/svg" xmlns:xlink="http://www.w3.org/1999/xlink" x="0px" y="0px"
	 viewBox="0 0 64 64" style="enable-background:new 0 0 64 64;" xml:space="preserve">
<style type="text/css">
	.st0{fill:#DB8E11;}
	.st1{fill:#212A41;}
	.st2{fill:#F9AC2F;}
	.st3{fill:#FFCA4D;}
	.st4{fill:#B7C0D7;}
	.st5{fill:#99A2B9;}
	.st6{fill:#B51040;}
	.st7{fill:#D32E5E;}
	.st8{fill:#F14C7C;}
	.st9{fill:#0079A8;}
	.st10{fill:#1E97C6;}
	.st11{fill:#BED38E;}
	.st12{fill:#A0B570;}
	.st13{fill:#DCF1AC;}
	.st14{fill:#D5DEF5;}
	.st15{fill:#4E4B51;}
	.st16{fill:#6C696F;}
	.st17{fill:#848483;}
	.st18{fill:#A2A2A1;}
	.st19{fill:#7B849B;}
	.st20{fill:#8A878D;}
	.st21{fill:#C0C0BF;}
	.st22{fill:#005B8A;}
	.st23{fill:#970022;}
	.st24{fill:#1A237E;}
	.st25{fill:#BD7000;}
	.st26{fill:#003D6C;}
	.st27{fill:#666665;}
	.st28{fill:#195190;}
</style>
<g id="Planetary_Exploration">
	<g>
		<circle class="st4" cx="32" cy="40.25" r="23"/>
		<path class="st1" d="M32,63.75c-12.958,0-23.5-10.542-23.5-23.5s10.542-23.5,23.5-23.5s23.5,10.542,23.5,23.5
			S44.958,63.75,32,63.75z M32,17.75c-12.407,0-22.5,10.094-22.5,22.5s10.093,22.5,22.5,22.5c12.406,0,22.5-10.094,22.5-22.5
			S44.406,17.75,32,17.75z"/>
	</g>
	<g>
		<path class="st5" d="M32,61.75c-0.276,0-0.5-0.224-0.5-0.5s0.224-0.5,0.5-0.5c11.304,0,20.5-9.196,20.5-20.5
			c0-0.276,0.224-0.5,0.5-0.5s0.5,0.224,0.5,0.5C53.5,52.105,43.855,61.75,32,61.75z"/>
	</g>
	<g>
		<path class="st5" d="M19,40.25c0-10.985,7.703-20.165,18-22.449c-1.61-0.357-3.282-0.551-5-0.551c-12.703,0-23,10.297-23,23
			c0,12.703,10.297,23,23,23c1.718,0,3.39-0.194,5-0.551C26.703,60.415,19,51.235,19,40.25z"/>
		<path class="st1" d="M32,63.75c-12.958,0-23.5-10.542-23.5-23.5s10.542-23.5,23.5-23.5c1.705,0,3.423,0.189,5.108,0.563
			c0.229,0.051,0.392,0.254,0.392,0.488s-0.163,0.438-0.392,0.488C26.905,20.552,19.5,29.788,19.5,40.25s7.405,19.698,17.608,21.96
			c0.229,0.051,0.392,0.254,0.392,0.488s-0.163,0.438-0.392,0.488C35.423,63.561,33.705,63.75,32,63.75z M32,17.75
			c-12.407,0-22.5,10.094-22.5,22.5s10.093,22.5,22.5,22.5c0.898,0,1.801-0.055,2.7-0.164c-9.51-3.118-16.2-12.173-16.2-22.336
			s6.69-19.218,16.2-22.336C33.801,17.805,32.898,17.75,32,17.75z"/>
	</g>
	<g>
		<path class="st4" d="M11,40.75c-0.276,0-0.5-0.224-0.5-0.5c0-10.208,7.261-19.074,17.266-21.081
			c0.269-0.058,0.534,0.121,0.588,0.392c0.054,0.271-0.121,0.534-0.392,0.589C18.423,22.062,11.5,30.517,11.5,40.25
			C11.5,40.526,11.276,40.75,11,40.75z"/>
	</g>
	<g>
		<path class="st1" d="M53,15.75c-0.276,0-0.5-0.224-0.5-0.5v-5c0-0.276,0.224-0.5,0.5-0.5s0.5,0.224,0.5,0.5v5
			C53.5,15.526,53.276,15.75,53,15.75z"/>
	</g>
	<g>
		<path class="st1" d="M55.5,13.25h-5c-0.276,0-0.5-0.224-0.5-0.5s0.224-0.5,0.5-0.5h5c0.276,0,0.5,0.224,0.5,0.5
			S55.776,13.25,55.5,13.25z"/>
	</g>
	<g>
		<path class="st1" d="M3,32.75c-0.276,0-0.5-0.224-0.5-0.5v-5c0-0.276,0.224-0.5,0.5-0.5s0.5,0.224,0.5,0.5v5
			C3.5,32.526,3.276,32.75,3,32.75z"/>
	</g>
	<g>
		<path class="st1" d="M5.5,30.25h-5c-0.276,0-0.5-0.224-0.5-0.5s0.224-0.5,0.5-0.5h5c0.276,0,0.5,0.224,0.5,0.5
			S5.776,30.25,5.5,30.25z"/>
	</g>
	<g>
		<path class="st7" d="M42,13.25h-3.798c-0.759,0-1.478-0.345-1.952-0.938l-0.499-0.623c-0.474-0.593-1.193-0.938-1.952-0.938H29v-9
			h4.798c0.759,0,1.478,0.345,1.952,0.938l0.499,0.623c0.474,0.593,1.193,0.938,1.952,0.938H42V13.25z"/>
		<path class="st1" d="M42,13.75h-3.799c-0.917,0-1.771-0.41-2.343-1.126l-0.498-0.623c-0.382-0.478-0.951-0.751-1.562-0.751H29
			c-0.276,0-0.5-0.224-0.5-0.5v-9c0-0.276,0.224-0.5,0.5-0.5h4.799c0.916,0,1.77,0.41,2.343,1.126l0.498,0.623
			c0.381,0.478,0.95,0.751,1.562,0.751H42c0.276,0,0.5,0.224,0.5,0.5v9C42.5,13.526,42.276,13.75,42,13.75z M29.5,10.25h4.299
			c0.916,0,1.77,0.41,2.343,1.126l0.498,0.623c0.381,0.478,0.95,0.751,1.562,0.751H41.5v-8h-3.299c-0.917,0-1.771-0.41-2.343-1.126
			L35.36,3.001c-0.382-0.478-0.951-0.751-1.562-0.751H29.5V10.25z"/>
	</g>
	<g>
		<path class="st18" d="M28,0.75h-1c-0.552,0-1,0.448-1,1v26c0,0.552,0.448,1,1,1h1c0.552,0,1-0.448,1-1v-26
			C29,1.198,28.552,0.75,28,0.75z"/>
		<path class="st1" d="M28,29.25h-1c-0.827,0-1.5-0.673-1.5-1.5v-26c0-0.827,0.673-1.5,1.5-1.5h1c0.827,0,1.5,0.673,1.5,1.5v26
			C29.5,28.577,28.827,29.25,28,29.25z M27,1.25c-0.276,0-0.5,0.225-0.5,0.5v26c0,0.275,0.224,0.5,0.5,0.5h1
			c0.276,0,0.5-0.225,0.5-0.5v-26c0-0.275-0.224-0.5-0.5-0.5H27z"/>
	</g>
	<g>
		<path class="st22" d="M28,49.25h-9c1.381,0,2.5-1.119,2.5-2.5c0-1.381-1.119-2.5-2.5-2.5H6c-1.381,0-2.5,1.119-2.5,2.5
			c0,1.381,1.119,2.5,2.5,2.5H3c-1.381,0-2.5,1.119-2.5,2.5c0,1.381,1.119,2.5,2.5,2.5h25c1.381,0,2.5-1.119,2.5-2.5
			C30.5,50.369,29.381,49.25,28,49.25z"/>
		<path class="st1" d="M28,54.75H3c-1.654,0-3-1.346-3-3s1.346-3,3-3h0.766C3.29,48.219,3,47.518,3,46.75c0-1.654,1.346-3,3-3h13
			c1.654,0,3,1.346,3,3c0,0.768-0.29,1.469-0.766,2H28c1.654,0,3,1.346,3,3S29.654,54.75,28,54.75z M3,49.75c-1.103,0-2,0.897-2,2
			s0.897,2,2,2h25c1.103,0,2-0.897,2-2s-0.897-2-2-2h-9c-0.276,0-0.5-0.224-0.5-0.5s0.224-0.5,0.5-0.5c1.103,0,2-0.897,2-2
			s-0.897-2-2-2H6c-1.103,0-2,0.897-2,2s0.897,2,2,2c0.276,0,0.5,0.224,0.5,0.5s-0.224,0.5-0.5,0.5H3z"/>
	</g>
	<g>
		<path class="st9" d="M29,49.25h-9c1.381,0,2.5-1.119,2.5-2.5c0-1.381-1.119-2.5-2.5-2.5H10c-1.381,0-2.5,1.119-2.5,2.5
			c0,1.381,1.119,2.5,2.5,2.5H7c-1.381,0-2.5,1.119-2.5,2.5c0,1.381,1.119,2.5,2.5,2.5h22c1.381,0,2.5-1.119,2.5-2.5
			C31.5,50.369,30.381,49.25,29,49.25z"/>
		<path class="st1" d="M29,54.75H7c-1.654,0-3-1.346-3-3s1.346-3,3-3h0.766C7.29,48.219,7,47.518,7,46.75c0-1.654,1.346-3,3-3h10
			c1.654,0,3,1.346,3,3c0,0.768-0.29,1.469-0.766,2H29c1.654,0,3,1.346,3,3S30.654,54.75,29,54.75z M7,49.75c-1.103,0-2,0.897-2,2
			s0.897,2,2,2h22c1.103,0,2-0.897,2-2s-0.897-2-2-2h-9c-0.276,0-0.5-0.224-0.5-0.5s0.224-0.5,0.5-0.5c1.103,0,2-0.897,2-2
			s-0.897-2-2-2H10c-1.103,0-2,0.897-2,2s0.897,2,2,2c0.276,0,0.5,0.224,0.5,0.5s-0.224,0.5-0.5,0.5H7z"/>
	</g>
	<g>
		<path class="st22" d="M57,38.75H43c-1.381,0-2.5-1.119-2.5-2.5c0-1.381,1.119-2.5,2.5-2.5h3.5c-1.381,0-2.5-1.119-2.5-2.5
			c0-1.381,1.119-2.5,2.5-2.5h7c1.381,0,2.5,1.119,2.5,2.5c0,1.381-1.119,2.5-2.5,2.5H57c1.381,0,2.5,1.119,2.5,2.5
			C59.5,37.631,58.381,38.75,57,38.75z"/>
		<path class="st1" d="M57,39.25H43c-1.654,0-3-1.346-3-3s1.346-3,3-3h1.266c-0.476-0.531-0.766-1.232-0.766-2c0-1.654,1.346-3,3-3
			h7c1.654,0,3,1.346,3,3c0,0.768-0.29,1.469-0.766,2H57c1.654,0,3,1.346,3,3S58.654,39.25,57,39.25z M43,34.25
			c-1.103,0-2,0.897-2,2s0.897,2,2,2h14c1.103,0,2-0.897,2-2s-0.897-2-2-2h-3.5c-0.276,0-0.5-0.224-0.5-0.5s0.224-0.5,0.5-0.5
			c1.103,0,2-0.897,2-2s-0.897-2-2-2h-7c-1.103,0-2,0.897-2,2s0.897,2,2,2c0.276,0,0.5,0.224,0.5,0.5s-0.224,0.5-0.5,0.5H43z"/>
	</g>
	<g>
		<path class="st9" d="M61,38.75H47c-1.381,0-2.5-1.119-2.5-2.5c0-1.381,1.119-2.5,2.5-2.5h3.5c-1.381,0-2.5-1.119-2.5-2.5
			c0-1.381,1.119-2.5,2.5-2.5h7c1.381,0,2.5,1.119,2.5,2.5c0,1.381-1.119,2.5-2.5,2.5H61c1.381,0,2.5,1.119,2.5,2.5
			C63.5,37.631,62.381,38.75,61,38.75z"/>
		<path class="st1" d="M61,39.25H47c-1.654,0-3-1.346-3-3s1.346-3,3-3h1.266c-0.476-0.531-0.766-1.232-0.766-2c0-1.654,1.346-3,3-3
			h7c1.654,0,3,1.346,3,3c0,0.768-0.29,1.469-0.766,2H61c1.654,0,3,1.346,3,3S62.654,39.25,61,39.25z M47,34.25
			c-1.103,0-2,0.897-2,2s0.897,2,2,2h14c1.103,0,2-0.897,2-2s-0.897-2-2-2h-3.5c-0.276,0-0.5-0.224-0.5-0.5s0.224-0.5,0.5-0.5
			c1.103,0,2-0.897,2-2s-0.897-2-2-2h-7c-1.103,0-2,0.897-2,2s0.897,2,2,2c0.276,0,0.5,0.224,0.5,0.5s-0.224,0.5-0.5,0.5H47z"/>
	</g>
	<g>
		<circle class="st18" cx="58" cy="58" r="3"/>
		<path class="st1" d="M58,61.5c-1.93,0-3.5-1.57-3.5-3.5s1.57-3.5,3.5-3.5s3.5,1.57,3.5,3.5S59.93,61.5,58,61.5z M58,55.5
			c-1.379,0-2.5,1.121-2.5,2.5s1.121,2.5,2.5,2.5s2.5-1.121,2.5-2.5S59.379,55.5,58,55.5z"/>
	</g>
	<g>
		<circle class="st18" cx="11" cy="16" r="2"/>
		<path class="st1" d="M11,18.5c-1.378,0-2.5-1.121-2.5-2.5s1.122-2.5,2.5-2.5s2.5,1.121,2.5,2.5S12.378,18.5,11,18.5z M11,14.5
			c-0.827,0-1.5,0.673-1.5,1.5s0.673,1.5,1.5,1.5s1.5-0.673,1.5-1.5S11.827,14.5,11,14.5z"/>
	</g>
	<g>
		<path class="st8" d="M31,9.25c-0.276,0-0.5-0.224-0.5-0.5v-5c0-0.276,0.224-0.5,0.5-0.5s0.5,0.224,0.5,0.5v5
			C31.5,9.026,31.276,9.25,31,9.25z"/>
	</g>
	<g>
		<path class="st6" d="M40,11.75c-0.276,0-0.5-0.224-0.5-0.5v-5c0-0.276,0.224-0.5,0.5-0.5s0.5,0.224,0.5,0.5v5
			C40.5,11.526,40.276,11.75,40,11.75z"/>
	</g>
	<g>
		<path class="st1" d="M53,50.25H42.25c-4.411,0-8-3.589-8-8c0-1.103-0.897-2-2-2h-2.5c-1.654,0-3-1.346-3-3v-1.5
			c0-1.654,1.346-3,3-3h6c1.103,0,2-0.897,2-2v-1c0-1.103-0.897-2-2-2h-4.5c-0.276,0-0.5-0.224-0.5-0.5s0.224-0.5,0.5-0.5h4.5
			c1.654,0,3,1.346,3,3v1c0,1.654-1.346,3-3,3h-6c-1.103,0-2,0.897-2,2v1.5c0,1.103,0.897,2,2,2h2.5c1.654,0,3,1.346,3,3
			c0,3.859,3.141,7,7,7H53c0.276,0,0.5,0.224,0.5,0.5S53.276,50.25,53,50.25z"/>
	</g>
</g>
</svg>
