<?xml version="1.0" encoding="utf-8"?>
<!-- Generator: Adobe Illustrator 21.1.0, SVG Export Plug-In . SVG Version: 6.00 Build 0)  -->
<svg version="1.1" id="Layer_1" xmlns="http://www.w3.org/2000/svg" xmlns:xlink="http://www.w3.org/1999/xlink" x="0px" y="0px"
	 viewBox="0 0 64 64" style="enable-background:new 0 0 64 64;" xml:space="preserve">
<style type="text/css">
	.st0{fill:#DB8E11;}
	.st1{fill:#212A41;}
	.st2{fill:#F9AC2F;}
	.st3{fill:#FFCA4D;}
	.st4{fill:#B7C0D7;}
	.st5{fill:#99A2B9;}
	.st6{fill:#B51040;}
	.st7{fill:#D32E5E;}
	.st8{fill:#F14C7C;}
	.st9{fill:#0079A8;}
	.st10{fill:#1E97C6;}
	.st11{fill:#BED38E;}
	.st12{fill:#A0B570;}
	.st13{fill:#DCF1AC;}
	.st14{fill:#D5DEF5;}
	.st15{fill:#4E4B51;}
	.st16{fill:#6C696F;}
	.st17{fill:#848483;}
	.st18{fill:#A2A2A1;}
	.st19{fill:#7B849B;}
	.st20{fill:#8A878D;}
	.st21{fill:#C0C0BF;}
	.st22{fill:#005B8A;}
	.st23{fill:#970022;}
	.st24{fill:#1A237E;}
	.st25{fill:#BD7000;}
	.st26{fill:#003D6C;}
	.st27{fill:#666665;}
	.st28{fill:#195190;}
</style>
<g id="Planetary_System_Data">
	<g>
		<path class="st5" d="M1.5,54V10c0-2.761,2.239-5,5-5h46c2.761,0,5,2.239,5,5v44c0,2.761-2.239,5-5,5h-46
			C3.739,59,1.5,56.761,1.5,54z"/>
		<path class="st1" d="M52.5,59.5h-46C3.467,59.5,1,57.033,1,54V10c0-3.033,2.467-5.5,5.5-5.5h46c3.033,0,5.5,2.467,5.5,5.5v44
			C58,57.033,55.533,59.5,52.5,59.5z M6.5,5.5C4.019,5.5,2,7.519,2,10v44c0,2.481,2.019,4.5,4.5,4.5h46c2.481,0,4.5-2.019,4.5-4.5
			V10c0-2.481-2.019-4.5-4.5-4.5H6.5z"/>
	</g>
	<g>
		<path class="st4" d="M6.5,54V10c0-2.761,2.239-5,5-5h46c2.761,0,5,2.239,5,5v44c0,2.761-2.239,5-5,5h-46
			C8.739,59,6.5,56.761,6.5,54z"/>
		<path class="st1" d="M57.5,59.5h-46C8.467,59.5,6,57.033,6,54V10c0-3.033,2.467-5.5,5.5-5.5h46c3.033,0,5.5,2.467,5.5,5.5v44
			C63,57.033,60.533,59.5,57.5,59.5z M11.5,5.5C9.019,5.5,7,7.519,7,10v44c0,2.481,2.019,4.5,4.5,4.5h46c2.481,0,4.5-2.019,4.5-4.5
			V10c0-2.481-2.019-4.5-4.5-4.5H11.5z"/>
	</g>
	<g>
		<path class="st9" d="M54.109,53H14.891c-1.321,0-2.391-1.06-2.391-2.368V13.368C12.5,12.06,13.571,11,14.891,11h39.217
			c1.321,0,2.391,1.06,2.391,2.368v37.263C56.5,51.94,55.429,53,54.109,53z"/>
		<path class="st1" d="M54.109,53.5H14.891C13.297,53.5,12,52.213,12,50.631V13.369c0-1.582,1.297-2.869,2.891-2.869h39.218
			c1.594,0,2.891,1.287,2.891,2.869v37.263C57,52.213,55.703,53.5,54.109,53.5z M14.891,11.5C13.848,11.5,13,12.338,13,13.369
			v37.263c0,1.03,0.848,1.869,1.891,1.869h39.218c1.043,0,1.891-0.838,1.891-1.869V13.369c0-1.03-0.848-1.869-1.891-1.869H14.891z"
			/>
	</g>
	<g>
		<path class="st14" d="M8.5,54.5C8.224,54.5,8,54.276,8,54V10c0-0.276,0.224-0.5,0.5-0.5S9,9.724,9,10v44
			C9,54.276,8.776,54.5,8.5,54.5z"/>
	</g>
	<g>
		<path class="st4" d="M3.5,54.5C3.224,54.5,3,54.276,3,54V10c0-0.276,0.224-0.5,0.5-0.5S4,9.724,4,10v44
			C4,54.276,3.776,54.5,3.5,54.5z"/>
	</g>
	<g>
		<path class="st5" d="M60.5,54.5c-0.276,0-0.5-0.224-0.5-0.5V10c0-0.276,0.224-0.5,0.5-0.5S61,9.724,61,10v44
			C61,54.276,60.776,54.5,60.5,54.5z"/>
	</g>
	<g>
		<path class="st1" d="M28.5,43.5C22.159,43.5,17,38.341,17,32s5.159-11.5,11.5-11.5S40,25.659,40,32S34.841,43.5,28.5,43.5z
			 M28.5,21.5C22.71,21.5,18,26.21,18,32s4.71,10.5,10.5,10.5S39,37.79,39,32S34.29,21.5,28.5,21.5z"/>
	</g>
	<g>
		<path class="st1" d="M28.5,39.5c-4.136,0-7.5-3.364-7.5-7.5s3.364-7.5,7.5-7.5S36,27.864,36,32S32.636,39.5,28.5,39.5z M28.5,25.5
			c-3.584,0-6.5,2.916-6.5,6.5s2.916,6.5,6.5,6.5S35,35.584,35,32S32.084,25.5,28.5,25.5z"/>
	</g>
	<g>
		<path class="st1" d="M28.5,36c-2.206,0-4-1.794-4-4s1.794-4,4-4s4,1.794,4,4S30.706,36,28.5,36z M28.5,29c-1.654,0-3,1.346-3,3
			s1.346,3,3,3s3-1.346,3-3S30.154,29,28.5,29z"/>
	</g>
	<g>
		<circle class="st2" cx="17.5" cy="32" r="2"/>
		<path class="st1" d="M17.5,34.5c-1.378,0-2.5-1.122-2.5-2.5s1.122-2.5,2.5-2.5S20,30.622,20,32S18.878,34.5,17.5,34.5z M17.5,30.5
			c-0.827,0-1.5,0.673-1.5,1.5s0.673,1.5,1.5,1.5S19,32.827,19,32S18.327,30.5,17.5,30.5z"/>
	</g>
	<g>
		<circle class="st2" cx="28.5" cy="39" r="2"/>
		<path class="st1" d="M28.5,41.5c-1.378,0-2.5-1.122-2.5-2.5s1.122-2.5,2.5-2.5S31,37.622,31,39S29.878,41.5,28.5,41.5z M28.5,37.5
			c-0.827,0-1.5,0.673-1.5,1.5s0.673,1.5,1.5,1.5S30,39.827,30,39S29.327,37.5,28.5,37.5z"/>
	</g>
	<g>
		<path class="st1" d="M33.448,27.552c-0.128,0-0.256-0.049-0.354-0.146c-0.195-0.195-0.195-0.512,0-0.707l5.052-5.052
			C38.24,21.553,38.367,21.5,38.5,21.5h7c0.276,0,0.5,0.224,0.5,0.5s-0.224,0.5-0.5,0.5h-6.793l-4.905,4.905
			C33.704,27.503,33.576,27.552,33.448,27.552z"/>
	</g>
	<g>
		<rect x="48.5" y="20" class="st7" width="4" height="4"/>
		<path class="st1" d="M52.5,24.5h-4c-0.276,0-0.5-0.224-0.5-0.5v-4c0-0.276,0.224-0.5,0.5-0.5h4c0.276,0,0.5,0.224,0.5,0.5v4
			C53,24.276,52.776,24.5,52.5,24.5z M49,23.5h3v-3h-3V23.5z"/>
	</g>
	<g>
		<rect x="48.5" y="27" class="st7" width="4" height="4"/>
		<path class="st1" d="M52.5,31.5h-4c-0.276,0-0.5-0.224-0.5-0.5v-4c0-0.276,0.224-0.5,0.5-0.5h4c0.276,0,0.5,0.224,0.5,0.5v4
			C53,31.276,52.776,31.5,52.5,31.5z M49,30.5h3v-3h-3V30.5z"/>
	</g>
	<g>
		<rect x="48.5" y="34" class="st7" width="4" height="4"/>
		<path class="st1" d="M52.5,38.5h-4c-0.276,0-0.5-0.224-0.5-0.5v-4c0-0.276,0.224-0.5,0.5-0.5h4c0.276,0,0.5,0.224,0.5,0.5v4
			C53,38.276,52.776,38.5,52.5,38.5z M49,37.5h3v-3h-3V37.5z"/>
	</g>
	<g>
		<line class="st28" x1="52.5" y1="43" x2="47.5" y2="43"/>
		<path class="st1" d="M52.5,43.5h-5c-0.276,0-0.5-0.224-0.5-0.5s0.224-0.5,0.5-0.5h5c0.276,0,0.5,0.224,0.5,0.5
			S52.776,43.5,52.5,43.5z"/>
	</g>
	<g>
		<line class="st28" x1="45.5" y1="43" x2="44.5" y2="43"/>
		<path class="st1" d="M45.5,43.5h-1c-0.276,0-0.5-0.224-0.5-0.5s0.224-0.5,0.5-0.5h1c0.276,0,0.5,0.224,0.5,0.5
			S45.776,43.5,45.5,43.5z"/>
	</g>
	<g>
		<line class="st28" x1="52.5" y1="45" x2="51.5" y2="45"/>
		<path class="st1" d="M52.5,45.5h-1c-0.276,0-0.5-0.224-0.5-0.5s0.224-0.5,0.5-0.5h1c0.276,0,0.5,0.224,0.5,0.5
			S52.776,45.5,52.5,45.5z"/>
	</g>
	<g>
		<line class="st28" x1="42.5" y1="45" x2="41.5" y2="45"/>
		<path class="st1" d="M42.5,45.5h-1c-0.276,0-0.5-0.224-0.5-0.5s0.224-0.5,0.5-0.5h1c0.276,0,0.5,0.224,0.5,0.5
			S42.776,45.5,42.5,45.5z"/>
	</g>
	<g>
		<line class="st28" x1="49.5" y1="45" x2="44.5" y2="45"/>
		<path class="st1" d="M49.5,45.5h-5c-0.276,0-0.5-0.224-0.5-0.5s0.224-0.5,0.5-0.5h5c0.276,0,0.5,0.224,0.5,0.5
			S49.776,45.5,49.5,45.5z"/>
	</g>
	<g>
		<path class="st1" d="M22.5,14.5h-5c-0.276,0-0.5-0.224-0.5-0.5s0.224-0.5,0.5-0.5h5c0.276,0,0.5,0.224,0.5,0.5
			S22.776,14.5,22.5,14.5z"/>
	</g>
	<g>
		<path class="st1" d="M25.5,14.5h-1c-0.276,0-0.5-0.224-0.5-0.5s0.224-0.5,0.5-0.5h1c0.276,0,0.5,0.224,0.5,0.5
			S25.776,14.5,25.5,14.5z"/>
	</g>
</g>
</svg>
