<?xml version="1.0" encoding="utf-8"?>
<!-- Generator: Adobe Illustrator 21.1.0, SVG Export Plug-In . SVG Version: 6.00 Build 0)  -->
<svg version="1.1" id="Layer_1" xmlns="http://www.w3.org/2000/svg" xmlns:xlink="http://www.w3.org/1999/xlink" x="0px" y="0px"
	 viewBox="0 0 64 64" style="enable-background:new 0 0 64 64;" xml:space="preserve">
<style type="text/css">
	.st0{fill:#DB8E11;}
	.st1{fill:#212A41;}
	.st2{fill:#F9AC2F;}
	.st3{fill:#FFCA4D;}
	.st4{fill:#B7C0D7;}
	.st5{fill:#99A2B9;}
	.st6{fill:#B51040;}
	.st7{fill:#D32E5E;}
	.st8{fill:#F14C7C;}
	.st9{fill:#0079A8;}
	.st10{fill:#1E97C6;}
	.st11{fill:#BED38E;}
	.st12{fill:#A0B570;}
	.st13{fill:#DCF1AC;}
	.st14{fill:#D5DEF5;}
	.st15{fill:#4E4B51;}
	.st16{fill:#6C696F;}
	.st17{fill:#848483;}
	.st18{fill:#A2A2A1;}
	.st19{fill:#7B849B;}
	.st20{fill:#8A878D;}
	.st21{fill:#C0C0BF;}
	.st22{fill:#005B8A;}
	.st23{fill:#970022;}
	.st24{fill:#1A237E;}
	.st25{fill:#BD7000;}
	.st26{fill:#003D6C;}
	.st27{fill:#666665;}
	.st28{fill:#195190;}
</style>
<g id="Rocket">
	<g>
		<circle class="st18" cx="51.033" cy="52.117" r="3"/>
		<path class="st1" d="M51.033,55.617c-1.93,0-3.5-1.57-3.5-3.5s1.57-3.5,3.5-3.5s3.5,1.57,3.5,3.5S52.963,55.617,51.033,55.617z
			 M51.033,49.617c-1.379,0-2.5,1.122-2.5,2.5s1.121,2.5,2.5,2.5s2.5-1.122,2.5-2.5S52.412,49.617,51.033,49.617z"/>
	</g>
	<g>
		<circle class="st18" cx="12.533" cy="14.117" r="2"/>
		<path class="st1" d="M12.533,16.617c-1.379,0-2.5-1.122-2.5-2.5s1.121-2.5,2.5-2.5s2.5,1.122,2.5,2.5S13.912,16.617,12.533,16.617
			z M12.533,12.617c-0.827,0-1.5,0.673-1.5,1.5s0.673,1.5,1.5,1.5s1.5-0.673,1.5-1.5S13.36,12.617,12.533,12.617z"/>
	</g>
	<g>
		<circle class="st18" cx="22.533" cy="4.117" r="2"/>
		<path class="st1" d="M22.533,6.617c-1.379,0-2.5-1.122-2.5-2.5s1.121-2.5,2.5-2.5s2.5,1.122,2.5,2.5S23.912,6.617,22.533,6.617z
			 M22.533,2.617c-0.827,0-1.5,0.673-1.5,1.5s0.673,1.5,1.5,1.5s1.5-0.673,1.5-1.5S23.36,2.617,22.533,2.617z"/>
	</g>
	<g>
		<path class="st4" d="M58.934,6.376C55.4,2.842,46.968,5.214,38.01,11.62c-4.782,3.42-8.911,7.674-12.328,12.458L12.789,42.129
			c-0.71,0.994-0.598,2.357,0.267,3.221l6.904,6.904c0.864,0.864,2.226,0.977,3.221,0.267l18.052-12.894
			c4.784-3.417,9.038-7.546,12.458-12.328C60.096,18.342,62.468,9.91,58.934,6.376z"/>
		<path class="st1" d="M21.727,53.49c-0.771,0-1.537-0.299-2.12-0.882l-6.904-6.904c-1.042-1.042-1.177-2.667-0.319-3.865
			l12.893-18.051c3.561-4.985,7.748-9.215,12.444-12.574c9.478-6.778,17.941-8.816,21.567-5.19c3.624,3.625,1.587,12.09-5.19,21.568
			c-3.357,4.695-7.588,8.881-12.573,12.444L23.472,52.928C22.944,53.305,22.333,53.49,21.727,53.49z M54.286,5.25
			c-4.051,0-9.834,2.377-15.984,6.776c-4.607,3.294-8.716,7.447-12.212,12.342L13.196,42.42c-0.571,0.799-0.481,1.882,0.213,2.577
			l6.904,6.904c0.696,0.695,1.779,0.783,2.576,0.213l18.052-12.894c4.896-3.499,9.049-7.607,12.343-12.212
			c6.378-8.919,8.506-17.069,5.296-20.279C57.583,5.733,56.11,5.25,54.286,5.25z"/>
	</g>
	<g>
		<path class="st7" d="M41.61,47.462v-8.116c-0.127,0.092-0.25,0.19-0.378,0.281L26.053,50.469v11.415l10.345-5.643
			C39.611,54.489,41.61,51.122,41.61,47.462z"/>
		<path class="st1" d="M26.054,62.384c-0.089,0-0.177-0.023-0.255-0.07c-0.152-0.09-0.245-0.254-0.245-0.43V50.469
			c0-0.162,0.078-0.313,0.209-0.407l15.554-11.121c0.152-0.11,0.353-0.125,0.521-0.04c0.167,0.085,0.272,0.257,0.272,0.445v8.116
			c0,3.845-2.097,7.377-5.472,9.218l-10.345,5.643C26.219,62.363,26.136,62.384,26.054,62.384z M26.554,50.727v10.315l9.605-5.239
			c3.054-1.666,4.95-4.861,4.95-8.34v-7.133L26.554,50.727z"/>
	</g>
	<g>
		<path class="st7" d="M25.683,24.078c0.091-0.128,0.188-0.251,0.281-0.378h-8.116c-3.659,0-7.027,1.999-8.779,5.211L3.426,39.256
			h11.415L25.683,24.078z"/>
		<path class="st1" d="M14.841,39.756H3.426c-0.177,0-0.34-0.093-0.43-0.245c-0.091-0.152-0.094-0.34-0.009-0.495L8.63,28.672
			c1.841-3.375,5.373-5.472,9.218-5.472h8.115c0.188,0,0.359,0.105,0.445,0.272c0.085,0.167,0.07,0.368-0.04,0.521l-0.278,0.375
			c0,0,0,0,0,0L15.248,39.547C15.154,39.678,15.002,39.756,14.841,39.756z M4.268,38.756h10.316L24.98,24.2h-7.133
			c-3.479,0-6.674,1.897-8.341,4.951L4.268,38.756z"/>
	</g>
	<g>
		<path class="st8" d="M6.795,37.756c-0.081,0-0.163-0.02-0.239-0.061c-0.242-0.132-0.332-0.436-0.199-0.678l4.029-7.387
			c1.49-2.732,4.35-4.43,7.462-4.43h4.219c0.276,0,0.5,0.224,0.5,0.5s-0.224,0.5-0.5,0.5h-4.219c-2.746,0-5.269,1.498-6.585,3.908
			l-4.029,7.387C7.144,37.662,6.972,37.756,6.795,37.756z"/>
	</g>
	<g>
		<path class="st6" d="M28.054,59.015c-0.177,0-0.349-0.094-0.438-0.261c-0.133-0.242-0.043-0.546,0.199-0.678l7.387-4.029
			c2.41-1.315,3.908-3.837,3.908-6.584v-4.219c0-0.276,0.224-0.5,0.5-0.5s0.5,0.224,0.5,0.5v4.219c0,3.113-1.697,5.972-4.43,7.462
			l-7.387,4.029C28.217,58.995,28.135,59.015,28.054,59.015z"/>
	</g>
	<g>
		<path class="st14" d="M14.416,43.792c-0.101,0-0.202-0.03-0.291-0.093c-0.225-0.16-0.276-0.473-0.116-0.697L26.903,24.95
			c3.433-4.806,7.463-8.88,11.979-12.11c6.85-4.897,15.711-8.68,18.99-5.403c0.195,0.195,0.195,0.512,0,0.707s-0.512,0.195-0.707,0
			c-2.708-2.708-11.141,0.819-17.701,5.51c-4.427,3.166-8.379,7.162-11.747,11.877L14.823,43.583
			C14.726,43.719,14.571,43.792,14.416,43.792z"/>
	</g>
	<g>
		<path class="st1" d="M21.727,53.49c-0.771,0-1.537-0.299-2.12-0.882l-6.904-6.904c-1.042-1.042-1.177-2.667-0.319-3.865
			L14.98,38.2c0.086-0.12,0.22-0.196,0.366-0.208c0.148-0.009,0.291,0.041,0.395,0.145l11.432,11.432
			c0.104,0.104,0.157,0.248,0.145,0.395c-0.012,0.146-0.088,0.28-0.207,0.366l-3.639,2.599C22.944,53.305,22.333,53.49,21.727,53.49
			z M15.451,39.261l-2.255,3.159c-0.571,0.799-0.481,1.882,0.213,2.577l6.904,6.904c0.696,0.695,1.779,0.784,2.576,0.213l0,0
			l3.159-2.256L15.451,39.261z"/>
	</g>
	<g>
		<path class="st7" d="M15.447,51.277l-1.414-1.414c-0.391-0.391-0.391-1.024,0-1.414l11.314-11.314
			c0.391-0.391,1.024-0.391,1.414,0l1.414,1.414c0.391,0.391,0.391,1.024,0,1.414L16.861,51.277
			C16.47,51.668,15.837,51.668,15.447,51.277z"/>
		<path class="st1" d="M16.153,52.07c-0.384,0-0.768-0.146-1.061-0.439l-1.414-1.414c-0.585-0.585-0.585-1.537,0-2.122
			l11.314-11.313c0.282-0.283,0.658-0.439,1.06-0.439c0,0,0,0,0.001,0c0.4,0,0.777,0.156,1.061,0.439l1.414,1.414
			c0.283,0.283,0.439,0.66,0.439,1.061c0,0.401-0.156,0.778-0.439,1.061L17.215,51.631C16.922,51.923,16.538,52.07,16.153,52.07z
			 M26.054,37.342L26.054,37.342c-0.134,0-0.259,0.052-0.354,0.146L14.386,48.802c-0.195,0.195-0.195,0.512,0,0.708l1.414,1.414
			c0.196,0.196,0.514,0.195,0.708,0L27.821,39.61c0.095-0.095,0.146-0.22,0.146-0.354c0-0.133-0.052-0.259-0.146-0.354l-1.414-1.414
			C26.312,37.395,26.188,37.342,26.054,37.342z"/>
	</g>
	<g>
		<circle class="st9" cx="47.62" cy="17.69" r="6"/>
		<path class="st1" d="M47.62,24.189c-3.584,0-6.5-2.916-6.5-6.5s2.916-6.5,6.5-6.5s6.5,2.916,6.5,6.5S51.204,24.189,47.62,24.189z
			 M47.62,12.189c-3.032,0-5.5,2.467-5.5,5.5s2.468,5.5,5.5,5.5s5.5-2.467,5.5-5.5S50.652,12.189,47.62,12.189z"/>
	</g>
	<g>
		<path class="st10" d="M43.62,18.189c-0.276,0-0.5-0.224-0.5-0.5c0-2.481,2.019-4.5,4.5-4.5c0.276,0,0.5,0.224,0.5,0.5
			s-0.224,0.5-0.5,0.5c-1.93,0-3.5,1.57-3.5,3.5C44.12,17.966,43.896,18.189,43.62,18.189z"/>
	</g>
	<g>
		<path class="st22" d="M47.62,22.189c-0.276,0-0.5-0.224-0.5-0.5s0.224-0.5,0.5-0.5c1.93,0,3.5-1.57,3.5-3.5
			c0-0.276,0.224-0.5,0.5-0.5s0.5,0.224,0.5,0.5C52.12,20.171,50.102,22.189,47.62,22.189z"/>
	</g>
	<g>
		<path class="st2" d="M3.602,54.989l8.309-3.005L7.72,47.793c-0.518-0.518-1.398-0.322-1.647,0.367L3.602,54.989z"/>
		<path class="st1" d="M3.603,55.489c-0.13,0-0.258-0.051-0.354-0.146c-0.137-0.137-0.183-0.341-0.116-0.523l2.47-6.829
			c0.175-0.485,0.58-0.842,1.084-0.954c0.507-0.112,1.023,0.04,1.387,0.403l4.191,4.191c0.121,0.121,0.172,0.295,0.135,0.462
			s-0.157,0.303-0.318,0.361l-8.309,3.005C3.717,55.479,3.659,55.489,3.603,55.489z M7.017,48c-0.037,0-0.074,0.004-0.112,0.013
			c-0.171,0.038-0.303,0.154-0.362,0.318l-2.106,5.826l6.565-2.375l-3.635-3.635C7.271,48.051,7.147,48,7.017,48z"/>
	</g>
	<g>
		<path class="st2" d="M10.32,61.707l6.829-2.47c0.689-0.249,0.885-1.13,0.367-1.647l-4.191-4.191L10.32,61.707z"/>
		<path class="st1" d="M10.32,62.207c-0.13,0-0.258-0.051-0.354-0.146c-0.137-0.137-0.183-0.341-0.116-0.523l3.005-8.309
			c0.058-0.161,0.194-0.281,0.361-0.318c0.167-0.036,0.342,0.014,0.462,0.135l4.19,4.191c0.365,0.364,0.516,0.882,0.404,1.386
			c-0.112,0.504-0.469,0.909-0.954,1.085l-6.829,2.47C10.435,62.197,10.377,62.207,10.32,62.207z M13.528,54.308l-2.375,6.566
			l5.826-2.107c0.164-0.059,0.279-0.191,0.317-0.361s-0.011-0.339-0.135-0.462L13.528,54.308z"/>
	</g>
	<g>
		<path class="st2" d="M4.133,61.176l10.494-4.542c0.648-0.28,0.809-1.126,0.31-1.625L10.3,50.373
			c-0.499-0.499-1.344-0.338-1.625,0.31L4.133,61.176z"/>
		<path class="st1" d="M4.133,61.676c-0.13,0-0.258-0.051-0.354-0.146c-0.146-0.145-0.187-0.364-0.105-0.552l4.542-10.494
			c0.197-0.456,0.607-0.784,1.096-0.877c0.492-0.096,0.99,0.062,1.342,0.413l4.637,4.637c0.352,0.352,0.506,0.853,0.413,1.342
			c-0.094,0.488-0.422,0.897-0.878,1.095L4.331,61.635C4.268,61.663,4.2,61.676,4.133,61.676z M9.596,50.58
			c-0.032,0-0.064,0.003-0.097,0.009C9.334,50.62,9.2,50.727,9.134,50.881l-4.04,9.334l9.335-4.041
			c0.153-0.066,0.261-0.2,0.292-0.365c0.031-0.166-0.019-0.328-0.138-0.447l-4.637-4.637C9.851,50.631,9.727,50.58,9.596,50.58z"/>
	</g>
	<g>
		<path class="st1" d="M50.259,39.213c-0.128,0-0.256-0.049-0.354-0.146c-0.195-0.195-0.195-0.512,0-0.707l7.071-7.071
			c0.195-0.195,0.512-0.195,0.707,0s0.195,0.512,0,0.707l-7.071,7.071C50.515,39.164,50.387,39.213,50.259,39.213z"/>
	</g>
	<g>
		<path class="st1" d="M48.138,41.334c-0.128,0-0.256-0.049-0.354-0.146c-0.195-0.195-0.195-0.512,0-0.707l0.707-0.707
			c0.195-0.195,0.512-0.195,0.707,0s0.195,0.512,0,0.707l-0.707,0.707C48.394,41.286,48.266,41.334,48.138,41.334z"/>
	</g>
	<g>
		<path class="st1" d="M26.597,15.551c-0.128,0-0.256-0.049-0.354-0.146c-0.195-0.195-0.195-0.512,0-0.707l7.071-7.071
			c0.195-0.195,0.512-0.195,0.707,0s0.195,0.512,0,0.707l-7.071,7.071C26.853,15.502,26.725,15.551,26.597,15.551z"/>
	</g>
	<g>
		<path class="st1" d="M24.476,17.672c-0.128,0-0.256-0.049-0.354-0.146c-0.195-0.195-0.195-0.512,0-0.707l0.707-0.707
			c0.195-0.195,0.512-0.195,0.707,0s0.195,0.512,0,0.707l-0.707,0.707C24.731,17.624,24.604,17.672,24.476,17.672z"/>
	</g>
</g>
</svg>
