<?xml version="1.0" encoding="utf-8"?>
<!-- Generator: Adobe Illustrator 21.1.0, SVG Export Plug-In . SVG Version: 6.00 Build 0)  -->
<svg version="1.1" id="Layer_1" xmlns="http://www.w3.org/2000/svg" xmlns:xlink="http://www.w3.org/1999/xlink" x="0px" y="0px"
	 viewBox="0 0 64 64" style="enable-background:new 0 0 64 64;" xml:space="preserve">
<style type="text/css">
	.st0{fill:#DB8E11;}
	.st1{fill:#212A41;}
	.st2{fill:#F9AC2F;}
	.st3{fill:#FFCA4D;}
	.st4{fill:#B7C0D7;}
	.st5{fill:#99A2B9;}
	.st6{fill:#B51040;}
	.st7{fill:#D32E5E;}
	.st8{fill:#F14C7C;}
	.st9{fill:#0079A8;}
	.st10{fill:#1E97C6;}
	.st11{fill:#BED38E;}
	.st12{fill:#A0B570;}
	.st13{fill:#DCF1AC;}
	.st14{fill:#D5DEF5;}
	.st15{fill:#4E4B51;}
	.st16{fill:#6C696F;}
	.st17{fill:#848483;}
	.st18{fill:#A2A2A1;}
	.st19{fill:#7B849B;}
	.st20{fill:#8A878D;}
	.st21{fill:#C0C0BF;}
	.st22{fill:#005B8A;}
	.st23{fill:#970022;}
	.st24{fill:#1A237E;}
	.st25{fill:#BD7000;}
	.st26{fill:#003D6C;}
	.st27{fill:#666665;}
	.st28{fill:#195190;}
</style>
<g id="Science_Station">
	<g>
		<rect x="43.5" y="9.521" class="st17" width="6" height="30.979"/>
		<path class="st1" d="M49.5,41h-6c-0.276,0-0.5-0.224-0.5-0.5V9.521c0-0.276,0.224-0.5,0.5-0.5h6c0.276,0,0.5,0.224,0.5,0.5V40.5
			C50,40.776,49.776,41,49.5,41z M44,40h5V10.021h-5V40z"/>
	</g>
	<g>
		<path class="st9" d="M60.5,29h-39V14h26.324c1.672,0,3.233,0.836,4.16,2.226L60.5,29z"/>
		<path class="st1" d="M60.5,29.5h-39c-0.276,0-0.5-0.224-0.5-0.5V14c0-0.276,0.224-0.5,0.5-0.5h26.324
			c1.843,0,3.554,0.916,4.576,2.449l8.516,12.773c0.103,0.153,0.112,0.351,0.024,0.513C60.854,29.398,60.685,29.5,60.5,29.5z
			 M22,28.5h37.565l-7.997-11.996c-0.837-1.255-2.236-2.004-3.744-2.004H22V28.5z"/>
	</g>
	<g>
		<rect x="31.5" y="29" class="st4" width="29" height="11.5"/>
		<path class="st1" d="M60.5,41h-29c-0.276,0-0.5-0.224-0.5-0.5V29c0-0.276,0.224-0.5,0.5-0.5h29c0.276,0,0.5,0.224,0.5,0.5v11.5
			C61,40.776,60.776,41,60.5,41z M32,40h28V29.5H32V40z"/>
	</g>
	<g>
		<path class="st22" d="M46.5,29h-28V16.5c0-1.381,1.119-2.5,2.5-2.5h15.5L46.5,29z"/>
		<path class="st1" d="M46.5,29.5h-28c-0.276,0-0.5-0.224-0.5-0.5V16.5c0-1.654,1.346-3,3-3h15.5c0.167,0,0.323,0.083,0.416,0.223
			l10,15c0.103,0.153,0.112,0.351,0.024,0.513C46.854,29.398,46.685,29.5,46.5,29.5z M19,28.5h26.565l-9.333-14H21
			c-1.103,0-2,0.897-2,2V28.5z"/>
	</g>
	<g>
		<path class="st10" d="M47.57,27.5c-0.161,0-0.319-0.078-0.416-0.223l-7.333-11c-0.153-0.23-0.091-0.54,0.139-0.693
			c0.228-0.153,0.538-0.092,0.693,0.139l7.333,11c0.153,0.23,0.091,0.54-0.139,0.693C47.763,27.473,47.666,27.5,47.57,27.5z"/>
	</g>
	<g>
		<path class="st22" d="M56.763,27.5c-0.161,0-0.319-0.078-0.416-0.223l-6.442-9.664c-0.465-0.697-1.242-1.113-2.08-1.113
			c-0.276,0-0.5-0.224-0.5-0.5s0.224-0.5,0.5-0.5c1.173,0,2.262,0.583,2.912,1.559l6.442,9.664c0.153,0.23,0.091,0.54-0.139,0.693
			C56.955,27.473,56.858,27.5,56.763,27.5z"/>
	</g>
	<g>
		<rect x="3.5" y="29" class="st5" width="28" height="11.5"/>
		<path class="st1" d="M31.5,41h-28C3.224,41,3,40.776,3,40.5V29c0-0.276,0.224-0.5,0.5-0.5h28c0.276,0,0.5,0.224,0.5,0.5v11.5
			C32,40.776,31.776,41,31.5,41z M4,40h27V29.5H4V40z"/>
	</g>
	<g>
		<path class="st4" d="M62.5,45.5h-27c-0.552,0-1-0.448-1-1v-3c0-0.552,0.448-1,1-1h27c0.552,0,1,0.448,1,1v3
			C63.5,45.052,63.052,45.5,62.5,45.5z"/>
		<path class="st1" d="M62.5,46h-27c-0.827,0-1.5-0.673-1.5-1.5v-3c0-0.827,0.673-1.5,1.5-1.5h27c0.827,0,1.5,0.673,1.5,1.5v3
			C64,45.327,63.327,46,62.5,46z M35.5,41c-0.275,0-0.5,0.224-0.5,0.5v3c0,0.276,0.225,0.5,0.5,0.5h27c0.275,0,0.5-0.224,0.5-0.5v-3
			c0-0.276-0.225-0.5-0.5-0.5H35.5z"/>
	</g>
	<g>
		<path class="st5" d="M33.5,45.5h-32c-0.552,0-1-0.448-1-1v-3c0-0.552,0.448-1,1-1h32c0.552,0,1,0.448,1,1v3
			C34.5,45.052,34.052,45.5,33.5,45.5z"/>
		<path class="st1" d="M33.5,46h-32C0.673,46,0,45.327,0,44.5v-3C0,40.673,0.673,40,1.5,40h32c0.827,0,1.5,0.673,1.5,1.5v3
			C35,45.327,34.327,46,33.5,46z M1.5,41C1.225,41,1,41.224,1,41.5v3C1,44.776,1.225,45,1.5,45h32c0.275,0,0.5-0.224,0.5-0.5v-3
			c0-0.276-0.225-0.5-0.5-0.5H1.5z"/>
	</g>
	<g>
		<polygon class="st5" points="40,63.5 33,63.5 38.5,45.5 55.5,45.5 		"/>
		<path class="st1" d="M40,64h-7c-0.158,0-0.308-0.075-0.402-0.203c-0.094-0.127-0.122-0.292-0.076-0.443l5.5-18
			C38.086,45.144,38.28,45,38.5,45h17c0.195,0,0.373,0.114,0.454,0.292c0.082,0.178,0.053,0.387-0.075,0.535l-15.5,18
			C40.284,63.937,40.146,64,40,64z M33.676,63h6.095l14.639-17H38.87L33.676,63z"/>
	</g>
	<g>
		<path class="st4" d="M49,59.5H36c-0.552,0-1,0.448-1,1v2c0,0.552,0.448,1,1,1h13c0.552,0,1-0.448,1-1v-2
			C50,59.948,49.552,59.5,49,59.5z"/>
		<path class="st1" d="M49,64H36c-0.827,0-1.5-0.673-1.5-1.5v-2c0-0.827,0.673-1.5,1.5-1.5h13c0.827,0,1.5,0.673,1.5,1.5v2
			C50.5,63.327,49.827,64,49,64z M36,60c-0.275,0-0.5,0.224-0.5,0.5v2c0,0.276,0.225,0.5,0.5,0.5h13c0.275,0,0.5-0.224,0.5-0.5v-2
			c0-0.276-0.225-0.5-0.5-0.5H36z"/>
	</g>
	<g>
		<path class="st5" d="M44,59.5H31c-0.552,0-1,0.448-1,1v2c0,0.552,0.448,1,1,1h13c0.552,0,1-0.448,1-1v-2
			C45,59.948,44.552,59.5,44,59.5z"/>
		<path class="st1" d="M44,64H31c-0.827,0-1.5-0.673-1.5-1.5v-2c0-0.827,0.673-1.5,1.5-1.5h13c0.827,0,1.5,0.673,1.5,1.5v2
			C45.5,63.327,44.827,64,44,64z M31,60c-0.275,0-0.5,0.224-0.5,0.5v2c0,0.276,0.225,0.5,0.5,0.5h13c0.275,0,0.5-0.224,0.5-0.5v-2
			c0-0.276-0.225-0.5-0.5-0.5H31z"/>
	</g>
	<g>
		<path class="st16" d="M41,54.5H23c-4.971,0-9-4.029-9-9v0h36v0C50,50.47,45.971,54.5,41,54.5z"/>
		<path class="st1" d="M41,55H23c-5.238,0-9.5-4.262-9.5-9.5c0-0.276,0.224-0.5,0.5-0.5h36c0.276,0,0.5,0.224,0.5,0.5
			C50.5,50.738,46.238,55,41,55z M14.515,46c0.26,4.455,3.967,8,8.485,8h18c4.519,0,8.226-3.545,8.485-8H14.515z"/>
	</g>
	<g>
		<path class="st15" d="M41,53c-0.276,0-0.5-0.224-0.5-0.5S40.724,52,41,52c2.852,0,5.414-1.909,6.229-4.643
			c0.08-0.264,0.36-0.414,0.622-0.336c0.265,0.079,0.415,0.357,0.337,0.622C47.246,50.797,44.291,53,41,53z"/>
	</g>
	<g>
		<polygon class="st5" points="11,63.5 4,63.5 9.5,45.5 26.5,45.5 		"/>
		<path class="st1" d="M11,64H4c-0.158,0-0.308-0.075-0.402-0.203c-0.094-0.127-0.122-0.292-0.076-0.443l5.5-18
			C9.086,45.144,9.28,45,9.5,45h17c0.195,0,0.373,0.114,0.454,0.292c0.082,0.178,0.053,0.387-0.075,0.535l-15.5,18
			C11.284,63.937,11.146,64,11,64z M4.676,63h6.095l14.639-17H9.87L4.676,63z"/>
	</g>
	<g>
		<path class="st4" d="M7.925,58c-0.048,0-0.098-0.007-0.146-0.022c-0.264-0.081-0.412-0.36-0.332-0.624l3.056-10
			c0.081-0.263,0.358-0.416,0.625-0.332c0.264,0.081,0.412,0.36,0.332,0.624l-3.056,10C8.337,57.861,8.139,58,7.925,58z"/>
	</g>
	<g>
		<path class="st19" d="M13.527,58c-0.116,0-0.231-0.04-0.326-0.121c-0.209-0.18-0.232-0.496-0.053-0.705l8.611-10
			c0.181-0.209,0.496-0.231,0.705-0.053c0.209,0.18,0.232,0.496,0.053,0.705l-8.611,10C13.808,57.94,13.668,58,13.527,58z"/>
	</g>
	<g>
		<path class="st4" d="M20,59.5H7c-0.552,0-1,0.448-1,1v2c0,0.552,0.448,1,1,1h13c0.552,0,1-0.448,1-1v-2
			C21,59.948,20.552,59.5,20,59.5z"/>
		<path class="st1" d="M20,64H7c-0.827,0-1.5-0.673-1.5-1.5v-2C5.5,59.673,6.173,59,7,59h13c0.827,0,1.5,0.673,1.5,1.5v2
			C21.5,63.327,20.827,64,20,64z M7,60c-0.275,0-0.5,0.224-0.5,0.5v2C6.5,62.776,6.725,63,7,63h13c0.275,0,0.5-0.224,0.5-0.5v-2
			c0-0.276-0.225-0.5-0.5-0.5H7z"/>
	</g>
	<g>
		<path class="st5" d="M15,59.5H2c-0.552,0-1,0.448-1,1v2c0,0.552,0.448,1,1,1h13c0.552,0,1-0.448,1-1v-2
			C16,59.948,15.552,59.5,15,59.5z"/>
		<path class="st1" d="M15,64H2c-0.827,0-1.5-0.673-1.5-1.5v-2C0.5,59.673,1.173,59,2,59h13c0.827,0,1.5,0.673,1.5,1.5v2
			C16.5,63.327,15.827,64,15,64z M2,60c-0.275,0-0.5,0.224-0.5,0.5v2C1.5,62.776,1.725,63,2,63h13c0.275,0,0.5-0.224,0.5-0.5v-2
			c0-0.276-0.225-0.5-0.5-0.5H2z"/>
	</g>
	<g>
		<path class="st1" d="M55.5,22h-14c-0.276,0-0.5-0.224-0.5-0.5s0.224-0.5,0.5-0.5h14c0.276,0,0.5,0.224,0.5,0.5S55.776,22,55.5,22z
			"/>
	</g>
	<g>
		<path class="st2" d="M60.5,36h-9c-0.552,0-1-0.448-1-1v-2c0-0.552,0.448-1,1-1h9V36z"/>
	</g>
	<g>
		<path class="st18" d="M41.5,21.5H21c-1.381,0-2.5,1.119-2.5,2.5v5h28L41.5,21.5z"/>
		<path class="st1" d="M46.5,29.5h-28c-0.276,0-0.5-0.224-0.5-0.5v-5c0-1.654,1.346-3,3-3h20.5c0.167,0,0.323,0.083,0.416,0.223
			l5,7.5c0.103,0.153,0.112,0.351,0.024,0.513C46.854,29.398,46.685,29.5,46.5,29.5z M19,28.5h26.565L41.232,22H21
			c-1.103,0-2,0.897-2,2V28.5z"/>
	</g>
	<g>
		<path class="st17" d="M26.5,21.5H6c-1.381,0-2.5,1.119-2.5,2.5v5h28L26.5,21.5z"/>
		<path class="st1" d="M31.5,29.5h-28C3.224,29.5,3,29.276,3,29v-5c0-1.654,1.346-3,3-3h20.5c0.167,0,0.323,0.083,0.416,0.223l5,7.5
			c0.103,0.153,0.112,0.351,0.024,0.513C31.854,29.398,31.685,29.5,31.5,29.5z M4,28.5h26.565L26.232,22H6c-1.103,0-2,0.897-2,2
			V28.5z"/>
	</g>
	<g>
		<rect x="7.5" y="5.021" class="st18" width="8.5" height="16.479"/>
		<path class="st1" d="M16,22H7.5C7.224,22,7,21.776,7,21.5V5.021c0-0.276,0.224-0.5,0.5-0.5H16c0.276,0,0.5,0.224,0.5,0.5V21.5
			C16.5,21.776,16.276,22,16,22z M8,21h7.5V5.521H8V21z"/>
	</g>
	<g>
		<rect x="4.75" y="5.021" class="st18" width="14" height="6"/>
		<path class="st1" d="M18.75,11.521h-14c-0.276,0-0.5-0.224-0.5-0.5v-6c0-0.276,0.224-0.5,0.5-0.5h14c0.276,0,0.5,0.224,0.5,0.5v6
			C19.25,11.297,19.026,11.521,18.75,11.521z M5.25,10.521h13v-5h-13V10.521z"/>
	</g>
	<g>
		<rect x="44.5" y="0.521" class="st17" width="4" height="9"/>
		<path class="st1" d="M48.5,10.021h-4c-0.276,0-0.5-0.224-0.5-0.5v-9c0-0.276,0.224-0.5,0.5-0.5h4c0.276,0,0.5,0.224,0.5,0.5v9
			C49,9.797,48.776,10.021,48.5,10.021z M45,9.021h3v-8h-3V9.021z"/>
	</g>
	<g>
		<path class="st1" d="M7.5,11.5C7.224,11.5,7,11.276,7,11V5.021c0-0.276,0.224-0.5,0.5-0.5S8,4.744,8,5.021V11
			C8,11.276,7.776,11.5,7.5,11.5z"/>
	</g>
	<g>
		<path class="st1" d="M11.75,11.5c-0.276,0-0.5-0.224-0.5-0.5V5.021c0-0.276,0.224-0.5,0.5-0.5s0.5,0.224,0.5,0.5V11
			C12.25,11.276,12.026,11.5,11.75,11.5z"/>
	</g>
	<g>
		<path class="st1" d="M16,11.5c-0.276,0-0.5-0.224-0.5-0.5V5.021c0-0.276,0.224-0.5,0.5-0.5s0.5,0.224,0.5,0.5V11
			C16.5,11.276,16.276,11.5,16,11.5z"/>
	</g>
	<g>
		<path class="st14" d="M33.5,39c-0.276,0-0.5-0.224-0.5-0.5V31c0-0.276,0.224-0.5,0.5-0.5S34,30.724,34,31v7.5
			C34,38.776,33.776,39,33.5,39z"/>
	</g>
	<g>
		<path class="st19" d="M29.5,39c-0.276,0-0.5-0.224-0.5-0.5V31c0-0.276,0.224-0.5,0.5-0.5S30,30.724,30,31v7.5
			C30,38.776,29.776,39,29.5,39z"/>
	</g>
	<g>
		<path class="st4" d="M5.5,39C5.224,39,5,38.776,5,38.5V31c0-0.276,0.224-0.5,0.5-0.5S6,30.724,6,31v7.5C6,38.776,5.776,39,5.5,39z
			"/>
	</g>
	<g>
		<path class="st5" d="M58.5,39c-0.276,0-0.5-0.224-0.5-0.5V31c0-0.276,0.224-0.5,0.5-0.5S59,30.724,59,31v7.5
			C59,38.776,58.776,39,58.5,39z"/>
	</g>
	<g>
		<path class="st0" d="M58.5,36.5c-0.276,0-0.5-0.224-0.5-0.5v-4c0-0.276,0.224-0.5,0.5-0.5S59,31.724,59,32v4
			C59,36.276,58.776,36.5,58.5,36.5z"/>
	</g>
	<g>
		<path class="st1" d="M60.5,36.5h-9c-0.827,0-1.5-0.673-1.5-1.5v-2c0-0.827,0.673-1.5,1.5-1.5h9c0.276,0,0.5,0.224,0.5,0.5v4
			C61,36.276,60.776,36.5,60.5,36.5z M51.5,32.5c-0.275,0-0.5,0.224-0.5,0.5v2c0,0.276,0.225,0.5,0.5,0.5H60v-3H51.5z"/>
	</g>
	<g>
		<path class="st21" d="M9.5,20C9.224,20,9,19.776,9,19.5V13c0-0.276,0.224-0.5,0.5-0.5S10,12.724,10,13v6.5
			C10,19.776,9.776,20,9.5,20z"/>
	</g>
	<g>
		<path class="st17" d="M14,20c-0.276,0-0.5-0.224-0.5-0.5V13c0-0.276,0.224-0.5,0.5-0.5s0.5,0.224,0.5,0.5v6.5
			C14.5,19.776,14.276,20,14,20z"/>
	</g>
</g>
</svg>
