<?xml version="1.0" encoding="utf-8"?>
<!-- Generator: Adobe Illustrator 21.1.0, SVG Export Plug-In . SVG Version: 6.00 Build 0)  -->
<svg version="1.1" id="Layer_1" xmlns="http://www.w3.org/2000/svg" xmlns:xlink="http://www.w3.org/1999/xlink" x="0px" y="0px"
	 viewBox="0 0 64 64" style="enable-background:new 0 0 64 64;" xml:space="preserve">
<style type="text/css">
	.st0{fill:#DB8E11;}
	.st1{fill:#212A41;}
	.st2{fill:#F9AC2F;}
	.st3{fill:#FFCA4D;}
	.st4{fill:#B7C0D7;}
	.st5{fill:#99A2B9;}
	.st6{fill:#B51040;}
	.st7{fill:#D32E5E;}
	.st8{fill:#F14C7C;}
	.st9{fill:#0079A8;}
	.st10{fill:#1E97C6;}
	.st11{fill:#BED38E;}
	.st12{fill:#A0B570;}
	.st13{fill:#DCF1AC;}
	.st14{fill:#D5DEF5;}
	.st15{fill:#4E4B51;}
	.st16{fill:#6C696F;}
	.st17{fill:#848483;}
	.st18{fill:#A2A2A1;}
	.st19{fill:#7B849B;}
	.st20{fill:#8A878D;}
	.st21{fill:#C0C0BF;}
	.st22{fill:#005B8A;}
	.st23{fill:#970022;}
	.st24{fill:#1A237E;}
	.st25{fill:#BD7000;}
	.st26{fill:#003D6C;}
	.st27{fill:#666665;}
	.st28{fill:#195190;}
</style>
<g id="Space_Robot">
	<g>
		<path class="st16" d="M58.5,61.5h-20c-2.761,0-5-2.239-5-5v-5c0-2.761,2.239-5,5-5h20c2.761,0,5,2.239,5,5v5
			C63.5,59.261,61.261,61.5,58.5,61.5z"/>
		<path class="st1" d="M58.5,62h-20c-3.032,0-5.5-2.467-5.5-5.5v-5c0-3.033,2.468-5.5,5.5-5.5h20c3.032,0,5.5,2.467,5.5,5.5v5
			C64,59.533,61.532,62,58.5,62z M38.5,47c-2.481,0-4.5,2.019-4.5,4.5v5c0,2.481,2.019,4.5,4.5,4.5h20c2.481,0,4.5-2.019,4.5-4.5v-5
			c0-2.481-2.019-4.5-4.5-4.5H38.5z"/>
	</g>
	<g>
		<path class="st15" d="M48.5,61.5h-20c-2.761,0-5-2.239-5-5v-5c0-2.761,2.239-5,5-5h20c2.761,0,5,2.239,5,5v5
			C53.5,59.261,51.261,61.5,48.5,61.5z"/>
		<path class="st1" d="M48.5,62h-20c-3.033,0-5.5-2.467-5.5-5.5v-5c0-3.033,2.467-5.5,5.5-5.5h20c3.032,0,5.5,2.467,5.5,5.5v5
			C54,59.533,51.532,62,48.5,62z M28.5,47c-2.481,0-4.5,2.019-4.5,4.5v5c0,2.481,2.019,4.5,4.5,4.5h20c2.481,0,4.5-2.019,4.5-4.5v-5
			c0-2.481-2.019-4.5-4.5-4.5H28.5z"/>
	</g>
	<g>
		<path class="st20" d="M54.824,60c-0.072,0-0.146-0.016-0.215-0.048c-0.249-0.119-0.355-0.417-0.236-0.667
			C54.789,58.41,55,57.473,55,56.5v-5c0-0.973-0.211-1.91-0.627-2.785c-0.119-0.25-0.013-0.548,0.236-0.667
			c0.247-0.118,0.548-0.013,0.666,0.237C55.756,49.296,56,50.377,56,51.5v5c0,1.123-0.244,2.204-0.725,3.215
			C55.19,59.895,55.011,60,54.824,60z"/>
	</g>
	<g>
		<path class="st1" d="M63.5,57h-10c-0.276,0-0.5-0.224-0.5-0.5s0.224-0.5,0.5-0.5h10c0.276,0,0.5,0.224,0.5,0.5S63.776,57,63.5,57z
			"/>
	</g>
	<g>
		<path class="st1" d="M63.5,52h-10c-0.276,0-0.5-0.224-0.5-0.5s0.224-0.5,0.5-0.5h10c0.276,0,0.5,0.224,0.5,0.5S63.776,52,63.5,52z
			"/>
	</g>
	<g>
		<path class="st1" d="M49,57h-5c-0.276,0-0.5-0.224-0.5-0.5v-5c0-0.276,0.224-0.5,0.5-0.5h5c0.827,0,1.5,0.673,1.5,1.5v3
			C50.5,56.327,49.827,57,49,57z M44.5,56H49c0.275,0,0.5-0.224,0.5-0.5v-3c0-0.276-0.225-0.5-0.5-0.5h-4.5V56z"/>
	</g>
	<g>
		<path class="st2" d="M32,2.5c-8.837,0-16,7.163-16,16h32C48,9.663,40.837,2.5,32,2.5z"/>
		<path class="st1" d="M48,19H16c-0.276,0-0.5-0.224-0.5-0.5C15.5,9.402,22.902,2,32,2c9.098,0,16.5,7.402,16.5,16.5
			C48.5,18.776,48.276,19,48,19z M16.508,18h30.984C47.227,9.684,40.379,3,32,3C23.621,3,16.773,9.684,16.508,18z"/>
	</g>
	<g>
		<path class="st3" d="M18.143,17c-0.023,0-0.047-0.001-0.072-0.005c-0.273-0.04-0.463-0.293-0.424-0.566
			C18.666,9.343,24.835,4,32,4c0.276,0,0.5,0.224,0.5,0.5S32.276,5,32,5c-6.67,0-12.415,4.975-13.362,11.571
			C18.602,16.82,18.388,17,18.143,17z"/>
	</g>
	<g>
		<path class="st5" d="M37,39.5H17V54c0,1.381,1.119,2.5,2.5,2.5h15c1.381,0,2.5-1.119,2.5-2.5V39.5z"/>
		<path class="st1" d="M34.5,57h-15c-1.654,0-3-1.346-3-3V39.5c0-0.276,0.224-0.5,0.5-0.5h20c0.276,0,0.5,0.224,0.5,0.5V54
			C37.5,55.654,36.154,57,34.5,57z M17.5,40v14c0,1.103,0.897,2,2,2h15c1.103,0,2-0.897,2-2V40H17.5z"/>
	</g>
	<g>
		<path class="st5" d="M37,18.5H17c-2.761,0-5,2.239-5,5v11c0,2.761,2.239,5,5,5h20c2.761,0,5-2.239,5-5v-11
			C42,20.739,39.761,18.5,37,18.5z"/>
		<path class="st1" d="M37,40H17c-3.033,0-5.5-2.467-5.5-5.5v-11c0-3.033,2.467-5.5,5.5-5.5h20c3.032,0,5.5,2.467,5.5,5.5v11
			C42.5,37.533,40.032,40,37,40z M17,19c-2.481,0-4.5,2.019-4.5,4.5v11c0,2.481,2.019,4.5,4.5,4.5h20c2.481,0,4.5-2.019,4.5-4.5v-11
			c0-2.481-2.019-4.5-4.5-4.5H17z"/>
	</g>
	<g>
		<path class="st4" d="M47,39.5H27V54c0,1.381,1.119,2.5,2.5,2.5h15c1.381,0,2.5-1.119,2.5-2.5V39.5z"/>
		<path class="st1" d="M44.5,57h-15c-1.654,0-3-1.346-3-3V39.5c0-0.276,0.224-0.5,0.5-0.5h20c0.276,0,0.5,0.224,0.5,0.5V54
			C47.5,55.654,46.154,57,44.5,57z M27.5,40v14c0,1.103,0.897,2,2,2h15c1.103,0,2-0.897,2-2V40H27.5z"/>
	</g>
	<g>
		<path class="st5" d="M45,54.5c-0.276,0-0.5-0.224-0.5-0.5V41.5c0-0.276,0.224-0.5,0.5-0.5s0.5,0.224,0.5,0.5V54
			C45.5,54.276,45.276,54.5,45,54.5z"/>
	</g>
	<g>
		<path class="st4" d="M47,18.5H27c-2.761,0-5,2.239-5,5v11c0,2.761,2.239,5,5,5h20c2.761,0,5-2.239,5-5v-11
			C52,20.739,49.761,18.5,47,18.5z"/>
		<path class="st1" d="M47,40H27c-3.033,0-5.5-2.467-5.5-5.5v-11c0-3.033,2.467-5.5,5.5-5.5h20c3.032,0,5.5,2.467,5.5,5.5v11
			C52.5,37.533,50.032,40,47,40z M27,19c-2.481,0-4.5,2.019-4.5,4.5v11c0,2.481,2.019,4.5,4.5,4.5h20c2.481,0,4.5-2.019,4.5-4.5v-11
			c0-2.481-2.019-4.5-4.5-4.5H27z"/>
	</g>
	<g>
		<path class="st14" d="M27,38c-1.93,0-3.5-1.57-3.5-3.5v-11c0-1.93,1.57-3.5,3.5-3.5c0.276,0,0.5,0.224,0.5,0.5S27.276,21,27,21
			c-1.378,0-2.5,1.122-2.5,2.5v11c0,1.378,1.122,2.5,2.5,2.5c0.276,0,0.5,0.224,0.5,0.5S27.276,38,27,38z"/>
	</g>
	<g>
		<path class="st4" d="M17,38c-1.93,0-3.5-1.57-3.5-3.5v-11c0-1.93,1.57-3.5,3.5-3.5c0.276,0,0.5,0.224,0.5,0.5S17.276,21,17,21
			c-1.378,0-2.5,1.122-2.5,2.5v11c0,1.378,1.122,2.5,2.5,2.5c0.276,0,0.5,0.224,0.5,0.5S17.276,38,17,38z"/>
	</g>
	<g>
		<path class="st16" d="M35.5,61.5h-20c-2.761,0-5-2.239-5-5v-5c0-2.761,2.239-5,5-5h20c2.761,0,5,2.239,5,5v5
			C40.5,59.261,38.261,61.5,35.5,61.5z"/>
		<path class="st1" d="M35.5,62h-20c-3.033,0-5.5-2.467-5.5-5.5v-5c0-3.033,2.467-5.5,5.5-5.5h20c3.032,0,5.5,2.467,5.5,5.5v5
			C41,59.533,38.532,62,35.5,62z M15.5,47c-2.481,0-4.5,2.019-4.5,4.5v5c0,2.481,2.019,4.5,4.5,4.5h20c2.481,0,4.5-2.019,4.5-4.5v-5
			c0-2.481-2.019-4.5-4.5-4.5H15.5z"/>
	</g>
	<g>
		<path class="st15" d="M25.5,61.5h-20c-2.761,0-5-2.239-5-5v-5c0-2.761,2.239-5,5-5h20c2.761,0,5,2.239,5,5v5
			C30.5,59.261,28.261,61.5,25.5,61.5z"/>
		<path class="st1" d="M25.5,62h-20C2.467,62,0,59.533,0,56.5v-5C0,48.467,2.467,46,5.5,46h20c3.033,0,5.5,2.467,5.5,5.5v5
			C31,59.533,28.533,62,25.5,62z M5.5,47C3.019,47,1,49.019,1,51.5v5C1,58.981,3.019,61,5.5,61h20c2.481,0,4.5-2.019,4.5-4.5v-5
			c0-2.481-2.019-4.5-4.5-4.5H5.5z"/>
	</g>
	<g>
		<path class="st20" d="M31.824,60c-0.072,0-0.145-0.016-0.214-0.048c-0.25-0.119-0.355-0.417-0.237-0.667
			C31.789,58.411,32,57.474,32,56.5v-5c0-0.974-0.211-1.911-0.627-2.785c-0.119-0.249-0.013-0.547,0.237-0.667
			c0.25-0.118,0.548-0.012,0.667,0.237C32.756,49.294,33,50.376,33,51.5v5c0,1.124-0.244,2.206-0.724,3.215
			C32.19,59.895,32.011,60,31.824,60z"/>
	</g>
	<g>
		<ellipse class="st18" cx="15.5" cy="54" rx="3.5" ry="5.5"/>
		<path class="st1" d="M15.5,60c-2.243,0-4-2.636-4-6s1.757-6,4-6s4,2.636,4,6S17.743,60,15.5,60z M15.5,49c-1.626,0-3,2.29-3,5
			s1.374,5,3,5s3-2.29,3-5S17.126,49,15.5,49z"/>
	</g>
	<g>
		<ellipse class="st18" cx="7.5" cy="54" rx="3.5" ry="5.5"/>
		<path class="st1" d="M7.5,60c-2.243,0-4-2.636-4-6s1.757-6,4-6s4,2.636,4,6S9.743,60,7.5,60z M7.5,49c-1.626,0-3,2.29-3,5
			s1.374,5,3,5s3-2.29,3-5S9.126,49,7.5,49z"/>
	</g>
	<g>
		<ellipse class="st18" cx="23.5" cy="54" rx="3.5" ry="5.5"/>
		<path class="st1" d="M23.5,60c-2.243,0-4-2.636-4-6s1.757-6,4-6s4,2.636,4,6S25.743,60,23.5,60z M23.5,49c-1.626,0-3,2.29-3,5
			s1.374,5,3,5s3-2.29,3-5S25.126,49,23.5,49z"/>
	</g>
	<g>
		<ellipse class="st15" cx="23.5" cy="54" rx="1" ry="2"/>
		<path class="st1" d="M23.5,56.5c-0.855,0-1.5-1.075-1.5-2.5s0.645-2.5,1.5-2.5S25,52.575,25,54S24.355,56.5,23.5,56.5z M23.5,52.5
			c-0.125,0-0.5,0.532-0.5,1.5s0.375,1.5,0.5,1.5S24,54.968,24,54S23.625,52.5,23.5,52.5z"/>
	</g>
	<g>
		<ellipse class="st15" cx="15.5" cy="54" rx="1" ry="2"/>
		<path class="st1" d="M15.5,56.5c-0.855,0-1.5-1.075-1.5-2.5s0.645-2.5,1.5-2.5S17,52.575,17,54S16.355,56.5,15.5,56.5z M15.5,52.5
			c-0.125,0-0.5,0.532-0.5,1.5s0.375,1.5,0.5,1.5S16,54.968,16,54S15.625,52.5,15.5,52.5z"/>
	</g>
	<g>
		<ellipse class="st15" cx="7.5" cy="54" rx="1" ry="2"/>
		<path class="st1" d="M7.5,56.5C6.645,56.5,6,55.425,6,54s0.645-2.5,1.5-2.5S9,52.575,9,54S8.355,56.5,7.5,56.5z M7.5,52.5
			C7.375,52.5,7,53.032,7,54s0.375,1.5,0.5,1.5S8,54.968,8,54S7.625,52.5,7.5,52.5z"/>
	</g>
	<g>
		<path class="st1" d="M40.5,57h-10c-0.276,0-0.5-0.224-0.5-0.5s0.224-0.5,0.5-0.5h10c0.276,0,0.5,0.224,0.5,0.5S40.776,57,40.5,57z
			"/>
	</g>
	<g>
		<path class="st1" d="M40.5,52h-10c-0.276,0-0.5-0.224-0.5-0.5s0.224-0.5,0.5-0.5h10c0.276,0,0.5,0.224,0.5,0.5S40.776,52,40.5,52z
			"/>
	</g>
	<g>
		<path class="st5" d="M46,31.5H20.5c-1.381,0-2.5-1.119-2.5-2.5v0c0-1.381,1.119-2.5,2.5-2.5H46V31.5z"/>
		<path class="st1" d="M46,32H20.5c-1.654,0-3-1.346-3-3s1.346-3,3-3H46c0.276,0,0.5,0.224,0.5,0.5v5C46.5,31.776,46.276,32,46,32z
			 M20.5,27c-1.103,0-2,0.897-2,2s0.897,2,2,2h25v-4H20.5z"/>
	</g>
	<g>
		<path class="st9" d="M44.479,8.5H34.5C33.119,8.5,32,9.619,32,11v0c0,1.381,1.119,2.5,2.5,2.5h12.692
			C46.588,11.664,45.663,9.975,44.479,8.5z"/>
		<path class="st1" d="M47.192,14H34.5c-1.654,0-3-1.346-3-3s1.346-3,3-3h9.979c0.151,0,0.295,0.069,0.39,0.187
			c1.238,1.543,2.18,3.278,2.798,5.157c0.051,0.152,0.024,0.319-0.069,0.449S47.353,14,47.192,14z M34.5,9c-1.103,0-2,0.897-2,2
			s0.897,2,2,2h11.985c-0.547-1.439-1.301-2.781-2.248-4H34.5z"/>
	</g>
	<g>
		<circle class="st2" cx="31.812" cy="29" r="4"/>
		<path class="st1" d="M31.812,33.5c-2.481,0-4.5-2.019-4.5-4.5s2.019-4.5,4.5-4.5s4.5,2.019,4.5,4.5S34.294,33.5,31.812,33.5z
			 M31.812,25.5c-1.93,0-3.5,1.57-3.5,3.5s1.57,3.5,3.5,3.5s3.5-1.57,3.5-3.5S33.742,25.5,31.812,25.5z"/>
	</g>
	<g>
		<circle class="st0" cx="29.812" cy="29" r="4"/>
		<path class="st1" d="M29.812,33.5c-2.481,0-4.5-2.019-4.5-4.5s2.019-4.5,4.5-4.5s4.5,2.019,4.5,4.5S32.294,33.5,29.812,33.5z
			 M29.812,25.5c-1.93,0-3.5,1.57-3.5,3.5s1.57,3.5,3.5,3.5s3.5-1.57,3.5-3.5S31.742,25.5,29.812,25.5z"/>
	</g>
	<g>
		<path class="st2" d="M27.812,29.5c-0.276,0-0.5-0.224-0.5-0.5c0-1.378,1.122-2.5,2.5-2.5c0.276,0,0.5,0.224,0.5,0.5
			s-0.224,0.5-0.5,0.5c-0.827,0-1.5,0.673-1.5,1.5C28.312,29.276,28.089,29.5,27.812,29.5z"/>
	</g>
	<g>
		<polygon class="st16" points="49,32.5 49,25.5 58,25.5 58,22 49,22 44,25 44,33 49,36 58,36 58,32.5 		"/>
		<path class="st1" d="M58,36.5h-9c-0.091,0-0.18-0.024-0.257-0.071l-5-3C43.592,33.338,43.5,33.176,43.5,33v-8
			c0-0.176,0.092-0.338,0.243-0.429l5-3C48.82,21.524,48.909,21.5,49,21.5h9c0.276,0,0.5,0.224,0.5,0.5v3.5
			c0,0.276-0.224,0.5-0.5,0.5h-8.5v6H58c0.276,0,0.5,0.224,0.5,0.5V36C58.5,36.276,58.276,36.5,58,36.5z M49.139,35.5H57.5V33H49
			c-0.276,0-0.5-0.224-0.5-0.5v-7c0-0.276,0.224-0.5,0.5-0.5h8.5v-2.5h-8.361L44.5,25.283v7.434L49.139,35.5z"/>
	</g>
	<g>
		<polygon class="st15" points="46,32.5 46,25.5 55,25.5 55,22 46,22 41,25 41,33 46,36 55,36 55,32.5 		"/>
		<path class="st1" d="M55,36.5h-9c-0.091,0-0.18-0.024-0.257-0.071l-5-3C40.592,33.338,40.5,33.176,40.5,33v-8
			c0-0.176,0.092-0.338,0.243-0.429l5-3C45.82,21.524,45.909,21.5,46,21.5h9c0.276,0,0.5,0.224,0.5,0.5v3.5
			c0,0.276-0.224,0.5-0.5,0.5h-8.5v6H55c0.276,0,0.5,0.224,0.5,0.5V36C55.5,36.276,55.276,36.5,55,36.5z M46.139,35.5H54.5V33H46
			c-0.276,0-0.5-0.224-0.5-0.5v-7c0-0.276,0.224-0.5,0.5-0.5h8.5v-2.5h-8.361L41.5,25.283v7.434L46.139,35.5z"/>
	</g>
	<g>
		<circle class="st5" cx="28.5" cy="11" r="1.5"/>
		<path class="st1" d="M28.5,13c-1.103,0-2-0.897-2-2s0.897-2,2-2s2,0.897,2,2S29.604,13,28.5,13z M28.5,10c-0.551,0-1,0.449-1,1
			s0.449,1,1,1s1-0.449,1-1S29.052,10,28.5,10z"/>
	</g>
	<g>
		<polygon class="st4" points="40,42.5 34,42.5 33,39.5 41,39.5 		"/>
		<path class="st1" d="M40,43h-6c-0.215,0-0.406-0.138-0.475-0.342l-1-3c-0.051-0.152-0.025-0.32,0.068-0.451
			C32.688,39.077,32.839,39,33,39h8c0.161,0,0.312,0.077,0.405,0.208c0.095,0.13,0.12,0.298,0.069,0.451l-1,3
			C40.406,42.862,40.215,43,40,43z M34.36,42h5.279l0.667-2h-6.613L34.36,42z"/>
	</g>
</g>
</svg>
