<?xml version="1.0" encoding="utf-8"?>
<!-- Generator: Adobe Illustrator 21.1.0, SVG Export Plug-In . SVG Version: 6.00 Build 0)  -->
<svg version="1.1" id="Layer_1" xmlns="http://www.w3.org/2000/svg" xmlns:xlink="http://www.w3.org/1999/xlink" x="0px" y="0px"
	 viewBox="0 0 64 64" style="enable-background:new 0 0 64 64;" xml:space="preserve">
<style type="text/css">
	.st0{fill:#DB8E11;}
	.st1{fill:#212A41;}
	.st2{fill:#F9AC2F;}
	.st3{fill:#FFCA4D;}
	.st4{fill:#B7C0D7;}
	.st5{fill:#99A2B9;}
	.st6{fill:#B51040;}
	.st7{fill:#D32E5E;}
	.st8{fill:#F14C7C;}
	.st9{fill:#0079A8;}
	.st10{fill:#1E97C6;}
	.st11{fill:#BED38E;}
	.st12{fill:#A0B570;}
	.st13{fill:#DCF1AC;}
	.st14{fill:#D5DEF5;}
	.st15{fill:#4E4B51;}
	.st16{fill:#6C696F;}
	.st17{fill:#848483;}
	.st18{fill:#A2A2A1;}
	.st19{fill:#7B849B;}
	.st20{fill:#8A878D;}
	.st21{fill:#C0C0BF;}
	.st22{fill:#005B8A;}
	.st23{fill:#970022;}
	.st24{fill:#1A237E;}
	.st25{fill:#BD7000;}
	.st26{fill:#003D6C;}
	.st27{fill:#666665;}
	.st28{fill:#195190;}
</style>
<g id="Space_Food">
	<g>
		<path class="st4" d="M40,63.5H17c-3.584,0-6.5-2.916-6.5-6.5s2.916-6.5,6.5-6.5h5c0.827,0,1.5-0.673,1.5-1.5s-0.673-1.5-1.5-1.5H6
			c-1.381,0-2.5-1.119-2.5-2.5s1.119-2.5,2.5-2.5h16c3.584,0,6.5,2.916,6.5,6.5s-2.916,6.5-6.5,6.5h-5c-0.827,0-1.5,0.673-1.5,1.5
			s0.673,1.5,1.5,1.5h23c1.379,0,2.5-1.122,2.5-2.5c0-1.381,1.119-2.5,2.5-2.5s2.5,1.119,2.5,2.5C47.5,60.136,44.135,63.5,40,63.5z"
			/>
		<path class="st1" d="M40,64H17c-3.86,0-7-3.141-7-7s3.14-7,7-7h5c0.551,0,1-0.448,1-1s-0.449-1-1-1H6c-1.654,0-3-1.346-3-3
			s1.346-3,3-3h16c3.86,0,7,3.141,7,7s-3.14,7-7,7h-5c-0.551,0-1,0.448-1,1s0.449,1,1,1h23c1.103,0,2-0.897,2-2c0-1.654,1.346-3,3-3
			s3,1.346,3,3C48,60.411,44.411,64,40,64z M17,51c-3.309,0-6,2.691-6,6s2.691,6,6,6h23c3.86,0,7-3.141,7-7c0-1.103-0.897-2-2-2
			s-2,0.897-2,2c0,1.654-1.346,3-3,3H17c-1.103,0-2-0.897-2-2s0.897-2,2-2h5c3.309,0,6-2.691,6-6s-2.691-6-6-6H6
			c-1.103,0-2,0.897-2,2s0.897,2,2,2h16c1.103,0,2,0.897,2,2s-0.897,2-2,2H17z"/>
	</g>
	<g>
		<path class="st5" d="M46,56h-5c-0.552,0-1-0.448-1-1v-5h7v5C47,55.552,46.552,56,46,56z"/>
		<path class="st1" d="M46,56.5h-5c-0.827,0-1.5-0.673-1.5-1.5v-5c0-0.276,0.224-0.5,0.5-0.5h7c0.276,0,0.5,0.224,0.5,0.5v5
			C47.5,55.827,46.827,56.5,46,56.5z M40.5,50.5V55c0,0.275,0.224,0.5,0.5,0.5h5c0.276,0,0.5-0.225,0.5-0.5v-4.5H40.5z"/>
	</g>
	<g>
		<path class="st1" d="M47,53.5h-7c-0.276,0-0.5-0.224-0.5-0.5s0.224-0.5,0.5-0.5h7c0.276,0,0.5,0.224,0.5,0.5S47.276,53.5,47,53.5z
			"/>
	</g>
	<g>
		<path class="st6" d="M46.03,50h-7.061c-2.545,0-4.685-1.912-4.969-4.442L29.5,5.5h26l-4.501,40.058
			C50.714,48.088,48.575,50,46.03,50z"/>
		<path class="st1" d="M46.03,50.5h-7.061c-2.803,0-5.153-2.101-5.466-4.886L29.002,5.556c-0.016-0.142,0.029-0.283,0.125-0.389
			C29.222,5.061,29.357,5,29.5,5h26c0.142,0,0.278,0.061,0.373,0.167c0.095,0.105,0.14,0.247,0.125,0.389l-4.501,40.059
			C51.183,48.399,48.833,50.5,46.03,50.5z M30.059,6l4.439,39.503c0.256,2.278,2.178,3.997,4.472,3.997h7.061
			c2.293,0,4.216-1.719,4.472-3.997L54.94,6H30.059z"/>
	</g>
	<g>
		<rect x="29.5" y="0.5" class="st5" width="26" height="5"/>
		<path class="st1" d="M55.5,6h-26C29.223,6,29,5.776,29,5.5v-5C29,0.224,29.223,0,29.5,0h26C55.776,0,56,0.224,56,0.5v5
			C56,5.776,55.776,6,55.5,6z M30,5h25V1H30V5z"/>
	</g>
	<g>
		<path class="st7" d="M51.03,50h-7.061c-2.545,0-4.685-1.912-4.969-4.442L34.5,5.5h26l-4.501,40.058
			C55.714,48.088,53.575,50,51.03,50z"/>
		<path class="st1" d="M51.03,50.5h-7.061c-2.803,0-5.153-2.101-5.466-4.886L34.002,5.556c-0.016-0.142,0.029-0.283,0.125-0.389
			C34.222,5.061,34.357,5,34.5,5h26c0.142,0,0.278,0.061,0.373,0.167c0.095,0.105,0.14,0.247,0.125,0.389l-4.501,40.059
			C56.183,48.399,53.833,50.5,51.03,50.5z M35.059,6l4.439,39.503c0.256,2.278,2.178,3.997,4.472,3.997h7.061
			c2.293,0,4.216-1.719,4.472-3.997L59.94,6H35.059z"/>
	</g>
	<g>
		<path class="st8" d="M43.969,48.5c-1.784,0-3.279-1.337-3.479-3.109L36.24,7.556c-0.031-0.274,0.167-0.521,0.441-0.553
			c0.273-0.029,0.522,0.167,0.553,0.441l4.251,37.835c0.142,1.266,1.21,2.221,2.484,2.221c0.276,0,0.5,0.224,0.5,0.5
			S44.246,48.5,43.969,48.5z"/>
	</g>
	<g>
		<path class="st6" d="M51.03,48.5c-0.276,0-0.5-0.224-0.5-0.5s0.224-0.5,0.5-0.5c1.274,0,2.342-0.955,2.484-2.221l4.251-37.835
			c0.031-0.274,0.28-0.47,0.553-0.441c0.274,0.031,0.472,0.278,0.441,0.553l-4.251,37.835C54.309,47.163,52.813,48.5,51.03,48.5z"/>
	</g>
	<g>
		<path class="st4" d="M49,56h-5c-0.552,0-1-0.448-1-1v-5h7v5C50,55.552,49.552,56,49,56z"/>
		<path class="st1" d="M49,56.5h-5c-0.827,0-1.5-0.673-1.5-1.5v-5c0-0.276,0.224-0.5,0.5-0.5h7c0.276,0,0.5,0.224,0.5,0.5v5
			C50.5,55.827,49.827,56.5,49,56.5z M43.5,50.5V55c0,0.275,0.224,0.5,0.5,0.5h5c0.276,0,0.5-0.225,0.5-0.5v-4.5H43.5z"/>
	</g>
	<g>
		<rect x="34.5" y="0.5" class="st4" width="26" height="5"/>
		<path class="st1" d="M60.5,6h-26C34.223,6,34,5.776,34,5.5v-5C34,0.224,34.223,0,34.5,0h26C60.776,0,61,0.224,61,0.5v5
			C61,5.776,60.776,6,60.5,6z M35,5h25V1H35V5z"/>
	</g>
	<g>
		<circle class="st2" cx="47.5" cy="21.5" r="5"/>
		<path class="st1" d="M47.5,27c-3.033,0-5.5-2.468-5.5-5.5s2.467-5.5,5.5-5.5s5.5,2.468,5.5,5.5S50.532,27,47.5,27z M47.5,17
			c-2.481,0-4.5,2.019-4.5,4.5s2.019,4.5,4.5,4.5s4.5-2.019,4.5-4.5S49.981,17,47.5,17z"/>
	</g>
	<g>
		<path class="st1" d="M54.5,22h-14c-0.276,0-0.5-0.224-0.5-0.5s0.224-0.5,0.5-0.5h14c0.276,0,0.5,0.224,0.5,0.5S54.776,22,54.5,22z
			"/>
	</g>
	<g>
		<path class="st4" d="M51.5,34.5h-8c-0.552,0-1-0.448-1-1v-2c0-0.552,0.448-1,1-1h8c0.552,0,1,0.448,1,1v2
			C52.5,34.052,52.052,34.5,51.5,34.5z"/>
		<path class="st1" d="M51.5,35h-8c-0.827,0-1.5-0.673-1.5-1.5v-2c0-0.827,0.673-1.5,1.5-1.5h8c0.827,0,1.5,0.673,1.5,1.5v2
			C53,34.327,52.327,35,51.5,35z M43.5,31c-0.276,0-0.5,0.225-0.5,0.5v2c0,0.275,0.224,0.5,0.5,0.5h8c0.276,0,0.5-0.225,0.5-0.5v-2
			c0-0.275-0.224-0.5-0.5-0.5H43.5z"/>
	</g>
	<g>
		<path class="st1" d="M50,53.5h-7c-0.276,0-0.5-0.224-0.5-0.5s0.224-0.5,0.5-0.5h7c0.276,0,0.5,0.224,0.5,0.5S50.276,53.5,50,53.5z
			"/>
	</g>
	<g>
		<polygon class="st2" points="22,36 20.5,32.5 17,31 20.5,29.5 22,26 23.5,29.5 27,31 23.5,32.5 		"/>
		<path class="st1" d="M22,36.5c-0.2,0-0.381-0.119-0.459-0.303l-1.421-3.316l-3.316-1.421C16.619,31.381,16.5,31.2,16.5,31
			s0.119-0.381,0.303-0.46l3.316-1.421l1.421-3.316c0.157-0.367,0.762-0.367,0.919,0l1.421,3.316l3.316,1.421
			C27.38,30.619,27.5,30.8,27.5,31s-0.119,0.381-0.303,0.46l-3.316,1.421l-1.421,3.316C22.38,36.381,22.2,36.5,22,36.5z M18.269,31
			l2.427,1.04c0.118,0.051,0.212,0.145,0.263,0.263L22,34.73l1.041-2.428c0.05-0.118,0.145-0.212,0.263-0.263L25.73,31l-2.427-1.04
			c-0.118-0.051-0.212-0.145-0.263-0.263L22,27.27l-1.041,2.428c-0.05,0.118-0.145,0.212-0.263,0.263L18.269,31z"/>
	</g>
	<g>
		<polygon class="st2" points="10,25 8.8,22.2 6,21 8.8,19.8 10,17 11.2,19.8 14,21 11.2,22.2 		"/>
		<path class="st1" d="M10,25.5c-0.2,0-0.381-0.119-0.459-0.303l-1.122-2.616L5.803,21.46C5.619,21.381,5.5,21.2,5.5,21
			s0.119-0.381,0.303-0.46l2.616-1.121l1.122-2.616c0.157-0.367,0.762-0.367,0.919,0l1.122,2.616l2.616,1.121
			C14.38,20.619,14.5,20.8,14.5,21s-0.119,0.381-0.303,0.46l-2.616,1.121l-1.122,2.616C10.38,25.381,10.2,25.5,10,25.5z M7.269,21
			l1.728,0.74c0.118,0.051,0.212,0.145,0.263,0.263L10,23.73l0.741-1.728c0.05-0.118,0.145-0.212,0.263-0.263L12.73,21l-1.728-0.74
			c-0.118-0.051-0.212-0.145-0.263-0.263L10,18.27l-0.741,1.728c-0.05,0.118-0.145,0.212-0.263,0.263L7.269,21z"/>
	</g>
	<g>
		<path class="st1" d="M40,6c-0.276,0-0.5-0.224-0.5-0.5v-5C39.5,0.224,39.723,0,40,0s0.5,0.224,0.5,0.5v5C40.5,5.776,40.276,6,40,6
			z"/>
	</g>
	<g>
		<path class="st1" d="M45,6c-0.276,0-0.5-0.224-0.5-0.5v-5C44.5,0.224,44.723,0,45,0s0.5,0.224,0.5,0.5v5C45.5,5.776,45.276,6,45,6
			z"/>
	</g>
	<g>
		<path class="st1" d="M50,6c-0.276,0-0.5-0.224-0.5-0.5v-5C49.5,0.224,49.723,0,50,0s0.5,0.224,0.5,0.5v5C50.5,5.776,50.276,6,50,6
			z"/>
	</g>
	<g>
		<path class="st1" d="M55,6c-0.276,0-0.5-0.224-0.5-0.5v-5C54.5,0.224,54.723,0,55,0s0.5,0.224,0.5,0.5v5C55.5,5.776,55.276,6,55,6
			z"/>
	</g>
</g>
</svg>
