<?xml version="1.0" encoding="utf-8"?>
<!-- Generator: Adobe Illustrator 21.1.0, SVG Export Plug-In . SVG Version: 6.00 Build 0)  -->
<svg version="1.1" id="Layer_1" xmlns="http://www.w3.org/2000/svg" xmlns:xlink="http://www.w3.org/1999/xlink" x="0px" y="0px"
	 viewBox="0 0 64 64" style="enable-background:new 0 0 64 64;" xml:space="preserve">
<style type="text/css">
	.st0{fill:#DB8E11;}
	.st1{fill:#212A41;}
	.st2{fill:#F9AC2F;}
	.st3{fill:#FFCA4D;}
	.st4{fill:#B7C0D7;}
	.st5{fill:#99A2B9;}
	.st6{fill:#B51040;}
	.st7{fill:#D32E5E;}
	.st8{fill:#F14C7C;}
	.st9{fill:#0079A8;}
	.st10{fill:#1E97C6;}
	.st11{fill:#BED38E;}
	.st12{fill:#A0B570;}
	.st13{fill:#DCF1AC;}
	.st14{fill:#D5DEF5;}
	.st15{fill:#4E4B51;}
	.st16{fill:#6C696F;}
	.st17{fill:#848483;}
	.st18{fill:#A2A2A1;}
	.st19{fill:#7B849B;}
	.st20{fill:#8A878D;}
	.st21{fill:#C0C0BF;}
	.st22{fill:#005B8A;}
	.st23{fill:#970022;}
	.st24{fill:#1A237E;}
	.st25{fill:#BD7000;}
	.st26{fill:#003D6C;}
	.st27{fill:#666665;}
	.st28{fill:#195190;}
</style>
<g id="Spaceship_Control_Room">
	<g>
		<path class="st5" d="M51,42.5H3c-1.381,0-2.5-1.119-2.5-2.5V3c0-1.381,1.119-2.5,2.5-2.5h48c1.381,0,2.5,1.119,2.5,2.5v37
			C53.5,41.381,52.38,42.5,51,42.5z"/>
		<path class="st1" d="M50.999,43H3c-1.654,0-3-1.346-3-3V3c0-1.654,1.346-3,3-3h48c1.654,0,3,1.346,3,3v37
			C53.999,41.654,52.653,43,50.999,43z M3,1C1.896,1,1,1.897,1,3v37c0,1.103,0.897,2,2,2h48c1.103,0,2-0.897,2-2V3
			c0-1.103-0.897-2-2-2H3z"/>
	</g>
	<g>
		<path class="st9" d="M56,42.5H8c-1.381,0-2.5-1.119-2.5-2.5V3c0-1.381,1.119-2.5,2.5-2.5h48c1.381,0,2.5,1.119,2.5,2.5v37
			C58.5,41.381,57.38,42.5,56,42.5z"/>
		<path class="st1" d="M55.999,43H8c-1.654,0-3-1.346-3-3V3c0-1.654,1.346-3,3-3h48c1.654,0,3,1.346,3,3v37
			C58.999,41.654,57.653,43,55.999,43z M8,1C6.896,1,6,1.897,6,3v37c0,1.103,0.897,2,2,2h48c1.103,0,2-0.897,2-2V3
			c0-1.103-0.897-2-2-2H8z"/>
	</g>
	<g>
		<polygon class="st4" points="49.5,29 21.5,29 21.5,42.5 53.5,42.5 		"/>
		<path class="st1" d="M53.499,43h-32c-0.276,0-0.5-0.224-0.5-0.5V29c0-0.276,0.224-0.5,0.5-0.5h28c0.222,0,0.416,0.146,0.479,0.358
			l4,13.5c0.045,0.151,0.016,0.315-0.079,0.441C53.806,42.926,53.657,43,53.499,43z M22,42h30.83l-3.703-12.5H22V42z"/>
	</g>
	<g>
		<path class="st17" d="M51,42.5H3c-1.381,0-2.5,1.119-2.5,2.5v16c0,1.381,1.119,2.5,2.5,2.5h48c1.381,0,2.5-1.119,2.5-2.5V45
			C53.5,43.619,52.38,42.5,51,42.5z"/>
		<path class="st1" d="M50.999,64H3c-1.654,0-3-1.346-3-3V45c0-1.654,1.346-3,3-3h48c1.654,0,3,1.346,3,3v16
			C53.999,62.654,52.653,64,50.999,64z M3,43c-1.103,0-2,0.897-2,2v16c0,1.103,0.897,2,2,2h48c1.103,0,2-0.897,2-2V45
			c0-1.103-0.897-2-2-2H3z"/>
	</g>
	<g>
		<path class="st18" d="M61,42.5H13c-1.381,0-2.5,1.119-2.5,2.5v16c0,1.381,1.119,2.5,2.5,2.5h48c1.381,0,2.5-1.119,2.5-2.5V45
			C63.5,43.619,62.38,42.5,61,42.5z"/>
		<path class="st1" d="M60.999,64H13c-1.654,0-3-1.346-3-3V45c0-1.654,1.346-3,3-3h48c1.654,0,3,1.346,3,3v16
			C63.999,62.654,62.653,64,60.999,64z M13,43c-1.103,0-2,0.897-2,2v16c0,1.103,0.897,2,2,2h48c1.103,0,2-0.897,2-2V45
			c0-1.103-0.897-2-2-2H13z"/>
	</g>
	<g>
		<polygon class="st5" points="27.5,29 21.5,29 21.5,42.5 31.5,42.5 		"/>
		<path class="st1" d="M31.5,43h-10c-0.276,0-0.5-0.224-0.5-0.5V29c0-0.276,0.224-0.5,0.5-0.5h6c0.221,0,0.417,0.146,0.479,0.358
			l4,13.5c0.045,0.151,0.016,0.315-0.079,0.441C31.806,42.926,31.657,43,31.5,43z M22,42h8.831l-3.704-12.5H22V42z"/>
	</g>
	<g>
		<path class="st7" d="M42.006,31l2.815,9.5H32.993L30.178,31H42.006z"/>
		<path class="st1" d="M44.821,41H32.993c-0.222,0-0.417-0.146-0.479-0.358l-2.814-9.5c-0.045-0.151-0.016-0.315,0.079-0.441
			c0.094-0.126,0.243-0.201,0.4-0.201h11.828c0.222,0,0.416,0.146,0.479,0.358l2.815,9.5c0.045,0.151,0.016,0.315-0.079,0.441
			C45.128,40.926,44.979,41,44.821,41z M33.366,40h10.785l-2.519-8.5H30.848L33.366,40z"/>
	</g>
	<g>
		<path class="st1" d="M50.907,41h-3.55c-0.222,0-0.416-0.146-0.479-0.358l-2.815-9.5c-0.045-0.151-0.016-0.315,0.079-0.441
			c0.094-0.126,0.242-0.201,0.4-0.201h3.55c0.222,0,0.416,0.146,0.479,0.358l2.815,9.5c0.045,0.151,0.016,0.315-0.079,0.441
			C51.214,40.926,51.065,41,50.907,41z M47.73,40h2.507l-2.519-8.5h-2.507L47.73,40z"/>
	</g>
	<g>
		<rect x="31.5" y="42.5" class="st18" width="22" height="21"/>
		<path class="st1" d="M53.499,64h-22c-0.276,0-0.5-0.224-0.5-0.5v-21c0-0.276,0.224-0.5,0.5-0.5h22c0.276,0,0.5,0.224,0.5,0.5v21
			C53.999,63.776,53.775,64,53.499,64z M32,63h21V43H32V63z"/>
	</g>
	<g>
		<polygon class="st5" points="39,5.5 25,5.5 20,0.5 44,0.5 		"/>
		<path class="st1" d="M38.999,6H25c-0.133,0-0.26-0.053-0.354-0.146l-5-5c-0.143-0.143-0.186-0.358-0.108-0.545
			C19.615,0.122,19.797,0,20,0h24c0.202,0,0.385,0.122,0.462,0.309s0.034,0.402-0.108,0.545l-5,5C39.259,5.947,39.132,6,38.999,6z
			 M25.207,5h13.585l4-4H21.207L25.207,5z"/>
	</g>
	<g>
		<rect x="21.5" y="42.5" class="st17" width="10" height="21"/>
		<path class="st1" d="M31.5,64h-10c-0.276,0-0.5-0.224-0.5-0.5v-21c0-0.276,0.224-0.5,0.5-0.5h10c0.276,0,0.5,0.224,0.5,0.5v21
			C32,63.776,31.776,64,31.5,64z M22,63h9V43h-9V63z"/>
	</g>
	<g>
		<circle class="st2" cx="45" cy="17" r="6.5"/>
		<path class="st1" d="M44.999,24c-3.859,0-7-3.14-7-7s3.141-7,7-7s7,3.14,7,7S48.858,24,44.999,24z M44.999,11
			c-3.309,0-6,2.691-6,6s2.691,6,6,6s6-2.691,6-6S48.308,11,44.999,11z"/>
	</g>
	<g>
		<path class="st3" d="M40.499,17.5c-0.276,0-0.5-0.224-0.5-0.5c0-2.757,2.243-5,5-5c0.276,0,0.5,0.224,0.5,0.5s-0.224,0.5-0.5,0.5
			c-2.206,0-4,1.794-4,4C40.999,17.276,40.775,17.5,40.499,17.5z"/>
	</g>
	<g>
		<path class="st0" d="M44.999,22c-0.276,0-0.5-0.224-0.5-0.5s0.224-0.5,0.5-0.5c2.206,0,4-1.794,4-4c0-0.276,0.224-0.5,0.5-0.5
			s0.5,0.224,0.5,0.5C49.999,19.757,47.756,22,44.999,22z"/>
	</g>
	<g>
		<path class="st18" d="M53,18H37c-0.552,0-1-0.448-1-1v0c0-0.552,0.448-1,1-1h16c0.552,0,1,0.448,1,1v0C54,17.552,53.552,18,53,18z
			"/>
		<path class="st1" d="M52.999,18.5h-16c-0.827,0-1.5-0.673-1.5-1.5s0.673-1.5,1.5-1.5h16c0.827,0,1.5,0.673,1.5,1.5
			S53.826,18.5,52.999,18.5z M36.999,16.5c-0.275,0-0.5,0.224-0.5,0.5s0.225,0.5,0.5,0.5h16c0.275,0,0.5-0.224,0.5-0.5
			s-0.225-0.5-0.5-0.5H36.999z"/>
	</g>
	<g>
		<circle class="st18" cx="29.5" cy="23.5" r="1.5"/>
		<path class="st1" d="M29.5,25.5c-1.103,0-2-0.897-2-2s0.897-2,2-2s2,0.897,2,2S30.603,25.5,29.5,25.5z M29.5,22.5
			c-0.551,0-1,0.449-1,1s0.449,1,1,1s1-0.449,1-1S30.051,22.5,29.5,22.5z"/>
	</g>
	<g>
		<circle class="st18" cx="24" cy="14.5" r="2"/>
		<path class="st1" d="M24,17c-1.378,0-2.5-1.122-2.5-2.5S22.621,12,24,12s2.5,1.122,2.5,2.5S25.378,17,24,17z M24,13
			c-0.827,0-1.5,0.673-1.5,1.5S23.172,16,24,16s1.5-0.673,1.5-1.5S24.827,13,24,13z"/>
	</g>
	<g>
		<circle class="st18" cx="15.5" cy="21" r="1.5"/>
		<path class="st1" d="M15.5,23c-1.103,0-2-0.897-2-2s0.897-2,2-2s2,0.897,2,2S16.603,23,15.5,23z M15.5,20c-0.551,0-1,0.449-1,1
			s0.449,1,1,1s1-0.449,1-1S16.051,20,15.5,20z"/>
	</g>
	<g>
		<path class="st16" d="M63.5,47.5h-10v-5H61c1.381,0,2.5,1.119,2.5,2.5V47.5z"/>
		<path class="st1" d="M63.499,48h-10c-0.276,0-0.5-0.224-0.5-0.5v-5c0-0.276,0.224-0.5,0.5-0.5h7.5c1.654,0,3,1.346,3,3v2.5
			C63.999,47.776,63.775,48,63.499,48z M53.999,47h9v-2c0-1.103-0.897-2-2-2h-7V47z"/>
	</g>
	<g>
		<path class="st15" d="M0.5,47.5h21v-5H3c-1.381,0-2.5,1.119-2.5,2.5V47.5z"/>
		<path class="st1" d="M21.5,48h-21C0.223,48,0,47.776,0,47.5V45c0-1.654,1.346-3,3-3h18.5c0.276,0,0.5,0.224,0.5,0.5v5
			C22,47.776,21.776,48,21.5,48z M1,47h20v-4H3c-1.103,0-2,0.897-2,2V47z"/>
	</g>
	<g>
		<path class="st1" d="M48.981,34.5h-3.55c-0.222,0-0.416-0.146-0.479-0.358l-0.89-3c-0.045-0.151-0.016-0.315,0.079-0.441
			c0.094-0.126,0.242-0.201,0.4-0.201h3.55c0.222,0,0.416,0.146,0.479,0.358l0.89,3c0.045,0.151,0.016,0.315-0.079,0.441
			C49.288,34.425,49.14,34.5,48.981,34.5z M45.805,33.5h2.507l-0.593-2h-2.507L45.805,33.5z"/>
	</g>
	<g>
		<path class="st1" d="M50.907,41h-3.55c-0.222,0-0.417-0.146-0.479-0.358l-0.889-3c-0.045-0.151-0.016-0.315,0.079-0.441
			c0.094-0.126,0.242-0.201,0.4-0.201h3.549c0.222,0,0.416,0.146,0.479,0.358l0.89,3c0.045,0.151,0.016,0.315-0.079,0.441
			C51.214,40.925,51.065,41,50.907,41z M47.73,40h2.507l-0.593-2h-2.506L47.73,40z"/>
	</g>
	<g>
		<path class="st1" d="M47.999,64h-11c-0.276,0-0.5-0.224-0.5-0.5v-14c0-0.276,0.224-0.5,0.5-0.5h11c0.276,0,0.5,0.224,0.5,0.5v14
			C48.499,63.776,48.275,64,47.999,64z M37.499,63h10V50h-10V63z"/>
	</g>
	<g>
		<path class="st16" d="M10.5,47.5h11v-5H13c-1.381,0-2.5,1.119-2.5,2.5V47.5z"/>
		<path class="st1" d="M21.5,48h-11c-0.276,0-0.5-0.224-0.5-0.5V45c0-1.654,1.346-3,3-3h8.5c0.276,0,0.5,0.224,0.5,0.5v5
			C22,47.776,21.776,48,21.5,48z M11,47h10v-4h-8c-1.103,0-2,0.897-2,2V47z"/>
	</g>
	<g>
		<path class="st10" d="M7.5,40.5C7.223,40.5,7,40.276,7,40V3c0-0.276,0.224-0.5,0.5-0.5S8,2.724,8,3v37
			C8,40.276,7.776,40.5,7.5,40.5z"/>
	</g>
	<g>
		<path class="st22" d="M56.499,40.5c-0.276,0-0.5-0.224-0.5-0.5V3c0-0.276,0.224-0.5,0.5-0.5s0.5,0.224,0.5,0.5v37
			C56.999,40.276,56.775,40.5,56.499,40.5z"/>
	</g>
	<g>
		<path class="st8" d="M34.486,39c-0.216,0-0.415-0.141-0.479-0.358l-1.63-5.5c-0.078-0.265,0.073-0.543,0.337-0.622
			c0.267-0.078,0.543,0.073,0.622,0.337l1.63,5.5c0.078,0.265-0.072,0.543-0.338,0.622C34.581,38.994,34.533,39,34.486,39z"/>
	</g>
	<g>
		<path class="st21" d="M33.499,62c-0.276,0-0.5-0.224-0.5-0.5v-17c0-0.276,0.224-0.5,0.5-0.5s0.5,0.224,0.5,0.5v17
			C33.999,61.776,33.775,62,33.499,62z"/>
	</g>
	<g>
		<path class="st18" d="M23.5,62c-0.276,0-0.5-0.224-0.5-0.5v-17c0-0.276,0.224-0.5,0.5-0.5s0.5,0.224,0.5,0.5v17
			C24,61.776,23.776,62,23.5,62z"/>
	</g>
	<g>
		<path class="st27" d="M29.5,62c-0.276,0-0.5-0.224-0.5-0.5v-17c0-0.276,0.224-0.5,0.5-0.5s0.5,0.224,0.5,0.5v17
			C30,61.776,29.776,62,29.5,62z"/>
	</g>
	<g>
		<path class="st17" d="M51.499,62c-0.276,0-0.5-0.224-0.5-0.5v-17c0-0.276,0.224-0.5,0.5-0.5s0.5,0.224,0.5,0.5v17
			C51.999,61.776,51.775,62,51.499,62z"/>
	</g>
	<g>
		<path class="st18" d="M2.5,61.5C2.223,61.5,2,61.276,2,61V49.5C2,49.224,2.223,49,2.5,49S3,49.224,3,49.5V61
			C3,61.276,2.776,61.5,2.5,61.5z"/>
	</g>
	<g>
		<path class="st27" d="M8.5,61.5C8.223,61.5,8,61.276,8,61V49.5C8,49.224,8.223,49,8.5,49S9,49.224,9,49.5V61
			C9,61.276,8.776,61.5,8.5,61.5z"/>
	</g>
</g>
</svg>
