<?xml version="1.0" encoding="utf-8"?>
<!-- Generator: Adobe Illustrator 21.1.0, SVG Export Plug-In . SVG Version: 6.00 Build 0)  -->
<svg version="1.1" id="Layer_1" xmlns="http://www.w3.org/2000/svg" xmlns:xlink="http://www.w3.org/1999/xlink" x="0px" y="0px"
	 viewBox="0 0 64 64" style="enable-background:new 0 0 64 64;" xml:space="preserve">
<style type="text/css">
	.st0{fill:#DB8E11;}
	.st1{fill:#212A41;}
	.st2{fill:#F9AC2F;}
	.st3{fill:#FFCA4D;}
	.st4{fill:#B7C0D7;}
	.st5{fill:#99A2B9;}
	.st6{fill:#B51040;}
	.st7{fill:#D32E5E;}
	.st8{fill:#F14C7C;}
	.st9{fill:#0079A8;}
	.st10{fill:#1E97C6;}
	.st11{fill:#BED38E;}
	.st12{fill:#A0B570;}
	.st13{fill:#DCF1AC;}
	.st14{fill:#D5DEF5;}
	.st15{fill:#4E4B51;}
	.st16{fill:#6C696F;}
	.st17{fill:#848483;}
	.st18{fill:#A2A2A1;}
	.st19{fill:#7B849B;}
	.st20{fill:#8A878D;}
	.st21{fill:#C0C0BF;}
	.st22{fill:#005B8A;}
	.st23{fill:#970022;}
	.st24{fill:#1A237E;}
	.st25{fill:#BD7000;}
	.st26{fill:#003D6C;}
	.st27{fill:#666665;}
	.st28{fill:#195190;}
</style>
<g id="Space_Catapult">
	<g>
		<path class="st4" d="M57,58.75H22c-1.381,0-2.5-1.119-2.5-2.5v-10c0-1.381,1.119-2.5,2.5-2.5h35c1.381,0,2.5,1.119,2.5,2.5v10
			C59.5,57.631,58.381,58.75,57,58.75z"/>
		<path class="st1" d="M57,59.25H22c-1.654,0-3-1.346-3-3v-10c0-1.654,1.346-3,3-3h35c1.654,0,3,1.346,3,3v10
			C60,57.904,58.654,59.25,57,59.25z M22,44.25c-1.103,0-2,0.897-2,2v10c0,1.103,0.897,2,2,2h35c1.103,0,2-0.897,2-2v-10
			c0-1.103-0.897-2-2-2H22z"/>
	</g>
	<g>
		<path class="st5" d="M42,58.75H7c-1.381,0-2.5-1.119-2.5-2.5v-10c0-1.381,1.119-2.5,2.5-2.5h35c1.381,0,2.5,1.119,2.5,2.5v10
			C44.5,57.631,43.381,58.75,42,58.75z"/>
		<path class="st1" d="M42,59.25H7c-1.654,0-3-1.346-3-3v-10c0-1.654,1.346-3,3-3h35c1.654,0,3,1.346,3,3v10
			C45,57.904,43.654,59.25,42,59.25z M7,44.25c-1.103,0-2,0.897-2,2v10c0,1.103,0.897,2,2,2h35c1.103,0,2-0.897,2-2v-10
			c0-1.103-0.897-2-2-2H7z"/>
	</g>
	<g>
		<rect x="30" y="18.75" class="st4" width="7" height="11"/>
		<path class="st1" d="M37,30.25h-7c-0.276,0-0.5-0.224-0.5-0.5v-11c0-0.276,0.224-0.5,0.5-0.5h7c0.276,0,0.5,0.224,0.5,0.5v11
			C37.5,30.026,37.276,30.25,37,30.25z M30.5,29.25h6v-10h-6V29.25z"/>
	</g>
	<g>
		<rect x="27" y="18.75" class="st5" width="7" height="11"/>
		<path class="st1" d="M34,30.25h-7c-0.276,0-0.5-0.224-0.5-0.5v-11c0-0.276,0.224-0.5,0.5-0.5h7c0.276,0,0.5,0.224,0.5,0.5v11
			C34.5,30.026,34.276,30.25,34,30.25z M27.5,29.25h6v-10h-6V29.25z"/>
	</g>
	<g>
		<path class="st16" d="M13.701,6.223l-9.61-0.874C3.505,5.296,3,5.757,3,6.345v3.905h16l-4.765-3.812
			C14.082,6.315,13.896,6.241,13.701,6.223z"/>
		<path class="st1" d="M19,10.75H3c-0.276,0-0.5-0.224-0.5-0.5V6.345c0-0.421,0.178-0.824,0.488-1.107
			C3.3,4.953,3.719,4.814,4.137,4.852l9.609,0.873c0.293,0.026,0.569,0.138,0.801,0.321l4.766,3.813
			c0.166,0.133,0.229,0.355,0.159,0.557C19.401,10.616,19.212,10.75,19,10.75z M3.5,9.75h14.075l-3.652-2.922
			c-0.077-0.062-0.169-0.099-0.267-0.107l0,0l-9.61-0.873C3.895,5.828,3.768,5.88,3.663,5.976C3.558,6.071,3.5,6.203,3.5,6.345V9.75
			z"/>
	</g>
	<g>
		<path class="st16" d="M13.701,23.277l-9.61,0.874C3.505,24.204,3,23.743,3,23.155V19.25h16l-4.765,3.812
			C14.082,23.185,13.896,23.26,13.701,23.277z"/>
		<path class="st1" d="M4.002,24.655c-0.373,0-0.736-0.14-1.014-0.393C2.678,23.979,2.5,23.575,2.5,23.155V19.25
			c0-0.276,0.224-0.5,0.5-0.5h16c0.212,0,0.401,0.134,0.472,0.334c0.07,0.201,0.007,0.424-0.159,0.557l-4.765,3.812
			c-0.232,0.185-0.509,0.296-0.802,0.322l-9.61,0.874C4.092,24.653,4.047,24.655,4.002,24.655z M3.5,19.75v3.405
			c0,0.142,0.058,0.273,0.163,0.369c0.104,0.096,0.241,0.146,0.383,0.129l9.61-0.874l0,0c0.098-0.009,0.189-0.046,0.268-0.108
			l3.651-2.921H3.5z"/>
	</g>
	<g>
		<path class="st16" d="M41.145,19.385L5.97,20.134c-3.002,0.064-5.47-2.352-5.47-5.354v0c0-3.025,2.503-5.449,5.526-5.353
			l36.129,1.153c3.553,0.113,7.083,0.605,10.532,1.467L63.5,14.75l-9.881,2.779C49.556,18.672,45.365,19.296,41.145,19.385z"/>
		<path class="st1" d="M5.853,20.635c-1.54,0-2.989-0.591-4.094-1.672C0.625,17.853,0,16.367,0,14.779
			c0-1.6,0.633-3.093,1.782-4.206c1.148-1.112,2.651-1.695,4.26-1.646l36.13,1.152c3.586,0.115,7.164,0.614,10.637,1.482
			l10.812,2.703c0.22,0.056,0.376,0.251,0.379,0.479c0.003,0.227-0.146,0.427-0.364,0.488l-9.881,2.779
			c-4.102,1.153-8.341,1.784-12.599,1.875L5.98,20.634C5.938,20.635,5.896,20.635,5.853,20.635z M5.851,9.924
			c-1.267,0-2.459,0.482-3.373,1.368C1.524,12.215,1,13.453,1,14.779c0,1.316,0.518,2.549,1.458,3.47
			c0.941,0.921,2.194,1.43,3.501,1.385l35.176-0.748c4.174-0.089,8.329-0.707,12.349-1.838l8.069-2.27l-8.986-2.246
			c-3.404-0.852-6.912-1.341-10.426-1.453L6.011,9.927C5.957,9.925,5.903,9.924,5.851,9.924z M41.146,19.386h0.01H41.146z"/>
	</g>
	<g>
		<path class="st18" d="M42.508,10.6c-1.222,0.98-2.008,2.485-2.008,4.179c0,1.897,0.987,3.558,2.47,4.509
			c3.601-0.208,7.173-0.782,10.649-1.76L63.5,14.75l-10.813-2.703C49.353,11.213,45.942,10.734,42.508,10.6z"/>
	</g>
	<g>
		<path class="st4" d="M48,34.75H24c-0.552,0-1-0.448-1-1v-3c0-0.552,0.448-1,1-1h24c0.552,0,1,0.448,1,1v3
			C49,34.302,48.553,34.75,48,34.75z"/>
		<path class="st1" d="M48,35.25H24c-0.827,0-1.5-0.673-1.5-1.5v-3c0-0.827,0.673-1.5,1.5-1.5h24c0.827,0,1.5,0.673,1.5,1.5v3
			C49.5,34.577,48.827,35.25,48,35.25z M24,30.25c-0.275,0-0.5,0.225-0.5,0.5v3c0,0.275,0.225,0.5,0.5,0.5h24
			c0.275,0,0.5-0.225,0.5-0.5v-3c0-0.275-0.225-0.5-0.5-0.5H24z"/>
	</g>
	<g>
		<path class="st5" d="M40,34.75H16c-0.552,0-1-0.448-1-1v-3c0-0.552,0.448-1,1-1h24c0.552,0,1,0.448,1,1v3
			C41,34.302,40.553,34.75,40,34.75z"/>
		<path class="st1" d="M40,35.25H16c-0.827,0-1.5-0.673-1.5-1.5v-3c0-0.827,0.673-1.5,1.5-1.5h24c0.827,0,1.5,0.673,1.5,1.5v3
			C41.5,34.577,40.827,35.25,40,35.25z M16,30.25c-0.275,0-0.5,0.225-0.5,0.5v3c0,0.275,0.225,0.5,0.5,0.5h24
			c0.275,0,0.5-0.225,0.5-0.5v-3c0-0.275-0.225-0.5-0.5-0.5H16z"/>
	</g>
	<g>
		<polygon class="st15" points="17,43.75 14,43.75 20,34.75 23,34.75 		"/>
		<path class="st1" d="M17,44.25h-3c-0.185,0-0.354-0.102-0.44-0.264c-0.088-0.163-0.078-0.36,0.024-0.514l6-9
			c0.093-0.139,0.249-0.223,0.416-0.223h3c0.185,0,0.354,0.102,0.44,0.264c0.088,0.163,0.078,0.36-0.024,0.514l-6,9
			C17.323,44.166,17.167,44.25,17,44.25z M14.935,43.25h1.798l5.333-8h-1.798L14.935,43.25z"/>
	</g>
	<g>
		<polygon class="st15" points="29,43.75 32,43.75 26,34.75 23,34.75 		"/>
		<path class="st1" d="M32,44.25h-3c-0.167,0-0.323-0.084-0.416-0.223l-6-9c-0.103-0.153-0.112-0.351-0.024-0.514
			c0.087-0.162,0.256-0.264,0.44-0.264h3c0.167,0,0.323,0.084,0.416,0.223l6,9c0.103,0.153,0.112,0.351,0.024,0.514
			C32.354,44.148,32.185,44.25,32,44.25z M29.268,43.25h1.798l-5.333-8h-1.798L29.268,43.25z"/>
	</g>
	<g>
		<polygon class="st15" points="35,43.75 32,43.75 38,34.75 41,34.75 		"/>
		<path class="st1" d="M35,44.25h-3c-0.185,0-0.354-0.102-0.44-0.264c-0.088-0.163-0.078-0.36,0.024-0.514l6-9
			c0.093-0.139,0.249-0.223,0.416-0.223h3c0.185,0,0.354,0.102,0.44,0.264c0.088,0.163,0.078,0.36-0.024,0.514l-6,9
			C35.323,44.166,35.167,44.25,35,44.25z M32.935,43.25h1.798l5.333-8h-1.798L32.935,43.25z"/>
	</g>
	<g>
		<polygon class="st15" points="47,43.75 50,43.75 44,34.75 41,34.75 		"/>
		<path class="st1" d="M50,44.25h-3c-0.167,0-0.323-0.084-0.416-0.223l-6-9c-0.103-0.153-0.112-0.351-0.024-0.514
			c0.087-0.162,0.256-0.264,0.44-0.264h3c0.167,0,0.323,0.084,0.416,0.223l6,9c0.103,0.153,0.112,0.351,0.024,0.514
			C50.354,44.148,50.185,44.25,50,44.25z M47.268,43.25h1.798l-5.333-8h-1.798L47.268,43.25z"/>
	</g>
	<g>
		<path class="st4" d="M6.5,56.75c-0.276,0-0.5-0.224-0.5-0.5v-10c0-0.276,0.224-0.5,0.5-0.5S7,45.974,7,46.25v10
			C7,56.526,6.776,56.75,6.5,56.75z"/>
	</g>
	<g>
		<path class="st19" d="M42.5,56.75c-0.276,0-0.5-0.224-0.5-0.5v-10c0-0.276,0.224-0.5,0.5-0.5s0.5,0.224,0.5,0.5v10
			C43,56.526,42.776,56.75,42.5,56.75z"/>
	</g>
	<g>
		<path class="st14" d="M46.5,56.75c-0.276,0-0.5-0.224-0.5-0.5v-10c0-0.276,0.224-0.5,0.5-0.5s0.5,0.224,0.5,0.5v10
			C47,56.526,46.776,56.75,46.5,56.75z"/>
	</g>
	<g>
		<path class="st5" d="M57.5,56.75c-0.276,0-0.5-0.224-0.5-0.5v-10c0-0.276,0.224-0.5,0.5-0.5s0.5,0.224,0.5,0.5v10
			C58,56.526,57.776,56.75,57.5,56.75z"/>
	</g>
	<g>
		<path class="st1" d="M59.5,55.25h-35c-0.103,0-0.203-0.031-0.287-0.091l-4.87-3.409H4.5c-0.276,0-0.5-0.224-0.5-0.5
			s0.224-0.5,0.5-0.5h15c0.103,0,0.203,0.031,0.287,0.091l4.87,3.409H59.5c0.276,0,0.5,0.224,0.5,0.5S59.776,55.25,59.5,55.25z"/>
	</g>
	<g>
		<path class="st20" d="M40.988,13.043c-0.005,0-0.011,0-0.016,0L5.844,11.924c-0.276-0.005-0.496-0.232-0.491-0.509
			s0.282-0.487,0.509-0.491l0.11,0.002l35.032,1.117c0.276,0.009,0.493,0.24,0.484,0.516C41.479,12.829,41.257,13.043,40.988,13.043
			z"/>
	</g>
	<g>
		<path class="st21" d="M55.709,15.364c-0.04,0-0.081-0.005-0.121-0.015l-3.507-0.877c-3.268-0.817-6.634-1.286-10.005-1.395
			l-1.104-0.035c-0.276-0.009-0.493-0.24-0.484-0.516s0.237-0.5,0.516-0.484l1.104,0.035c3.443,0.11,6.88,0.59,10.216,1.424
			l3.507,0.877c0.269,0.067,0.431,0.339,0.364,0.606C56.138,15.213,55.934,15.364,55.709,15.364z"/>
	</g>
	<g>
		<path class="st1" d="M42.97,19.789c-0.096,0-0.189-0.027-0.27-0.079c-1.691-1.085-2.7-2.928-2.7-4.931
			c0-1.785,0.8-3.45,2.195-4.568c0.095-0.075,0.21-0.115,0.332-0.11c3.491,0.137,6.95,0.628,10.281,1.461l10.812,2.703
			c0.22,0.056,0.376,0.251,0.379,0.479c0.003,0.227-0.146,0.427-0.364,0.488l-9.881,2.779c-3.431,0.964-7.049,1.562-10.756,1.777
			C42.989,19.789,42.979,19.789,42.97,19.789z M42.68,11.108C41.609,12.032,41,13.36,41,14.779c0,1.607,0.784,3.091,2.106,4.001
			c3.577-0.22,7.068-0.802,10.377-1.732l8.069-2.27l-8.986-2.246C49.362,11.73,46.037,11.252,42.68,11.108z"/>
	</g>
</g>
</svg>
