<?xml version="1.0" encoding="utf-8"?>
<!-- Generator: Adobe Illustrator 21.1.0, SVG Export Plug-In . SVG Version: 6.00 Build 0)  -->
<svg version="1.1" id="Layer_1" xmlns="http://www.w3.org/2000/svg" xmlns:xlink="http://www.w3.org/1999/xlink" x="0px" y="0px"
	 viewBox="0 0 64 64" style="enable-background:new 0 0 64 64;" xml:space="preserve">
<style type="text/css">
	.st0{fill:#DB8E11;}
	.st1{fill:#212A41;}
	.st2{fill:#F9AC2F;}
	.st3{fill:#FFCA4D;}
	.st4{fill:#B7C0D7;}
	.st5{fill:#99A2B9;}
	.st6{fill:#B51040;}
	.st7{fill:#D32E5E;}
	.st8{fill:#F14C7C;}
	.st9{fill:#0079A8;}
	.st10{fill:#1E97C6;}
	.st11{fill:#BED38E;}
	.st12{fill:#A0B570;}
	.st13{fill:#DCF1AC;}
	.st14{fill:#D5DEF5;}
	.st15{fill:#4E4B51;}
	.st16{fill:#6C696F;}
	.st17{fill:#848483;}
	.st18{fill:#A2A2A1;}
	.st19{fill:#7B849B;}
	.st20{fill:#8A878D;}
	.st21{fill:#C0C0BF;}
	.st22{fill:#005B8A;}
	.st23{fill:#970022;}
	.st24{fill:#1A237E;}
	.st25{fill:#BD7000;}
	.st26{fill:#003D6C;}
	.st27{fill:#666665;}
	.st28{fill:#195190;}
</style>
<g id="Tektite">
	<g>
		<circle class="st0" cx="51.25" cy="34.073" r="6"/>
		<path class="st1" d="M51.25,40.573c-3.584,0-6.5-2.916-6.5-6.5s2.916-6.5,6.5-6.5s6.5,2.916,6.5,6.5S54.834,40.573,51.25,40.573z
			 M51.25,28.573c-3.032,0-5.5,2.468-5.5,5.5s2.468,5.5,5.5,5.5s5.5-2.468,5.5-5.5S54.282,28.573,51.25,28.573z"/>
	</g>
	<g>
		<path class="st4" d="M50.75,56.926h2.291c0.425,0,0.803-0.269,0.944-0.67l3.266-9.33v-11.5l-15-15v8l7.5,7.5v20
			C49.75,56.478,50.198,56.926,50.75,56.926z"/>
		<path class="st1" d="M53.04,57.426h-2.29c-0.827,0-1.5-0.673-1.5-1.5V36.133l-7.354-7.354c-0.094-0.094-0.146-0.221-0.146-0.354
			v-8c0-0.202,0.122-0.385,0.309-0.462c0.187-0.076,0.401-0.034,0.545,0.108l15,15c0.094,0.094,0.146,0.221,0.146,0.354v11.5
			c0,0.057-0.01,0.112-0.028,0.165l-3.266,9.33C54.246,57.022,53.677,57.426,53.04,57.426z M42.75,28.219l7.354,7.354
			c0.094,0.094,0.146,0.221,0.146,0.354v20c0,0.275,0.225,0.5,0.5,0.5h2.29c0.212,0,0.402-0.135,0.473-0.335l3.237-9.25V35.633
			l-14-14V28.219z"/>
	</g>
	<g>
		<rect x="46.75" y="37.926" class="st5" width="3" height="19"/>
		<path class="st1" d="M49.75,57.426h-3c-0.276,0-0.5-0.224-0.5-0.5v-19c0-0.276,0.224-0.5,0.5-0.5h3c0.276,0,0.5,0.224,0.5,0.5v19
			C50.25,57.202,50.026,57.426,49.75,57.426z M47.25,56.426h2v-18h-2V56.426z"/>
	</g>
	<g>
		<path class="st5" d="M35.75,30.573h-13c-1.381,0-2.5-1.119-2.5-2.5v-7c0-1.381,1.119-2.5,2.5-2.5h13c1.381,0,2.5,1.119,2.5,2.5v7
			C38.25,29.454,37.131,30.573,35.75,30.573z"/>
		<path class="st1" d="M35.75,31.073h-13c-1.654,0-3-1.346-3-3v-7c0-1.654,1.346-3,3-3h13c1.654,0,3,1.346,3,3v7
			C38.75,29.728,37.404,31.073,35.75,31.073z M22.75,19.073c-1.103,0-2,0.897-2,2v7c0,1.103,0.897,2,2,2h13c1.103,0,2-0.897,2-2v-7
			c0-1.103-0.897-2-2-2H22.75z"/>
	</g>
	<g>
		<rect x="28.25" y="0.573" class="st4" width="8" height="18"/>
		<path class="st1" d="M36.25,19.073h-8c-0.276,0-0.5-0.224-0.5-0.5v-18c0-0.276,0.224-0.5,0.5-0.5h8c0.276,0,0.5,0.224,0.5,0.5v18
			C36.75,18.85,36.526,19.073,36.25,19.073z M28.75,18.073h7v-17h-7V18.073z"/>
	</g>
	<g>
		<path class="st4" d="M41.75,30.573h-13c-1.381,0-2.5-1.119-2.5-2.5v-7c0-1.381,1.119-2.5,2.5-2.5h13c1.381,0,2.5,1.119,2.5,2.5v7
			C44.25,29.454,43.131,30.573,41.75,30.573z"/>
		<path class="st1" d="M41.75,31.073h-13c-1.654,0-3-1.346-3-3v-7c0-1.654,1.346-3,3-3h13c1.654,0,3,1.346,3,3v7
			C44.75,29.728,43.404,31.073,41.75,31.073z M28.75,19.073c-1.103,0-2,0.897-2,2v7c0,1.103,0.897,2,2,2h13c1.103,0,2-0.897,2-2v-7
			c0-1.103-0.897-2-2-2H28.75z"/>
	</g>
	<g>
		<path class="st11" d="M24.57,41.288l-6.476,3.238c-1.327,0.664-2.291,1.882-2.631,3.327l-1.029,4.374
			c-0.28,1.189-0.115,2.44,0.465,3.516l1.661,3.084c0.604,1.121,1.613,1.97,2.821,2.373l5.917,1.972
			c0.789,0.263,1.631,0.325,2.45,0.181l6.703-1.183c0.365-0.064,0.736-0.088,1.107-0.07l6.771,0.322
			c1.936,0.092,3.75-0.942,4.657-2.655l1.896-3.582c0.707-1.336,0.772-2.92,0.177-4.309l-2.038-4.756
			c-0.896-2.09-3.089-3.312-5.337-2.975L37.25,44.81c-1.133,0.17-2.29-0.054-3.277-0.635l-4.633-2.725
			C27.881,40.591,26.085,40.53,24.57,41.288z"/>
		<path class="st1" d="M26.88,63.929c-0.59,0-1.18-0.095-1.741-0.282l-5.916-1.972c-1.334-0.445-2.437-1.373-3.103-2.61
			l-1.662-3.084c-0.637-1.186-0.819-2.559-0.511-3.867l1.029-4.375c0.375-1.594,1.43-2.928,2.894-3.66l6.476-3.237
			c1.674-0.837,3.636-0.77,5.248,0.179l4.633,2.726c0.886,0.521,1.938,0.721,2.948,0.571l4.433-0.665
			c2.479-0.373,4.886,0.976,5.871,3.272l2.038,4.755c0.658,1.537,0.587,3.265-0.195,4.741l-1.895,3.581
			c-0.994,1.876-3.002,3.038-5.124,2.92l-6.771-0.322c-0.334-0.012-0.668,0.007-0.996,0.063l-6.703,1.183
			C27.519,63.9,27.199,63.929,26.88,63.929z M26.807,41.258c-0.688,0-1.376,0.158-2.014,0.478l0,0l-6.476,3.237
			c-1.198,0.6-2.061,1.69-2.368,2.994l-1.029,4.375c-0.252,1.071-0.104,2.195,0.418,3.164L17,58.59
			c0.545,1.013,1.447,1.771,2.539,2.136l5.917,1.972c0.708,0.236,1.47,0.291,2.205,0.163l6.703-1.183
			c0.401-0.07,0.811-0.099,1.217-0.077l6.771,0.322c1.753,0.069,3.379-0.855,4.192-2.39l1.895-3.581
			c0.641-1.208,0.698-2.622,0.159-3.879l-2.038-4.755c-0.805-1.88-2.777-2.979-4.803-2.679l-4.433,0.665
			c-1.242,0.188-2.521-0.061-3.604-0.698l-4.633-2.726C28.382,41.467,27.596,41.258,26.807,41.258z M24.57,41.288h0.01H24.57z"/>
	</g>
	<g>
		<path class="st13" d="M18.989,46.814c-0.184,0-0.36-0.102-0.448-0.276c-0.124-0.247-0.023-0.548,0.224-0.671l6.476-3.237
			c1.038-0.521,2.334-0.477,3.339,0.112c0.238,0.141,0.318,0.446,0.178,0.685c-0.14,0.239-0.446,0.316-0.684,0.179
			c-0.72-0.423-1.644-0.452-2.386-0.081l-6.476,3.237C19.141,46.798,19.064,46.814,18.989,46.814z"/>
	</g>
	<g>
		<path class="st12" d="M42.567,60.928c-0.276,0-0.5-0.224-0.5-0.5s0.224-0.5,0.5-0.5c0.928,0,1.774-0.51,2.208-1.331l1.896-3.581
			c0.129-0.244,0.433-0.335,0.677-0.208c0.243,0.13,0.337,0.433,0.208,0.677l-1.896,3.581
			C45.052,60.214,43.866,60.928,42.567,60.928z"/>
	</g>
	<g>
		<circle class="st0" cx="9.75" cy="34.073" r="6"/>
		<path class="st1" d="M9.75,40.573c-3.584,0-6.5-2.916-6.5-6.5s2.916-6.5,6.5-6.5s6.5,2.916,6.5,6.5S13.334,40.573,9.75,40.573z
			 M9.75,28.573c-3.033,0-5.5,2.468-5.5,5.5s2.467,5.5,5.5,5.5s5.5-2.468,5.5-5.5S12.783,28.573,9.75,28.573z"/>
	</g>
	<g>
		<path class="st4" d="M14.775,56.926h-2.291c-0.425,0-0.803-0.269-0.944-0.67l-3.266-9.33v-11.5l15-15v8l-7.5,7.5v20
			C15.775,56.478,15.328,56.926,14.775,56.926z"/>
		<path class="st1" d="M14.775,57.426h-2.291c-0.637,0-1.206-0.404-1.416-1.005l-3.266-9.33c-0.019-0.053-0.028-0.108-0.028-0.165
			v-11.5c0-0.133,0.053-0.26,0.146-0.354l15-15c0.143-0.144,0.358-0.186,0.545-0.108c0.187,0.077,0.309,0.26,0.309,0.462v8
			c0,0.133-0.053,0.26-0.146,0.354l-7.354,7.354v19.793C16.275,56.753,15.603,57.426,14.775,57.426z M8.775,46.841l3.238,9.25
			c0.07,0.2,0.259,0.335,0.472,0.335h2.291c0.276,0,0.5-0.225,0.5-0.5v-20c0-0.133,0.053-0.26,0.146-0.354l7.354-7.354v-6.586
			l-14,14V46.841z"/>
	</g>
	<g>
		<path class="st5" d="M9.459,56.926h2.316l-3.5-10v-8.978H5.25v8.978l3.266,9.33C8.656,56.657,9.035,56.926,9.459,56.926z"/>
		<path class="st1" d="M11.775,57.426H9.459c-0.637,0-1.206-0.404-1.416-1.005l-3.266-9.33c-0.019-0.053-0.028-0.108-0.028-0.165
			v-8.978c0-0.276,0.224-0.5,0.5-0.5h3.025c0.276,0,0.5,0.224,0.5,0.5v8.893l3.472,9.92c0.053,0.152,0.029,0.322-0.064,0.454
			C12.089,57.348,11.938,57.426,11.775,57.426z M5.75,46.841l3.238,9.25c0.07,0.2,0.259,0.335,0.472,0.335h1.611l-3.268-9.335
			c-0.019-0.053-0.028-0.108-0.028-0.165v-8.478H5.75V46.841z"/>
	</g>
	<g>
		<circle class="st2" cx="12.75" cy="34.073" r="6"/>
		<path class="st1" d="M12.75,40.573c-3.584,0-6.5-2.916-6.5-6.5s2.916-6.5,6.5-6.5s6.5,2.916,6.5,6.5S16.334,40.573,12.75,40.573z
			 M12.75,28.573c-3.033,0-5.5,2.468-5.5,5.5s2.467,5.5,5.5,5.5s5.5-2.468,5.5-5.5S15.783,28.573,12.75,28.573z"/>
	</g>
	<g>
		<path class="st14" d="M13.194,55.426c-0.207,0-0.4-0.129-0.472-0.335l-2.919-8.34c-0.019-0.053-0.028-0.108-0.028-0.165v-4.907
			c0-0.276,0.224-0.5,0.5-0.5s0.5,0.224,0.5,0.5v4.822l2.891,8.26c0.091,0.261-0.046,0.546-0.307,0.637
			C13.305,55.417,13.249,55.426,13.194,55.426z"/>
	</g>
	<g>
		<path class="st5" d="M52.331,55.426c-0.055,0-0.11-0.009-0.165-0.028c-0.261-0.091-0.398-0.376-0.307-0.637l2.891-8.26v-4.822
			c0-0.276,0.224-0.5,0.5-0.5s0.5,0.224,0.5,0.5v4.907c0,0.057-0.01,0.112-0.028,0.165l-2.919,8.34
			C52.73,55.297,52.537,55.426,52.331,55.426z"/>
	</g>
	<g>
		<path class="st3" d="M8.75,34.573c-0.276,0-0.5-0.224-0.5-0.5c0-2.481,2.019-4.5,4.5-4.5c0.276,0,0.5,0.224,0.5,0.5
			s-0.224,0.5-0.5,0.5c-1.93,0-3.5,1.57-3.5,3.5C9.25,34.35,9.026,34.573,8.75,34.573z"/>
	</g>
	<g>
		<path class="st0" d="M12.75,38.573c-0.276,0-0.5-0.224-0.5-0.5s0.224-0.5,0.5-0.5c1.93,0,3.5-1.57,3.5-3.5
			c0-0.276,0.224-0.5,0.5-0.5s0.5,0.224,0.5,0.5C17.25,36.555,15.231,38.573,12.75,38.573z"/>
	</g>
	<g>
		<circle class="st4" cx="12.75" cy="34.073" r="2"/>
		<path class="st1" d="M12.75,36.573c-1.378,0-2.5-1.121-2.5-2.5s1.122-2.5,2.5-2.5s2.5,1.121,2.5,2.5S14.128,36.573,12.75,36.573z
			 M12.75,32.573c-0.827,0-1.5,0.673-1.5,1.5s0.673,1.5,1.5,1.5s1.5-0.673,1.5-1.5S13.577,32.573,12.75,32.573z"/>
	</g>
	<g>
		<path class="st1" d="M21.5,57.573c-1.378,0-2.5-1.121-2.5-2.5s1.122-2.5,2.5-2.5s2.5,1.121,2.5,2.5S22.878,57.573,21.5,57.573z
			 M21.5,53.573c-0.827,0-1.5,0.673-1.5,1.5s0.673,1.5,1.5,1.5s1.5-0.673,1.5-1.5S22.327,53.573,21.5,53.573z"/>
	</g>
	<g>
		<path class="st1" d="M42,53.073c-1.654,0-3-1.346-3-3s1.346-3,3-3s3,1.346,3,3S43.654,53.073,42,53.073z M42,48.073
			c-1.103,0-2,0.897-2,2s0.897,2,2,2s2-0.897,2-2S43.103,48.073,42,48.073z"/>
	</g>
	<g>
		<path class="st1" d="M31.5,54.573c-1.103,0-2-0.897-2-2s0.897-2,2-2s2,0.897,2,2S32.603,54.573,31.5,54.573z M31.5,51.573
			c-0.551,0-1,0.448-1,1s0.449,1,1,1s1-0.448,1-1S32.051,51.573,31.5,51.573z"/>
	</g>
	<g>
		<path class="st1" d="M39.5,59.573c-1.379,0-2.5-1.121-2.5-2.5s1.121-2.5,2.5-2.5s2.5,1.121,2.5,2.5S40.879,59.573,39.5,59.573z
			 M39.5,55.573c-0.827,0-1.5,0.673-1.5,1.5s0.673,1.5,1.5,1.5s1.5-0.673,1.5-1.5S40.327,55.573,39.5,55.573z"/>
	</g>
	<g>
		<path class="st1" d="M25,49.573c-1.103,0-2-0.897-2-2s0.897-2,2-2s2,0.897,2,2S26.103,49.573,25,49.573z M25,46.573
			c-0.551,0-1,0.448-1,1s0.449,1,1,1s1-0.448,1-1S25.551,46.573,25,46.573z"/>
	</g>
	<g>
		<path class="st7" d="M38.25,26.073h-6c-0.552,0-1-0.448-1-1v-1c0-0.552,0.448-1,1-1h6c0.552,0,1,0.448,1,1v1
			C39.25,25.625,38.802,26.073,38.25,26.073z"/>
		<path class="st1" d="M38.25,26.573h-6c-0.827,0-1.5-0.673-1.5-1.5v-1c0-0.827,0.673-1.5,1.5-1.5h6c0.827,0,1.5,0.673,1.5,1.5v1
			C39.75,25.9,39.077,26.573,38.25,26.573z M32.25,23.573c-0.276,0-0.5,0.225-0.5,0.5v1c0,0.275,0.224,0.5,0.5,0.5h6
			c0.275,0,0.5-0.225,0.5-0.5v-1c0-0.275-0.225-0.5-0.5-0.5H32.25z"/>
	</g>
	<g>
		<path class="st14" d="M30.25,17.073c-0.276,0-0.5-0.224-0.5-0.5v-14c0-0.276,0.224-0.5,0.5-0.5s0.5,0.224,0.5,0.5v14
			C30.75,16.85,30.526,17.073,30.25,17.073z"/>
	</g>
	<g>
		<path class="st5" d="M34.25,17.073c-0.276,0-0.5-0.224-0.5-0.5v-14c0-0.276,0.224-0.5,0.5-0.5s0.5,0.224,0.5,0.5v14
			C34.75,16.85,34.526,17.073,34.25,17.073z"/>
	</g>
	<g>
		<path class="st14" d="M28.25,28.573c-0.276,0-0.5-0.224-0.5-0.5v-7c0-0.276,0.224-0.5,0.5-0.5s0.5,0.224,0.5,0.5v7
			C28.75,28.35,28.526,28.573,28.25,28.573z"/>
	</g>
	<g>
		<path class="st5" d="M42.25,28.573c-0.276,0-0.5-0.224-0.5-0.5v-7c0-0.276,0.224-0.5,0.5-0.5s0.5,0.224,0.5,0.5v7
			C42.75,28.35,42.526,28.573,42.25,28.573z"/>
	</g>
	<g>
		<circle class="st2" cx="54.25" cy="34.073" r="6"/>
		<path class="st1" d="M54.25,40.573c-3.584,0-6.5-2.916-6.5-6.5s2.916-6.5,6.5-6.5s6.5,2.916,6.5,6.5S57.834,40.573,54.25,40.573z
			 M54.25,28.573c-3.032,0-5.5,2.468-5.5,5.5s2.468,5.5,5.5,5.5s5.5-2.468,5.5-5.5S57.282,28.573,54.25,28.573z"/>
	</g>
	<g>
		<circle class="st4" cx="54.25" cy="34.073" r="2"/>
		<path class="st1" d="M54.25,36.573c-1.379,0-2.5-1.121-2.5-2.5s1.121-2.5,2.5-2.5s2.5,1.121,2.5,2.5S55.629,36.573,54.25,36.573z
			 M54.25,32.573c-0.827,0-1.5,0.673-1.5,1.5s0.673,1.5,1.5,1.5s1.5-0.673,1.5-1.5S55.077,32.573,54.25,32.573z"/>
	</g>
	<g>
		<path class="st3" d="M50.25,34.573c-0.276,0-0.5-0.224-0.5-0.5c0-2.481,2.019-4.5,4.5-4.5c0.276,0,0.5,0.224,0.5,0.5
			s-0.224,0.5-0.5,0.5c-1.93,0-3.5,1.57-3.5,3.5C50.75,34.35,50.526,34.573,50.25,34.573z"/>
	</g>
	<g>
		<path class="st0" d="M54.25,38.573c-0.276,0-0.5-0.224-0.5-0.5s0.224-0.5,0.5-0.5c1.93,0,3.5-1.57,3.5-3.5
			c0-0.276,0.224-0.5,0.5-0.5s0.5,0.224,0.5,0.5C58.75,36.555,56.731,38.573,54.25,38.573z"/>
	</g>
</g>
</svg>
