<?xml version="1.0" encoding="utf-8"?>
<!-- Generator: Adobe Illustrator 21.1.0, SVG Export Plug-In . SVG Version: 6.00 Build 0)  -->
<svg version="1.1" id="Layer_1" xmlns="http://www.w3.org/2000/svg" xmlns:xlink="http://www.w3.org/1999/xlink" x="0px" y="0px"
	 viewBox="0 0 64 64" style="enable-background:new 0 0 64 64;" xml:space="preserve">
<style type="text/css">
	.st0{fill:#DB8E11;}
	.st1{fill:#212A41;}
	.st2{fill:#F9AC2F;}
	.st3{fill:#FFCA4D;}
	.st4{fill:#B7C0D7;}
	.st5{fill:#99A2B9;}
	.st6{fill:#B51040;}
	.st7{fill:#D32E5E;}
	.st8{fill:#F14C7C;}
	.st9{fill:#0079A8;}
	.st10{fill:#1E97C6;}
	.st11{fill:#BED38E;}
	.st12{fill:#A0B570;}
	.st13{fill:#DCF1AC;}
	.st14{fill:#D5DEF5;}
	.st15{fill:#4E4B51;}
	.st16{fill:#6C696F;}
	.st17{fill:#848483;}
	.st18{fill:#A2A2A1;}
	.st19{fill:#7B849B;}
	.st20{fill:#8A878D;}
	.st21{fill:#C0C0BF;}
	.st22{fill:#005B8A;}
	.st23{fill:#970022;}
	.st24{fill:#1A237E;}
	.st25{fill:#BD7000;}
	.st26{fill:#003D6C;}
	.st27{fill:#666665;}
	.st28{fill:#195190;}
</style>
<g id="UFO">
	<g>
		<path class="st5" d="M11.208,8.564c0-1.657-1.343-3-3-3s-3,1.343-3,3H4.25c-1.105,0-2,0.895-2,2v0c0,1.105,0.895,2,2,2h8
			c1.105,0,2-0.895,2-2v0c0-1.105-0.895-2-2-2H11.208z"/>
		<path class="st1" d="M12.25,13.064h-8c-1.378,0-2.5-1.122-2.5-2.5s1.122-2.5,2.5-2.5h0.494c0.243-1.694,1.704-3,3.464-3
			s3.221,1.306,3.464,3h0.577c1.378,0,2.5,1.122,2.5,2.5S13.628,13.064,12.25,13.064z M4.25,9.064c-0.827,0-1.5,0.673-1.5,1.5
			s0.673,1.5,1.5,1.5h8c0.827,0,1.5-0.673,1.5-1.5s-0.673-1.5-1.5-1.5h-1.042c-0.276,0-0.5-0.224-0.5-0.5c0-1.378-1.122-2.5-2.5-2.5
			s-2.5,1.122-2.5,2.5c0,0.276-0.224,0.5-0.5,0.5H4.25z M11.708,8.564h0.01H11.708z"/>
	</g>
	<g>
		<path class="st4" d="M14.208,8.564c0-1.657-1.343-3-3-3s-3,1.343-3,3H7.25c-1.105,0-2,0.895-2,2v0c0,1.105,0.895,2,2,2h8
			c1.105,0,2-0.895,2-2v0c0-1.105-0.895-2-2-2H14.208z"/>
		<path class="st1" d="M15.25,13.064h-8c-1.378,0-2.5-1.122-2.5-2.5s1.122-2.5,2.5-2.5h0.494c0.243-1.694,1.704-3,3.464-3
			s3.221,1.306,3.464,3h0.577c1.378,0,2.5,1.122,2.5,2.5S16.628,13.064,15.25,13.064z M7.25,9.064c-0.827,0-1.5,0.673-1.5,1.5
			s0.673,1.5,1.5,1.5h8c0.827,0,1.5-0.673,1.5-1.5s-0.673-1.5-1.5-1.5h-1.042c-0.276,0-0.5-0.224-0.5-0.5c0-1.378-1.122-2.5-2.5-2.5
			s-2.5,1.122-2.5,2.5c0,0.276-0.224,0.5-0.5,0.5H7.25z M14.708,8.564h0.01H14.708z"/>
	</g>
	<g>
		<path class="st5" d="M55.708,8.564c0-1.657-1.343-3-3-3s-3,1.343-3,3H48.75c-1.105,0-2,0.895-2,2v0c0,1.105,0.895,2,2,2h8
			c1.105,0,2-0.895,2-2v0c0-1.105-0.895-2-2-2H55.708z"/>
		<path class="st1" d="M56.75,13.064h-8c-1.378,0-2.5-1.122-2.5-2.5s1.122-2.5,2.5-2.5h0.494c0.243-1.694,1.704-3,3.464-3
			s3.221,1.306,3.464,3h0.577c1.378,0,2.5,1.122,2.5,2.5S58.128,13.064,56.75,13.064z M48.75,9.064c-0.827,0-1.5,0.673-1.5,1.5
			s0.673,1.5,1.5,1.5h8c0.827,0,1.5-0.673,1.5-1.5s-0.673-1.5-1.5-1.5h-1.042c-0.276,0-0.5-0.224-0.5-0.5c0-1.378-1.122-2.5-2.5-2.5
			s-2.5,1.122-2.5,2.5c0,0.276-0.224,0.5-0.5,0.5H48.75z M56.208,8.564h0.01H56.208z"/>
	</g>
	<g>
		<path class="st4" d="M58.708,8.564c0-1.657-1.343-3-3-3s-3,1.343-3,3H51.75c-1.105,0-2,0.895-2,2v0c0,1.105,0.895,2,2,2h8
			c1.105,0,2-0.895,2-2v0c0-1.105-0.895-2-2-2H58.708z"/>
		<path class="st1" d="M59.75,13.064h-8c-1.378,0-2.5-1.122-2.5-2.5s1.122-2.5,2.5-2.5h0.494c0.243-1.694,1.704-3,3.464-3
			s3.221,1.306,3.464,3h0.577c1.378,0,2.5,1.122,2.5,2.5S61.128,13.064,59.75,13.064z M51.75,9.064c-0.827,0-1.5,0.673-1.5,1.5
			s0.673,1.5,1.5,1.5h8c0.827,0,1.5-0.673,1.5-1.5s-0.673-1.5-1.5-1.5h-1.042c-0.276,0-0.5-0.224-0.5-0.5c0-1.378-1.122-2.5-2.5-2.5
			s-2.5,1.122-2.5,2.5c0,0.276-0.224,0.5-0.5,0.5H51.75z M59.208,8.564h0.01H59.208z"/>
	</g>
	<g>
		<g>
			<polygon class="st17" points="24,44.564 20,44.564 11,59.564 15,59.564 			"/>
			<path class="st1" d="M15,60.064h-4c-0.18,0-0.346-0.097-0.435-0.253s-0.086-0.349,0.006-0.504l9-15
				c0.09-0.15,0.253-0.243,0.429-0.243h4c0.18,0,0.346,0.097,0.435,0.253s0.086,0.349-0.006,0.504l-9,15
				C15.338,59.972,15.176,60.064,15,60.064z M11.883,59.064h2.833l8.4-14h-2.833L11.883,59.064z"/>
		</g>
		<g>
			<circle class="st5" cx="13" cy="59.564" r="3"/>
			<path class="st1" d="M13,63.064c-1.93,0-3.5-1.57-3.5-3.5s1.57-3.5,3.5-3.5s3.5,1.57,3.5,3.5S14.93,63.064,13,63.064z M13,57.064
				c-1.378,0-2.5,1.122-2.5,2.5s1.122,2.5,2.5,2.5s2.5-1.122,2.5-2.5S14.378,57.064,13,57.064z"/>
		</g>
	</g>
	<g>
		<g>
			<polygon class="st17" points="40,44.564 44,44.564 53,59.564 49,59.564 			"/>
			<path class="st1" d="M53,60.064h-4c-0.176,0-0.338-0.092-0.429-0.243l-9-15c-0.093-0.155-0.095-0.347-0.006-0.504
				S39.82,44.064,40,44.064h4c0.176,0,0.338,0.092,0.429,0.243l9,15c0.093,0.155,0.095,0.347,0.006,0.504S53.18,60.064,53,60.064z
				 M49.283,59.064h2.833l-8.4-14h-2.833L49.283,59.064z"/>
		</g>
		<g>
			<circle class="st5" cx="51" cy="59.564" r="3"/>
			<path class="st1" d="M51,63.064c-1.93,0-3.5-1.57-3.5-3.5s1.57-3.5,3.5-3.5s3.5,1.57,3.5,3.5S52.93,63.064,51,63.064z M51,57.064
				c-1.378,0-2.5,1.122-2.5,2.5s1.122,2.5,2.5,2.5s2.5-1.122,2.5-2.5S52.378,57.064,51,57.064z"/>
		</g>
	</g>
	<g>
		<path class="st4" d="M59.5,41.564h-55c-1.381,0-2.5-1.119-2.5-2.5v0c0-4.142,3.358-7.5,7.5-7.5h45c4.142,0,7.5,3.358,7.5,7.5v0
			C62,40.445,60.881,41.564,59.5,41.564z"/>
		<path class="st1" d="M59.5,42.064h-55c-1.654,0-3-1.346-3-3c0-4.411,3.589-8,8-8h45c4.411,0,8,3.589,8,8
			C62.5,40.719,61.154,42.064,59.5,42.064z M9.5,32.064c-3.86,0-7,3.14-7,7c0,1.103,0.897,2,2,2h55c1.103,0,2-0.897,2-2
			c0-3.86-3.14-7-7-7H9.5z"/>
	</g>
	<g>
		<path class="st14" d="M4,39.564c-0.276,0-0.5-0.224-0.5-0.5c0-3.308,2.691-6,6-6c0.276,0,0.5,0.224,0.5,0.5s-0.224,0.5-0.5,0.5
			c-2.757,0-5,2.243-5,5C4.5,39.34,4.276,39.564,4,39.564z"/>
	</g>
	<g>
		<path class="st5" d="M60,39.564c-0.276,0-0.5-0.224-0.5-0.5c0-2.757-2.243-5-5-5c-0.276,0-0.5-0.224-0.5-0.5s0.224-0.5,0.5-0.5
			c3.309,0,6,2.691,6,6C60.5,39.34,60.276,39.564,60,39.564z"/>
	</g>
	<g>
		<path class="st9" d="M51.899,31.564c-1.004-10.107-9.528-18-19.899-18s-18.895,7.893-19.899,18H51.899z"/>
		<path class="st1" d="M51.899,32.064H12.102c-0.141,0-0.276-0.06-0.371-0.165c-0.095-0.104-0.141-0.244-0.127-0.385
			C12.648,20.996,21.417,13.064,32,13.064c10.583,0,19.352,7.932,20.396,18.451c0.014,0.141-0.032,0.28-0.127,0.385
			C52.175,32.005,52.041,32.064,51.899,32.064z M12.661,31.064H51.34c-1.239-9.731-9.458-17-19.339-17
			C22.118,14.064,13.899,21.333,12.661,31.064z"/>
	</g>
	<g>
		<path class="st10" d="M14.446,30.064c-0.036,0-0.073-0.004-0.11-0.012c-0.27-0.061-0.439-0.328-0.378-0.597
			C15.859,20.982,23.278,15.064,32,15.064c0.276,0,0.5,0.224,0.5,0.5s-0.224,0.5-0.5,0.5c-8.251,0-15.269,5.597-17.067,13.61
			C14.881,29.906,14.675,30.064,14.446,30.064z"/>
	</g>
	<g>
		<rect x="30" y="44.564" class="st18" width="4" height="15"/>
		<path class="st1" d="M34,60.064h-4c-0.276,0-0.5-0.224-0.5-0.5v-15c0-0.276,0.224-0.5,0.5-0.5h4c0.276,0,0.5,0.224,0.5,0.5v15
			C34.5,59.841,34.276,60.064,34,60.064z M30.5,59.064h3v-14h-3V59.064z"/>
	</g>
	<g>
		<circle class="st4" cx="32" cy="59.564" r="3"/>
		<path class="st1" d="M32,63.064c-1.93,0-3.5-1.57-3.5-3.5s1.57-3.5,3.5-3.5s3.5,1.57,3.5,3.5S33.93,63.064,32,63.064z M32,57.064
			c-1.378,0-2.5,1.122-2.5,2.5s1.122,2.5,2.5,2.5s2.5-1.122,2.5-2.5S33.378,57.064,32,57.064z"/>
	</g>
	<g>
		<path class="st7" d="M32.084,51.564c13.807,0,25-4.477,25-10h-50C7.084,47.087,18.277,51.564,32.084,51.564z"/>
		<path class="st1" d="M32.083,52.064c-14.299,0-25.5-4.612-25.5-10.5c0-0.276,0.224-0.5,0.5-0.5h50c0.276,0,0.5,0.224,0.5,0.5
			C57.583,47.452,46.382,52.064,32.083,52.064z M7.619,42.064c0.697,4.928,11.617,9,24.465,9s23.768-4.072,24.465-9H7.619z"/>
	</g>
	<g>
		<path class="st1" d="M32,14.064c-0.276,0-0.5-0.224-0.5-0.5V4.435c0-0.276,0.224-0.5,0.5-0.5s0.5,0.224,0.5,0.5v9.129
			C32.5,13.84,32.277,14.064,32,14.064z"/>
	</g>
	<g>
		<circle class="st7" cx="32" cy="4.435" r="3"/>
		<path class="st1" d="M32,7.935c-1.93,0-3.5-1.57-3.5-3.5s1.57-3.5,3.5-3.5s3.5,1.57,3.5,3.5S33.93,7.935,32,7.935z M32,1.935
			c-1.378,0-2.5,1.122-2.5,2.5s1.122,2.5,2.5,2.5s2.5-1.122,2.5-2.5S33.378,1.935,32,1.935z"/>
	</g>
	<g>
		<path class="st8" d="M19.642,48.692c-0.039,0-0.079-0.004-0.118-0.014c-4.588-1.113-8.195-2.856-9.895-4.783
			c-0.183-0.207-0.163-0.523,0.044-0.706c0.208-0.182,0.523-0.163,0.706,0.044c1.568,1.777,4.987,3.407,9.38,4.473
			c0.269,0.065,0.433,0.335,0.368,0.604C20.072,48.539,19.867,48.692,19.642,48.692z"/>
	</g>
	<g>
		<path class="st6" d="M44.524,48.693c-0.225,0-0.43-0.153-0.485-0.382c-0.065-0.268,0.1-0.539,0.368-0.604
			c4.395-1.066,7.815-2.697,9.382-4.473c0.183-0.208,0.5-0.227,0.706-0.044c0.208,0.183,0.227,0.499,0.044,0.706
			c-1.7,1.927-5.307,3.67-9.896,4.784C44.603,48.688,44.563,48.693,44.524,48.693z"/>
	</g>
	<g>
		<path class="st1" d="M32.083,52.064c-4.091,0-8.161-0.403-11.769-1.167c-0.156-0.033-0.287-0.139-0.353-0.284
			s-0.058-0.313,0.021-0.452c1.373-2.413,6.348-4.097,12.1-4.097c5.752,0,10.728,1.685,12.1,4.097
			c0.079,0.139,0.087,0.307,0.021,0.452s-0.196,0.251-0.353,0.284C40.245,51.661,36.175,52.064,32.083,52.064z M21.288,50.075
			c6.693,1.297,14.899,1.296,21.591,0c-1.659-1.775-5.982-3.01-10.796-3.01C27.27,47.064,22.947,48.299,21.288,50.075z"/>
	</g>
</g>
</svg>
