<svg width="664" height="512" viewBox="0 0 664 512" fill="none" xmlns="http://www.w3.org/2000/svg">
<path d="M182.211 318.2C182.211 270.2 232.789 231.2 295.039 231.2C357.289 231.2 407.867 270.2 407.867 318.2C407.867 366.2 357.289 405.2 295.039 405.2C232.789 405.2 182.211 366.2 182.211 318.2ZM556.359 261.7C520.825 260 486.847 249.3 460.002 231.1C434.713 214 417.075 191.3 409.553 166.3C448.07 173.6 483.345 188.9 511.877 211.1C530.811 226 545.855 243.1 556.359 261.7ZM510.969 446.6C488.792 463.7 462.595 476.6 434.194 484.9C434.194 483.7 434.064 482.4 434.064 481.2C434.064 448.9 449.627 418 477.769 394.1C502.798 372.9 535.869 358.8 572.052 353.7C565.178 388.8 544.039 421.1 510.969 446.6Z" fill="#6247AA"/>
<path d="M183.508 103.1C199.2 103.1 212.039 113 212.039 125.1C212.039 137.2 199.2 147.1 183.508 147.1C167.816 147.1 154.977 137.2 154.977 125.1C154.977 113 167.686 103.1 183.508 103.1Z" fill="#6247AA"/>
<path d="M293.742 96.5996C299.448 96.5996 304.117 100.2 304.117 104.6C304.117 109 299.448 112.6 293.742 112.6C288.036 112.6 283.367 109 283.367 104.6C283.367 100.2 288.036 96.5996 293.742 96.5996Z" fill="#6247AA"/>
<path d="M526.661 199.9C485.68 168 432.119 149.1 374.537 146L373.63 113.3C373.63 110.6 372.852 107.8 371.036 105.3L360.531 90.9002C321.884 39.3002 240.7 18.0002 170.539 38.3002L145.25 4.40017C142.397 0.600175 136.042 -0.699825 131.114 1.50017C126.186 3.70017 124.5 8.60017 127.353 12.4002L151.605 44.8002C150.048 45.4002 148.622 46.1002 147.066 46.7002C141.489 49.2002 136.302 51.9002 131.244 54.8002L117.886 37.0002C115.033 33.2002 108.678 31.9002 103.75 34.1002C98.8219 36.3002 97.1359 41.2002 99.9891 45.0002L115.292 65.5002C95.7094 80.4002 81.5734 99.0002 74.1813 120C63.4172 151.1 68.8641 183.6 89.7438 211.4L100.119 225.6C102.064 228.2 104.788 230.3 108.03 231.7L144.342 248.6C128.65 273.4 120.48 300.9 120.48 328.7C120.48 429.6 226.953 511.7 357.808 511.7C488.663 511.7 595.136 429.6 595.136 328.7C595.136 280.1 570.755 234.4 526.661 199.9ZM574.127 337.2C531.2 342.1 491.775 358.3 462.336 383.3C458.834 386.3 455.592 389.3 452.35 392.5L410.461 369.9C421.873 354.7 428.488 337.1 428.488 318.3C428.488 286.6 409.813 258.3 380.633 239.4L415.648 216.5C424.208 226.3 434.453 235.2 446.125 243.2C478.806 265.3 520.566 277.6 564.011 278C570.625 294.2 574.127 311.2 574.127 328.7C574.386 331.5 574.256 334.3 574.127 337.2ZM182.211 318.2C182.211 270.2 232.789 231.2 295.039 231.2C357.289 231.2 407.867 270.2 407.867 318.2C407.867 366.2 357.289 405.2 295.039 405.2C232.789 405.2 182.211 366.2 182.211 318.2ZM353.787 147.4L156.273 235.3L138.506 227.1L353.398 131.5L353.787 147.4ZM363.384 161.6C371.555 161.8 379.595 162.3 387.506 163.1C390.748 176.9 396.714 190.2 405.014 202.5L363.255 229.7C343.283 220.5 319.939 215.2 295.039 215.2C257.43 215.2 223.322 227.3 198.941 246.7L188.955 239.3L363.384 161.6ZM556.359 261.7C520.825 260 486.847 249.3 460.002 231.1C434.713 214 417.075 191.3 409.553 166.3C448.07 173.6 483.345 188.9 511.877 211.1C530.811 226 545.855 243.1 556.359 261.7ZM157.441 60.7002C178.709 51.2002 202.053 46.7002 225.008 46.7002C271.825 46.7002 317.475 65.4002 342.505 98.9002L353.009 113.2L118.275 217.7L107.9 203.4C70.4203 153.5 92.7266 89.5002 157.441 60.7002ZM167.427 248.9L170.15 247.7L185.583 259.2C170.28 275.9 161.331 296.3 161.331 318.3C161.331 349.9 179.877 378.1 208.927 397.1L191.159 435.3C159.905 406.4 141.1 369.2 141.1 328.7C141.23 300.7 150.308 273.2 167.427 248.9ZM207.111 448.4L226.564 406.7C246.536 416 270.009 421.3 295.039 421.3C336.928 421.3 374.278 406.4 398.789 383.1L440.678 405.8C422.911 428.4 413.314 454.4 413.314 481.3C413.314 484.2 413.444 487.1 413.703 490C395.936 493.7 377.131 495.6 357.808 495.6C299.319 495.6 246.147 477.6 207.111 448.4ZM434.064 484.8C434.064 483.6 433.934 482.4 433.934 481.2C433.934 448.9 449.497 418 477.639 394.1C502.669 372.9 535.739 358.8 571.922 353.7C559.991 414 506.17 463.9 434.064 484.8Z" fill="#555E6B"/>
<path d="M183.508 163.101C210.742 163.101 232.789 146.101 232.789 125.101C232.789 104.101 210.742 87.1006 183.508 87.1006C156.273 87.1006 134.227 104.101 134.227 125.101C134.227 146.101 156.273 163.101 183.508 163.101ZM183.508 103.101C199.2 103.101 212.039 113.001 212.039 125.101C212.039 137.201 199.2 147.101 183.508 147.101C167.816 147.101 154.977 137.201 154.977 125.101C154.977 113.001 167.686 103.101 183.508 103.101Z" fill="#555E6B"/>
<path d="M293.742 128.601C310.861 128.601 324.867 117.801 324.867 104.601C324.867 91.4006 310.861 80.6006 293.742 80.6006C276.623 80.6006 262.617 91.4006 262.617 104.601C262.617 117.801 276.494 128.601 293.742 128.601ZM293.742 96.6006C299.448 96.6006 304.117 100.201 304.117 104.601C304.117 109.001 299.448 112.601 293.742 112.601C288.036 112.601 283.367 109.001 283.367 104.601C283.367 100.201 288.036 96.6006 293.742 96.6006Z" fill="#555E6B"/>
<path d="M352.88 205.601C360.042 205.601 365.848 201.123 365.848 195.601C365.848 190.078 360.042 185.601 352.88 185.601C345.717 185.601 339.911 190.078 339.911 195.601C339.911 201.123 345.717 205.601 352.88 205.601Z" fill="#555E6B"/>
<path d="M431.341 267.2C438.503 267.2 444.309 262.723 444.309 257.2C444.309 251.677 438.503 247.2 431.341 247.2C424.178 247.2 418.372 251.677 418.372 257.2C418.372 262.723 424.178 267.2 431.341 267.2Z" fill="#555E6B"/>
<path d="M548.708 318.601C555.87 318.601 561.677 314.123 561.677 308.601C561.677 303.078 555.87 298.601 548.708 298.601C541.545 298.601 535.739 303.078 535.739 308.601C535.739 314.123 541.545 318.601 548.708 318.601Z" fill="#555E6B"/>
<path d="M447.552 369.601C454.714 369.601 460.52 365.123 460.52 359.601C460.52 354.078 454.714 349.601 447.552 349.601C440.389 349.601 434.583 354.078 434.583 359.601C434.583 365.123 440.389 369.601 447.552 369.601Z" fill="#555E6B"/>
<path d="M393.083 427.601C400.245 427.601 406.052 423.123 406.052 417.601C406.052 412.078 400.245 407.601 393.083 407.601C385.92 407.601 380.114 412.078 380.114 417.601C380.114 423.123 385.92 427.601 393.083 427.601Z" fill="#555E6B"/>
<path d="M245.239 451.601C252.402 451.601 258.208 447.123 258.208 441.601C258.208 436.078 252.402 431.601 245.239 431.601C238.077 431.601 232.27 436.078 232.27 441.601C232.27 447.123 238.077 451.601 245.239 451.601Z" fill="#555E6B"/>
<path d="M182.989 410.601C190.152 410.601 195.958 406.123 195.958 400.601C195.958 395.078 190.152 390.601 182.989 390.601C175.827 390.601 170.02 395.078 170.02 400.601C170.02 406.123 175.827 410.601 182.989 410.601Z" fill="#555E6B"/>
</svg>
