<svg width="663" height="512" viewBox="0 0 663 512" fill="none" xmlns="http://www.w3.org/2000/svg">
<path d="M331.5 321.3C287.214 321.3 251.215 293.5 251.215 259.3C251.215 225.1 287.214 197.3 331.5 197.3C375.786 197.3 411.785 225.1 411.785 259.3C411.785 293.5 375.786 321.3 331.5 321.3Z" fill="#6247AA"/>
<path d="M472.646 344.3C460.474 344.3 450.633 336.7 450.633 327.3C450.633 317.9 460.474 310.3 472.646 310.3C484.819 310.3 494.66 317.9 494.66 327.3C494.66 336.7 484.819 344.3 472.646 344.3Z" fill="#6247AA"/>
<path d="M628.296 360.3H598.254C585.823 360.3 575.593 352.4 575.593 342.8C575.593 333.2 585.823 325.3 598.254 325.3H617.548C622.339 336.7 625.836 348.4 628.296 360.3ZM45.4517 325.3H163.808C176.239 325.3 186.469 333.2 186.469 342.8C186.469 352.4 176.239 360.3 163.808 360.3H34.7039C37.1642 348.4 40.6605 336.7 45.4517 325.3Z" fill="#6247AA"/>
<path d="M331.5 181.3C275.818 181.3 230.496 216.3 230.496 259.3C230.496 302.3 275.818 337.3 331.5 337.3C387.182 337.3 432.504 302.3 432.504 259.3C432.504 216.3 387.182 181.3 331.5 181.3ZM331.5 321.3C287.214 321.3 251.215 293.5 251.215 259.3C251.215 225.1 287.214 197.3 331.5 197.3C375.786 197.3 411.785 225.1 411.785 259.3C411.785 293.5 375.786 321.3 331.5 321.3Z" fill="#555E6B"/>
<path d="M472.646 294.3C449.079 294.3 429.914 309.1 429.914 327.3C429.914 345.5 449.079 360.3 472.646 360.3C496.214 360.3 515.379 345.5 515.379 327.3C515.379 309.1 496.214 294.3 472.646 294.3ZM472.646 344.3C460.474 344.3 450.633 336.7 450.633 327.3C450.633 317.9 460.474 310.3 472.646 310.3C484.819 310.3 494.66 317.9 494.66 327.3C494.66 336.7 484.819 344.3 472.646 344.3Z" fill="#555E6B"/>
<path d="M558.629 221.1C511.624 184.8 452.575 161.2 388.477 152.3V39.2998C388.477 34.8998 383.815 31.2998 378.117 31.2998C372.42 31.2998 367.758 34.8998 367.758 39.2998V150C355.845 149 343.672 148.4 331.5 148.4C318.421 148.4 305.472 149 292.652 150.2V97.2998C292.652 92.8998 287.991 89.2998 282.293 89.2998C276.595 89.2998 271.934 92.8998 271.934 97.2998V152.7C208.871 161.8 150.729 185.3 104.371 221.1C43.7684 267.9 10.3594 330.2 10.3594 396.4V408.7V416.4V416.7C10.3594 452 47.5236 480.7 93.2344 480.7H569.766C615.476 480.7 652.641 452 652.641 416.7V416.4V408.7V396.4C652.641 330.2 619.232 267.9 558.629 221.1ZM628.296 360.3H598.254C585.823 360.3 575.593 352.4 575.593 342.8C575.593 333.2 585.823 325.3 598.254 325.3H617.548C622.339 336.7 625.836 348.4 628.296 360.3ZM45.4518 325.3H163.808C176.239 325.3 186.469 333.2 186.469 342.8C186.469 352.4 176.239 360.3 163.808 360.3H34.7039C37.1643 348.4 40.6605 336.7 45.4518 325.3ZM569.766 464.7H93.2344C62.5447 464.7 36.9053 447.4 31.9846 424.7H631.145C626.095 447.4 600.455 464.7 569.766 464.7ZM31.0781 408.7V396.4C31.0781 389.6 31.4666 382.9 32.2436 376.3H163.808C187.764 376.3 207.188 361.3 207.188 342.8C207.188 324.3 187.764 309.3 163.808 309.3H52.9623C67.8539 280.9 90.1266 254.7 119.133 232.4C175.85 188.6 251.344 164.4 331.5 164.4C346.521 164.4 361.413 165.2 375.916 166.9C376.175 167 376.563 167 376.952 167C439.885 174.3 498.027 196.9 543.867 232.3C572.873 254.6 595.146 280.8 610.038 309.2H598.254C574.298 309.2 554.874 324.2 554.874 342.7C554.874 361.2 574.298 376.2 598.254 376.2H630.756C631.533 382.9 631.922 389.6 631.922 396.3V408.6H31.0781V408.7Z" fill="#555E6B"/>
</svg>
