<svg width="664" height="512" viewBox="0 0 664 512" fill="none" xmlns="http://www.w3.org/2000/svg">
<path d="M156.792 130.4H298.152V161.4C298.152 165.8 293.483 169.4 287.777 169.4H167.167C161.461 169.4 156.792 165.8 156.792 161.4V130.4ZM495.277 244.4H334.983C339.133 241.8 342.894 238.9 346.784 235.8C359.753 225.3 372.074 215.4 430.563 215.4H505.781V236.4C505.652 240.9 500.983 244.4 495.277 244.4ZM539.63 219.5H526.531V155.4H539.63C545.336 155.4 550.005 159 550.005 163.4V211.5C550.005 215.9 545.336 219.5 539.63 219.5Z" fill="#6247AA"/>
<path d="M155.496 378H118.794C113.088 378 108.419 381.6 108.419 386C108.419 390.4 113.088 394 118.794 394H155.496C161.202 394 165.871 390.4 165.871 386C165.871 381.6 161.202 378 155.496 378Z" fill="#555E6B"/>
<path d="M170.669 336H134.097C128.391 336 123.722 339.6 123.722 344C123.722 348.4 128.391 352 134.097 352H170.669C176.375 352 181.044 348.4 181.044 344C181.044 339.6 176.375 336 170.669 336Z" fill="#555E6B"/>
<path d="M185.713 294H149.271C143.564 294 138.896 297.6 138.896 302C138.896 306.4 143.564 310 149.271 310H185.713C191.419 310 196.088 306.4 196.088 302C196.088 297.6 191.419 294 185.713 294Z" fill="#555E6B"/>
<path d="M645.974 158.4H570.106C567.124 147.5 554.674 139.3 539.63 139.3H526.531V138.4C526.531 125.2 512.525 114.4 495.406 114.4H456.5V97.7996C456.5 81.6996 439.511 68.5996 418.631 68.5996H365.33C320.069 68.5996 276.753 83.3996 246.277 109.2L239.663 114.5H119.183C56.2844 114.5 5.05786 154 5.05786 202.5V236.5C5.05786 249.7 19.0641 260.5 36.1829 260.5H104.269L48.6329 413.9L48.5032 414.3C46.4282 421.4 48.7625 428.8 54.7282 434.5C60.6938 440.2 69.5125 443.5 78.9797 443.5H171.317C185.713 443.5 198.422 435.7 201.664 424.9L238.366 322.8H312.547C341.208 322.8 364.422 304.9 364.422 282.8V260.5H495.406C512.525 260.5 526.531 249.7 526.531 236.5V235.6H539.63C554.544 235.6 567.124 227.4 570.106 216.5H645.974C653.106 216.5 658.942 212 658.942 206.5V168.5C658.942 162.9 653.106 158.4 645.974 158.4ZM365.2 84.4996H418.502C427.969 84.4996 435.62 90.3996 435.62 97.6996V114.4H268.453C294.391 95.3996 329.147 84.4996 365.2 84.4996ZM156.792 130.4H298.152V161.4C298.152 165.8 293.483 169.4 287.777 169.4H167.167C161.461 169.4 156.792 165.8 156.792 161.4V130.4ZM25.8079 236.4V202.4C25.8079 162.7 67.6969 130.4 119.183 130.4H136.042V161.4C136.042 174.6 150.048 185.4 167.167 185.4H287.777C304.895 185.4 318.902 174.6 318.902 161.4V130.4H495.277C500.983 130.4 505.652 134 505.652 138.4V199.4H430.433C363.125 199.4 346.395 212.9 331.741 224.7C318.642 235.3 307.359 244.4 252.761 244.4H36.1829C30.4766 244.4 25.8079 240.9 25.8079 236.4ZM181.563 420.7L181.433 421.1C180.395 424.7 176.116 427.4 171.317 427.4H78.85C75.7375 427.4 72.7547 426.3 70.8094 424.4C68.8641 422.6 68.086 420.2 68.7344 417.9L125.797 260.4H239.144L181.563 420.7ZM343.542 282.7C343.542 295.9 329.536 306.7 312.417 306.7H244.072L260.672 260.4H272.603C274.808 268.1 279.995 279.9 291.538 285.3C293.223 286.1 295.169 286.5 296.984 286.5C300.486 286.5 303.858 285.1 305.803 282.7C308.786 278.9 307.23 274 302.431 271.7C298.93 270 295.947 265.3 294.131 260.4H343.672V282.7H343.542ZM495.277 244.4H334.983C339.133 241.8 342.894 238.9 346.784 235.8C359.753 225.3 372.073 215.4 430.563 215.4H505.781V236.4C505.652 240.9 500.983 244.4 495.277 244.4ZM539.63 219.5H526.531V155.4H539.63C545.336 155.4 550.005 159 550.005 163.4V211.5C550.005 215.9 545.336 219.5 539.63 219.5ZM638.192 200.4H570.755V174.4H638.192V200.4Z" fill="#555E6B"/>
</svg>
