<svg width="663" height="512" viewBox="0 0 663 512" fill="none" xmlns="http://www.w3.org/2000/svg">
<path d="M120.039 40.8998C118.356 42.3998 116.154 43.4998 113.565 43.7998L69.1488 48.9998V21.2998H140.628L120.039 40.8998ZM47.7826 271.9C47.7826 267.5 52.4443 263.9 58.1419 263.9H80.5441C75.2349 295.2 68.3718 327.2 63.1921 351.1C62.4152 354.8 61.6382 358.2 60.9908 361.4C52.4443 348 47.6531 333.3 47.6531 318.8V271.9H47.7826ZM393.397 484.2L381.743 289.3C466.69 280.8 523.666 260.5 534.544 256.5C539.205 254.7 542.054 251 541.795 247L540.759 230.5C540.371 225.1 534.673 221 527.422 221H135.708C128.456 221 122.759 225.1 122.37 230.5L121.334 247C121.075 251 123.924 254.7 128.586 256.5C139.334 260.6 196.44 280.8 281.386 289.3L269.732 484.2L249.143 473.6C250.697 456.5 253.028 393.3 208.353 329.9C188.67 301.9 152.412 286.8 117.449 272.3C112.14 270.1 106.702 267.8 101.263 265.5C103.853 250.4 105.925 235.4 107.349 221.6V194.8H555.651V221V221.6C557.075 235.6 559.277 250.7 561.867 266C561.219 266.3 560.442 266.6 559.795 266.9C520.947 284 484.171 300.1 456.201 334.4C411.008 386.7 413.339 454.3 415.022 473.1L393.397 484.2ZM615.217 318.8C615.217 333.3 610.556 348 601.88 361.4C601.232 358.2 600.455 354.7 599.678 351.1C594.499 327.3 587.636 295.2 582.326 263.9H604.728C610.426 263.9 615.088 267.5 615.088 271.9V318.8H615.217Z" fill="#6247AA"/>
<path d="M509.034 168.801C514.731 168.801 519.393 165.201 519.393 160.801V130.801C519.393 126.401 514.731 122.801 509.034 122.801C503.336 122.801 498.674 126.401 498.674 130.801V160.801C498.674 165.301 503.336 168.801 509.034 168.801Z" fill="#555E6B"/>
<path d="M472.776 168.801C478.474 168.801 483.135 165.201 483.135 160.801V130.801C483.135 126.401 478.474 122.801 472.776 122.801C467.078 122.801 462.417 126.401 462.417 130.801V160.801C462.417 165.301 467.078 168.801 472.776 168.801Z" fill="#555E6B"/>
<path d="M436.518 168.801C442.216 168.801 446.877 165.201 446.877 160.801V130.801C446.877 126.401 442.216 122.801 436.518 122.801C430.82 122.801 426.159 126.401 426.159 130.801V160.801C426.159 165.301 430.82 168.801 436.518 168.801Z" fill="#555E6B"/>
<path d="M604.858 247.9H579.866C578.441 238.5 577.276 229.3 576.37 220.6V186.7C576.37 143.4 552.673 106.5 507.739 80.2004C463.841 54.4004 402.85 40.7004 331.5 40.7004C260.15 40.7004 199.159 54.3004 155.261 80.2004C110.327 106.6 86.6301 143.4 86.6301 186.7V220.6C85.7237 229.3 84.5583 238.5 83.1338 247.9H69.1487V65.2004L116.672 59.6004C124.312 58.7004 131.175 55.6004 136.096 51.0004L168.728 20.0004C171.577 17.3004 172.095 13.6004 170.153 10.5004C168.21 7.40039 164.066 5.40039 159.664 5.40039H61.3792C55.1635 5.40039 49.8543 8.80039 48.6889 13.4004H48.4299V15.4004V67.7004V249.2C35.9987 252.4 27.0637 261.4 27.0637 272V318.9C27.0637 349 44.4157 379.8 73.5514 401.2C76.1413 403.3 78.9901 405.2 82.2274 406.8L268.178 502.6C273.358 505.2 279.315 506.6 285.401 506.6H377.599C383.815 506.6 389.771 505.2 394.822 502.6L580.772 406.8C584.01 405.2 586.859 403.3 589.448 401.2C618.584 379.8 635.936 349 635.936 318.9V272C635.936 258.7 621.951 247.9 604.858 247.9ZM120.039 40.9004C118.356 42.4004 116.154 43.5004 113.565 43.8004L69.1487 49.0004V21.3004H140.628L120.039 40.9004ZM167.822 92.9004C208.094 69.2004 264.682 56.7004 331.5 56.7004C398.318 56.7004 454.906 69.2004 495.178 92.9004C531.954 114.5 552.543 144 555.262 178.7H107.737C110.457 144 131.046 114.5 167.822 92.9004ZM47.7825 271.9C47.7825 267.5 52.4442 263.9 58.1419 263.9H80.544C75.2348 295.2 68.3717 327.2 63.192 351.1C62.4151 354.8 61.6381 358.2 60.9907 361.4C52.4442 348 47.653 333.3 47.653 318.8V271.9H47.7825ZM80.285 369.7C81.321 365 82.4864 359.6 83.6518 353.7C87.9251 333.9 93.3637 308.4 98.1549 282.4C101.263 283.7 104.371 285 107.478 286.3C141.276 300.4 173.26 313.7 189.965 337.5C225.575 388.1 229.201 439.7 228.683 463.1L93.7522 393.5C83.6518 388.3 78.3426 379 80.285 369.7ZM373.067 490.7H290.062L302.364 284.5C302.623 279.3 297.702 274.7 290.969 274.1C214.05 267.1 160.052 250 142.312 243.8L142.7 237.1H520.3L520.688 243.8C502.818 250.1 448.949 267.1 372.031 274.1C365.297 274.7 360.247 279.3 360.636 284.5L373.067 490.7ZM393.397 484.2L381.743 289.3C466.69 280.8 523.666 260.5 534.544 256.5C539.205 254.7 542.054 251 541.795 247L540.759 230.5C540.371 225.1 534.673 221 527.422 221H135.708C128.456 221 122.758 225.1 122.37 230.5L121.334 247C121.075 251 123.924 254.7 128.586 256.5C139.333 260.6 196.44 280.8 281.386 289.3L269.732 484.2L249.143 473.6C250.697 456.5 253.028 393.3 208.353 329.9C188.67 301.9 152.412 286.8 117.449 272.3C112.14 270.1 106.701 267.8 101.263 265.5C103.853 250.4 105.924 235.4 107.349 221.6V194.8H555.651V221V221.6C557.075 235.6 559.277 250.7 561.867 266C561.219 266.3 560.442 266.6 559.795 266.9C520.947 284 484.171 300.1 456.201 334.4C411.008 386.7 413.339 454.3 415.022 473.1L393.397 484.2ZM569.248 393.5L435.223 462.6C434.576 437.9 437.813 384.4 473.553 343.1L473.682 342.9C497.768 313.3 528.846 298.8 564.845 282.9C569.636 308.8 575.075 334 579.218 353.6C580.513 359.5 581.679 364.9 582.585 369.6C584.657 379 579.348 388.3 569.248 393.5ZM615.217 318.8C615.217 333.3 610.556 348 601.88 361.4C601.232 358.2 600.455 354.8 599.678 351.1C594.499 327.3 587.635 295.2 582.326 263.9H604.728C610.426 263.9 615.088 267.5 615.088 271.9V318.8H615.217Z" fill="#555E6B"/>
</svg>
