<svg width="664" height="512" viewBox="0 0 664 512" fill="none" xmlns="http://www.w3.org/2000/svg">
<g clip-path="url(#clip0)">
<path d="M548.448 340.5H491.775C490.867 331.8 490.219 323.2 489.83 314.5H550.264C550.005 323.1 549.356 331.8 548.448 340.5ZM322.662 171.9L328.369 105.7C328.369 105 328.758 104.4 329.406 103.9C330.833 102.8 333.167 102.8 334.594 103.9C335.242 104.4 335.631 105 335.631 105.7L341.337 171.9H322.662ZM172.355 340.5H115.552C114.644 331.8 113.995 323.2 113.606 314.5H174.041C173.911 323.1 173.262 331.8 172.355 340.5ZM373.37 410.8C373.37 415.2 368.702 418.8 362.995 418.8H300.875C295.169 418.8 290.5 415.2 290.5 410.8V266.7H373.37V410.8Z" fill="#6247AA"/>
<path d="M520.047 212.3C491.775 212.3 468.82 230 468.82 251.8V274.3H394.12V266.7C394.12 258.7 386.469 252 376.353 250.9V187.4C386.08 186.1 395.158 182.3 401.642 176.4C409.813 169.1 413.573 159.5 411.758 149.9L391.267 38.9C389.841 30.9 380.763 24.8 370.258 24.8H362.866V8C362.866 3.6 358.197 0 352.491 0C346.784 0 342.116 3.6 342.116 8V24.8H322.014V8C322.014 3.6 317.345 0 311.639 0C305.933 0 301.264 3.6 301.264 8V24.8H293.872C283.367 24.8 274.289 30.9 272.863 38.9L252.113 150C250.297 159.5 254.058 169.2 262.228 176.5C268.842 182.4 277.791 186.2 287.517 187.5V251C277.531 252.1 269.75 258.8 269.75 266.8V274.4H195.05V251.9C195.05 230.1 172.095 212.4 143.823 212.4C115.552 212.4 92.5969 230.1 92.5969 251.9V293.9V301.5V495.7C92.5969 504.7 102.194 512.1 113.866 512.1H173.781C185.453 512.1 195.05 504.7 195.05 495.7V338.7H269.75V410.9C269.75 424.1 283.756 434.9 300.875 434.9H362.995C380.114 434.9 394.12 424.1 394.12 410.9V338.7H468.82V495.7C468.82 504.7 478.417 512.1 490.089 512.1H550.005C561.677 512.1 571.273 504.7 571.273 495.7V301.4V293.8V251.8C571.273 230 548.319 212.3 520.047 212.3ZM548.448 340.5H491.775C490.867 331.8 490.219 323.2 489.83 314.5H550.264C550.005 323.1 549.356 331.8 548.448 340.5ZM546.244 356.5C542.483 380.9 536.128 405 527.439 428.7C526.531 431.2 523.419 433 520.047 433C516.675 433 513.563 431.2 512.655 428.7C503.836 405 497.611 380.9 493.85 356.5H546.244ZM355.733 187.9V250.7H308.397V187.9H355.733V187.9ZM322.663 171.9L328.369 105.7C328.369 105 328.758 104.4 329.406 103.9C330.314 103.2 331.352 103.1 332 103.1C332.519 103.1 333.686 103.2 334.594 103.9C335.242 104.4 335.631 105 335.631 105.7L341.338 171.9H322.663ZM277.92 166C273.641 162.2 271.825 157.2 272.733 152.3L293.353 41.2C293.353 41 293.613 40.9 293.872 40.9H370.388C370.647 40.9 370.906 41 370.906 41.2L391.527 152.3C392.434 157.2 390.489 162.2 386.339 166C382.059 169.8 375.964 171.9 369.48 171.9H362.347L356.511 104.6C356.122 100.1 353.658 95.8 349.378 92.6C344.709 89 338.614 87.1 332.13 87.1C325.645 87.1 319.55 89.1 314.881 92.6C310.731 95.8 308.138 100.1 307.748 104.6L301.913 171.9H294.78C288.295 171.9 282.2 169.7 277.92 166ZM172.355 340.5H115.552C114.644 331.8 113.995 323.2 113.606 314.5H174.041C173.911 323.1 173.263 331.8 172.355 340.5ZM170.15 356.5C166.389 380.9 160.034 405 151.345 428.7C150.438 431.2 147.325 433 143.953 433C140.581 433 137.469 431.2 136.561 428.7C127.742 405 121.517 380.9 117.756 356.5H170.15ZM113.477 251.8C113.477 238.8 127.223 228.3 143.953 228.3C160.813 228.3 174.43 238.9 174.43 251.8V293.8V298.4H113.477V293.8V251.8ZM173.911 496H113.995C113.736 496 113.477 495.8 113.477 495.6V424.2C114.514 427.2 115.552 430.1 116.589 433.1C120.091 442.5 131.244 449 143.953 449C156.533 449 167.816 442.5 171.317 433.1C172.355 430.2 173.522 427.2 174.43 424.2V495.6C174.43 495.8 174.17 496 173.911 496ZM195.18 322.6V301.4V293.8V290.2H269.88V322.5H195.18V322.6ZM373.37 410.8C373.37 415.2 368.702 418.8 362.995 418.8H300.875C295.169 418.8 290.5 415.2 290.5 410.8V266.7H373.37V410.8ZM394.12 322.6V290.3H468.82V293.9V301.5V322.7H394.12V322.6ZM550.523 495.6C550.523 495.8 550.264 496 550.005 496H490.089C489.83 496 489.57 495.8 489.57 495.6V424.2C490.608 427.2 491.645 430.1 492.683 433.1C496.184 442.5 507.338 449 520.047 449C532.627 449 543.909 442.5 547.411 433.1C548.449 430.2 549.616 427.2 550.523 424.2V495.6V495.6ZM550.523 298.4H489.57V293.8V251.8C489.57 238.8 503.317 228.3 520.047 228.3C536.777 228.3 550.523 238.9 550.523 251.8V293.8V298.4Z" fill="#555E6B"/>
</g>
<defs>
<clipPath id="clip0">
<rect width="664" height="512" fill="white"/>
</clipPath>
</defs>
</svg>
