<svg width="663" height="512" viewBox="0 0 663 512" fill="none" xmlns="http://www.w3.org/2000/svg">
<path d="M387.7 288C387.7 274.1 402.333 262.8 420.332 262.8C438.332 262.8 452.964 274.1 452.964 288C452.964 301.9 438.332 313.2 420.332 313.2C402.333 313.2 387.7 301.9 387.7 288Z" fill="#C9CBCF"/>
<path d="M242.669 262.8C260.668 262.8 275.301 274.1 275.301 288C275.301 301.9 260.668 313.2 242.669 313.2C224.669 313.2 210.037 301.9 210.037 288C210.037 274.1 224.669 262.8 242.669 262.8Z" fill="#C9CBCF"/>
<path d="M112.788 462.6C112.788 465.9 109.292 468.6 105.018 468.6H95.436C91.1628 468.6 87.6665 465.9 87.6665 462.6V427.5C87.6665 424.2 91.1628 421.5 95.436 421.5H105.018C109.292 421.5 112.788 424.2 112.788 427.5V462.6ZM331.5 437.1H294.595V423.5C294.595 419.1 299.257 415.5 304.954 415.5H358.176C363.873 415.5 368.535 419.1 368.535 423.5V437.1H331.5ZM575.464 462.6C575.464 465.9 571.967 468.6 567.694 468.6H558.112C553.838 468.6 550.342 465.9 550.342 462.6V427.5C550.342 424.2 553.838 421.5 558.112 421.5H567.694C571.967 421.5 575.464 424.2 575.464 427.5V462.6Z" fill="#6247AA"/>
<path d="M473.812 288C473.812 265.3 449.856 246.8 420.461 246.8C391.066 246.8 367.11 265.3 367.11 288C367.11 310.7 391.066 329.2 420.461 329.2C449.856 329.2 473.812 310.8 473.812 288ZM387.7 288C387.7 274.1 402.332 262.8 420.332 262.8C438.331 262.8 452.964 274.1 452.964 288C452.964 301.9 438.331 313.2 420.332 313.2C402.332 313.2 387.7 301.9 387.7 288Z" fill="#555E6B"/>
<path d="M420.332 298C427.484 298 433.281 293.523 433.281 288C433.281 282.477 427.484 278 420.332 278C413.18 278 407.383 282.477 407.383 288C407.383 293.523 413.18 298 420.332 298Z" fill="#555E6B"/>
<path d="M242.669 329.2C272.063 329.2 296.019 310.7 296.019 288C296.019 265.3 272.063 246.8 242.669 246.8C213.274 246.8 189.318 265.3 189.318 288C189.318 310.7 213.144 329.2 242.669 329.2ZM242.669 262.8C260.668 262.8 275.301 274.1 275.301 288C275.301 301.9 260.668 313.2 242.669 313.2C224.669 313.2 210.037 301.9 210.037 288C210.037 274.1 224.669 262.8 242.669 262.8Z" fill="#555E6B"/>
<path d="M242.668 298C249.82 298 255.618 293.523 255.618 288C255.618 282.477 249.82 278 242.668 278C235.517 278 229.719 282.477 229.719 288C229.719 293.523 235.517 298 242.668 298Z" fill="#555E6B"/>
<path d="M302.365 389.899C304.695 389.899 307.156 389.299 309.098 387.999L331.63 373.299L354.161 387.999C358.564 390.799 365.039 390.399 368.794 386.999C372.42 383.599 371.902 378.599 367.499 375.699L342.119 359.199C336.162 355.199 327.098 355.199 321.141 359.199L295.76 375.699C291.358 378.499 290.84 383.599 294.466 386.999C296.408 388.999 299.386 389.899 302.365 389.899Z" fill="#555E6B"/>
<path d="M617.937 275L602.786 263.8C600.326 262 599.031 259.5 598.902 256.9C598.513 227.2 595.664 202.9 590.096 180.4C581.42 145.6 565.752 116.1 543.349 92.7996C518.875 67.1996 486.114 47.5996 445.971 34.6996C432.763 30.3996 418.907 26.9996 405.052 24.2996C394.822 22.3996 384.851 19.7996 375.527 16.6996C368.664 14.4996 361.801 11.0996 354.161 6.29961C347.687 2.29961 339.658 0.0996094 331.371 0.0996094C323.083 0.0996094 315.055 2.29961 308.58 6.29961C301.069 10.9996 294.077 14.3996 287.214 16.6996C277.761 19.7996 267.919 22.3996 257.69 24.2996C243.704 26.8996 229.978 30.3996 216.77 34.6996C176.886 47.4996 144.125 66.9996 119.651 92.6996C97.2488 116 81.5802 145.5 72.9043 180.3C67.3361 202.8 64.4873 227.2 64.0988 256.8C64.0988 259.4 62.6744 261.9 60.214 263.7L45.0634 275C36.7759 281.1 33.2796 289.9 35.481 298.6L50.5021 355.9C52.7035 364.1 59.955 371.1 69.9259 374.4L81.8392 378.4C85.3355 379.6 87.9253 381.8 88.9613 384.6C90.7742 389.3 90.3857 399 90.1267 405.8C76.9185 407.7 66.9476 416.7 66.9476 427.4V462.5C66.9476 474.6 79.7673 484.5 95.4359 484.5H105.018C120.687 484.5 133.507 474.6 133.507 462.5V452.9H170.023C173.908 459.7 177.145 465.2 179.735 469.1C182.843 474.2 188.282 478.4 194.756 480.9C266.625 509 314.278 512 331.5 512C348.723 512 396.376 509 468.373 481.2C474.978 478.7 480.287 474.5 483.394 469.4C485.855 465.4 489.222 459.9 493.106 453.2H529.623V462.8C529.623 474.9 542.443 484.8 558.111 484.8H567.694C583.362 484.8 596.182 474.9 596.182 462.8V427.7C596.182 417 586.211 408 573.003 406.1C572.744 399.3 572.356 389.5 574.169 384.9C575.204 382.1 577.794 379.8 581.291 378.7L593.204 374.7C603.175 371.4 610.426 364.4 612.628 356.2L627.519 298.8C629.721 289.9 626.095 281.1 617.937 275ZM112.788 462.6C112.788 465.9 109.292 468.6 105.018 468.6H95.4359C91.1627 468.6 87.6664 465.9 87.6664 462.6V427.5C87.6664 424.2 91.1627 421.5 95.4359 421.5H105.018C109.292 421.5 112.788 424.2 112.788 427.5V462.6ZM464.748 462.4C463.582 464.4 461.51 465.9 459.05 466.9C441.439 473.7 380.06 496 331.5 496C282.941 496 221.561 473.7 203.95 466.9C201.49 465.9 199.548 464.4 198.253 462.4C196.31 459.3 194.368 456.2 192.555 453.1H273.747H389.124H470.316C468.503 456.1 466.69 459.2 464.748 462.4ZM331.5 251.1C314.278 226.4 280.351 210 242.539 210C201.749 210 168.081 229.2 154.743 259.4H130.658C131.046 218.2 136.485 161.5 173.261 123.1C218.194 75.9996 291.746 68.9996 331.63 68.9996C424.346 68.9996 470.704 102.9 489.999 123.1C507.998 141.9 531.695 176.3 532.602 259.4H508.516C495.178 229.2 461.51 210 420.72 210C382.65 210.1 348.723 226.4 331.5 251.1ZM170.412 275.5L172.484 269.5C181.419 242.7 208.353 226.1 242.539 226.1C280.48 226.1 313.371 246.8 321.141 275.3V300.7C315.314 321.4 295.113 337.3 266.625 343.2C261.056 344.4 257.819 348.7 259.373 353C260.668 356.6 264.812 358.9 269.344 358.9C270.25 358.9 271.157 358.8 272.063 358.6C298.35 353.1 319.198 340.8 331.5 324.1C343.802 340.7 364.65 353.1 390.937 358.6C391.844 358.8 392.75 358.9 393.656 358.9C398.189 358.9 402.462 356.6 403.627 353C405.181 348.7 401.814 344.3 396.376 343.2C368.017 337.3 347.687 321.4 341.86 300.7V275.3C349.629 246.7 382.52 226.1 420.461 226.1C454.647 226.1 481.452 242.7 490.517 269.5L492.588 275.5H532.084C530.4 302.9 521.336 361.6 479.639 437.1H389.254V423.5C389.254 410.3 375.269 399.5 358.176 399.5H304.954C287.861 399.5 273.876 410.3 273.876 423.5V437.1H183.491C141.794 361.6 132.73 302.9 131.046 275.5H170.412ZM331.5 437.1H294.595V423.5C294.595 419.1 299.257 415.5 304.954 415.5H358.176C363.873 415.5 368.535 419.1 368.535 423.5V437.1H331.5ZM575.463 462.6C575.463 465.9 571.967 468.6 567.694 468.6H558.111C553.838 468.6 550.342 465.9 550.342 462.6V427.5C550.342 424.2 553.838 421.5 558.111 421.5H567.694C571.967 421.5 575.463 424.2 575.463 427.5V462.6ZM607.189 295.4L592.297 352.8C591.52 355.9 588.801 358.5 584.916 359.8L573.003 363.8C563.939 366.9 557.076 372.9 554.227 380.3C551.637 387.2 551.896 397.5 552.284 406.1C539.335 408.2 529.623 417 529.623 427.6V437.2H501.912C523.408 396.6 552.155 330.7 553.191 267.7V267.6C553.191 267.6 553.191 267.6 553.191 267.5C553.191 266.5 553.191 265.4 553.191 264.4C553.191 233.7 550.601 209.1 545.162 187.1C537.652 157.1 525.091 133.2 506.574 113.8C487.02 93.3996 460.863 77.7996 428.49 67.3996C399.743 58.1996 366.334 53.2996 331.63 53.2996C296.926 53.2996 263.387 58.1996 234.769 67.3996C202.526 77.7996 176.239 93.3996 156.686 113.8C138.039 133 125.349 157 117.968 187C112.529 209 109.939 233.6 109.939 264.3C109.939 265.3 109.939 266.4 109.939 267.4C109.939 267.4 109.939 267.4 109.939 267.5V267.6C110.975 330.6 139.722 396.5 161.218 437.1H133.507V427.5C133.507 416.9 123.795 408 110.845 406C111.234 397.4 111.493 387.2 108.903 380.2C106.054 372.8 99.3207 366.8 90.1267 363.7L78.2134 359.7C74.4582 358.4 71.7388 355.8 70.8324 352.7L55.9408 295.3C55.0343 292 56.4587 288.7 59.5666 286.4L74.7171 275.2C81.0623 270.4 84.8175 263.8 84.947 256.9C85.3355 228.2 88.0548 204.8 93.364 183.2C101.393 150.8 115.896 123.5 136.355 102.1C158.628 78.7996 188.411 61.0996 224.928 49.2996C237.1 45.3996 249.92 42.0996 262.74 39.6996C274.006 37.5996 285.142 34.6996 295.501 31.2996C304.048 28.4996 312.724 24.2996 321.788 18.5996C324.508 16.8996 327.874 15.8996 331.5 15.8996C335.126 15.8996 338.493 16.7996 341.212 18.5996C350.277 24.2996 358.823 28.3996 367.499 31.2996C377.988 34.7996 388.995 37.5996 400.261 39.6996C413.08 42.0996 425.9 45.2996 438.072 49.2996C474.589 61.0996 504.502 78.8996 526.645 102.1C547.105 123.5 561.608 150.8 569.636 183.2C575.075 204.8 577.665 228.2 578.053 256.9C578.183 263.8 581.809 270.4 588.283 275.2L603.434 286.4C606.671 288.8 607.966 292.1 607.189 295.4Z" fill="#555E6B"/>
</svg>
