<svg width="664" height="512" viewBox="0 0 664 512" fill="none" xmlns="http://www.w3.org/2000/svg">
<path d="M473.619 278.8C466.616 265.8 458.834 251.2 427.969 251.2C426.931 251.2 425.764 251.2 424.597 251.3C400.864 252.1 386.728 254.8 379.855 260C374.149 264.3 373.76 269.7 373.76 278.2V278.5C373.76 289.8 375.705 295.4 381.022 299.2C386.599 303.3 396.974 305.2 413.314 305.2C416.686 305.2 420.577 305.1 424.597 304.9C447.033 304 468.691 302 474.916 294.5C475.824 293.1 479.066 289.1 473.619 278.8Z" fill="#6247AA"/>
<path d="M250.816 305.1C267.286 305.1 277.531 303.2 283.108 299.1C288.295 295.3 290.37 289.7 290.37 278.4V278.1C290.37 269.6 289.981 264.2 284.275 259.9C277.402 254.8 263.136 252 239.533 251.2C238.366 251.2 237.199 251.1 236.161 251.1C205.295 251.1 197.514 265.8 190.511 278.7C184.934 289 188.306 293.1 189.344 294.4C195.569 302 217.227 303.9 239.663 304.8C243.683 305 247.444 305.1 250.816 305.1Z" fill="#6247AA"/>
<path d="M349.767 395H332H314.233C308.916 395 299.448 394 292.316 388.2L208.148 448.5C214.373 450 220.339 452.6 225.267 456.4C238.884 466.9 240.959 482.8 231.881 495H332H432.248C423.041 482.8 425.245 466.8 438.862 456.4C443.791 452.6 449.756 449.9 455.981 448.5L371.814 388.2C364.552 394 355.214 395 349.767 395Z" fill="#6247AA"/>
<path d="M352.491 33C352.491 29.7 351.064 26.4 348.341 23.7L347.303 22.7C343.542 19.1 337.966 17 332 17C326.035 17 320.458 19.1 316.697 22.7L315.66 23.7C312.936 26.3 311.51 29.6 311.51 33V216.1H352.361V33H352.491Z" fill="#6247AA"/>
<path d="M427.839 235.1C426.412 235.1 425.116 235.1 423.559 235.2C393.731 236.2 376.223 240.1 365.2 248.4C352.75 257.7 352.75 269.5 352.75 278.1V278.4C352.75 290 354.436 302 366.367 310.7C376.223 317.9 390.619 321.1 412.925 321.1C416.686 321.1 420.836 321 425.245 320.8C458.575 319.4 481.4 315.9 492.034 302.9C498.778 294.7 498.908 284.5 492.423 272.6C485.68 259.4 472.581 235.1 427.839 235.1ZM474.786 294.4C468.561 302 446.903 303.9 424.467 304.8C420.447 305 416.686 305.1 413.184 305.1C396.714 305.1 386.469 303.2 380.892 299.1C375.705 295.3 373.63 289.7 373.63 278.4V278C373.63 269.5 374.019 264.1 379.725 259.8C386.598 254.7 400.864 251.9 424.467 251.1C425.634 251.1 426.802 251 427.839 251C458.705 251 466.486 265.7 473.489 278.6C479.066 289.1 475.823 293.1 474.786 294.4Z" fill="#555E6B"/>
<path d="M383.875 430.5C378.169 430.5 373.5 434.1 373.5 438.5V472.5C373.5 476.9 378.169 480.5 383.875 480.5C389.581 480.5 394.25 476.9 394.25 472.5V438.5C394.25 434.1 389.581 430.5 383.875 430.5Z" fill="#555E6B"/>
<path d="M332 410.5C326.294 410.5 321.625 414.1 321.625 418.5V472.5C321.625 476.9 326.294 480.5 332 480.5C337.706 480.5 342.375 476.9 342.375 472.5V418.5C342.375 414.1 337.706 410.5 332 410.5Z" fill="#555E6B"/>
<path d="M240.311 235.2C192.067 233.6 178.58 259 171.187 272.7C164.833 284.6 164.962 294.8 171.576 303C182.211 316 205.036 319.5 238.366 320.9C242.775 321.1 246.925 321.2 250.686 321.2C273.122 321.2 287.387 318 297.244 310.8C309.305 302 310.861 290.1 310.861 278.5V278.2C310.861 269.6 310.861 257.8 298.411 248.5C287.647 240.1 270.269 236.2 240.311 235.2ZM290.37 278.4C290.37 289.7 288.425 295.3 283.108 299.1C277.531 303.2 267.156 305.1 250.816 305.1C247.444 305.1 243.553 305 239.533 304.8C217.097 303.9 195.439 301.9 189.214 294.4C188.176 293.1 184.805 289.1 190.381 278.7C197.384 265.7 205.166 251.1 236.031 251.1C237.069 251.1 238.236 251.1 239.403 251.2C263.136 252 277.272 254.7 284.145 259.9C289.851 264.2 290.241 269.6 290.241 278.1V278.4H290.37Z" fill="#555E6B"/>
<path d="M280.125 430.5C274.419 430.5 269.75 434.1 269.75 438.5V472.5C269.75 476.9 274.419 480.5 280.125 480.5C285.831 480.5 290.5 476.9 290.5 472.5V438.5C290.5 434.1 285.831 430.5 280.125 430.5Z" fill="#555E6B"/>
<path d="M642.99 423.2C639.878 415.5 622.889 373.2 604.214 330.4C600.323 316 570.625 207 552.08 187.3C551.82 187.1 551.691 186.9 551.431 186.7C551.042 160.6 545.595 103.5 508.375 66.2C467.264 25.1 400.734 18 367.534 17.1C366.626 16 365.719 14.9 364.681 13.8L363.644 12.8C355.992 5.3 344.45 1 332 1C319.55 1 308.137 5.3 300.356 12.8L299.319 13.8C298.281 14.8 297.244 16 296.466 17.1C278.05 17.5 253.02 19.8 227.212 27C197.255 35.4 173.262 48.6 155.625 66.1C118.405 103.4 112.958 160.5 112.569 186.6C112.309 186.8 112.18 187 111.92 187.2C93.3749 207 63.6765 316 59.7858 330.4C41.1108 373.2 24.1218 415.5 21.0093 423.2C19.3233 427.5 21.528 432.1 26.3265 434.5L162.887 502.7L163.017 502.8C174.041 508.2 186.88 511 199.978 511H463.892C476.991 511 489.7 508.2 500.853 502.8L637.544 434.5C642.472 432.1 644.676 427.4 642.99 423.2ZM453.517 490.3C445.476 484.1 445.476 473.9 453.517 467.7C461.558 461.5 474.397 461.5 482.567 467.5L482.956 467.8C486.847 470.8 488.922 474.8 488.922 479.1C488.922 483.4 486.717 487.4 482.826 490.4C480.751 492 478.417 493.1 475.823 493.9C472.711 494.5 469.598 494.9 466.486 495C461.558 494.6 457.019 493 453.517 490.3ZM495.147 454.7L380.503 372.6C381.022 370.1 381.281 367.4 381.281 364.3C381.281 339.3 361.05 321.9 332.13 321.9H332H331.74C302.82 321.9 282.589 339.3 282.589 364.3C282.589 367.3 282.848 370.1 283.367 372.6L168.723 454.7C162.887 434.3 153.161 404.5 139.414 378.8C121.517 345.2 101.416 320.6 91.1702 309C100.897 287.6 110.234 268 117.626 255.2C126.834 239.1 139.544 217 195.05 217C221.376 217 242.905 221.5 261.839 225.5C278.18 228.9 293.612 232.1 309.823 232.1H354.176C370.387 232.1 385.82 228.9 402.161 225.5C421.095 221.5 442.623 217 468.95 217C524.456 217 537.165 239.1 546.373 255.2C553.765 268 563.103 287.5 572.83 309C562.584 320.6 542.483 345.2 524.586 378.8C510.839 404.6 500.983 434.3 495.147 454.7ZM360.531 364.4C360.531 379 353.528 379 349.767 379H332H314.233C310.472 379 303.469 379 303.469 364.4C303.469 352.2 310.861 338 331.87 338H332.13H332.389C353.139 338 360.531 352.2 360.531 364.4ZM210.483 467.7C218.523 473.9 218.523 484.1 210.483 490.3C206.981 493 202.442 494.6 197.514 494.9C194.272 494.8 191.159 494.4 188.176 493.8C185.583 493 183.248 491.8 181.173 490.3C173.133 484.1 173.133 474 181.173 467.7L181.562 467.4C189.603 461.5 202.572 461.5 210.483 467.7ZM290.759 167V214.5C283.367 213.4 275.586 211.8 267.286 210C247.055 205.8 224.23 201 195.05 201C149.789 201 126.575 214.3 113.217 228.2C119.183 212.8 124.63 201 128.65 196.7C156.533 167.3 221.506 167 290.759 167ZM373.24 167C442.494 167 507.467 167.3 535.22 196.7C539.37 201 544.817 212.8 550.653 228.2C537.295 214.3 514.081 201 468.82 201C439.641 201 416.815 205.8 396.584 210C388.284 211.7 380.503 213.4 373.111 214.5V167H373.24ZM491.905 76C519.269 103.4 527.569 143.8 529.903 171C492.164 151.4 434.194 151.1 373.24 151.1V33.3C404.495 34.8 458.445 42.5 491.905 76ZM315.659 23.7L316.697 22.7C320.458 19.1 326.034 17 332 17C337.965 17 343.542 19.1 347.303 22.7L348.341 23.7C351.064 26.3 352.49 29.6 352.49 33V216.1H311.639V33C311.509 29.6 313.065 26.3 315.659 23.7ZM172.095 76C205.555 42.5 259.505 34.9 290.759 33.4V151C229.806 151 171.836 151.3 134.097 170.9C136.561 143.8 144.731 103.3 172.095 76ZM82.6108 328.2C92.7265 340.8 107.251 360.4 120.22 384.9C139.673 421.4 151.216 467.9 153.939 479.2L42.5374 423.6C48.503 409 65.2327 367.9 82.6108 328.2ZM231.751 495C240.959 482.8 238.755 466.8 225.137 456.4C220.209 452.6 214.244 449.9 208.019 448.5L292.186 388.2C299.319 394.1 308.786 395 314.103 395H332H349.767C355.084 395 364.551 394 371.684 388.2L455.851 448.5C449.626 450 443.661 452.6 438.733 456.4C425.115 466.9 423.041 482.8 432.119 495H332H231.751ZM510.061 479.2C512.655 467.9 524.326 421.4 543.78 384.9C556.748 360.5 571.273 340.8 581.389 328.2C598.767 367.8 615.626 409 621.462 423.6L510.061 479.2Z" fill="#555E6B"/>
</svg>
