<svg width="663" height="512" viewBox="0 0 663 512" fill="none" xmlns="http://www.w3.org/2000/svg">
<path d="M484.689 102.7C498.415 121.5 501.005 140.8 491.941 157.2C485.078 169.7 471.869 179.4 454.129 185.3L427.713 154.3C434.964 150.7 440.403 145.7 443.77 139.7C449.079 130 447.913 118.4 440.403 107.8L477.179 93.7004C480.027 96.6004 482.488 99.6004 484.689 102.7ZM361.931 48.4004C398.318 48.4004 436.518 60.9004 463.323 81.2004L427.454 95.0004C410.62 82.8004 386.146 76.7004 364.391 80.2004L338.752 50.2004C346.262 49.0004 354.032 48.4004 361.931 48.4004ZM289.674 137.3C275.948 118.5 273.358 99.2004 282.422 82.8004C289.027 70.7004 301.587 61.3004 318.421 55.4004L345.097 86.6004C338.752 90.1004 333.701 94.8004 330.723 100.3C325.543 109.7 326.579 120.9 333.442 131.2L296.537 145.4C293.947 142.7 291.616 140.1 289.674 137.3ZM310.004 157.9L345.744 144.2C359.47 154.6 378.765 160.8 397.411 160.8C400.908 160.8 404.275 160.6 407.641 160.1L433.281 190.1C390.937 196.1 341.989 182.8 310.004 157.9Z" fill="#6247AA"/>
<path d="M347.298 196.5C368.794 203.8 391.066 207.5 412.562 207.5C423.957 207.5 435.094 206.4 445.842 204.3C476.79 198.1 499.969 183.6 511.106 163.4C522.76 142.3 519.782 117.9 502.818 94.6998C486.761 72.6998 459.827 54.4998 427.195 43.3998C394.304 32.1998 359.341 29.3998 328.651 35.4998C297.702 41.6998 274.523 56.1998 263.387 76.3998C251.733 97.4998 254.711 121.9 271.675 145.1C287.602 167.1 314.536 185.4 347.298 196.5ZM310.004 157.9L345.744 144.2C359.47 154.6 378.765 160.8 397.411 160.8C400.908 160.8 404.275 160.6 407.641 160.1L433.281 190.1C390.937 196.1 341.989 182.8 310.004 157.9ZM349.629 106.5C352.348 101.5 358.434 97.7998 366.722 96.1998C369.959 95.5998 373.196 95.2998 376.693 95.2998C394.174 95.2998 413.468 103.3 422.144 115.2C426.806 121.6 427.842 128.1 424.864 133.5C422.144 138.5 416.058 142.2 407.771 143.8C388.217 147.7 362.837 139 352.348 124.8C347.686 118.4 346.651 111.9 349.629 106.5ZM492.07 157.2C485.207 169.7 471.999 179.4 454.258 185.3L427.842 154.3C435.094 150.7 440.532 145.7 443.899 139.7C449.208 130 448.043 118.4 440.532 107.8L477.308 93.6998C480.027 96.5998 482.488 99.5998 484.819 102.7C498.415 121.5 501.005 140.8 492.07 157.2ZM463.323 81.2998L427.454 94.9998C410.62 82.7998 386.146 76.6998 364.391 80.1998L338.751 50.1998C346.262 48.9998 354.032 48.3998 361.931 48.3998C398.318 48.3998 436.518 60.8998 463.323 81.2998ZM282.422 82.7998C289.027 70.6998 301.587 61.2998 318.421 55.3998L345.097 86.5998C338.751 90.0998 333.701 94.7998 330.723 100.3C325.543 109.7 326.579 120.9 333.442 131.2L296.537 145.4C294.206 142.8 291.875 140.1 289.933 137.4C275.948 118.5 273.358 99.1998 282.422 82.7998Z" fill="#555E6B"/>
<path d="M564.974 75.7C502.559 27.5 419.684 1 331.5 1C243.316 1 160.441 27.5 98.0256 75.7C38.4592 121.7 4.40273 182.3 1.55391 247C1.55391 247.3 1.55391 247.6 1.55391 248C1.42441 250.6 1.29492 253.3 1.29492 256C1.29492 324.1 35.6103 388.1 98.0256 436.3C99.968 437.8 102.04 439.4 104.112 440.9C104.112 440.9 104.112 440.9 104.241 441C165.879 486.2 246.294 511 331.5 511C419.684 511 502.559 484.5 564.974 436.3C627.39 388.1 661.705 324.1 661.705 256C661.705 187.9 627.39 123.9 564.974 75.7ZM112.658 87C171.059 41.9 248.884 17 331.5 17C414.116 17 491.941 41.9 550.342 87C577.276 107.8 598.642 131.8 613.793 157.8C595.923 168.7 536.616 201.9 439.885 231.8C251.733 289.8 82.098 312.2 32.373 317.8C29.6537 310 27.4523 302.1 25.8984 294C44.5453 291.9 70.3143 288.8 99.8385 284.6C171.318 274.4 243.186 259.2 292.393 244C297.703 242.4 300.292 237.7 298.221 233.6C296.149 229.5 290.062 227.5 284.753 229.1C236.841 243.9 166.397 258.8 96.2127 268.8C67.077 272.9 41.826 276 23.4381 278C22.5316 270.7 22.1432 263.3 22.1432 255.8C22.1432 255.4 22.1432 255 22.1432 254.5C32.373 253.4 50.1135 251.4 75.235 248.1C114.86 242.9 171.059 234.2 213.921 222.4C219.36 220.9 222.079 216.3 220.137 212.2C218.194 208.1 212.238 205.9 206.929 207.4C165.491 218.8 110.586 227.3 71.7387 232.4C49.5955 235.3 33.409 237.2 22.9201 238.3C23.6971 230.2 24.992 222.1 26.8049 214.1C33.409 213.4 42.8619 212.4 55.5522 210.8C80.2852 207.8 117.579 202.3 147.621 195.8C153.189 194.6 156.297 190.2 154.743 185.9C153.189 181.6 147.492 179.2 141.923 180.4C112.658 187 76.4004 192.3 52.3148 195.3C43.8979 196.3 36.9053 197.1 31.3371 197.7C34.0564 189.2 37.4232 180.8 41.4375 172.6C62.6742 170.1 90.6445 166.4 113.435 162.1C119.003 161 122.37 156.7 121.075 152.4C119.651 148.1 114.083 145.5 108.514 146.5C90.6445 149.9 69.4078 152.9 50.8904 155.2C65.782 130.2 86.6303 107.1 112.658 87ZM550.342 425C491.941 470.1 414.116 495 331.5 495C282.034 495 234.51 486.1 191.648 469.3C215.087 465 235.158 460.6 251.733 456.1C257.171 454.6 260.02 450.1 258.078 445.9C256.136 441.7 250.308 439.5 244.87 441C224.151 446.6 197.346 452.2 164.973 457.5C154.096 452.1 143.607 446.2 133.506 439.7C167.433 433.9 200.324 426.9 226.093 419.9C231.532 418.4 234.381 413.9 232.438 409.7C230.496 405.5 224.669 403.3 219.23 404.8C190.483 412.6 152.542 420.4 114.471 426.4C113.824 425.9 113.176 425.4 112.529 424.9C104.759 418.9 97.3781 412.5 90.515 406C131.176 400.1 185.044 390.5 230.237 378.9C235.676 377.5 238.654 373 236.841 368.8C235.028 364.6 229.201 362.3 223.763 363.7C175.721 376 117.579 386 76.6594 391.7C70.3143 384.7 64.6166 377.4 59.3074 370C103.076 364.2 199.677 350 271.157 329.3C276.466 327.7 279.185 323.1 277.243 319C275.171 314.9 269.214 312.8 263.905 314.3C190.483 335.5 89.0906 349.9 49.5955 355C45.4518 347.9 41.6965 340.6 38.3297 333.2C92.3279 326.9 261.056 304 447.525 246.5C540.241 217.9 598.772 186.7 621.822 173.1C634.512 199.4 640.986 227.3 640.986 256C640.986 319.8 608.743 379.9 550.342 425Z" fill="#555E6B"/>
</svg>
