<svg width="664" height="512" viewBox="0 0 664 512" fill="none" xmlns="http://www.w3.org/2000/svg">
<path d="M512.266 291.8C496.444 300.8 468.95 302.6 444.18 295.8C442.883 295.1 441.456 294.7 439.9 294.5C429.395 291.2 419.539 286.2 411.498 279.6C408.256 276.9 405.533 274.1 402.55 271.1C390.359 258.8 376.613 244.8 332 244.8C287.388 244.8 273.641 258.8 261.45 271.1C258.467 274.1 255.744 276.9 252.502 279.6C224.489 302.7 175.338 305.2 151.734 291.8C119.961 273.8 105.047 253.5 102.064 222.8H332H424.597H424.727H424.856H476.602H561.936C558.953 253.5 544.169 273.9 512.266 291.8Z" fill="#6247AA"/>
<path d="M478.158 460.8C471.025 460.8 465.189 456.3 465.189 450.8C465.189 445.3 471.025 440.8 478.158 440.8C485.291 440.8 491.127 445.3 491.127 450.8C491.127 456.3 485.42 460.8 478.158 460.8Z" fill="#6247AA"/>
<path d="M632.356 338.4C612.644 313.2 604.862 263 604.084 258V175.8C604.084 129.7 580.87 85.9002 538.722 52.5002C496.314 18.8002 440.159 0.200195 380.762 0.200195H283.367C223.97 0.200195 167.816 18.8002 125.278 52.5002C82.9999 85.9002 59.7859 129.7 59.7859 175.8V258C59.0078 263 51.2265 313.1 31.514 338.4C19.8421 353.3 18.6749 372.9 28.1421 395.2C35.664 413.1 49.6703 431.8 67.5671 447.9L67.8265 448.2C99.2109 476.5 138.247 511.8 195.958 511.8C224.1 511.8 244.202 503.8 263.525 496C283.627 487.9 302.561 480.3 331.741 480.3C360.92 480.3 379.855 487.9 399.956 496C419.28 503.8 439.381 511.8 467.523 511.8C525.364 511.8 564.4 476.6 595.655 448.2L595.914 447.9C613.811 431.8 627.817 413.1 635.339 395.2C645.195 373 644.028 353.4 632.356 338.4ZM332 347.8C300.875 347.8 280.773 361.7 263.006 374C246.147 385.7 231.492 395.8 208.797 395.8C190.122 395.8 158.089 377.2 130.595 350.7C99.2109 320.2 80.4062 285.8 80.4062 258.5V222.8H81.0546C84.2968 258.9 102.064 283.7 139.284 304.7C153.161 312.5 170.15 316 187.658 316C217.616 316 248.87 305.9 267.545 290.5C271.436 287.3 274.678 284 277.791 280.8C288.814 269.6 297.503 260.8 331.87 260.8C366.237 260.8 374.927 269.6 385.95 280.8C389.062 284 392.305 287.2 396.195 290.5C405.273 298 417.464 304.3 430.952 308.7L461.558 349.6C463.503 352.2 467.005 353.6 470.506 353.6C472.322 353.6 474.008 353.3 475.694 352.5C480.622 350.3 482.308 345.4 479.455 341.6L459.872 315C465.319 315.6 470.766 316 476.212 316C480.233 316 484.123 315.8 488.014 315.4L504.614 337.6C506.559 340.2 510.061 341.6 513.562 341.6C515.378 341.6 517.064 341.3 518.75 340.5C523.678 338.3 525.364 333.4 522.511 329.6L508.894 311.3C514.341 309.6 519.658 307.4 524.456 304.7C526.272 303.7 527.958 302.7 529.644 301.7L539.63 315.1C541.575 317.7 545.077 319.1 548.578 319.1C550.394 319.1 552.08 318.8 553.766 318C558.694 315.8 560.38 310.9 557.527 307.1L545.336 290.8C568.42 272.7 580.092 251.2 582.556 222.8H583.205V258.5C583.205 285.7 564.4 320.2 533.016 350.7C505.652 377.3 473.489 395.8 454.814 395.8C432.248 395.8 417.594 385.7 400.605 374C383.227 361.7 363.125 347.9 332 347.8ZM332 183.8H337.706L354.955 206.8H80.5359V183.8H332ZM583.464 206.8H482.697L465.448 183.8H583.464V206.8ZM512.266 291.8C496.444 300.8 468.95 302.6 444.18 295.8C442.883 295.1 441.456 294.7 439.9 294.5C429.395 291.2 419.539 286.2 411.498 279.6C408.256 276.9 405.533 274.1 402.55 271.1C390.359 258.8 376.612 244.8 332 244.8C287.387 244.8 273.641 258.8 261.45 271.1C258.467 274.1 255.744 276.9 252.502 279.6C224.489 302.7 175.337 305.2 151.734 291.8C119.961 273.8 105.047 253.5 102.064 222.8H424.727H424.856H424.986H476.731H562.066C558.953 253.5 544.169 273.9 512.266 291.8ZM458.575 206.8H430.692L413.444 183.8H441.327L458.575 206.8ZM406.7 206.8H378.817L361.569 183.8H389.452L406.7 206.8ZM140.062 63.6002C178.58 33.0002 229.547 16.2002 283.237 16.2002H380.633C434.453 16.2002 485.291 33.0002 523.808 63.6002C559.731 92.1002 580.481 128.8 583.075 167.8H453.387L414.87 116.4C412.017 112.6 405.662 111.3 400.734 113.5C395.806 115.7 394.12 120.6 396.973 124.4L429.395 167.8H401.512L362.995 116.4C360.142 112.6 353.787 111.3 348.859 113.5C343.931 115.7 342.245 120.6 345.098 124.4L377.65 167.8H349.767L311.25 116.4C308.397 112.6 302.042 111.3 297.114 113.5C292.186 115.7 290.5 120.6 293.353 124.4L325.905 167.8H80.7953C83.389 128.9 104.139 92.1002 140.062 63.6002ZM616.016 390.2C609.402 405.9 596.433 423.2 580.481 437.5L580.222 437.8C550.134 465 516.027 495.8 467.783 495.8C444.698 495.8 428.487 489.3 409.812 481.8C389.452 473.6 366.237 464.3 332 464.3C297.762 464.3 274.678 473.6 254.187 481.8C235.383 489.3 219.302 495.8 196.217 495.8C147.973 495.8 113.866 465 83.7781 437.8L83.5187 437.5C67.5671 423.2 54.5984 406 47.9843 390.2C42.7968 377.9 38.7765 360.3 49.4109 346.7C59.0078 334.4 65.8812 317.6 70.8093 302C80.0171 321.5 94.9312 341.6 114.514 360.6C146.547 391.7 183.637 411.8 208.927 411.8C239.533 411.8 259.375 398 276.883 385.9C293.223 374.5 308.786 363.8 332 363.8C355.214 363.8 370.647 374.5 387.117 385.9C404.625 398 424.597 411.8 455.073 411.8C480.362 411.8 517.453 391.7 549.486 360.6C569.069 341.6 583.983 321.5 593.191 302C598.119 317.6 604.992 334.4 614.589 346.7C625.223 360.4 621.203 377.9 616.016 390.2Z" fill="#555E6B"/>
<path d="M478.158 424.8C459.612 424.8 444.439 436.5 444.439 450.8C444.439 465.1 459.612 476.8 478.158 476.8C496.703 476.8 511.876 465.1 511.876 450.8C511.876 436.5 496.833 424.8 478.158 424.8ZM478.158 460.8C471.025 460.8 465.189 456.3 465.189 450.8C465.189 445.3 471.025 440.8 478.158 440.8C485.291 440.8 491.126 445.3 491.126 450.8C491.126 456.3 485.42 460.8 478.158 460.8Z" fill="#555E6B"/>
<path d="M89.4843 348C85.464 344.9 78.8499 344.9 74.8296 348L53.8203 364.2C49.7999 367.3 49.7999 372.4 53.8203 375.5C55.8953 377.1 58.489 377.8 61.2124 377.8C63.9359 377.8 66.5296 377 68.6046 375.5L89.4843 359.3C93.5046 356.2 93.5046 351.1 89.4843 348Z" fill="#555E6B"/>
<path d="M109.586 372C105.566 368.9 98.9515 368.9 94.9312 372L73.9218 388.2C69.9015 391.3 69.9015 396.4 73.9218 399.5C75.9968 401.1 78.5906 401.8 81.314 401.8C84.0374 401.8 86.6312 401 88.7062 399.5L109.716 383.3C113.606 380.2 113.606 375.1 109.586 372Z" fill="#555E6B"/>
<path d="M115.033 396L94.0234 412.2C90.0031 415.3 90.0031 420.4 94.0234 423.5C96.0984 425.1 98.6921 425.8 101.416 425.8C104.139 425.8 106.733 425 108.808 423.5L129.817 407.3C133.837 404.2 133.837 399.1 129.817 396C125.667 392.9 119.053 392.9 115.033 396Z" fill="#555E6B"/>
</svg>
