<svg width="663" height="512" viewBox="0 0 663 512" fill="none" xmlns="http://www.w3.org/2000/svg">
<path d="M224.022 183.8C260.668 183.8 290.451 206.8 290.451 235.1C290.451 263.4 260.668 286.4 224.022 286.4C187.375 286.4 157.592 263.4 157.592 235.1C157.592 206.8 187.505 183.8 224.022 183.8Z" fill="#6247AA"/>
<path d="M452.316 187.6C469.668 187.6 483.783 198.5 483.783 211.9C483.783 225.3 469.668 236.2 452.316 236.2C434.964 236.2 420.85 225.3 420.85 211.9C420.85 198.5 434.964 187.6 452.316 187.6Z" fill="#6247AA"/>
<path d="M481.841 418.099C477.956 412.599 475.625 406.299 475.625 400.499C475.625 381.099 496.085 365.399 521.077 365.399C528.328 365.399 536.357 367.099 543.349 369.999C526.515 388.599 505.797 404.899 481.841 418.099Z" fill="#6247AA"/>
<path d="M224.022 302.4C272.063 302.4 311.17 272.2 311.17 235.1C311.17 198 272.063 167.8 224.022 167.8C175.98 167.8 136.873 198 136.873 235.1C136.873 272.2 175.98 302.4 224.022 302.4ZM224.022 183.8C260.668 183.8 290.451 206.8 290.451 235.1C290.451 263.4 260.668 286.4 224.022 286.4C187.375 286.4 157.592 263.4 157.592 235.1C157.592 206.8 187.505 183.8 224.022 183.8Z" fill="#555E6B"/>
<path d="M452.316 252.3C481.063 252.3 504.502 234.2 504.502 212C504.502 189.8 481.063 171.7 452.316 171.7C423.569 171.7 400.131 189.8 400.131 212C400.131 234.2 423.569 252.3 452.316 252.3ZM452.316 187.6C469.668 187.6 483.783 198.5 483.783 211.9C483.783 225.3 469.668 236.2 452.316 236.2C434.964 236.2 420.85 225.3 420.85 211.9C420.85 198.5 434.964 187.6 452.316 187.6Z" fill="#555E6B"/>
<path d="M649.921 114C629.073 86.1 576.111 75.6 500.487 84.4C452.057 55.9 393.397 40.5 331.5 40.5C256.912 40.5 186.857 62.9 134.154 103.6C81.4506 144.3 52.4443 198.4 52.4443 256C52.4443 265.2 53.2213 274.2 54.6457 283.2C6.99256 329.4 -7.76955 370.1 13.0787 398C29.1357 419.5 64.2281 430.6 114.212 430.6C129.104 430.6 145.29 429.6 162.642 427.6C210.943 456.1 269.732 471.5 331.5 471.5C406.087 471.5 476.143 449.1 528.846 408.4C581.549 367.7 610.556 313.6 610.556 256C610.556 246.8 609.779 237.8 608.354 228.8C656.007 182.6 670.77 141.9 649.921 114ZM631.922 122C646.425 141.4 635.936 172 603.434 207.3C591.779 168.3 566.399 132.6 528.846 103.6C526.645 101.9 524.314 100.2 521.983 98.5C577.924 94.3 617.419 102.6 631.922 122ZM331.5 56.5C459.956 56.5 566.787 129.2 586.6 224.2C542.054 265.6 474.718 307.4 396.117 342.4C317.644 377.4 237.1 401.5 168.469 410.6C110.327 374 73.1631 318.3 73.1631 256C73.1631 146 189.059 56.5 331.5 56.5ZM31.0781 390C16.575 370.6 26.9344 340 59.5664 304.7C71.2207 343.7 96.6012 379.4 134.154 408.4C136.355 410.1 138.686 411.8 141.017 413.5C85.2058 417.7 45.5812 409.3 31.0781 390ZM481.84 418.1C477.826 412.6 475.625 406.3 475.625 400.5C475.625 381.1 496.085 365.4 521.077 365.4C528.328 365.4 536.357 367.1 543.349 370C526.515 388.6 505.796 404.9 481.84 418.1ZM554.615 356.5C544.256 352 532.342 349.4 521.077 349.4C484.56 349.4 454.906 372.3 454.906 400.5C454.906 409.4 458.402 418.8 464.488 426.9C425.641 445 380.06 455.5 331.5 455.5C279.833 455.5 231.791 443.7 191.389 423.5C257.948 412.4 333.183 389 406.476 356.3C479.898 323.6 543.867 284.9 589.578 246C589.837 249.3 589.966 252.7 589.966 256.1C589.837 292.6 577.017 326.9 554.615 356.5Z" fill="#555E6B"/>
</svg>
