<svg width="664" height="512" viewBox="0 0 664 512" fill="none" xmlns="http://www.w3.org/2000/svg">
<path d="M296.725 287.7C324.219 290 348.211 301.2 363.773 317.6L325.127 334.8C317.864 328.4 307.878 323.9 296.725 322.1V287.7ZM275.975 287.7V322C264.822 323.8 254.966 328.3 247.573 334.7L209.056 317.5C224.619 301.2 248.611 290 275.975 287.7ZM198.552 391C193.364 381.9 190.381 371.8 190.381 361.2C190.381 350.6 193.364 340.4 198.552 331.3L237.069 348.5C235.383 352.5 234.345 356.8 234.345 361.2C234.345 365.6 235.253 369.9 237.069 373.8L198.552 391ZM275.975 434.8C248.481 432.5 224.489 421.3 208.927 404.9L247.573 387.7C254.836 394.1 264.822 398.6 275.975 400.4V434.8ZM296.725 434.8V400.4C307.878 398.6 317.734 394.1 325.127 387.8L363.644 405C348.081 421.3 324.089 432.5 296.725 434.8ZM382.319 361.2C382.319 371.8 379.336 382 374.148 391.1L335.631 373.9C337.317 369.9 338.355 365.6 338.355 361.2C338.355 356.8 337.447 352.5 335.631 348.6L374.278 331.4C379.336 340.5 382.319 350.6 382.319 361.2Z" fill="#6247AA"/>
<path d="M286.35 271.199C222.025 271.199 169.631 311.599 169.631 361.199C169.631 410.799 222.025 451.199 286.35 451.199C350.675 451.199 403.069 410.799 403.069 361.199C403.069 311.599 350.675 271.199 286.35 271.199ZM363.773 317.599L325.127 334.799C317.864 328.399 307.878 323.899 296.725 322.099V287.699C324.219 289.999 348.211 301.199 363.773 317.599ZM382.319 361.199C382.319 371.799 379.336 381.999 374.148 391.099L335.631 373.899C337.317 369.899 338.355 365.599 338.355 361.199C338.355 356.799 337.447 352.499 335.631 348.599L374.278 331.399C379.336 340.499 382.319 350.599 382.319 361.199ZM286.35 385.199C269.231 385.199 255.225 374.399 255.225 361.199C255.225 347.999 269.231 337.199 286.35 337.199C303.469 337.199 317.475 347.999 317.475 361.199C317.475 374.399 303.469 385.199 286.35 385.199ZM190.381 361.199C190.381 350.599 193.364 340.399 198.552 331.299L237.069 348.499C235.383 352.499 234.345 356.799 234.345 361.199C234.345 365.599 235.253 369.899 237.069 373.799L198.552 390.999C193.364 381.899 190.381 371.799 190.381 361.199ZM275.975 287.699V321.999C264.822 323.799 254.966 328.299 247.573 334.699L209.056 317.499C224.619 301.199 248.611 289.999 275.975 287.699ZM208.927 404.899L247.573 387.699C254.836 394.099 264.822 398.599 275.975 400.399V434.799C248.481 432.499 224.489 421.199 208.927 404.899ZM296.725 434.799V400.399C307.878 398.599 317.734 394.099 325.127 387.799L363.644 404.999C348.081 421.299 324.089 432.499 296.725 434.799Z" fill="#555E6B"/>
<path d="M584.113 205.6C574.386 193.9 555.581 188.3 536.128 191.2C534.831 191.4 523.289 193.4 513.173 201.3L431.989 269.6C431.211 270.1 429.914 270.8 428.747 271.3C427.58 269.3 425.894 264.7 426.542 254.7L438.214 66.1995C438.603 60.3995 436.788 54.5995 433.286 49.4995L431.989 47.5995C425.764 38.7995 414.481 32.7995 401.642 31.3995L399.567 31.1995C392.823 30.4995 386.08 30.8995 380.114 32.3995C364.811 36.3995 353.917 46.8995 352.231 59.0995L341.337 137.1L340.17 34.9995C340.17 32.1995 339.781 29.7995 339.003 27.3995C334.853 14.4995 321.106 5.09953 304.117 3.49953L299.578 3.19953C286.35 1.89953 273.122 5.69953 264.044 13.2995L260.931 15.9995C254.447 21.4995 250.556 28.6995 250.297 36.1995L245.887 132.1L238.625 63.9995V63.8995C236.809 49.3995 227.472 40.6995 224.748 38.4995C217.356 31.3995 204.647 28.1995 195.05 28.1995C184.545 28.1995 170.928 31.8995 163.666 40.2995C161.591 42.4995 153.55 51.9995 153.55 69.7995V70.0995L161.331 152.1L151.605 113.8C149.011 103.7 144.861 92.5995 132.67 86.0995C121.647 80.2995 105.825 82.4995 98.0437 84.6995C72.8843 91.8995 74.9593 118.9 75.7375 127.8V128C76.9046 138.7 104.917 390.9 114.125 434.6C123.333 478.6 164.444 494.5 181.692 499.2C209.186 506.8 229.806 509.1 270.009 509.1C313.584 509.1 342.505 508.4 375.705 498.2C409.034 488.1 438.214 465.1 462.336 429.9L581 257.8L581.259 257.4C587.484 247.2 590.727 236.2 590.856 224.9C591.116 217.8 588.781 211.2 584.113 205.6ZM562.714 250.4L444.828 421.5L444.309 422.3C422.522 454.1 396.973 474.6 368.312 483.2C337.836 492.5 311.12 492.9 270.139 492.9C228.38 492.9 211.391 490.1 188.825 483.9C175.078 480.1 142.267 467.4 134.745 431.8C125.797 389.1 97.2656 132.8 96.6171 126.6C95.0609 106.8 100.508 101 105.436 99.5995C111.012 97.9995 118.405 97.7995 120.998 99.1995C126.964 102.4 129.558 109.5 131.373 116.7L147.844 181.5L160.034 230C160.812 233.2 163.277 236 166.908 237.6C170.539 239.3 174.819 239.7 178.969 238.8C185.583 237.3 189.992 232.3 189.473 226.8L174.43 69.4995C174.559 56.7995 179.617 50.5995 180.395 49.7995L181.044 49.0995C183.378 46.2995 189.733 44.0995 195.18 44.0995C200.237 44.0995 206.333 46.0995 208.667 48.4995L209.186 48.9995L209.834 49.3995C209.964 49.4995 216.837 55.0995 218.134 65.2995L233.308 210.5C233.956 216.8 241.219 221.6 249.389 221C256.781 220.5 262.877 215.6 263.136 209.8L271.177 36.6995C271.306 32.9995 273.252 29.4995 276.494 26.6995L279.606 23.9995C284.016 20.1995 290.63 18.3995 297.114 18.9995L301.653 19.3995C310.083 20.1995 316.827 24.8995 318.902 31.2995C319.291 32.3995 319.42 33.5995 319.42 35.0995L321.495 214.5C321.495 217.8 323.441 221 326.683 223.1C329.925 225.3 334.205 226.2 338.484 225.8C345.228 225.1 350.416 220.8 351.194 215.4L372.722 60.9995C373.63 54.7995 378.947 49.6995 386.598 47.6995C389.581 46.8995 392.953 46.6995 396.455 47.0995L398.53 47.2995C404.884 47.9995 410.461 50.9995 413.573 55.3995L414.87 57.2995C416.686 59.7995 417.464 62.6995 417.334 65.5995L405.922 254C404.884 270.4 408.905 280.8 417.983 285.8L418.631 286.2L419.409 286.5C429.136 290.1 440.159 285.9 446.514 281.1L446.773 280.9L528.088 212.4C533.534 208.2 539.63 207 540.278 206.8C548.578 205.6 560.509 206.8 566.605 214.2C569.069 217.1 570.236 220.7 570.106 224.6C570.106 233.6 567.513 242.3 562.714 250.4Z" fill="#555E6B"/>
</svg>
