<svg width="663" height="512" viewBox="0 0 663 512" fill="none" xmlns="http://www.w3.org/2000/svg">
<g clip-path="url(#clip0)">
<path d="M453.223 235C466.819 235 477.826 243.5 477.826 254C477.826 264.5 466.819 273 453.223 273C439.626 273 428.619 264.5 428.619 254C428.619 243.5 439.626 235 453.223 235Z" fill="#C9CBCF"/>
<path d="M69.9258 249.2L85.4648 236.8V336V343.3V353.7L69.9258 342.5V249.2ZM402.85 482V427C402.85 418.2 393.527 411 382.131 411H283.588C272.193 411 262.869 418.2 262.869 427V482H247.201V349.8L275.689 332H332.795H390.03L418.519 349.8V482H402.85ZM595.664 342.5L580.125 353.7V343.3V336V236.8L595.664 249.2V342.5Z" fill="#6247AA"/>
<path d="M212.367 273C198.771 273 187.764 264.5 187.764 254C187.764 243.5 198.771 235 212.367 235C225.964 235 236.971 243.5 236.971 254C236.971 264.5 225.964 273 212.367 273Z" fill="#C9CBCF"/>
<path d="M453.223 289C478.215 289 498.545 273.3 498.545 254C498.545 234.7 478.215 219 453.223 219C428.231 219 407.9 234.7 407.9 254C407.9 273.3 428.231 289 453.223 289ZM453.223 235C466.819 235 477.826 243.5 477.826 254C477.826 264.5 466.819 273 453.223 273C439.626 273 428.619 264.5 428.619 254C428.619 243.5 439.626 235 453.223 235Z" fill="#555E6B"/>
<path d="M610.556 238.1L580.125 213.8V167.7C580.125 75.8 483.265 1 364.262 1H301.199C182.325 1 85.4648 75.8 85.4648 167.7V213.8L55.0342 238.2C51.2789 241.2 49.207 245.1 49.207 249.3V342.6C49.207 347 51.6674 351.3 55.8111 354.3L86.1123 376.1C86.5008 377.2 87.0187 378.3 87.6662 379.3L116.025 423.2C119.521 428.7 126.643 432 134.542 432H152.801L176.886 469.2C180.383 474.7 187.505 478 195.404 478H226.352V482C226.352 490.8 235.676 498 247.071 498H262.869C263.517 506.4 272.581 513 283.458 513H382.002C393.009 513 401.944 506.4 402.591 498H418.26C429.655 498 438.979 490.8 438.979 482V478H469.927C477.826 478 484.948 474.6 488.445 469.2L512.53 432H530.788C538.687 432 545.81 428.6 549.306 423.2L577.665 379.3C578.312 378.3 578.83 377.2 579.219 376.1L609.52 354.3C613.663 351.3 616.124 347 616.124 342.6V249.3C616.383 245.1 614.311 241.1 610.556 238.1ZM106.184 167.7C106.184 84.6 193.72 17 301.328 17H364.391C471.87 17 559.406 84.6 559.406 167.7V328.8L432.374 338L402.98 319.6C399.354 317.3 394.692 316 389.901 316H275.559C270.768 316 266.236 317.3 262.481 319.6L233.215 338L106.184 328.7V167.7ZM69.9258 249.2L85.4648 236.8V336V343.3V353.7L69.9258 342.5V249.2ZM195.404 462L171.318 424.8C167.822 419.3 160.7 416 152.801 416H134.542L106.184 372.1V344.8L226.482 353.6V462H195.404ZM343.284 427V497H322.436V427H343.284ZM301.587 497H283.458V427H301.587V497ZM382.131 497H364.003V427H382.131V497ZM402.85 482V427C402.85 418.2 393.527 411 382.131 411H283.588C272.193 411 262.869 418.2 262.869 427V482H247.201V349.8L275.689 332H390.03L418.519 349.8V482H402.85ZM531.047 416H512.789C504.89 416 497.768 419.4 494.272 424.8L470.186 462H439.238V353.5L559.536 344.7V372L531.047 416ZM595.664 342.5L580.125 353.7V343.3V336V236.8L595.664 249.2V342.5Z" fill="#555E6B"/>
<path d="M257.689 254C257.689 234.7 237.359 219 212.367 219C187.375 219 167.045 234.7 167.045 254C167.045 273.3 187.375 289 212.367 289C237.359 289 257.689 273.3 257.689 254ZM212.367 273C198.771 273 187.764 264.5 187.764 254C187.764 243.5 198.771 235 212.367 235C225.964 235 236.971 243.5 236.971 254C236.971 264.5 225.964 273 212.367 273Z" fill="#555E6B"/>
</g>
<defs>
<clipPath id="clip0">
<rect width="663" height="512" fill="white"/>
</clipPath>
</defs>
</svg>
