<svg width="664" height="512" viewBox="0 0 664 512" fill="none" xmlns="http://www.w3.org/2000/svg">
<path d="M332 194.4C349.767 194.4 405.533 189.9 412.017 189.4C453.128 189.5 481.4 201.5 495.925 225.2C502.15 235.3 503.966 243.6 501.112 249.3C499.167 253.3 495.277 255.1 493.072 255.7C486.328 257.9 480.492 258.6 439.511 248.2C410.72 240.9 390.1 224.2 385.302 220C381.411 216.1 375.316 213.8 368.961 213.8H332H295.039C288.555 213.8 282.459 216.2 278.569 220.1C273.641 224.4 253.28 240.9 224.359 248.3C183.378 258.7 177.542 258 170.798 255.8C168.594 255.1 164.833 253.4 162.758 249.4C159.905 243.7 161.72 235.4 167.945 225.3C182.47 201.7 210.742 189.6 251.853 189.5C258.467 189.9 314.233 194.4 332 194.4Z" fill="#6247AA"/>
<path d="M633.264 378.6C621.592 331.8 582.816 177.8 577.628 163.2C560.12 114.3 534.183 77.5996 498.519 51.0996C456.111 19.8996 400.216 4.09961 332 4.09961C263.784 4.09961 207.889 19.9996 165.481 51.1996C129.688 77.6996 103.75 114.3 86.3719 163.3C81.1844 177.9 42.5375 331.8 30.736 378.7C28.7907 386.3 34.2375 393.9 43.7047 396.7L117.756 418.5L210.224 480.5L217.356 497.1C219.302 501.8 223.97 505.4 229.936 507.1C232.27 507.8 234.605 508.1 237.069 508.1C240.83 508.1 244.591 507.3 247.963 505.7L283.367 488.7C289.981 485.6 297.503 483.9 305.284 483.9H332V467.9H305.284C293.613 467.9 282.33 470.4 272.474 475.1L237.069 492.1L228.25 471.3L136.95 410L294.78 230V229.9C294.909 229.8 294.909 229.7 295.039 229.7H332H368.961C369.091 229.8 369.091 229.9 369.22 229.9L527.05 409.9L435.88 471L427.061 491.8L391.656 474.8C381.8 470.1 370.388 467.6 358.845 467.6H332V483.6H358.716C366.497 483.6 374.019 485.3 380.633 488.4L416.038 505.4C419.409 507 423.17 507.8 426.931 507.8C429.266 507.8 431.73 507.5 434.064 506.8C440.03 505.1 444.698 501.5 446.644 496.8L453.777 480.2L546.244 418.2L620.295 396.4C629.633 393.8 635.08 386.3 633.264 378.6ZM332 20.0996C431.47 20.0996 499.945 55.3996 539.759 127.7C517.842 106.9 492.164 96.3996 463.373 96.3996H200.497C171.706 96.3996 146.028 106.9 124.111 127.7C164.055 55.3996 232.53 20.0996 332 20.0996ZM550.913 179.4C526.661 150.9 497.352 136.5 463.503 136.5H200.497C166.649 136.5 137.339 151 113.088 179.5C118.794 166.4 124.111 155.9 128.909 150.2C149.4 125.2 173.522 112.6 200.497 112.6H463.373C490.478 112.6 514.6 125.3 534.961 150.2C539.759 155.7 545.206 166.2 550.913 179.4ZM544.817 401.7L419.928 259.3C424.078 260.8 428.488 262.1 433.156 263.3C459.742 270.1 474.267 273 485.031 273C490.997 273 495.925 272.1 501.113 270.4C506.3 268.7 515.767 264.5 520.566 254.9C525.494 244.9 523.548 232.6 514.73 218.2C491.905 181.1 445.995 173.3 411.498 173.3H410.461C409.813 173.3 349.378 178.3 332 178.3V194.3C349.767 194.3 405.533 189.8 412.017 189.3C453.128 189.4 481.4 201.4 495.925 225.1C502.15 235.2 503.966 243.5 501.113 249.2C499.167 253.2 495.277 254.9 493.072 255.6C486.328 257.8 480.492 258.5 439.511 248.1C410.72 240.8 390.1 224.1 385.302 219.9C381.411 216 375.316 213.7 368.961 213.7H332H295.039C288.555 213.7 282.459 216.1 278.569 219.9C273.641 224.2 253.28 240.7 224.359 248.1C183.378 258.5 177.542 257.8 170.798 255.6C168.594 254.9 164.833 253.2 162.758 249.2C159.905 243.5 161.72 235.2 167.945 225.1C182.47 201.5 210.742 189.4 251.853 189.3C258.467 189.8 314.103 194.3 331.87 194.3V178.3C314.492 178.3 254.058 173.4 253.409 173.3H252.372C217.875 173.3 172.095 181.1 149.141 218.2C140.322 232.5 138.377 244.9 143.305 254.9C148.103 264.5 157.57 268.7 162.758 270.4C167.945 272.1 172.873 273 178.839 273C189.603 273 204.128 270.1 230.714 263.3C235.253 262.1 239.663 260.8 243.942 259.3L119.183 401.7L51.0969 381.7C55.8954 362.7 60.8235 342.9 65.7516 323.3C68.3454 316.7 106.863 217 128.909 190C149.4 165 173.522 152.4 200.497 152.4H463.373C490.478 152.4 514.6 165.1 534.961 190C557.008 217 595.655 316.8 597.989 323.2C602.917 342.5 607.845 362.3 612.644 381.6L544.817 401.7Z" fill="#555E6B"/>
<path d="M357.938 267.1C363.644 267.1 368.312 263.5 368.312 259.1C368.312 254.7 363.644 251.1 357.938 251.1H306.062C300.356 251.1 295.688 254.7 295.688 259.1C295.688 263.5 300.356 267.1 306.062 267.1H357.938Z" fill="#555E6B"/>
<path d="M280.125 289.1C280.125 293.5 284.794 297.1 290.5 297.1H373.5C379.206 297.1 383.875 293.5 383.875 289.1C383.875 284.7 379.206 281.1 373.5 281.1H290.5C284.794 281.1 280.125 284.7 280.125 289.1Z" fill="#555E6B"/>
</svg>
