<svg width="663" height="512" viewBox="0 0 663 512" fill="none" xmlns="http://www.w3.org/2000/svg">
<path d="M185.044 417.2C176.239 410.4 161.347 399.6 148.916 394.1C136.744 388.7 118.356 385.5 103.853 383.7L260.927 262.4L323.213 310.5L185.044 417.2ZM541.925 141.6L513.566 163.5L451.28 115.4L496.085 80.7998C498.545 78.8998 501.912 78.0998 505.279 78.5998C508.516 79.0998 511.106 80.5998 512.66 82.7998C514.084 86.2998 520.818 102.2 523.407 106.7C527.551 113.7 541.018 129.4 544.256 133.2C545.68 136 544.774 139.4 541.925 141.6Z" fill="#A259FF"/>
<path d="M623.634 71.5C623.634 68.8 622.34 66.3 619.879 64.4L579.607 33.3C574.557 29.4 566.399 29.4 561.349 33.3L519.264 65.8C516.156 64.4 512.66 63.4 509.034 62.9C499.063 61.5 488.704 64 481.452 69.5L431.209 108.3C428.749 110.2 427.454 112.7 427.454 115.4C427.454 118.1 428.749 120.6 431.209 122.5L436.648 126.7L407.382 149.3L401.944 145.1C397.93 142 391.325 142 387.311 145.1C383.297 148.2 383.297 153.3 387.311 156.4L392.75 160.6L275.559 251.1L270.121 246.9C267.66 245 264.423 244 260.927 244C257.43 244 254.193 245 251.733 246.9L48.4301 403.9C42.6029 408.4 39.3656 414.5 39.3656 420.9C39.3656 427.3 42.6029 433.3 48.4301 437.9L96.0832 474.7C101.91 479.2 109.809 481.7 118.097 481.7C126.384 481.7 134.154 479.2 140.111 474.7L343.413 317.7C348.464 313.8 348.464 307.5 343.413 303.6L337.975 299.4L455.165 208.9L460.604 213.1C462.676 214.7 465.265 215.4 467.985 215.4C470.575 215.4 473.294 214.6 475.366 213.1C479.38 210 479.38 204.9 475.366 201.8L469.927 197.6L499.192 175L504.631 179.2C507.091 181.1 510.458 182.1 513.825 182.1C517.192 182.1 520.429 181.1 523.019 179.2L556.816 153.1C565.881 146.1 568.471 135.3 563.162 126.2L562.773 125.6L562.255 125C561.996 124.7 561.737 124.4 561.349 124L620.009 78.7C622.339 76.7 623.634 74.2 623.634 71.5ZM363.485 205.9L396.505 231.4L367.24 254L334.219 228.5L363.485 205.9ZM125.348 463.3C123.406 464.8 120.816 465.6 117.967 465.6C115.119 465.6 112.658 464.8 110.586 463.3L62.9332 426.5C60.9908 425 59.9549 423 59.9549 420.8C59.9549 418.6 60.9908 416.7 62.9332 415.1L85.3353 398C98.932 399 125.348 402.1 138.557 407.9C148.916 412.6 162.383 422.3 170.412 428.5L125.348 463.3ZM185.044 417.2C176.239 410.4 161.347 399.6 148.916 394.1C136.744 388.7 118.356 385.5 103.853 383.7L260.927 262.4L323.213 310.5L185.044 417.2ZM290.192 262.4L319.457 239.8L352.478 265.3L323.213 287.9L290.192 262.4ZM411.008 220L378.117 194.6L407.382 172L440.403 197.5L411.008 220ZM455.036 186.1L422.015 160.6L451.28 138L484.301 163.5L455.036 186.1ZM541.925 141.6L513.566 163.5L451.28 115.4L496.085 80.8C498.545 78.9 501.912 78.1 505.279 78.6C508.516 79.1 511.106 80.6 512.66 82.8C514.084 86.3 520.818 102.2 523.407 106.7C527.551 113.7 541.018 129.4 544.256 133.2C545.68 136 544.774 139.4 541.925 141.6ZM549.694 110.1C546.457 106.1 543.608 102.3 542.313 100C540.63 97.2 535.58 85.4 532.601 78.1L570.413 48.9L599.678 71.5L549.694 110.1Z" fill="#555E6B"/>
</svg>
