<svg width="664" height="512" viewBox="0 0 664 512" fill="none" xmlns="http://www.w3.org/2000/svg">
<path d="M85.3344 257.5C78.7203 250 66.9188 244.6 49.9297 241.3C39.6844 239.3 29.6984 238.5 22.6953 238C23.2141 237.1 23.9922 236.2 24.7703 235.2C25.6781 234.2 26.5859 233.1 27.7531 232C43.3156 233 91.8188 237.7 119.831 260.6C121.906 262.3 124.63 263.1 127.353 263.1C129.947 263.1 132.411 262.4 134.486 260.9C138.636 257.9 138.895 252.8 134.875 249.6C109.586 229 72.2359 220.9 47.8547 217.7C51.0969 216.4 54.4688 215.6 57.7109 215.6C57.9703 215.6 58.1 215.6 58.3594 215.6C73.5328 216.1 111.012 224.2 124.111 227.3L124.889 227.5L125.667 227.6C126.445 227.7 127.223 227.8 128.002 227.8C135.912 228.4 143.694 227.5 150.697 225.3C147.844 243.4 147.714 269.7 158.867 302.9C118.664 288.2 91.9484 265.1 85.3344 257.5ZM171.577 226.5C171.706 226.1 171.706 225.7 171.836 225.3C175.856 220.7 190.381 204.5 209.445 195.2C230.844 184.8 245.369 184.8 252.372 184.8H253.02C259.764 184.8 284.534 193.5 295.298 204.9C297.373 207.1 300.356 208.5 303.858 209.8C301.134 212.1 298.281 214.6 295.558 217.2C286.869 210.4 272.603 203.7 249.908 203.7C214.633 203.7 198.811 221.7 193.623 229.4L171.577 226.5ZM470.247 229.5C465.059 221.8 449.238 203.8 413.963 203.8C391.267 203.8 377.002 210.4 368.312 217.3C365.589 214.6 362.736 212.2 360.013 209.9C363.514 208.7 366.497 207.2 368.572 205C379.336 193.6 404.106 184.9 410.85 184.9H411.498C418.502 184.9 433.156 184.9 454.425 195.3C473.619 204.6 488.403 221 492.164 225.5C492.164 225.8 492.294 226.2 492.294 226.6L470.247 229.5ZM578.666 257.5C572.052 265.1 545.336 288.2 505.133 303.1C516.286 269.8 516.156 243.5 513.303 225.5C520.306 227.7 528.087 228.6 535.998 228C536.777 227.9 537.555 227.9 538.333 227.8L539.111 227.7L539.889 227.5C552.987 224.4 590.467 216.3 605.641 215.8C609.012 215.7 612.644 216.5 616.016 217.9C591.634 221.1 554.284 229.1 528.995 249.8C525.105 253 525.234 258.1 529.384 261.1C531.33 262.6 533.923 263.3 536.517 263.3C539.241 263.3 541.964 262.5 544.039 260.8C572.052 237.9 620.555 233.1 636.117 232.2C637.284 233.3 638.192 234.4 639.1 235.4C639.878 236.4 640.656 237.3 641.175 238.2C624.834 239.1 592.023 242.3 578.666 257.5Z" fill="#C9CBCF"/>
<path d="M656.607 226.4C654.273 223.8 648.048 216.9 639.099 210.8C627.687 203.1 616.145 199.3 604.991 199.7C585.279 200.3 541.704 210.3 534.83 211.9C534.571 211.9 534.312 212 533.923 212C521.602 213 509.801 207.3 505.132 198.2C505.002 198.1 505.002 197.9 505.002 197.8C498.518 184.8 488.273 165.8 475.823 148.6C470.505 141.2 463.762 133.3 455.721 125.2C440.418 109.7 418.371 99.0004 393.73 95.1004C392.952 95.0004 391.915 94.8004 390.748 94.6004C379.465 92.8004 356.121 88.9004 332.129 88.9004C308.007 88.9004 284.663 92.7004 273.51 94.6004C272.343 94.8004 271.435 94.9004 270.527 95.1004C245.757 99.0004 223.84 109.7 208.537 125.2C200.496 133.3 193.752 141.1 188.435 148.6C175.985 165.8 165.74 184.8 159.256 197.8C159.256 197.9 159.126 198 159.126 198.1C154.457 207.2 142.656 212.9 130.335 212C130.076 212 129.816 212 129.427 211.9C122.684 210.3 78.979 200.4 59.2665 199.7C33.4587 198.9 13.2274 219.9 7.52116 226.4C4.92741 229.3 -2.98353 239.6 1.42585 247.2C3.37116 250.6 7.26178 252.8 12.0602 253.4C13.0977 253.5 14.5243 253.6 16.729 253.7C44.8712 255.3 62.1196 259.6 68.2149 266.5C76.904 276.5 111.012 305.8 162.368 321.8C164.962 322.6 166.907 324.2 167.945 326.2C174.17 338.6 187.138 361.3 203.349 374.9L205.424 376.7C227.212 395.1 260.152 423 331.999 423V407C269.36 407 241.218 383.2 220.727 365.9L218.652 364.1C204.387 352 192.066 329.7 187.398 320.5C172.873 288.5 169.371 262.1 170.02 242.5L190.251 245.2C192.715 245.5 195.309 245.5 197.643 245.1C201.404 249.4 207.11 253.6 214.632 257.3C226.174 262.9 239.662 266.4 249.907 266.4C251.982 266.4 254.187 266.2 256.521 265.9C246.924 274.8 236.29 285.4 229.287 294.5C213.984 314.4 202.701 336.9 202.182 337.8C200.107 341.9 202.701 346.6 208.148 348.2C209.445 348.6 210.612 348.7 211.909 348.7C216.059 348.7 219.949 346.8 221.635 343.6C221.765 343.4 232.918 321.4 247.313 302.7C258.077 288.6 279.346 269.9 289.073 261.6C289.591 261.8 290.11 262 290.629 262.1C309.823 267.7 324.996 263.9 332.259 261.1C336.798 262.8 344.449 265 354.176 265C360.012 265 366.755 264.2 373.888 262.1C374.407 261.9 374.926 261.8 375.445 261.6C385.171 269.9 406.31 288.6 417.204 302.7C431.599 321.4 442.752 343.4 442.882 343.6C444.438 346.8 448.459 348.7 452.609 348.7C453.905 348.7 455.073 348.5 456.37 348.2C461.687 346.6 464.41 342 462.335 337.8C461.816 336.9 450.534 314.4 435.23 294.5C428.227 285.4 417.593 274.8 407.996 265.9C410.33 266.2 412.535 266.4 414.61 266.4C424.856 266.4 438.343 262.9 449.885 257.3C457.407 253.6 463.113 249.5 466.874 245.1C469.209 245.5 471.802 245.5 474.266 245.2L494.627 242.5C495.146 260.9 492.034 287.6 477.12 320.5C472.451 329.7 460.13 352 445.865 364.1L443.79 365.9C422.781 383.3 394.768 407 331.999 407V423C403.846 423 436.787 395.1 458.574 376.7L460.649 374.9C476.731 361.3 489.699 338.5 496.054 326.2C497.091 324.2 499.166 322.6 501.63 321.8C553.116 305.8 587.095 276.5 595.784 266.5C601.749 259.6 619.127 255.4 647.27 253.7C649.345 253.6 650.771 253.5 651.938 253.4C656.737 252.9 660.627 250.6 662.573 247.2C667.112 239.6 659.071 229.4 656.607 226.4ZM85.3337 257.5C78.7196 250 66.918 244.6 49.929 241.3C39.6837 239.3 29.6977 238.5 22.6946 238C23.2133 237.1 23.9915 236.2 24.7696 235.2C25.6774 234.2 26.5852 233.1 27.7524 232C43.3149 233 91.818 237.7 119.831 260.6C121.906 262.3 124.629 263.1 127.352 263.1C129.946 263.1 132.41 262.4 134.485 260.9C138.635 257.9 138.895 252.8 134.874 249.6C109.585 229 72.2352 220.9 47.854 217.7C51.3555 216.3 54.8571 215.5 58.229 215.6C73.4024 216.1 110.882 224.2 123.981 227.3L124.759 227.5L125.537 227.6C126.315 227.7 127.093 227.8 127.871 227.8C135.782 228.4 143.563 227.5 150.566 225.3C147.713 243.4 147.584 269.7 158.737 302.9C118.663 288.2 91.9477 265.1 85.3337 257.5ZM171.576 226.5C171.706 226.1 171.706 225.7 171.835 225.3C175.856 220.7 190.381 204.5 209.445 195.2C230.843 184.8 245.368 184.8 252.371 184.8H253.02C259.763 184.8 284.534 193.5 295.298 204.9C297.373 207.1 300.356 208.5 303.857 209.8C301.134 212.1 298.281 214.6 295.557 217.2C286.868 210.4 272.602 203.7 249.907 203.7C214.632 203.7 198.81 221.7 193.623 229.4L171.576 226.5ZM213.724 234.7C219.431 227.5 230.065 219.8 250.037 219.8C265.081 219.8 276.363 223.5 283.626 230.9L284.015 231.3L284.534 231.7C284.534 231.7 284.793 231.9 285.052 232.3C283.237 239.2 261.968 250.4 249.907 250.4C237.587 250.4 216.837 241.1 213.724 234.7ZM341.207 246.8C335.501 244.6 328.627 244.6 322.921 246.8C318.382 248.5 311.249 250 302.171 248.3C305.932 242.6 306.97 237.4 306.451 233C312.935 225.3 321.495 218.6 327.72 214.1C330.702 212.1 331.999 209.1 331.351 206.2C330.184 200.7 323.829 198.8 317.085 196.8C315.399 196.3 312.676 195.5 311.379 194.9C297.502 180.9 268.063 169 253.02 169H252.371C244.071 169 224.748 169 198.291 181.8C194.141 183.8 190.121 186.1 186.36 188.5C191.937 178.4 198.681 167 206.332 156.4C211.26 149.6 217.356 142.4 224.748 135C237.068 122.6 254.706 114 274.418 110.9C275.326 110.8 276.363 110.6 277.531 110.4C288.035 108.7 309.952 105.1 331.87 105.1C353.787 105.1 375.704 108.7 386.209 110.4C387.376 110.6 388.413 110.8 389.321 110.9C409.163 114 426.801 122.6 438.991 135C446.384 142.5 452.609 149.7 457.407 156.4C465.059 167 471.802 178.4 477.379 188.5C473.618 186.1 469.727 183.8 465.448 181.8C438.991 168.9 419.668 168.9 411.368 169H410.72C395.676 169 366.237 180.9 352.36 194.9C351.063 195.4 348.34 196.3 346.654 196.8C339.91 198.8 333.555 200.7 332.388 206.2C331.74 209.2 333.166 212.1 336.02 214.1C342.245 218.6 350.674 225.3 357.288 233C356.77 237.4 357.677 242.6 361.568 248.2C352.749 250 345.616 248.5 341.207 246.8ZM414.091 250.4C402.16 250.4 381.021 239.2 379.076 232.3C379.335 232 379.465 231.8 379.595 231.6L380.373 230.8C387.635 223.4 398.918 219.7 413.962 219.7C433.804 219.7 444.568 227.4 450.274 234.6C447.162 241.1 426.412 250.4 414.091 250.4ZM470.246 229.5C465.059 221.8 449.237 203.8 413.962 203.8C391.266 203.8 377.001 210.4 368.312 217.3C365.588 214.6 362.735 212.2 360.012 209.9C363.513 208.7 366.496 207.2 368.571 205C379.335 193.6 404.105 184.9 410.849 184.9H411.498C418.501 184.9 433.155 184.9 454.424 195.3C473.618 204.6 488.402 221 492.163 225.5C492.163 225.8 492.293 226.2 492.293 226.6L470.246 229.5ZM578.665 257.5C572.051 265.1 545.335 288.2 505.132 303.1C516.285 269.8 516.155 243.5 513.302 225.5C520.305 227.7 528.087 228.6 535.998 228C536.776 227.9 537.554 227.9 538.332 227.8L539.11 227.7L539.888 227.5C552.987 224.4 590.466 216.3 605.64 215.8C605.899 215.8 606.029 215.8 606.288 215.8C609.53 215.8 612.773 216.6 616.145 217.9C591.763 221.1 554.413 229.1 529.124 249.8C525.234 253 525.363 258.1 529.513 261.1C531.459 262.6 534.052 263.3 536.646 263.3C539.369 263.3 542.093 262.5 544.168 260.8C572.18 237.9 620.684 233.1 636.246 232.2C637.413 233.3 638.321 234.4 639.229 235.4C640.007 236.4 640.785 237.3 641.304 238.2C624.834 239.1 592.023 242.3 578.665 257.5Z" fill="#555E6B"/>
<path d="M332.13 325.6C348.989 325.6 359.623 323.4 368.961 321.4C376.094 319.9 381.67 318.8 389.062 318.8C392.823 318.8 396.455 320.2 398.789 322.5L406.7 330.7C408.775 332.8 411.887 333.9 415 333.9C417.205 333.9 419.28 333.4 421.225 332.3C425.764 329.7 426.801 324.6 423.3 321.1L415.389 312.9C409.164 306.5 399.437 302.7 389.062 302.7C378.947 302.7 371.166 304.3 363.644 305.9C355.084 307.7 346.266 309.5 332.13 309.5C317.994 309.5 309.175 307.7 300.616 305.9C293.094 304.3 285.312 302.7 275.197 302.7C264.951 302.7 255.095 306.5 248.87 312.9L240.959 321.1C237.587 324.6 238.495 329.7 243.034 332.3C244.85 333.4 247.055 333.9 249.259 333.9C252.372 333.9 255.484 332.8 257.559 330.7L265.47 322.5C267.805 320.2 271.436 318.8 275.197 318.8C282.589 318.8 288.166 320 295.298 321.4C304.636 323.4 315.27 325.6 332.13 325.6H332.259H332.13Z" fill="#555E6B"/>
<path d="M414.481 243.5C421.644 243.5 427.45 239.023 427.45 233.5C427.45 227.977 421.644 223.5 414.481 223.5C407.319 223.5 401.513 227.977 401.513 233.5C401.513 239.023 407.319 243.5 414.481 243.5Z" fill="#555E6B"/>
<path d="M249.519 243.5C256.681 243.5 262.487 239.023 262.487 233.5C262.487 227.977 256.681 223.5 249.519 223.5C242.356 223.5 236.55 227.977 236.55 233.5C236.55 239.023 242.356 243.5 249.519 243.5Z" fill="#555E6B"/>
</svg>
