<svg width="663" height="512" viewBox="0 0 663 512" fill="none" xmlns="http://www.w3.org/2000/svg">
<path d="M558.5 93.4C558.629 93.2 558.888 93 559.536 93C560.054 93 560.442 93.2 560.572 93.4L578.312 125H540.889L558.5 93.4ZM433.799 207.1C415.281 196 393.915 187.5 371.254 182.4L367.369 135.7C408.159 141.9 445.842 155.6 477.438 175.8L433.799 207.1ZM89.738 246.2L105.795 221.9C140.758 177.9 199.936 146.1 267.919 135.7L264.035 182.5C209.907 194.7 166.656 224.5 145.938 263.5L89.738 246.2C89.8675 246.2 89.8675 246.2 89.738 246.2ZM79.8966 335.4C79.6376 335.4 79.5082 335.3 79.3787 335.3V292.6C79.5082 292.6 79.6376 292.5 79.8966 292.5L112.529 294.1V333.8L79.8966 335.4ZM545.551 381.8C527.551 415.1 496.732 443.5 456.719 463.9C415.67 484.8 367.628 495.9 317.644 495.9C267.66 495.9 219.619 484.8 178.57 463.9C138.557 443.5 107.867 415.1 89.738 381.8C89.738 381.8 89.738 381.8 89.8675 381.8L146.197 364.5C173.908 416.7 241.373 451.3 317.644 451.4H317.774H317.903C394.174 451.3 461.64 416.8 489.351 364.6L545.551 381.8ZM555.521 292.5C555.78 292.5 555.91 292.6 556.039 292.6V335.3C555.91 335.3 555.78 335.4 555.521 335.4L522.889 333.8V294.1L555.521 292.5ZM545.551 246.1C545.551 246.2 545.551 246.2 545.551 246.1L427.195 282.4L534.285 228.1C538.428 234 542.184 240 545.551 246.1Z" fill="#6247AA"/>
<path d="M579.478 87C576.111 80.9 568.212 77 559.536 77C550.86 77 542.961 80.9 539.594 87L514.731 131.3V149L507.739 154L413.728 12.5L413.469 12.1C407.771 4.6 397.153 0 385.757 0H353.125C341.471 0 332.018 7.2 332.018 16V74.8H303.4V16C303.4 7.2 293.947 0 282.293 0H249.661C238.266 0 227.647 4.6 221.95 12.1L221.82 12.3L87.9252 214C81.3211 222.4 75.4939 231.1 70.5732 240.1C68.3718 244.1 68.5013 248.4 70.5732 252.3C72.7746 256.3 76.9183 259.4 82.098 261L142.7 279.6L81.1916 276.6C75.2349 276.3 69.4078 277.9 65.264 281C61.1203 284 58.7894 288.2 58.7894 292.6V335.5C58.7894 339.8 61.1203 344.1 65.264 347.1C69.1488 350 74.458 351.5 79.8967 351.5C80.4146 351.5 80.8031 351.5 81.3211 351.5L142.959 348.5L82.2275 367C76.9183 368.6 72.7746 371.7 70.7027 375.7C68.5013 379.6 68.5013 384 70.7027 387.9C90.3855 424.2 123.665 455.1 167.174 477.3C211.461 499.9 263.517 511.9 317.385 512C317.515 512 317.515 512 317.644 512C317.774 512 317.774 512 317.903 512C371.902 512 423.828 500 468.114 477.3C511.624 455.1 545.033 424.2 564.586 387.9C566.787 383.9 566.787 379.6 564.586 375.7C562.385 371.7 558.241 368.6 553.061 367L492.459 348.4L554.097 351.5C554.615 351.5 555.004 351.5 555.522 351.5C560.96 351.5 566.269 349.9 570.154 347.1C574.298 344.1 576.629 339.9 576.629 335.5V292.6C576.629 288.3 574.298 284 570.154 281C565.881 277.9 560.054 276.3 554.227 276.6L492.588 279.7L553.191 261.1C558.5 259.5 562.644 256.4 564.715 252.4C566.917 248.5 566.917 244.1 564.715 240.2C560.831 233.1 556.428 226.2 551.637 219.5L595.017 197.5C600.844 194.5 604.34 189.5 604.34 184.1V131.5L579.478 87ZM558.5 93.4C558.629 93.2 558.888 93 559.536 93C560.054 93 560.442 93.2 560.572 93.4L578.312 125H540.889L558.5 93.4ZM502.171 295.2V332.8L379.671 326.7C381.225 322.6 382.002 318.4 382.002 314C382.002 313.8 382.002 313.5 382.002 313.3V313.2C382.002 311.7 381.872 310.2 381.614 308.8L380.966 301.3L502.171 295.2ZM255.747 326.7L133.247 332.8V295.2L254.452 301.2L253.805 308.7C253.546 310.2 253.416 311.6 253.416 313.1V313.2C253.416 313.4 253.416 313.7 253.416 313.9C253.416 318.4 254.323 322.7 255.747 326.7ZM292.393 90.9C292.393 90.9 292.523 90.8 292.782 90.8H342.507C342.766 90.8 342.895 90.9 342.895 90.9V91.3L358.175 276.8C347.039 270 333.054 266 317.644 266C302.364 266 288.25 270 277.243 276.7L292.523 91.2L292.393 90.9ZM274.523 310.2C277.113 294.3 295.501 282 317.774 282C340.046 282 358.434 294.4 361.024 310.2L361.283 314C361.283 331.6 341.73 346 317.774 346C293.818 346 274.264 331.7 274.264 314L274.523 310.2ZM372.549 199.6C388.995 203.9 404.534 210.3 418.389 218.2L376.563 248.2L372.549 199.6ZM433.799 207.1C415.281 196 393.915 187.5 371.254 182.4L367.369 135.7C408.159 141.9 445.842 155.6 477.438 175.8L433.799 207.1ZM353.125 16H385.757C389.771 16 393.397 17.5 395.469 20L490.516 163.4C454.777 140.7 412.044 125.5 365.945 119.2L363.614 91.2C363.744 87.1 361.801 83 358.046 79.9C356.492 78.6 354.679 77.5 352.607 76.7V16.1C352.737 16.1 352.866 16 353.125 16ZM239.949 20C241.891 17.5 245.647 16 249.661 16H282.293C282.552 16 282.681 16.1 282.681 16.1V76.8C280.739 77.6 278.797 78.7 277.243 80C273.488 83.1 271.545 87.1 271.675 91.3L269.344 119.3C225.964 125.2 184.915 139.2 150.34 159.9C148.398 161.1 146.456 162.3 144.513 163.5L239.949 20ZM89.7381 246.2L105.795 221.9C140.758 177.9 199.936 146.1 267.919 135.7L264.035 182.5C209.907 194.7 166.656 224.5 145.938 263.5L89.7381 246.2C89.8676 246.2 89.8676 246.2 89.7381 246.2ZM165.362 269.4C182.713 236.7 218.194 211.4 262.74 199.7L255.747 285.3L209.518 283L165.362 269.4ZM79.8967 335.4C79.6377 335.4 79.5082 335.3 79.3787 335.3V292.6C79.5082 292.6 79.6377 292.5 79.8967 292.5L112.529 294.1V333.8L79.8967 335.4ZM545.551 381.8C527.551 415.1 496.732 443.5 456.719 463.9C415.67 484.8 367.628 495.9 317.644 495.9C267.66 495.9 219.619 484.8 178.57 463.9C138.557 443.5 107.867 415.1 89.7381 381.8C89.7381 381.8 89.7381 381.8 89.8676 381.8L146.197 364.5C173.908 416.7 241.373 451.3 317.644 451.4H317.774H317.903C394.174 451.3 461.64 416.8 489.351 364.6L545.551 381.8ZM470.057 358.7C445.453 404.9 385.498 435.4 317.774 435.4C249.92 435.4 189.965 404.8 165.362 358.6L209.518 345L265.718 342.2C277.372 354.1 296.278 361.9 317.515 361.9C338.752 361.9 357.657 354.1 369.312 342.2L425.511 345L470.057 358.7ZM555.522 292.5C555.78 292.5 555.91 292.6 556.039 292.6V335.3C555.91 335.3 555.78 335.4 555.522 335.4L522.889 333.8V294.1L555.522 292.5ZM545.551 246.1C545.551 246.2 545.551 246.2 545.551 246.1L427.195 282.4L534.285 228.1C538.429 234 542.184 240 545.551 246.1ZM384.592 285L379.671 285.2L378.376 268.8L535.45 156V141H583.751V184L384.592 285Z" fill="#555E6B"/>
</svg>
