<svg width="664" height="512" viewBox="0 0 664 512" fill="none" xmlns="http://www.w3.org/2000/svg">
<path d="M646.362 95.1996L616.145 54.9996C606.937 42.6996 589.689 35.0996 571.273 35.0996L94.9312 35.1996C76.9047 35.1996 59.9156 42.5996 50.5781 54.4996L18.1562 95.7996C8.17029 108.5 8.17029 124.3 17.8969 136.9L261.45 457.4C270.787 469.4 287.777 476.9 305.933 476.9H361.698C379.984 476.9 397.233 469.3 406.441 457.1L640.397 143.4L646.233 135.6C655.7 123.1 655.7 107.7 646.362 95.1996ZM571.273 51.0996C582.297 51.0996 592.672 55.6996 598.248 63.0996L628.466 103.3C630.541 106.1 631.837 109.2 632.356 112.3C627.039 109.1 620.555 107.4 613.552 107.4C613.422 107.4 613.292 107.4 613.162 107.4H263.914C252.631 107.4 242.516 111.9 236.809 119.5C231.233 127.1 231.362 136.1 237.069 143.6L320.587 252.2L288.295 295.2C285.572 298.8 281.162 299.2 279.347 299.2C277.531 299.2 272.992 298.8 270.398 295.1L96.7469 63.1996C94.0234 59.5996 95.7094 56.3996 96.6172 55.1996C97.525 53.9996 100.248 51.1996 105.695 51.1996L571.273 51.0996ZM332.519 236.4L299.837 193.9H364.422L332.519 236.4ZM35.7937 104.1L68.2156 62.7996C69.9015 60.5996 72.1062 58.6996 74.5703 56.9996C73.9219 61.8996 75.3484 66.8996 78.7203 71.2996L252.372 303.2C257.948 310.7 268.064 315.3 279.347 315.3C279.347 315.3 279.347 315.3 279.477 315.3C290.759 315.3 300.745 310.8 306.452 303.3L388.414 193.9H452.091C457.537 193.9 460.131 196.7 461.039 197.9C461.947 199.1 463.762 202.3 461.039 205.9L287.387 437.7L286.998 438.2C285.053 441.3 281.292 441.7 279.736 441.8C275.845 441.9 272.473 440.4 270.528 437.8L35.7937 128.8C29.8281 121.2 29.8281 111.7 35.7937 104.1ZM388.544 449C382.967 456.3 372.722 460.9 361.698 460.9H305.933C299.578 460.9 293.483 459.4 288.425 456.7C295.817 454.9 302.042 451 305.544 445.4L479.066 213.7C484.642 206.2 484.642 197.2 478.936 189.7C473.359 182.2 463.244 177.7 451.961 177.7H287.647L254.966 135.3C252.242 131.7 253.928 128.5 254.836 127.3C255.744 126.1 258.467 123.3 263.914 123.3H613.292H613.422C618.739 123.3 621.462 126.1 622.37 127.3C623.278 128.5 625.094 131.7 622.37 135.3L388.544 449Z" fill="#555E6B"/>
</svg>
