<svg width="663" height="512" viewBox="0 0 663 512" fill="none" xmlns="http://www.w3.org/2000/svg">
<g clip-path="url(#clip0)">
<path d="M382.52 68.2L393.009 82.5L337.845 107.1L306.379 64.9L355.845 42.7C366.334 49.9 375.268 58.5 382.52 68.2ZM197.735 30C218.583 20.7 241.762 16 265.2 16C270.121 16 275.042 16.2 279.962 16.6L141.665 78.3C153.06 58.1 172.484 41.3 197.735 30ZM236.971 152.1L221.432 131.4L248.366 119.4L263.905 140.1L236.971 152.1ZM157.722 386.9L193.85 403H157.722V386.9ZM413.987 275.1L364.65 297.1L334.867 257.3L365.557 216.3C366.334 215.3 366.981 214.2 367.628 213.1L413.987 275.1ZM512.271 373C513.307 375.8 513.825 378.7 513.825 381.6C513.825 388.9 510.588 396 504.631 401.7C504.113 402.1 503.466 402.5 502.818 403.1H451.28C448.561 403.1 446.101 403.8 443.899 404.9C443.511 404.6 443.122 404.4 442.734 404.1L512.271 373Z" fill="#6247AA"/>
<path d="M610.556 498.3L541.925 408C539.594 404.9 535.321 403 530.659 403H527.81C532.084 396.4 534.414 389.1 534.414 381.6C534.414 375.6 532.99 369.7 530.141 364.2C535.062 360.5 538.299 355.7 539.335 350.3L548.918 298.4C553.709 295.3 557.335 291.1 558.888 286.3C561.09 280.1 559.924 273.6 555.781 268.1L415.929 81.5996L400.39 60.2996C379.542 32.3996 345.874 12.4996 305.602 4.19957C265.33 -4.10043 223.245 0.0995693 187.246 16.1996C151.247 32.2996 125.478 58.1996 114.73 89.2996C103.982 120.4 109.421 152.9 130.269 180.7L150.859 209L150.988 208.9L204.468 279.9L138.557 368C137.391 369.5 136.873 371.2 137.003 372.9V403H132.341C127.679 403 123.406 404.9 121.075 408L52.4445 498.3C50.2431 501 50.1136 504.4 52.1855 507.3C54.2574 510.2 58.1422 512 62.4154 512H281.646C285.919 512 289.804 510.2 291.876 507.3C293.818 504.5 293.688 501.1 291.617 498.3L222.986 408C222.856 407.8 222.597 407.6 222.468 407.4C222.986 407 223.374 406.5 223.763 406L261.186 355.9L285.66 388.6C289.804 394.2 296.537 398.1 304.566 399.8C307.285 400.4 310.004 400.6 312.594 400.6C316.22 400.6 319.846 400.1 323.342 399.1L388.995 417.9C392.491 418.9 396.117 419.4 399.872 419.4C405.311 419.4 410.62 418.3 415.411 416.2L424.476 412.2C426.806 414.4 429.526 416.4 432.245 418.3L371.384 498.4C369.182 501.1 369.053 504.5 371.125 507.4C373.197 510.3 377.081 512.1 381.355 512.1H600.585C604.858 512.1 608.743 510.3 610.815 507.4C612.887 504.4 612.757 501 610.556 498.3ZM382.52 68.1996L393.009 82.4996L337.845 107.1L306.379 64.8996L355.845 42.6996C366.334 49.8996 375.269 58.4996 382.52 68.1996ZM197.735 29.9996C218.583 20.6996 241.762 15.9996 265.2 15.9996C270.121 15.9996 275.042 16.1996 279.962 16.5996L141.665 78.2996C153.06 58.0996 172.484 41.2996 197.735 29.9996ZM132.471 100.8L309.745 21.6996C319.716 24.3996 329.04 27.7996 337.845 32.0996L295.89 50.9996C291.099 53.0996 287.732 56.5996 286.178 60.6996C284.754 64.7996 285.53 69.0996 288.25 72.7996L319.846 115L281.775 132L266.236 111.3C260.538 103.7 247.848 101 237.877 105.4L210.943 117.4C201.102 121.8 197.605 131.6 203.303 139.3L218.842 160L158.628 187L148.269 172.7C131.823 150.8 126.385 125.5 132.471 100.8ZM236.971 152.1L221.432 131.4L248.366 119.4L263.905 140.1L236.971 152.1ZM157.722 386.9L193.85 403H157.722V386.9V386.9ZM265.848 496H78.2134L136.744 419H207.317L265.848 496ZM210.295 391.9L160.959 369.9L278.149 213.1C282.423 220.2 289.286 226.2 298.221 230.2C305.861 233.6 314.278 235.3 322.695 235.3C324.249 235.3 325.803 235.2 327.356 235.1L210.295 391.9ZM413.987 275.1L364.65 297.1L334.867 257.3L365.557 216.3C366.334 215.3 366.981 214.2 367.629 213.1L413.987 275.1ZM347.557 208.3C343.802 213.4 337.586 217 330.205 218.6C322.824 220.2 315.184 219.3 308.58 216.4C301.976 213.5 297.314 208.7 295.242 203C293.17 197.3 294.336 191.4 298.091 186.3C303.4 179.3 312.983 175.3 322.824 175.3C327.615 175.3 332.536 176.2 337.068 178.2C350.795 184.3 355.456 197.8 347.557 208.3ZM273.229 339.9L322.954 273.3L346.78 305.1C349.5 308.8 354.032 311.4 359.341 312.6C361.154 313 362.967 313.2 364.78 313.2C368.405 313.2 371.902 312.5 375.139 311.1L424.476 289.1C434.317 284.7 437.813 274.9 432.116 267.2L366.075 178.9C361.931 173.1 355.715 168.1 347.687 164.5C324.249 154 294.077 160.3 280.48 178.4L216.511 264L169.117 201L403.498 96.4996L538.17 276.2C539.594 278.1 539.983 280.2 539.206 282.3C538.429 284.4 536.745 286.1 534.414 287.1L317.904 383.6C315.573 384.7 312.724 384.9 310.004 384.4C307.285 383.8 305.084 382.5 303.659 380.7L273.229 339.9ZM405.052 402.3C402.332 403.5 399.225 403.7 396.246 402.9L347.169 388.9L525.997 309.1L518.746 348C518.228 350.4 516.415 352.6 513.696 353.8L405.052 402.3ZM512.271 373C513.307 375.8 513.825 378.7 513.825 381.6C513.825 388.9 510.588 396 504.631 401.6C504.113 402 503.466 402.4 502.818 403H451.28C448.561 403 446.101 403.7 443.899 404.8C443.511 404.5 443.122 404.3 442.734 404L512.271 373ZM397.153 496L455.683 419H526.256L584.787 496H397.153Z" fill="#555E6B"/>
<path d="M355.456 82.2998C364.038 82.2998 370.995 76.9272 370.995 70.2998C370.995 63.6724 364.038 58.2998 355.456 58.2998C346.874 58.2998 339.917 63.6724 339.917 70.2998C339.917 76.9272 346.874 82.2998 355.456 82.2998Z" fill="#555E6B"/>
</g>
<defs>
<clipPath id="clip0">
<rect width="663" height="512" fill="white"/>
</clipPath>
</defs>
</svg>
