<svg width="664" height="512" viewBox="0 0 664 512" fill="none" xmlns="http://www.w3.org/2000/svg">
<path d="M366.108 306.2H333.297H300.486C300.227 297.3 300.097 282.3 300.356 266.9H333.297H366.238C366.627 282.3 366.367 297.3 366.108 306.2ZM333.297 250.9H300.875C301.394 241.2 302.172 232.2 303.339 225.4C316.048 180.9 329.536 174 332.13 173C332.778 172.7 333.816 172.7 334.594 173C337.188 173.9 350.675 180.9 363.384 225.4C364.681 232.2 365.459 241.2 365.848 250.9H333.297ZM333.297 322.2H365.33L359.623 403.5H333.297H306.97L301.264 322.2H333.297ZM178.839 457.1V328.4H207.5V431.7V457.1H178.839ZM249.13 457.1H228.38V447.7H249.13V457.1ZM417.464 457.1V447.7H438.214V457.1H417.464ZM487.755 456.9V457.1H459.094V431.7V328.4H487.884L487.755 456.9Z" fill="#6247AA"/>
<path d="M562.974 127.4C557.267 127.4 552.599 131 552.599 135.4V280.2H534.183C533.664 271.8 532.627 263.6 530.681 257.1C524.197 236.2 503.188 205.6 500.983 202.5C498.908 199 471.673 153.8 444.569 106.9C429.914 81.5 420.706 29.4 418.242 14.1C416.945 6.1 408.127 0.1 397.622 0.1H361.569C350.156 0.1 340.819 7.3 340.819 16.1V52.6H326.294V16C326.294 7.2 316.956 0 305.544 0H269.491C258.986 0 250.167 6 248.87 14C246.406 29.4 237.198 81.4 222.544 106.8C195.439 153.7 168.205 198.9 166.13 202.4C163.925 205.6 142.916 236.1 136.431 257C134.356 263.5 133.319 271.8 132.93 280.1H113.995V135.4C113.995 131 109.327 127.4 103.62 127.4C97.9141 127.4 93.2454 131 93.2454 135.4V340.4C93.2454 344.8 97.9141 348.4 103.62 348.4C109.327 348.4 113.995 344.8 113.995 340.4V296.2H132.152C132.281 302.7 132.541 308.6 132.93 313.3C133.578 321.8 142.656 328.4 153.68 328.4H157.959V456.9C157.83 461.2 160.034 465.3 163.925 468.3C167.816 471.4 173.133 473.1 178.709 473.1H207.5V496H177.802C172.095 496 167.427 499.6 167.427 504C167.427 508.4 172.095 512 177.802 512H257.819C263.525 512 268.194 508.4 268.194 504C268.194 499.6 263.525 496 257.819 496H228.25V473.1H249C260.413 473.1 269.75 465.9 269.75 457.1V447.7H333.297H396.714V457.1C396.714 465.9 406.052 473.1 417.464 473.1H438.214V496H408.516C402.809 496 398.141 499.6 398.141 504C398.141 508.4 402.809 512 408.516 512H488.533C494.239 512 498.908 508.4 498.908 504C498.908 499.6 494.239 496 488.533 496H459.094V473.1H487.884C493.461 473.1 498.778 471.4 502.669 468.3C506.559 465.2 508.634 461.2 508.634 456.9V328.4H512.914C523.938 328.4 533.016 321.8 533.664 313.3C534.053 308.6 534.313 302.7 534.442 296.2H552.599V340.4C552.599 344.8 557.267 348.4 562.974 348.4C568.68 348.4 573.349 344.8 573.349 340.4V135.4C573.349 131 568.68 127.4 562.974 127.4ZM324.478 68.5H342.116C352.75 68.5 361.309 61.9 361.309 53.7V16H395.158L391.138 188C390.749 204 388.803 219.9 385.302 235.6C384.783 230.9 384.264 226.6 383.616 222.9L383.486 222.3C373.241 186 359.624 164.6 343.283 158.6C336.928 156.3 329.277 156.3 322.922 158.6C306.581 164.6 293.094 186 282.719 222.3L282.589 222.9C281.941 226.6 281.292 231 280.903 235.6C277.531 219.9 275.586 204 275.067 188L271.047 16H304.895V53.7C305.284 61.9 313.844 68.5 324.478 68.5ZM366.108 306.2H333.297H300.486C300.227 297.3 300.097 282.3 300.356 266.9H333.297H366.238C366.627 282.3 366.367 297.3 366.108 306.2ZM333.297 250.9H300.875C301.394 241.2 302.172 232.2 303.339 225.4C316.048 180.9 329.536 174 332.13 173C332.778 172.7 333.816 172.7 334.594 173C337.188 173.9 350.675 180.9 363.384 225.4C364.681 232.2 365.459 241.2 365.849 250.9H333.297ZM333.297 322.2H365.33L359.623 403.5H333.297H306.97L301.264 322.2H333.297ZM178.839 457.1V328.4H207.5V431.7V457.1H178.839ZM249.13 457.1H228.38V447.7H249.13V457.1ZM417.464 457.1V447.7H438.214V457.1H417.464ZM487.755 456.9V457.1H459.094V431.7V328.4H487.884L487.755 456.9ZM512.914 312.4H459.094C447.681 312.4 438.344 319.6 438.344 328.4V431.7H333.297H228.25V328.4C228.25 319.6 218.913 312.4 207.5 312.4H153.68C152.902 301.7 151.734 275.4 156.144 260.8C162.239 241.2 183.897 210.2 184.156 209.9L184.416 209.5C184.675 209 212.817 162.2 241.089 113.5C245.239 106.3 249 97.4 252.242 87.9L254.577 188.5C255.614 225 263.914 260.9 279.477 295.4C279.606 306.5 279.866 314.3 279.995 315.2L286.22 404.5C286.869 413 295.947 419.6 306.97 419.6H359.753C370.777 419.6 379.855 413 380.503 404.5L386.728 315.4V315.2C386.728 314.3 386.988 306.4 387.247 295.4C402.68 260.9 411.109 225 412.147 188.5L414.481 88C417.724 97.5 421.484 106.4 425.634 113.6C453.906 162.3 482.048 209.1 482.308 209.6L482.567 210C482.827 210.3 504.484 241.4 510.58 260.9C514.859 275.4 513.692 301.7 512.914 312.4Z" fill="#555E6B"/>
</svg>
