<svg width="663" height="512" viewBox="0 0 663 512" fill="none" xmlns="http://www.w3.org/2000/svg">
<path d="M189.965 36.1C223.762 22.6 270.509 16 332.795 16C395.081 16 441.827 22.6 475.625 36.1C491.941 42.6 500.099 52.6 504.242 60.4C470.186 54.9 407.641 47 332.795 47C257.948 47 195.404 54.9 161.347 60.4C165.491 52.6 173.778 42.6 189.965 36.1Z" fill="#6247AA"/>
<path d="M332.795 161C396.246 161 481.063 171.1 506.055 179.3C530.788 187.5 541.148 195.9 532.601 221.8C523.925 248.1 507.609 297 473.682 313.5C466.042 317.2 460.863 316.6 457.755 315.9C441.439 311.9 428.749 288.5 424.605 280.9L423.957 279.7C410.102 254.3 379.93 211.8 332.795 211.8C285.66 211.8 255.488 254.4 241.632 279.7L240.985 280.9C236.841 288.6 224.151 312 207.835 315.9C204.727 316.7 199.547 317.3 191.907 313.5C157.98 297 141.664 248.1 132.988 221.8C124.442 195.9 134.672 187.5 159.534 179.3C184.526 171.1 269.344 161 332.795 161Z" fill="#6247AA"/>
<path d="M332.795 472.3C325.673 472.3 319.846 467.8 319.846 462.3C319.846 456.8 325.543 452.4 332.665 452.3H332.795C339.917 452.3 345.744 456.8 345.744 462.3C345.744 467.8 339.917 472.3 332.795 472.3Z" fill="#C9CBCF"/>
<path d="M612.239 231.9C611.073 229.9 609.908 228.1 608.872 226.4C602.009 215.7 595.793 207.4 593.074 203.8C592.686 158.3 582.326 103.8 576.888 92.3C570.283 78.3 556.687 70.5 527.681 64.5C524.702 54.5 514.99 33.8 485.207 21.9C448.431 7.2 398.577 0 332.795 0C267.013 0 217.158 7.2 180.383 21.9C150.599 33.8 140.887 54.5 137.909 64.5C108.903 70.5 95.3061 78.2 88.702 92.3C83.2634 103.9 72.904 158.4 72.5155 203.8C69.7962 207.4 63.71 215.7 56.7175 226.4C55.6815 228 54.5161 229.9 53.3507 231.9C35.6102 261.3 29.0061 294.2 34.5743 326.9C34.7038 327.9 34.9628 329 35.0923 330C38.2001 350.7 66.1704 363.5 67.3358 364L107.608 381.2C117.708 407.5 119.133 426.1 119.133 439.8C119.133 455.9 143.866 461.9 163.678 466.7C171.318 468.5 178.44 470.3 182.713 472.1C196.051 477.8 230.755 495.3 244.87 505.6C250.567 509.7 258.078 512 265.977 512H332.795H399.483C407.382 512 414.893 509.7 420.59 505.6C434.705 495.3 469.409 477.8 482.747 472.1C487.02 470.2 494.272 468.5 501.782 466.7C521.594 461.9 546.327 455.8 546.327 439.8C546.327 426.1 547.752 407.5 557.852 381.2L597.995 364.1L598.124 364C598.901 363.7 605.635 360.6 612.757 355.2C622.987 347.5 629.073 338.8 630.368 330C630.497 329 630.627 327.9 630.886 326.9C636.583 294.1 629.979 261.3 612.239 231.9ZM189.965 36.1C223.762 22.6 270.509 16 332.795 16C395.081 16 441.827 22.6 475.625 36.1C491.941 42.6 500.099 52.6 504.242 60.4C470.186 54.9 407.641 47 332.795 47C257.948 47 195.404 54.9 161.347 60.4C165.491 52.6 173.778 42.6 189.965 36.1ZM55.552 328.1C55.4225 327 55.1636 325.9 55.0341 324.8C50.1134 295.1 55.9405 265.3 72.127 238.7C72.7745 237.6 73.422 236.6 74.0694 235.6C77.6952 275.4 87.2776 327.4 98.6729 359.1L77.6952 350.1C76.5298 349.5 57.4944 340.4 55.552 328.1ZM278.408 496V354C278.408 330.8 302.753 312 332.795 312C362.837 312 387.182 330.8 387.182 354V496H332.795H278.408ZM525.738 439.7C525.738 444 505.408 449 495.696 451.4C487.149 453.5 478.991 455.5 472.776 458.1C458.661 464.1 424.087 481.6 407.9 492.9V354C407.9 322 374.232 296 332.795 296C291.357 296 257.689 322 257.689 354V492.9C241.373 481.5 206.928 464.1 192.814 458.1C186.728 455.5 178.57 453.5 169.894 451.4C160.182 449 139.851 444.1 139.851 439.7C139.851 422.9 137.909 399.1 122.499 364.4C106.701 328.9 93.2343 247.7 93.2343 206C93.2343 161.8 103.723 107.2 108.126 97.7C111.363 90.8 116.672 84.7 149.304 78.8C175.332 74 245.388 63 332.795 63C420.202 63 490.257 74 516.285 78.8C548.917 84.7 554.226 90.9 557.464 97.7C561.866 107.1 572.355 161.7 572.355 206C572.355 247.7 558.888 328.9 543.09 364.4C527.681 399.1 525.738 422.9 525.738 439.7ZM610.556 324.8C610.426 325.9 610.167 327 610.038 328.1C608.484 338.6 593.592 347.5 588.024 350.1L567.046 359.1C578.441 327.4 588.024 275.4 591.65 235.6C592.297 236.6 592.945 237.6 593.592 238.7C609.52 265.3 615.476 295.1 610.556 324.8Z" fill="#555E6B"/>
<path d="M367.758 132C373.455 132 378.117 128.4 378.117 124V88C378.117 83.6 373.455 80 367.758 80C362.06 80 357.398 83.6 357.398 88V124C357.398 128.4 362.06 132 367.758 132Z" fill="#555E6B"/>
<path d="M332.795 130C338.493 130 343.154 126.4 343.154 122V86C343.154 81.6 338.493 78 332.795 78C327.097 78 322.436 81.6 322.436 86V122C322.436 126.4 327.097 130 332.795 130Z" fill="#555E6B"/>
<path d="M297.832 132C303.53 132 308.191 128.4 308.191 124V88C308.191 83.6 303.53 80 297.832 80C292.134 80 287.473 83.6 287.473 88V124C287.473 128.4 292.134 132 297.832 132Z" fill="#555E6B"/>
<path d="M514.214 164.6C484.171 154.8 394.304 145 332.795 145V161C396.246 161 481.063 171.1 506.055 179.3C530.788 187.5 541.148 195.9 532.601 221.8C523.925 248.1 507.609 297 473.682 313.5C466.042 317.2 460.863 316.6 457.755 315.9C441.439 311.9 428.749 288.5 424.605 280.9L423.957 279.7C410.102 254.3 379.93 211.8 332.795 211.8C285.789 211.8 255.488 254.4 241.632 279.7L240.985 280.9C236.841 288.6 224.151 312 207.835 315.9C204.727 316.7 199.547 317.3 191.907 313.5C157.98 297 141.664 248.1 132.988 221.8C124.442 195.9 134.672 187.5 159.534 179.3C184.526 171.1 269.344 161 332.795 161V145C271.286 145 181.419 154.7 151.376 164.6C139.334 168.6 124.442 174.5 116.154 185.6C108.385 195.9 107.349 209 112.917 225.8C122.37 254.3 139.981 307.2 180.901 327.1C188.282 330.7 195.792 332.5 203.303 332.5C206.929 332.5 210.554 332.1 214.051 331.2C239.561 325 253.934 298.4 260.02 287.1L260.668 286C268.049 272.4 295.242 227.9 332.665 227.9C370.089 227.9 397.282 272.4 404.663 286L405.311 287.1C411.397 298.4 425.9 325 451.28 331.2C454.777 332.1 458.402 332.5 462.028 332.5C469.539 332.5 477.049 330.7 484.43 327.1C525.35 307.2 542.961 254.3 552.414 225.8C557.982 209 556.946 195.8 549.176 185.6C541.148 174.6 526.256 168.6 514.214 164.6Z" fill="#555E6B"/>
<path d="M332.795 436.3H330.852L330.723 436.4C313.112 437.3 299.256 448.6 299.256 462.3C299.256 476.6 314.407 488.3 332.924 488.3C351.442 488.3 366.592 476.6 366.592 462.3C366.463 448 351.312 436.3 332.795 436.3ZM332.795 472.3C325.673 472.3 319.846 467.8 319.846 462.3C319.846 456.8 325.543 452.4 332.665 452.3H332.795C339.917 452.3 345.744 456.8 345.744 462.3C345.744 467.8 339.917 472.3 332.795 472.3Z" fill="#555E6B"/>
</svg>
