<svg width="664" height="512" viewBox="0 0 664 512" fill="none" xmlns="http://www.w3.org/2000/svg">
<path d="M161.85 115.8L59.5265 144.5C56.9327 145.2 54.0796 145.1 51.6155 144.2C49.1515 143.3 47.2062 141.7 46.2984 139.7L31.1249 107.8C29.1796 103.7 31.903 99.0998 37.3499 97.4998L139.673 68.7998C140.841 68.4998 142.008 68.2998 143.175 68.2998C144.731 68.2998 146.158 68.5998 147.584 69.0998C150.048 69.9998 151.994 71.5998 152.901 73.5998L167.945 105.5C170.02 109.7 167.297 114.3 161.85 115.8ZM215.281 445.7C219.95 431.9 236.161 421.7 255.484 421.7H411.109C430.433 421.7 446.644 431.9 451.312 445.7H215.281ZM635.469 107.8L620.425 139.7C619.517 141.7 617.572 143.3 615.108 144.2C612.644 145.1 609.791 145.2 607.197 144.5L504.873 115.8C499.556 114.3 496.703 109.7 498.648 105.5L513.562 73.5998C514.47 71.5998 516.416 69.9998 518.88 69.0998C521.344 68.1998 524.197 68.0998 526.791 68.7998L629.114 97.4998C634.561 98.9998 637.414 103.6 635.469 107.8Z" fill="#6247AA"/>
<path d="M346.655 362.5C338.614 368.7 325.386 368.7 317.345 362.5C309.305 356.3 309.305 346.1 317.345 339.9C322.662 335.8 354.176 318.5 400.605 294.1C372.592 332.2 351.712 358.6 346.655 362.5Z" fill="#6247AA"/>
<path d="M653.884 94.8995C650.383 89.0995 644.158 84.6995 636.377 82.4995L534.053 53.7995C521.473 50.2995 507.856 53.3995 499.686 60.7995C496.055 60.4995 492.553 60.2995 489.181 60.2995H485.42C425.505 60.7995 394.12 101.2 394.12 141C394.12 144.8 394.25 148.7 394.509 152.5C395.158 166 395.677 180.1 388.933 188C388.155 189 387.247 189.8 386.469 190.7C369.22 187.4 351.453 185.8 333.427 185.8C315.27 185.8 297.503 187.5 280.384 190.7C279.606 189.8 278.828 189 277.92 188C271.047 180.1 271.695 166.1 272.344 152.5C272.473 148.7 272.733 144.8 272.733 141C272.733 101.2 241.348 60.7995 181.433 60.2995H177.672C174.3 60.2995 170.798 60.4995 167.167 60.7995C158.997 53.3995 145.38 50.2995 132.8 53.7995L30.2172 82.4995C14.1359 86.9995 5.83594 100.8 11.6719 113.3L26.7156 145.2C29.5688 151.2 35.275 156 42.7969 158.7C46.9469 160.2 51.4859 161 55.8953 161C59.5266 161 63.0281 160.5 66.5297 159.5L168.853 130.8C178.32 128.2 185.064 122.3 187.917 115.5C192.327 118.6 194.661 124.8 194.661 133.9V136.4C194.661 160.9 194.661 193.6 208.667 215.3C206.462 216.5 204.128 217.7 201.923 219C163.666 240.8 135.913 270.9 121.906 306L100.119 360.7C90.5219 384.6 96.0984 409.9 115.422 430C134.745 450.1 164.314 461.7 196.736 461.7H469.598C502.02 461.7 531.719 450.2 550.912 430C570.106 409.8 575.813 384.6 566.216 360.7L544.558 306C530.552 270.9 502.928 240.8 464.541 219C462.336 217.7 460.131 216.5 457.797 215.3C471.803 193.6 471.803 160.9 471.803 136.4V133.9C471.803 124.8 474.008 118.6 478.417 115.5C478.806 116.5 479.325 117.4 479.844 118.4C483.345 124.2 489.57 128.6 497.352 130.8L599.675 159.5C603.177 160.5 606.808 160.9 610.309 160.9C623.019 160.9 634.95 154.8 639.619 145.1L654.662 113.2C657.775 107.2 657.386 100.7 653.884 94.8995ZM161.85 115.8L59.5266 144.5C56.9328 145.2 54.0797 145.1 51.6156 144.2C49.1516 143.3 47.2063 141.7 46.2984 139.7L31.125 107.8C30.2172 105.8 30.3469 103.6 31.5141 101.7C32.6813 99.7995 34.7563 98.2995 37.35 97.5995L139.673 68.8995C140.841 68.5995 142.008 68.3995 143.175 68.3995C144.731 68.3995 146.158 68.6995 147.584 69.1995C150.048 70.0995 151.994 71.6995 152.902 73.6995L167.945 105.6C170.02 109.7 167.297 114.3 161.85 115.8ZM215.411 136.5V134C215.411 117.7 209.186 106.5 196.736 100.8C193.494 99.2995 190.122 98.2995 186.491 97.7995L176.375 76.2995C176.764 76.2995 177.153 76.2995 177.413 76.2995H180.006C214.503 76.2995 251.723 96.4995 251.723 141C251.723 144.5 251.594 148.1 251.464 151.9C250.816 167.4 250.167 183.4 259.505 195.4C248.092 198.5 237.069 202.3 226.434 206.9C215.411 188.7 215.411 158.8 215.411 136.5ZM215.281 445.7C219.95 431.9 236.161 421.7 255.484 421.7H411.109C430.433 421.7 446.644 431.9 451.312 445.7H215.281ZM524.716 310.7L546.503 365.4C554.025 384.4 549.616 404.5 534.312 420.5C519.528 435.9 497.092 445 472.322 445.6C467.394 423 441.716 405.7 410.98 405.7H255.484C224.748 405.7 199.07 423 194.142 445.6C169.372 445 146.936 435.9 132.152 420.5C116.848 404.5 112.439 384.4 119.961 365.4L141.748 310.7C154.458 278.9 179.487 251.6 214.244 231.9C249 212.2 290.111 201.7 333.297 201.7C376.483 201.7 417.594 212.1 452.35 231.9C486.977 251.7 512.136 278.9 524.716 310.7ZM469.858 100.7C457.537 106.4 451.183 117.6 451.183 133.9V136.4C451.183 158.8 451.183 188.6 440.159 206.8C429.525 202.3 418.502 198.4 407.089 195.3C416.427 183.2 415.778 167.3 415.13 151.8C415 148 414.87 144.4 414.87 140.9C414.87 96.3995 452.091 76.1995 486.588 76.1995H489.181C489.57 76.1995 489.959 76.1995 490.219 76.1995L480.103 97.5995C476.472 98.1995 472.97 99.1995 469.858 100.7ZM635.469 107.8L620.425 139.7C618.48 143.8 612.514 146 607.067 144.5L504.744 115.8C502.15 115.1 500.075 113.6 498.908 111.7C497.741 109.8 497.611 107.6 498.519 105.6L513.562 73.5995C515.508 69.4995 521.473 67.2995 526.92 68.7995L629.244 97.4995C631.838 98.1995 633.913 99.6995 635.08 101.6C636.247 103.6 636.377 105.8 635.469 107.8Z" fill="#555E6B"/>
<path d="M435.361 265.1C431.341 262.3 425.505 261.9 420.966 264.3C389.063 280.9 313.584 320.3 302.691 328.6C286.48 341.1 286.48 361.4 302.691 373.9C310.731 380.1 321.366 383.299 332 383.299C342.634 383.299 353.269 380.2 361.309 373.9C372.074 365.6 413.703 309.1 437.566 276.2C440.289 272.4 439.381 267.9 435.361 265.1ZM346.655 362.5C338.614 368.7 325.386 368.7 317.345 362.5C309.305 356.3 309.305 346.1 317.345 339.9C322.663 335.8 354.177 318.5 400.605 294.1C372.592 332.2 351.713 358.6 346.655 362.5Z" fill="#555E6B"/>
<path d="M447.292 311.999C445.217 307.899 439.122 305.899 433.805 307.499C428.488 309.099 425.894 313.699 427.969 317.899C431.47 324.699 433.156 331.999 433.156 339.599V343.499C433.156 347.899 437.825 351.499 443.531 351.499H469.469C475.175 351.499 479.844 347.899 479.844 343.499C479.844 339.099 475.175 335.499 469.469 335.499H453.777C453.258 327.299 451.053 319.499 447.292 311.999Z" fill="#555E6B"/>
<path d="M364.162 273.7C369.609 275 375.445 272.7 377.131 268.4C378.817 264.2 375.834 259.7 370.258 258.4C361.569 256.3 352.62 255 343.542 254.4V242.1C343.542 237.7 338.873 234.1 333.167 234.1C327.461 234.1 322.792 237.7 322.792 242.1V254.4C281.552 257.1 244.461 275.4 224.23 303.6C217.356 313.1 213.466 324 212.688 335.3H197.125C191.419 335.3 186.75 338.9 186.75 343.3C186.75 347.7 191.419 351.3 197.125 351.3H223.062C228.769 351.3 233.438 347.7 233.438 343.3V339.4C233.438 329.3 236.55 319.6 242.516 311.3C260.802 285.8 295.558 270 333.297 270C343.802 270.1 354.177 271.3 364.162 273.7Z" fill="#555E6B"/>
</svg>
