<svg width="663" height="512" viewBox="0 0 663 512" fill="none" xmlns="http://www.w3.org/2000/svg">
<path d="M332.795 244.8C288.25 244.8 274.523 258.8 262.351 271.1C259.373 274.1 256.654 276.9 253.416 279.6C225.446 302.7 176.368 305.2 152.801 291.8C121.075 273.8 106.184 253.5 103.205 222.8H332.795H562.385C559.406 253.4 544.515 273.8 512.789 291.8C489.222 305.1 440.144 302.7 412.174 279.6C408.936 276.9 406.217 274.1 403.239 271.1C391.066 258.8 377.34 244.8 332.795 244.8Z" fill="#6247AA"/>
<path d="M478.733 460.8C471.611 460.8 465.783 456.3 465.783 450.8C465.783 445.3 471.611 440.8 478.733 440.8C485.855 440.8 491.682 445.3 491.682 450.8C491.682 456.3 485.984 460.8 478.733 460.8Z" fill="#C9CBCF"/>
<path d="M632.699 338.4C613.016 313.2 605.246 263 604.469 258V175.8C604.469 129.7 581.29 85.9002 539.205 52.5002C496.861 18.8002 440.791 0.200195 381.484 0.200195H332.795H284.235C224.928 0.200195 168.858 18.8002 126.384 52.5002C84.1699 85.9002 60.9908 129.7 60.9908 175.8V258C60.2138 263 52.4443 313.1 32.7615 338.4C21.1072 353.3 19.9418 372.9 29.3947 395.2C36.9052 413.1 50.8904 431.8 68.7603 447.9L69.0193 448.2C100.356 476.5 139.334 511.8 196.958 511.8C225.057 511.8 245.129 503.8 264.423 496C284.494 487.9 303.4 480.3 332.536 480.3C361.672 480.3 380.578 487.9 400.649 496C419.943 503.8 440.014 511.8 468.114 511.8C525.868 511.8 564.845 476.6 596.052 448.2L596.311 447.9C614.181 431.8 628.167 413.1 635.677 395.2C645.519 373 644.353 353.4 632.699 338.4ZM332.795 347.8C301.717 347.8 281.645 361.7 263.905 374C247.071 385.7 232.438 395.8 209.777 395.8C191.13 395.8 159.146 377.2 131.694 350.7C100.356 320.2 81.58 285.8 81.58 258.5V222.8H82.2275C85.4648 258.9 103.205 283.7 140.369 304.7C154.225 312.5 171.189 316 188.67 316C218.583 316 249.79 305.9 268.437 290.5C272.322 287.3 275.559 284 278.667 280.8C289.674 269.6 298.35 260.8 332.665 260.8C366.981 260.8 375.657 269.6 386.664 280.8C389.771 284 393.009 287.2 396.894 290.5C415.411 305.8 446.619 316 476.661 316C494.142 316 511.106 312.6 524.961 304.7C562.126 283.7 579.866 258.9 583.103 222.8H583.751V258.5C583.751 285.7 564.974 320.2 533.637 350.7C506.314 377.3 474.2 395.8 455.553 395.8C433.022 395.8 418.389 385.7 401.426 374C383.944 361.7 363.873 347.9 332.795 347.8ZM583.88 183.8V206.8H81.7095V183.8H583.88ZM332.795 244.8C288.25 244.8 274.523 258.8 262.351 271.1C259.373 274.1 256.653 276.9 253.416 279.6C225.446 302.7 176.368 305.2 152.801 291.8C121.075 273.8 106.184 253.5 103.205 222.8H332.795H562.385C559.406 253.4 544.515 273.8 512.789 291.8C489.221 305.1 440.144 302.7 412.174 279.6C408.936 276.9 406.217 274.1 403.239 271.1C391.066 258.8 377.34 244.8 332.795 244.8ZM141.146 63.6002C179.606 33.0002 230.496 16.2002 284.106 16.2002H381.354C435.094 16.2002 485.855 33.0002 524.314 63.6002C560.183 92.1002 580.902 128.8 583.492 167.8H81.9685C84.5584 128.9 105.277 92.1002 141.146 63.6002ZM616.383 390.2C609.779 405.9 596.829 423.2 580.902 437.5L580.643 437.8C550.601 465 516.544 495.8 468.373 495.8C445.324 495.8 429.137 489.3 410.49 481.8C390.16 473.6 366.981 464.3 332.795 464.3C298.609 464.3 275.559 473.6 255.1 481.8C236.323 489.3 220.266 495.8 197.217 495.8C149.045 495.8 114.989 465 84.9468 437.8L84.6878 437.5C68.7603 423.2 55.8111 406 49.207 390.2C44.0273 377.9 40.013 360.3 50.6314 346.7C60.2138 334.4 67.0769 317.6 71.9976 302C81.1916 321.5 96.0832 341.6 115.636 360.6C147.621 391.7 184.656 411.8 209.907 411.8C240.467 411.8 260.279 398 277.761 385.9C294.077 374.5 309.616 363.8 332.795 363.8C355.974 363.8 371.384 374.5 387.829 385.9C405.311 398 425.252 411.8 455.683 411.8C480.934 411.8 517.969 391.7 549.953 360.6C569.507 341.6 584.398 321.5 593.592 302C598.513 317.6 605.376 334.4 614.958 346.7C625.577 360.4 621.562 377.9 616.383 390.2Z" fill="#555E6B"/>
<path d="M478.733 424.8C460.215 424.8 445.065 436.5 445.065 450.8C445.065 465.1 460.215 476.8 478.733 476.8C497.25 476.8 512.401 465.1 512.401 450.8C512.401 436.5 497.379 424.8 478.733 424.8ZM478.733 460.8C471.61 460.8 465.783 456.3 465.783 450.8C465.783 445.3 471.61 440.8 478.733 440.8C485.855 440.8 491.682 445.3 491.682 450.8C491.682 456.3 485.984 460.8 478.733 460.8Z" fill="#555E6B"/>
<path d="M90.6445 348C86.6302 344.9 80.0261 344.9 76.0119 348L55.0341 364.2C51.0199 367.3 51.0199 372.4 55.0341 375.5C57.106 377.1 59.6959 377.8 62.4152 377.8C65.1345 377.8 67.7244 377 69.7962 375.5L90.6445 359.3C94.6587 356.2 94.6587 351.1 90.6445 348Z" fill="#555E6B"/>
<path d="M110.716 372C106.702 368.9 100.097 368.9 96.0832 372L75.1054 388.2C71.0912 391.3 71.0912 396.4 75.1054 399.5C77.1773 401.1 79.7671 401.8 82.4865 401.8C85.2058 401.8 87.7957 401 89.8675 399.5L110.845 383.3C114.73 380.2 114.73 375.1 110.716 372Z" fill="#555E6B"/>
<path d="M116.154 396L95.1767 412.2C91.1625 415.3 91.1625 420.4 95.1767 423.5C97.2486 425.1 99.8384 425.8 102.558 425.8C105.277 425.8 107.867 425 109.939 423.5L130.917 407.3C134.931 404.2 134.931 399.1 130.917 396C126.773 392.9 120.169 392.9 116.154 396Z" fill="#555E6B"/>
</svg>
