<svg width="664" height="512" viewBox="0 0 664 512" fill="none" xmlns="http://www.w3.org/2000/svg">
<path d="M440.678 356.5C442.623 358 443.661 360 443.661 362.2V411.9C443.661 421.3 433.805 428.9 421.614 428.9C409.423 428.9 399.567 421.3 399.567 411.9V362.2C399.567 357.8 404.236 354.2 409.942 354.2H433.286C436.139 354.1 438.733 355 440.678 356.5ZM332 16.2002C338.484 16.7002 343.672 20.5002 344.45 25.6002L350.934 69.5002C345.488 68.0002 339.133 66.8002 332 66.8002C324.738 66.8002 318.383 67.9002 313.195 69.3002L319.68 25.6002C320.328 20.6002 325.516 16.7002 332 16.2002ZM223.322 356.5C225.267 355 227.861 354.2 230.714 354.2H254.058C259.764 354.2 264.433 357.8 264.433 362.2V411.9C264.433 421.3 254.577 428.9 242.386 428.9C230.195 428.9 220.339 421.3 220.339 411.9V362.2C220.339 360 221.377 358 223.322 356.5ZM36.9609 445.2C36.9609 448.5 33.4594 451.2 29.1797 451.2C24.9 451.2 21.3984 448.5 21.3984 445.2V353.2C21.3984 350.1 24.3812 347.6 28.2719 347.3C28.5312 347.3 28.9203 347.3 29.1797 347.3C29.4391 347.3 29.8281 347.3 30.0875 347.3C33.9781 347.7 36.9609 350.2 36.9609 353.2V445.2ZM642.602 445.2C642.602 448.5 639.1 451.2 634.82 451.2C630.541 451.2 627.039 448.5 627.039 445.2V353.2C627.039 350.1 630.022 347.6 633.912 347.3C634.172 347.3 634.561 347.3 634.82 347.3C635.08 347.3 635.469 347.3 635.728 347.3C639.619 347.7 642.602 350.2 642.602 353.2V445.2Z" fill="#6247AA"/>
<path d="M332 294.601H326.034C323.7 294.601 321.625 293.501 320.847 291.801C316.826 283.801 315.53 275.001 317.086 266.401L326.553 214.301C326.942 212.201 329.277 210.601 332.13 210.601C334.983 210.601 337.317 212.201 337.706 214.301L347.173 266.401C348.73 274.901 347.433 283.701 343.412 291.801C342.505 293.501 340.559 294.601 338.225 294.601H332Z" fill="#6247AA"/>
<path d="M332 362.3C326.294 362.3 321.625 358.7 321.625 354.3C321.625 349.9 326.294 346.3 332 346.3C337.706 346.3 342.375 349.9 342.375 354.3C342.375 358.7 337.706 362.3 332 362.3Z" fill="#C9CBCF"/>
<path d="M645.195 332.7V189.5H653.625C659.331 189.5 664 185.9 664 181.5C664 177.1 659.331 173.5 653.625 173.5H645.195V154.3C645.195 149.9 640.527 146.3 634.82 146.3C629.114 146.3 624.445 149.9 624.445 154.3V173.5H616.016C610.309 173.5 605.641 177.1 605.641 181.5C605.641 185.9 610.309 189.5 616.016 189.5H624.445V332.7C613.811 335.9 606.289 343.9 606.289 353.2V361.2H576.591C575.294 361.2 573.867 361.2 572.57 361.2V219.3H578.017C583.723 219.3 588.392 215.7 588.392 211.3C588.392 206.9 583.723 203.3 578.017 203.3H572.57V184.1C572.57 179.7 567.902 176.1 562.195 176.1C556.489 176.1 551.82 179.7 551.82 184.1V203.3H546.373C540.667 203.3 535.998 206.9 535.998 211.3C535.998 215.7 540.667 219.3 546.373 219.3H551.82V360.5C520.047 359 488.533 354.6 458.056 347.5C457.278 346.7 456.37 345.9 455.463 345.2C449.627 340.7 441.716 338.2 433.416 338.2H411.498L365.07 23.8002C363.125 11.0002 349.767 1.2002 333.297 0.300195V0.200195C332.908 0.200195 332.389 0.200195 332 0.200195C331.611 0.200195 331.092 0.200195 330.703 0.200195V0.300195C314.362 1.3002 300.875 11.1002 299.059 23.8002L252.631 338.1H230.714C222.414 338.1 214.633 340.6 208.667 345.1C207.759 345.8 206.852 346.6 206.073 347.4C175.467 354.6 144.083 358.9 112.309 360.4V219.3H117.756C123.463 219.3 128.131 215.7 128.131 211.3C128.131 206.9 123.463 203.3 117.756 203.3H112.309V184.1C112.309 179.7 107.641 176.1 101.934 176.1C96.2281 176.1 91.5594 179.7 91.5594 184.1V203.3H86.1125C80.4063 203.3 75.7375 206.9 75.7375 211.3C75.7375 215.7 80.4063 219.3 86.1125 219.3H91.5594V361.1C90.2625 361.1 88.8359 361.1 87.5391 361.1H57.7109V353.1C57.7109 343.8 50.1891 335.8 39.5547 332.6V189.5H47.9844C53.6906 189.5 58.3594 185.9 58.3594 181.5C58.3594 177.1 53.6906 173.5 47.9844 173.5H39.5547V154.3C39.5547 149.9 34.8859 146.3 29.1797 146.3C23.4734 146.3 18.8047 149.9 18.8047 154.3V173.5H10.375C4.66875 173.5 0 177.1 0 181.5C0 185.9 4.66875 189.5 10.375 189.5H18.8047V332.7C8.17031 335.9 0.648438 343.9 0.648438 353.2V445.2C0.648438 457.3 13.4875 467.2 29.1797 467.2C40.4625 467.2 50.3188 462.1 54.9875 454.7L118.275 465.3C155.625 471.5 193.753 474.8 232.011 475.2V504C232.011 508.4 236.68 512 242.386 512C248.092 512 252.761 508.4 252.761 504V479.3L259.505 481.5C282.2 488.9 306.062 492.7 330.703 493C331.092 493 331.611 493 332 493C332.389 493 332.908 493 333.297 493C357.808 492.7 381.8 488.9 404.495 481.5L411.239 479.3V504C411.239 508.4 415.908 512 421.614 512C427.32 512 431.989 508.4 431.989 504V475C471.544 474.4 511.098 470.7 549.616 463.8L608.234 453.3C612.384 461.4 622.759 467.2 634.691 467.2C650.383 467.2 663.222 457.3 663.222 445.2V353.2C663.352 343.8 655.83 335.9 645.195 332.7ZM440.678 356.5C442.623 358 443.661 360 443.661 362.2V411.9C443.661 421.3 433.805 428.9 421.614 428.9C409.423 428.9 399.567 421.3 399.567 411.9V362.2C399.567 357.8 404.236 354.2 409.942 354.2H433.286C436.139 354.1 438.733 355 440.678 356.5ZM332 16.2002C338.484 16.7002 343.672 20.5002 344.45 25.6002L350.934 69.5002C345.488 68.0002 339.133 66.8002 332 66.8002C324.738 66.8002 318.383 67.9002 313.195 69.3002L319.68 25.6002C320.328 20.6002 325.516 16.7002 332 16.2002ZM223.322 356.5C225.267 355 227.861 354.2 230.714 354.2H254.058C259.764 354.2 264.433 357.8 264.433 362.2V411.9C264.433 421.3 254.577 428.9 242.386 428.9C230.195 428.9 220.339 421.3 220.339 411.9V362.2C220.339 360 221.377 358 223.322 356.5ZM36.9609 445.2C36.9609 448.5 33.4594 451.2 29.1797 451.2C24.9 451.2 21.3984 448.5 21.3984 445.2V353.2C21.3984 350.1 24.3812 347.6 28.2719 347.3C28.5312 347.3 28.9203 347.3 29.1797 347.3C29.4391 347.3 29.8281 347.3 30.0875 347.3C33.9781 347.7 36.9609 350.2 36.9609 353.2V445.2ZM57.7109 438.7V377.1H87.4094C91.5594 377.1 95.7094 377 99.7297 376.9C100.378 377 101.027 377.1 101.675 377.1C102.583 377.1 103.491 377 104.269 376.8C136.431 375.8 168.334 372 199.33 365.5V411.7C199.33 427.1 213.206 440.1 231.752 443.7V459C195.05 458.7 158.348 455.5 122.425 449.5L57.7109 438.7ZM396.455 466.6C375.964 473.3 354.306 476.7 332 476.8C309.694 476.7 288.036 473.2 267.545 466.6L252.761 461.8V443.9C271.436 440.3 285.183 427.3 285.183 411.9V362.2C285.183 354.4 280.255 347.4 272.733 343L310.342 88.4002C312.547 87.1002 320.587 82.9002 332 82.9002C342.116 82.9002 350.675 87.0002 353.658 88.5002L391.267 343C383.745 347.4 378.817 354.3 378.817 362.2V411.9C378.817 427.3 392.694 440.3 411.239 443.9V461.8L396.455 466.6ZM545.077 448.2C507.986 454.8 470.117 458.4 432.119 459V443.9C450.664 440.3 464.541 427.3 464.541 411.9V365.7C495.666 372.2 527.439 376 559.602 377C560.38 377.2 561.288 377.3 562.195 377.3C562.844 377.3 563.492 377.2 564.141 377.1C568.291 377.2 572.441 377.3 576.461 377.3H606.159V437.4L545.077 448.2ZM642.602 445.2C642.602 448.5 639.1 451.2 634.82 451.2C630.541 451.2 627.039 448.5 627.039 445.2V353.2C627.039 350.1 630.022 347.6 633.912 347.3C634.172 347.3 634.561 347.3 634.82 347.3C635.08 347.3 635.469 347.3 635.728 347.3C639.619 347.7 642.602 350.2 642.602 353.2V445.2Z" fill="#555E6B"/>
<path d="M358.067 212.101C356.252 202.101 344.969 194.601 332 194.601C318.902 194.601 307.748 202.101 305.933 212.101L296.466 264.201C294.391 275.401 296.206 287.001 301.523 297.601C305.414 305.401 315.27 310.601 326.164 310.601H332.13V294.601H326.164C323.83 294.601 321.755 293.501 320.977 291.801C316.956 283.801 315.659 275.001 317.216 266.401L326.683 214.301C327.072 212.201 329.406 210.601 332.259 210.601C334.983 210.601 337.447 212.201 337.836 214.301L347.303 266.401C348.859 274.901 347.562 283.701 343.542 291.801C342.634 293.501 340.689 294.601 338.355 294.601H332V310.601H337.966C348.989 310.601 358.586 305.501 362.606 297.601C367.923 287.001 369.609 275.501 367.664 264.201L358.067 212.101Z" fill="#555E6B"/>
<path d="M332 330.3C314.881 330.3 300.875 341.1 300.875 354.3C300.875 367.5 314.881 378.3 332 378.3C349.119 378.3 363.125 367.5 363.125 354.3C363.125 341.1 349.119 330.3 332 330.3ZM332 362.3C326.294 362.3 321.625 358.7 321.625 354.3C321.625 349.9 326.294 346.3 332 346.3C337.706 346.3 342.375 349.9 342.375 354.3C342.375 358.7 337.706 362.3 332 362.3Z" fill="#555E6B"/>
</svg>
