<svg width="663" height="512" viewBox="0 0 663 512" fill="none" xmlns="http://www.w3.org/2000/svg">
<path d="M431.468 243.2C449.597 251.1 468.114 255.9 487.02 257.5C491.293 257.9 495.955 259.8 495.955 264V264.3V264.6C495.955 268.8 491.423 270.7 487.02 271.1C468.114 272.7 449.597 277.5 431.468 285.4C433.928 278.6 435.223 271.6 435.223 264.2C435.094 257 433.799 250 431.468 243.2Z" fill="#6247AA"/>
<path d="M176.109 271.1C171.836 270.7 167.174 268.8 167.174 264.6V264.3V264C167.174 259.8 171.707 257.9 176.109 257.5C195.015 255.9 213.533 251.1 231.662 243.2C229.201 250 227.906 257 227.906 264.3C227.906 271.6 229.201 278.7 231.662 285.5C213.533 277.6 195.015 272.8 176.109 271.1Z" fill="#6247AA"/>
<path d="M331.5 280.3C318.68 280.3 308.191 272.2 308.191 262.3C308.191 252.4 318.68 244.3 331.5 244.3C344.32 244.3 354.809 252.4 354.809 262.3C354.809 272.2 344.32 280.3 331.5 280.3Z" fill="#6247AA"/>
<path d="M632.958 262.4L615.217 192.8L570.413 35.3998C568.6 29.2998 562.644 24.5998 554.745 23.1998C546.846 21.8998 538.817 24.0998 533.896 29.0998L449.338 114C448.043 115.3 447.137 116.8 446.878 118.4L423.957 220.3C418.26 217 412.562 213.4 406.864 209.4C387.959 194 361.283 184.3 331.63 184.3C301.976 184.3 275.3 194 256.395 209.4C250.826 213.4 245.129 217 239.431 220.3L217.288 121.8C216.381 118 214.31 114.3 211.331 111.3L129.233 29.0998C124.313 24.0998 116.284 21.8998 108.255 23.1998C100.356 24.5998 94.2703 29.1998 92.5869 35.3998L47.7826 192.6L30.0422 262.4C29.6537 263.7 29.6537 265 30.0422 266.2L47.7826 336L92.8459 477C94.6588 482.7 100.356 487.1 107.608 488.6C107.997 488.7 108.385 488.7 108.773 488.8C110.198 489 111.493 489.1 112.917 489.1C118.485 489.1 123.924 487.3 127.938 484.1L211.202 416.5C214.051 414.2 215.863 411.3 216.64 408.2L239.172 308.3C245.258 311.8 251.344 315.7 257.301 320.1C276.077 335 302.364 344.3 331.371 344.3C360.377 344.3 386.664 335 405.44 320.1C411.397 315.8 417.483 311.8 423.569 308.3L446.101 408.2C446.748 411.3 448.69 414.2 451.539 416.5L534.803 484.2C538.817 487.4 544.256 489.2 549.824 489.2C551.248 489.2 552.543 489.1 553.968 488.9C554.356 488.8 554.745 488.8 555.133 488.7C562.514 487.2 568.082 482.7 569.895 477.1L615.088 336.2L632.828 266.2C633.217 264.9 633.217 263.7 632.958 262.4ZM194.497 121C195.533 122 196.181 123.2 196.44 124.5L220.137 229.7C206.281 235.6 192.166 239.4 178.052 241.1L126.902 52.9998L194.497 121ZM68.1129 195.9L107.22 58.3998L158.239 246.1C153.578 248.7 150.081 252.2 148.139 256.3H52.7033L68.1129 195.9ZM107.608 456.5L67.9834 332.6L52.7033 272.3H148.139C150.081 276.4 153.578 279.9 158.11 282.5L107.608 456.5ZM196.181 405.5L127.42 461.4L177.922 287.4C192.166 289.1 206.281 292.9 220.137 298.8L196.181 405.5ZM176.109 271.1C171.836 270.7 167.174 268.8 167.174 264.6V264.3V264C167.174 259.8 171.707 257.9 176.109 257.5C195.015 255.9 213.533 251.1 231.662 243.2C229.201 250 227.906 257 227.906 264.3C227.906 271.6 229.201 278.7 231.662 285.5C213.533 277.6 195.015 272.8 176.109 271.1ZM331.5 328.3C285.789 328.3 248.625 299.6 248.625 264.3C248.625 229 285.789 200.3 331.5 200.3C377.211 200.3 414.375 229 414.375 264.3C414.375 299.6 377.211 328.3 331.5 328.3ZM466.819 122.6L535.839 53.1998L484.819 241.2C470.575 239.5 456.589 235.7 442.734 229.8L466.819 122.6ZM431.468 243.2C449.597 251.1 468.114 255.9 487.02 257.5C491.293 257.9 495.955 259.8 495.955 264V264.3V264.6C495.955 268.8 491.423 270.7 487.02 271.1C468.114 272.7 449.597 277.5 431.468 285.4C433.928 278.7 435.223 271.6 435.223 264.2C435.094 257 433.799 250 431.468 243.2ZM466.819 405.5L442.734 298.9C456.589 293 470.704 289.1 484.948 287.5L535.45 461.5L466.819 405.5ZM595.017 332.6L555.392 456.5L504.89 282.6C509.552 280 512.919 276.5 514.861 272.4H610.297L595.017 332.6ZM514.731 256.3C512.789 252.2 509.293 248.7 504.631 246.1L555.651 58.1998L594.887 195.9L610.167 256.3H514.731Z" fill="#555E6B"/>
<path d="M331.5 228.3C307.285 228.3 287.473 243.6 287.473 262.3C287.473 281 307.285 296.3 331.5 296.3C355.715 296.3 375.527 281 375.527 262.3C375.527 243.6 355.715 228.3 331.5 228.3ZM331.5 280.3C318.68 280.3 308.191 272.2 308.191 262.3C308.191 252.4 318.68 244.3 331.5 244.3C344.32 244.3 354.809 252.4 354.809 262.3C354.809 272.2 344.32 280.3 331.5 280.3Z" fill="#555E6B"/>
</svg>
