<svg xmlns="http://www.w3.org/2000/svg" viewBox="0 0 144 144"><defs><style>.cls-1{fill:#fff;}</style></defs><g id="Ebene_2" data-name="Ebene 2"><g id="Ebene_1-2" data-name="Ebene 1"><path class="cls-1" d="M72,144a7.8,7.8,0,0,1-4.44-1.4A7.94,7.94,0,0,1,64.28,136V90a2,2,0,0,1,2-2h11.5a2,2,0,0,1,2,2v27.63l38-37.95H7.93a7.91,7.91,0,0,1-6.45-3.16,7.72,7.72,0,0,1,.78-10L66.54,2.26a7.73,7.73,0,0,1,10-.78,7.92,7.92,0,0,1,3.16,6.46V54a2,2,0,0,1-2,2H66.25a2,2,0,0,1-2-2V26.34l-37.94,38H136.07a7.91,7.91,0,0,1,6.45,3.16,7.72,7.72,0,0,1-.78,10L77.45,141.74A7.71,7.71,0,0,1,72,144Z"/></g></g></svg>